G75*
%MOIN*%
%OFA0B0*%
%FSLAX25Y25*%
%IPPOS*%
%LPD*%
%AMOC8*
5,1,8,0,0,1.08239X$1,22.5*
%
%ADD10C,0.01000*%
%ADD11C,0.00600*%
%ADD12C,0.00300*%
%ADD13C,0.00500*%
%ADD14C,0.00700*%
%ADD15C,0.01768*%
%ADD16C,0.00000*%
D10*
X0001500Y0005344D02*
X0001500Y0027844D01*
X0001698Y0027846D01*
X0001896Y0027854D01*
X0002093Y0027866D01*
X0002290Y0027883D01*
X0002487Y0027904D01*
X0002683Y0027931D01*
X0002878Y0027962D01*
X0003073Y0027998D01*
X0003267Y0028038D01*
X0003459Y0028084D01*
X0003651Y0028134D01*
X0003841Y0028188D01*
X0004030Y0028248D01*
X0004217Y0028312D01*
X0004403Y0028380D01*
X0004586Y0028453D01*
X0004769Y0028530D01*
X0004949Y0028612D01*
X0005127Y0028698D01*
X0005303Y0028789D01*
X0005477Y0028884D01*
X0005648Y0028983D01*
X0005817Y0029086D01*
X0005983Y0029193D01*
X0006147Y0029304D01*
X0006308Y0029419D01*
X0006466Y0029538D01*
X0006621Y0029661D01*
X0006773Y0029787D01*
X0006922Y0029918D01*
X0007068Y0030052D01*
X0007210Y0030189D01*
X0007349Y0030330D01*
X0007485Y0030474D01*
X0007617Y0030621D01*
X0007745Y0030772D01*
X0007870Y0030925D01*
X0007991Y0031082D01*
X0008108Y0031241D01*
X0008221Y0031404D01*
X0008330Y0031569D01*
X0008435Y0031736D01*
X0008536Y0031907D01*
X0008633Y0032079D01*
X0008726Y0032254D01*
X0008814Y0032431D01*
X0008898Y0032610D01*
X0008978Y0032791D01*
X0009053Y0032974D01*
X0009124Y0033159D01*
X0009190Y0033346D01*
X0009251Y0033534D01*
X0009308Y0033723D01*
X0009361Y0033914D01*
X0009409Y0034106D01*
X0009452Y0034299D01*
X0009490Y0034493D01*
X0009523Y0034688D01*
X0009552Y0034884D01*
X0009576Y0035080D01*
X0009596Y0035277D01*
X0009610Y0035475D01*
X0009620Y0035672D01*
X0009624Y0035870D01*
X0009624Y0036068D01*
X0009620Y0036266D01*
X0009610Y0036463D01*
X0009596Y0036661D01*
X0009576Y0036858D01*
X0009552Y0037054D01*
X0009523Y0037250D01*
X0009490Y0037445D01*
X0009452Y0037639D01*
X0009409Y0037832D01*
X0009361Y0038024D01*
X0009308Y0038215D01*
X0009251Y0038404D01*
X0009190Y0038592D01*
X0009124Y0038779D01*
X0009053Y0038964D01*
X0008978Y0039147D01*
X0008898Y0039328D01*
X0008814Y0039507D01*
X0008726Y0039684D01*
X0008633Y0039859D01*
X0008536Y0040032D01*
X0008435Y0040202D01*
X0008330Y0040369D01*
X0008221Y0040534D01*
X0008108Y0040697D01*
X0007991Y0040856D01*
X0007870Y0041013D01*
X0007745Y0041166D01*
X0007617Y0041317D01*
X0007485Y0041464D01*
X0007349Y0041608D01*
X0007210Y0041749D01*
X0007068Y0041886D01*
X0006922Y0042020D01*
X0006773Y0042151D01*
X0006621Y0042277D01*
X0006466Y0042400D01*
X0006308Y0042519D01*
X0006147Y0042634D01*
X0005983Y0042745D01*
X0005817Y0042852D01*
X0005648Y0042955D01*
X0005477Y0043054D01*
X0005303Y0043149D01*
X0005127Y0043240D01*
X0004949Y0043326D01*
X0004769Y0043408D01*
X0004586Y0043485D01*
X0004403Y0043558D01*
X0004217Y0043626D01*
X0004030Y0043690D01*
X0003841Y0043750D01*
X0003651Y0043804D01*
X0003459Y0043854D01*
X0003267Y0043900D01*
X0003073Y0043940D01*
X0002878Y0043976D01*
X0002683Y0044007D01*
X0002487Y0044034D01*
X0002290Y0044055D01*
X0002093Y0044072D01*
X0001896Y0044084D01*
X0001698Y0044092D01*
X0001500Y0044094D01*
X0001500Y0092844D01*
X0064000Y0092844D01*
X0064000Y0044094D01*
X0063802Y0044092D01*
X0063604Y0044084D01*
X0063407Y0044072D01*
X0063210Y0044055D01*
X0063013Y0044034D01*
X0062817Y0044007D01*
X0062622Y0043976D01*
X0062427Y0043940D01*
X0062233Y0043900D01*
X0062041Y0043854D01*
X0061849Y0043804D01*
X0061659Y0043750D01*
X0061470Y0043690D01*
X0061283Y0043626D01*
X0061097Y0043558D01*
X0060914Y0043485D01*
X0060731Y0043408D01*
X0060551Y0043326D01*
X0060373Y0043240D01*
X0060197Y0043149D01*
X0060023Y0043054D01*
X0059852Y0042955D01*
X0059683Y0042852D01*
X0059517Y0042745D01*
X0059353Y0042634D01*
X0059192Y0042519D01*
X0059034Y0042400D01*
X0058879Y0042277D01*
X0058727Y0042151D01*
X0058578Y0042020D01*
X0058432Y0041886D01*
X0058290Y0041749D01*
X0058151Y0041608D01*
X0058015Y0041464D01*
X0057883Y0041317D01*
X0057755Y0041166D01*
X0057630Y0041013D01*
X0057509Y0040856D01*
X0057392Y0040697D01*
X0057279Y0040534D01*
X0057170Y0040369D01*
X0057065Y0040202D01*
X0056964Y0040031D01*
X0056867Y0039859D01*
X0056774Y0039684D01*
X0056686Y0039507D01*
X0056602Y0039328D01*
X0056522Y0039147D01*
X0056447Y0038964D01*
X0056376Y0038779D01*
X0056310Y0038592D01*
X0056249Y0038404D01*
X0056192Y0038215D01*
X0056139Y0038024D01*
X0056091Y0037832D01*
X0056048Y0037639D01*
X0056010Y0037445D01*
X0055977Y0037250D01*
X0055948Y0037054D01*
X0055924Y0036858D01*
X0055904Y0036661D01*
X0055890Y0036463D01*
X0055880Y0036266D01*
X0055876Y0036068D01*
X0055876Y0035870D01*
X0055880Y0035672D01*
X0055890Y0035475D01*
X0055904Y0035277D01*
X0055924Y0035080D01*
X0055948Y0034884D01*
X0055977Y0034688D01*
X0056010Y0034493D01*
X0056048Y0034299D01*
X0056091Y0034106D01*
X0056139Y0033914D01*
X0056192Y0033723D01*
X0056249Y0033534D01*
X0056310Y0033346D01*
X0056376Y0033159D01*
X0056447Y0032974D01*
X0056522Y0032791D01*
X0056602Y0032610D01*
X0056686Y0032431D01*
X0056774Y0032254D01*
X0056867Y0032079D01*
X0056964Y0031906D01*
X0057065Y0031736D01*
X0057170Y0031569D01*
X0057279Y0031404D01*
X0057392Y0031241D01*
X0057509Y0031082D01*
X0057630Y0030925D01*
X0057755Y0030772D01*
X0057883Y0030621D01*
X0058015Y0030474D01*
X0058151Y0030330D01*
X0058290Y0030189D01*
X0058432Y0030052D01*
X0058578Y0029918D01*
X0058727Y0029787D01*
X0058879Y0029661D01*
X0059034Y0029538D01*
X0059192Y0029419D01*
X0059353Y0029304D01*
X0059517Y0029193D01*
X0059683Y0029086D01*
X0059852Y0028983D01*
X0060023Y0028884D01*
X0060197Y0028789D01*
X0060373Y0028698D01*
X0060551Y0028612D01*
X0060731Y0028530D01*
X0060914Y0028453D01*
X0061097Y0028380D01*
X0061283Y0028312D01*
X0061470Y0028248D01*
X0061659Y0028188D01*
X0061849Y0028134D01*
X0062041Y0028084D01*
X0062233Y0028038D01*
X0062427Y0027998D01*
X0062622Y0027962D01*
X0062817Y0027931D01*
X0063013Y0027904D01*
X0063210Y0027883D01*
X0063407Y0027866D01*
X0063604Y0027854D01*
X0063802Y0027846D01*
X0064000Y0027844D01*
X0064000Y0005344D01*
X0001500Y0005344D01*
X0067750Y0020344D02*
X0072750Y0015344D01*
X0077750Y0015344D01*
X0087750Y0005344D01*
X0257750Y0005344D01*
X0267750Y0015344D01*
X0272750Y0015344D01*
X0277750Y0020344D01*
X0277750Y0271594D01*
X0274000Y0275344D01*
X0121500Y0275344D01*
X0117750Y0271594D01*
X0117750Y0250344D01*
X0112750Y0245344D01*
X0072750Y0245344D01*
X0067750Y0240344D01*
X0067750Y0020344D01*
X0064000Y0096594D02*
X0001500Y0096594D01*
X0001500Y0119094D01*
X0001698Y0119096D01*
X0001896Y0119104D01*
X0002093Y0119116D01*
X0002290Y0119133D01*
X0002487Y0119154D01*
X0002683Y0119181D01*
X0002878Y0119212D01*
X0003073Y0119248D01*
X0003267Y0119288D01*
X0003459Y0119334D01*
X0003651Y0119384D01*
X0003841Y0119438D01*
X0004030Y0119498D01*
X0004217Y0119562D01*
X0004403Y0119630D01*
X0004586Y0119703D01*
X0004769Y0119780D01*
X0004949Y0119862D01*
X0005127Y0119948D01*
X0005303Y0120039D01*
X0005477Y0120134D01*
X0005648Y0120233D01*
X0005817Y0120336D01*
X0005983Y0120443D01*
X0006147Y0120554D01*
X0006308Y0120669D01*
X0006466Y0120788D01*
X0006621Y0120911D01*
X0006773Y0121037D01*
X0006922Y0121168D01*
X0007068Y0121302D01*
X0007210Y0121439D01*
X0007349Y0121580D01*
X0007485Y0121724D01*
X0007617Y0121871D01*
X0007745Y0122022D01*
X0007870Y0122175D01*
X0007991Y0122332D01*
X0008108Y0122491D01*
X0008221Y0122654D01*
X0008330Y0122819D01*
X0008435Y0122986D01*
X0008536Y0123157D01*
X0008633Y0123329D01*
X0008726Y0123504D01*
X0008814Y0123681D01*
X0008898Y0123860D01*
X0008978Y0124041D01*
X0009053Y0124224D01*
X0009124Y0124409D01*
X0009190Y0124596D01*
X0009251Y0124784D01*
X0009308Y0124973D01*
X0009361Y0125164D01*
X0009409Y0125356D01*
X0009452Y0125549D01*
X0009490Y0125743D01*
X0009523Y0125938D01*
X0009552Y0126134D01*
X0009576Y0126330D01*
X0009596Y0126527D01*
X0009610Y0126725D01*
X0009620Y0126922D01*
X0009624Y0127120D01*
X0009624Y0127318D01*
X0009620Y0127516D01*
X0009610Y0127713D01*
X0009596Y0127911D01*
X0009576Y0128108D01*
X0009552Y0128304D01*
X0009523Y0128500D01*
X0009490Y0128695D01*
X0009452Y0128889D01*
X0009409Y0129082D01*
X0009361Y0129274D01*
X0009308Y0129465D01*
X0009251Y0129654D01*
X0009190Y0129842D01*
X0009124Y0130029D01*
X0009053Y0130214D01*
X0008978Y0130397D01*
X0008898Y0130578D01*
X0008814Y0130757D01*
X0008726Y0130934D01*
X0008633Y0131109D01*
X0008536Y0131282D01*
X0008435Y0131452D01*
X0008330Y0131619D01*
X0008221Y0131784D01*
X0008108Y0131947D01*
X0007991Y0132106D01*
X0007870Y0132263D01*
X0007745Y0132416D01*
X0007617Y0132567D01*
X0007485Y0132714D01*
X0007349Y0132858D01*
X0007210Y0132999D01*
X0007068Y0133136D01*
X0006922Y0133270D01*
X0006773Y0133401D01*
X0006621Y0133527D01*
X0006466Y0133650D01*
X0006308Y0133769D01*
X0006147Y0133884D01*
X0005983Y0133995D01*
X0005817Y0134102D01*
X0005648Y0134205D01*
X0005477Y0134304D01*
X0005303Y0134399D01*
X0005127Y0134490D01*
X0004949Y0134576D01*
X0004769Y0134658D01*
X0004586Y0134735D01*
X0004403Y0134808D01*
X0004217Y0134876D01*
X0004030Y0134940D01*
X0003841Y0135000D01*
X0003651Y0135054D01*
X0003459Y0135104D01*
X0003267Y0135150D01*
X0003073Y0135190D01*
X0002878Y0135226D01*
X0002683Y0135257D01*
X0002487Y0135284D01*
X0002290Y0135305D01*
X0002093Y0135322D01*
X0001896Y0135334D01*
X0001698Y0135342D01*
X0001500Y0135344D01*
X0001500Y0184094D01*
X0064000Y0184094D01*
X0064000Y0135344D01*
X0063802Y0135342D01*
X0063604Y0135334D01*
X0063407Y0135322D01*
X0063210Y0135305D01*
X0063013Y0135284D01*
X0062817Y0135257D01*
X0062622Y0135226D01*
X0062427Y0135190D01*
X0062233Y0135150D01*
X0062041Y0135104D01*
X0061849Y0135054D01*
X0061659Y0135000D01*
X0061470Y0134940D01*
X0061283Y0134876D01*
X0061097Y0134808D01*
X0060914Y0134735D01*
X0060731Y0134658D01*
X0060551Y0134576D01*
X0060373Y0134490D01*
X0060197Y0134399D01*
X0060023Y0134304D01*
X0059852Y0134205D01*
X0059683Y0134102D01*
X0059517Y0133995D01*
X0059353Y0133884D01*
X0059192Y0133769D01*
X0059034Y0133650D01*
X0058879Y0133527D01*
X0058727Y0133401D01*
X0058578Y0133270D01*
X0058432Y0133136D01*
X0058290Y0132999D01*
X0058151Y0132858D01*
X0058015Y0132714D01*
X0057883Y0132567D01*
X0057755Y0132416D01*
X0057630Y0132263D01*
X0057509Y0132106D01*
X0057392Y0131947D01*
X0057279Y0131784D01*
X0057170Y0131619D01*
X0057065Y0131452D01*
X0056964Y0131282D01*
X0056867Y0131109D01*
X0056774Y0130934D01*
X0056686Y0130757D01*
X0056602Y0130578D01*
X0056522Y0130397D01*
X0056447Y0130214D01*
X0056376Y0130029D01*
X0056310Y0129842D01*
X0056249Y0129654D01*
X0056192Y0129465D01*
X0056139Y0129274D01*
X0056091Y0129082D01*
X0056048Y0128889D01*
X0056010Y0128695D01*
X0055977Y0128500D01*
X0055948Y0128304D01*
X0055924Y0128108D01*
X0055904Y0127911D01*
X0055890Y0127713D01*
X0055880Y0127516D01*
X0055876Y0127318D01*
X0055876Y0127120D01*
X0055880Y0126922D01*
X0055890Y0126725D01*
X0055904Y0126527D01*
X0055924Y0126330D01*
X0055948Y0126134D01*
X0055977Y0125938D01*
X0056010Y0125743D01*
X0056048Y0125549D01*
X0056091Y0125356D01*
X0056139Y0125164D01*
X0056192Y0124973D01*
X0056249Y0124784D01*
X0056310Y0124596D01*
X0056376Y0124409D01*
X0056447Y0124224D01*
X0056522Y0124041D01*
X0056602Y0123860D01*
X0056686Y0123681D01*
X0056774Y0123504D01*
X0056867Y0123329D01*
X0056964Y0123156D01*
X0057065Y0122986D01*
X0057170Y0122819D01*
X0057279Y0122654D01*
X0057392Y0122491D01*
X0057509Y0122332D01*
X0057630Y0122175D01*
X0057755Y0122022D01*
X0057883Y0121871D01*
X0058015Y0121724D01*
X0058151Y0121580D01*
X0058290Y0121439D01*
X0058432Y0121302D01*
X0058578Y0121168D01*
X0058727Y0121037D01*
X0058879Y0120911D01*
X0059034Y0120788D01*
X0059192Y0120669D01*
X0059353Y0120554D01*
X0059517Y0120443D01*
X0059683Y0120336D01*
X0059852Y0120233D01*
X0060023Y0120134D01*
X0060197Y0120039D01*
X0060373Y0119948D01*
X0060551Y0119862D01*
X0060731Y0119780D01*
X0060914Y0119703D01*
X0061097Y0119630D01*
X0061283Y0119562D01*
X0061470Y0119498D01*
X0061659Y0119438D01*
X0061849Y0119384D01*
X0062041Y0119334D01*
X0062233Y0119288D01*
X0062427Y0119248D01*
X0062622Y0119212D01*
X0062817Y0119181D01*
X0063013Y0119154D01*
X0063210Y0119133D01*
X0063407Y0119116D01*
X0063604Y0119104D01*
X0063802Y0119096D01*
X0064000Y0119094D01*
X0064000Y0096594D01*
X0064000Y0187844D02*
X0001500Y0187844D01*
X0001500Y0210344D01*
X0001698Y0210346D01*
X0001896Y0210354D01*
X0002093Y0210366D01*
X0002290Y0210383D01*
X0002487Y0210404D01*
X0002683Y0210431D01*
X0002878Y0210462D01*
X0003073Y0210498D01*
X0003267Y0210538D01*
X0003459Y0210584D01*
X0003651Y0210634D01*
X0003841Y0210688D01*
X0004030Y0210748D01*
X0004217Y0210812D01*
X0004403Y0210880D01*
X0004586Y0210953D01*
X0004769Y0211030D01*
X0004949Y0211112D01*
X0005127Y0211198D01*
X0005303Y0211289D01*
X0005477Y0211384D01*
X0005648Y0211483D01*
X0005817Y0211586D01*
X0005983Y0211693D01*
X0006147Y0211804D01*
X0006308Y0211919D01*
X0006466Y0212038D01*
X0006621Y0212161D01*
X0006773Y0212287D01*
X0006922Y0212418D01*
X0007068Y0212552D01*
X0007210Y0212689D01*
X0007349Y0212830D01*
X0007485Y0212974D01*
X0007617Y0213121D01*
X0007745Y0213272D01*
X0007870Y0213425D01*
X0007991Y0213582D01*
X0008108Y0213741D01*
X0008221Y0213904D01*
X0008330Y0214069D01*
X0008435Y0214236D01*
X0008536Y0214407D01*
X0008633Y0214579D01*
X0008726Y0214754D01*
X0008814Y0214931D01*
X0008898Y0215110D01*
X0008978Y0215291D01*
X0009053Y0215474D01*
X0009124Y0215659D01*
X0009190Y0215846D01*
X0009251Y0216034D01*
X0009308Y0216223D01*
X0009361Y0216414D01*
X0009409Y0216606D01*
X0009452Y0216799D01*
X0009490Y0216993D01*
X0009523Y0217188D01*
X0009552Y0217384D01*
X0009576Y0217580D01*
X0009596Y0217777D01*
X0009610Y0217975D01*
X0009620Y0218172D01*
X0009624Y0218370D01*
X0009624Y0218568D01*
X0009620Y0218766D01*
X0009610Y0218963D01*
X0009596Y0219161D01*
X0009576Y0219358D01*
X0009552Y0219554D01*
X0009523Y0219750D01*
X0009490Y0219945D01*
X0009452Y0220139D01*
X0009409Y0220332D01*
X0009361Y0220524D01*
X0009308Y0220715D01*
X0009251Y0220904D01*
X0009190Y0221092D01*
X0009124Y0221279D01*
X0009053Y0221464D01*
X0008978Y0221647D01*
X0008898Y0221828D01*
X0008814Y0222007D01*
X0008726Y0222184D01*
X0008633Y0222359D01*
X0008536Y0222532D01*
X0008435Y0222702D01*
X0008330Y0222869D01*
X0008221Y0223034D01*
X0008108Y0223197D01*
X0007991Y0223356D01*
X0007870Y0223513D01*
X0007745Y0223666D01*
X0007617Y0223817D01*
X0007485Y0223964D01*
X0007349Y0224108D01*
X0007210Y0224249D01*
X0007068Y0224386D01*
X0006922Y0224520D01*
X0006773Y0224651D01*
X0006621Y0224777D01*
X0006466Y0224900D01*
X0006308Y0225019D01*
X0006147Y0225134D01*
X0005983Y0225245D01*
X0005817Y0225352D01*
X0005648Y0225455D01*
X0005477Y0225554D01*
X0005303Y0225649D01*
X0005127Y0225740D01*
X0004949Y0225826D01*
X0004769Y0225908D01*
X0004586Y0225985D01*
X0004403Y0226058D01*
X0004217Y0226126D01*
X0004030Y0226190D01*
X0003841Y0226250D01*
X0003651Y0226304D01*
X0003459Y0226354D01*
X0003267Y0226400D01*
X0003073Y0226440D01*
X0002878Y0226476D01*
X0002683Y0226507D01*
X0002487Y0226534D01*
X0002290Y0226555D01*
X0002093Y0226572D01*
X0001896Y0226584D01*
X0001698Y0226592D01*
X0001500Y0226594D01*
X0001500Y0275344D01*
X0064000Y0275344D01*
X0064000Y0226594D01*
X0063802Y0226592D01*
X0063604Y0226584D01*
X0063407Y0226572D01*
X0063210Y0226555D01*
X0063013Y0226534D01*
X0062817Y0226507D01*
X0062622Y0226476D01*
X0062427Y0226440D01*
X0062233Y0226400D01*
X0062041Y0226354D01*
X0061849Y0226304D01*
X0061659Y0226250D01*
X0061470Y0226190D01*
X0061283Y0226126D01*
X0061097Y0226058D01*
X0060914Y0225985D01*
X0060731Y0225908D01*
X0060551Y0225826D01*
X0060373Y0225740D01*
X0060197Y0225649D01*
X0060023Y0225554D01*
X0059852Y0225455D01*
X0059683Y0225352D01*
X0059517Y0225245D01*
X0059353Y0225134D01*
X0059192Y0225019D01*
X0059034Y0224900D01*
X0058879Y0224777D01*
X0058727Y0224651D01*
X0058578Y0224520D01*
X0058432Y0224386D01*
X0058290Y0224249D01*
X0058151Y0224108D01*
X0058015Y0223964D01*
X0057883Y0223817D01*
X0057755Y0223666D01*
X0057630Y0223513D01*
X0057509Y0223356D01*
X0057392Y0223197D01*
X0057279Y0223034D01*
X0057170Y0222869D01*
X0057065Y0222702D01*
X0056964Y0222532D01*
X0056867Y0222359D01*
X0056774Y0222184D01*
X0056686Y0222007D01*
X0056602Y0221828D01*
X0056522Y0221647D01*
X0056447Y0221464D01*
X0056376Y0221279D01*
X0056310Y0221092D01*
X0056249Y0220904D01*
X0056192Y0220715D01*
X0056139Y0220524D01*
X0056091Y0220332D01*
X0056048Y0220139D01*
X0056010Y0219945D01*
X0055977Y0219750D01*
X0055948Y0219554D01*
X0055924Y0219358D01*
X0055904Y0219161D01*
X0055890Y0218963D01*
X0055880Y0218766D01*
X0055876Y0218568D01*
X0055876Y0218370D01*
X0055880Y0218172D01*
X0055890Y0217975D01*
X0055904Y0217777D01*
X0055924Y0217580D01*
X0055948Y0217384D01*
X0055977Y0217188D01*
X0056010Y0216993D01*
X0056048Y0216799D01*
X0056091Y0216606D01*
X0056139Y0216414D01*
X0056192Y0216223D01*
X0056249Y0216034D01*
X0056310Y0215846D01*
X0056376Y0215659D01*
X0056447Y0215474D01*
X0056522Y0215291D01*
X0056602Y0215110D01*
X0056686Y0214931D01*
X0056774Y0214754D01*
X0056867Y0214579D01*
X0056964Y0214406D01*
X0057065Y0214236D01*
X0057170Y0214069D01*
X0057279Y0213904D01*
X0057392Y0213741D01*
X0057509Y0213582D01*
X0057630Y0213425D01*
X0057755Y0213272D01*
X0057883Y0213121D01*
X0058015Y0212974D01*
X0058151Y0212830D01*
X0058290Y0212689D01*
X0058432Y0212552D01*
X0058578Y0212418D01*
X0058727Y0212287D01*
X0058879Y0212161D01*
X0059034Y0212038D01*
X0059192Y0211919D01*
X0059353Y0211804D01*
X0059517Y0211693D01*
X0059683Y0211586D01*
X0059852Y0211483D01*
X0060023Y0211384D01*
X0060197Y0211289D01*
X0060373Y0211198D01*
X0060551Y0211112D01*
X0060731Y0211030D01*
X0060914Y0210953D01*
X0061097Y0210880D01*
X0061283Y0210812D01*
X0061470Y0210748D01*
X0061659Y0210688D01*
X0061849Y0210634D01*
X0062041Y0210584D01*
X0062233Y0210538D01*
X0062427Y0210498D01*
X0062622Y0210462D01*
X0062817Y0210431D01*
X0063013Y0210404D01*
X0063210Y0210383D01*
X0063407Y0210366D01*
X0063604Y0210354D01*
X0063802Y0210346D01*
X0064000Y0210344D01*
X0064000Y0187844D01*
X0160250Y0029094D02*
X0160250Y0012844D01*
X0164000Y0009094D01*
X0176500Y0009094D01*
X0177750Y0010344D01*
D11*
X0177234Y0030644D02*
X0176800Y0031078D01*
X0176800Y0031946D01*
X0177234Y0032379D01*
X0176800Y0033591D02*
X0176800Y0035326D01*
X0176800Y0036538D02*
X0179402Y0036538D01*
X0178101Y0036971D02*
X0176800Y0038272D01*
X0177667Y0036538D02*
X0179402Y0038272D01*
X0179402Y0033591D02*
X0176800Y0033591D01*
X0178969Y0032379D02*
X0179402Y0031946D01*
X0179402Y0031078D01*
X0178969Y0030644D01*
X0177234Y0030644D01*
X0186800Y0030644D02*
X0189402Y0030644D01*
X0188535Y0031512D01*
X0189402Y0032379D01*
X0186800Y0032379D01*
X0186800Y0033591D02*
X0186800Y0034458D01*
X0186800Y0034025D02*
X0189402Y0034025D01*
X0189402Y0034458D02*
X0189402Y0033591D01*
X0188969Y0035555D02*
X0188535Y0035555D01*
X0188101Y0035989D01*
X0188101Y0036856D01*
X0187667Y0037290D01*
X0187234Y0037290D01*
X0186800Y0036856D01*
X0186800Y0035989D01*
X0187234Y0035555D01*
X0188969Y0035555D02*
X0189402Y0035989D01*
X0189402Y0036856D01*
X0188969Y0037290D01*
X0188969Y0038502D02*
X0187234Y0038502D01*
X0186800Y0038936D01*
X0186800Y0039803D01*
X0187234Y0040237D01*
X0188969Y0040237D01*
X0189402Y0039803D01*
X0189402Y0038936D01*
X0188969Y0038502D01*
X0161902Y0037839D02*
X0161902Y0036971D01*
X0161469Y0036538D01*
X0161035Y0036538D01*
X0160601Y0036971D01*
X0160601Y0037839D01*
X0160167Y0038272D01*
X0159734Y0038272D01*
X0159300Y0037839D01*
X0159300Y0036971D01*
X0159734Y0036538D01*
X0159734Y0035326D02*
X0161469Y0035326D01*
X0161902Y0034892D01*
X0161902Y0034025D01*
X0161469Y0033591D01*
X0159734Y0033591D01*
X0159300Y0034025D01*
X0159300Y0034892D01*
X0159734Y0035326D01*
X0159300Y0032379D02*
X0161902Y0032379D01*
X0161035Y0031512D01*
X0161902Y0030644D01*
X0159300Y0030644D01*
X0161902Y0037839D02*
X0161469Y0038272D01*
X0161902Y0039484D02*
X0161902Y0040351D01*
X0161902Y0039918D02*
X0159300Y0039918D01*
X0159300Y0040351D02*
X0159300Y0039484D01*
X0162234Y0175644D02*
X0161800Y0176078D01*
X0161800Y0176946D01*
X0162234Y0177379D01*
X0161800Y0178591D02*
X0164402Y0178591D01*
X0163969Y0177379D02*
X0164402Y0176946D01*
X0164402Y0176078D01*
X0163969Y0175644D01*
X0162234Y0175644D01*
X0161800Y0178591D02*
X0161800Y0180326D01*
X0161800Y0181538D02*
X0164402Y0181538D01*
X0163101Y0181971D02*
X0161800Y0183272D01*
X0162667Y0181538D02*
X0164402Y0183272D01*
X0171800Y0182839D02*
X0171800Y0181971D01*
X0172234Y0181538D01*
X0173101Y0181971D02*
X0173101Y0182839D01*
X0172667Y0183272D01*
X0172234Y0183272D01*
X0171800Y0182839D01*
X0173101Y0181971D02*
X0173535Y0181538D01*
X0173969Y0181538D01*
X0174402Y0181971D01*
X0174402Y0182839D01*
X0173969Y0183272D01*
X0174402Y0184484D02*
X0174402Y0185351D01*
X0174402Y0184918D02*
X0171800Y0184918D01*
X0171800Y0185351D02*
X0171800Y0184484D01*
X0172234Y0180326D02*
X0173969Y0180326D01*
X0174402Y0179892D01*
X0174402Y0179025D01*
X0173969Y0178591D01*
X0172234Y0178591D01*
X0171800Y0179025D01*
X0171800Y0179892D01*
X0172234Y0180326D01*
X0171800Y0177379D02*
X0174402Y0177379D01*
X0173535Y0176512D01*
X0174402Y0175644D01*
X0171800Y0175644D01*
X0181800Y0175644D02*
X0184402Y0175644D01*
X0184402Y0176946D01*
X0183969Y0177379D01*
X0183101Y0177379D01*
X0182667Y0176946D01*
X0182667Y0175644D01*
X0182667Y0176512D02*
X0181800Y0177379D01*
X0181800Y0178591D02*
X0181800Y0180326D01*
X0182234Y0181538D02*
X0181800Y0181971D01*
X0181800Y0182839D01*
X0182234Y0183272D01*
X0182667Y0183272D01*
X0183101Y0182839D01*
X0183101Y0181971D01*
X0183535Y0181538D01*
X0183969Y0181538D01*
X0184402Y0181971D01*
X0184402Y0182839D01*
X0183969Y0183272D01*
X0184402Y0184484D02*
X0181800Y0184484D01*
X0181800Y0186219D01*
X0183101Y0185351D02*
X0183101Y0184484D01*
X0184402Y0184484D02*
X0184402Y0186219D01*
X0184402Y0187431D02*
X0184402Y0189165D01*
X0184402Y0188298D02*
X0181800Y0188298D01*
X0184402Y0180326D02*
X0184402Y0178591D01*
X0181800Y0178591D01*
X0183101Y0178591D02*
X0183101Y0179458D01*
X0191800Y0179025D02*
X0191800Y0179892D01*
X0192234Y0180326D01*
X0191800Y0179025D02*
X0192234Y0178591D01*
X0193969Y0178591D01*
X0194402Y0179025D01*
X0194402Y0179892D01*
X0193969Y0180326D01*
X0193969Y0177379D02*
X0192234Y0177379D01*
X0191800Y0176946D01*
X0191800Y0175644D01*
X0194402Y0175644D01*
X0194402Y0176946D01*
X0193969Y0177379D01*
X0201800Y0176946D02*
X0202234Y0177379D01*
X0201800Y0176946D02*
X0201800Y0176078D01*
X0202234Y0175644D01*
X0203969Y0175644D01*
X0204402Y0176078D01*
X0204402Y0176946D01*
X0203969Y0177379D01*
X0203969Y0178591D02*
X0203535Y0178591D01*
X0203101Y0179025D01*
X0203101Y0179892D01*
X0202667Y0180326D01*
X0202234Y0180326D01*
X0201800Y0179892D01*
X0201800Y0179025D01*
X0202234Y0178591D01*
X0203969Y0178591D02*
X0204402Y0179025D01*
X0204402Y0179892D01*
X0203969Y0180326D01*
X0154402Y0180498D02*
X0154402Y0181365D01*
X0153969Y0181799D01*
X0153535Y0181799D01*
X0153101Y0181365D01*
X0152667Y0181799D01*
X0152234Y0181799D01*
X0151800Y0181365D01*
X0151800Y0180498D01*
X0152234Y0180064D01*
X0152234Y0179025D02*
X0151800Y0179025D01*
X0151800Y0178591D01*
X0152234Y0178591D01*
X0152234Y0179025D01*
X0152234Y0177379D02*
X0151800Y0176946D01*
X0151800Y0176078D01*
X0152234Y0175644D01*
X0153101Y0176512D02*
X0153101Y0176946D01*
X0152667Y0177379D01*
X0152234Y0177379D01*
X0153101Y0176946D02*
X0153535Y0177379D01*
X0153969Y0177379D01*
X0154402Y0176946D01*
X0154402Y0176078D01*
X0153969Y0175644D01*
X0153969Y0180064D02*
X0154402Y0180498D01*
X0153101Y0180932D02*
X0153101Y0181365D01*
X0152667Y0183011D02*
X0151800Y0183878D01*
X0152667Y0184746D01*
X0154402Y0184746D01*
X0154402Y0183011D02*
X0152667Y0183011D01*
X0144402Y0182839D02*
X0144402Y0181538D01*
X0141800Y0181538D01*
X0141800Y0182839D01*
X0142234Y0183272D01*
X0143969Y0183272D01*
X0144402Y0182839D01*
X0144402Y0180326D02*
X0141800Y0180326D01*
X0144402Y0178591D01*
X0141800Y0178591D01*
X0142234Y0177379D02*
X0143101Y0177379D01*
X0143101Y0176512D01*
X0142234Y0177379D02*
X0141800Y0176946D01*
X0141800Y0176078D01*
X0142234Y0175644D01*
X0143969Y0175644D01*
X0144402Y0176078D01*
X0144402Y0176946D01*
X0143969Y0177379D01*
D12*
X0127259Y0182895D02*
X0127259Y0185797D01*
X0125808Y0185797D01*
X0125324Y0185314D01*
X0125324Y0184346D01*
X0125808Y0183862D01*
X0127259Y0183862D01*
X0124312Y0182895D02*
X0122377Y0184830D01*
X0122377Y0185314D01*
X0122861Y0185797D01*
X0123829Y0185797D01*
X0124312Y0185314D01*
X0124312Y0182895D02*
X0122377Y0182895D01*
X0121366Y0182411D02*
X0119431Y0182411D01*
X0118419Y0182895D02*
X0116484Y0182895D01*
X0117452Y0182895D02*
X0117452Y0185797D01*
X0118419Y0184830D01*
X0115473Y0184346D02*
X0113538Y0184346D01*
X0112526Y0183862D02*
X0112526Y0184830D01*
X0111559Y0185797D01*
X0110562Y0184346D02*
X0109111Y0184346D01*
X0108627Y0183862D01*
X0108627Y0183379D01*
X0109111Y0182895D01*
X0110078Y0182895D01*
X0110562Y0183379D01*
X0110562Y0184346D01*
X0109595Y0185314D01*
X0108627Y0185797D01*
X0107616Y0185797D02*
X0106648Y0184830D01*
X0106648Y0183862D01*
X0107616Y0182895D01*
X0111559Y0182895D02*
X0112526Y0183862D01*
X0111559Y0191645D02*
X0112526Y0192612D01*
X0112526Y0193580D01*
X0111559Y0194547D01*
X0110562Y0194547D02*
X0110562Y0193096D01*
X0109595Y0193580D01*
X0109111Y0193580D01*
X0108627Y0193096D01*
X0108627Y0192129D01*
X0109111Y0191645D01*
X0110078Y0191645D01*
X0110562Y0192129D01*
X0110562Y0194547D02*
X0108627Y0194547D01*
X0107616Y0194547D02*
X0106648Y0193580D01*
X0106648Y0192612D01*
X0107616Y0191645D01*
X0113538Y0193096D02*
X0115473Y0193096D01*
X0116484Y0193580D02*
X0116484Y0194064D01*
X0116968Y0194547D01*
X0117936Y0194547D01*
X0118419Y0194064D01*
X0116484Y0193580D02*
X0118419Y0191645D01*
X0116484Y0191645D01*
X0119431Y0191161D02*
X0121366Y0191161D01*
X0122377Y0191645D02*
X0124312Y0191645D01*
X0122377Y0193580D01*
X0122377Y0194064D01*
X0122861Y0194547D01*
X0123829Y0194547D01*
X0124312Y0194064D01*
X0125324Y0194064D02*
X0125324Y0193096D01*
X0125808Y0192612D01*
X0127259Y0192612D01*
X0127259Y0191645D02*
X0127259Y0194547D01*
X0125808Y0194547D01*
X0125324Y0194064D01*
X0115964Y0200879D02*
X0115480Y0200395D01*
X0114513Y0200395D01*
X0114029Y0200879D01*
X0114029Y0201362D01*
X0114513Y0201846D01*
X0114997Y0201846D01*
X0114513Y0201846D02*
X0114029Y0202330D01*
X0114029Y0202814D01*
X0114513Y0203297D01*
X0115480Y0203297D01*
X0115964Y0202814D01*
X0113017Y0200879D02*
X0112534Y0200879D01*
X0112534Y0200395D01*
X0113017Y0200395D01*
X0113017Y0200879D01*
X0111544Y0200879D02*
X0111060Y0200395D01*
X0110093Y0200395D01*
X0109609Y0200879D01*
X0109609Y0201362D01*
X0110093Y0201846D01*
X0110577Y0201846D01*
X0110093Y0201846D02*
X0109609Y0202330D01*
X0109609Y0202814D01*
X0110093Y0203297D01*
X0111060Y0203297D01*
X0111544Y0202814D01*
X0108598Y0203297D02*
X0108598Y0201362D01*
X0107630Y0200395D01*
X0106663Y0201362D01*
X0106663Y0203297D01*
X0107146Y0209145D02*
X0106663Y0209629D01*
X0106663Y0211564D01*
X0107146Y0212047D01*
X0108598Y0212047D01*
X0108598Y0209145D01*
X0107146Y0209145D01*
X0109609Y0209145D02*
X0109609Y0212047D01*
X0111544Y0212047D02*
X0109609Y0209145D01*
X0111544Y0209145D02*
X0111544Y0212047D01*
X0112556Y0211564D02*
X0113040Y0212047D01*
X0114007Y0212047D01*
X0114491Y0211564D01*
X0114491Y0209629D01*
X0114007Y0209145D01*
X0113040Y0209145D01*
X0112556Y0209629D01*
X0112556Y0210596D01*
X0113523Y0210596D01*
X0111559Y0217895D02*
X0112526Y0218862D01*
X0112526Y0219830D01*
X0111559Y0220797D01*
X0110562Y0219346D02*
X0108627Y0219346D01*
X0109111Y0217895D02*
X0109111Y0220797D01*
X0110562Y0219346D01*
X0113538Y0219346D02*
X0115473Y0219346D01*
X0116484Y0220797D02*
X0118419Y0220797D01*
X0117452Y0220797D02*
X0117452Y0217895D01*
X0119431Y0217895D02*
X0121366Y0217895D01*
X0121366Y0220797D01*
X0119431Y0220797D01*
X0120398Y0219346D02*
X0121366Y0219346D01*
X0122377Y0218862D02*
X0122377Y0218379D01*
X0122861Y0217895D01*
X0123829Y0217895D01*
X0124312Y0218379D01*
X0123829Y0219346D02*
X0122861Y0219346D01*
X0122377Y0218862D01*
X0122377Y0220314D02*
X0122861Y0220797D01*
X0123829Y0220797D01*
X0124312Y0220314D01*
X0124312Y0219830D01*
X0123829Y0219346D01*
X0125324Y0217895D02*
X0127259Y0217895D01*
X0127259Y0220797D01*
X0125324Y0220797D01*
X0126291Y0219346D02*
X0127259Y0219346D01*
X0128271Y0219346D02*
X0128754Y0218862D01*
X0130205Y0218862D01*
X0129238Y0218862D02*
X0128271Y0217895D01*
X0128271Y0219346D02*
X0128271Y0220314D01*
X0128754Y0220797D01*
X0130205Y0220797D01*
X0130205Y0217895D01*
X0107616Y0217895D02*
X0106648Y0218862D01*
X0106648Y0219830D01*
X0107616Y0220797D01*
X0086052Y0167769D02*
X0086052Y0165834D01*
X0083150Y0165834D01*
X0083634Y0164823D02*
X0084601Y0164823D01*
X0083634Y0164823D02*
X0083150Y0164339D01*
X0083150Y0163855D01*
X0083634Y0163371D01*
X0082666Y0163371D01*
X0082183Y0162888D01*
X0083634Y0163371D02*
X0084601Y0163371D01*
X0083634Y0161876D02*
X0083150Y0161392D01*
X0083150Y0160425D01*
X0083634Y0159941D01*
X0085569Y0161876D01*
X0083634Y0161876D01*
X0085569Y0161876D02*
X0086052Y0161392D01*
X0086052Y0160425D01*
X0085569Y0159941D01*
X0083634Y0159941D01*
X0083150Y0158929D02*
X0083150Y0156994D01*
X0083150Y0157962D02*
X0086052Y0157962D01*
X0085085Y0156994D01*
X0086900Y0157478D02*
X0086900Y0158446D01*
X0087384Y0158929D01*
X0086900Y0159941D02*
X0086900Y0161876D01*
X0086900Y0160908D02*
X0089802Y0160908D01*
X0088835Y0159941D01*
X0089319Y0158929D02*
X0089802Y0158446D01*
X0089802Y0157478D01*
X0089319Y0156994D01*
X0087384Y0156994D01*
X0086900Y0157478D01*
X0087384Y0162888D02*
X0086900Y0163371D01*
X0086900Y0164339D01*
X0087384Y0164823D01*
X0087867Y0164823D01*
X0088351Y0164339D01*
X0088351Y0163855D01*
X0088351Y0164339D02*
X0088835Y0164823D01*
X0089319Y0164823D01*
X0089802Y0164339D01*
X0089802Y0163371D01*
X0089319Y0162888D01*
X0084601Y0165834D02*
X0084601Y0166802D01*
X0088852Y0124483D02*
X0088852Y0122548D01*
X0085950Y0122548D01*
X0086434Y0121536D02*
X0087401Y0121536D01*
X0086434Y0121536D02*
X0085950Y0121053D01*
X0085950Y0120569D01*
X0086434Y0120085D01*
X0085466Y0120085D01*
X0084983Y0119601D01*
X0085950Y0118590D02*
X0085950Y0116655D01*
X0085950Y0117622D02*
X0088852Y0117622D01*
X0087885Y0116655D01*
X0086434Y0115665D02*
X0085950Y0115665D01*
X0085950Y0115182D01*
X0086434Y0115182D01*
X0086434Y0115665D01*
X0086434Y0114170D02*
X0085950Y0113686D01*
X0085950Y0112719D01*
X0086434Y0112235D01*
X0088369Y0114170D01*
X0086434Y0114170D01*
X0088369Y0114170D02*
X0088852Y0113686D01*
X0088852Y0112719D01*
X0088369Y0112235D01*
X0086434Y0112235D01*
X0086434Y0120085D02*
X0087401Y0120085D01*
X0089700Y0120085D02*
X0089700Y0121053D01*
X0090184Y0121536D01*
X0089700Y0122548D02*
X0091635Y0124483D01*
X0092119Y0124483D01*
X0092602Y0123999D01*
X0092602Y0123032D01*
X0092119Y0122548D01*
X0092119Y0121536D02*
X0092602Y0121053D01*
X0092602Y0120085D01*
X0092119Y0119601D01*
X0090184Y0119601D01*
X0089700Y0120085D01*
X0089700Y0122548D02*
X0089700Y0124483D01*
X0087401Y0123515D02*
X0087401Y0122548D01*
X0087042Y0087697D02*
X0086558Y0087213D01*
X0086558Y0086246D01*
X0087042Y0085762D01*
X0088493Y0085762D01*
X0087526Y0085762D02*
X0086558Y0084794D01*
X0086551Y0083947D02*
X0086067Y0083463D01*
X0088002Y0081528D01*
X0087518Y0081044D01*
X0086551Y0081044D01*
X0086067Y0081528D01*
X0086067Y0083463D01*
X0086551Y0083947D02*
X0087518Y0083947D01*
X0088002Y0083463D01*
X0088002Y0081528D01*
X0089013Y0081044D02*
X0090948Y0081044D01*
X0089981Y0081044D02*
X0089981Y0083947D01*
X0090948Y0082979D01*
X0088493Y0084794D02*
X0088493Y0087697D01*
X0087042Y0087697D01*
X0085547Y0087697D02*
X0083612Y0087697D01*
X0083612Y0087213D01*
X0085547Y0085278D01*
X0085547Y0084794D01*
X0085055Y0083947D02*
X0085055Y0081044D01*
X0085055Y0082012D02*
X0083604Y0082979D01*
X0085055Y0082012D02*
X0083604Y0081044D01*
X0212200Y0168374D02*
X0215102Y0168374D01*
X0213651Y0166923D01*
X0213651Y0168858D01*
X0212684Y0169869D02*
X0212200Y0169869D01*
X0212200Y0170353D01*
X0212684Y0170353D01*
X0212684Y0169869D01*
X0212684Y0171343D02*
X0212200Y0171343D01*
X0212684Y0171343D02*
X0214619Y0173278D01*
X0215102Y0173278D01*
X0215102Y0171343D01*
X0215950Y0170851D02*
X0218852Y0170851D01*
X0218852Y0172303D01*
X0218369Y0172786D01*
X0217401Y0172786D01*
X0216917Y0172303D01*
X0216917Y0170851D01*
X0216917Y0171819D02*
X0215950Y0172786D01*
X0216434Y0173798D02*
X0215950Y0174282D01*
X0215950Y0175249D01*
X0216434Y0175733D01*
X0216917Y0175733D01*
X0217401Y0175249D01*
X0217401Y0173798D01*
X0216434Y0173798D01*
X0217401Y0173798D02*
X0218369Y0174765D01*
X0218852Y0175733D01*
X0220950Y0175740D02*
X0221917Y0174289D01*
X0222885Y0175740D01*
X0223852Y0174289D02*
X0220950Y0174289D01*
X0223369Y0173278D02*
X0221434Y0171343D01*
X0220950Y0171343D01*
X0220950Y0170353D02*
X0220950Y0169869D01*
X0221434Y0169869D01*
X0221434Y0170353D01*
X0220950Y0170353D01*
X0220950Y0168374D02*
X0223852Y0168374D01*
X0222401Y0166923D01*
X0222401Y0168858D01*
X0223852Y0171343D02*
X0223852Y0173278D01*
X0223369Y0173278D01*
X0224700Y0172786D02*
X0225667Y0171819D01*
X0225667Y0172303D02*
X0225667Y0170851D01*
X0224700Y0170851D02*
X0227602Y0170851D01*
X0227602Y0172303D01*
X0227119Y0172786D01*
X0226151Y0172786D01*
X0225667Y0172303D01*
X0226151Y0173798D02*
X0226151Y0175733D01*
X0224700Y0175249D02*
X0227602Y0175249D01*
X0226151Y0173798D01*
X0229700Y0174289D02*
X0232602Y0174289D01*
X0233450Y0174765D02*
X0236352Y0174765D01*
X0235385Y0173798D01*
X0233450Y0173798D02*
X0233450Y0175733D01*
X0231635Y0175740D02*
X0230667Y0174289D01*
X0229700Y0175740D01*
X0230184Y0173278D02*
X0229700Y0172794D01*
X0229700Y0171826D01*
X0230184Y0171343D01*
X0232119Y0173278D01*
X0230184Y0173278D01*
X0232119Y0173278D02*
X0232602Y0172794D01*
X0232602Y0171826D01*
X0232119Y0171343D01*
X0230184Y0171343D01*
X0229700Y0170331D02*
X0229700Y0168396D01*
X0229700Y0169364D02*
X0232602Y0169364D01*
X0231635Y0168396D01*
X0233450Y0167905D02*
X0236352Y0167905D01*
X0236352Y0169356D01*
X0235869Y0169840D01*
X0234901Y0169840D01*
X0234417Y0169356D01*
X0234417Y0167905D01*
X0234417Y0168872D02*
X0233450Y0169840D01*
X0233450Y0170851D02*
X0233450Y0172786D01*
X0233450Y0171819D02*
X0236352Y0171819D01*
X0235385Y0170851D01*
X0238450Y0171343D02*
X0238934Y0171343D01*
X0240869Y0173278D01*
X0241352Y0173278D01*
X0241352Y0171343D01*
X0242200Y0170851D02*
X0245102Y0170851D01*
X0245102Y0172303D01*
X0244619Y0172786D01*
X0243651Y0172786D01*
X0243167Y0172303D01*
X0243167Y0170851D01*
X0243167Y0171819D02*
X0242200Y0172786D01*
X0242684Y0173798D02*
X0242200Y0174282D01*
X0242200Y0175249D01*
X0242684Y0175733D01*
X0243167Y0175733D01*
X0243651Y0175249D01*
X0243651Y0174765D01*
X0243651Y0175249D02*
X0244135Y0175733D01*
X0244619Y0175733D01*
X0245102Y0175249D01*
X0245102Y0174282D01*
X0244619Y0173798D01*
X0241352Y0174289D02*
X0238450Y0174289D01*
X0239417Y0174289D02*
X0240385Y0175740D01*
X0239417Y0174289D02*
X0238450Y0175740D01*
X0238450Y0170331D02*
X0238450Y0168396D01*
X0240385Y0170331D01*
X0240869Y0170331D01*
X0241352Y0169847D01*
X0241352Y0168880D01*
X0240869Y0168396D01*
X0215102Y0174289D02*
X0212200Y0174289D01*
X0213167Y0174289D02*
X0212200Y0175740D01*
X0213167Y0174289D02*
X0214135Y0175740D01*
X0266650Y0221744D02*
X0268585Y0223679D01*
X0269069Y0223679D01*
X0269552Y0223196D01*
X0269552Y0222228D01*
X0269069Y0221744D01*
X0270400Y0221744D02*
X0273302Y0221744D01*
X0273302Y0223196D01*
X0272819Y0223679D01*
X0271851Y0223679D01*
X0271367Y0223196D01*
X0271367Y0221744D01*
X0271367Y0222712D02*
X0270400Y0223679D01*
X0270400Y0224691D02*
X0272335Y0226626D01*
X0272819Y0226626D01*
X0273302Y0226142D01*
X0273302Y0225175D01*
X0272819Y0224691D01*
X0270400Y0224691D02*
X0270400Y0226626D01*
X0269552Y0226142D02*
X0269552Y0225175D01*
X0269069Y0224691D01*
X0269552Y0226142D02*
X0269069Y0226626D01*
X0268585Y0226626D01*
X0266650Y0224691D01*
X0266650Y0226626D01*
X0267134Y0227638D02*
X0269069Y0229573D01*
X0267134Y0229573D01*
X0266650Y0229089D01*
X0266650Y0228121D01*
X0267134Y0227638D01*
X0269069Y0227638D01*
X0269552Y0228121D01*
X0269552Y0229089D01*
X0269069Y0229573D01*
X0266650Y0223679D02*
X0266650Y0221744D01*
X0240102Y0101983D02*
X0240102Y0100048D01*
X0238651Y0100048D01*
X0239135Y0101015D01*
X0239135Y0101499D01*
X0238651Y0101983D01*
X0237684Y0101983D01*
X0237200Y0101499D01*
X0237200Y0100532D01*
X0237684Y0100048D01*
X0237200Y0099036D02*
X0237200Y0097101D01*
X0239135Y0099036D01*
X0239619Y0099036D01*
X0240102Y0098553D01*
X0240102Y0097585D01*
X0239619Y0097101D01*
X0240102Y0095122D02*
X0237200Y0095122D01*
X0237200Y0094155D02*
X0237200Y0096090D01*
X0239135Y0094155D02*
X0240102Y0095122D01*
X0239619Y0093143D02*
X0240102Y0092660D01*
X0240102Y0091692D01*
X0239619Y0091208D01*
X0237684Y0091208D01*
X0237200Y0091692D01*
X0237200Y0092660D01*
X0237684Y0093143D01*
X0238651Y0093143D01*
X0238651Y0092176D01*
X0237200Y0090197D02*
X0237200Y0088262D01*
X0237200Y0089229D02*
X0240102Y0089229D01*
X0239135Y0088262D01*
X0239619Y0087250D02*
X0240102Y0086767D01*
X0240102Y0085799D01*
X0239619Y0085315D01*
X0237684Y0085315D01*
X0237200Y0085799D01*
X0237200Y0086767D01*
X0237684Y0087250D01*
X0237200Y0084304D02*
X0240102Y0084304D01*
X0238651Y0084304D02*
X0238651Y0082369D01*
X0238651Y0081357D02*
X0238651Y0079422D01*
X0239135Y0079422D02*
X0240102Y0080390D01*
X0239135Y0081357D01*
X0237200Y0081357D01*
X0237200Y0082369D02*
X0240102Y0082369D01*
X0239135Y0079422D02*
X0237200Y0079422D01*
X0237200Y0077927D02*
X0240102Y0077927D01*
X0238651Y0076476D01*
X0238651Y0078411D01*
X0239619Y0075464D02*
X0237684Y0073529D01*
X0237200Y0073529D01*
X0240102Y0073529D02*
X0240102Y0075464D01*
X0239619Y0075464D01*
X0222352Y0076889D02*
X0221869Y0076405D01*
X0219934Y0076405D01*
X0219450Y0076889D01*
X0219450Y0077856D01*
X0219934Y0078340D01*
X0219450Y0079351D02*
X0219450Y0081286D01*
X0219450Y0080319D02*
X0222352Y0080319D01*
X0221385Y0079351D01*
X0221869Y0078340D02*
X0222352Y0077856D01*
X0222352Y0076889D01*
X0218602Y0075936D02*
X0218119Y0076420D01*
X0216184Y0074485D01*
X0215700Y0074969D01*
X0215700Y0075936D01*
X0216184Y0076420D01*
X0218119Y0076420D01*
X0218602Y0075936D02*
X0218602Y0074969D01*
X0218119Y0074485D01*
X0216184Y0074485D01*
X0216184Y0077432D02*
X0216184Y0077915D01*
X0215700Y0077915D01*
X0215700Y0077432D01*
X0216184Y0077432D01*
X0215700Y0078905D02*
X0215700Y0080840D01*
X0215700Y0079872D02*
X0218602Y0079872D01*
X0217635Y0078905D01*
X0217151Y0082335D02*
X0216184Y0082335D01*
X0215216Y0082335D01*
X0214733Y0081851D01*
X0215700Y0082819D02*
X0215700Y0083303D01*
X0216184Y0083786D01*
X0217151Y0083786D01*
X0217151Y0084798D02*
X0217151Y0085765D01*
X0215700Y0084798D02*
X0218602Y0084798D01*
X0218602Y0086733D01*
X0219450Y0084233D02*
X0219450Y0082298D01*
X0219450Y0083265D02*
X0222352Y0083265D01*
X0221385Y0082298D01*
X0216184Y0082335D02*
X0215700Y0082819D01*
D13*
X0197563Y0070344D02*
X0252091Y0070344D01*
X0252091Y0007549D01*
X0197563Y0007549D01*
X0197563Y0070344D01*
X0165220Y0097906D02*
X0162000Y0097906D01*
X0153575Y0106756D01*
X0127000Y0106756D01*
X0118000Y0097906D01*
X0112780Y0097906D01*
X0112780Y0117638D01*
X0100260Y0117638D01*
X0100260Y0130551D01*
X0112780Y0130551D01*
X0112780Y0138551D01*
X0123937Y0150315D01*
X0154669Y0150315D01*
X0165220Y0139157D01*
X0165220Y0130157D01*
X0177740Y0130157D01*
X0177740Y0117638D01*
X0165220Y0117638D01*
X0165220Y0097906D01*
X0168465Y0123488D02*
X0168467Y0123608D01*
X0168473Y0123728D01*
X0168483Y0123847D01*
X0168497Y0123966D01*
X0168515Y0124085D01*
X0168536Y0124203D01*
X0168562Y0124320D01*
X0168592Y0124436D01*
X0168625Y0124551D01*
X0168662Y0124665D01*
X0168703Y0124777D01*
X0168748Y0124889D01*
X0168797Y0124998D01*
X0168849Y0125106D01*
X0168904Y0125213D01*
X0168963Y0125317D01*
X0169026Y0125419D01*
X0169092Y0125519D01*
X0169161Y0125617D01*
X0169233Y0125713D01*
X0169309Y0125806D01*
X0169387Y0125896D01*
X0169469Y0125984D01*
X0169553Y0126069D01*
X0169640Y0126152D01*
X0169730Y0126231D01*
X0169823Y0126307D01*
X0169918Y0126380D01*
X0170015Y0126450D01*
X0170115Y0126517D01*
X0170216Y0126580D01*
X0170320Y0126640D01*
X0170426Y0126697D01*
X0170533Y0126750D01*
X0170643Y0126799D01*
X0170754Y0126845D01*
X0170866Y0126887D01*
X0170980Y0126925D01*
X0171094Y0126959D01*
X0171210Y0126990D01*
X0171327Y0127016D01*
X0171445Y0127039D01*
X0171563Y0127058D01*
X0171682Y0127073D01*
X0171802Y0127084D01*
X0171921Y0127091D01*
X0172041Y0127094D01*
X0172161Y0127093D01*
X0172281Y0127088D01*
X0172400Y0127079D01*
X0172519Y0127066D01*
X0172638Y0127049D01*
X0172756Y0127028D01*
X0172873Y0127004D01*
X0172990Y0126975D01*
X0173105Y0126943D01*
X0173219Y0126906D01*
X0173332Y0126866D01*
X0173444Y0126822D01*
X0173554Y0126775D01*
X0173663Y0126724D01*
X0173769Y0126669D01*
X0173874Y0126611D01*
X0173977Y0126549D01*
X0174078Y0126484D01*
X0174176Y0126416D01*
X0174272Y0126344D01*
X0174366Y0126270D01*
X0174457Y0126192D01*
X0174546Y0126111D01*
X0174631Y0126027D01*
X0174714Y0125941D01*
X0174794Y0125851D01*
X0174872Y0125760D01*
X0174945Y0125665D01*
X0175016Y0125569D01*
X0175084Y0125470D01*
X0175148Y0125368D01*
X0175209Y0125265D01*
X0175266Y0125160D01*
X0175320Y0125053D01*
X0175370Y0124944D01*
X0175417Y0124833D01*
X0175460Y0124721D01*
X0175499Y0124608D01*
X0175534Y0124493D01*
X0175565Y0124378D01*
X0175593Y0124261D01*
X0175617Y0124144D01*
X0175637Y0124025D01*
X0175653Y0123907D01*
X0175665Y0123787D01*
X0175673Y0123668D01*
X0175677Y0123548D01*
X0175677Y0123428D01*
X0175673Y0123308D01*
X0175665Y0123189D01*
X0175653Y0123069D01*
X0175637Y0122951D01*
X0175617Y0122832D01*
X0175593Y0122715D01*
X0175565Y0122598D01*
X0175534Y0122483D01*
X0175499Y0122368D01*
X0175460Y0122255D01*
X0175417Y0122143D01*
X0175370Y0122032D01*
X0175320Y0121923D01*
X0175266Y0121816D01*
X0175209Y0121711D01*
X0175148Y0121608D01*
X0175084Y0121506D01*
X0175016Y0121407D01*
X0174945Y0121311D01*
X0174872Y0121216D01*
X0174794Y0121125D01*
X0174714Y0121035D01*
X0174631Y0120949D01*
X0174546Y0120865D01*
X0174457Y0120784D01*
X0174366Y0120706D01*
X0174272Y0120632D01*
X0174176Y0120560D01*
X0174078Y0120492D01*
X0173977Y0120427D01*
X0173874Y0120365D01*
X0173769Y0120307D01*
X0173663Y0120252D01*
X0173554Y0120201D01*
X0173444Y0120154D01*
X0173332Y0120110D01*
X0173219Y0120070D01*
X0173105Y0120033D01*
X0172990Y0120001D01*
X0172873Y0119972D01*
X0172756Y0119948D01*
X0172638Y0119927D01*
X0172519Y0119910D01*
X0172400Y0119897D01*
X0172281Y0119888D01*
X0172161Y0119883D01*
X0172041Y0119882D01*
X0171921Y0119885D01*
X0171802Y0119892D01*
X0171682Y0119903D01*
X0171563Y0119918D01*
X0171445Y0119937D01*
X0171327Y0119960D01*
X0171210Y0119986D01*
X0171094Y0120017D01*
X0170980Y0120051D01*
X0170866Y0120089D01*
X0170754Y0120131D01*
X0170643Y0120177D01*
X0170533Y0120226D01*
X0170426Y0120279D01*
X0170320Y0120336D01*
X0170216Y0120396D01*
X0170115Y0120459D01*
X0170015Y0120526D01*
X0169918Y0120596D01*
X0169823Y0120669D01*
X0169730Y0120745D01*
X0169640Y0120824D01*
X0169553Y0120907D01*
X0169469Y0120992D01*
X0169387Y0121080D01*
X0169309Y0121170D01*
X0169233Y0121263D01*
X0169161Y0121359D01*
X0169092Y0121457D01*
X0169026Y0121557D01*
X0168963Y0121659D01*
X0168904Y0121763D01*
X0168849Y0121870D01*
X0168797Y0121978D01*
X0168748Y0122087D01*
X0168703Y0122199D01*
X0168662Y0122311D01*
X0168625Y0122425D01*
X0168592Y0122540D01*
X0168562Y0122656D01*
X0168536Y0122773D01*
X0168515Y0122891D01*
X0168497Y0123010D01*
X0168483Y0123129D01*
X0168473Y0123248D01*
X0168467Y0123368D01*
X0168465Y0123488D01*
X0102898Y0124094D02*
X0102900Y0124214D01*
X0102906Y0124334D01*
X0102916Y0124453D01*
X0102930Y0124572D01*
X0102948Y0124691D01*
X0102969Y0124809D01*
X0102995Y0124926D01*
X0103025Y0125042D01*
X0103058Y0125157D01*
X0103095Y0125271D01*
X0103136Y0125383D01*
X0103181Y0125495D01*
X0103230Y0125604D01*
X0103282Y0125712D01*
X0103337Y0125819D01*
X0103396Y0125923D01*
X0103459Y0126025D01*
X0103525Y0126125D01*
X0103594Y0126223D01*
X0103666Y0126319D01*
X0103742Y0126412D01*
X0103820Y0126502D01*
X0103902Y0126590D01*
X0103986Y0126675D01*
X0104073Y0126758D01*
X0104163Y0126837D01*
X0104256Y0126913D01*
X0104351Y0126986D01*
X0104448Y0127056D01*
X0104548Y0127123D01*
X0104649Y0127186D01*
X0104753Y0127246D01*
X0104859Y0127303D01*
X0104966Y0127356D01*
X0105076Y0127405D01*
X0105187Y0127451D01*
X0105299Y0127493D01*
X0105413Y0127531D01*
X0105527Y0127565D01*
X0105643Y0127596D01*
X0105760Y0127622D01*
X0105878Y0127645D01*
X0105996Y0127664D01*
X0106115Y0127679D01*
X0106235Y0127690D01*
X0106354Y0127697D01*
X0106474Y0127700D01*
X0106594Y0127699D01*
X0106714Y0127694D01*
X0106833Y0127685D01*
X0106952Y0127672D01*
X0107071Y0127655D01*
X0107189Y0127634D01*
X0107306Y0127610D01*
X0107423Y0127581D01*
X0107538Y0127549D01*
X0107652Y0127512D01*
X0107765Y0127472D01*
X0107877Y0127428D01*
X0107987Y0127381D01*
X0108096Y0127330D01*
X0108202Y0127275D01*
X0108307Y0127217D01*
X0108410Y0127155D01*
X0108511Y0127090D01*
X0108609Y0127022D01*
X0108705Y0126950D01*
X0108799Y0126876D01*
X0108890Y0126798D01*
X0108979Y0126717D01*
X0109064Y0126633D01*
X0109147Y0126547D01*
X0109227Y0126457D01*
X0109305Y0126366D01*
X0109378Y0126271D01*
X0109449Y0126175D01*
X0109517Y0126076D01*
X0109581Y0125974D01*
X0109642Y0125871D01*
X0109699Y0125766D01*
X0109753Y0125659D01*
X0109803Y0125550D01*
X0109850Y0125439D01*
X0109893Y0125327D01*
X0109932Y0125214D01*
X0109967Y0125099D01*
X0109998Y0124984D01*
X0110026Y0124867D01*
X0110050Y0124750D01*
X0110070Y0124631D01*
X0110086Y0124513D01*
X0110098Y0124393D01*
X0110106Y0124274D01*
X0110110Y0124154D01*
X0110110Y0124034D01*
X0110106Y0123914D01*
X0110098Y0123795D01*
X0110086Y0123675D01*
X0110070Y0123557D01*
X0110050Y0123438D01*
X0110026Y0123321D01*
X0109998Y0123204D01*
X0109967Y0123089D01*
X0109932Y0122974D01*
X0109893Y0122861D01*
X0109850Y0122749D01*
X0109803Y0122638D01*
X0109753Y0122529D01*
X0109699Y0122422D01*
X0109642Y0122317D01*
X0109581Y0122214D01*
X0109517Y0122112D01*
X0109449Y0122013D01*
X0109378Y0121917D01*
X0109305Y0121822D01*
X0109227Y0121731D01*
X0109147Y0121641D01*
X0109064Y0121555D01*
X0108979Y0121471D01*
X0108890Y0121390D01*
X0108799Y0121312D01*
X0108705Y0121238D01*
X0108609Y0121166D01*
X0108511Y0121098D01*
X0108410Y0121033D01*
X0108307Y0120971D01*
X0108202Y0120913D01*
X0108096Y0120858D01*
X0107987Y0120807D01*
X0107877Y0120760D01*
X0107765Y0120716D01*
X0107652Y0120676D01*
X0107538Y0120639D01*
X0107423Y0120607D01*
X0107306Y0120578D01*
X0107189Y0120554D01*
X0107071Y0120533D01*
X0106952Y0120516D01*
X0106833Y0120503D01*
X0106714Y0120494D01*
X0106594Y0120489D01*
X0106474Y0120488D01*
X0106354Y0120491D01*
X0106235Y0120498D01*
X0106115Y0120509D01*
X0105996Y0120524D01*
X0105878Y0120543D01*
X0105760Y0120566D01*
X0105643Y0120592D01*
X0105527Y0120623D01*
X0105413Y0120657D01*
X0105299Y0120695D01*
X0105187Y0120737D01*
X0105076Y0120783D01*
X0104966Y0120832D01*
X0104859Y0120885D01*
X0104753Y0120942D01*
X0104649Y0121002D01*
X0104548Y0121065D01*
X0104448Y0121132D01*
X0104351Y0121202D01*
X0104256Y0121275D01*
X0104163Y0121351D01*
X0104073Y0121430D01*
X0103986Y0121513D01*
X0103902Y0121598D01*
X0103820Y0121686D01*
X0103742Y0121776D01*
X0103666Y0121869D01*
X0103594Y0121965D01*
X0103525Y0122063D01*
X0103459Y0122163D01*
X0103396Y0122265D01*
X0103337Y0122369D01*
X0103282Y0122476D01*
X0103230Y0122584D01*
X0103181Y0122693D01*
X0103136Y0122805D01*
X0103095Y0122917D01*
X0103058Y0123031D01*
X0103025Y0123146D01*
X0102995Y0123262D01*
X0102969Y0123379D01*
X0102948Y0123497D01*
X0102930Y0123616D01*
X0102916Y0123735D01*
X0102906Y0123854D01*
X0102900Y0123974D01*
X0102898Y0124094D01*
D14*
X0245809Y0089891D02*
X0252191Y0089891D01*
X0252191Y0085757D02*
X0252191Y0082431D01*
X0252191Y0078298D02*
X0245809Y0078298D01*
D15*
X0247947Y0080344D03*
D16*
X0148242Y0024724D02*
X0148242Y0005477D01*
X0134758Y0005477D02*
X0134758Y0024724D01*
X0148242Y0024724D01*
M02*
