G75*
%MOIN*%
%OFA0B0*%
%FSLAX25Y25*%
%IPPOS*%
%LPD*%
%AMOC8*
5,1,8,0,0,1.08239X$1,22.5*
%
%ADD10C,0.01000*%
%ADD11C,0.00600*%
%ADD12C,0.00000*%
%ADD13C,0.00300*%
%ADD14C,0.00500*%
%ADD15C,0.00700*%
%ADD16C,0.01768*%
D10*
X0001500Y0076500D02*
X0001500Y0390250D01*
X0085250Y0390250D01*
X0085250Y0076500D01*
X0001500Y0076500D01*
X0089000Y0076500D02*
X0089000Y0390250D01*
X0172750Y0390250D01*
X0172750Y0076500D01*
X0089000Y0076500D01*
X0176500Y0135250D02*
X0181500Y0130250D01*
X0186500Y0130250D01*
X0196500Y0120250D01*
X0382750Y0120250D01*
X0386500Y0124000D01*
X0386500Y0386500D01*
X0382750Y0390250D01*
X0230250Y0390250D01*
X0226500Y0386500D01*
X0226500Y0365250D01*
X0221500Y0360250D01*
X0181500Y0360250D01*
X0176500Y0355250D01*
X0176500Y0135250D01*
X0191500Y0111500D02*
X0191500Y0059000D01*
X0191698Y0058998D01*
X0191896Y0058990D01*
X0192093Y0058978D01*
X0192290Y0058961D01*
X0192487Y0058940D01*
X0192683Y0058913D01*
X0192878Y0058882D01*
X0193073Y0058846D01*
X0193267Y0058806D01*
X0193459Y0058760D01*
X0193651Y0058710D01*
X0193841Y0058656D01*
X0194030Y0058596D01*
X0194217Y0058532D01*
X0194403Y0058464D01*
X0194586Y0058391D01*
X0194769Y0058314D01*
X0194949Y0058232D01*
X0195127Y0058146D01*
X0195303Y0058055D01*
X0195477Y0057960D01*
X0195648Y0057861D01*
X0195817Y0057758D01*
X0195983Y0057651D01*
X0196147Y0057540D01*
X0196308Y0057425D01*
X0196466Y0057306D01*
X0196621Y0057183D01*
X0196773Y0057057D01*
X0196922Y0056926D01*
X0197068Y0056792D01*
X0197210Y0056655D01*
X0197349Y0056514D01*
X0197485Y0056370D01*
X0197617Y0056223D01*
X0197745Y0056072D01*
X0197870Y0055919D01*
X0197991Y0055762D01*
X0198108Y0055603D01*
X0198221Y0055440D01*
X0198330Y0055275D01*
X0198435Y0055108D01*
X0198536Y0054938D01*
X0198633Y0054765D01*
X0198726Y0054590D01*
X0198814Y0054413D01*
X0198898Y0054234D01*
X0198978Y0054053D01*
X0199053Y0053870D01*
X0199124Y0053685D01*
X0199190Y0053498D01*
X0199251Y0053310D01*
X0199308Y0053121D01*
X0199361Y0052930D01*
X0199409Y0052738D01*
X0199452Y0052545D01*
X0199490Y0052351D01*
X0199523Y0052156D01*
X0199552Y0051960D01*
X0199576Y0051764D01*
X0199596Y0051567D01*
X0199610Y0051369D01*
X0199620Y0051172D01*
X0199624Y0050974D01*
X0199624Y0050776D01*
X0199620Y0050578D01*
X0199610Y0050381D01*
X0199596Y0050183D01*
X0199576Y0049986D01*
X0199552Y0049790D01*
X0199523Y0049594D01*
X0199490Y0049399D01*
X0199452Y0049205D01*
X0199409Y0049012D01*
X0199361Y0048820D01*
X0199308Y0048629D01*
X0199251Y0048440D01*
X0199190Y0048252D01*
X0199124Y0048065D01*
X0199053Y0047880D01*
X0198978Y0047697D01*
X0198898Y0047516D01*
X0198814Y0047337D01*
X0198726Y0047160D01*
X0198633Y0046985D01*
X0198536Y0046813D01*
X0198435Y0046642D01*
X0198330Y0046475D01*
X0198221Y0046310D01*
X0198108Y0046147D01*
X0197991Y0045988D01*
X0197870Y0045831D01*
X0197745Y0045678D01*
X0197617Y0045527D01*
X0197485Y0045380D01*
X0197349Y0045236D01*
X0197210Y0045095D01*
X0197068Y0044958D01*
X0196922Y0044824D01*
X0196773Y0044693D01*
X0196621Y0044567D01*
X0196466Y0044444D01*
X0196308Y0044325D01*
X0196147Y0044210D01*
X0195983Y0044099D01*
X0195817Y0043992D01*
X0195648Y0043889D01*
X0195477Y0043790D01*
X0195303Y0043695D01*
X0195127Y0043604D01*
X0194949Y0043518D01*
X0194769Y0043436D01*
X0194586Y0043359D01*
X0194403Y0043286D01*
X0194217Y0043218D01*
X0194030Y0043154D01*
X0193841Y0043094D01*
X0193651Y0043040D01*
X0193459Y0042990D01*
X0193267Y0042944D01*
X0193073Y0042904D01*
X0192878Y0042868D01*
X0192683Y0042837D01*
X0192487Y0042810D01*
X0192290Y0042789D01*
X0192093Y0042772D01*
X0191896Y0042760D01*
X0191698Y0042752D01*
X0191500Y0042750D01*
X0191500Y0001500D01*
X0254000Y0001500D01*
X0254000Y0042750D01*
X0257750Y0042750D02*
X0257750Y0001500D01*
X0320250Y0001500D01*
X0320250Y0042750D01*
X0324000Y0042750D02*
X0324000Y0001500D01*
X0386500Y0001500D01*
X0386500Y0042750D01*
X0386302Y0042752D01*
X0386104Y0042760D01*
X0385907Y0042772D01*
X0385710Y0042789D01*
X0385513Y0042810D01*
X0385317Y0042837D01*
X0385122Y0042868D01*
X0384927Y0042904D01*
X0384733Y0042944D01*
X0384541Y0042990D01*
X0384349Y0043040D01*
X0384159Y0043094D01*
X0383970Y0043154D01*
X0383783Y0043218D01*
X0383597Y0043286D01*
X0383414Y0043359D01*
X0383231Y0043436D01*
X0383051Y0043518D01*
X0382873Y0043604D01*
X0382697Y0043695D01*
X0382523Y0043790D01*
X0382352Y0043889D01*
X0382183Y0043992D01*
X0382017Y0044099D01*
X0381853Y0044210D01*
X0381692Y0044325D01*
X0381534Y0044444D01*
X0381379Y0044567D01*
X0381227Y0044693D01*
X0381078Y0044824D01*
X0380932Y0044958D01*
X0380790Y0045095D01*
X0380651Y0045236D01*
X0380515Y0045380D01*
X0380383Y0045527D01*
X0380255Y0045678D01*
X0380130Y0045831D01*
X0380009Y0045988D01*
X0379892Y0046147D01*
X0379779Y0046310D01*
X0379670Y0046475D01*
X0379565Y0046642D01*
X0379464Y0046812D01*
X0379367Y0046985D01*
X0379274Y0047160D01*
X0379186Y0047337D01*
X0379102Y0047516D01*
X0379022Y0047697D01*
X0378947Y0047880D01*
X0378876Y0048065D01*
X0378810Y0048252D01*
X0378749Y0048440D01*
X0378692Y0048629D01*
X0378639Y0048820D01*
X0378591Y0049012D01*
X0378548Y0049205D01*
X0378510Y0049399D01*
X0378477Y0049594D01*
X0378448Y0049790D01*
X0378424Y0049986D01*
X0378404Y0050183D01*
X0378390Y0050381D01*
X0378380Y0050578D01*
X0378376Y0050776D01*
X0378376Y0050974D01*
X0378380Y0051172D01*
X0378390Y0051369D01*
X0378404Y0051567D01*
X0378424Y0051764D01*
X0378448Y0051960D01*
X0378477Y0052156D01*
X0378510Y0052351D01*
X0378548Y0052545D01*
X0378591Y0052738D01*
X0378639Y0052930D01*
X0378692Y0053121D01*
X0378749Y0053310D01*
X0378810Y0053498D01*
X0378876Y0053685D01*
X0378947Y0053870D01*
X0379022Y0054053D01*
X0379102Y0054234D01*
X0379186Y0054413D01*
X0379274Y0054590D01*
X0379367Y0054765D01*
X0379464Y0054937D01*
X0379565Y0055108D01*
X0379670Y0055275D01*
X0379779Y0055440D01*
X0379892Y0055603D01*
X0380009Y0055762D01*
X0380130Y0055919D01*
X0380255Y0056072D01*
X0380383Y0056223D01*
X0380515Y0056370D01*
X0380651Y0056514D01*
X0380790Y0056655D01*
X0380932Y0056792D01*
X0381078Y0056926D01*
X0381227Y0057057D01*
X0381379Y0057183D01*
X0381534Y0057306D01*
X0381692Y0057425D01*
X0381853Y0057540D01*
X0382017Y0057651D01*
X0382183Y0057758D01*
X0382352Y0057861D01*
X0382523Y0057960D01*
X0382697Y0058055D01*
X0382873Y0058146D01*
X0383051Y0058232D01*
X0383231Y0058314D01*
X0383414Y0058391D01*
X0383597Y0058464D01*
X0383783Y0058532D01*
X0383970Y0058596D01*
X0384159Y0058656D01*
X0384349Y0058710D01*
X0384541Y0058760D01*
X0384733Y0058806D01*
X0384927Y0058846D01*
X0385122Y0058882D01*
X0385317Y0058913D01*
X0385513Y0058940D01*
X0385710Y0058961D01*
X0385907Y0058978D01*
X0386104Y0058990D01*
X0386302Y0058998D01*
X0386500Y0059000D01*
X0386500Y0111500D01*
X0324000Y0111500D01*
X0324000Y0059000D01*
X0320250Y0059000D02*
X0320250Y0111500D01*
X0257750Y0111500D01*
X0257750Y0059000D01*
X0254000Y0059000D02*
X0254000Y0111500D01*
X0191500Y0111500D01*
X0254000Y0059000D02*
X0253802Y0058998D01*
X0253604Y0058990D01*
X0253407Y0058978D01*
X0253210Y0058961D01*
X0253013Y0058940D01*
X0252817Y0058913D01*
X0252622Y0058882D01*
X0252427Y0058846D01*
X0252233Y0058806D01*
X0252041Y0058760D01*
X0251849Y0058710D01*
X0251659Y0058656D01*
X0251470Y0058596D01*
X0251283Y0058532D01*
X0251097Y0058464D01*
X0250914Y0058391D01*
X0250731Y0058314D01*
X0250551Y0058232D01*
X0250373Y0058146D01*
X0250197Y0058055D01*
X0250023Y0057960D01*
X0249852Y0057861D01*
X0249683Y0057758D01*
X0249517Y0057651D01*
X0249353Y0057540D01*
X0249192Y0057425D01*
X0249034Y0057306D01*
X0248879Y0057183D01*
X0248727Y0057057D01*
X0248578Y0056926D01*
X0248432Y0056792D01*
X0248290Y0056655D01*
X0248151Y0056514D01*
X0248015Y0056370D01*
X0247883Y0056223D01*
X0247755Y0056072D01*
X0247630Y0055919D01*
X0247509Y0055762D01*
X0247392Y0055603D01*
X0247279Y0055440D01*
X0247170Y0055275D01*
X0247065Y0055108D01*
X0246964Y0054937D01*
X0246867Y0054765D01*
X0246774Y0054590D01*
X0246686Y0054413D01*
X0246602Y0054234D01*
X0246522Y0054053D01*
X0246447Y0053870D01*
X0246376Y0053685D01*
X0246310Y0053498D01*
X0246249Y0053310D01*
X0246192Y0053121D01*
X0246139Y0052930D01*
X0246091Y0052738D01*
X0246048Y0052545D01*
X0246010Y0052351D01*
X0245977Y0052156D01*
X0245948Y0051960D01*
X0245924Y0051764D01*
X0245904Y0051567D01*
X0245890Y0051369D01*
X0245880Y0051172D01*
X0245876Y0050974D01*
X0245876Y0050776D01*
X0245880Y0050578D01*
X0245890Y0050381D01*
X0245904Y0050183D01*
X0245924Y0049986D01*
X0245948Y0049790D01*
X0245977Y0049594D01*
X0246010Y0049399D01*
X0246048Y0049205D01*
X0246091Y0049012D01*
X0246139Y0048820D01*
X0246192Y0048629D01*
X0246249Y0048440D01*
X0246310Y0048252D01*
X0246376Y0048065D01*
X0246447Y0047880D01*
X0246522Y0047697D01*
X0246602Y0047516D01*
X0246686Y0047337D01*
X0246774Y0047160D01*
X0246867Y0046985D01*
X0246964Y0046812D01*
X0247065Y0046642D01*
X0247170Y0046475D01*
X0247279Y0046310D01*
X0247392Y0046147D01*
X0247509Y0045988D01*
X0247630Y0045831D01*
X0247755Y0045678D01*
X0247883Y0045527D01*
X0248015Y0045380D01*
X0248151Y0045236D01*
X0248290Y0045095D01*
X0248432Y0044958D01*
X0248578Y0044824D01*
X0248727Y0044693D01*
X0248879Y0044567D01*
X0249034Y0044444D01*
X0249192Y0044325D01*
X0249353Y0044210D01*
X0249517Y0044099D01*
X0249683Y0043992D01*
X0249852Y0043889D01*
X0250023Y0043790D01*
X0250197Y0043695D01*
X0250373Y0043604D01*
X0250551Y0043518D01*
X0250731Y0043436D01*
X0250914Y0043359D01*
X0251097Y0043286D01*
X0251283Y0043218D01*
X0251470Y0043154D01*
X0251659Y0043094D01*
X0251849Y0043040D01*
X0252041Y0042990D01*
X0252233Y0042944D01*
X0252427Y0042904D01*
X0252622Y0042868D01*
X0252817Y0042837D01*
X0253013Y0042810D01*
X0253210Y0042789D01*
X0253407Y0042772D01*
X0253604Y0042760D01*
X0253802Y0042752D01*
X0254000Y0042750D01*
X0257750Y0042750D02*
X0257948Y0042752D01*
X0258146Y0042760D01*
X0258343Y0042772D01*
X0258540Y0042789D01*
X0258737Y0042810D01*
X0258933Y0042837D01*
X0259128Y0042868D01*
X0259323Y0042904D01*
X0259517Y0042944D01*
X0259709Y0042990D01*
X0259901Y0043040D01*
X0260091Y0043094D01*
X0260280Y0043154D01*
X0260467Y0043218D01*
X0260653Y0043286D01*
X0260836Y0043359D01*
X0261019Y0043436D01*
X0261199Y0043518D01*
X0261377Y0043604D01*
X0261553Y0043695D01*
X0261727Y0043790D01*
X0261898Y0043889D01*
X0262067Y0043992D01*
X0262233Y0044099D01*
X0262397Y0044210D01*
X0262558Y0044325D01*
X0262716Y0044444D01*
X0262871Y0044567D01*
X0263023Y0044693D01*
X0263172Y0044824D01*
X0263318Y0044958D01*
X0263460Y0045095D01*
X0263599Y0045236D01*
X0263735Y0045380D01*
X0263867Y0045527D01*
X0263995Y0045678D01*
X0264120Y0045831D01*
X0264241Y0045988D01*
X0264358Y0046147D01*
X0264471Y0046310D01*
X0264580Y0046475D01*
X0264685Y0046642D01*
X0264786Y0046813D01*
X0264883Y0046985D01*
X0264976Y0047160D01*
X0265064Y0047337D01*
X0265148Y0047516D01*
X0265228Y0047697D01*
X0265303Y0047880D01*
X0265374Y0048065D01*
X0265440Y0048252D01*
X0265501Y0048440D01*
X0265558Y0048629D01*
X0265611Y0048820D01*
X0265659Y0049012D01*
X0265702Y0049205D01*
X0265740Y0049399D01*
X0265773Y0049594D01*
X0265802Y0049790D01*
X0265826Y0049986D01*
X0265846Y0050183D01*
X0265860Y0050381D01*
X0265870Y0050578D01*
X0265874Y0050776D01*
X0265874Y0050974D01*
X0265870Y0051172D01*
X0265860Y0051369D01*
X0265846Y0051567D01*
X0265826Y0051764D01*
X0265802Y0051960D01*
X0265773Y0052156D01*
X0265740Y0052351D01*
X0265702Y0052545D01*
X0265659Y0052738D01*
X0265611Y0052930D01*
X0265558Y0053121D01*
X0265501Y0053310D01*
X0265440Y0053498D01*
X0265374Y0053685D01*
X0265303Y0053870D01*
X0265228Y0054053D01*
X0265148Y0054234D01*
X0265064Y0054413D01*
X0264976Y0054590D01*
X0264883Y0054765D01*
X0264786Y0054938D01*
X0264685Y0055108D01*
X0264580Y0055275D01*
X0264471Y0055440D01*
X0264358Y0055603D01*
X0264241Y0055762D01*
X0264120Y0055919D01*
X0263995Y0056072D01*
X0263867Y0056223D01*
X0263735Y0056370D01*
X0263599Y0056514D01*
X0263460Y0056655D01*
X0263318Y0056792D01*
X0263172Y0056926D01*
X0263023Y0057057D01*
X0262871Y0057183D01*
X0262716Y0057306D01*
X0262558Y0057425D01*
X0262397Y0057540D01*
X0262233Y0057651D01*
X0262067Y0057758D01*
X0261898Y0057861D01*
X0261727Y0057960D01*
X0261553Y0058055D01*
X0261377Y0058146D01*
X0261199Y0058232D01*
X0261019Y0058314D01*
X0260836Y0058391D01*
X0260653Y0058464D01*
X0260467Y0058532D01*
X0260280Y0058596D01*
X0260091Y0058656D01*
X0259901Y0058710D01*
X0259709Y0058760D01*
X0259517Y0058806D01*
X0259323Y0058846D01*
X0259128Y0058882D01*
X0258933Y0058913D01*
X0258737Y0058940D01*
X0258540Y0058961D01*
X0258343Y0058978D01*
X0258146Y0058990D01*
X0257948Y0058998D01*
X0257750Y0059000D01*
X0320250Y0059000D02*
X0320052Y0058998D01*
X0319854Y0058990D01*
X0319657Y0058978D01*
X0319460Y0058961D01*
X0319263Y0058940D01*
X0319067Y0058913D01*
X0318872Y0058882D01*
X0318677Y0058846D01*
X0318483Y0058806D01*
X0318291Y0058760D01*
X0318099Y0058710D01*
X0317909Y0058656D01*
X0317720Y0058596D01*
X0317533Y0058532D01*
X0317347Y0058464D01*
X0317164Y0058391D01*
X0316981Y0058314D01*
X0316801Y0058232D01*
X0316623Y0058146D01*
X0316447Y0058055D01*
X0316273Y0057960D01*
X0316102Y0057861D01*
X0315933Y0057758D01*
X0315767Y0057651D01*
X0315603Y0057540D01*
X0315442Y0057425D01*
X0315284Y0057306D01*
X0315129Y0057183D01*
X0314977Y0057057D01*
X0314828Y0056926D01*
X0314682Y0056792D01*
X0314540Y0056655D01*
X0314401Y0056514D01*
X0314265Y0056370D01*
X0314133Y0056223D01*
X0314005Y0056072D01*
X0313880Y0055919D01*
X0313759Y0055762D01*
X0313642Y0055603D01*
X0313529Y0055440D01*
X0313420Y0055275D01*
X0313315Y0055108D01*
X0313214Y0054937D01*
X0313117Y0054765D01*
X0313024Y0054590D01*
X0312936Y0054413D01*
X0312852Y0054234D01*
X0312772Y0054053D01*
X0312697Y0053870D01*
X0312626Y0053685D01*
X0312560Y0053498D01*
X0312499Y0053310D01*
X0312442Y0053121D01*
X0312389Y0052930D01*
X0312341Y0052738D01*
X0312298Y0052545D01*
X0312260Y0052351D01*
X0312227Y0052156D01*
X0312198Y0051960D01*
X0312174Y0051764D01*
X0312154Y0051567D01*
X0312140Y0051369D01*
X0312130Y0051172D01*
X0312126Y0050974D01*
X0312126Y0050776D01*
X0312130Y0050578D01*
X0312140Y0050381D01*
X0312154Y0050183D01*
X0312174Y0049986D01*
X0312198Y0049790D01*
X0312227Y0049594D01*
X0312260Y0049399D01*
X0312298Y0049205D01*
X0312341Y0049012D01*
X0312389Y0048820D01*
X0312442Y0048629D01*
X0312499Y0048440D01*
X0312560Y0048252D01*
X0312626Y0048065D01*
X0312697Y0047880D01*
X0312772Y0047697D01*
X0312852Y0047516D01*
X0312936Y0047337D01*
X0313024Y0047160D01*
X0313117Y0046985D01*
X0313214Y0046812D01*
X0313315Y0046642D01*
X0313420Y0046475D01*
X0313529Y0046310D01*
X0313642Y0046147D01*
X0313759Y0045988D01*
X0313880Y0045831D01*
X0314005Y0045678D01*
X0314133Y0045527D01*
X0314265Y0045380D01*
X0314401Y0045236D01*
X0314540Y0045095D01*
X0314682Y0044958D01*
X0314828Y0044824D01*
X0314977Y0044693D01*
X0315129Y0044567D01*
X0315284Y0044444D01*
X0315442Y0044325D01*
X0315603Y0044210D01*
X0315767Y0044099D01*
X0315933Y0043992D01*
X0316102Y0043889D01*
X0316273Y0043790D01*
X0316447Y0043695D01*
X0316623Y0043604D01*
X0316801Y0043518D01*
X0316981Y0043436D01*
X0317164Y0043359D01*
X0317347Y0043286D01*
X0317533Y0043218D01*
X0317720Y0043154D01*
X0317909Y0043094D01*
X0318099Y0043040D01*
X0318291Y0042990D01*
X0318483Y0042944D01*
X0318677Y0042904D01*
X0318872Y0042868D01*
X0319067Y0042837D01*
X0319263Y0042810D01*
X0319460Y0042789D01*
X0319657Y0042772D01*
X0319854Y0042760D01*
X0320052Y0042752D01*
X0320250Y0042750D01*
X0324000Y0042750D02*
X0324198Y0042752D01*
X0324396Y0042760D01*
X0324593Y0042772D01*
X0324790Y0042789D01*
X0324987Y0042810D01*
X0325183Y0042837D01*
X0325378Y0042868D01*
X0325573Y0042904D01*
X0325767Y0042944D01*
X0325959Y0042990D01*
X0326151Y0043040D01*
X0326341Y0043094D01*
X0326530Y0043154D01*
X0326717Y0043218D01*
X0326903Y0043286D01*
X0327086Y0043359D01*
X0327269Y0043436D01*
X0327449Y0043518D01*
X0327627Y0043604D01*
X0327803Y0043695D01*
X0327977Y0043790D01*
X0328148Y0043889D01*
X0328317Y0043992D01*
X0328483Y0044099D01*
X0328647Y0044210D01*
X0328808Y0044325D01*
X0328966Y0044444D01*
X0329121Y0044567D01*
X0329273Y0044693D01*
X0329422Y0044824D01*
X0329568Y0044958D01*
X0329710Y0045095D01*
X0329849Y0045236D01*
X0329985Y0045380D01*
X0330117Y0045527D01*
X0330245Y0045678D01*
X0330370Y0045831D01*
X0330491Y0045988D01*
X0330608Y0046147D01*
X0330721Y0046310D01*
X0330830Y0046475D01*
X0330935Y0046642D01*
X0331036Y0046813D01*
X0331133Y0046985D01*
X0331226Y0047160D01*
X0331314Y0047337D01*
X0331398Y0047516D01*
X0331478Y0047697D01*
X0331553Y0047880D01*
X0331624Y0048065D01*
X0331690Y0048252D01*
X0331751Y0048440D01*
X0331808Y0048629D01*
X0331861Y0048820D01*
X0331909Y0049012D01*
X0331952Y0049205D01*
X0331990Y0049399D01*
X0332023Y0049594D01*
X0332052Y0049790D01*
X0332076Y0049986D01*
X0332096Y0050183D01*
X0332110Y0050381D01*
X0332120Y0050578D01*
X0332124Y0050776D01*
X0332124Y0050974D01*
X0332120Y0051172D01*
X0332110Y0051369D01*
X0332096Y0051567D01*
X0332076Y0051764D01*
X0332052Y0051960D01*
X0332023Y0052156D01*
X0331990Y0052351D01*
X0331952Y0052545D01*
X0331909Y0052738D01*
X0331861Y0052930D01*
X0331808Y0053121D01*
X0331751Y0053310D01*
X0331690Y0053498D01*
X0331624Y0053685D01*
X0331553Y0053870D01*
X0331478Y0054053D01*
X0331398Y0054234D01*
X0331314Y0054413D01*
X0331226Y0054590D01*
X0331133Y0054765D01*
X0331036Y0054938D01*
X0330935Y0055108D01*
X0330830Y0055275D01*
X0330721Y0055440D01*
X0330608Y0055603D01*
X0330491Y0055762D01*
X0330370Y0055919D01*
X0330245Y0056072D01*
X0330117Y0056223D01*
X0329985Y0056370D01*
X0329849Y0056514D01*
X0329710Y0056655D01*
X0329568Y0056792D01*
X0329422Y0056926D01*
X0329273Y0057057D01*
X0329121Y0057183D01*
X0328966Y0057306D01*
X0328808Y0057425D01*
X0328647Y0057540D01*
X0328483Y0057651D01*
X0328317Y0057758D01*
X0328148Y0057861D01*
X0327977Y0057960D01*
X0327803Y0058055D01*
X0327627Y0058146D01*
X0327449Y0058232D01*
X0327269Y0058314D01*
X0327086Y0058391D01*
X0326903Y0058464D01*
X0326717Y0058532D01*
X0326530Y0058596D01*
X0326341Y0058656D01*
X0326151Y0058710D01*
X0325959Y0058760D01*
X0325767Y0058806D01*
X0325573Y0058846D01*
X0325378Y0058882D01*
X0325183Y0058913D01*
X0324987Y0058940D01*
X0324790Y0058961D01*
X0324593Y0058978D01*
X0324396Y0058990D01*
X0324198Y0058998D01*
X0324000Y0059000D01*
X0285250Y0124000D02*
X0272750Y0124000D01*
X0269000Y0127750D01*
X0269000Y0144000D01*
X0286500Y0125250D02*
X0285250Y0124000D01*
D11*
X0285984Y0145550D02*
X0285550Y0145984D01*
X0285550Y0146851D01*
X0285984Y0147285D01*
X0285550Y0148497D02*
X0285550Y0150231D01*
X0285550Y0151443D02*
X0288152Y0151443D01*
X0286851Y0151877D02*
X0285550Y0153178D01*
X0286417Y0151443D02*
X0288152Y0153178D01*
X0288152Y0148497D02*
X0285550Y0148497D01*
X0287719Y0147285D02*
X0288152Y0146851D01*
X0288152Y0145984D01*
X0287719Y0145550D01*
X0285984Y0145550D01*
X0295550Y0145550D02*
X0298152Y0145550D01*
X0297285Y0146417D01*
X0298152Y0147285D01*
X0295550Y0147285D01*
X0295550Y0148497D02*
X0295550Y0149364D01*
X0295550Y0148930D02*
X0298152Y0148930D01*
X0298152Y0148497D02*
X0298152Y0149364D01*
X0297719Y0150461D02*
X0297285Y0150461D01*
X0296851Y0150895D01*
X0296851Y0151762D01*
X0296417Y0152196D01*
X0295984Y0152196D01*
X0295550Y0151762D01*
X0295550Y0150895D01*
X0295984Y0150461D01*
X0297719Y0150461D02*
X0298152Y0150895D01*
X0298152Y0151762D01*
X0297719Y0152196D01*
X0297719Y0153407D02*
X0295984Y0153407D01*
X0295550Y0153841D01*
X0295550Y0154708D01*
X0295984Y0155142D01*
X0297719Y0155142D01*
X0298152Y0154708D01*
X0298152Y0153841D01*
X0297719Y0153407D01*
X0270652Y0152744D02*
X0270652Y0151877D01*
X0270219Y0151443D01*
X0269785Y0151443D01*
X0269351Y0151877D01*
X0269351Y0152744D01*
X0268917Y0153178D01*
X0268484Y0153178D01*
X0268050Y0152744D01*
X0268050Y0151877D01*
X0268484Y0151443D01*
X0268484Y0150231D02*
X0270219Y0150231D01*
X0270652Y0149798D01*
X0270652Y0148930D01*
X0270219Y0148497D01*
X0268484Y0148497D01*
X0268050Y0148930D01*
X0268050Y0149798D01*
X0268484Y0150231D01*
X0268050Y0147285D02*
X0270652Y0147285D01*
X0269785Y0146417D01*
X0270652Y0145550D01*
X0268050Y0145550D01*
X0270652Y0152744D02*
X0270219Y0153178D01*
X0270652Y0154390D02*
X0270652Y0155257D01*
X0270652Y0154823D02*
X0268050Y0154823D01*
X0268050Y0154390D02*
X0268050Y0155257D01*
X0368050Y0152731D02*
X0370652Y0150997D01*
X0370652Y0149785D02*
X0370652Y0148050D01*
X0370652Y0148917D02*
X0368050Y0148917D01*
X0368050Y0150997D02*
X0370652Y0152731D01*
X0370652Y0142731D02*
X0368050Y0140997D01*
X0368050Y0139785D02*
X0368917Y0138917D01*
X0368917Y0139351D02*
X0368917Y0138050D01*
X0368050Y0138050D02*
X0370652Y0138050D01*
X0370652Y0139351D01*
X0370219Y0139785D01*
X0369351Y0139785D01*
X0368917Y0139351D01*
X0370652Y0140997D02*
X0368050Y0142731D01*
X0304952Y0307067D02*
X0302350Y0307067D01*
X0303217Y0307067D02*
X0303217Y0308369D01*
X0303651Y0308802D01*
X0304519Y0308802D01*
X0304952Y0308369D01*
X0304952Y0307067D01*
X0303217Y0307935D02*
X0302350Y0308802D01*
X0302350Y0310014D02*
X0302350Y0311749D01*
X0302784Y0312960D02*
X0302350Y0313394D01*
X0302350Y0314262D01*
X0302784Y0314695D01*
X0303217Y0314695D01*
X0303651Y0314262D01*
X0303651Y0313394D01*
X0304085Y0312960D01*
X0304519Y0312960D01*
X0304952Y0313394D01*
X0304952Y0314262D01*
X0304519Y0314695D01*
X0304952Y0315907D02*
X0302350Y0315907D01*
X0302350Y0317642D01*
X0303651Y0316774D02*
X0303651Y0315907D01*
X0304952Y0315907D02*
X0304952Y0317642D01*
X0304952Y0318853D02*
X0304952Y0320588D01*
X0304952Y0319721D02*
X0302350Y0319721D01*
X0294952Y0319836D02*
X0294952Y0320703D01*
X0294952Y0320269D02*
X0292350Y0320269D01*
X0292350Y0319836D02*
X0292350Y0320703D01*
X0292784Y0318624D02*
X0292350Y0318190D01*
X0292350Y0317323D01*
X0292784Y0316889D01*
X0293651Y0317323D02*
X0294085Y0316889D01*
X0294519Y0316889D01*
X0294952Y0317323D01*
X0294952Y0318190D01*
X0294519Y0318624D01*
X0293651Y0318190D02*
X0293217Y0318624D01*
X0292784Y0318624D01*
X0293651Y0318190D02*
X0293651Y0317323D01*
X0292784Y0315677D02*
X0294519Y0315677D01*
X0294952Y0315244D01*
X0294952Y0314376D01*
X0294519Y0313943D01*
X0292784Y0313943D01*
X0292350Y0314376D01*
X0292350Y0315244D01*
X0292784Y0315677D01*
X0292350Y0312731D02*
X0294952Y0312731D01*
X0294085Y0311863D01*
X0294952Y0310996D01*
X0292350Y0310996D01*
X0284952Y0313394D02*
X0284519Y0312960D01*
X0282784Y0312960D01*
X0282350Y0313394D01*
X0282350Y0314262D01*
X0282784Y0314695D01*
X0282350Y0315907D02*
X0282350Y0317642D01*
X0282350Y0318853D02*
X0284952Y0318853D01*
X0283651Y0319287D02*
X0282350Y0320588D01*
X0283217Y0318853D02*
X0284952Y0320588D01*
X0284952Y0315907D02*
X0282350Y0315907D01*
X0284519Y0314695D02*
X0284952Y0314262D01*
X0284952Y0313394D01*
X0274952Y0312788D02*
X0274519Y0313222D01*
X0274085Y0313222D01*
X0273651Y0312788D01*
X0273217Y0313222D01*
X0272784Y0313222D01*
X0272350Y0312788D01*
X0272350Y0311921D01*
X0272784Y0311487D01*
X0273651Y0312355D02*
X0273651Y0312788D01*
X0274952Y0312788D02*
X0274952Y0311921D01*
X0274519Y0311487D01*
X0272784Y0314434D02*
X0272784Y0314867D01*
X0272350Y0314867D01*
X0272350Y0314434D01*
X0272784Y0314434D01*
X0272784Y0315907D02*
X0272350Y0316341D01*
X0272350Y0317208D01*
X0272784Y0317642D01*
X0273217Y0317642D01*
X0273651Y0317208D01*
X0273651Y0316774D01*
X0273651Y0317208D02*
X0274085Y0317642D01*
X0274519Y0317642D01*
X0274952Y0317208D01*
X0274952Y0316341D01*
X0274519Y0315907D01*
X0274952Y0318853D02*
X0273217Y0318853D01*
X0272350Y0319721D01*
X0273217Y0320588D01*
X0274952Y0320588D01*
X0264952Y0320155D02*
X0264952Y0318853D01*
X0262350Y0318853D01*
X0262350Y0320155D01*
X0262784Y0320588D01*
X0264519Y0320588D01*
X0264952Y0320155D01*
X0264952Y0317642D02*
X0262350Y0317642D01*
X0264952Y0315907D01*
X0262350Y0315907D01*
X0262784Y0314695D02*
X0263651Y0314695D01*
X0263651Y0313828D01*
X0262784Y0314695D02*
X0262350Y0314262D01*
X0262350Y0313394D01*
X0262784Y0312960D01*
X0264519Y0312960D01*
X0264952Y0313394D01*
X0264952Y0314262D01*
X0264519Y0314695D01*
X0302350Y0310014D02*
X0304952Y0310014D01*
X0304952Y0311749D01*
X0303651Y0310881D02*
X0303651Y0310014D01*
X0312350Y0315907D02*
X0312350Y0317208D01*
X0312784Y0317642D01*
X0314519Y0317642D01*
X0314952Y0317208D01*
X0314952Y0315907D01*
X0312350Y0315907D01*
X0312784Y0318853D02*
X0312350Y0319287D01*
X0312350Y0320155D01*
X0312784Y0320588D01*
X0314519Y0320588D02*
X0314952Y0320155D01*
X0314952Y0319287D01*
X0314519Y0318853D01*
X0312784Y0318853D01*
X0322350Y0319287D02*
X0322784Y0318853D01*
X0322350Y0319287D02*
X0322350Y0320155D01*
X0322784Y0320588D01*
X0323217Y0320588D01*
X0323651Y0320155D01*
X0323651Y0319287D01*
X0324085Y0318853D01*
X0324519Y0318853D01*
X0324952Y0319287D01*
X0324952Y0320155D01*
X0324519Y0320588D01*
X0324519Y0317642D02*
X0324952Y0317208D01*
X0324952Y0316341D01*
X0324519Y0315907D01*
X0322784Y0315907D01*
X0322350Y0316341D01*
X0322350Y0317208D01*
X0322784Y0317642D01*
X0153700Y0114452D02*
X0151965Y0114452D01*
X0152833Y0114452D02*
X0152833Y0111850D01*
X0150753Y0112284D02*
X0150320Y0111850D01*
X0149452Y0111850D01*
X0149019Y0112284D01*
X0149019Y0113151D01*
X0149452Y0113585D01*
X0149886Y0113585D01*
X0150753Y0113151D01*
X0150753Y0114452D01*
X0149019Y0114452D01*
X0147807Y0113151D02*
X0146506Y0113151D01*
X0146072Y0112717D01*
X0146072Y0112284D01*
X0146506Y0111850D01*
X0147373Y0111850D01*
X0147807Y0112284D01*
X0147807Y0113151D01*
X0146940Y0114019D01*
X0146072Y0114452D01*
X0144860Y0114019D02*
X0144860Y0113585D01*
X0144427Y0113151D01*
X0143559Y0113151D01*
X0143126Y0112717D01*
X0143126Y0112284D01*
X0143559Y0111850D01*
X0144427Y0111850D01*
X0144860Y0112284D01*
X0144860Y0112717D01*
X0144427Y0113151D01*
X0143559Y0113151D02*
X0143126Y0113585D01*
X0143126Y0114019D01*
X0143559Y0114452D01*
X0144427Y0114452D01*
X0144860Y0114019D01*
X0141914Y0114452D02*
X0141914Y0111850D01*
X0140613Y0111850D01*
X0140179Y0112284D01*
X0140179Y0112717D01*
X0140613Y0113151D01*
X0141914Y0113151D01*
X0140613Y0113151D02*
X0140179Y0113585D01*
X0140179Y0114019D01*
X0140613Y0114452D01*
X0141914Y0114452D01*
X0136021Y0113585D02*
X0134720Y0113585D01*
X0134286Y0113151D01*
X0134286Y0112284D01*
X0134720Y0111850D01*
X0136021Y0111850D01*
X0136021Y0110983D02*
X0136021Y0113585D01*
X0133074Y0113585D02*
X0132641Y0113585D01*
X0132641Y0111850D01*
X0133074Y0111850D02*
X0132207Y0111850D01*
X0131110Y0111850D02*
X0131110Y0113585D01*
X0129809Y0113585D01*
X0129375Y0113151D01*
X0129375Y0111850D01*
X0128164Y0112284D02*
X0127730Y0111850D01*
X0126862Y0111850D01*
X0126429Y0112284D01*
X0126429Y0113151D01*
X0126862Y0113585D01*
X0127730Y0113585D01*
X0128164Y0113151D01*
X0128164Y0112284D01*
X0125217Y0112284D02*
X0124783Y0111850D01*
X0123482Y0111850D01*
X0123482Y0113585D01*
X0122270Y0113585D02*
X0121403Y0113585D01*
X0121837Y0114019D02*
X0121837Y0112284D01*
X0121403Y0111850D01*
X0120306Y0111850D02*
X0119005Y0111850D01*
X0118571Y0112284D01*
X0119005Y0112717D01*
X0119872Y0112717D01*
X0120306Y0113151D01*
X0119872Y0113585D01*
X0118571Y0113585D01*
X0118399Y0108785D02*
X0117532Y0108785D01*
X0117098Y0108351D01*
X0117098Y0107050D01*
X0118399Y0107050D01*
X0118833Y0107484D01*
X0118399Y0107917D01*
X0117098Y0107917D01*
X0115886Y0107050D02*
X0115886Y0108785D01*
X0114585Y0108785D01*
X0114152Y0108351D01*
X0114152Y0107050D01*
X0112940Y0107484D02*
X0112506Y0107050D01*
X0111205Y0107050D01*
X0111205Y0106616D02*
X0111205Y0108785D01*
X0112506Y0108785D01*
X0112940Y0108351D01*
X0112940Y0107484D01*
X0112072Y0106183D02*
X0111639Y0106183D01*
X0111205Y0106616D01*
X0109993Y0107484D02*
X0109993Y0108351D01*
X0109560Y0108785D01*
X0108692Y0108785D01*
X0108259Y0108351D01*
X0108259Y0107917D01*
X0109993Y0107917D01*
X0109993Y0107484D02*
X0109560Y0107050D01*
X0108692Y0107050D01*
X0111639Y0103985D02*
X0111205Y0103551D01*
X0111205Y0102250D01*
X0112940Y0102250D02*
X0112940Y0103985D01*
X0111639Y0103985D01*
X0114152Y0103985D02*
X0114152Y0102684D01*
X0114585Y0102250D01*
X0115019Y0102684D01*
X0115453Y0102250D01*
X0115886Y0102684D01*
X0115886Y0103985D01*
X0117098Y0103551D02*
X0117532Y0103985D01*
X0118399Y0103985D01*
X0118833Y0103551D01*
X0118833Y0102684D01*
X0118399Y0102250D01*
X0117532Y0102250D01*
X0117098Y0102684D01*
X0117098Y0103551D01*
X0119987Y0103985D02*
X0120421Y0103985D01*
X0121288Y0103117D01*
X0121288Y0102250D02*
X0121288Y0103985D01*
X0122500Y0103985D02*
X0122934Y0103551D01*
X0124235Y0103551D01*
X0124235Y0102250D02*
X0122934Y0102250D01*
X0122500Y0102684D01*
X0122500Y0103117D01*
X0122934Y0103551D01*
X0122500Y0103985D02*
X0122500Y0104419D01*
X0122934Y0104852D01*
X0124235Y0104852D01*
X0124235Y0102250D01*
X0122762Y0100052D02*
X0121460Y0100052D01*
X0121027Y0099619D01*
X0121027Y0099185D01*
X0121460Y0098751D01*
X0122762Y0098751D01*
X0122762Y0097450D02*
X0122762Y0100052D01*
X0121460Y0098751D02*
X0121027Y0098317D01*
X0121027Y0097884D01*
X0121460Y0097450D01*
X0122762Y0097450D01*
X0123916Y0095252D02*
X0124783Y0095252D01*
X0125217Y0094819D01*
X0125217Y0093084D01*
X0124783Y0092650D01*
X0123916Y0092650D01*
X0123482Y0093084D01*
X0123482Y0093951D01*
X0124350Y0093951D01*
X0123482Y0094819D02*
X0123916Y0095252D01*
X0122270Y0094385D02*
X0122270Y0092650D01*
X0122270Y0093517D02*
X0121403Y0094385D01*
X0120969Y0094385D01*
X0119815Y0093951D02*
X0119381Y0094385D01*
X0118514Y0094385D01*
X0118080Y0093951D01*
X0118080Y0093517D01*
X0119815Y0093517D01*
X0119815Y0093084D02*
X0119815Y0093951D01*
X0119815Y0093084D02*
X0119381Y0092650D01*
X0118514Y0092650D01*
X0116869Y0093084D02*
X0116869Y0093951D01*
X0116435Y0094385D01*
X0115567Y0094385D01*
X0115134Y0093951D01*
X0115134Y0093517D01*
X0116869Y0093517D01*
X0116869Y0093084D02*
X0116435Y0092650D01*
X0115567Y0092650D01*
X0113922Y0092650D02*
X0113922Y0094385D01*
X0112621Y0094385D01*
X0112187Y0093951D01*
X0112187Y0092650D01*
X0112449Y0090452D02*
X0111148Y0090452D01*
X0110714Y0090019D01*
X0110714Y0089585D01*
X0111148Y0089151D01*
X0112449Y0089151D01*
X0112449Y0087850D02*
X0111148Y0087850D01*
X0110714Y0088284D01*
X0110714Y0088717D01*
X0111148Y0089151D01*
X0112449Y0087850D02*
X0112449Y0090452D01*
X0109502Y0090452D02*
X0109069Y0090452D01*
X0109069Y0087850D01*
X0109502Y0087850D02*
X0108635Y0087850D01*
X0107538Y0088284D02*
X0107104Y0087850D01*
X0105803Y0087850D01*
X0105803Y0089585D01*
X0104591Y0089151D02*
X0104158Y0089585D01*
X0103290Y0089585D01*
X0102857Y0089151D01*
X0102857Y0088717D01*
X0104591Y0088717D01*
X0104591Y0088284D02*
X0104591Y0089151D01*
X0104591Y0088284D02*
X0104158Y0087850D01*
X0103290Y0087850D01*
X0107538Y0088284D02*
X0107538Y0089585D01*
X0113603Y0097450D02*
X0114470Y0097450D01*
X0114904Y0097884D01*
X0114904Y0098751D01*
X0114470Y0099185D01*
X0113603Y0099185D01*
X0113169Y0098751D01*
X0113169Y0098317D01*
X0114904Y0098317D01*
X0116116Y0097450D02*
X0116116Y0099185D01*
X0117851Y0099185D02*
X0117851Y0097884D01*
X0117417Y0097450D01*
X0116116Y0097450D01*
X0118948Y0097450D02*
X0119815Y0097450D01*
X0119381Y0097450D02*
X0119381Y0100052D01*
X0119815Y0100052D01*
X0121288Y0107050D02*
X0121288Y0108785D01*
X0120421Y0108785D02*
X0119987Y0108785D01*
X0120421Y0108785D02*
X0121288Y0107917D01*
X0122500Y0107484D02*
X0122500Y0109219D01*
X0122934Y0109652D01*
X0123801Y0109652D01*
X0124235Y0109219D01*
X0124235Y0107484D01*
X0123801Y0107050D01*
X0122934Y0107050D01*
X0122500Y0107484D01*
X0125217Y0112284D02*
X0125217Y0113585D01*
X0128393Y0108351D02*
X0130128Y0107050D01*
X0128393Y0108351D02*
X0130128Y0109652D01*
X0134286Y0109219D02*
X0134720Y0109652D01*
X0135587Y0109652D01*
X0136021Y0109219D01*
X0134286Y0109219D02*
X0134286Y0108785D01*
X0136021Y0107050D01*
X0134286Y0107050D01*
X0134720Y0104852D02*
X0134286Y0104419D01*
X0134286Y0103985D01*
X0134720Y0103551D01*
X0135587Y0103551D01*
X0136021Y0103985D01*
X0136021Y0104419D01*
X0135587Y0104852D01*
X0134720Y0104852D01*
X0134720Y0103551D02*
X0134286Y0103117D01*
X0134286Y0102684D01*
X0134720Y0102250D01*
X0135587Y0102250D01*
X0136021Y0102684D01*
X0136021Y0103117D01*
X0135587Y0103551D01*
X0133247Y0100052D02*
X0134548Y0098751D01*
X0132813Y0098751D01*
X0133247Y0097450D02*
X0133247Y0100052D01*
X0130128Y0102250D02*
X0128393Y0103551D01*
X0130128Y0104852D01*
X0128655Y0100052D02*
X0126920Y0098751D01*
X0128655Y0097450D01*
X0131110Y0095252D02*
X0129375Y0093951D01*
X0131110Y0092650D01*
X0130128Y0090452D02*
X0128393Y0089151D01*
X0130128Y0087850D01*
X0134286Y0088284D02*
X0134720Y0087850D01*
X0135587Y0087850D01*
X0136021Y0088284D01*
X0136021Y0089151D02*
X0135153Y0089585D01*
X0134720Y0089585D01*
X0134286Y0089151D01*
X0134286Y0088284D01*
X0136021Y0089151D02*
X0136021Y0090452D01*
X0134286Y0090452D01*
X0135702Y0092650D02*
X0135268Y0093084D01*
X0135268Y0093517D01*
X0135702Y0093951D01*
X0137003Y0093951D01*
X0137003Y0093084D01*
X0136569Y0092650D01*
X0135702Y0092650D01*
X0137003Y0093951D02*
X0136136Y0094819D01*
X0135268Y0095252D01*
X0138706Y0098751D02*
X0140441Y0097450D01*
X0138706Y0098751D02*
X0140441Y0100052D01*
X0141914Y0102250D02*
X0140179Y0103551D01*
X0141914Y0104852D01*
X0141914Y0107050D02*
X0140179Y0108351D01*
X0141914Y0109652D01*
X0146072Y0108785D02*
X0146072Y0107050D01*
X0146072Y0108351D02*
X0147807Y0108351D01*
X0147807Y0108785D02*
X0146940Y0109652D01*
X0146072Y0108785D01*
X0147807Y0108785D02*
X0147807Y0107050D01*
X0149019Y0107484D02*
X0149019Y0109219D01*
X0149452Y0109652D01*
X0150753Y0109652D01*
X0150753Y0107050D01*
X0149452Y0107050D01*
X0149019Y0107484D01*
X0149452Y0104852D02*
X0150320Y0104852D01*
X0150753Y0104419D01*
X0150753Y0102684D01*
X0150320Y0102250D01*
X0149452Y0102250D01*
X0149019Y0102684D01*
X0147807Y0102250D02*
X0146072Y0102250D01*
X0147807Y0102250D02*
X0147807Y0104852D01*
X0149019Y0104419D02*
X0149452Y0104852D01*
X0151965Y0104419D02*
X0152399Y0104852D01*
X0153266Y0104852D01*
X0153700Y0104419D01*
X0153700Y0103985D01*
X0153266Y0103551D01*
X0152399Y0103551D01*
X0151965Y0103117D01*
X0151965Y0102684D01*
X0152399Y0102250D01*
X0153266Y0102250D01*
X0153700Y0102684D01*
X0153266Y0100052D02*
X0152399Y0100052D01*
X0151965Y0099619D01*
X0151965Y0099185D01*
X0152399Y0098751D01*
X0151965Y0098317D01*
X0151965Y0097884D01*
X0152399Y0097450D01*
X0153266Y0097450D01*
X0153700Y0097884D01*
X0152833Y0098751D02*
X0152399Y0098751D01*
X0153700Y0099619D02*
X0153266Y0100052D01*
X0150753Y0097884D02*
X0150320Y0097884D01*
X0150320Y0097450D01*
X0150753Y0097450D01*
X0150753Y0097884D01*
X0149280Y0097884D02*
X0148847Y0097450D01*
X0147979Y0097450D01*
X0147545Y0097884D01*
X0147545Y0098317D01*
X0147979Y0098751D01*
X0148413Y0098751D01*
X0147979Y0098751D02*
X0147545Y0099185D01*
X0147545Y0099619D01*
X0147979Y0100052D01*
X0148847Y0100052D01*
X0149280Y0099619D01*
X0146334Y0099185D02*
X0145466Y0097450D01*
X0144599Y0099185D01*
X0142896Y0095252D02*
X0141161Y0093951D01*
X0142896Y0092650D01*
X0141914Y0090452D02*
X0140179Y0089151D01*
X0141914Y0087850D01*
X0146072Y0088284D02*
X0146072Y0090019D01*
X0146506Y0090452D01*
X0147807Y0090452D01*
X0147807Y0087850D01*
X0146506Y0087850D01*
X0146072Y0088284D01*
X0149019Y0087850D02*
X0149019Y0090452D01*
X0150753Y0090452D02*
X0149019Y0087850D01*
X0150753Y0087850D02*
X0150753Y0090452D01*
X0151965Y0090019D02*
X0152399Y0090452D01*
X0153266Y0090452D01*
X0153700Y0090019D01*
X0153700Y0088284D01*
X0153266Y0087850D01*
X0152399Y0087850D01*
X0151965Y0088284D01*
X0151965Y0089151D01*
X0152833Y0089151D01*
X0152833Y0092650D02*
X0151965Y0093517D01*
X0151965Y0095252D01*
X0150753Y0095252D02*
X0149886Y0095252D01*
X0150320Y0095252D02*
X0150320Y0092650D01*
X0150753Y0092650D02*
X0149886Y0092650D01*
X0148789Y0092650D02*
X0148789Y0095252D01*
X0147054Y0092650D01*
X0147054Y0095252D01*
X0152833Y0092650D02*
X0153700Y0093517D01*
X0153700Y0095252D01*
X0153266Y0107050D02*
X0153700Y0107484D01*
X0153266Y0107050D02*
X0152399Y0107050D01*
X0151965Y0107484D01*
X0151965Y0107917D01*
X0152399Y0108351D01*
X0153266Y0108351D01*
X0153700Y0108785D01*
X0153700Y0109219D01*
X0153266Y0109652D01*
X0152399Y0109652D01*
X0151965Y0109219D01*
X0132641Y0114452D02*
X0132641Y0114886D01*
X0124235Y0090452D02*
X0124235Y0087850D01*
X0123367Y0088717D01*
X0122500Y0087850D01*
X0122500Y0090452D01*
X0118342Y0090019D02*
X0118342Y0089585D01*
X0116607Y0087850D01*
X0117474Y0087850D02*
X0117908Y0087850D01*
X0118342Y0088284D01*
X0118342Y0088717D01*
X0117474Y0089585D01*
X0117474Y0090019D01*
X0117908Y0090452D01*
X0118342Y0090019D01*
X0116607Y0088717D02*
X0117474Y0087850D01*
X0066200Y0088284D02*
X0065766Y0087850D01*
X0064899Y0087850D01*
X0064465Y0088284D01*
X0064465Y0089151D01*
X0065333Y0089151D01*
X0066200Y0090019D02*
X0066200Y0088284D01*
X0066200Y0090019D02*
X0065766Y0090452D01*
X0064899Y0090452D01*
X0064465Y0090019D01*
X0063253Y0090452D02*
X0063253Y0087850D01*
X0061519Y0087850D02*
X0061519Y0090452D01*
X0060307Y0090452D02*
X0059006Y0090452D01*
X0058572Y0090019D01*
X0058572Y0088284D01*
X0059006Y0087850D01*
X0060307Y0087850D01*
X0060307Y0090452D01*
X0059554Y0092650D02*
X0059554Y0095252D01*
X0061289Y0095252D02*
X0059554Y0092650D01*
X0061289Y0092650D02*
X0061289Y0095252D01*
X0062386Y0095252D02*
X0063253Y0095252D01*
X0062820Y0095252D02*
X0062820Y0092650D01*
X0063253Y0092650D02*
X0062386Y0092650D01*
X0064465Y0093517D02*
X0064465Y0095252D01*
X0064465Y0093517D02*
X0065333Y0092650D01*
X0066200Y0093517D01*
X0066200Y0095252D01*
X0065766Y0097450D02*
X0066200Y0097884D01*
X0065766Y0097450D02*
X0064899Y0097450D01*
X0064465Y0097884D01*
X0064465Y0098317D01*
X0064899Y0098751D01*
X0065333Y0098751D01*
X0064899Y0098751D02*
X0064465Y0099185D01*
X0064465Y0099619D01*
X0064899Y0100052D01*
X0065766Y0100052D01*
X0066200Y0099619D01*
X0065766Y0102250D02*
X0066200Y0102684D01*
X0065766Y0102250D02*
X0064899Y0102250D01*
X0064465Y0102684D01*
X0064465Y0103117D01*
X0064899Y0103551D01*
X0065766Y0103551D01*
X0066200Y0103985D01*
X0066200Y0104419D01*
X0065766Y0104852D01*
X0064899Y0104852D01*
X0064465Y0104419D01*
X0063253Y0104419D02*
X0063253Y0102684D01*
X0062820Y0102250D01*
X0061952Y0102250D01*
X0061519Y0102684D01*
X0060307Y0102250D02*
X0058572Y0102250D01*
X0060307Y0102250D02*
X0060307Y0104852D01*
X0061519Y0104419D02*
X0061952Y0104852D01*
X0062820Y0104852D01*
X0063253Y0104419D01*
X0063253Y0107050D02*
X0061952Y0107050D01*
X0061519Y0107484D01*
X0061519Y0109219D01*
X0061952Y0109652D01*
X0063253Y0109652D01*
X0063253Y0107050D01*
X0064465Y0107484D02*
X0064899Y0107050D01*
X0065766Y0107050D01*
X0066200Y0107484D01*
X0065766Y0108351D02*
X0066200Y0108785D01*
X0066200Y0109219D01*
X0065766Y0109652D01*
X0064899Y0109652D01*
X0064465Y0109219D01*
X0064899Y0108351D02*
X0064465Y0107917D01*
X0064465Y0107484D01*
X0064899Y0108351D02*
X0065766Y0108351D01*
X0065333Y0111850D02*
X0065333Y0114452D01*
X0066200Y0114452D02*
X0064465Y0114452D01*
X0063253Y0114452D02*
X0063253Y0113151D01*
X0062386Y0113585D01*
X0061952Y0113585D01*
X0061519Y0113151D01*
X0061519Y0112284D01*
X0061952Y0111850D01*
X0062820Y0111850D01*
X0063253Y0112284D01*
X0063253Y0114452D02*
X0061519Y0114452D01*
X0060307Y0113151D02*
X0059440Y0114019D01*
X0058572Y0114452D01*
X0057360Y0114019D02*
X0057360Y0113585D01*
X0056927Y0113151D01*
X0056059Y0113151D01*
X0055626Y0112717D01*
X0055626Y0112284D01*
X0056059Y0111850D01*
X0056927Y0111850D01*
X0057360Y0112284D01*
X0057360Y0112717D01*
X0056927Y0113151D01*
X0056059Y0113151D02*
X0055626Y0113585D01*
X0055626Y0114019D01*
X0056059Y0114452D01*
X0056927Y0114452D01*
X0057360Y0114019D01*
X0058572Y0112717D02*
X0059006Y0113151D01*
X0060307Y0113151D01*
X0060307Y0112284D01*
X0059873Y0111850D01*
X0059006Y0111850D01*
X0058572Y0112284D01*
X0058572Y0112717D01*
X0059440Y0109652D02*
X0058572Y0108785D01*
X0058572Y0107050D01*
X0058572Y0108351D02*
X0060307Y0108351D01*
X0060307Y0108785D02*
X0059440Y0109652D01*
X0060307Y0108785D02*
X0060307Y0107050D01*
X0054414Y0107050D02*
X0052679Y0108351D01*
X0054414Y0109652D01*
X0054414Y0111850D02*
X0053113Y0111850D01*
X0052679Y0112284D01*
X0052679Y0112717D01*
X0053113Y0113151D01*
X0054414Y0113151D01*
X0054414Y0111850D02*
X0054414Y0114452D01*
X0053113Y0114452D01*
X0052679Y0114019D01*
X0052679Y0113585D01*
X0053113Y0113151D01*
X0048521Y0113585D02*
X0047220Y0113585D01*
X0046786Y0113151D01*
X0046786Y0112284D01*
X0047220Y0111850D01*
X0048521Y0111850D01*
X0048521Y0110983D02*
X0048521Y0113585D01*
X0045574Y0113585D02*
X0045141Y0113585D01*
X0045141Y0111850D01*
X0045574Y0111850D02*
X0044707Y0111850D01*
X0043610Y0111850D02*
X0043610Y0113585D01*
X0042309Y0113585D01*
X0041875Y0113151D01*
X0041875Y0111850D01*
X0040664Y0112284D02*
X0040230Y0111850D01*
X0039362Y0111850D01*
X0038929Y0112284D01*
X0038929Y0113151D01*
X0039362Y0113585D01*
X0040230Y0113585D01*
X0040664Y0113151D01*
X0040664Y0112284D01*
X0037717Y0112284D02*
X0037283Y0111850D01*
X0035982Y0111850D01*
X0035982Y0113585D01*
X0034770Y0113585D02*
X0033903Y0113585D01*
X0034337Y0114019D02*
X0034337Y0112284D01*
X0033903Y0111850D01*
X0032806Y0111850D02*
X0031505Y0111850D01*
X0031071Y0112284D01*
X0031505Y0112717D01*
X0032372Y0112717D01*
X0032806Y0113151D01*
X0032372Y0113585D01*
X0031071Y0113585D01*
X0030899Y0108785D02*
X0030032Y0108785D01*
X0029598Y0108351D01*
X0029598Y0107050D01*
X0030899Y0107050D01*
X0031333Y0107484D01*
X0030899Y0107917D01*
X0029598Y0107917D01*
X0028386Y0107050D02*
X0028386Y0108785D01*
X0027085Y0108785D01*
X0026652Y0108351D01*
X0026652Y0107050D01*
X0025440Y0107484D02*
X0025006Y0107050D01*
X0023705Y0107050D01*
X0023705Y0106616D02*
X0023705Y0108785D01*
X0025006Y0108785D01*
X0025440Y0108351D01*
X0025440Y0107484D01*
X0024572Y0106183D02*
X0024139Y0106183D01*
X0023705Y0106616D01*
X0022493Y0107484D02*
X0022493Y0108351D01*
X0022060Y0108785D01*
X0021192Y0108785D01*
X0020759Y0108351D01*
X0020759Y0107917D01*
X0022493Y0107917D01*
X0022493Y0107484D02*
X0022060Y0107050D01*
X0021192Y0107050D01*
X0024139Y0103985D02*
X0023705Y0103551D01*
X0023705Y0102250D01*
X0025440Y0102250D02*
X0025440Y0103985D01*
X0024139Y0103985D01*
X0026652Y0103985D02*
X0026652Y0102684D01*
X0027085Y0102250D01*
X0027519Y0102684D01*
X0027953Y0102250D01*
X0028386Y0102684D01*
X0028386Y0103985D01*
X0029598Y0103551D02*
X0030032Y0103985D01*
X0030899Y0103985D01*
X0031333Y0103551D01*
X0031333Y0102684D01*
X0030899Y0102250D01*
X0030032Y0102250D01*
X0029598Y0102684D01*
X0029598Y0103551D01*
X0032487Y0103985D02*
X0032921Y0103985D01*
X0033788Y0103117D01*
X0033788Y0102250D02*
X0033788Y0103985D01*
X0035000Y0103985D02*
X0035434Y0103551D01*
X0036735Y0103551D01*
X0036735Y0102250D02*
X0035434Y0102250D01*
X0035000Y0102684D01*
X0035000Y0103117D01*
X0035434Y0103551D01*
X0035000Y0103985D02*
X0035000Y0104419D01*
X0035434Y0104852D01*
X0036735Y0104852D01*
X0036735Y0102250D01*
X0035262Y0100052D02*
X0033960Y0100052D01*
X0033527Y0099619D01*
X0033527Y0099185D01*
X0033960Y0098751D01*
X0035262Y0098751D01*
X0035262Y0097450D02*
X0035262Y0100052D01*
X0033960Y0098751D02*
X0033527Y0098317D01*
X0033527Y0097884D01*
X0033960Y0097450D01*
X0035262Y0097450D01*
X0036416Y0095252D02*
X0037283Y0095252D01*
X0037717Y0094819D01*
X0037717Y0093084D01*
X0037283Y0092650D01*
X0036416Y0092650D01*
X0035982Y0093084D01*
X0035982Y0093951D01*
X0036850Y0093951D01*
X0035982Y0094819D02*
X0036416Y0095252D01*
X0034770Y0094385D02*
X0034770Y0092650D01*
X0034770Y0093517D02*
X0033903Y0094385D01*
X0033469Y0094385D01*
X0032315Y0093951D02*
X0031881Y0094385D01*
X0031014Y0094385D01*
X0030580Y0093951D01*
X0030580Y0093517D01*
X0032315Y0093517D01*
X0032315Y0093084D02*
X0032315Y0093951D01*
X0032315Y0093084D02*
X0031881Y0092650D01*
X0031014Y0092650D01*
X0029369Y0093084D02*
X0029369Y0093951D01*
X0028935Y0094385D01*
X0028067Y0094385D01*
X0027634Y0093951D01*
X0027634Y0093517D01*
X0029369Y0093517D01*
X0029369Y0093084D02*
X0028935Y0092650D01*
X0028067Y0092650D01*
X0026422Y0092650D02*
X0026422Y0094385D01*
X0025121Y0094385D01*
X0024687Y0093951D01*
X0024687Y0092650D01*
X0024949Y0090452D02*
X0023648Y0090452D01*
X0023214Y0090019D01*
X0023214Y0089585D01*
X0023648Y0089151D01*
X0024949Y0089151D01*
X0024949Y0087850D02*
X0023648Y0087850D01*
X0023214Y0088284D01*
X0023214Y0088717D01*
X0023648Y0089151D01*
X0024949Y0087850D02*
X0024949Y0090452D01*
X0022002Y0090452D02*
X0021569Y0090452D01*
X0021569Y0087850D01*
X0022002Y0087850D02*
X0021135Y0087850D01*
X0020038Y0088284D02*
X0019604Y0087850D01*
X0018303Y0087850D01*
X0018303Y0089585D01*
X0017091Y0089151D02*
X0016658Y0089585D01*
X0015790Y0089585D01*
X0015357Y0089151D01*
X0015357Y0088717D01*
X0017091Y0088717D01*
X0017091Y0088284D02*
X0017091Y0089151D01*
X0017091Y0088284D02*
X0016658Y0087850D01*
X0015790Y0087850D01*
X0020038Y0088284D02*
X0020038Y0089585D01*
X0029107Y0088717D02*
X0029974Y0087850D01*
X0030408Y0087850D01*
X0030842Y0088284D01*
X0030842Y0088717D01*
X0029974Y0089585D01*
X0029974Y0090019D01*
X0030408Y0090452D01*
X0030842Y0090019D01*
X0030842Y0089585D01*
X0029107Y0087850D01*
X0035000Y0087850D02*
X0035000Y0090452D01*
X0036735Y0090452D02*
X0036735Y0087850D01*
X0035867Y0088717D01*
X0035000Y0087850D01*
X0040893Y0089151D02*
X0042628Y0090452D01*
X0040893Y0089151D02*
X0042628Y0087850D01*
X0043610Y0092650D02*
X0041875Y0093951D01*
X0043610Y0095252D01*
X0045747Y0097450D02*
X0045747Y0100052D01*
X0047048Y0098751D01*
X0045313Y0098751D01*
X0047220Y0102250D02*
X0048087Y0102250D01*
X0048521Y0102684D01*
X0048521Y0103117D01*
X0048087Y0103551D01*
X0047220Y0103551D01*
X0046786Y0103117D01*
X0046786Y0102684D01*
X0047220Y0102250D01*
X0047220Y0103551D02*
X0046786Y0103985D01*
X0046786Y0104419D01*
X0047220Y0104852D01*
X0048087Y0104852D01*
X0048521Y0104419D01*
X0048521Y0103985D01*
X0048087Y0103551D01*
X0048521Y0107050D02*
X0046786Y0108785D01*
X0046786Y0109219D01*
X0047220Y0109652D01*
X0048087Y0109652D01*
X0048521Y0109219D01*
X0048521Y0107050D02*
X0046786Y0107050D01*
X0052679Y0103551D02*
X0054414Y0102250D01*
X0052679Y0103551D02*
X0054414Y0104852D01*
X0052941Y0100052D02*
X0051206Y0098751D01*
X0052941Y0097450D01*
X0055396Y0095252D02*
X0053661Y0093951D01*
X0055396Y0092650D01*
X0054414Y0090452D02*
X0052679Y0089151D01*
X0054414Y0087850D01*
X0061519Y0087850D02*
X0063253Y0090452D01*
X0063253Y0097450D02*
X0062820Y0097450D01*
X0062820Y0097884D01*
X0063253Y0097884D01*
X0063253Y0097450D01*
X0061780Y0097884D02*
X0061347Y0097450D01*
X0060479Y0097450D01*
X0060045Y0097884D01*
X0060045Y0098317D01*
X0060479Y0098751D01*
X0060913Y0098751D01*
X0060479Y0098751D02*
X0060045Y0099185D01*
X0060045Y0099619D01*
X0060479Y0100052D01*
X0061347Y0100052D01*
X0061780Y0099619D01*
X0058834Y0099185D02*
X0057966Y0097450D01*
X0057099Y0099185D01*
X0049503Y0093951D02*
X0048202Y0093951D01*
X0047768Y0093517D01*
X0047768Y0093084D01*
X0048202Y0092650D01*
X0049069Y0092650D01*
X0049503Y0093084D01*
X0049503Y0093951D01*
X0048636Y0094819D01*
X0047768Y0095252D01*
X0048521Y0090452D02*
X0048521Y0089151D01*
X0047653Y0089585D01*
X0047220Y0089585D01*
X0046786Y0089151D01*
X0046786Y0088284D01*
X0047220Y0087850D01*
X0048087Y0087850D01*
X0048521Y0088284D01*
X0048521Y0090452D02*
X0046786Y0090452D01*
X0041155Y0097450D02*
X0039420Y0098751D01*
X0041155Y0100052D01*
X0042628Y0102250D02*
X0040893Y0103551D01*
X0042628Y0104852D01*
X0042628Y0107050D02*
X0040893Y0108351D01*
X0042628Y0109652D01*
X0037717Y0112284D02*
X0037717Y0113585D01*
X0036301Y0109652D02*
X0036735Y0109219D01*
X0036735Y0107484D01*
X0036301Y0107050D01*
X0035434Y0107050D01*
X0035000Y0107484D01*
X0035000Y0109219D01*
X0035434Y0109652D01*
X0036301Y0109652D01*
X0033788Y0108785D02*
X0033788Y0107050D01*
X0033788Y0107917D02*
X0032921Y0108785D01*
X0032487Y0108785D01*
X0032315Y0100052D02*
X0031881Y0100052D01*
X0031881Y0097450D01*
X0031448Y0097450D02*
X0032315Y0097450D01*
X0030351Y0097884D02*
X0030351Y0099185D01*
X0030351Y0097884D02*
X0029917Y0097450D01*
X0028616Y0097450D01*
X0028616Y0099185D01*
X0027404Y0098751D02*
X0026970Y0099185D01*
X0026103Y0099185D01*
X0025669Y0098751D01*
X0025669Y0098317D01*
X0027404Y0098317D01*
X0027404Y0097884D02*
X0027404Y0098751D01*
X0027404Y0097884D02*
X0026970Y0097450D01*
X0026103Y0097450D01*
X0045141Y0114452D02*
X0045141Y0114886D01*
D12*
X0036451Y0135250D02*
X0036453Y0135408D01*
X0036459Y0135566D01*
X0036469Y0135724D01*
X0036483Y0135882D01*
X0036501Y0136039D01*
X0036522Y0136196D01*
X0036548Y0136352D01*
X0036578Y0136508D01*
X0036611Y0136663D01*
X0036649Y0136816D01*
X0036690Y0136969D01*
X0036735Y0137121D01*
X0036784Y0137272D01*
X0036837Y0137421D01*
X0036893Y0137569D01*
X0036953Y0137715D01*
X0037017Y0137860D01*
X0037085Y0138003D01*
X0037156Y0138145D01*
X0037230Y0138285D01*
X0037308Y0138422D01*
X0037390Y0138558D01*
X0037474Y0138692D01*
X0037563Y0138823D01*
X0037654Y0138952D01*
X0037749Y0139079D01*
X0037846Y0139204D01*
X0037947Y0139326D01*
X0038051Y0139445D01*
X0038158Y0139562D01*
X0038268Y0139676D01*
X0038381Y0139787D01*
X0038496Y0139896D01*
X0038614Y0140001D01*
X0038735Y0140103D01*
X0038858Y0140203D01*
X0038984Y0140299D01*
X0039112Y0140392D01*
X0039242Y0140482D01*
X0039375Y0140568D01*
X0039510Y0140652D01*
X0039646Y0140731D01*
X0039785Y0140808D01*
X0039926Y0140880D01*
X0040068Y0140950D01*
X0040212Y0141015D01*
X0040358Y0141077D01*
X0040505Y0141135D01*
X0040654Y0141190D01*
X0040804Y0141241D01*
X0040955Y0141288D01*
X0041107Y0141331D01*
X0041260Y0141370D01*
X0041415Y0141406D01*
X0041570Y0141437D01*
X0041726Y0141465D01*
X0041882Y0141489D01*
X0042039Y0141509D01*
X0042197Y0141525D01*
X0042354Y0141537D01*
X0042513Y0141545D01*
X0042671Y0141549D01*
X0042829Y0141549D01*
X0042987Y0141545D01*
X0043146Y0141537D01*
X0043303Y0141525D01*
X0043461Y0141509D01*
X0043618Y0141489D01*
X0043774Y0141465D01*
X0043930Y0141437D01*
X0044085Y0141406D01*
X0044240Y0141370D01*
X0044393Y0141331D01*
X0044545Y0141288D01*
X0044696Y0141241D01*
X0044846Y0141190D01*
X0044995Y0141135D01*
X0045142Y0141077D01*
X0045288Y0141015D01*
X0045432Y0140950D01*
X0045574Y0140880D01*
X0045715Y0140808D01*
X0045854Y0140731D01*
X0045990Y0140652D01*
X0046125Y0140568D01*
X0046258Y0140482D01*
X0046388Y0140392D01*
X0046516Y0140299D01*
X0046642Y0140203D01*
X0046765Y0140103D01*
X0046886Y0140001D01*
X0047004Y0139896D01*
X0047119Y0139787D01*
X0047232Y0139676D01*
X0047342Y0139562D01*
X0047449Y0139445D01*
X0047553Y0139326D01*
X0047654Y0139204D01*
X0047751Y0139079D01*
X0047846Y0138952D01*
X0047937Y0138823D01*
X0048026Y0138692D01*
X0048110Y0138558D01*
X0048192Y0138422D01*
X0048270Y0138285D01*
X0048344Y0138145D01*
X0048415Y0138003D01*
X0048483Y0137860D01*
X0048547Y0137715D01*
X0048607Y0137569D01*
X0048663Y0137421D01*
X0048716Y0137272D01*
X0048765Y0137121D01*
X0048810Y0136969D01*
X0048851Y0136816D01*
X0048889Y0136663D01*
X0048922Y0136508D01*
X0048952Y0136352D01*
X0048978Y0136196D01*
X0048999Y0136039D01*
X0049017Y0135882D01*
X0049031Y0135724D01*
X0049041Y0135566D01*
X0049047Y0135408D01*
X0049049Y0135250D01*
X0049047Y0135092D01*
X0049041Y0134934D01*
X0049031Y0134776D01*
X0049017Y0134618D01*
X0048999Y0134461D01*
X0048978Y0134304D01*
X0048952Y0134148D01*
X0048922Y0133992D01*
X0048889Y0133837D01*
X0048851Y0133684D01*
X0048810Y0133531D01*
X0048765Y0133379D01*
X0048716Y0133228D01*
X0048663Y0133079D01*
X0048607Y0132931D01*
X0048547Y0132785D01*
X0048483Y0132640D01*
X0048415Y0132497D01*
X0048344Y0132355D01*
X0048270Y0132215D01*
X0048192Y0132078D01*
X0048110Y0131942D01*
X0048026Y0131808D01*
X0047937Y0131677D01*
X0047846Y0131548D01*
X0047751Y0131421D01*
X0047654Y0131296D01*
X0047553Y0131174D01*
X0047449Y0131055D01*
X0047342Y0130938D01*
X0047232Y0130824D01*
X0047119Y0130713D01*
X0047004Y0130604D01*
X0046886Y0130499D01*
X0046765Y0130397D01*
X0046642Y0130297D01*
X0046516Y0130201D01*
X0046388Y0130108D01*
X0046258Y0130018D01*
X0046125Y0129932D01*
X0045990Y0129848D01*
X0045854Y0129769D01*
X0045715Y0129692D01*
X0045574Y0129620D01*
X0045432Y0129550D01*
X0045288Y0129485D01*
X0045142Y0129423D01*
X0044995Y0129365D01*
X0044846Y0129310D01*
X0044696Y0129259D01*
X0044545Y0129212D01*
X0044393Y0129169D01*
X0044240Y0129130D01*
X0044085Y0129094D01*
X0043930Y0129063D01*
X0043774Y0129035D01*
X0043618Y0129011D01*
X0043461Y0128991D01*
X0043303Y0128975D01*
X0043146Y0128963D01*
X0042987Y0128955D01*
X0042829Y0128951D01*
X0042671Y0128951D01*
X0042513Y0128955D01*
X0042354Y0128963D01*
X0042197Y0128975D01*
X0042039Y0128991D01*
X0041882Y0129011D01*
X0041726Y0129035D01*
X0041570Y0129063D01*
X0041415Y0129094D01*
X0041260Y0129130D01*
X0041107Y0129169D01*
X0040955Y0129212D01*
X0040804Y0129259D01*
X0040654Y0129310D01*
X0040505Y0129365D01*
X0040358Y0129423D01*
X0040212Y0129485D01*
X0040068Y0129550D01*
X0039926Y0129620D01*
X0039785Y0129692D01*
X0039646Y0129769D01*
X0039510Y0129848D01*
X0039375Y0129932D01*
X0039242Y0130018D01*
X0039112Y0130108D01*
X0038984Y0130201D01*
X0038858Y0130297D01*
X0038735Y0130397D01*
X0038614Y0130499D01*
X0038496Y0130604D01*
X0038381Y0130713D01*
X0038268Y0130824D01*
X0038158Y0130938D01*
X0038051Y0131055D01*
X0037947Y0131174D01*
X0037846Y0131296D01*
X0037749Y0131421D01*
X0037654Y0131548D01*
X0037563Y0131677D01*
X0037474Y0131808D01*
X0037390Y0131942D01*
X0037308Y0132078D01*
X0037230Y0132215D01*
X0037156Y0132355D01*
X0037085Y0132497D01*
X0037017Y0132640D01*
X0036953Y0132785D01*
X0036893Y0132931D01*
X0036837Y0133079D01*
X0036784Y0133228D01*
X0036735Y0133379D01*
X0036690Y0133531D01*
X0036649Y0133684D01*
X0036611Y0133837D01*
X0036578Y0133992D01*
X0036548Y0134148D01*
X0036522Y0134304D01*
X0036501Y0134461D01*
X0036483Y0134618D01*
X0036469Y0134776D01*
X0036459Y0134934D01*
X0036453Y0135092D01*
X0036451Y0135250D01*
X0041904Y0159148D02*
X0041906Y0159306D01*
X0041912Y0159464D01*
X0041922Y0159622D01*
X0041936Y0159780D01*
X0041954Y0159937D01*
X0041975Y0160094D01*
X0042001Y0160250D01*
X0042031Y0160406D01*
X0042064Y0160561D01*
X0042102Y0160714D01*
X0042143Y0160867D01*
X0042188Y0161019D01*
X0042237Y0161170D01*
X0042290Y0161319D01*
X0042346Y0161467D01*
X0042406Y0161613D01*
X0042470Y0161758D01*
X0042538Y0161901D01*
X0042609Y0162043D01*
X0042683Y0162183D01*
X0042761Y0162320D01*
X0042843Y0162456D01*
X0042927Y0162590D01*
X0043016Y0162721D01*
X0043107Y0162850D01*
X0043202Y0162977D01*
X0043299Y0163102D01*
X0043400Y0163224D01*
X0043504Y0163343D01*
X0043611Y0163460D01*
X0043721Y0163574D01*
X0043834Y0163685D01*
X0043949Y0163794D01*
X0044067Y0163899D01*
X0044188Y0164001D01*
X0044311Y0164101D01*
X0044437Y0164197D01*
X0044565Y0164290D01*
X0044695Y0164380D01*
X0044828Y0164466D01*
X0044963Y0164550D01*
X0045099Y0164629D01*
X0045238Y0164706D01*
X0045379Y0164778D01*
X0045521Y0164848D01*
X0045665Y0164913D01*
X0045811Y0164975D01*
X0045958Y0165033D01*
X0046107Y0165088D01*
X0046257Y0165139D01*
X0046408Y0165186D01*
X0046560Y0165229D01*
X0046713Y0165268D01*
X0046868Y0165304D01*
X0047023Y0165335D01*
X0047179Y0165363D01*
X0047335Y0165387D01*
X0047492Y0165407D01*
X0047650Y0165423D01*
X0047807Y0165435D01*
X0047966Y0165443D01*
X0048124Y0165447D01*
X0048282Y0165447D01*
X0048440Y0165443D01*
X0048599Y0165435D01*
X0048756Y0165423D01*
X0048914Y0165407D01*
X0049071Y0165387D01*
X0049227Y0165363D01*
X0049383Y0165335D01*
X0049538Y0165304D01*
X0049693Y0165268D01*
X0049846Y0165229D01*
X0049998Y0165186D01*
X0050149Y0165139D01*
X0050299Y0165088D01*
X0050448Y0165033D01*
X0050595Y0164975D01*
X0050741Y0164913D01*
X0050885Y0164848D01*
X0051027Y0164778D01*
X0051168Y0164706D01*
X0051307Y0164629D01*
X0051443Y0164550D01*
X0051578Y0164466D01*
X0051711Y0164380D01*
X0051841Y0164290D01*
X0051969Y0164197D01*
X0052095Y0164101D01*
X0052218Y0164001D01*
X0052339Y0163899D01*
X0052457Y0163794D01*
X0052572Y0163685D01*
X0052685Y0163574D01*
X0052795Y0163460D01*
X0052902Y0163343D01*
X0053006Y0163224D01*
X0053107Y0163102D01*
X0053204Y0162977D01*
X0053299Y0162850D01*
X0053390Y0162721D01*
X0053479Y0162590D01*
X0053563Y0162456D01*
X0053645Y0162320D01*
X0053723Y0162183D01*
X0053797Y0162043D01*
X0053868Y0161901D01*
X0053936Y0161758D01*
X0054000Y0161613D01*
X0054060Y0161467D01*
X0054116Y0161319D01*
X0054169Y0161170D01*
X0054218Y0161019D01*
X0054263Y0160867D01*
X0054304Y0160714D01*
X0054342Y0160561D01*
X0054375Y0160406D01*
X0054405Y0160250D01*
X0054431Y0160094D01*
X0054452Y0159937D01*
X0054470Y0159780D01*
X0054484Y0159622D01*
X0054494Y0159464D01*
X0054500Y0159306D01*
X0054502Y0159148D01*
X0054500Y0158990D01*
X0054494Y0158832D01*
X0054484Y0158674D01*
X0054470Y0158516D01*
X0054452Y0158359D01*
X0054431Y0158202D01*
X0054405Y0158046D01*
X0054375Y0157890D01*
X0054342Y0157735D01*
X0054304Y0157582D01*
X0054263Y0157429D01*
X0054218Y0157277D01*
X0054169Y0157126D01*
X0054116Y0156977D01*
X0054060Y0156829D01*
X0054000Y0156683D01*
X0053936Y0156538D01*
X0053868Y0156395D01*
X0053797Y0156253D01*
X0053723Y0156113D01*
X0053645Y0155976D01*
X0053563Y0155840D01*
X0053479Y0155706D01*
X0053390Y0155575D01*
X0053299Y0155446D01*
X0053204Y0155319D01*
X0053107Y0155194D01*
X0053006Y0155072D01*
X0052902Y0154953D01*
X0052795Y0154836D01*
X0052685Y0154722D01*
X0052572Y0154611D01*
X0052457Y0154502D01*
X0052339Y0154397D01*
X0052218Y0154295D01*
X0052095Y0154195D01*
X0051969Y0154099D01*
X0051841Y0154006D01*
X0051711Y0153916D01*
X0051578Y0153830D01*
X0051443Y0153746D01*
X0051307Y0153667D01*
X0051168Y0153590D01*
X0051027Y0153518D01*
X0050885Y0153448D01*
X0050741Y0153383D01*
X0050595Y0153321D01*
X0050448Y0153263D01*
X0050299Y0153208D01*
X0050149Y0153157D01*
X0049998Y0153110D01*
X0049846Y0153067D01*
X0049693Y0153028D01*
X0049538Y0152992D01*
X0049383Y0152961D01*
X0049227Y0152933D01*
X0049071Y0152909D01*
X0048914Y0152889D01*
X0048756Y0152873D01*
X0048599Y0152861D01*
X0048440Y0152853D01*
X0048282Y0152849D01*
X0048124Y0152849D01*
X0047966Y0152853D01*
X0047807Y0152861D01*
X0047650Y0152873D01*
X0047492Y0152889D01*
X0047335Y0152909D01*
X0047179Y0152933D01*
X0047023Y0152961D01*
X0046868Y0152992D01*
X0046713Y0153028D01*
X0046560Y0153067D01*
X0046408Y0153110D01*
X0046257Y0153157D01*
X0046107Y0153208D01*
X0045958Y0153263D01*
X0045811Y0153321D01*
X0045665Y0153383D01*
X0045521Y0153448D01*
X0045379Y0153518D01*
X0045238Y0153590D01*
X0045099Y0153667D01*
X0044963Y0153746D01*
X0044828Y0153830D01*
X0044695Y0153916D01*
X0044565Y0154006D01*
X0044437Y0154099D01*
X0044311Y0154195D01*
X0044188Y0154295D01*
X0044067Y0154397D01*
X0043949Y0154502D01*
X0043834Y0154611D01*
X0043721Y0154722D01*
X0043611Y0154836D01*
X0043504Y0154953D01*
X0043400Y0155072D01*
X0043299Y0155194D01*
X0043202Y0155319D01*
X0043107Y0155446D01*
X0043016Y0155575D01*
X0042927Y0155706D01*
X0042843Y0155840D01*
X0042761Y0155976D01*
X0042683Y0156113D01*
X0042609Y0156253D01*
X0042538Y0156395D01*
X0042470Y0156538D01*
X0042406Y0156683D01*
X0042346Y0156829D01*
X0042290Y0156977D01*
X0042237Y0157126D01*
X0042188Y0157277D01*
X0042143Y0157429D01*
X0042102Y0157582D01*
X0042064Y0157735D01*
X0042031Y0157890D01*
X0042001Y0158046D01*
X0041975Y0158202D01*
X0041954Y0158359D01*
X0041936Y0158516D01*
X0041922Y0158674D01*
X0041912Y0158832D01*
X0041906Y0158990D01*
X0041904Y0159148D01*
X0041904Y0204148D02*
X0041906Y0204306D01*
X0041912Y0204464D01*
X0041922Y0204622D01*
X0041936Y0204780D01*
X0041954Y0204937D01*
X0041975Y0205094D01*
X0042001Y0205250D01*
X0042031Y0205406D01*
X0042064Y0205561D01*
X0042102Y0205714D01*
X0042143Y0205867D01*
X0042188Y0206019D01*
X0042237Y0206170D01*
X0042290Y0206319D01*
X0042346Y0206467D01*
X0042406Y0206613D01*
X0042470Y0206758D01*
X0042538Y0206901D01*
X0042609Y0207043D01*
X0042683Y0207183D01*
X0042761Y0207320D01*
X0042843Y0207456D01*
X0042927Y0207590D01*
X0043016Y0207721D01*
X0043107Y0207850D01*
X0043202Y0207977D01*
X0043299Y0208102D01*
X0043400Y0208224D01*
X0043504Y0208343D01*
X0043611Y0208460D01*
X0043721Y0208574D01*
X0043834Y0208685D01*
X0043949Y0208794D01*
X0044067Y0208899D01*
X0044188Y0209001D01*
X0044311Y0209101D01*
X0044437Y0209197D01*
X0044565Y0209290D01*
X0044695Y0209380D01*
X0044828Y0209466D01*
X0044963Y0209550D01*
X0045099Y0209629D01*
X0045238Y0209706D01*
X0045379Y0209778D01*
X0045521Y0209848D01*
X0045665Y0209913D01*
X0045811Y0209975D01*
X0045958Y0210033D01*
X0046107Y0210088D01*
X0046257Y0210139D01*
X0046408Y0210186D01*
X0046560Y0210229D01*
X0046713Y0210268D01*
X0046868Y0210304D01*
X0047023Y0210335D01*
X0047179Y0210363D01*
X0047335Y0210387D01*
X0047492Y0210407D01*
X0047650Y0210423D01*
X0047807Y0210435D01*
X0047966Y0210443D01*
X0048124Y0210447D01*
X0048282Y0210447D01*
X0048440Y0210443D01*
X0048599Y0210435D01*
X0048756Y0210423D01*
X0048914Y0210407D01*
X0049071Y0210387D01*
X0049227Y0210363D01*
X0049383Y0210335D01*
X0049538Y0210304D01*
X0049693Y0210268D01*
X0049846Y0210229D01*
X0049998Y0210186D01*
X0050149Y0210139D01*
X0050299Y0210088D01*
X0050448Y0210033D01*
X0050595Y0209975D01*
X0050741Y0209913D01*
X0050885Y0209848D01*
X0051027Y0209778D01*
X0051168Y0209706D01*
X0051307Y0209629D01*
X0051443Y0209550D01*
X0051578Y0209466D01*
X0051711Y0209380D01*
X0051841Y0209290D01*
X0051969Y0209197D01*
X0052095Y0209101D01*
X0052218Y0209001D01*
X0052339Y0208899D01*
X0052457Y0208794D01*
X0052572Y0208685D01*
X0052685Y0208574D01*
X0052795Y0208460D01*
X0052902Y0208343D01*
X0053006Y0208224D01*
X0053107Y0208102D01*
X0053204Y0207977D01*
X0053299Y0207850D01*
X0053390Y0207721D01*
X0053479Y0207590D01*
X0053563Y0207456D01*
X0053645Y0207320D01*
X0053723Y0207183D01*
X0053797Y0207043D01*
X0053868Y0206901D01*
X0053936Y0206758D01*
X0054000Y0206613D01*
X0054060Y0206467D01*
X0054116Y0206319D01*
X0054169Y0206170D01*
X0054218Y0206019D01*
X0054263Y0205867D01*
X0054304Y0205714D01*
X0054342Y0205561D01*
X0054375Y0205406D01*
X0054405Y0205250D01*
X0054431Y0205094D01*
X0054452Y0204937D01*
X0054470Y0204780D01*
X0054484Y0204622D01*
X0054494Y0204464D01*
X0054500Y0204306D01*
X0054502Y0204148D01*
X0054500Y0203990D01*
X0054494Y0203832D01*
X0054484Y0203674D01*
X0054470Y0203516D01*
X0054452Y0203359D01*
X0054431Y0203202D01*
X0054405Y0203046D01*
X0054375Y0202890D01*
X0054342Y0202735D01*
X0054304Y0202582D01*
X0054263Y0202429D01*
X0054218Y0202277D01*
X0054169Y0202126D01*
X0054116Y0201977D01*
X0054060Y0201829D01*
X0054000Y0201683D01*
X0053936Y0201538D01*
X0053868Y0201395D01*
X0053797Y0201253D01*
X0053723Y0201113D01*
X0053645Y0200976D01*
X0053563Y0200840D01*
X0053479Y0200706D01*
X0053390Y0200575D01*
X0053299Y0200446D01*
X0053204Y0200319D01*
X0053107Y0200194D01*
X0053006Y0200072D01*
X0052902Y0199953D01*
X0052795Y0199836D01*
X0052685Y0199722D01*
X0052572Y0199611D01*
X0052457Y0199502D01*
X0052339Y0199397D01*
X0052218Y0199295D01*
X0052095Y0199195D01*
X0051969Y0199099D01*
X0051841Y0199006D01*
X0051711Y0198916D01*
X0051578Y0198830D01*
X0051443Y0198746D01*
X0051307Y0198667D01*
X0051168Y0198590D01*
X0051027Y0198518D01*
X0050885Y0198448D01*
X0050741Y0198383D01*
X0050595Y0198321D01*
X0050448Y0198263D01*
X0050299Y0198208D01*
X0050149Y0198157D01*
X0049998Y0198110D01*
X0049846Y0198067D01*
X0049693Y0198028D01*
X0049538Y0197992D01*
X0049383Y0197961D01*
X0049227Y0197933D01*
X0049071Y0197909D01*
X0048914Y0197889D01*
X0048756Y0197873D01*
X0048599Y0197861D01*
X0048440Y0197853D01*
X0048282Y0197849D01*
X0048124Y0197849D01*
X0047966Y0197853D01*
X0047807Y0197861D01*
X0047650Y0197873D01*
X0047492Y0197889D01*
X0047335Y0197909D01*
X0047179Y0197933D01*
X0047023Y0197961D01*
X0046868Y0197992D01*
X0046713Y0198028D01*
X0046560Y0198067D01*
X0046408Y0198110D01*
X0046257Y0198157D01*
X0046107Y0198208D01*
X0045958Y0198263D01*
X0045811Y0198321D01*
X0045665Y0198383D01*
X0045521Y0198448D01*
X0045379Y0198518D01*
X0045238Y0198590D01*
X0045099Y0198667D01*
X0044963Y0198746D01*
X0044828Y0198830D01*
X0044695Y0198916D01*
X0044565Y0199006D01*
X0044437Y0199099D01*
X0044311Y0199195D01*
X0044188Y0199295D01*
X0044067Y0199397D01*
X0043949Y0199502D01*
X0043834Y0199611D01*
X0043721Y0199722D01*
X0043611Y0199836D01*
X0043504Y0199953D01*
X0043400Y0200072D01*
X0043299Y0200194D01*
X0043202Y0200319D01*
X0043107Y0200446D01*
X0043016Y0200575D01*
X0042927Y0200706D01*
X0042843Y0200840D01*
X0042761Y0200976D01*
X0042683Y0201113D01*
X0042609Y0201253D01*
X0042538Y0201395D01*
X0042470Y0201538D01*
X0042406Y0201683D01*
X0042346Y0201829D01*
X0042290Y0201977D01*
X0042237Y0202126D01*
X0042188Y0202277D01*
X0042143Y0202429D01*
X0042102Y0202582D01*
X0042064Y0202735D01*
X0042031Y0202890D01*
X0042001Y0203046D01*
X0041975Y0203202D01*
X0041954Y0203359D01*
X0041936Y0203516D01*
X0041922Y0203674D01*
X0041912Y0203832D01*
X0041906Y0203990D01*
X0041904Y0204148D01*
X0041904Y0231648D02*
X0041906Y0231806D01*
X0041912Y0231964D01*
X0041922Y0232122D01*
X0041936Y0232280D01*
X0041954Y0232437D01*
X0041975Y0232594D01*
X0042001Y0232750D01*
X0042031Y0232906D01*
X0042064Y0233061D01*
X0042102Y0233214D01*
X0042143Y0233367D01*
X0042188Y0233519D01*
X0042237Y0233670D01*
X0042290Y0233819D01*
X0042346Y0233967D01*
X0042406Y0234113D01*
X0042470Y0234258D01*
X0042538Y0234401D01*
X0042609Y0234543D01*
X0042683Y0234683D01*
X0042761Y0234820D01*
X0042843Y0234956D01*
X0042927Y0235090D01*
X0043016Y0235221D01*
X0043107Y0235350D01*
X0043202Y0235477D01*
X0043299Y0235602D01*
X0043400Y0235724D01*
X0043504Y0235843D01*
X0043611Y0235960D01*
X0043721Y0236074D01*
X0043834Y0236185D01*
X0043949Y0236294D01*
X0044067Y0236399D01*
X0044188Y0236501D01*
X0044311Y0236601D01*
X0044437Y0236697D01*
X0044565Y0236790D01*
X0044695Y0236880D01*
X0044828Y0236966D01*
X0044963Y0237050D01*
X0045099Y0237129D01*
X0045238Y0237206D01*
X0045379Y0237278D01*
X0045521Y0237348D01*
X0045665Y0237413D01*
X0045811Y0237475D01*
X0045958Y0237533D01*
X0046107Y0237588D01*
X0046257Y0237639D01*
X0046408Y0237686D01*
X0046560Y0237729D01*
X0046713Y0237768D01*
X0046868Y0237804D01*
X0047023Y0237835D01*
X0047179Y0237863D01*
X0047335Y0237887D01*
X0047492Y0237907D01*
X0047650Y0237923D01*
X0047807Y0237935D01*
X0047966Y0237943D01*
X0048124Y0237947D01*
X0048282Y0237947D01*
X0048440Y0237943D01*
X0048599Y0237935D01*
X0048756Y0237923D01*
X0048914Y0237907D01*
X0049071Y0237887D01*
X0049227Y0237863D01*
X0049383Y0237835D01*
X0049538Y0237804D01*
X0049693Y0237768D01*
X0049846Y0237729D01*
X0049998Y0237686D01*
X0050149Y0237639D01*
X0050299Y0237588D01*
X0050448Y0237533D01*
X0050595Y0237475D01*
X0050741Y0237413D01*
X0050885Y0237348D01*
X0051027Y0237278D01*
X0051168Y0237206D01*
X0051307Y0237129D01*
X0051443Y0237050D01*
X0051578Y0236966D01*
X0051711Y0236880D01*
X0051841Y0236790D01*
X0051969Y0236697D01*
X0052095Y0236601D01*
X0052218Y0236501D01*
X0052339Y0236399D01*
X0052457Y0236294D01*
X0052572Y0236185D01*
X0052685Y0236074D01*
X0052795Y0235960D01*
X0052902Y0235843D01*
X0053006Y0235724D01*
X0053107Y0235602D01*
X0053204Y0235477D01*
X0053299Y0235350D01*
X0053390Y0235221D01*
X0053479Y0235090D01*
X0053563Y0234956D01*
X0053645Y0234820D01*
X0053723Y0234683D01*
X0053797Y0234543D01*
X0053868Y0234401D01*
X0053936Y0234258D01*
X0054000Y0234113D01*
X0054060Y0233967D01*
X0054116Y0233819D01*
X0054169Y0233670D01*
X0054218Y0233519D01*
X0054263Y0233367D01*
X0054304Y0233214D01*
X0054342Y0233061D01*
X0054375Y0232906D01*
X0054405Y0232750D01*
X0054431Y0232594D01*
X0054452Y0232437D01*
X0054470Y0232280D01*
X0054484Y0232122D01*
X0054494Y0231964D01*
X0054500Y0231806D01*
X0054502Y0231648D01*
X0054500Y0231490D01*
X0054494Y0231332D01*
X0054484Y0231174D01*
X0054470Y0231016D01*
X0054452Y0230859D01*
X0054431Y0230702D01*
X0054405Y0230546D01*
X0054375Y0230390D01*
X0054342Y0230235D01*
X0054304Y0230082D01*
X0054263Y0229929D01*
X0054218Y0229777D01*
X0054169Y0229626D01*
X0054116Y0229477D01*
X0054060Y0229329D01*
X0054000Y0229183D01*
X0053936Y0229038D01*
X0053868Y0228895D01*
X0053797Y0228753D01*
X0053723Y0228613D01*
X0053645Y0228476D01*
X0053563Y0228340D01*
X0053479Y0228206D01*
X0053390Y0228075D01*
X0053299Y0227946D01*
X0053204Y0227819D01*
X0053107Y0227694D01*
X0053006Y0227572D01*
X0052902Y0227453D01*
X0052795Y0227336D01*
X0052685Y0227222D01*
X0052572Y0227111D01*
X0052457Y0227002D01*
X0052339Y0226897D01*
X0052218Y0226795D01*
X0052095Y0226695D01*
X0051969Y0226599D01*
X0051841Y0226506D01*
X0051711Y0226416D01*
X0051578Y0226330D01*
X0051443Y0226246D01*
X0051307Y0226167D01*
X0051168Y0226090D01*
X0051027Y0226018D01*
X0050885Y0225948D01*
X0050741Y0225883D01*
X0050595Y0225821D01*
X0050448Y0225763D01*
X0050299Y0225708D01*
X0050149Y0225657D01*
X0049998Y0225610D01*
X0049846Y0225567D01*
X0049693Y0225528D01*
X0049538Y0225492D01*
X0049383Y0225461D01*
X0049227Y0225433D01*
X0049071Y0225409D01*
X0048914Y0225389D01*
X0048756Y0225373D01*
X0048599Y0225361D01*
X0048440Y0225353D01*
X0048282Y0225349D01*
X0048124Y0225349D01*
X0047966Y0225353D01*
X0047807Y0225361D01*
X0047650Y0225373D01*
X0047492Y0225389D01*
X0047335Y0225409D01*
X0047179Y0225433D01*
X0047023Y0225461D01*
X0046868Y0225492D01*
X0046713Y0225528D01*
X0046560Y0225567D01*
X0046408Y0225610D01*
X0046257Y0225657D01*
X0046107Y0225708D01*
X0045958Y0225763D01*
X0045811Y0225821D01*
X0045665Y0225883D01*
X0045521Y0225948D01*
X0045379Y0226018D01*
X0045238Y0226090D01*
X0045099Y0226167D01*
X0044963Y0226246D01*
X0044828Y0226330D01*
X0044695Y0226416D01*
X0044565Y0226506D01*
X0044437Y0226599D01*
X0044311Y0226695D01*
X0044188Y0226795D01*
X0044067Y0226897D01*
X0043949Y0227002D01*
X0043834Y0227111D01*
X0043721Y0227222D01*
X0043611Y0227336D01*
X0043504Y0227453D01*
X0043400Y0227572D01*
X0043299Y0227694D01*
X0043202Y0227819D01*
X0043107Y0227946D01*
X0043016Y0228075D01*
X0042927Y0228206D01*
X0042843Y0228340D01*
X0042761Y0228476D01*
X0042683Y0228613D01*
X0042609Y0228753D01*
X0042538Y0228895D01*
X0042470Y0229038D01*
X0042406Y0229183D01*
X0042346Y0229329D01*
X0042290Y0229477D01*
X0042237Y0229626D01*
X0042188Y0229777D01*
X0042143Y0229929D01*
X0042102Y0230082D01*
X0042064Y0230235D01*
X0042031Y0230390D01*
X0042001Y0230546D01*
X0041975Y0230702D01*
X0041954Y0230859D01*
X0041936Y0231016D01*
X0041922Y0231174D01*
X0041912Y0231332D01*
X0041906Y0231490D01*
X0041904Y0231648D01*
X0041904Y0276648D02*
X0041906Y0276806D01*
X0041912Y0276964D01*
X0041922Y0277122D01*
X0041936Y0277280D01*
X0041954Y0277437D01*
X0041975Y0277594D01*
X0042001Y0277750D01*
X0042031Y0277906D01*
X0042064Y0278061D01*
X0042102Y0278214D01*
X0042143Y0278367D01*
X0042188Y0278519D01*
X0042237Y0278670D01*
X0042290Y0278819D01*
X0042346Y0278967D01*
X0042406Y0279113D01*
X0042470Y0279258D01*
X0042538Y0279401D01*
X0042609Y0279543D01*
X0042683Y0279683D01*
X0042761Y0279820D01*
X0042843Y0279956D01*
X0042927Y0280090D01*
X0043016Y0280221D01*
X0043107Y0280350D01*
X0043202Y0280477D01*
X0043299Y0280602D01*
X0043400Y0280724D01*
X0043504Y0280843D01*
X0043611Y0280960D01*
X0043721Y0281074D01*
X0043834Y0281185D01*
X0043949Y0281294D01*
X0044067Y0281399D01*
X0044188Y0281501D01*
X0044311Y0281601D01*
X0044437Y0281697D01*
X0044565Y0281790D01*
X0044695Y0281880D01*
X0044828Y0281966D01*
X0044963Y0282050D01*
X0045099Y0282129D01*
X0045238Y0282206D01*
X0045379Y0282278D01*
X0045521Y0282348D01*
X0045665Y0282413D01*
X0045811Y0282475D01*
X0045958Y0282533D01*
X0046107Y0282588D01*
X0046257Y0282639D01*
X0046408Y0282686D01*
X0046560Y0282729D01*
X0046713Y0282768D01*
X0046868Y0282804D01*
X0047023Y0282835D01*
X0047179Y0282863D01*
X0047335Y0282887D01*
X0047492Y0282907D01*
X0047650Y0282923D01*
X0047807Y0282935D01*
X0047966Y0282943D01*
X0048124Y0282947D01*
X0048282Y0282947D01*
X0048440Y0282943D01*
X0048599Y0282935D01*
X0048756Y0282923D01*
X0048914Y0282907D01*
X0049071Y0282887D01*
X0049227Y0282863D01*
X0049383Y0282835D01*
X0049538Y0282804D01*
X0049693Y0282768D01*
X0049846Y0282729D01*
X0049998Y0282686D01*
X0050149Y0282639D01*
X0050299Y0282588D01*
X0050448Y0282533D01*
X0050595Y0282475D01*
X0050741Y0282413D01*
X0050885Y0282348D01*
X0051027Y0282278D01*
X0051168Y0282206D01*
X0051307Y0282129D01*
X0051443Y0282050D01*
X0051578Y0281966D01*
X0051711Y0281880D01*
X0051841Y0281790D01*
X0051969Y0281697D01*
X0052095Y0281601D01*
X0052218Y0281501D01*
X0052339Y0281399D01*
X0052457Y0281294D01*
X0052572Y0281185D01*
X0052685Y0281074D01*
X0052795Y0280960D01*
X0052902Y0280843D01*
X0053006Y0280724D01*
X0053107Y0280602D01*
X0053204Y0280477D01*
X0053299Y0280350D01*
X0053390Y0280221D01*
X0053479Y0280090D01*
X0053563Y0279956D01*
X0053645Y0279820D01*
X0053723Y0279683D01*
X0053797Y0279543D01*
X0053868Y0279401D01*
X0053936Y0279258D01*
X0054000Y0279113D01*
X0054060Y0278967D01*
X0054116Y0278819D01*
X0054169Y0278670D01*
X0054218Y0278519D01*
X0054263Y0278367D01*
X0054304Y0278214D01*
X0054342Y0278061D01*
X0054375Y0277906D01*
X0054405Y0277750D01*
X0054431Y0277594D01*
X0054452Y0277437D01*
X0054470Y0277280D01*
X0054484Y0277122D01*
X0054494Y0276964D01*
X0054500Y0276806D01*
X0054502Y0276648D01*
X0054500Y0276490D01*
X0054494Y0276332D01*
X0054484Y0276174D01*
X0054470Y0276016D01*
X0054452Y0275859D01*
X0054431Y0275702D01*
X0054405Y0275546D01*
X0054375Y0275390D01*
X0054342Y0275235D01*
X0054304Y0275082D01*
X0054263Y0274929D01*
X0054218Y0274777D01*
X0054169Y0274626D01*
X0054116Y0274477D01*
X0054060Y0274329D01*
X0054000Y0274183D01*
X0053936Y0274038D01*
X0053868Y0273895D01*
X0053797Y0273753D01*
X0053723Y0273613D01*
X0053645Y0273476D01*
X0053563Y0273340D01*
X0053479Y0273206D01*
X0053390Y0273075D01*
X0053299Y0272946D01*
X0053204Y0272819D01*
X0053107Y0272694D01*
X0053006Y0272572D01*
X0052902Y0272453D01*
X0052795Y0272336D01*
X0052685Y0272222D01*
X0052572Y0272111D01*
X0052457Y0272002D01*
X0052339Y0271897D01*
X0052218Y0271795D01*
X0052095Y0271695D01*
X0051969Y0271599D01*
X0051841Y0271506D01*
X0051711Y0271416D01*
X0051578Y0271330D01*
X0051443Y0271246D01*
X0051307Y0271167D01*
X0051168Y0271090D01*
X0051027Y0271018D01*
X0050885Y0270948D01*
X0050741Y0270883D01*
X0050595Y0270821D01*
X0050448Y0270763D01*
X0050299Y0270708D01*
X0050149Y0270657D01*
X0049998Y0270610D01*
X0049846Y0270567D01*
X0049693Y0270528D01*
X0049538Y0270492D01*
X0049383Y0270461D01*
X0049227Y0270433D01*
X0049071Y0270409D01*
X0048914Y0270389D01*
X0048756Y0270373D01*
X0048599Y0270361D01*
X0048440Y0270353D01*
X0048282Y0270349D01*
X0048124Y0270349D01*
X0047966Y0270353D01*
X0047807Y0270361D01*
X0047650Y0270373D01*
X0047492Y0270389D01*
X0047335Y0270409D01*
X0047179Y0270433D01*
X0047023Y0270461D01*
X0046868Y0270492D01*
X0046713Y0270528D01*
X0046560Y0270567D01*
X0046408Y0270610D01*
X0046257Y0270657D01*
X0046107Y0270708D01*
X0045958Y0270763D01*
X0045811Y0270821D01*
X0045665Y0270883D01*
X0045521Y0270948D01*
X0045379Y0271018D01*
X0045238Y0271090D01*
X0045099Y0271167D01*
X0044963Y0271246D01*
X0044828Y0271330D01*
X0044695Y0271416D01*
X0044565Y0271506D01*
X0044437Y0271599D01*
X0044311Y0271695D01*
X0044188Y0271795D01*
X0044067Y0271897D01*
X0043949Y0272002D01*
X0043834Y0272111D01*
X0043721Y0272222D01*
X0043611Y0272336D01*
X0043504Y0272453D01*
X0043400Y0272572D01*
X0043299Y0272694D01*
X0043202Y0272819D01*
X0043107Y0272946D01*
X0043016Y0273075D01*
X0042927Y0273206D01*
X0042843Y0273340D01*
X0042761Y0273476D01*
X0042683Y0273613D01*
X0042609Y0273753D01*
X0042538Y0273895D01*
X0042470Y0274038D01*
X0042406Y0274183D01*
X0042346Y0274329D01*
X0042290Y0274477D01*
X0042237Y0274626D01*
X0042188Y0274777D01*
X0042143Y0274929D01*
X0042102Y0275082D01*
X0042064Y0275235D01*
X0042031Y0275390D01*
X0042001Y0275546D01*
X0041975Y0275702D01*
X0041954Y0275859D01*
X0041936Y0276016D01*
X0041922Y0276174D01*
X0041912Y0276332D01*
X0041906Y0276490D01*
X0041904Y0276648D01*
X0041904Y0304148D02*
X0041906Y0304306D01*
X0041912Y0304464D01*
X0041922Y0304622D01*
X0041936Y0304780D01*
X0041954Y0304937D01*
X0041975Y0305094D01*
X0042001Y0305250D01*
X0042031Y0305406D01*
X0042064Y0305561D01*
X0042102Y0305714D01*
X0042143Y0305867D01*
X0042188Y0306019D01*
X0042237Y0306170D01*
X0042290Y0306319D01*
X0042346Y0306467D01*
X0042406Y0306613D01*
X0042470Y0306758D01*
X0042538Y0306901D01*
X0042609Y0307043D01*
X0042683Y0307183D01*
X0042761Y0307320D01*
X0042843Y0307456D01*
X0042927Y0307590D01*
X0043016Y0307721D01*
X0043107Y0307850D01*
X0043202Y0307977D01*
X0043299Y0308102D01*
X0043400Y0308224D01*
X0043504Y0308343D01*
X0043611Y0308460D01*
X0043721Y0308574D01*
X0043834Y0308685D01*
X0043949Y0308794D01*
X0044067Y0308899D01*
X0044188Y0309001D01*
X0044311Y0309101D01*
X0044437Y0309197D01*
X0044565Y0309290D01*
X0044695Y0309380D01*
X0044828Y0309466D01*
X0044963Y0309550D01*
X0045099Y0309629D01*
X0045238Y0309706D01*
X0045379Y0309778D01*
X0045521Y0309848D01*
X0045665Y0309913D01*
X0045811Y0309975D01*
X0045958Y0310033D01*
X0046107Y0310088D01*
X0046257Y0310139D01*
X0046408Y0310186D01*
X0046560Y0310229D01*
X0046713Y0310268D01*
X0046868Y0310304D01*
X0047023Y0310335D01*
X0047179Y0310363D01*
X0047335Y0310387D01*
X0047492Y0310407D01*
X0047650Y0310423D01*
X0047807Y0310435D01*
X0047966Y0310443D01*
X0048124Y0310447D01*
X0048282Y0310447D01*
X0048440Y0310443D01*
X0048599Y0310435D01*
X0048756Y0310423D01*
X0048914Y0310407D01*
X0049071Y0310387D01*
X0049227Y0310363D01*
X0049383Y0310335D01*
X0049538Y0310304D01*
X0049693Y0310268D01*
X0049846Y0310229D01*
X0049998Y0310186D01*
X0050149Y0310139D01*
X0050299Y0310088D01*
X0050448Y0310033D01*
X0050595Y0309975D01*
X0050741Y0309913D01*
X0050885Y0309848D01*
X0051027Y0309778D01*
X0051168Y0309706D01*
X0051307Y0309629D01*
X0051443Y0309550D01*
X0051578Y0309466D01*
X0051711Y0309380D01*
X0051841Y0309290D01*
X0051969Y0309197D01*
X0052095Y0309101D01*
X0052218Y0309001D01*
X0052339Y0308899D01*
X0052457Y0308794D01*
X0052572Y0308685D01*
X0052685Y0308574D01*
X0052795Y0308460D01*
X0052902Y0308343D01*
X0053006Y0308224D01*
X0053107Y0308102D01*
X0053204Y0307977D01*
X0053299Y0307850D01*
X0053390Y0307721D01*
X0053479Y0307590D01*
X0053563Y0307456D01*
X0053645Y0307320D01*
X0053723Y0307183D01*
X0053797Y0307043D01*
X0053868Y0306901D01*
X0053936Y0306758D01*
X0054000Y0306613D01*
X0054060Y0306467D01*
X0054116Y0306319D01*
X0054169Y0306170D01*
X0054218Y0306019D01*
X0054263Y0305867D01*
X0054304Y0305714D01*
X0054342Y0305561D01*
X0054375Y0305406D01*
X0054405Y0305250D01*
X0054431Y0305094D01*
X0054452Y0304937D01*
X0054470Y0304780D01*
X0054484Y0304622D01*
X0054494Y0304464D01*
X0054500Y0304306D01*
X0054502Y0304148D01*
X0054500Y0303990D01*
X0054494Y0303832D01*
X0054484Y0303674D01*
X0054470Y0303516D01*
X0054452Y0303359D01*
X0054431Y0303202D01*
X0054405Y0303046D01*
X0054375Y0302890D01*
X0054342Y0302735D01*
X0054304Y0302582D01*
X0054263Y0302429D01*
X0054218Y0302277D01*
X0054169Y0302126D01*
X0054116Y0301977D01*
X0054060Y0301829D01*
X0054000Y0301683D01*
X0053936Y0301538D01*
X0053868Y0301395D01*
X0053797Y0301253D01*
X0053723Y0301113D01*
X0053645Y0300976D01*
X0053563Y0300840D01*
X0053479Y0300706D01*
X0053390Y0300575D01*
X0053299Y0300446D01*
X0053204Y0300319D01*
X0053107Y0300194D01*
X0053006Y0300072D01*
X0052902Y0299953D01*
X0052795Y0299836D01*
X0052685Y0299722D01*
X0052572Y0299611D01*
X0052457Y0299502D01*
X0052339Y0299397D01*
X0052218Y0299295D01*
X0052095Y0299195D01*
X0051969Y0299099D01*
X0051841Y0299006D01*
X0051711Y0298916D01*
X0051578Y0298830D01*
X0051443Y0298746D01*
X0051307Y0298667D01*
X0051168Y0298590D01*
X0051027Y0298518D01*
X0050885Y0298448D01*
X0050741Y0298383D01*
X0050595Y0298321D01*
X0050448Y0298263D01*
X0050299Y0298208D01*
X0050149Y0298157D01*
X0049998Y0298110D01*
X0049846Y0298067D01*
X0049693Y0298028D01*
X0049538Y0297992D01*
X0049383Y0297961D01*
X0049227Y0297933D01*
X0049071Y0297909D01*
X0048914Y0297889D01*
X0048756Y0297873D01*
X0048599Y0297861D01*
X0048440Y0297853D01*
X0048282Y0297849D01*
X0048124Y0297849D01*
X0047966Y0297853D01*
X0047807Y0297861D01*
X0047650Y0297873D01*
X0047492Y0297889D01*
X0047335Y0297909D01*
X0047179Y0297933D01*
X0047023Y0297961D01*
X0046868Y0297992D01*
X0046713Y0298028D01*
X0046560Y0298067D01*
X0046408Y0298110D01*
X0046257Y0298157D01*
X0046107Y0298208D01*
X0045958Y0298263D01*
X0045811Y0298321D01*
X0045665Y0298383D01*
X0045521Y0298448D01*
X0045379Y0298518D01*
X0045238Y0298590D01*
X0045099Y0298667D01*
X0044963Y0298746D01*
X0044828Y0298830D01*
X0044695Y0298916D01*
X0044565Y0299006D01*
X0044437Y0299099D01*
X0044311Y0299195D01*
X0044188Y0299295D01*
X0044067Y0299397D01*
X0043949Y0299502D01*
X0043834Y0299611D01*
X0043721Y0299722D01*
X0043611Y0299836D01*
X0043504Y0299953D01*
X0043400Y0300072D01*
X0043299Y0300194D01*
X0043202Y0300319D01*
X0043107Y0300446D01*
X0043016Y0300575D01*
X0042927Y0300706D01*
X0042843Y0300840D01*
X0042761Y0300976D01*
X0042683Y0301113D01*
X0042609Y0301253D01*
X0042538Y0301395D01*
X0042470Y0301538D01*
X0042406Y0301683D01*
X0042346Y0301829D01*
X0042290Y0301977D01*
X0042237Y0302126D01*
X0042188Y0302277D01*
X0042143Y0302429D01*
X0042102Y0302582D01*
X0042064Y0302735D01*
X0042031Y0302890D01*
X0042001Y0303046D01*
X0041975Y0303202D01*
X0041954Y0303359D01*
X0041936Y0303516D01*
X0041922Y0303674D01*
X0041912Y0303832D01*
X0041906Y0303990D01*
X0041904Y0304148D01*
X0041904Y0349148D02*
X0041906Y0349306D01*
X0041912Y0349464D01*
X0041922Y0349622D01*
X0041936Y0349780D01*
X0041954Y0349937D01*
X0041975Y0350094D01*
X0042001Y0350250D01*
X0042031Y0350406D01*
X0042064Y0350561D01*
X0042102Y0350714D01*
X0042143Y0350867D01*
X0042188Y0351019D01*
X0042237Y0351170D01*
X0042290Y0351319D01*
X0042346Y0351467D01*
X0042406Y0351613D01*
X0042470Y0351758D01*
X0042538Y0351901D01*
X0042609Y0352043D01*
X0042683Y0352183D01*
X0042761Y0352320D01*
X0042843Y0352456D01*
X0042927Y0352590D01*
X0043016Y0352721D01*
X0043107Y0352850D01*
X0043202Y0352977D01*
X0043299Y0353102D01*
X0043400Y0353224D01*
X0043504Y0353343D01*
X0043611Y0353460D01*
X0043721Y0353574D01*
X0043834Y0353685D01*
X0043949Y0353794D01*
X0044067Y0353899D01*
X0044188Y0354001D01*
X0044311Y0354101D01*
X0044437Y0354197D01*
X0044565Y0354290D01*
X0044695Y0354380D01*
X0044828Y0354466D01*
X0044963Y0354550D01*
X0045099Y0354629D01*
X0045238Y0354706D01*
X0045379Y0354778D01*
X0045521Y0354848D01*
X0045665Y0354913D01*
X0045811Y0354975D01*
X0045958Y0355033D01*
X0046107Y0355088D01*
X0046257Y0355139D01*
X0046408Y0355186D01*
X0046560Y0355229D01*
X0046713Y0355268D01*
X0046868Y0355304D01*
X0047023Y0355335D01*
X0047179Y0355363D01*
X0047335Y0355387D01*
X0047492Y0355407D01*
X0047650Y0355423D01*
X0047807Y0355435D01*
X0047966Y0355443D01*
X0048124Y0355447D01*
X0048282Y0355447D01*
X0048440Y0355443D01*
X0048599Y0355435D01*
X0048756Y0355423D01*
X0048914Y0355407D01*
X0049071Y0355387D01*
X0049227Y0355363D01*
X0049383Y0355335D01*
X0049538Y0355304D01*
X0049693Y0355268D01*
X0049846Y0355229D01*
X0049998Y0355186D01*
X0050149Y0355139D01*
X0050299Y0355088D01*
X0050448Y0355033D01*
X0050595Y0354975D01*
X0050741Y0354913D01*
X0050885Y0354848D01*
X0051027Y0354778D01*
X0051168Y0354706D01*
X0051307Y0354629D01*
X0051443Y0354550D01*
X0051578Y0354466D01*
X0051711Y0354380D01*
X0051841Y0354290D01*
X0051969Y0354197D01*
X0052095Y0354101D01*
X0052218Y0354001D01*
X0052339Y0353899D01*
X0052457Y0353794D01*
X0052572Y0353685D01*
X0052685Y0353574D01*
X0052795Y0353460D01*
X0052902Y0353343D01*
X0053006Y0353224D01*
X0053107Y0353102D01*
X0053204Y0352977D01*
X0053299Y0352850D01*
X0053390Y0352721D01*
X0053479Y0352590D01*
X0053563Y0352456D01*
X0053645Y0352320D01*
X0053723Y0352183D01*
X0053797Y0352043D01*
X0053868Y0351901D01*
X0053936Y0351758D01*
X0054000Y0351613D01*
X0054060Y0351467D01*
X0054116Y0351319D01*
X0054169Y0351170D01*
X0054218Y0351019D01*
X0054263Y0350867D01*
X0054304Y0350714D01*
X0054342Y0350561D01*
X0054375Y0350406D01*
X0054405Y0350250D01*
X0054431Y0350094D01*
X0054452Y0349937D01*
X0054470Y0349780D01*
X0054484Y0349622D01*
X0054494Y0349464D01*
X0054500Y0349306D01*
X0054502Y0349148D01*
X0054500Y0348990D01*
X0054494Y0348832D01*
X0054484Y0348674D01*
X0054470Y0348516D01*
X0054452Y0348359D01*
X0054431Y0348202D01*
X0054405Y0348046D01*
X0054375Y0347890D01*
X0054342Y0347735D01*
X0054304Y0347582D01*
X0054263Y0347429D01*
X0054218Y0347277D01*
X0054169Y0347126D01*
X0054116Y0346977D01*
X0054060Y0346829D01*
X0054000Y0346683D01*
X0053936Y0346538D01*
X0053868Y0346395D01*
X0053797Y0346253D01*
X0053723Y0346113D01*
X0053645Y0345976D01*
X0053563Y0345840D01*
X0053479Y0345706D01*
X0053390Y0345575D01*
X0053299Y0345446D01*
X0053204Y0345319D01*
X0053107Y0345194D01*
X0053006Y0345072D01*
X0052902Y0344953D01*
X0052795Y0344836D01*
X0052685Y0344722D01*
X0052572Y0344611D01*
X0052457Y0344502D01*
X0052339Y0344397D01*
X0052218Y0344295D01*
X0052095Y0344195D01*
X0051969Y0344099D01*
X0051841Y0344006D01*
X0051711Y0343916D01*
X0051578Y0343830D01*
X0051443Y0343746D01*
X0051307Y0343667D01*
X0051168Y0343590D01*
X0051027Y0343518D01*
X0050885Y0343448D01*
X0050741Y0343383D01*
X0050595Y0343321D01*
X0050448Y0343263D01*
X0050299Y0343208D01*
X0050149Y0343157D01*
X0049998Y0343110D01*
X0049846Y0343067D01*
X0049693Y0343028D01*
X0049538Y0342992D01*
X0049383Y0342961D01*
X0049227Y0342933D01*
X0049071Y0342909D01*
X0048914Y0342889D01*
X0048756Y0342873D01*
X0048599Y0342861D01*
X0048440Y0342853D01*
X0048282Y0342849D01*
X0048124Y0342849D01*
X0047966Y0342853D01*
X0047807Y0342861D01*
X0047650Y0342873D01*
X0047492Y0342889D01*
X0047335Y0342909D01*
X0047179Y0342933D01*
X0047023Y0342961D01*
X0046868Y0342992D01*
X0046713Y0343028D01*
X0046560Y0343067D01*
X0046408Y0343110D01*
X0046257Y0343157D01*
X0046107Y0343208D01*
X0045958Y0343263D01*
X0045811Y0343321D01*
X0045665Y0343383D01*
X0045521Y0343448D01*
X0045379Y0343518D01*
X0045238Y0343590D01*
X0045099Y0343667D01*
X0044963Y0343746D01*
X0044828Y0343830D01*
X0044695Y0343916D01*
X0044565Y0344006D01*
X0044437Y0344099D01*
X0044311Y0344195D01*
X0044188Y0344295D01*
X0044067Y0344397D01*
X0043949Y0344502D01*
X0043834Y0344611D01*
X0043721Y0344722D01*
X0043611Y0344836D01*
X0043504Y0344953D01*
X0043400Y0345072D01*
X0043299Y0345194D01*
X0043202Y0345319D01*
X0043107Y0345446D01*
X0043016Y0345575D01*
X0042927Y0345706D01*
X0042843Y0345840D01*
X0042761Y0345976D01*
X0042683Y0346113D01*
X0042609Y0346253D01*
X0042538Y0346395D01*
X0042470Y0346538D01*
X0042406Y0346683D01*
X0042346Y0346829D01*
X0042290Y0346977D01*
X0042237Y0347126D01*
X0042188Y0347277D01*
X0042143Y0347429D01*
X0042102Y0347582D01*
X0042064Y0347735D01*
X0042031Y0347890D01*
X0042001Y0348046D01*
X0041975Y0348202D01*
X0041954Y0348359D01*
X0041936Y0348516D01*
X0041922Y0348674D01*
X0041912Y0348832D01*
X0041906Y0348990D01*
X0041904Y0349148D01*
X0036451Y0372750D02*
X0036453Y0372908D01*
X0036459Y0373066D01*
X0036469Y0373224D01*
X0036483Y0373382D01*
X0036501Y0373539D01*
X0036522Y0373696D01*
X0036548Y0373852D01*
X0036578Y0374008D01*
X0036611Y0374163D01*
X0036649Y0374316D01*
X0036690Y0374469D01*
X0036735Y0374621D01*
X0036784Y0374772D01*
X0036837Y0374921D01*
X0036893Y0375069D01*
X0036953Y0375215D01*
X0037017Y0375360D01*
X0037085Y0375503D01*
X0037156Y0375645D01*
X0037230Y0375785D01*
X0037308Y0375922D01*
X0037390Y0376058D01*
X0037474Y0376192D01*
X0037563Y0376323D01*
X0037654Y0376452D01*
X0037749Y0376579D01*
X0037846Y0376704D01*
X0037947Y0376826D01*
X0038051Y0376945D01*
X0038158Y0377062D01*
X0038268Y0377176D01*
X0038381Y0377287D01*
X0038496Y0377396D01*
X0038614Y0377501D01*
X0038735Y0377603D01*
X0038858Y0377703D01*
X0038984Y0377799D01*
X0039112Y0377892D01*
X0039242Y0377982D01*
X0039375Y0378068D01*
X0039510Y0378152D01*
X0039646Y0378231D01*
X0039785Y0378308D01*
X0039926Y0378380D01*
X0040068Y0378450D01*
X0040212Y0378515D01*
X0040358Y0378577D01*
X0040505Y0378635D01*
X0040654Y0378690D01*
X0040804Y0378741D01*
X0040955Y0378788D01*
X0041107Y0378831D01*
X0041260Y0378870D01*
X0041415Y0378906D01*
X0041570Y0378937D01*
X0041726Y0378965D01*
X0041882Y0378989D01*
X0042039Y0379009D01*
X0042197Y0379025D01*
X0042354Y0379037D01*
X0042513Y0379045D01*
X0042671Y0379049D01*
X0042829Y0379049D01*
X0042987Y0379045D01*
X0043146Y0379037D01*
X0043303Y0379025D01*
X0043461Y0379009D01*
X0043618Y0378989D01*
X0043774Y0378965D01*
X0043930Y0378937D01*
X0044085Y0378906D01*
X0044240Y0378870D01*
X0044393Y0378831D01*
X0044545Y0378788D01*
X0044696Y0378741D01*
X0044846Y0378690D01*
X0044995Y0378635D01*
X0045142Y0378577D01*
X0045288Y0378515D01*
X0045432Y0378450D01*
X0045574Y0378380D01*
X0045715Y0378308D01*
X0045854Y0378231D01*
X0045990Y0378152D01*
X0046125Y0378068D01*
X0046258Y0377982D01*
X0046388Y0377892D01*
X0046516Y0377799D01*
X0046642Y0377703D01*
X0046765Y0377603D01*
X0046886Y0377501D01*
X0047004Y0377396D01*
X0047119Y0377287D01*
X0047232Y0377176D01*
X0047342Y0377062D01*
X0047449Y0376945D01*
X0047553Y0376826D01*
X0047654Y0376704D01*
X0047751Y0376579D01*
X0047846Y0376452D01*
X0047937Y0376323D01*
X0048026Y0376192D01*
X0048110Y0376058D01*
X0048192Y0375922D01*
X0048270Y0375785D01*
X0048344Y0375645D01*
X0048415Y0375503D01*
X0048483Y0375360D01*
X0048547Y0375215D01*
X0048607Y0375069D01*
X0048663Y0374921D01*
X0048716Y0374772D01*
X0048765Y0374621D01*
X0048810Y0374469D01*
X0048851Y0374316D01*
X0048889Y0374163D01*
X0048922Y0374008D01*
X0048952Y0373852D01*
X0048978Y0373696D01*
X0048999Y0373539D01*
X0049017Y0373382D01*
X0049031Y0373224D01*
X0049041Y0373066D01*
X0049047Y0372908D01*
X0049049Y0372750D01*
X0049047Y0372592D01*
X0049041Y0372434D01*
X0049031Y0372276D01*
X0049017Y0372118D01*
X0048999Y0371961D01*
X0048978Y0371804D01*
X0048952Y0371648D01*
X0048922Y0371492D01*
X0048889Y0371337D01*
X0048851Y0371184D01*
X0048810Y0371031D01*
X0048765Y0370879D01*
X0048716Y0370728D01*
X0048663Y0370579D01*
X0048607Y0370431D01*
X0048547Y0370285D01*
X0048483Y0370140D01*
X0048415Y0369997D01*
X0048344Y0369855D01*
X0048270Y0369715D01*
X0048192Y0369578D01*
X0048110Y0369442D01*
X0048026Y0369308D01*
X0047937Y0369177D01*
X0047846Y0369048D01*
X0047751Y0368921D01*
X0047654Y0368796D01*
X0047553Y0368674D01*
X0047449Y0368555D01*
X0047342Y0368438D01*
X0047232Y0368324D01*
X0047119Y0368213D01*
X0047004Y0368104D01*
X0046886Y0367999D01*
X0046765Y0367897D01*
X0046642Y0367797D01*
X0046516Y0367701D01*
X0046388Y0367608D01*
X0046258Y0367518D01*
X0046125Y0367432D01*
X0045990Y0367348D01*
X0045854Y0367269D01*
X0045715Y0367192D01*
X0045574Y0367120D01*
X0045432Y0367050D01*
X0045288Y0366985D01*
X0045142Y0366923D01*
X0044995Y0366865D01*
X0044846Y0366810D01*
X0044696Y0366759D01*
X0044545Y0366712D01*
X0044393Y0366669D01*
X0044240Y0366630D01*
X0044085Y0366594D01*
X0043930Y0366563D01*
X0043774Y0366535D01*
X0043618Y0366511D01*
X0043461Y0366491D01*
X0043303Y0366475D01*
X0043146Y0366463D01*
X0042987Y0366455D01*
X0042829Y0366451D01*
X0042671Y0366451D01*
X0042513Y0366455D01*
X0042354Y0366463D01*
X0042197Y0366475D01*
X0042039Y0366491D01*
X0041882Y0366511D01*
X0041726Y0366535D01*
X0041570Y0366563D01*
X0041415Y0366594D01*
X0041260Y0366630D01*
X0041107Y0366669D01*
X0040955Y0366712D01*
X0040804Y0366759D01*
X0040654Y0366810D01*
X0040505Y0366865D01*
X0040358Y0366923D01*
X0040212Y0366985D01*
X0040068Y0367050D01*
X0039926Y0367120D01*
X0039785Y0367192D01*
X0039646Y0367269D01*
X0039510Y0367348D01*
X0039375Y0367432D01*
X0039242Y0367518D01*
X0039112Y0367608D01*
X0038984Y0367701D01*
X0038858Y0367797D01*
X0038735Y0367897D01*
X0038614Y0367999D01*
X0038496Y0368104D01*
X0038381Y0368213D01*
X0038268Y0368324D01*
X0038158Y0368438D01*
X0038051Y0368555D01*
X0037947Y0368674D01*
X0037846Y0368796D01*
X0037749Y0368921D01*
X0037654Y0369048D01*
X0037563Y0369177D01*
X0037474Y0369308D01*
X0037390Y0369442D01*
X0037308Y0369578D01*
X0037230Y0369715D01*
X0037156Y0369855D01*
X0037085Y0369997D01*
X0037017Y0370140D01*
X0036953Y0370285D01*
X0036893Y0370431D01*
X0036837Y0370579D01*
X0036784Y0370728D01*
X0036735Y0370879D01*
X0036690Y0371031D01*
X0036649Y0371184D01*
X0036611Y0371337D01*
X0036578Y0371492D01*
X0036548Y0371648D01*
X0036522Y0371804D01*
X0036501Y0371961D01*
X0036483Y0372118D01*
X0036469Y0372276D01*
X0036459Y0372434D01*
X0036453Y0372592D01*
X0036451Y0372750D01*
X0123951Y0372750D02*
X0123953Y0372908D01*
X0123959Y0373066D01*
X0123969Y0373224D01*
X0123983Y0373382D01*
X0124001Y0373539D01*
X0124022Y0373696D01*
X0124048Y0373852D01*
X0124078Y0374008D01*
X0124111Y0374163D01*
X0124149Y0374316D01*
X0124190Y0374469D01*
X0124235Y0374621D01*
X0124284Y0374772D01*
X0124337Y0374921D01*
X0124393Y0375069D01*
X0124453Y0375215D01*
X0124517Y0375360D01*
X0124585Y0375503D01*
X0124656Y0375645D01*
X0124730Y0375785D01*
X0124808Y0375922D01*
X0124890Y0376058D01*
X0124974Y0376192D01*
X0125063Y0376323D01*
X0125154Y0376452D01*
X0125249Y0376579D01*
X0125346Y0376704D01*
X0125447Y0376826D01*
X0125551Y0376945D01*
X0125658Y0377062D01*
X0125768Y0377176D01*
X0125881Y0377287D01*
X0125996Y0377396D01*
X0126114Y0377501D01*
X0126235Y0377603D01*
X0126358Y0377703D01*
X0126484Y0377799D01*
X0126612Y0377892D01*
X0126742Y0377982D01*
X0126875Y0378068D01*
X0127010Y0378152D01*
X0127146Y0378231D01*
X0127285Y0378308D01*
X0127426Y0378380D01*
X0127568Y0378450D01*
X0127712Y0378515D01*
X0127858Y0378577D01*
X0128005Y0378635D01*
X0128154Y0378690D01*
X0128304Y0378741D01*
X0128455Y0378788D01*
X0128607Y0378831D01*
X0128760Y0378870D01*
X0128915Y0378906D01*
X0129070Y0378937D01*
X0129226Y0378965D01*
X0129382Y0378989D01*
X0129539Y0379009D01*
X0129697Y0379025D01*
X0129854Y0379037D01*
X0130013Y0379045D01*
X0130171Y0379049D01*
X0130329Y0379049D01*
X0130487Y0379045D01*
X0130646Y0379037D01*
X0130803Y0379025D01*
X0130961Y0379009D01*
X0131118Y0378989D01*
X0131274Y0378965D01*
X0131430Y0378937D01*
X0131585Y0378906D01*
X0131740Y0378870D01*
X0131893Y0378831D01*
X0132045Y0378788D01*
X0132196Y0378741D01*
X0132346Y0378690D01*
X0132495Y0378635D01*
X0132642Y0378577D01*
X0132788Y0378515D01*
X0132932Y0378450D01*
X0133074Y0378380D01*
X0133215Y0378308D01*
X0133354Y0378231D01*
X0133490Y0378152D01*
X0133625Y0378068D01*
X0133758Y0377982D01*
X0133888Y0377892D01*
X0134016Y0377799D01*
X0134142Y0377703D01*
X0134265Y0377603D01*
X0134386Y0377501D01*
X0134504Y0377396D01*
X0134619Y0377287D01*
X0134732Y0377176D01*
X0134842Y0377062D01*
X0134949Y0376945D01*
X0135053Y0376826D01*
X0135154Y0376704D01*
X0135251Y0376579D01*
X0135346Y0376452D01*
X0135437Y0376323D01*
X0135526Y0376192D01*
X0135610Y0376058D01*
X0135692Y0375922D01*
X0135770Y0375785D01*
X0135844Y0375645D01*
X0135915Y0375503D01*
X0135983Y0375360D01*
X0136047Y0375215D01*
X0136107Y0375069D01*
X0136163Y0374921D01*
X0136216Y0374772D01*
X0136265Y0374621D01*
X0136310Y0374469D01*
X0136351Y0374316D01*
X0136389Y0374163D01*
X0136422Y0374008D01*
X0136452Y0373852D01*
X0136478Y0373696D01*
X0136499Y0373539D01*
X0136517Y0373382D01*
X0136531Y0373224D01*
X0136541Y0373066D01*
X0136547Y0372908D01*
X0136549Y0372750D01*
X0136547Y0372592D01*
X0136541Y0372434D01*
X0136531Y0372276D01*
X0136517Y0372118D01*
X0136499Y0371961D01*
X0136478Y0371804D01*
X0136452Y0371648D01*
X0136422Y0371492D01*
X0136389Y0371337D01*
X0136351Y0371184D01*
X0136310Y0371031D01*
X0136265Y0370879D01*
X0136216Y0370728D01*
X0136163Y0370579D01*
X0136107Y0370431D01*
X0136047Y0370285D01*
X0135983Y0370140D01*
X0135915Y0369997D01*
X0135844Y0369855D01*
X0135770Y0369715D01*
X0135692Y0369578D01*
X0135610Y0369442D01*
X0135526Y0369308D01*
X0135437Y0369177D01*
X0135346Y0369048D01*
X0135251Y0368921D01*
X0135154Y0368796D01*
X0135053Y0368674D01*
X0134949Y0368555D01*
X0134842Y0368438D01*
X0134732Y0368324D01*
X0134619Y0368213D01*
X0134504Y0368104D01*
X0134386Y0367999D01*
X0134265Y0367897D01*
X0134142Y0367797D01*
X0134016Y0367701D01*
X0133888Y0367608D01*
X0133758Y0367518D01*
X0133625Y0367432D01*
X0133490Y0367348D01*
X0133354Y0367269D01*
X0133215Y0367192D01*
X0133074Y0367120D01*
X0132932Y0367050D01*
X0132788Y0366985D01*
X0132642Y0366923D01*
X0132495Y0366865D01*
X0132346Y0366810D01*
X0132196Y0366759D01*
X0132045Y0366712D01*
X0131893Y0366669D01*
X0131740Y0366630D01*
X0131585Y0366594D01*
X0131430Y0366563D01*
X0131274Y0366535D01*
X0131118Y0366511D01*
X0130961Y0366491D01*
X0130803Y0366475D01*
X0130646Y0366463D01*
X0130487Y0366455D01*
X0130329Y0366451D01*
X0130171Y0366451D01*
X0130013Y0366455D01*
X0129854Y0366463D01*
X0129697Y0366475D01*
X0129539Y0366491D01*
X0129382Y0366511D01*
X0129226Y0366535D01*
X0129070Y0366563D01*
X0128915Y0366594D01*
X0128760Y0366630D01*
X0128607Y0366669D01*
X0128455Y0366712D01*
X0128304Y0366759D01*
X0128154Y0366810D01*
X0128005Y0366865D01*
X0127858Y0366923D01*
X0127712Y0366985D01*
X0127568Y0367050D01*
X0127426Y0367120D01*
X0127285Y0367192D01*
X0127146Y0367269D01*
X0127010Y0367348D01*
X0126875Y0367432D01*
X0126742Y0367518D01*
X0126612Y0367608D01*
X0126484Y0367701D01*
X0126358Y0367797D01*
X0126235Y0367897D01*
X0126114Y0367999D01*
X0125996Y0368104D01*
X0125881Y0368213D01*
X0125768Y0368324D01*
X0125658Y0368438D01*
X0125551Y0368555D01*
X0125447Y0368674D01*
X0125346Y0368796D01*
X0125249Y0368921D01*
X0125154Y0369048D01*
X0125063Y0369177D01*
X0124974Y0369308D01*
X0124890Y0369442D01*
X0124808Y0369578D01*
X0124730Y0369715D01*
X0124656Y0369855D01*
X0124585Y0369997D01*
X0124517Y0370140D01*
X0124453Y0370285D01*
X0124393Y0370431D01*
X0124337Y0370579D01*
X0124284Y0370728D01*
X0124235Y0370879D01*
X0124190Y0371031D01*
X0124149Y0371184D01*
X0124111Y0371337D01*
X0124078Y0371492D01*
X0124048Y0371648D01*
X0124022Y0371804D01*
X0124001Y0371961D01*
X0123983Y0372118D01*
X0123969Y0372276D01*
X0123959Y0372434D01*
X0123953Y0372592D01*
X0123951Y0372750D01*
X0129404Y0349148D02*
X0129406Y0349306D01*
X0129412Y0349464D01*
X0129422Y0349622D01*
X0129436Y0349780D01*
X0129454Y0349937D01*
X0129475Y0350094D01*
X0129501Y0350250D01*
X0129531Y0350406D01*
X0129564Y0350561D01*
X0129602Y0350714D01*
X0129643Y0350867D01*
X0129688Y0351019D01*
X0129737Y0351170D01*
X0129790Y0351319D01*
X0129846Y0351467D01*
X0129906Y0351613D01*
X0129970Y0351758D01*
X0130038Y0351901D01*
X0130109Y0352043D01*
X0130183Y0352183D01*
X0130261Y0352320D01*
X0130343Y0352456D01*
X0130427Y0352590D01*
X0130516Y0352721D01*
X0130607Y0352850D01*
X0130702Y0352977D01*
X0130799Y0353102D01*
X0130900Y0353224D01*
X0131004Y0353343D01*
X0131111Y0353460D01*
X0131221Y0353574D01*
X0131334Y0353685D01*
X0131449Y0353794D01*
X0131567Y0353899D01*
X0131688Y0354001D01*
X0131811Y0354101D01*
X0131937Y0354197D01*
X0132065Y0354290D01*
X0132195Y0354380D01*
X0132328Y0354466D01*
X0132463Y0354550D01*
X0132599Y0354629D01*
X0132738Y0354706D01*
X0132879Y0354778D01*
X0133021Y0354848D01*
X0133165Y0354913D01*
X0133311Y0354975D01*
X0133458Y0355033D01*
X0133607Y0355088D01*
X0133757Y0355139D01*
X0133908Y0355186D01*
X0134060Y0355229D01*
X0134213Y0355268D01*
X0134368Y0355304D01*
X0134523Y0355335D01*
X0134679Y0355363D01*
X0134835Y0355387D01*
X0134992Y0355407D01*
X0135150Y0355423D01*
X0135307Y0355435D01*
X0135466Y0355443D01*
X0135624Y0355447D01*
X0135782Y0355447D01*
X0135940Y0355443D01*
X0136099Y0355435D01*
X0136256Y0355423D01*
X0136414Y0355407D01*
X0136571Y0355387D01*
X0136727Y0355363D01*
X0136883Y0355335D01*
X0137038Y0355304D01*
X0137193Y0355268D01*
X0137346Y0355229D01*
X0137498Y0355186D01*
X0137649Y0355139D01*
X0137799Y0355088D01*
X0137948Y0355033D01*
X0138095Y0354975D01*
X0138241Y0354913D01*
X0138385Y0354848D01*
X0138527Y0354778D01*
X0138668Y0354706D01*
X0138807Y0354629D01*
X0138943Y0354550D01*
X0139078Y0354466D01*
X0139211Y0354380D01*
X0139341Y0354290D01*
X0139469Y0354197D01*
X0139595Y0354101D01*
X0139718Y0354001D01*
X0139839Y0353899D01*
X0139957Y0353794D01*
X0140072Y0353685D01*
X0140185Y0353574D01*
X0140295Y0353460D01*
X0140402Y0353343D01*
X0140506Y0353224D01*
X0140607Y0353102D01*
X0140704Y0352977D01*
X0140799Y0352850D01*
X0140890Y0352721D01*
X0140979Y0352590D01*
X0141063Y0352456D01*
X0141145Y0352320D01*
X0141223Y0352183D01*
X0141297Y0352043D01*
X0141368Y0351901D01*
X0141436Y0351758D01*
X0141500Y0351613D01*
X0141560Y0351467D01*
X0141616Y0351319D01*
X0141669Y0351170D01*
X0141718Y0351019D01*
X0141763Y0350867D01*
X0141804Y0350714D01*
X0141842Y0350561D01*
X0141875Y0350406D01*
X0141905Y0350250D01*
X0141931Y0350094D01*
X0141952Y0349937D01*
X0141970Y0349780D01*
X0141984Y0349622D01*
X0141994Y0349464D01*
X0142000Y0349306D01*
X0142002Y0349148D01*
X0142000Y0348990D01*
X0141994Y0348832D01*
X0141984Y0348674D01*
X0141970Y0348516D01*
X0141952Y0348359D01*
X0141931Y0348202D01*
X0141905Y0348046D01*
X0141875Y0347890D01*
X0141842Y0347735D01*
X0141804Y0347582D01*
X0141763Y0347429D01*
X0141718Y0347277D01*
X0141669Y0347126D01*
X0141616Y0346977D01*
X0141560Y0346829D01*
X0141500Y0346683D01*
X0141436Y0346538D01*
X0141368Y0346395D01*
X0141297Y0346253D01*
X0141223Y0346113D01*
X0141145Y0345976D01*
X0141063Y0345840D01*
X0140979Y0345706D01*
X0140890Y0345575D01*
X0140799Y0345446D01*
X0140704Y0345319D01*
X0140607Y0345194D01*
X0140506Y0345072D01*
X0140402Y0344953D01*
X0140295Y0344836D01*
X0140185Y0344722D01*
X0140072Y0344611D01*
X0139957Y0344502D01*
X0139839Y0344397D01*
X0139718Y0344295D01*
X0139595Y0344195D01*
X0139469Y0344099D01*
X0139341Y0344006D01*
X0139211Y0343916D01*
X0139078Y0343830D01*
X0138943Y0343746D01*
X0138807Y0343667D01*
X0138668Y0343590D01*
X0138527Y0343518D01*
X0138385Y0343448D01*
X0138241Y0343383D01*
X0138095Y0343321D01*
X0137948Y0343263D01*
X0137799Y0343208D01*
X0137649Y0343157D01*
X0137498Y0343110D01*
X0137346Y0343067D01*
X0137193Y0343028D01*
X0137038Y0342992D01*
X0136883Y0342961D01*
X0136727Y0342933D01*
X0136571Y0342909D01*
X0136414Y0342889D01*
X0136256Y0342873D01*
X0136099Y0342861D01*
X0135940Y0342853D01*
X0135782Y0342849D01*
X0135624Y0342849D01*
X0135466Y0342853D01*
X0135307Y0342861D01*
X0135150Y0342873D01*
X0134992Y0342889D01*
X0134835Y0342909D01*
X0134679Y0342933D01*
X0134523Y0342961D01*
X0134368Y0342992D01*
X0134213Y0343028D01*
X0134060Y0343067D01*
X0133908Y0343110D01*
X0133757Y0343157D01*
X0133607Y0343208D01*
X0133458Y0343263D01*
X0133311Y0343321D01*
X0133165Y0343383D01*
X0133021Y0343448D01*
X0132879Y0343518D01*
X0132738Y0343590D01*
X0132599Y0343667D01*
X0132463Y0343746D01*
X0132328Y0343830D01*
X0132195Y0343916D01*
X0132065Y0344006D01*
X0131937Y0344099D01*
X0131811Y0344195D01*
X0131688Y0344295D01*
X0131567Y0344397D01*
X0131449Y0344502D01*
X0131334Y0344611D01*
X0131221Y0344722D01*
X0131111Y0344836D01*
X0131004Y0344953D01*
X0130900Y0345072D01*
X0130799Y0345194D01*
X0130702Y0345319D01*
X0130607Y0345446D01*
X0130516Y0345575D01*
X0130427Y0345706D01*
X0130343Y0345840D01*
X0130261Y0345976D01*
X0130183Y0346113D01*
X0130109Y0346253D01*
X0130038Y0346395D01*
X0129970Y0346538D01*
X0129906Y0346683D01*
X0129846Y0346829D01*
X0129790Y0346977D01*
X0129737Y0347126D01*
X0129688Y0347277D01*
X0129643Y0347429D01*
X0129602Y0347582D01*
X0129564Y0347735D01*
X0129531Y0347890D01*
X0129501Y0348046D01*
X0129475Y0348202D01*
X0129454Y0348359D01*
X0129436Y0348516D01*
X0129422Y0348674D01*
X0129412Y0348832D01*
X0129406Y0348990D01*
X0129404Y0349148D01*
X0129404Y0304148D02*
X0129406Y0304306D01*
X0129412Y0304464D01*
X0129422Y0304622D01*
X0129436Y0304780D01*
X0129454Y0304937D01*
X0129475Y0305094D01*
X0129501Y0305250D01*
X0129531Y0305406D01*
X0129564Y0305561D01*
X0129602Y0305714D01*
X0129643Y0305867D01*
X0129688Y0306019D01*
X0129737Y0306170D01*
X0129790Y0306319D01*
X0129846Y0306467D01*
X0129906Y0306613D01*
X0129970Y0306758D01*
X0130038Y0306901D01*
X0130109Y0307043D01*
X0130183Y0307183D01*
X0130261Y0307320D01*
X0130343Y0307456D01*
X0130427Y0307590D01*
X0130516Y0307721D01*
X0130607Y0307850D01*
X0130702Y0307977D01*
X0130799Y0308102D01*
X0130900Y0308224D01*
X0131004Y0308343D01*
X0131111Y0308460D01*
X0131221Y0308574D01*
X0131334Y0308685D01*
X0131449Y0308794D01*
X0131567Y0308899D01*
X0131688Y0309001D01*
X0131811Y0309101D01*
X0131937Y0309197D01*
X0132065Y0309290D01*
X0132195Y0309380D01*
X0132328Y0309466D01*
X0132463Y0309550D01*
X0132599Y0309629D01*
X0132738Y0309706D01*
X0132879Y0309778D01*
X0133021Y0309848D01*
X0133165Y0309913D01*
X0133311Y0309975D01*
X0133458Y0310033D01*
X0133607Y0310088D01*
X0133757Y0310139D01*
X0133908Y0310186D01*
X0134060Y0310229D01*
X0134213Y0310268D01*
X0134368Y0310304D01*
X0134523Y0310335D01*
X0134679Y0310363D01*
X0134835Y0310387D01*
X0134992Y0310407D01*
X0135150Y0310423D01*
X0135307Y0310435D01*
X0135466Y0310443D01*
X0135624Y0310447D01*
X0135782Y0310447D01*
X0135940Y0310443D01*
X0136099Y0310435D01*
X0136256Y0310423D01*
X0136414Y0310407D01*
X0136571Y0310387D01*
X0136727Y0310363D01*
X0136883Y0310335D01*
X0137038Y0310304D01*
X0137193Y0310268D01*
X0137346Y0310229D01*
X0137498Y0310186D01*
X0137649Y0310139D01*
X0137799Y0310088D01*
X0137948Y0310033D01*
X0138095Y0309975D01*
X0138241Y0309913D01*
X0138385Y0309848D01*
X0138527Y0309778D01*
X0138668Y0309706D01*
X0138807Y0309629D01*
X0138943Y0309550D01*
X0139078Y0309466D01*
X0139211Y0309380D01*
X0139341Y0309290D01*
X0139469Y0309197D01*
X0139595Y0309101D01*
X0139718Y0309001D01*
X0139839Y0308899D01*
X0139957Y0308794D01*
X0140072Y0308685D01*
X0140185Y0308574D01*
X0140295Y0308460D01*
X0140402Y0308343D01*
X0140506Y0308224D01*
X0140607Y0308102D01*
X0140704Y0307977D01*
X0140799Y0307850D01*
X0140890Y0307721D01*
X0140979Y0307590D01*
X0141063Y0307456D01*
X0141145Y0307320D01*
X0141223Y0307183D01*
X0141297Y0307043D01*
X0141368Y0306901D01*
X0141436Y0306758D01*
X0141500Y0306613D01*
X0141560Y0306467D01*
X0141616Y0306319D01*
X0141669Y0306170D01*
X0141718Y0306019D01*
X0141763Y0305867D01*
X0141804Y0305714D01*
X0141842Y0305561D01*
X0141875Y0305406D01*
X0141905Y0305250D01*
X0141931Y0305094D01*
X0141952Y0304937D01*
X0141970Y0304780D01*
X0141984Y0304622D01*
X0141994Y0304464D01*
X0142000Y0304306D01*
X0142002Y0304148D01*
X0142000Y0303990D01*
X0141994Y0303832D01*
X0141984Y0303674D01*
X0141970Y0303516D01*
X0141952Y0303359D01*
X0141931Y0303202D01*
X0141905Y0303046D01*
X0141875Y0302890D01*
X0141842Y0302735D01*
X0141804Y0302582D01*
X0141763Y0302429D01*
X0141718Y0302277D01*
X0141669Y0302126D01*
X0141616Y0301977D01*
X0141560Y0301829D01*
X0141500Y0301683D01*
X0141436Y0301538D01*
X0141368Y0301395D01*
X0141297Y0301253D01*
X0141223Y0301113D01*
X0141145Y0300976D01*
X0141063Y0300840D01*
X0140979Y0300706D01*
X0140890Y0300575D01*
X0140799Y0300446D01*
X0140704Y0300319D01*
X0140607Y0300194D01*
X0140506Y0300072D01*
X0140402Y0299953D01*
X0140295Y0299836D01*
X0140185Y0299722D01*
X0140072Y0299611D01*
X0139957Y0299502D01*
X0139839Y0299397D01*
X0139718Y0299295D01*
X0139595Y0299195D01*
X0139469Y0299099D01*
X0139341Y0299006D01*
X0139211Y0298916D01*
X0139078Y0298830D01*
X0138943Y0298746D01*
X0138807Y0298667D01*
X0138668Y0298590D01*
X0138527Y0298518D01*
X0138385Y0298448D01*
X0138241Y0298383D01*
X0138095Y0298321D01*
X0137948Y0298263D01*
X0137799Y0298208D01*
X0137649Y0298157D01*
X0137498Y0298110D01*
X0137346Y0298067D01*
X0137193Y0298028D01*
X0137038Y0297992D01*
X0136883Y0297961D01*
X0136727Y0297933D01*
X0136571Y0297909D01*
X0136414Y0297889D01*
X0136256Y0297873D01*
X0136099Y0297861D01*
X0135940Y0297853D01*
X0135782Y0297849D01*
X0135624Y0297849D01*
X0135466Y0297853D01*
X0135307Y0297861D01*
X0135150Y0297873D01*
X0134992Y0297889D01*
X0134835Y0297909D01*
X0134679Y0297933D01*
X0134523Y0297961D01*
X0134368Y0297992D01*
X0134213Y0298028D01*
X0134060Y0298067D01*
X0133908Y0298110D01*
X0133757Y0298157D01*
X0133607Y0298208D01*
X0133458Y0298263D01*
X0133311Y0298321D01*
X0133165Y0298383D01*
X0133021Y0298448D01*
X0132879Y0298518D01*
X0132738Y0298590D01*
X0132599Y0298667D01*
X0132463Y0298746D01*
X0132328Y0298830D01*
X0132195Y0298916D01*
X0132065Y0299006D01*
X0131937Y0299099D01*
X0131811Y0299195D01*
X0131688Y0299295D01*
X0131567Y0299397D01*
X0131449Y0299502D01*
X0131334Y0299611D01*
X0131221Y0299722D01*
X0131111Y0299836D01*
X0131004Y0299953D01*
X0130900Y0300072D01*
X0130799Y0300194D01*
X0130702Y0300319D01*
X0130607Y0300446D01*
X0130516Y0300575D01*
X0130427Y0300706D01*
X0130343Y0300840D01*
X0130261Y0300976D01*
X0130183Y0301113D01*
X0130109Y0301253D01*
X0130038Y0301395D01*
X0129970Y0301538D01*
X0129906Y0301683D01*
X0129846Y0301829D01*
X0129790Y0301977D01*
X0129737Y0302126D01*
X0129688Y0302277D01*
X0129643Y0302429D01*
X0129602Y0302582D01*
X0129564Y0302735D01*
X0129531Y0302890D01*
X0129501Y0303046D01*
X0129475Y0303202D01*
X0129454Y0303359D01*
X0129436Y0303516D01*
X0129422Y0303674D01*
X0129412Y0303832D01*
X0129406Y0303990D01*
X0129404Y0304148D01*
X0129404Y0276648D02*
X0129406Y0276806D01*
X0129412Y0276964D01*
X0129422Y0277122D01*
X0129436Y0277280D01*
X0129454Y0277437D01*
X0129475Y0277594D01*
X0129501Y0277750D01*
X0129531Y0277906D01*
X0129564Y0278061D01*
X0129602Y0278214D01*
X0129643Y0278367D01*
X0129688Y0278519D01*
X0129737Y0278670D01*
X0129790Y0278819D01*
X0129846Y0278967D01*
X0129906Y0279113D01*
X0129970Y0279258D01*
X0130038Y0279401D01*
X0130109Y0279543D01*
X0130183Y0279683D01*
X0130261Y0279820D01*
X0130343Y0279956D01*
X0130427Y0280090D01*
X0130516Y0280221D01*
X0130607Y0280350D01*
X0130702Y0280477D01*
X0130799Y0280602D01*
X0130900Y0280724D01*
X0131004Y0280843D01*
X0131111Y0280960D01*
X0131221Y0281074D01*
X0131334Y0281185D01*
X0131449Y0281294D01*
X0131567Y0281399D01*
X0131688Y0281501D01*
X0131811Y0281601D01*
X0131937Y0281697D01*
X0132065Y0281790D01*
X0132195Y0281880D01*
X0132328Y0281966D01*
X0132463Y0282050D01*
X0132599Y0282129D01*
X0132738Y0282206D01*
X0132879Y0282278D01*
X0133021Y0282348D01*
X0133165Y0282413D01*
X0133311Y0282475D01*
X0133458Y0282533D01*
X0133607Y0282588D01*
X0133757Y0282639D01*
X0133908Y0282686D01*
X0134060Y0282729D01*
X0134213Y0282768D01*
X0134368Y0282804D01*
X0134523Y0282835D01*
X0134679Y0282863D01*
X0134835Y0282887D01*
X0134992Y0282907D01*
X0135150Y0282923D01*
X0135307Y0282935D01*
X0135466Y0282943D01*
X0135624Y0282947D01*
X0135782Y0282947D01*
X0135940Y0282943D01*
X0136099Y0282935D01*
X0136256Y0282923D01*
X0136414Y0282907D01*
X0136571Y0282887D01*
X0136727Y0282863D01*
X0136883Y0282835D01*
X0137038Y0282804D01*
X0137193Y0282768D01*
X0137346Y0282729D01*
X0137498Y0282686D01*
X0137649Y0282639D01*
X0137799Y0282588D01*
X0137948Y0282533D01*
X0138095Y0282475D01*
X0138241Y0282413D01*
X0138385Y0282348D01*
X0138527Y0282278D01*
X0138668Y0282206D01*
X0138807Y0282129D01*
X0138943Y0282050D01*
X0139078Y0281966D01*
X0139211Y0281880D01*
X0139341Y0281790D01*
X0139469Y0281697D01*
X0139595Y0281601D01*
X0139718Y0281501D01*
X0139839Y0281399D01*
X0139957Y0281294D01*
X0140072Y0281185D01*
X0140185Y0281074D01*
X0140295Y0280960D01*
X0140402Y0280843D01*
X0140506Y0280724D01*
X0140607Y0280602D01*
X0140704Y0280477D01*
X0140799Y0280350D01*
X0140890Y0280221D01*
X0140979Y0280090D01*
X0141063Y0279956D01*
X0141145Y0279820D01*
X0141223Y0279683D01*
X0141297Y0279543D01*
X0141368Y0279401D01*
X0141436Y0279258D01*
X0141500Y0279113D01*
X0141560Y0278967D01*
X0141616Y0278819D01*
X0141669Y0278670D01*
X0141718Y0278519D01*
X0141763Y0278367D01*
X0141804Y0278214D01*
X0141842Y0278061D01*
X0141875Y0277906D01*
X0141905Y0277750D01*
X0141931Y0277594D01*
X0141952Y0277437D01*
X0141970Y0277280D01*
X0141984Y0277122D01*
X0141994Y0276964D01*
X0142000Y0276806D01*
X0142002Y0276648D01*
X0142000Y0276490D01*
X0141994Y0276332D01*
X0141984Y0276174D01*
X0141970Y0276016D01*
X0141952Y0275859D01*
X0141931Y0275702D01*
X0141905Y0275546D01*
X0141875Y0275390D01*
X0141842Y0275235D01*
X0141804Y0275082D01*
X0141763Y0274929D01*
X0141718Y0274777D01*
X0141669Y0274626D01*
X0141616Y0274477D01*
X0141560Y0274329D01*
X0141500Y0274183D01*
X0141436Y0274038D01*
X0141368Y0273895D01*
X0141297Y0273753D01*
X0141223Y0273613D01*
X0141145Y0273476D01*
X0141063Y0273340D01*
X0140979Y0273206D01*
X0140890Y0273075D01*
X0140799Y0272946D01*
X0140704Y0272819D01*
X0140607Y0272694D01*
X0140506Y0272572D01*
X0140402Y0272453D01*
X0140295Y0272336D01*
X0140185Y0272222D01*
X0140072Y0272111D01*
X0139957Y0272002D01*
X0139839Y0271897D01*
X0139718Y0271795D01*
X0139595Y0271695D01*
X0139469Y0271599D01*
X0139341Y0271506D01*
X0139211Y0271416D01*
X0139078Y0271330D01*
X0138943Y0271246D01*
X0138807Y0271167D01*
X0138668Y0271090D01*
X0138527Y0271018D01*
X0138385Y0270948D01*
X0138241Y0270883D01*
X0138095Y0270821D01*
X0137948Y0270763D01*
X0137799Y0270708D01*
X0137649Y0270657D01*
X0137498Y0270610D01*
X0137346Y0270567D01*
X0137193Y0270528D01*
X0137038Y0270492D01*
X0136883Y0270461D01*
X0136727Y0270433D01*
X0136571Y0270409D01*
X0136414Y0270389D01*
X0136256Y0270373D01*
X0136099Y0270361D01*
X0135940Y0270353D01*
X0135782Y0270349D01*
X0135624Y0270349D01*
X0135466Y0270353D01*
X0135307Y0270361D01*
X0135150Y0270373D01*
X0134992Y0270389D01*
X0134835Y0270409D01*
X0134679Y0270433D01*
X0134523Y0270461D01*
X0134368Y0270492D01*
X0134213Y0270528D01*
X0134060Y0270567D01*
X0133908Y0270610D01*
X0133757Y0270657D01*
X0133607Y0270708D01*
X0133458Y0270763D01*
X0133311Y0270821D01*
X0133165Y0270883D01*
X0133021Y0270948D01*
X0132879Y0271018D01*
X0132738Y0271090D01*
X0132599Y0271167D01*
X0132463Y0271246D01*
X0132328Y0271330D01*
X0132195Y0271416D01*
X0132065Y0271506D01*
X0131937Y0271599D01*
X0131811Y0271695D01*
X0131688Y0271795D01*
X0131567Y0271897D01*
X0131449Y0272002D01*
X0131334Y0272111D01*
X0131221Y0272222D01*
X0131111Y0272336D01*
X0131004Y0272453D01*
X0130900Y0272572D01*
X0130799Y0272694D01*
X0130702Y0272819D01*
X0130607Y0272946D01*
X0130516Y0273075D01*
X0130427Y0273206D01*
X0130343Y0273340D01*
X0130261Y0273476D01*
X0130183Y0273613D01*
X0130109Y0273753D01*
X0130038Y0273895D01*
X0129970Y0274038D01*
X0129906Y0274183D01*
X0129846Y0274329D01*
X0129790Y0274477D01*
X0129737Y0274626D01*
X0129688Y0274777D01*
X0129643Y0274929D01*
X0129602Y0275082D01*
X0129564Y0275235D01*
X0129531Y0275390D01*
X0129501Y0275546D01*
X0129475Y0275702D01*
X0129454Y0275859D01*
X0129436Y0276016D01*
X0129422Y0276174D01*
X0129412Y0276332D01*
X0129406Y0276490D01*
X0129404Y0276648D01*
X0129404Y0231648D02*
X0129406Y0231806D01*
X0129412Y0231964D01*
X0129422Y0232122D01*
X0129436Y0232280D01*
X0129454Y0232437D01*
X0129475Y0232594D01*
X0129501Y0232750D01*
X0129531Y0232906D01*
X0129564Y0233061D01*
X0129602Y0233214D01*
X0129643Y0233367D01*
X0129688Y0233519D01*
X0129737Y0233670D01*
X0129790Y0233819D01*
X0129846Y0233967D01*
X0129906Y0234113D01*
X0129970Y0234258D01*
X0130038Y0234401D01*
X0130109Y0234543D01*
X0130183Y0234683D01*
X0130261Y0234820D01*
X0130343Y0234956D01*
X0130427Y0235090D01*
X0130516Y0235221D01*
X0130607Y0235350D01*
X0130702Y0235477D01*
X0130799Y0235602D01*
X0130900Y0235724D01*
X0131004Y0235843D01*
X0131111Y0235960D01*
X0131221Y0236074D01*
X0131334Y0236185D01*
X0131449Y0236294D01*
X0131567Y0236399D01*
X0131688Y0236501D01*
X0131811Y0236601D01*
X0131937Y0236697D01*
X0132065Y0236790D01*
X0132195Y0236880D01*
X0132328Y0236966D01*
X0132463Y0237050D01*
X0132599Y0237129D01*
X0132738Y0237206D01*
X0132879Y0237278D01*
X0133021Y0237348D01*
X0133165Y0237413D01*
X0133311Y0237475D01*
X0133458Y0237533D01*
X0133607Y0237588D01*
X0133757Y0237639D01*
X0133908Y0237686D01*
X0134060Y0237729D01*
X0134213Y0237768D01*
X0134368Y0237804D01*
X0134523Y0237835D01*
X0134679Y0237863D01*
X0134835Y0237887D01*
X0134992Y0237907D01*
X0135150Y0237923D01*
X0135307Y0237935D01*
X0135466Y0237943D01*
X0135624Y0237947D01*
X0135782Y0237947D01*
X0135940Y0237943D01*
X0136099Y0237935D01*
X0136256Y0237923D01*
X0136414Y0237907D01*
X0136571Y0237887D01*
X0136727Y0237863D01*
X0136883Y0237835D01*
X0137038Y0237804D01*
X0137193Y0237768D01*
X0137346Y0237729D01*
X0137498Y0237686D01*
X0137649Y0237639D01*
X0137799Y0237588D01*
X0137948Y0237533D01*
X0138095Y0237475D01*
X0138241Y0237413D01*
X0138385Y0237348D01*
X0138527Y0237278D01*
X0138668Y0237206D01*
X0138807Y0237129D01*
X0138943Y0237050D01*
X0139078Y0236966D01*
X0139211Y0236880D01*
X0139341Y0236790D01*
X0139469Y0236697D01*
X0139595Y0236601D01*
X0139718Y0236501D01*
X0139839Y0236399D01*
X0139957Y0236294D01*
X0140072Y0236185D01*
X0140185Y0236074D01*
X0140295Y0235960D01*
X0140402Y0235843D01*
X0140506Y0235724D01*
X0140607Y0235602D01*
X0140704Y0235477D01*
X0140799Y0235350D01*
X0140890Y0235221D01*
X0140979Y0235090D01*
X0141063Y0234956D01*
X0141145Y0234820D01*
X0141223Y0234683D01*
X0141297Y0234543D01*
X0141368Y0234401D01*
X0141436Y0234258D01*
X0141500Y0234113D01*
X0141560Y0233967D01*
X0141616Y0233819D01*
X0141669Y0233670D01*
X0141718Y0233519D01*
X0141763Y0233367D01*
X0141804Y0233214D01*
X0141842Y0233061D01*
X0141875Y0232906D01*
X0141905Y0232750D01*
X0141931Y0232594D01*
X0141952Y0232437D01*
X0141970Y0232280D01*
X0141984Y0232122D01*
X0141994Y0231964D01*
X0142000Y0231806D01*
X0142002Y0231648D01*
X0142000Y0231490D01*
X0141994Y0231332D01*
X0141984Y0231174D01*
X0141970Y0231016D01*
X0141952Y0230859D01*
X0141931Y0230702D01*
X0141905Y0230546D01*
X0141875Y0230390D01*
X0141842Y0230235D01*
X0141804Y0230082D01*
X0141763Y0229929D01*
X0141718Y0229777D01*
X0141669Y0229626D01*
X0141616Y0229477D01*
X0141560Y0229329D01*
X0141500Y0229183D01*
X0141436Y0229038D01*
X0141368Y0228895D01*
X0141297Y0228753D01*
X0141223Y0228613D01*
X0141145Y0228476D01*
X0141063Y0228340D01*
X0140979Y0228206D01*
X0140890Y0228075D01*
X0140799Y0227946D01*
X0140704Y0227819D01*
X0140607Y0227694D01*
X0140506Y0227572D01*
X0140402Y0227453D01*
X0140295Y0227336D01*
X0140185Y0227222D01*
X0140072Y0227111D01*
X0139957Y0227002D01*
X0139839Y0226897D01*
X0139718Y0226795D01*
X0139595Y0226695D01*
X0139469Y0226599D01*
X0139341Y0226506D01*
X0139211Y0226416D01*
X0139078Y0226330D01*
X0138943Y0226246D01*
X0138807Y0226167D01*
X0138668Y0226090D01*
X0138527Y0226018D01*
X0138385Y0225948D01*
X0138241Y0225883D01*
X0138095Y0225821D01*
X0137948Y0225763D01*
X0137799Y0225708D01*
X0137649Y0225657D01*
X0137498Y0225610D01*
X0137346Y0225567D01*
X0137193Y0225528D01*
X0137038Y0225492D01*
X0136883Y0225461D01*
X0136727Y0225433D01*
X0136571Y0225409D01*
X0136414Y0225389D01*
X0136256Y0225373D01*
X0136099Y0225361D01*
X0135940Y0225353D01*
X0135782Y0225349D01*
X0135624Y0225349D01*
X0135466Y0225353D01*
X0135307Y0225361D01*
X0135150Y0225373D01*
X0134992Y0225389D01*
X0134835Y0225409D01*
X0134679Y0225433D01*
X0134523Y0225461D01*
X0134368Y0225492D01*
X0134213Y0225528D01*
X0134060Y0225567D01*
X0133908Y0225610D01*
X0133757Y0225657D01*
X0133607Y0225708D01*
X0133458Y0225763D01*
X0133311Y0225821D01*
X0133165Y0225883D01*
X0133021Y0225948D01*
X0132879Y0226018D01*
X0132738Y0226090D01*
X0132599Y0226167D01*
X0132463Y0226246D01*
X0132328Y0226330D01*
X0132195Y0226416D01*
X0132065Y0226506D01*
X0131937Y0226599D01*
X0131811Y0226695D01*
X0131688Y0226795D01*
X0131567Y0226897D01*
X0131449Y0227002D01*
X0131334Y0227111D01*
X0131221Y0227222D01*
X0131111Y0227336D01*
X0131004Y0227453D01*
X0130900Y0227572D01*
X0130799Y0227694D01*
X0130702Y0227819D01*
X0130607Y0227946D01*
X0130516Y0228075D01*
X0130427Y0228206D01*
X0130343Y0228340D01*
X0130261Y0228476D01*
X0130183Y0228613D01*
X0130109Y0228753D01*
X0130038Y0228895D01*
X0129970Y0229038D01*
X0129906Y0229183D01*
X0129846Y0229329D01*
X0129790Y0229477D01*
X0129737Y0229626D01*
X0129688Y0229777D01*
X0129643Y0229929D01*
X0129602Y0230082D01*
X0129564Y0230235D01*
X0129531Y0230390D01*
X0129501Y0230546D01*
X0129475Y0230702D01*
X0129454Y0230859D01*
X0129436Y0231016D01*
X0129422Y0231174D01*
X0129412Y0231332D01*
X0129406Y0231490D01*
X0129404Y0231648D01*
X0129404Y0204148D02*
X0129406Y0204306D01*
X0129412Y0204464D01*
X0129422Y0204622D01*
X0129436Y0204780D01*
X0129454Y0204937D01*
X0129475Y0205094D01*
X0129501Y0205250D01*
X0129531Y0205406D01*
X0129564Y0205561D01*
X0129602Y0205714D01*
X0129643Y0205867D01*
X0129688Y0206019D01*
X0129737Y0206170D01*
X0129790Y0206319D01*
X0129846Y0206467D01*
X0129906Y0206613D01*
X0129970Y0206758D01*
X0130038Y0206901D01*
X0130109Y0207043D01*
X0130183Y0207183D01*
X0130261Y0207320D01*
X0130343Y0207456D01*
X0130427Y0207590D01*
X0130516Y0207721D01*
X0130607Y0207850D01*
X0130702Y0207977D01*
X0130799Y0208102D01*
X0130900Y0208224D01*
X0131004Y0208343D01*
X0131111Y0208460D01*
X0131221Y0208574D01*
X0131334Y0208685D01*
X0131449Y0208794D01*
X0131567Y0208899D01*
X0131688Y0209001D01*
X0131811Y0209101D01*
X0131937Y0209197D01*
X0132065Y0209290D01*
X0132195Y0209380D01*
X0132328Y0209466D01*
X0132463Y0209550D01*
X0132599Y0209629D01*
X0132738Y0209706D01*
X0132879Y0209778D01*
X0133021Y0209848D01*
X0133165Y0209913D01*
X0133311Y0209975D01*
X0133458Y0210033D01*
X0133607Y0210088D01*
X0133757Y0210139D01*
X0133908Y0210186D01*
X0134060Y0210229D01*
X0134213Y0210268D01*
X0134368Y0210304D01*
X0134523Y0210335D01*
X0134679Y0210363D01*
X0134835Y0210387D01*
X0134992Y0210407D01*
X0135150Y0210423D01*
X0135307Y0210435D01*
X0135466Y0210443D01*
X0135624Y0210447D01*
X0135782Y0210447D01*
X0135940Y0210443D01*
X0136099Y0210435D01*
X0136256Y0210423D01*
X0136414Y0210407D01*
X0136571Y0210387D01*
X0136727Y0210363D01*
X0136883Y0210335D01*
X0137038Y0210304D01*
X0137193Y0210268D01*
X0137346Y0210229D01*
X0137498Y0210186D01*
X0137649Y0210139D01*
X0137799Y0210088D01*
X0137948Y0210033D01*
X0138095Y0209975D01*
X0138241Y0209913D01*
X0138385Y0209848D01*
X0138527Y0209778D01*
X0138668Y0209706D01*
X0138807Y0209629D01*
X0138943Y0209550D01*
X0139078Y0209466D01*
X0139211Y0209380D01*
X0139341Y0209290D01*
X0139469Y0209197D01*
X0139595Y0209101D01*
X0139718Y0209001D01*
X0139839Y0208899D01*
X0139957Y0208794D01*
X0140072Y0208685D01*
X0140185Y0208574D01*
X0140295Y0208460D01*
X0140402Y0208343D01*
X0140506Y0208224D01*
X0140607Y0208102D01*
X0140704Y0207977D01*
X0140799Y0207850D01*
X0140890Y0207721D01*
X0140979Y0207590D01*
X0141063Y0207456D01*
X0141145Y0207320D01*
X0141223Y0207183D01*
X0141297Y0207043D01*
X0141368Y0206901D01*
X0141436Y0206758D01*
X0141500Y0206613D01*
X0141560Y0206467D01*
X0141616Y0206319D01*
X0141669Y0206170D01*
X0141718Y0206019D01*
X0141763Y0205867D01*
X0141804Y0205714D01*
X0141842Y0205561D01*
X0141875Y0205406D01*
X0141905Y0205250D01*
X0141931Y0205094D01*
X0141952Y0204937D01*
X0141970Y0204780D01*
X0141984Y0204622D01*
X0141994Y0204464D01*
X0142000Y0204306D01*
X0142002Y0204148D01*
X0142000Y0203990D01*
X0141994Y0203832D01*
X0141984Y0203674D01*
X0141970Y0203516D01*
X0141952Y0203359D01*
X0141931Y0203202D01*
X0141905Y0203046D01*
X0141875Y0202890D01*
X0141842Y0202735D01*
X0141804Y0202582D01*
X0141763Y0202429D01*
X0141718Y0202277D01*
X0141669Y0202126D01*
X0141616Y0201977D01*
X0141560Y0201829D01*
X0141500Y0201683D01*
X0141436Y0201538D01*
X0141368Y0201395D01*
X0141297Y0201253D01*
X0141223Y0201113D01*
X0141145Y0200976D01*
X0141063Y0200840D01*
X0140979Y0200706D01*
X0140890Y0200575D01*
X0140799Y0200446D01*
X0140704Y0200319D01*
X0140607Y0200194D01*
X0140506Y0200072D01*
X0140402Y0199953D01*
X0140295Y0199836D01*
X0140185Y0199722D01*
X0140072Y0199611D01*
X0139957Y0199502D01*
X0139839Y0199397D01*
X0139718Y0199295D01*
X0139595Y0199195D01*
X0139469Y0199099D01*
X0139341Y0199006D01*
X0139211Y0198916D01*
X0139078Y0198830D01*
X0138943Y0198746D01*
X0138807Y0198667D01*
X0138668Y0198590D01*
X0138527Y0198518D01*
X0138385Y0198448D01*
X0138241Y0198383D01*
X0138095Y0198321D01*
X0137948Y0198263D01*
X0137799Y0198208D01*
X0137649Y0198157D01*
X0137498Y0198110D01*
X0137346Y0198067D01*
X0137193Y0198028D01*
X0137038Y0197992D01*
X0136883Y0197961D01*
X0136727Y0197933D01*
X0136571Y0197909D01*
X0136414Y0197889D01*
X0136256Y0197873D01*
X0136099Y0197861D01*
X0135940Y0197853D01*
X0135782Y0197849D01*
X0135624Y0197849D01*
X0135466Y0197853D01*
X0135307Y0197861D01*
X0135150Y0197873D01*
X0134992Y0197889D01*
X0134835Y0197909D01*
X0134679Y0197933D01*
X0134523Y0197961D01*
X0134368Y0197992D01*
X0134213Y0198028D01*
X0134060Y0198067D01*
X0133908Y0198110D01*
X0133757Y0198157D01*
X0133607Y0198208D01*
X0133458Y0198263D01*
X0133311Y0198321D01*
X0133165Y0198383D01*
X0133021Y0198448D01*
X0132879Y0198518D01*
X0132738Y0198590D01*
X0132599Y0198667D01*
X0132463Y0198746D01*
X0132328Y0198830D01*
X0132195Y0198916D01*
X0132065Y0199006D01*
X0131937Y0199099D01*
X0131811Y0199195D01*
X0131688Y0199295D01*
X0131567Y0199397D01*
X0131449Y0199502D01*
X0131334Y0199611D01*
X0131221Y0199722D01*
X0131111Y0199836D01*
X0131004Y0199953D01*
X0130900Y0200072D01*
X0130799Y0200194D01*
X0130702Y0200319D01*
X0130607Y0200446D01*
X0130516Y0200575D01*
X0130427Y0200706D01*
X0130343Y0200840D01*
X0130261Y0200976D01*
X0130183Y0201113D01*
X0130109Y0201253D01*
X0130038Y0201395D01*
X0129970Y0201538D01*
X0129906Y0201683D01*
X0129846Y0201829D01*
X0129790Y0201977D01*
X0129737Y0202126D01*
X0129688Y0202277D01*
X0129643Y0202429D01*
X0129602Y0202582D01*
X0129564Y0202735D01*
X0129531Y0202890D01*
X0129501Y0203046D01*
X0129475Y0203202D01*
X0129454Y0203359D01*
X0129436Y0203516D01*
X0129422Y0203674D01*
X0129412Y0203832D01*
X0129406Y0203990D01*
X0129404Y0204148D01*
X0129404Y0159148D02*
X0129406Y0159306D01*
X0129412Y0159464D01*
X0129422Y0159622D01*
X0129436Y0159780D01*
X0129454Y0159937D01*
X0129475Y0160094D01*
X0129501Y0160250D01*
X0129531Y0160406D01*
X0129564Y0160561D01*
X0129602Y0160714D01*
X0129643Y0160867D01*
X0129688Y0161019D01*
X0129737Y0161170D01*
X0129790Y0161319D01*
X0129846Y0161467D01*
X0129906Y0161613D01*
X0129970Y0161758D01*
X0130038Y0161901D01*
X0130109Y0162043D01*
X0130183Y0162183D01*
X0130261Y0162320D01*
X0130343Y0162456D01*
X0130427Y0162590D01*
X0130516Y0162721D01*
X0130607Y0162850D01*
X0130702Y0162977D01*
X0130799Y0163102D01*
X0130900Y0163224D01*
X0131004Y0163343D01*
X0131111Y0163460D01*
X0131221Y0163574D01*
X0131334Y0163685D01*
X0131449Y0163794D01*
X0131567Y0163899D01*
X0131688Y0164001D01*
X0131811Y0164101D01*
X0131937Y0164197D01*
X0132065Y0164290D01*
X0132195Y0164380D01*
X0132328Y0164466D01*
X0132463Y0164550D01*
X0132599Y0164629D01*
X0132738Y0164706D01*
X0132879Y0164778D01*
X0133021Y0164848D01*
X0133165Y0164913D01*
X0133311Y0164975D01*
X0133458Y0165033D01*
X0133607Y0165088D01*
X0133757Y0165139D01*
X0133908Y0165186D01*
X0134060Y0165229D01*
X0134213Y0165268D01*
X0134368Y0165304D01*
X0134523Y0165335D01*
X0134679Y0165363D01*
X0134835Y0165387D01*
X0134992Y0165407D01*
X0135150Y0165423D01*
X0135307Y0165435D01*
X0135466Y0165443D01*
X0135624Y0165447D01*
X0135782Y0165447D01*
X0135940Y0165443D01*
X0136099Y0165435D01*
X0136256Y0165423D01*
X0136414Y0165407D01*
X0136571Y0165387D01*
X0136727Y0165363D01*
X0136883Y0165335D01*
X0137038Y0165304D01*
X0137193Y0165268D01*
X0137346Y0165229D01*
X0137498Y0165186D01*
X0137649Y0165139D01*
X0137799Y0165088D01*
X0137948Y0165033D01*
X0138095Y0164975D01*
X0138241Y0164913D01*
X0138385Y0164848D01*
X0138527Y0164778D01*
X0138668Y0164706D01*
X0138807Y0164629D01*
X0138943Y0164550D01*
X0139078Y0164466D01*
X0139211Y0164380D01*
X0139341Y0164290D01*
X0139469Y0164197D01*
X0139595Y0164101D01*
X0139718Y0164001D01*
X0139839Y0163899D01*
X0139957Y0163794D01*
X0140072Y0163685D01*
X0140185Y0163574D01*
X0140295Y0163460D01*
X0140402Y0163343D01*
X0140506Y0163224D01*
X0140607Y0163102D01*
X0140704Y0162977D01*
X0140799Y0162850D01*
X0140890Y0162721D01*
X0140979Y0162590D01*
X0141063Y0162456D01*
X0141145Y0162320D01*
X0141223Y0162183D01*
X0141297Y0162043D01*
X0141368Y0161901D01*
X0141436Y0161758D01*
X0141500Y0161613D01*
X0141560Y0161467D01*
X0141616Y0161319D01*
X0141669Y0161170D01*
X0141718Y0161019D01*
X0141763Y0160867D01*
X0141804Y0160714D01*
X0141842Y0160561D01*
X0141875Y0160406D01*
X0141905Y0160250D01*
X0141931Y0160094D01*
X0141952Y0159937D01*
X0141970Y0159780D01*
X0141984Y0159622D01*
X0141994Y0159464D01*
X0142000Y0159306D01*
X0142002Y0159148D01*
X0142000Y0158990D01*
X0141994Y0158832D01*
X0141984Y0158674D01*
X0141970Y0158516D01*
X0141952Y0158359D01*
X0141931Y0158202D01*
X0141905Y0158046D01*
X0141875Y0157890D01*
X0141842Y0157735D01*
X0141804Y0157582D01*
X0141763Y0157429D01*
X0141718Y0157277D01*
X0141669Y0157126D01*
X0141616Y0156977D01*
X0141560Y0156829D01*
X0141500Y0156683D01*
X0141436Y0156538D01*
X0141368Y0156395D01*
X0141297Y0156253D01*
X0141223Y0156113D01*
X0141145Y0155976D01*
X0141063Y0155840D01*
X0140979Y0155706D01*
X0140890Y0155575D01*
X0140799Y0155446D01*
X0140704Y0155319D01*
X0140607Y0155194D01*
X0140506Y0155072D01*
X0140402Y0154953D01*
X0140295Y0154836D01*
X0140185Y0154722D01*
X0140072Y0154611D01*
X0139957Y0154502D01*
X0139839Y0154397D01*
X0139718Y0154295D01*
X0139595Y0154195D01*
X0139469Y0154099D01*
X0139341Y0154006D01*
X0139211Y0153916D01*
X0139078Y0153830D01*
X0138943Y0153746D01*
X0138807Y0153667D01*
X0138668Y0153590D01*
X0138527Y0153518D01*
X0138385Y0153448D01*
X0138241Y0153383D01*
X0138095Y0153321D01*
X0137948Y0153263D01*
X0137799Y0153208D01*
X0137649Y0153157D01*
X0137498Y0153110D01*
X0137346Y0153067D01*
X0137193Y0153028D01*
X0137038Y0152992D01*
X0136883Y0152961D01*
X0136727Y0152933D01*
X0136571Y0152909D01*
X0136414Y0152889D01*
X0136256Y0152873D01*
X0136099Y0152861D01*
X0135940Y0152853D01*
X0135782Y0152849D01*
X0135624Y0152849D01*
X0135466Y0152853D01*
X0135307Y0152861D01*
X0135150Y0152873D01*
X0134992Y0152889D01*
X0134835Y0152909D01*
X0134679Y0152933D01*
X0134523Y0152961D01*
X0134368Y0152992D01*
X0134213Y0153028D01*
X0134060Y0153067D01*
X0133908Y0153110D01*
X0133757Y0153157D01*
X0133607Y0153208D01*
X0133458Y0153263D01*
X0133311Y0153321D01*
X0133165Y0153383D01*
X0133021Y0153448D01*
X0132879Y0153518D01*
X0132738Y0153590D01*
X0132599Y0153667D01*
X0132463Y0153746D01*
X0132328Y0153830D01*
X0132195Y0153916D01*
X0132065Y0154006D01*
X0131937Y0154099D01*
X0131811Y0154195D01*
X0131688Y0154295D01*
X0131567Y0154397D01*
X0131449Y0154502D01*
X0131334Y0154611D01*
X0131221Y0154722D01*
X0131111Y0154836D01*
X0131004Y0154953D01*
X0130900Y0155072D01*
X0130799Y0155194D01*
X0130702Y0155319D01*
X0130607Y0155446D01*
X0130516Y0155575D01*
X0130427Y0155706D01*
X0130343Y0155840D01*
X0130261Y0155976D01*
X0130183Y0156113D01*
X0130109Y0156253D01*
X0130038Y0156395D01*
X0129970Y0156538D01*
X0129906Y0156683D01*
X0129846Y0156829D01*
X0129790Y0156977D01*
X0129737Y0157126D01*
X0129688Y0157277D01*
X0129643Y0157429D01*
X0129602Y0157582D01*
X0129564Y0157735D01*
X0129531Y0157890D01*
X0129501Y0158046D01*
X0129475Y0158202D01*
X0129454Y0158359D01*
X0129436Y0158516D01*
X0129422Y0158674D01*
X0129412Y0158832D01*
X0129406Y0158990D01*
X0129404Y0159148D01*
X0123951Y0135250D02*
X0123953Y0135408D01*
X0123959Y0135566D01*
X0123969Y0135724D01*
X0123983Y0135882D01*
X0124001Y0136039D01*
X0124022Y0136196D01*
X0124048Y0136352D01*
X0124078Y0136508D01*
X0124111Y0136663D01*
X0124149Y0136816D01*
X0124190Y0136969D01*
X0124235Y0137121D01*
X0124284Y0137272D01*
X0124337Y0137421D01*
X0124393Y0137569D01*
X0124453Y0137715D01*
X0124517Y0137860D01*
X0124585Y0138003D01*
X0124656Y0138145D01*
X0124730Y0138285D01*
X0124808Y0138422D01*
X0124890Y0138558D01*
X0124974Y0138692D01*
X0125063Y0138823D01*
X0125154Y0138952D01*
X0125249Y0139079D01*
X0125346Y0139204D01*
X0125447Y0139326D01*
X0125551Y0139445D01*
X0125658Y0139562D01*
X0125768Y0139676D01*
X0125881Y0139787D01*
X0125996Y0139896D01*
X0126114Y0140001D01*
X0126235Y0140103D01*
X0126358Y0140203D01*
X0126484Y0140299D01*
X0126612Y0140392D01*
X0126742Y0140482D01*
X0126875Y0140568D01*
X0127010Y0140652D01*
X0127146Y0140731D01*
X0127285Y0140808D01*
X0127426Y0140880D01*
X0127568Y0140950D01*
X0127712Y0141015D01*
X0127858Y0141077D01*
X0128005Y0141135D01*
X0128154Y0141190D01*
X0128304Y0141241D01*
X0128455Y0141288D01*
X0128607Y0141331D01*
X0128760Y0141370D01*
X0128915Y0141406D01*
X0129070Y0141437D01*
X0129226Y0141465D01*
X0129382Y0141489D01*
X0129539Y0141509D01*
X0129697Y0141525D01*
X0129854Y0141537D01*
X0130013Y0141545D01*
X0130171Y0141549D01*
X0130329Y0141549D01*
X0130487Y0141545D01*
X0130646Y0141537D01*
X0130803Y0141525D01*
X0130961Y0141509D01*
X0131118Y0141489D01*
X0131274Y0141465D01*
X0131430Y0141437D01*
X0131585Y0141406D01*
X0131740Y0141370D01*
X0131893Y0141331D01*
X0132045Y0141288D01*
X0132196Y0141241D01*
X0132346Y0141190D01*
X0132495Y0141135D01*
X0132642Y0141077D01*
X0132788Y0141015D01*
X0132932Y0140950D01*
X0133074Y0140880D01*
X0133215Y0140808D01*
X0133354Y0140731D01*
X0133490Y0140652D01*
X0133625Y0140568D01*
X0133758Y0140482D01*
X0133888Y0140392D01*
X0134016Y0140299D01*
X0134142Y0140203D01*
X0134265Y0140103D01*
X0134386Y0140001D01*
X0134504Y0139896D01*
X0134619Y0139787D01*
X0134732Y0139676D01*
X0134842Y0139562D01*
X0134949Y0139445D01*
X0135053Y0139326D01*
X0135154Y0139204D01*
X0135251Y0139079D01*
X0135346Y0138952D01*
X0135437Y0138823D01*
X0135526Y0138692D01*
X0135610Y0138558D01*
X0135692Y0138422D01*
X0135770Y0138285D01*
X0135844Y0138145D01*
X0135915Y0138003D01*
X0135983Y0137860D01*
X0136047Y0137715D01*
X0136107Y0137569D01*
X0136163Y0137421D01*
X0136216Y0137272D01*
X0136265Y0137121D01*
X0136310Y0136969D01*
X0136351Y0136816D01*
X0136389Y0136663D01*
X0136422Y0136508D01*
X0136452Y0136352D01*
X0136478Y0136196D01*
X0136499Y0136039D01*
X0136517Y0135882D01*
X0136531Y0135724D01*
X0136541Y0135566D01*
X0136547Y0135408D01*
X0136549Y0135250D01*
X0136547Y0135092D01*
X0136541Y0134934D01*
X0136531Y0134776D01*
X0136517Y0134618D01*
X0136499Y0134461D01*
X0136478Y0134304D01*
X0136452Y0134148D01*
X0136422Y0133992D01*
X0136389Y0133837D01*
X0136351Y0133684D01*
X0136310Y0133531D01*
X0136265Y0133379D01*
X0136216Y0133228D01*
X0136163Y0133079D01*
X0136107Y0132931D01*
X0136047Y0132785D01*
X0135983Y0132640D01*
X0135915Y0132497D01*
X0135844Y0132355D01*
X0135770Y0132215D01*
X0135692Y0132078D01*
X0135610Y0131942D01*
X0135526Y0131808D01*
X0135437Y0131677D01*
X0135346Y0131548D01*
X0135251Y0131421D01*
X0135154Y0131296D01*
X0135053Y0131174D01*
X0134949Y0131055D01*
X0134842Y0130938D01*
X0134732Y0130824D01*
X0134619Y0130713D01*
X0134504Y0130604D01*
X0134386Y0130499D01*
X0134265Y0130397D01*
X0134142Y0130297D01*
X0134016Y0130201D01*
X0133888Y0130108D01*
X0133758Y0130018D01*
X0133625Y0129932D01*
X0133490Y0129848D01*
X0133354Y0129769D01*
X0133215Y0129692D01*
X0133074Y0129620D01*
X0132932Y0129550D01*
X0132788Y0129485D01*
X0132642Y0129423D01*
X0132495Y0129365D01*
X0132346Y0129310D01*
X0132196Y0129259D01*
X0132045Y0129212D01*
X0131893Y0129169D01*
X0131740Y0129130D01*
X0131585Y0129094D01*
X0131430Y0129063D01*
X0131274Y0129035D01*
X0131118Y0129011D01*
X0130961Y0128991D01*
X0130803Y0128975D01*
X0130646Y0128963D01*
X0130487Y0128955D01*
X0130329Y0128951D01*
X0130171Y0128951D01*
X0130013Y0128955D01*
X0129854Y0128963D01*
X0129697Y0128975D01*
X0129539Y0128991D01*
X0129382Y0129011D01*
X0129226Y0129035D01*
X0129070Y0129063D01*
X0128915Y0129094D01*
X0128760Y0129130D01*
X0128607Y0129169D01*
X0128455Y0129212D01*
X0128304Y0129259D01*
X0128154Y0129310D01*
X0128005Y0129365D01*
X0127858Y0129423D01*
X0127712Y0129485D01*
X0127568Y0129550D01*
X0127426Y0129620D01*
X0127285Y0129692D01*
X0127146Y0129769D01*
X0127010Y0129848D01*
X0126875Y0129932D01*
X0126742Y0130018D01*
X0126612Y0130108D01*
X0126484Y0130201D01*
X0126358Y0130297D01*
X0126235Y0130397D01*
X0126114Y0130499D01*
X0125996Y0130604D01*
X0125881Y0130713D01*
X0125768Y0130824D01*
X0125658Y0130938D01*
X0125551Y0131055D01*
X0125447Y0131174D01*
X0125346Y0131296D01*
X0125249Y0131421D01*
X0125154Y0131548D01*
X0125063Y0131677D01*
X0124974Y0131808D01*
X0124890Y0131942D01*
X0124808Y0132078D01*
X0124730Y0132215D01*
X0124656Y0132355D01*
X0124585Y0132497D01*
X0124517Y0132640D01*
X0124453Y0132785D01*
X0124393Y0132931D01*
X0124337Y0133079D01*
X0124284Y0133228D01*
X0124235Y0133379D01*
X0124190Y0133531D01*
X0124149Y0133684D01*
X0124111Y0133837D01*
X0124078Y0133992D01*
X0124048Y0134148D01*
X0124022Y0134304D01*
X0124001Y0134461D01*
X0123983Y0134618D01*
X0123969Y0134776D01*
X0123959Y0134934D01*
X0123953Y0135092D01*
X0123951Y0135250D01*
X0201451Y0015250D02*
X0201453Y0015408D01*
X0201459Y0015566D01*
X0201469Y0015724D01*
X0201483Y0015882D01*
X0201501Y0016039D01*
X0201522Y0016196D01*
X0201548Y0016352D01*
X0201578Y0016508D01*
X0201611Y0016663D01*
X0201649Y0016816D01*
X0201690Y0016969D01*
X0201735Y0017121D01*
X0201784Y0017272D01*
X0201837Y0017421D01*
X0201893Y0017569D01*
X0201953Y0017715D01*
X0202017Y0017860D01*
X0202085Y0018003D01*
X0202156Y0018145D01*
X0202230Y0018285D01*
X0202308Y0018422D01*
X0202390Y0018558D01*
X0202474Y0018692D01*
X0202563Y0018823D01*
X0202654Y0018952D01*
X0202749Y0019079D01*
X0202846Y0019204D01*
X0202947Y0019326D01*
X0203051Y0019445D01*
X0203158Y0019562D01*
X0203268Y0019676D01*
X0203381Y0019787D01*
X0203496Y0019896D01*
X0203614Y0020001D01*
X0203735Y0020103D01*
X0203858Y0020203D01*
X0203984Y0020299D01*
X0204112Y0020392D01*
X0204242Y0020482D01*
X0204375Y0020568D01*
X0204510Y0020652D01*
X0204646Y0020731D01*
X0204785Y0020808D01*
X0204926Y0020880D01*
X0205068Y0020950D01*
X0205212Y0021015D01*
X0205358Y0021077D01*
X0205505Y0021135D01*
X0205654Y0021190D01*
X0205804Y0021241D01*
X0205955Y0021288D01*
X0206107Y0021331D01*
X0206260Y0021370D01*
X0206415Y0021406D01*
X0206570Y0021437D01*
X0206726Y0021465D01*
X0206882Y0021489D01*
X0207039Y0021509D01*
X0207197Y0021525D01*
X0207354Y0021537D01*
X0207513Y0021545D01*
X0207671Y0021549D01*
X0207829Y0021549D01*
X0207987Y0021545D01*
X0208146Y0021537D01*
X0208303Y0021525D01*
X0208461Y0021509D01*
X0208618Y0021489D01*
X0208774Y0021465D01*
X0208930Y0021437D01*
X0209085Y0021406D01*
X0209240Y0021370D01*
X0209393Y0021331D01*
X0209545Y0021288D01*
X0209696Y0021241D01*
X0209846Y0021190D01*
X0209995Y0021135D01*
X0210142Y0021077D01*
X0210288Y0021015D01*
X0210432Y0020950D01*
X0210574Y0020880D01*
X0210715Y0020808D01*
X0210854Y0020731D01*
X0210990Y0020652D01*
X0211125Y0020568D01*
X0211258Y0020482D01*
X0211388Y0020392D01*
X0211516Y0020299D01*
X0211642Y0020203D01*
X0211765Y0020103D01*
X0211886Y0020001D01*
X0212004Y0019896D01*
X0212119Y0019787D01*
X0212232Y0019676D01*
X0212342Y0019562D01*
X0212449Y0019445D01*
X0212553Y0019326D01*
X0212654Y0019204D01*
X0212751Y0019079D01*
X0212846Y0018952D01*
X0212937Y0018823D01*
X0213026Y0018692D01*
X0213110Y0018558D01*
X0213192Y0018422D01*
X0213270Y0018285D01*
X0213344Y0018145D01*
X0213415Y0018003D01*
X0213483Y0017860D01*
X0213547Y0017715D01*
X0213607Y0017569D01*
X0213663Y0017421D01*
X0213716Y0017272D01*
X0213765Y0017121D01*
X0213810Y0016969D01*
X0213851Y0016816D01*
X0213889Y0016663D01*
X0213922Y0016508D01*
X0213952Y0016352D01*
X0213978Y0016196D01*
X0213999Y0016039D01*
X0214017Y0015882D01*
X0214031Y0015724D01*
X0214041Y0015566D01*
X0214047Y0015408D01*
X0214049Y0015250D01*
X0214047Y0015092D01*
X0214041Y0014934D01*
X0214031Y0014776D01*
X0214017Y0014618D01*
X0213999Y0014461D01*
X0213978Y0014304D01*
X0213952Y0014148D01*
X0213922Y0013992D01*
X0213889Y0013837D01*
X0213851Y0013684D01*
X0213810Y0013531D01*
X0213765Y0013379D01*
X0213716Y0013228D01*
X0213663Y0013079D01*
X0213607Y0012931D01*
X0213547Y0012785D01*
X0213483Y0012640D01*
X0213415Y0012497D01*
X0213344Y0012355D01*
X0213270Y0012215D01*
X0213192Y0012078D01*
X0213110Y0011942D01*
X0213026Y0011808D01*
X0212937Y0011677D01*
X0212846Y0011548D01*
X0212751Y0011421D01*
X0212654Y0011296D01*
X0212553Y0011174D01*
X0212449Y0011055D01*
X0212342Y0010938D01*
X0212232Y0010824D01*
X0212119Y0010713D01*
X0212004Y0010604D01*
X0211886Y0010499D01*
X0211765Y0010397D01*
X0211642Y0010297D01*
X0211516Y0010201D01*
X0211388Y0010108D01*
X0211258Y0010018D01*
X0211125Y0009932D01*
X0210990Y0009848D01*
X0210854Y0009769D01*
X0210715Y0009692D01*
X0210574Y0009620D01*
X0210432Y0009550D01*
X0210288Y0009485D01*
X0210142Y0009423D01*
X0209995Y0009365D01*
X0209846Y0009310D01*
X0209696Y0009259D01*
X0209545Y0009212D01*
X0209393Y0009169D01*
X0209240Y0009130D01*
X0209085Y0009094D01*
X0208930Y0009063D01*
X0208774Y0009035D01*
X0208618Y0009011D01*
X0208461Y0008991D01*
X0208303Y0008975D01*
X0208146Y0008963D01*
X0207987Y0008955D01*
X0207829Y0008951D01*
X0207671Y0008951D01*
X0207513Y0008955D01*
X0207354Y0008963D01*
X0207197Y0008975D01*
X0207039Y0008991D01*
X0206882Y0009011D01*
X0206726Y0009035D01*
X0206570Y0009063D01*
X0206415Y0009094D01*
X0206260Y0009130D01*
X0206107Y0009169D01*
X0205955Y0009212D01*
X0205804Y0009259D01*
X0205654Y0009310D01*
X0205505Y0009365D01*
X0205358Y0009423D01*
X0205212Y0009485D01*
X0205068Y0009550D01*
X0204926Y0009620D01*
X0204785Y0009692D01*
X0204646Y0009769D01*
X0204510Y0009848D01*
X0204375Y0009932D01*
X0204242Y0010018D01*
X0204112Y0010108D01*
X0203984Y0010201D01*
X0203858Y0010297D01*
X0203735Y0010397D01*
X0203614Y0010499D01*
X0203496Y0010604D01*
X0203381Y0010713D01*
X0203268Y0010824D01*
X0203158Y0010938D01*
X0203051Y0011055D01*
X0202947Y0011174D01*
X0202846Y0011296D01*
X0202749Y0011421D01*
X0202654Y0011548D01*
X0202563Y0011677D01*
X0202474Y0011808D01*
X0202390Y0011942D01*
X0202308Y0012078D01*
X0202230Y0012215D01*
X0202156Y0012355D01*
X0202085Y0012497D01*
X0202017Y0012640D01*
X0201953Y0012785D01*
X0201893Y0012931D01*
X0201837Y0013079D01*
X0201784Y0013228D01*
X0201735Y0013379D01*
X0201690Y0013531D01*
X0201649Y0013684D01*
X0201611Y0013837D01*
X0201578Y0013992D01*
X0201548Y0014148D01*
X0201522Y0014304D01*
X0201501Y0014461D01*
X0201483Y0014618D01*
X0201469Y0014776D01*
X0201459Y0014934D01*
X0201453Y0015092D01*
X0201451Y0015250D01*
X0231451Y0015250D02*
X0231453Y0015408D01*
X0231459Y0015566D01*
X0231469Y0015724D01*
X0231483Y0015882D01*
X0231501Y0016039D01*
X0231522Y0016196D01*
X0231548Y0016352D01*
X0231578Y0016508D01*
X0231611Y0016663D01*
X0231649Y0016816D01*
X0231690Y0016969D01*
X0231735Y0017121D01*
X0231784Y0017272D01*
X0231837Y0017421D01*
X0231893Y0017569D01*
X0231953Y0017715D01*
X0232017Y0017860D01*
X0232085Y0018003D01*
X0232156Y0018145D01*
X0232230Y0018285D01*
X0232308Y0018422D01*
X0232390Y0018558D01*
X0232474Y0018692D01*
X0232563Y0018823D01*
X0232654Y0018952D01*
X0232749Y0019079D01*
X0232846Y0019204D01*
X0232947Y0019326D01*
X0233051Y0019445D01*
X0233158Y0019562D01*
X0233268Y0019676D01*
X0233381Y0019787D01*
X0233496Y0019896D01*
X0233614Y0020001D01*
X0233735Y0020103D01*
X0233858Y0020203D01*
X0233984Y0020299D01*
X0234112Y0020392D01*
X0234242Y0020482D01*
X0234375Y0020568D01*
X0234510Y0020652D01*
X0234646Y0020731D01*
X0234785Y0020808D01*
X0234926Y0020880D01*
X0235068Y0020950D01*
X0235212Y0021015D01*
X0235358Y0021077D01*
X0235505Y0021135D01*
X0235654Y0021190D01*
X0235804Y0021241D01*
X0235955Y0021288D01*
X0236107Y0021331D01*
X0236260Y0021370D01*
X0236415Y0021406D01*
X0236570Y0021437D01*
X0236726Y0021465D01*
X0236882Y0021489D01*
X0237039Y0021509D01*
X0237197Y0021525D01*
X0237354Y0021537D01*
X0237513Y0021545D01*
X0237671Y0021549D01*
X0237829Y0021549D01*
X0237987Y0021545D01*
X0238146Y0021537D01*
X0238303Y0021525D01*
X0238461Y0021509D01*
X0238618Y0021489D01*
X0238774Y0021465D01*
X0238930Y0021437D01*
X0239085Y0021406D01*
X0239240Y0021370D01*
X0239393Y0021331D01*
X0239545Y0021288D01*
X0239696Y0021241D01*
X0239846Y0021190D01*
X0239995Y0021135D01*
X0240142Y0021077D01*
X0240288Y0021015D01*
X0240432Y0020950D01*
X0240574Y0020880D01*
X0240715Y0020808D01*
X0240854Y0020731D01*
X0240990Y0020652D01*
X0241125Y0020568D01*
X0241258Y0020482D01*
X0241388Y0020392D01*
X0241516Y0020299D01*
X0241642Y0020203D01*
X0241765Y0020103D01*
X0241886Y0020001D01*
X0242004Y0019896D01*
X0242119Y0019787D01*
X0242232Y0019676D01*
X0242342Y0019562D01*
X0242449Y0019445D01*
X0242553Y0019326D01*
X0242654Y0019204D01*
X0242751Y0019079D01*
X0242846Y0018952D01*
X0242937Y0018823D01*
X0243026Y0018692D01*
X0243110Y0018558D01*
X0243192Y0018422D01*
X0243270Y0018285D01*
X0243344Y0018145D01*
X0243415Y0018003D01*
X0243483Y0017860D01*
X0243547Y0017715D01*
X0243607Y0017569D01*
X0243663Y0017421D01*
X0243716Y0017272D01*
X0243765Y0017121D01*
X0243810Y0016969D01*
X0243851Y0016816D01*
X0243889Y0016663D01*
X0243922Y0016508D01*
X0243952Y0016352D01*
X0243978Y0016196D01*
X0243999Y0016039D01*
X0244017Y0015882D01*
X0244031Y0015724D01*
X0244041Y0015566D01*
X0244047Y0015408D01*
X0244049Y0015250D01*
X0244047Y0015092D01*
X0244041Y0014934D01*
X0244031Y0014776D01*
X0244017Y0014618D01*
X0243999Y0014461D01*
X0243978Y0014304D01*
X0243952Y0014148D01*
X0243922Y0013992D01*
X0243889Y0013837D01*
X0243851Y0013684D01*
X0243810Y0013531D01*
X0243765Y0013379D01*
X0243716Y0013228D01*
X0243663Y0013079D01*
X0243607Y0012931D01*
X0243547Y0012785D01*
X0243483Y0012640D01*
X0243415Y0012497D01*
X0243344Y0012355D01*
X0243270Y0012215D01*
X0243192Y0012078D01*
X0243110Y0011942D01*
X0243026Y0011808D01*
X0242937Y0011677D01*
X0242846Y0011548D01*
X0242751Y0011421D01*
X0242654Y0011296D01*
X0242553Y0011174D01*
X0242449Y0011055D01*
X0242342Y0010938D01*
X0242232Y0010824D01*
X0242119Y0010713D01*
X0242004Y0010604D01*
X0241886Y0010499D01*
X0241765Y0010397D01*
X0241642Y0010297D01*
X0241516Y0010201D01*
X0241388Y0010108D01*
X0241258Y0010018D01*
X0241125Y0009932D01*
X0240990Y0009848D01*
X0240854Y0009769D01*
X0240715Y0009692D01*
X0240574Y0009620D01*
X0240432Y0009550D01*
X0240288Y0009485D01*
X0240142Y0009423D01*
X0239995Y0009365D01*
X0239846Y0009310D01*
X0239696Y0009259D01*
X0239545Y0009212D01*
X0239393Y0009169D01*
X0239240Y0009130D01*
X0239085Y0009094D01*
X0238930Y0009063D01*
X0238774Y0009035D01*
X0238618Y0009011D01*
X0238461Y0008991D01*
X0238303Y0008975D01*
X0238146Y0008963D01*
X0237987Y0008955D01*
X0237829Y0008951D01*
X0237671Y0008951D01*
X0237513Y0008955D01*
X0237354Y0008963D01*
X0237197Y0008975D01*
X0237039Y0008991D01*
X0236882Y0009011D01*
X0236726Y0009035D01*
X0236570Y0009063D01*
X0236415Y0009094D01*
X0236260Y0009130D01*
X0236107Y0009169D01*
X0235955Y0009212D01*
X0235804Y0009259D01*
X0235654Y0009310D01*
X0235505Y0009365D01*
X0235358Y0009423D01*
X0235212Y0009485D01*
X0235068Y0009550D01*
X0234926Y0009620D01*
X0234785Y0009692D01*
X0234646Y0009769D01*
X0234510Y0009848D01*
X0234375Y0009932D01*
X0234242Y0010018D01*
X0234112Y0010108D01*
X0233984Y0010201D01*
X0233858Y0010297D01*
X0233735Y0010397D01*
X0233614Y0010499D01*
X0233496Y0010604D01*
X0233381Y0010713D01*
X0233268Y0010824D01*
X0233158Y0010938D01*
X0233051Y0011055D01*
X0232947Y0011174D01*
X0232846Y0011296D01*
X0232749Y0011421D01*
X0232654Y0011548D01*
X0232563Y0011677D01*
X0232474Y0011808D01*
X0232390Y0011942D01*
X0232308Y0012078D01*
X0232230Y0012215D01*
X0232156Y0012355D01*
X0232085Y0012497D01*
X0232017Y0012640D01*
X0231953Y0012785D01*
X0231893Y0012931D01*
X0231837Y0013079D01*
X0231784Y0013228D01*
X0231735Y0013379D01*
X0231690Y0013531D01*
X0231649Y0013684D01*
X0231611Y0013837D01*
X0231578Y0013992D01*
X0231548Y0014148D01*
X0231522Y0014304D01*
X0231501Y0014461D01*
X0231483Y0014618D01*
X0231469Y0014776D01*
X0231459Y0014934D01*
X0231453Y0015092D01*
X0231451Y0015250D01*
X0267701Y0015250D02*
X0267703Y0015408D01*
X0267709Y0015566D01*
X0267719Y0015724D01*
X0267733Y0015882D01*
X0267751Y0016039D01*
X0267772Y0016196D01*
X0267798Y0016352D01*
X0267828Y0016508D01*
X0267861Y0016663D01*
X0267899Y0016816D01*
X0267940Y0016969D01*
X0267985Y0017121D01*
X0268034Y0017272D01*
X0268087Y0017421D01*
X0268143Y0017569D01*
X0268203Y0017715D01*
X0268267Y0017860D01*
X0268335Y0018003D01*
X0268406Y0018145D01*
X0268480Y0018285D01*
X0268558Y0018422D01*
X0268640Y0018558D01*
X0268724Y0018692D01*
X0268813Y0018823D01*
X0268904Y0018952D01*
X0268999Y0019079D01*
X0269096Y0019204D01*
X0269197Y0019326D01*
X0269301Y0019445D01*
X0269408Y0019562D01*
X0269518Y0019676D01*
X0269631Y0019787D01*
X0269746Y0019896D01*
X0269864Y0020001D01*
X0269985Y0020103D01*
X0270108Y0020203D01*
X0270234Y0020299D01*
X0270362Y0020392D01*
X0270492Y0020482D01*
X0270625Y0020568D01*
X0270760Y0020652D01*
X0270896Y0020731D01*
X0271035Y0020808D01*
X0271176Y0020880D01*
X0271318Y0020950D01*
X0271462Y0021015D01*
X0271608Y0021077D01*
X0271755Y0021135D01*
X0271904Y0021190D01*
X0272054Y0021241D01*
X0272205Y0021288D01*
X0272357Y0021331D01*
X0272510Y0021370D01*
X0272665Y0021406D01*
X0272820Y0021437D01*
X0272976Y0021465D01*
X0273132Y0021489D01*
X0273289Y0021509D01*
X0273447Y0021525D01*
X0273604Y0021537D01*
X0273763Y0021545D01*
X0273921Y0021549D01*
X0274079Y0021549D01*
X0274237Y0021545D01*
X0274396Y0021537D01*
X0274553Y0021525D01*
X0274711Y0021509D01*
X0274868Y0021489D01*
X0275024Y0021465D01*
X0275180Y0021437D01*
X0275335Y0021406D01*
X0275490Y0021370D01*
X0275643Y0021331D01*
X0275795Y0021288D01*
X0275946Y0021241D01*
X0276096Y0021190D01*
X0276245Y0021135D01*
X0276392Y0021077D01*
X0276538Y0021015D01*
X0276682Y0020950D01*
X0276824Y0020880D01*
X0276965Y0020808D01*
X0277104Y0020731D01*
X0277240Y0020652D01*
X0277375Y0020568D01*
X0277508Y0020482D01*
X0277638Y0020392D01*
X0277766Y0020299D01*
X0277892Y0020203D01*
X0278015Y0020103D01*
X0278136Y0020001D01*
X0278254Y0019896D01*
X0278369Y0019787D01*
X0278482Y0019676D01*
X0278592Y0019562D01*
X0278699Y0019445D01*
X0278803Y0019326D01*
X0278904Y0019204D01*
X0279001Y0019079D01*
X0279096Y0018952D01*
X0279187Y0018823D01*
X0279276Y0018692D01*
X0279360Y0018558D01*
X0279442Y0018422D01*
X0279520Y0018285D01*
X0279594Y0018145D01*
X0279665Y0018003D01*
X0279733Y0017860D01*
X0279797Y0017715D01*
X0279857Y0017569D01*
X0279913Y0017421D01*
X0279966Y0017272D01*
X0280015Y0017121D01*
X0280060Y0016969D01*
X0280101Y0016816D01*
X0280139Y0016663D01*
X0280172Y0016508D01*
X0280202Y0016352D01*
X0280228Y0016196D01*
X0280249Y0016039D01*
X0280267Y0015882D01*
X0280281Y0015724D01*
X0280291Y0015566D01*
X0280297Y0015408D01*
X0280299Y0015250D01*
X0280297Y0015092D01*
X0280291Y0014934D01*
X0280281Y0014776D01*
X0280267Y0014618D01*
X0280249Y0014461D01*
X0280228Y0014304D01*
X0280202Y0014148D01*
X0280172Y0013992D01*
X0280139Y0013837D01*
X0280101Y0013684D01*
X0280060Y0013531D01*
X0280015Y0013379D01*
X0279966Y0013228D01*
X0279913Y0013079D01*
X0279857Y0012931D01*
X0279797Y0012785D01*
X0279733Y0012640D01*
X0279665Y0012497D01*
X0279594Y0012355D01*
X0279520Y0012215D01*
X0279442Y0012078D01*
X0279360Y0011942D01*
X0279276Y0011808D01*
X0279187Y0011677D01*
X0279096Y0011548D01*
X0279001Y0011421D01*
X0278904Y0011296D01*
X0278803Y0011174D01*
X0278699Y0011055D01*
X0278592Y0010938D01*
X0278482Y0010824D01*
X0278369Y0010713D01*
X0278254Y0010604D01*
X0278136Y0010499D01*
X0278015Y0010397D01*
X0277892Y0010297D01*
X0277766Y0010201D01*
X0277638Y0010108D01*
X0277508Y0010018D01*
X0277375Y0009932D01*
X0277240Y0009848D01*
X0277104Y0009769D01*
X0276965Y0009692D01*
X0276824Y0009620D01*
X0276682Y0009550D01*
X0276538Y0009485D01*
X0276392Y0009423D01*
X0276245Y0009365D01*
X0276096Y0009310D01*
X0275946Y0009259D01*
X0275795Y0009212D01*
X0275643Y0009169D01*
X0275490Y0009130D01*
X0275335Y0009094D01*
X0275180Y0009063D01*
X0275024Y0009035D01*
X0274868Y0009011D01*
X0274711Y0008991D01*
X0274553Y0008975D01*
X0274396Y0008963D01*
X0274237Y0008955D01*
X0274079Y0008951D01*
X0273921Y0008951D01*
X0273763Y0008955D01*
X0273604Y0008963D01*
X0273447Y0008975D01*
X0273289Y0008991D01*
X0273132Y0009011D01*
X0272976Y0009035D01*
X0272820Y0009063D01*
X0272665Y0009094D01*
X0272510Y0009130D01*
X0272357Y0009169D01*
X0272205Y0009212D01*
X0272054Y0009259D01*
X0271904Y0009310D01*
X0271755Y0009365D01*
X0271608Y0009423D01*
X0271462Y0009485D01*
X0271318Y0009550D01*
X0271176Y0009620D01*
X0271035Y0009692D01*
X0270896Y0009769D01*
X0270760Y0009848D01*
X0270625Y0009932D01*
X0270492Y0010018D01*
X0270362Y0010108D01*
X0270234Y0010201D01*
X0270108Y0010297D01*
X0269985Y0010397D01*
X0269864Y0010499D01*
X0269746Y0010604D01*
X0269631Y0010713D01*
X0269518Y0010824D01*
X0269408Y0010938D01*
X0269301Y0011055D01*
X0269197Y0011174D01*
X0269096Y0011296D01*
X0268999Y0011421D01*
X0268904Y0011548D01*
X0268813Y0011677D01*
X0268724Y0011808D01*
X0268640Y0011942D01*
X0268558Y0012078D01*
X0268480Y0012215D01*
X0268406Y0012355D01*
X0268335Y0012497D01*
X0268267Y0012640D01*
X0268203Y0012785D01*
X0268143Y0012931D01*
X0268087Y0013079D01*
X0268034Y0013228D01*
X0267985Y0013379D01*
X0267940Y0013531D01*
X0267899Y0013684D01*
X0267861Y0013837D01*
X0267828Y0013992D01*
X0267798Y0014148D01*
X0267772Y0014304D01*
X0267751Y0014461D01*
X0267733Y0014618D01*
X0267719Y0014776D01*
X0267709Y0014934D01*
X0267703Y0015092D01*
X0267701Y0015250D01*
X0297701Y0015250D02*
X0297703Y0015408D01*
X0297709Y0015566D01*
X0297719Y0015724D01*
X0297733Y0015882D01*
X0297751Y0016039D01*
X0297772Y0016196D01*
X0297798Y0016352D01*
X0297828Y0016508D01*
X0297861Y0016663D01*
X0297899Y0016816D01*
X0297940Y0016969D01*
X0297985Y0017121D01*
X0298034Y0017272D01*
X0298087Y0017421D01*
X0298143Y0017569D01*
X0298203Y0017715D01*
X0298267Y0017860D01*
X0298335Y0018003D01*
X0298406Y0018145D01*
X0298480Y0018285D01*
X0298558Y0018422D01*
X0298640Y0018558D01*
X0298724Y0018692D01*
X0298813Y0018823D01*
X0298904Y0018952D01*
X0298999Y0019079D01*
X0299096Y0019204D01*
X0299197Y0019326D01*
X0299301Y0019445D01*
X0299408Y0019562D01*
X0299518Y0019676D01*
X0299631Y0019787D01*
X0299746Y0019896D01*
X0299864Y0020001D01*
X0299985Y0020103D01*
X0300108Y0020203D01*
X0300234Y0020299D01*
X0300362Y0020392D01*
X0300492Y0020482D01*
X0300625Y0020568D01*
X0300760Y0020652D01*
X0300896Y0020731D01*
X0301035Y0020808D01*
X0301176Y0020880D01*
X0301318Y0020950D01*
X0301462Y0021015D01*
X0301608Y0021077D01*
X0301755Y0021135D01*
X0301904Y0021190D01*
X0302054Y0021241D01*
X0302205Y0021288D01*
X0302357Y0021331D01*
X0302510Y0021370D01*
X0302665Y0021406D01*
X0302820Y0021437D01*
X0302976Y0021465D01*
X0303132Y0021489D01*
X0303289Y0021509D01*
X0303447Y0021525D01*
X0303604Y0021537D01*
X0303763Y0021545D01*
X0303921Y0021549D01*
X0304079Y0021549D01*
X0304237Y0021545D01*
X0304396Y0021537D01*
X0304553Y0021525D01*
X0304711Y0021509D01*
X0304868Y0021489D01*
X0305024Y0021465D01*
X0305180Y0021437D01*
X0305335Y0021406D01*
X0305490Y0021370D01*
X0305643Y0021331D01*
X0305795Y0021288D01*
X0305946Y0021241D01*
X0306096Y0021190D01*
X0306245Y0021135D01*
X0306392Y0021077D01*
X0306538Y0021015D01*
X0306682Y0020950D01*
X0306824Y0020880D01*
X0306965Y0020808D01*
X0307104Y0020731D01*
X0307240Y0020652D01*
X0307375Y0020568D01*
X0307508Y0020482D01*
X0307638Y0020392D01*
X0307766Y0020299D01*
X0307892Y0020203D01*
X0308015Y0020103D01*
X0308136Y0020001D01*
X0308254Y0019896D01*
X0308369Y0019787D01*
X0308482Y0019676D01*
X0308592Y0019562D01*
X0308699Y0019445D01*
X0308803Y0019326D01*
X0308904Y0019204D01*
X0309001Y0019079D01*
X0309096Y0018952D01*
X0309187Y0018823D01*
X0309276Y0018692D01*
X0309360Y0018558D01*
X0309442Y0018422D01*
X0309520Y0018285D01*
X0309594Y0018145D01*
X0309665Y0018003D01*
X0309733Y0017860D01*
X0309797Y0017715D01*
X0309857Y0017569D01*
X0309913Y0017421D01*
X0309966Y0017272D01*
X0310015Y0017121D01*
X0310060Y0016969D01*
X0310101Y0016816D01*
X0310139Y0016663D01*
X0310172Y0016508D01*
X0310202Y0016352D01*
X0310228Y0016196D01*
X0310249Y0016039D01*
X0310267Y0015882D01*
X0310281Y0015724D01*
X0310291Y0015566D01*
X0310297Y0015408D01*
X0310299Y0015250D01*
X0310297Y0015092D01*
X0310291Y0014934D01*
X0310281Y0014776D01*
X0310267Y0014618D01*
X0310249Y0014461D01*
X0310228Y0014304D01*
X0310202Y0014148D01*
X0310172Y0013992D01*
X0310139Y0013837D01*
X0310101Y0013684D01*
X0310060Y0013531D01*
X0310015Y0013379D01*
X0309966Y0013228D01*
X0309913Y0013079D01*
X0309857Y0012931D01*
X0309797Y0012785D01*
X0309733Y0012640D01*
X0309665Y0012497D01*
X0309594Y0012355D01*
X0309520Y0012215D01*
X0309442Y0012078D01*
X0309360Y0011942D01*
X0309276Y0011808D01*
X0309187Y0011677D01*
X0309096Y0011548D01*
X0309001Y0011421D01*
X0308904Y0011296D01*
X0308803Y0011174D01*
X0308699Y0011055D01*
X0308592Y0010938D01*
X0308482Y0010824D01*
X0308369Y0010713D01*
X0308254Y0010604D01*
X0308136Y0010499D01*
X0308015Y0010397D01*
X0307892Y0010297D01*
X0307766Y0010201D01*
X0307638Y0010108D01*
X0307508Y0010018D01*
X0307375Y0009932D01*
X0307240Y0009848D01*
X0307104Y0009769D01*
X0306965Y0009692D01*
X0306824Y0009620D01*
X0306682Y0009550D01*
X0306538Y0009485D01*
X0306392Y0009423D01*
X0306245Y0009365D01*
X0306096Y0009310D01*
X0305946Y0009259D01*
X0305795Y0009212D01*
X0305643Y0009169D01*
X0305490Y0009130D01*
X0305335Y0009094D01*
X0305180Y0009063D01*
X0305024Y0009035D01*
X0304868Y0009011D01*
X0304711Y0008991D01*
X0304553Y0008975D01*
X0304396Y0008963D01*
X0304237Y0008955D01*
X0304079Y0008951D01*
X0303921Y0008951D01*
X0303763Y0008955D01*
X0303604Y0008963D01*
X0303447Y0008975D01*
X0303289Y0008991D01*
X0303132Y0009011D01*
X0302976Y0009035D01*
X0302820Y0009063D01*
X0302665Y0009094D01*
X0302510Y0009130D01*
X0302357Y0009169D01*
X0302205Y0009212D01*
X0302054Y0009259D01*
X0301904Y0009310D01*
X0301755Y0009365D01*
X0301608Y0009423D01*
X0301462Y0009485D01*
X0301318Y0009550D01*
X0301176Y0009620D01*
X0301035Y0009692D01*
X0300896Y0009769D01*
X0300760Y0009848D01*
X0300625Y0009932D01*
X0300492Y0010018D01*
X0300362Y0010108D01*
X0300234Y0010201D01*
X0300108Y0010297D01*
X0299985Y0010397D01*
X0299864Y0010499D01*
X0299746Y0010604D01*
X0299631Y0010713D01*
X0299518Y0010824D01*
X0299408Y0010938D01*
X0299301Y0011055D01*
X0299197Y0011174D01*
X0299096Y0011296D01*
X0298999Y0011421D01*
X0298904Y0011548D01*
X0298813Y0011677D01*
X0298724Y0011808D01*
X0298640Y0011942D01*
X0298558Y0012078D01*
X0298480Y0012215D01*
X0298406Y0012355D01*
X0298335Y0012497D01*
X0298267Y0012640D01*
X0298203Y0012785D01*
X0298143Y0012931D01*
X0298087Y0013079D01*
X0298034Y0013228D01*
X0297985Y0013379D01*
X0297940Y0013531D01*
X0297899Y0013684D01*
X0297861Y0013837D01*
X0297828Y0013992D01*
X0297798Y0014148D01*
X0297772Y0014304D01*
X0297751Y0014461D01*
X0297733Y0014618D01*
X0297719Y0014776D01*
X0297709Y0014934D01*
X0297703Y0015092D01*
X0297701Y0015250D01*
X0333951Y0015250D02*
X0333953Y0015408D01*
X0333959Y0015566D01*
X0333969Y0015724D01*
X0333983Y0015882D01*
X0334001Y0016039D01*
X0334022Y0016196D01*
X0334048Y0016352D01*
X0334078Y0016508D01*
X0334111Y0016663D01*
X0334149Y0016816D01*
X0334190Y0016969D01*
X0334235Y0017121D01*
X0334284Y0017272D01*
X0334337Y0017421D01*
X0334393Y0017569D01*
X0334453Y0017715D01*
X0334517Y0017860D01*
X0334585Y0018003D01*
X0334656Y0018145D01*
X0334730Y0018285D01*
X0334808Y0018422D01*
X0334890Y0018558D01*
X0334974Y0018692D01*
X0335063Y0018823D01*
X0335154Y0018952D01*
X0335249Y0019079D01*
X0335346Y0019204D01*
X0335447Y0019326D01*
X0335551Y0019445D01*
X0335658Y0019562D01*
X0335768Y0019676D01*
X0335881Y0019787D01*
X0335996Y0019896D01*
X0336114Y0020001D01*
X0336235Y0020103D01*
X0336358Y0020203D01*
X0336484Y0020299D01*
X0336612Y0020392D01*
X0336742Y0020482D01*
X0336875Y0020568D01*
X0337010Y0020652D01*
X0337146Y0020731D01*
X0337285Y0020808D01*
X0337426Y0020880D01*
X0337568Y0020950D01*
X0337712Y0021015D01*
X0337858Y0021077D01*
X0338005Y0021135D01*
X0338154Y0021190D01*
X0338304Y0021241D01*
X0338455Y0021288D01*
X0338607Y0021331D01*
X0338760Y0021370D01*
X0338915Y0021406D01*
X0339070Y0021437D01*
X0339226Y0021465D01*
X0339382Y0021489D01*
X0339539Y0021509D01*
X0339697Y0021525D01*
X0339854Y0021537D01*
X0340013Y0021545D01*
X0340171Y0021549D01*
X0340329Y0021549D01*
X0340487Y0021545D01*
X0340646Y0021537D01*
X0340803Y0021525D01*
X0340961Y0021509D01*
X0341118Y0021489D01*
X0341274Y0021465D01*
X0341430Y0021437D01*
X0341585Y0021406D01*
X0341740Y0021370D01*
X0341893Y0021331D01*
X0342045Y0021288D01*
X0342196Y0021241D01*
X0342346Y0021190D01*
X0342495Y0021135D01*
X0342642Y0021077D01*
X0342788Y0021015D01*
X0342932Y0020950D01*
X0343074Y0020880D01*
X0343215Y0020808D01*
X0343354Y0020731D01*
X0343490Y0020652D01*
X0343625Y0020568D01*
X0343758Y0020482D01*
X0343888Y0020392D01*
X0344016Y0020299D01*
X0344142Y0020203D01*
X0344265Y0020103D01*
X0344386Y0020001D01*
X0344504Y0019896D01*
X0344619Y0019787D01*
X0344732Y0019676D01*
X0344842Y0019562D01*
X0344949Y0019445D01*
X0345053Y0019326D01*
X0345154Y0019204D01*
X0345251Y0019079D01*
X0345346Y0018952D01*
X0345437Y0018823D01*
X0345526Y0018692D01*
X0345610Y0018558D01*
X0345692Y0018422D01*
X0345770Y0018285D01*
X0345844Y0018145D01*
X0345915Y0018003D01*
X0345983Y0017860D01*
X0346047Y0017715D01*
X0346107Y0017569D01*
X0346163Y0017421D01*
X0346216Y0017272D01*
X0346265Y0017121D01*
X0346310Y0016969D01*
X0346351Y0016816D01*
X0346389Y0016663D01*
X0346422Y0016508D01*
X0346452Y0016352D01*
X0346478Y0016196D01*
X0346499Y0016039D01*
X0346517Y0015882D01*
X0346531Y0015724D01*
X0346541Y0015566D01*
X0346547Y0015408D01*
X0346549Y0015250D01*
X0346547Y0015092D01*
X0346541Y0014934D01*
X0346531Y0014776D01*
X0346517Y0014618D01*
X0346499Y0014461D01*
X0346478Y0014304D01*
X0346452Y0014148D01*
X0346422Y0013992D01*
X0346389Y0013837D01*
X0346351Y0013684D01*
X0346310Y0013531D01*
X0346265Y0013379D01*
X0346216Y0013228D01*
X0346163Y0013079D01*
X0346107Y0012931D01*
X0346047Y0012785D01*
X0345983Y0012640D01*
X0345915Y0012497D01*
X0345844Y0012355D01*
X0345770Y0012215D01*
X0345692Y0012078D01*
X0345610Y0011942D01*
X0345526Y0011808D01*
X0345437Y0011677D01*
X0345346Y0011548D01*
X0345251Y0011421D01*
X0345154Y0011296D01*
X0345053Y0011174D01*
X0344949Y0011055D01*
X0344842Y0010938D01*
X0344732Y0010824D01*
X0344619Y0010713D01*
X0344504Y0010604D01*
X0344386Y0010499D01*
X0344265Y0010397D01*
X0344142Y0010297D01*
X0344016Y0010201D01*
X0343888Y0010108D01*
X0343758Y0010018D01*
X0343625Y0009932D01*
X0343490Y0009848D01*
X0343354Y0009769D01*
X0343215Y0009692D01*
X0343074Y0009620D01*
X0342932Y0009550D01*
X0342788Y0009485D01*
X0342642Y0009423D01*
X0342495Y0009365D01*
X0342346Y0009310D01*
X0342196Y0009259D01*
X0342045Y0009212D01*
X0341893Y0009169D01*
X0341740Y0009130D01*
X0341585Y0009094D01*
X0341430Y0009063D01*
X0341274Y0009035D01*
X0341118Y0009011D01*
X0340961Y0008991D01*
X0340803Y0008975D01*
X0340646Y0008963D01*
X0340487Y0008955D01*
X0340329Y0008951D01*
X0340171Y0008951D01*
X0340013Y0008955D01*
X0339854Y0008963D01*
X0339697Y0008975D01*
X0339539Y0008991D01*
X0339382Y0009011D01*
X0339226Y0009035D01*
X0339070Y0009063D01*
X0338915Y0009094D01*
X0338760Y0009130D01*
X0338607Y0009169D01*
X0338455Y0009212D01*
X0338304Y0009259D01*
X0338154Y0009310D01*
X0338005Y0009365D01*
X0337858Y0009423D01*
X0337712Y0009485D01*
X0337568Y0009550D01*
X0337426Y0009620D01*
X0337285Y0009692D01*
X0337146Y0009769D01*
X0337010Y0009848D01*
X0336875Y0009932D01*
X0336742Y0010018D01*
X0336612Y0010108D01*
X0336484Y0010201D01*
X0336358Y0010297D01*
X0336235Y0010397D01*
X0336114Y0010499D01*
X0335996Y0010604D01*
X0335881Y0010713D01*
X0335768Y0010824D01*
X0335658Y0010938D01*
X0335551Y0011055D01*
X0335447Y0011174D01*
X0335346Y0011296D01*
X0335249Y0011421D01*
X0335154Y0011548D01*
X0335063Y0011677D01*
X0334974Y0011808D01*
X0334890Y0011942D01*
X0334808Y0012078D01*
X0334730Y0012215D01*
X0334656Y0012355D01*
X0334585Y0012497D01*
X0334517Y0012640D01*
X0334453Y0012785D01*
X0334393Y0012931D01*
X0334337Y0013079D01*
X0334284Y0013228D01*
X0334235Y0013379D01*
X0334190Y0013531D01*
X0334149Y0013684D01*
X0334111Y0013837D01*
X0334078Y0013992D01*
X0334048Y0014148D01*
X0334022Y0014304D01*
X0334001Y0014461D01*
X0333983Y0014618D01*
X0333969Y0014776D01*
X0333959Y0014934D01*
X0333953Y0015092D01*
X0333951Y0015250D01*
X0363951Y0015250D02*
X0363953Y0015408D01*
X0363959Y0015566D01*
X0363969Y0015724D01*
X0363983Y0015882D01*
X0364001Y0016039D01*
X0364022Y0016196D01*
X0364048Y0016352D01*
X0364078Y0016508D01*
X0364111Y0016663D01*
X0364149Y0016816D01*
X0364190Y0016969D01*
X0364235Y0017121D01*
X0364284Y0017272D01*
X0364337Y0017421D01*
X0364393Y0017569D01*
X0364453Y0017715D01*
X0364517Y0017860D01*
X0364585Y0018003D01*
X0364656Y0018145D01*
X0364730Y0018285D01*
X0364808Y0018422D01*
X0364890Y0018558D01*
X0364974Y0018692D01*
X0365063Y0018823D01*
X0365154Y0018952D01*
X0365249Y0019079D01*
X0365346Y0019204D01*
X0365447Y0019326D01*
X0365551Y0019445D01*
X0365658Y0019562D01*
X0365768Y0019676D01*
X0365881Y0019787D01*
X0365996Y0019896D01*
X0366114Y0020001D01*
X0366235Y0020103D01*
X0366358Y0020203D01*
X0366484Y0020299D01*
X0366612Y0020392D01*
X0366742Y0020482D01*
X0366875Y0020568D01*
X0367010Y0020652D01*
X0367146Y0020731D01*
X0367285Y0020808D01*
X0367426Y0020880D01*
X0367568Y0020950D01*
X0367712Y0021015D01*
X0367858Y0021077D01*
X0368005Y0021135D01*
X0368154Y0021190D01*
X0368304Y0021241D01*
X0368455Y0021288D01*
X0368607Y0021331D01*
X0368760Y0021370D01*
X0368915Y0021406D01*
X0369070Y0021437D01*
X0369226Y0021465D01*
X0369382Y0021489D01*
X0369539Y0021509D01*
X0369697Y0021525D01*
X0369854Y0021537D01*
X0370013Y0021545D01*
X0370171Y0021549D01*
X0370329Y0021549D01*
X0370487Y0021545D01*
X0370646Y0021537D01*
X0370803Y0021525D01*
X0370961Y0021509D01*
X0371118Y0021489D01*
X0371274Y0021465D01*
X0371430Y0021437D01*
X0371585Y0021406D01*
X0371740Y0021370D01*
X0371893Y0021331D01*
X0372045Y0021288D01*
X0372196Y0021241D01*
X0372346Y0021190D01*
X0372495Y0021135D01*
X0372642Y0021077D01*
X0372788Y0021015D01*
X0372932Y0020950D01*
X0373074Y0020880D01*
X0373215Y0020808D01*
X0373354Y0020731D01*
X0373490Y0020652D01*
X0373625Y0020568D01*
X0373758Y0020482D01*
X0373888Y0020392D01*
X0374016Y0020299D01*
X0374142Y0020203D01*
X0374265Y0020103D01*
X0374386Y0020001D01*
X0374504Y0019896D01*
X0374619Y0019787D01*
X0374732Y0019676D01*
X0374842Y0019562D01*
X0374949Y0019445D01*
X0375053Y0019326D01*
X0375154Y0019204D01*
X0375251Y0019079D01*
X0375346Y0018952D01*
X0375437Y0018823D01*
X0375526Y0018692D01*
X0375610Y0018558D01*
X0375692Y0018422D01*
X0375770Y0018285D01*
X0375844Y0018145D01*
X0375915Y0018003D01*
X0375983Y0017860D01*
X0376047Y0017715D01*
X0376107Y0017569D01*
X0376163Y0017421D01*
X0376216Y0017272D01*
X0376265Y0017121D01*
X0376310Y0016969D01*
X0376351Y0016816D01*
X0376389Y0016663D01*
X0376422Y0016508D01*
X0376452Y0016352D01*
X0376478Y0016196D01*
X0376499Y0016039D01*
X0376517Y0015882D01*
X0376531Y0015724D01*
X0376541Y0015566D01*
X0376547Y0015408D01*
X0376549Y0015250D01*
X0376547Y0015092D01*
X0376541Y0014934D01*
X0376531Y0014776D01*
X0376517Y0014618D01*
X0376499Y0014461D01*
X0376478Y0014304D01*
X0376452Y0014148D01*
X0376422Y0013992D01*
X0376389Y0013837D01*
X0376351Y0013684D01*
X0376310Y0013531D01*
X0376265Y0013379D01*
X0376216Y0013228D01*
X0376163Y0013079D01*
X0376107Y0012931D01*
X0376047Y0012785D01*
X0375983Y0012640D01*
X0375915Y0012497D01*
X0375844Y0012355D01*
X0375770Y0012215D01*
X0375692Y0012078D01*
X0375610Y0011942D01*
X0375526Y0011808D01*
X0375437Y0011677D01*
X0375346Y0011548D01*
X0375251Y0011421D01*
X0375154Y0011296D01*
X0375053Y0011174D01*
X0374949Y0011055D01*
X0374842Y0010938D01*
X0374732Y0010824D01*
X0374619Y0010713D01*
X0374504Y0010604D01*
X0374386Y0010499D01*
X0374265Y0010397D01*
X0374142Y0010297D01*
X0374016Y0010201D01*
X0373888Y0010108D01*
X0373758Y0010018D01*
X0373625Y0009932D01*
X0373490Y0009848D01*
X0373354Y0009769D01*
X0373215Y0009692D01*
X0373074Y0009620D01*
X0372932Y0009550D01*
X0372788Y0009485D01*
X0372642Y0009423D01*
X0372495Y0009365D01*
X0372346Y0009310D01*
X0372196Y0009259D01*
X0372045Y0009212D01*
X0371893Y0009169D01*
X0371740Y0009130D01*
X0371585Y0009094D01*
X0371430Y0009063D01*
X0371274Y0009035D01*
X0371118Y0009011D01*
X0370961Y0008991D01*
X0370803Y0008975D01*
X0370646Y0008963D01*
X0370487Y0008955D01*
X0370329Y0008951D01*
X0370171Y0008951D01*
X0370013Y0008955D01*
X0369854Y0008963D01*
X0369697Y0008975D01*
X0369539Y0008991D01*
X0369382Y0009011D01*
X0369226Y0009035D01*
X0369070Y0009063D01*
X0368915Y0009094D01*
X0368760Y0009130D01*
X0368607Y0009169D01*
X0368455Y0009212D01*
X0368304Y0009259D01*
X0368154Y0009310D01*
X0368005Y0009365D01*
X0367858Y0009423D01*
X0367712Y0009485D01*
X0367568Y0009550D01*
X0367426Y0009620D01*
X0367285Y0009692D01*
X0367146Y0009769D01*
X0367010Y0009848D01*
X0366875Y0009932D01*
X0366742Y0010018D01*
X0366612Y0010108D01*
X0366484Y0010201D01*
X0366358Y0010297D01*
X0366235Y0010397D01*
X0366114Y0010499D01*
X0365996Y0010604D01*
X0365881Y0010713D01*
X0365768Y0010824D01*
X0365658Y0010938D01*
X0365551Y0011055D01*
X0365447Y0011174D01*
X0365346Y0011296D01*
X0365249Y0011421D01*
X0365154Y0011548D01*
X0365063Y0011677D01*
X0364974Y0011808D01*
X0364890Y0011942D01*
X0364808Y0012078D01*
X0364730Y0012215D01*
X0364656Y0012355D01*
X0364585Y0012497D01*
X0364517Y0012640D01*
X0364453Y0012785D01*
X0364393Y0012931D01*
X0364337Y0013079D01*
X0364284Y0013228D01*
X0364235Y0013379D01*
X0364190Y0013531D01*
X0364149Y0013684D01*
X0364111Y0013837D01*
X0364078Y0013992D01*
X0364048Y0014148D01*
X0364022Y0014304D01*
X0364001Y0014461D01*
X0363983Y0014618D01*
X0363969Y0014776D01*
X0363959Y0014934D01*
X0363953Y0015092D01*
X0363951Y0015250D01*
X0260117Y0112883D02*
X0260117Y0132130D01*
X0246633Y0132130D01*
X0246633Y0112883D01*
D13*
X0230970Y0063852D02*
X0232422Y0062401D01*
X0230487Y0062401D01*
X0229475Y0061434D02*
X0228991Y0061434D01*
X0228991Y0060950D01*
X0229475Y0060950D01*
X0229475Y0061434D01*
X0228002Y0061434D02*
X0226067Y0063369D01*
X0226067Y0063852D01*
X0228002Y0063852D01*
X0228002Y0061434D02*
X0228002Y0060950D01*
X0225055Y0060950D02*
X0225055Y0063852D01*
X0223604Y0062885D02*
X0225055Y0061917D01*
X0223604Y0060950D01*
X0225055Y0055102D02*
X0225055Y0052200D01*
X0225055Y0053167D02*
X0223604Y0054135D01*
X0225055Y0053167D02*
X0223604Y0052200D01*
X0226067Y0054619D02*
X0226067Y0055102D01*
X0228002Y0055102D01*
X0226067Y0054619D02*
X0228002Y0052684D01*
X0228002Y0052200D01*
X0228991Y0052200D02*
X0229475Y0052200D01*
X0229475Y0052684D01*
X0228991Y0052684D01*
X0228991Y0052200D01*
X0230970Y0052200D02*
X0230970Y0055102D01*
X0232422Y0053651D01*
X0230487Y0053651D01*
X0230472Y0046352D02*
X0230472Y0043450D01*
X0229505Y0043450D02*
X0231440Y0043450D01*
X0232429Y0043450D02*
X0232913Y0043450D01*
X0232913Y0043934D01*
X0232429Y0043934D01*
X0232429Y0043450D01*
X0233924Y0043934D02*
X0234408Y0043450D01*
X0235376Y0043450D01*
X0235859Y0043934D01*
X0233924Y0045869D01*
X0233924Y0043934D01*
X0233924Y0045869D02*
X0234408Y0046352D01*
X0235376Y0046352D01*
X0235859Y0045869D01*
X0235859Y0043934D01*
X0231440Y0045385D02*
X0230472Y0046352D01*
X0228009Y0044901D02*
X0228009Y0043934D01*
X0228009Y0042966D01*
X0228493Y0042483D01*
X0227526Y0043450D02*
X0227042Y0043450D01*
X0226558Y0043934D01*
X0226558Y0044901D01*
X0225547Y0044901D02*
X0224579Y0044901D01*
X0225547Y0043450D02*
X0225547Y0046352D01*
X0223612Y0046352D01*
X0227526Y0043450D02*
X0228009Y0043934D01*
X0230970Y0060950D02*
X0230970Y0063852D01*
X0289854Y0062885D02*
X0291305Y0061917D01*
X0289854Y0060950D01*
X0291305Y0060950D02*
X0291305Y0063852D01*
X0292317Y0063852D02*
X0292317Y0063369D01*
X0294252Y0061434D01*
X0294252Y0060950D01*
X0295241Y0060950D02*
X0295725Y0060950D01*
X0295725Y0061434D01*
X0295241Y0061434D01*
X0295241Y0060950D01*
X0297220Y0060950D02*
X0297220Y0063852D01*
X0298672Y0062401D01*
X0296737Y0062401D01*
X0294252Y0063852D02*
X0292317Y0063852D01*
X0292317Y0055102D02*
X0292317Y0054619D01*
X0294252Y0052684D01*
X0294252Y0052200D01*
X0295241Y0052200D02*
X0295725Y0052200D01*
X0295725Y0052684D01*
X0295241Y0052684D01*
X0295241Y0052200D01*
X0297220Y0052200D02*
X0297220Y0055102D01*
X0298672Y0053651D01*
X0296737Y0053651D01*
X0294252Y0055102D02*
X0292317Y0055102D01*
X0291305Y0055102D02*
X0291305Y0052200D01*
X0291305Y0053167D02*
X0289854Y0054135D01*
X0291305Y0053167D02*
X0289854Y0052200D01*
X0289862Y0046352D02*
X0291797Y0046352D01*
X0291797Y0043450D01*
X0292808Y0043934D02*
X0292808Y0044901D01*
X0292808Y0043934D02*
X0293292Y0043450D01*
X0293776Y0043450D01*
X0294259Y0043934D01*
X0294259Y0042966D01*
X0294743Y0042483D01*
X0295755Y0043450D02*
X0297690Y0043450D01*
X0296722Y0043450D02*
X0296722Y0046352D01*
X0297690Y0045385D01*
X0298679Y0043934D02*
X0298679Y0043450D01*
X0299163Y0043450D01*
X0299163Y0043934D01*
X0298679Y0043934D01*
X0300174Y0043934D02*
X0300658Y0043450D01*
X0301626Y0043450D01*
X0302109Y0043934D01*
X0300174Y0045869D01*
X0300174Y0043934D01*
X0300174Y0045869D02*
X0300658Y0046352D01*
X0301626Y0046352D01*
X0302109Y0045869D01*
X0302109Y0043934D01*
X0294259Y0043934D02*
X0294259Y0044901D01*
X0291797Y0044901D02*
X0290829Y0044901D01*
X0356112Y0046352D02*
X0358047Y0046352D01*
X0358047Y0043450D01*
X0359058Y0043934D02*
X0359058Y0044901D01*
X0359058Y0043934D02*
X0359542Y0043450D01*
X0360026Y0043450D01*
X0360509Y0043934D01*
X0360509Y0042966D01*
X0360993Y0042483D01*
X0362005Y0043450D02*
X0363940Y0043450D01*
X0362972Y0043450D02*
X0362972Y0046352D01*
X0363940Y0045385D01*
X0364929Y0043934D02*
X0364929Y0043450D01*
X0365413Y0043450D01*
X0365413Y0043934D01*
X0364929Y0043934D01*
X0366424Y0043934D02*
X0366908Y0043450D01*
X0367876Y0043450D01*
X0368359Y0043934D01*
X0366424Y0045869D01*
X0366424Y0043934D01*
X0366424Y0045869D02*
X0366908Y0046352D01*
X0367876Y0046352D01*
X0368359Y0045869D01*
X0368359Y0043934D01*
X0360509Y0043934D02*
X0360509Y0044901D01*
X0358047Y0044901D02*
X0357079Y0044901D01*
X0357555Y0052200D02*
X0357555Y0055102D01*
X0358567Y0055102D02*
X0358567Y0054619D01*
X0360502Y0052684D01*
X0360502Y0052200D01*
X0361491Y0052200D02*
X0361975Y0052200D01*
X0361975Y0052684D01*
X0361491Y0052684D01*
X0361491Y0052200D01*
X0363470Y0052200D02*
X0363470Y0055102D01*
X0364922Y0053651D01*
X0362987Y0053651D01*
X0360502Y0055102D02*
X0358567Y0055102D01*
X0357555Y0053167D02*
X0356104Y0054135D01*
X0357555Y0053167D02*
X0356104Y0052200D01*
X0356104Y0060950D02*
X0357555Y0061917D01*
X0356104Y0062885D01*
X0357555Y0063852D02*
X0357555Y0060950D01*
X0358567Y0063369D02*
X0360502Y0061434D01*
X0360502Y0060950D01*
X0361491Y0060950D02*
X0361975Y0060950D01*
X0361975Y0061434D01*
X0361491Y0061434D01*
X0361491Y0060950D01*
X0363470Y0060950D02*
X0363470Y0063852D01*
X0364922Y0062401D01*
X0362987Y0062401D01*
X0360502Y0063852D02*
X0358567Y0063852D01*
X0358567Y0063369D01*
X0348852Y0188435D02*
X0348852Y0190370D01*
X0348369Y0190370D01*
X0346434Y0188435D01*
X0345950Y0188435D01*
X0347401Y0191381D02*
X0347401Y0193316D01*
X0347401Y0194328D02*
X0347401Y0196263D01*
X0347885Y0196263D02*
X0345950Y0196263D01*
X0345950Y0197274D02*
X0348852Y0197274D01*
X0347885Y0196263D02*
X0348852Y0195295D01*
X0347885Y0194328D01*
X0345950Y0194328D01*
X0345950Y0192833D02*
X0348852Y0192833D01*
X0347401Y0191381D01*
X0347401Y0197274D02*
X0347401Y0199209D01*
X0346434Y0200221D02*
X0345950Y0200705D01*
X0345950Y0201672D01*
X0346434Y0202156D01*
X0345950Y0203167D02*
X0345950Y0205102D01*
X0345950Y0204135D02*
X0348852Y0204135D01*
X0347885Y0203167D01*
X0348369Y0202156D02*
X0348852Y0201672D01*
X0348852Y0200705D01*
X0348369Y0200221D01*
X0346434Y0200221D01*
X0345950Y0199209D02*
X0348852Y0199209D01*
X0348369Y0206114D02*
X0346434Y0206114D01*
X0345950Y0206598D01*
X0345950Y0207565D01*
X0346434Y0208049D01*
X0347401Y0208049D01*
X0347401Y0207081D01*
X0348369Y0206114D02*
X0348852Y0206598D01*
X0348852Y0207565D01*
X0348369Y0208049D01*
X0347885Y0209060D02*
X0348852Y0210028D01*
X0345950Y0210028D01*
X0345950Y0210995D02*
X0345950Y0209060D01*
X0345950Y0212007D02*
X0347885Y0213942D01*
X0348369Y0213942D01*
X0348852Y0213458D01*
X0348852Y0212491D01*
X0348369Y0212007D01*
X0345950Y0212007D02*
X0345950Y0213942D01*
X0346434Y0214953D02*
X0345950Y0215437D01*
X0345950Y0216405D01*
X0346434Y0216888D01*
X0347401Y0216888D01*
X0347885Y0216405D01*
X0347885Y0215921D01*
X0347401Y0214953D01*
X0348852Y0214953D01*
X0348852Y0216888D01*
X0338552Y0208761D02*
X0335650Y0208761D01*
X0335650Y0209728D02*
X0335650Y0207793D01*
X0334802Y0207287D02*
X0331900Y0207287D01*
X0331900Y0206320D02*
X0331900Y0208255D01*
X0330933Y0209266D02*
X0331416Y0209750D01*
X0332384Y0209750D01*
X0331900Y0210234D01*
X0331900Y0210718D01*
X0332384Y0211201D01*
X0333351Y0211201D01*
X0333351Y0212213D02*
X0333351Y0213180D01*
X0331900Y0212213D02*
X0334802Y0212213D01*
X0334802Y0214148D01*
X0333351Y0209750D02*
X0332384Y0209750D01*
X0334802Y0207287D02*
X0333835Y0206320D01*
X0332384Y0205330D02*
X0331900Y0205330D01*
X0331900Y0204847D01*
X0332384Y0204847D01*
X0332384Y0205330D01*
X0332384Y0203835D02*
X0331900Y0203351D01*
X0331900Y0202384D01*
X0332384Y0201900D01*
X0334319Y0203835D01*
X0332384Y0203835D01*
X0334319Y0203835D02*
X0334802Y0203351D01*
X0334802Y0202384D01*
X0334319Y0201900D01*
X0332384Y0201900D01*
X0335650Y0202384D02*
X0335650Y0203351D01*
X0336134Y0203835D01*
X0335650Y0204847D02*
X0335650Y0206781D01*
X0335650Y0205814D02*
X0338552Y0205814D01*
X0337585Y0204847D01*
X0338069Y0203835D02*
X0338552Y0203351D01*
X0338552Y0202384D01*
X0338069Y0201900D01*
X0336134Y0201900D01*
X0335650Y0202384D01*
X0337585Y0207793D02*
X0338552Y0208761D01*
X0331151Y0281828D02*
X0331151Y0283763D01*
X0330184Y0284775D02*
X0330184Y0285259D01*
X0329700Y0285259D01*
X0329700Y0284775D01*
X0330184Y0284775D01*
X0330184Y0286248D02*
X0329700Y0286248D01*
X0330184Y0286248D02*
X0332119Y0288183D01*
X0332602Y0288183D01*
X0332602Y0286248D01*
X0333450Y0285757D02*
X0336352Y0285757D01*
X0336352Y0287208D01*
X0335869Y0287692D01*
X0334901Y0287692D01*
X0334417Y0287208D01*
X0334417Y0285757D01*
X0334417Y0286724D02*
X0333450Y0287692D01*
X0332602Y0289195D02*
X0329700Y0289195D01*
X0330667Y0289195D02*
X0329700Y0290646D01*
X0330667Y0289195D02*
X0331635Y0290646D01*
X0333450Y0290155D02*
X0336352Y0290155D01*
X0334901Y0288703D01*
X0334901Y0290638D01*
X0338450Y0290646D02*
X0339417Y0289195D01*
X0340385Y0290646D01*
X0341352Y0289195D02*
X0338450Y0289195D01*
X0338934Y0288183D02*
X0338450Y0287699D01*
X0338450Y0286732D01*
X0338934Y0286248D01*
X0340869Y0288183D01*
X0338934Y0288183D01*
X0340869Y0288183D02*
X0341352Y0287699D01*
X0341352Y0286732D01*
X0340869Y0286248D01*
X0338934Y0286248D01*
X0338450Y0285237D02*
X0338450Y0283302D01*
X0338450Y0284269D02*
X0341352Y0284269D01*
X0340385Y0283302D01*
X0342200Y0282810D02*
X0345102Y0282810D01*
X0345102Y0284262D01*
X0344619Y0284745D01*
X0343651Y0284745D01*
X0343167Y0284262D01*
X0343167Y0282810D01*
X0343167Y0283778D02*
X0342200Y0284745D01*
X0342200Y0285757D02*
X0342200Y0287692D01*
X0342200Y0286724D02*
X0345102Y0286724D01*
X0344135Y0285757D01*
X0344135Y0288703D02*
X0345102Y0289671D01*
X0342200Y0289671D01*
X0342200Y0290638D02*
X0342200Y0288703D01*
X0347200Y0289195D02*
X0350102Y0289195D01*
X0350950Y0289187D02*
X0351434Y0288703D01*
X0350950Y0289187D02*
X0350950Y0290155D01*
X0351434Y0290638D01*
X0351917Y0290638D01*
X0352401Y0290155D01*
X0352401Y0289671D01*
X0352401Y0290155D02*
X0352885Y0290638D01*
X0353369Y0290638D01*
X0353852Y0290155D01*
X0353852Y0289187D01*
X0353369Y0288703D01*
X0353369Y0287692D02*
X0352401Y0287692D01*
X0351917Y0287208D01*
X0351917Y0285757D01*
X0350950Y0285757D02*
X0353852Y0285757D01*
X0353852Y0287208D01*
X0353369Y0287692D01*
X0351917Y0286724D02*
X0350950Y0287692D01*
X0350102Y0288183D02*
X0349619Y0288183D01*
X0347684Y0286248D01*
X0347200Y0286248D01*
X0347200Y0285237D02*
X0347200Y0283302D01*
X0349135Y0285237D01*
X0349619Y0285237D01*
X0350102Y0284753D01*
X0350102Y0283785D01*
X0349619Y0283302D01*
X0350102Y0286248D02*
X0350102Y0288183D01*
X0348167Y0289195D02*
X0349135Y0290646D01*
X0348167Y0289195D02*
X0347200Y0290646D01*
X0332602Y0283280D02*
X0331151Y0281828D01*
X0329700Y0283280D02*
X0332602Y0283280D01*
X0327602Y0285757D02*
X0327602Y0287208D01*
X0327119Y0287692D01*
X0326151Y0287692D01*
X0325667Y0287208D01*
X0325667Y0285757D01*
X0324700Y0285757D02*
X0327602Y0285757D01*
X0325667Y0286724D02*
X0324700Y0287692D01*
X0323852Y0288183D02*
X0323369Y0288183D01*
X0321434Y0286248D01*
X0320950Y0286248D01*
X0320950Y0285259D02*
X0320950Y0284775D01*
X0321434Y0284775D01*
X0321434Y0285259D01*
X0320950Y0285259D01*
X0320950Y0283280D02*
X0323852Y0283280D01*
X0322401Y0281828D01*
X0322401Y0283763D01*
X0323852Y0286248D02*
X0323852Y0288183D01*
X0323852Y0289195D02*
X0320950Y0289195D01*
X0321917Y0289195D02*
X0322885Y0290646D01*
X0321917Y0289195D02*
X0320950Y0290646D01*
X0324700Y0290155D02*
X0324700Y0289187D01*
X0325184Y0288703D01*
X0326151Y0288703D01*
X0326151Y0290155D01*
X0325667Y0290638D01*
X0325184Y0290638D01*
X0324700Y0290155D01*
X0326151Y0288703D02*
X0327119Y0289671D01*
X0327602Y0290638D01*
X0374150Y0335400D02*
X0376085Y0337335D01*
X0376569Y0337335D01*
X0377052Y0336851D01*
X0377052Y0335884D01*
X0376569Y0335400D01*
X0377900Y0335400D02*
X0380802Y0335400D01*
X0380802Y0336851D01*
X0380319Y0337335D01*
X0379351Y0337335D01*
X0378867Y0336851D01*
X0378867Y0335400D01*
X0378867Y0336367D02*
X0377900Y0337335D01*
X0377900Y0338347D02*
X0379835Y0340281D01*
X0380319Y0340281D01*
X0380802Y0339798D01*
X0380802Y0338830D01*
X0380319Y0338347D01*
X0377900Y0338347D02*
X0377900Y0340281D01*
X0377052Y0339798D02*
X0377052Y0338830D01*
X0376569Y0338347D01*
X0377052Y0339798D02*
X0376569Y0340281D01*
X0376085Y0340281D01*
X0374150Y0338347D01*
X0374150Y0340281D01*
X0374634Y0341293D02*
X0376569Y0343228D01*
X0374634Y0343228D01*
X0374150Y0342744D01*
X0374150Y0341777D01*
X0374634Y0341293D01*
X0376569Y0341293D01*
X0377052Y0341777D01*
X0377052Y0342744D01*
X0376569Y0343228D01*
X0374150Y0337335D02*
X0374150Y0335400D01*
X0238955Y0339050D02*
X0238955Y0341953D01*
X0237504Y0341953D01*
X0237021Y0341469D01*
X0237021Y0340502D01*
X0237504Y0340018D01*
X0238955Y0340018D01*
X0237988Y0340018D02*
X0237021Y0339050D01*
X0236009Y0339050D02*
X0236009Y0341953D01*
X0234074Y0341953D01*
X0233062Y0341469D02*
X0233062Y0340985D01*
X0232579Y0340502D01*
X0231611Y0340502D01*
X0231127Y0340018D01*
X0231127Y0339534D01*
X0231611Y0339050D01*
X0232579Y0339050D01*
X0233062Y0339534D01*
X0234074Y0339050D02*
X0236009Y0339050D01*
X0236009Y0340502D02*
X0235041Y0340502D01*
X0233062Y0341469D02*
X0232579Y0341953D01*
X0231611Y0341953D01*
X0231127Y0341469D01*
X0230116Y0341953D02*
X0230116Y0339050D01*
X0228181Y0339050D01*
X0229148Y0340502D02*
X0230116Y0340502D01*
X0230116Y0341953D02*
X0228181Y0341953D01*
X0227169Y0341953D02*
X0225234Y0341953D01*
X0226202Y0341953D02*
X0226202Y0339050D01*
X0224223Y0340502D02*
X0222288Y0340502D01*
X0221276Y0340018D02*
X0221276Y0340985D01*
X0220309Y0341953D01*
X0219312Y0340502D02*
X0217861Y0341953D01*
X0217861Y0339050D01*
X0216366Y0339050D02*
X0215398Y0340018D01*
X0215398Y0340985D01*
X0216366Y0341953D01*
X0217377Y0340502D02*
X0219312Y0340502D01*
X0220309Y0339050D02*
X0221276Y0340018D01*
X0220309Y0334453D02*
X0221276Y0333485D01*
X0221276Y0332518D01*
X0220309Y0331550D01*
X0219312Y0332034D02*
X0218828Y0331550D01*
X0217861Y0331550D01*
X0217377Y0332034D01*
X0217377Y0333002D01*
X0217861Y0333485D01*
X0218345Y0333485D01*
X0219312Y0333002D01*
X0219312Y0334453D01*
X0217377Y0334453D01*
X0216366Y0334453D02*
X0215398Y0333485D01*
X0215398Y0332518D01*
X0216366Y0331550D01*
X0216366Y0326953D02*
X0215398Y0325985D01*
X0215398Y0325018D01*
X0216366Y0324050D01*
X0217377Y0324534D02*
X0217377Y0325018D01*
X0217861Y0325502D01*
X0219312Y0325502D01*
X0219312Y0324534D01*
X0218828Y0324050D01*
X0217861Y0324050D01*
X0217377Y0324534D01*
X0218345Y0326469D02*
X0219312Y0325502D01*
X0218345Y0326469D02*
X0217377Y0326953D01*
X0220309Y0326953D02*
X0221276Y0325985D01*
X0221276Y0325018D01*
X0220309Y0324050D01*
X0222288Y0325502D02*
X0224223Y0325502D01*
X0225234Y0324050D02*
X0227169Y0324050D01*
X0226202Y0324050D02*
X0226202Y0326953D01*
X0227169Y0325985D01*
X0228181Y0323567D02*
X0230116Y0323567D01*
X0231127Y0324050D02*
X0233062Y0324050D01*
X0231127Y0325985D01*
X0231127Y0326469D01*
X0231611Y0326953D01*
X0232579Y0326953D01*
X0233062Y0326469D01*
X0234074Y0326469D02*
X0234074Y0325502D01*
X0234558Y0325018D01*
X0236009Y0325018D01*
X0236009Y0324050D02*
X0236009Y0326953D01*
X0234558Y0326953D01*
X0234074Y0326469D01*
X0233062Y0331550D02*
X0231127Y0331550D01*
X0230116Y0331067D02*
X0228181Y0331067D01*
X0227169Y0331550D02*
X0225234Y0333485D01*
X0225234Y0333969D01*
X0225718Y0334453D01*
X0226686Y0334453D01*
X0227169Y0333969D01*
X0227169Y0331550D02*
X0225234Y0331550D01*
X0224223Y0333002D02*
X0222288Y0333002D01*
X0231127Y0333485D02*
X0231127Y0333969D01*
X0231611Y0334453D01*
X0232579Y0334453D01*
X0233062Y0333969D01*
X0234074Y0333969D02*
X0234074Y0333002D01*
X0234558Y0332518D01*
X0236009Y0332518D01*
X0236009Y0331550D02*
X0236009Y0334453D01*
X0234558Y0334453D01*
X0234074Y0333969D01*
X0233062Y0331550D02*
X0231127Y0333485D01*
X0224230Y0346550D02*
X0224714Y0347034D01*
X0224230Y0346550D02*
X0223263Y0346550D01*
X0222779Y0347034D01*
X0222779Y0347518D01*
X0223263Y0348002D01*
X0223747Y0348002D01*
X0223263Y0348002D02*
X0222779Y0348485D01*
X0222779Y0348969D01*
X0223263Y0349453D01*
X0224230Y0349453D01*
X0224714Y0348969D01*
X0221767Y0347034D02*
X0221284Y0347034D01*
X0221284Y0346550D01*
X0221767Y0346550D01*
X0221767Y0347034D01*
X0220294Y0347034D02*
X0219810Y0346550D01*
X0218843Y0346550D01*
X0218359Y0347034D01*
X0218359Y0347518D01*
X0218843Y0348002D01*
X0219327Y0348002D01*
X0218843Y0348002D02*
X0218359Y0348485D01*
X0218359Y0348969D01*
X0218843Y0349453D01*
X0219810Y0349453D01*
X0220294Y0348969D01*
X0217348Y0349453D02*
X0217348Y0347518D01*
X0216380Y0346550D01*
X0215413Y0347518D01*
X0215413Y0349453D01*
X0215896Y0354050D02*
X0215413Y0354534D01*
X0215413Y0356469D01*
X0215896Y0356953D01*
X0217348Y0356953D01*
X0217348Y0354050D01*
X0215896Y0354050D01*
X0218359Y0354050D02*
X0218359Y0356953D01*
X0220294Y0356953D02*
X0218359Y0354050D01*
X0220294Y0354050D02*
X0220294Y0356953D01*
X0221306Y0356469D02*
X0221790Y0356953D01*
X0222757Y0356953D01*
X0223241Y0356469D01*
X0223241Y0354534D01*
X0222757Y0354050D01*
X0221790Y0354050D01*
X0221306Y0354534D01*
X0221306Y0355502D01*
X0222273Y0355502D01*
X0220294Y0319453D02*
X0218843Y0319453D01*
X0218359Y0318969D01*
X0218359Y0318002D01*
X0218843Y0317518D01*
X0220294Y0317518D01*
X0219327Y0317518D02*
X0218359Y0316550D01*
X0217348Y0316550D02*
X0215413Y0319453D01*
X0217348Y0319453D02*
X0215413Y0316550D01*
X0215413Y0311953D02*
X0217348Y0309050D01*
X0215413Y0309050D02*
X0217348Y0311953D01*
X0218359Y0311953D02*
X0220294Y0311953D01*
X0219327Y0311953D02*
X0219327Y0309050D01*
X0220294Y0316550D02*
X0220294Y0319453D01*
X0194802Y0282675D02*
X0194802Y0280740D01*
X0191900Y0280740D01*
X0192384Y0279728D02*
X0193351Y0279728D01*
X0192384Y0279728D02*
X0191900Y0279244D01*
X0191900Y0278761D01*
X0192384Y0278277D01*
X0191416Y0278277D01*
X0190933Y0277793D01*
X0192384Y0278277D02*
X0193351Y0278277D01*
X0192384Y0276781D02*
X0191900Y0276298D01*
X0191900Y0275330D01*
X0192384Y0274847D01*
X0194319Y0276781D01*
X0192384Y0276781D01*
X0192384Y0274847D02*
X0194319Y0274847D01*
X0194802Y0275330D01*
X0194802Y0276298D01*
X0194319Y0276781D01*
X0195650Y0276781D02*
X0195650Y0274847D01*
X0195650Y0275814D02*
X0198552Y0275814D01*
X0197585Y0274847D01*
X0198069Y0273835D02*
X0198552Y0273351D01*
X0198552Y0272384D01*
X0198069Y0271900D01*
X0196134Y0271900D01*
X0195650Y0272384D01*
X0195650Y0273351D01*
X0196134Y0273835D01*
X0194802Y0272867D02*
X0191900Y0272867D01*
X0191900Y0271900D02*
X0191900Y0273835D01*
X0193835Y0271900D02*
X0194802Y0272867D01*
X0196134Y0277793D02*
X0195650Y0278277D01*
X0195650Y0279244D01*
X0196134Y0279728D01*
X0196617Y0279728D01*
X0197101Y0279244D01*
X0197101Y0278761D01*
X0197101Y0279244D02*
X0197585Y0279728D01*
X0198069Y0279728D01*
X0198552Y0279244D01*
X0198552Y0278277D01*
X0198069Y0277793D01*
X0193351Y0280740D02*
X0193351Y0281707D01*
X0197602Y0239388D02*
X0197602Y0237453D01*
X0194700Y0237453D01*
X0195184Y0236442D02*
X0196151Y0236442D01*
X0195184Y0236442D02*
X0194700Y0235958D01*
X0194700Y0235474D01*
X0195184Y0234991D01*
X0194216Y0234991D01*
X0193733Y0234507D01*
X0194700Y0233495D02*
X0194700Y0231560D01*
X0194700Y0232528D02*
X0197602Y0232528D01*
X0196635Y0231560D01*
X0195184Y0230571D02*
X0194700Y0230571D01*
X0194700Y0230087D01*
X0195184Y0230087D01*
X0195184Y0230571D01*
X0195184Y0229076D02*
X0194700Y0228592D01*
X0194700Y0227624D01*
X0195184Y0227141D01*
X0197119Y0229076D01*
X0195184Y0229076D01*
X0197119Y0229076D02*
X0197602Y0228592D01*
X0197602Y0227624D01*
X0197119Y0227141D01*
X0195184Y0227141D01*
X0195184Y0234991D02*
X0196151Y0234991D01*
X0198450Y0234991D02*
X0198450Y0235958D01*
X0198934Y0236442D01*
X0198450Y0237453D02*
X0200385Y0239388D01*
X0200869Y0239388D01*
X0201352Y0238905D01*
X0201352Y0237937D01*
X0200869Y0237453D01*
X0200869Y0236442D02*
X0201352Y0235958D01*
X0201352Y0234991D01*
X0200869Y0234507D01*
X0198934Y0234507D01*
X0198450Y0234991D01*
X0198450Y0237453D02*
X0198450Y0239388D01*
X0196151Y0238421D02*
X0196151Y0237453D01*
X0195792Y0203852D02*
X0195308Y0203369D01*
X0195308Y0202401D01*
X0195792Y0201917D01*
X0197243Y0201917D01*
X0197243Y0200950D02*
X0197243Y0203852D01*
X0195792Y0203852D01*
X0194297Y0203852D02*
X0192362Y0203852D01*
X0192362Y0203369D01*
X0194297Y0201434D01*
X0194297Y0200950D01*
X0193805Y0200102D02*
X0193805Y0197200D01*
X0193805Y0198167D02*
X0192354Y0199135D01*
X0193805Y0198167D02*
X0192354Y0197200D01*
X0194817Y0197684D02*
X0195301Y0197200D01*
X0196268Y0197200D01*
X0196752Y0197684D01*
X0194817Y0199619D01*
X0194817Y0197684D01*
X0194817Y0199619D02*
X0195301Y0200102D01*
X0196268Y0200102D01*
X0196752Y0199619D01*
X0196752Y0197684D01*
X0197763Y0197200D02*
X0199698Y0197200D01*
X0198731Y0197200D02*
X0198731Y0200102D01*
X0199698Y0199135D01*
X0196276Y0201917D02*
X0195308Y0200950D01*
D14*
X0221530Y0212811D02*
X0221530Y0232543D01*
X0209010Y0232543D01*
X0209010Y0245457D01*
X0221530Y0245457D01*
X0221530Y0253457D01*
X0232687Y0265220D01*
X0263419Y0265220D01*
X0273970Y0254063D01*
X0273970Y0245063D01*
X0286490Y0245063D01*
X0286490Y0232543D01*
X0273970Y0232543D01*
X0273970Y0212811D01*
X0270750Y0212811D01*
X0262325Y0221661D01*
X0235750Y0221661D01*
X0226750Y0212811D01*
X0221530Y0212811D01*
X0211648Y0239000D02*
X0211650Y0239120D01*
X0211656Y0239240D01*
X0211666Y0239359D01*
X0211680Y0239478D01*
X0211698Y0239597D01*
X0211719Y0239715D01*
X0211745Y0239832D01*
X0211775Y0239948D01*
X0211808Y0240063D01*
X0211845Y0240177D01*
X0211886Y0240289D01*
X0211931Y0240401D01*
X0211980Y0240510D01*
X0212032Y0240618D01*
X0212087Y0240725D01*
X0212146Y0240829D01*
X0212209Y0240931D01*
X0212275Y0241031D01*
X0212344Y0241129D01*
X0212416Y0241225D01*
X0212492Y0241318D01*
X0212570Y0241408D01*
X0212652Y0241496D01*
X0212736Y0241581D01*
X0212823Y0241664D01*
X0212913Y0241743D01*
X0213006Y0241819D01*
X0213101Y0241892D01*
X0213198Y0241962D01*
X0213298Y0242029D01*
X0213399Y0242092D01*
X0213503Y0242152D01*
X0213609Y0242209D01*
X0213716Y0242262D01*
X0213826Y0242311D01*
X0213937Y0242357D01*
X0214049Y0242399D01*
X0214163Y0242437D01*
X0214277Y0242471D01*
X0214393Y0242502D01*
X0214510Y0242528D01*
X0214628Y0242551D01*
X0214746Y0242570D01*
X0214865Y0242585D01*
X0214985Y0242596D01*
X0215104Y0242603D01*
X0215224Y0242606D01*
X0215344Y0242605D01*
X0215464Y0242600D01*
X0215583Y0242591D01*
X0215702Y0242578D01*
X0215821Y0242561D01*
X0215939Y0242540D01*
X0216056Y0242516D01*
X0216173Y0242487D01*
X0216288Y0242455D01*
X0216402Y0242418D01*
X0216515Y0242378D01*
X0216627Y0242334D01*
X0216737Y0242287D01*
X0216846Y0242236D01*
X0216952Y0242181D01*
X0217057Y0242123D01*
X0217160Y0242061D01*
X0217261Y0241996D01*
X0217359Y0241928D01*
X0217455Y0241856D01*
X0217549Y0241782D01*
X0217640Y0241704D01*
X0217729Y0241623D01*
X0217814Y0241539D01*
X0217897Y0241453D01*
X0217977Y0241363D01*
X0218055Y0241272D01*
X0218128Y0241177D01*
X0218199Y0241081D01*
X0218267Y0240982D01*
X0218331Y0240880D01*
X0218392Y0240777D01*
X0218449Y0240672D01*
X0218503Y0240565D01*
X0218553Y0240456D01*
X0218600Y0240345D01*
X0218643Y0240233D01*
X0218682Y0240120D01*
X0218717Y0240005D01*
X0218748Y0239890D01*
X0218776Y0239773D01*
X0218800Y0239656D01*
X0218820Y0239537D01*
X0218836Y0239419D01*
X0218848Y0239299D01*
X0218856Y0239180D01*
X0218860Y0239060D01*
X0218860Y0238940D01*
X0218856Y0238820D01*
X0218848Y0238701D01*
X0218836Y0238581D01*
X0218820Y0238463D01*
X0218800Y0238344D01*
X0218776Y0238227D01*
X0218748Y0238110D01*
X0218717Y0237995D01*
X0218682Y0237880D01*
X0218643Y0237767D01*
X0218600Y0237655D01*
X0218553Y0237544D01*
X0218503Y0237435D01*
X0218449Y0237328D01*
X0218392Y0237223D01*
X0218331Y0237120D01*
X0218267Y0237018D01*
X0218199Y0236919D01*
X0218128Y0236823D01*
X0218055Y0236728D01*
X0217977Y0236637D01*
X0217897Y0236547D01*
X0217814Y0236461D01*
X0217729Y0236377D01*
X0217640Y0236296D01*
X0217549Y0236218D01*
X0217455Y0236144D01*
X0217359Y0236072D01*
X0217261Y0236004D01*
X0217160Y0235939D01*
X0217057Y0235877D01*
X0216952Y0235819D01*
X0216846Y0235764D01*
X0216737Y0235713D01*
X0216627Y0235666D01*
X0216515Y0235622D01*
X0216402Y0235582D01*
X0216288Y0235545D01*
X0216173Y0235513D01*
X0216056Y0235484D01*
X0215939Y0235460D01*
X0215821Y0235439D01*
X0215702Y0235422D01*
X0215583Y0235409D01*
X0215464Y0235400D01*
X0215344Y0235395D01*
X0215224Y0235394D01*
X0215104Y0235397D01*
X0214985Y0235404D01*
X0214865Y0235415D01*
X0214746Y0235430D01*
X0214628Y0235449D01*
X0214510Y0235472D01*
X0214393Y0235498D01*
X0214277Y0235529D01*
X0214163Y0235563D01*
X0214049Y0235601D01*
X0213937Y0235643D01*
X0213826Y0235689D01*
X0213716Y0235738D01*
X0213609Y0235791D01*
X0213503Y0235848D01*
X0213399Y0235908D01*
X0213298Y0235971D01*
X0213198Y0236038D01*
X0213101Y0236108D01*
X0213006Y0236181D01*
X0212913Y0236257D01*
X0212823Y0236336D01*
X0212736Y0236419D01*
X0212652Y0236504D01*
X0212570Y0236592D01*
X0212492Y0236682D01*
X0212416Y0236775D01*
X0212344Y0236871D01*
X0212275Y0236969D01*
X0212209Y0237069D01*
X0212146Y0237171D01*
X0212087Y0237275D01*
X0212032Y0237382D01*
X0211980Y0237490D01*
X0211931Y0237599D01*
X0211886Y0237711D01*
X0211845Y0237823D01*
X0211808Y0237937D01*
X0211775Y0238052D01*
X0211745Y0238168D01*
X0211719Y0238285D01*
X0211698Y0238403D01*
X0211680Y0238522D01*
X0211666Y0238641D01*
X0211656Y0238760D01*
X0211650Y0238880D01*
X0211648Y0239000D01*
X0277215Y0238394D02*
X0277217Y0238514D01*
X0277223Y0238634D01*
X0277233Y0238753D01*
X0277247Y0238872D01*
X0277265Y0238991D01*
X0277286Y0239109D01*
X0277312Y0239226D01*
X0277342Y0239342D01*
X0277375Y0239457D01*
X0277412Y0239571D01*
X0277453Y0239683D01*
X0277498Y0239795D01*
X0277547Y0239904D01*
X0277599Y0240012D01*
X0277654Y0240119D01*
X0277713Y0240223D01*
X0277776Y0240325D01*
X0277842Y0240425D01*
X0277911Y0240523D01*
X0277983Y0240619D01*
X0278059Y0240712D01*
X0278137Y0240802D01*
X0278219Y0240890D01*
X0278303Y0240975D01*
X0278390Y0241058D01*
X0278480Y0241137D01*
X0278573Y0241213D01*
X0278668Y0241286D01*
X0278765Y0241356D01*
X0278865Y0241423D01*
X0278966Y0241486D01*
X0279070Y0241546D01*
X0279176Y0241603D01*
X0279283Y0241656D01*
X0279393Y0241705D01*
X0279504Y0241751D01*
X0279616Y0241793D01*
X0279730Y0241831D01*
X0279844Y0241865D01*
X0279960Y0241896D01*
X0280077Y0241922D01*
X0280195Y0241945D01*
X0280313Y0241964D01*
X0280432Y0241979D01*
X0280552Y0241990D01*
X0280671Y0241997D01*
X0280791Y0242000D01*
X0280911Y0241999D01*
X0281031Y0241994D01*
X0281150Y0241985D01*
X0281269Y0241972D01*
X0281388Y0241955D01*
X0281506Y0241934D01*
X0281623Y0241910D01*
X0281740Y0241881D01*
X0281855Y0241849D01*
X0281969Y0241812D01*
X0282082Y0241772D01*
X0282194Y0241728D01*
X0282304Y0241681D01*
X0282413Y0241630D01*
X0282519Y0241575D01*
X0282624Y0241517D01*
X0282727Y0241455D01*
X0282828Y0241390D01*
X0282926Y0241322D01*
X0283022Y0241250D01*
X0283116Y0241176D01*
X0283207Y0241098D01*
X0283296Y0241017D01*
X0283381Y0240933D01*
X0283464Y0240847D01*
X0283544Y0240757D01*
X0283622Y0240666D01*
X0283695Y0240571D01*
X0283766Y0240475D01*
X0283834Y0240376D01*
X0283898Y0240274D01*
X0283959Y0240171D01*
X0284016Y0240066D01*
X0284070Y0239959D01*
X0284120Y0239850D01*
X0284167Y0239739D01*
X0284210Y0239627D01*
X0284249Y0239514D01*
X0284284Y0239399D01*
X0284315Y0239284D01*
X0284343Y0239167D01*
X0284367Y0239050D01*
X0284387Y0238931D01*
X0284403Y0238813D01*
X0284415Y0238693D01*
X0284423Y0238574D01*
X0284427Y0238454D01*
X0284427Y0238334D01*
X0284423Y0238214D01*
X0284415Y0238095D01*
X0284403Y0237975D01*
X0284387Y0237857D01*
X0284367Y0237738D01*
X0284343Y0237621D01*
X0284315Y0237504D01*
X0284284Y0237389D01*
X0284249Y0237274D01*
X0284210Y0237161D01*
X0284167Y0237049D01*
X0284120Y0236938D01*
X0284070Y0236829D01*
X0284016Y0236722D01*
X0283959Y0236617D01*
X0283898Y0236514D01*
X0283834Y0236412D01*
X0283766Y0236313D01*
X0283695Y0236217D01*
X0283622Y0236122D01*
X0283544Y0236031D01*
X0283464Y0235941D01*
X0283381Y0235855D01*
X0283296Y0235771D01*
X0283207Y0235690D01*
X0283116Y0235612D01*
X0283022Y0235538D01*
X0282926Y0235466D01*
X0282828Y0235398D01*
X0282727Y0235333D01*
X0282624Y0235271D01*
X0282519Y0235213D01*
X0282413Y0235158D01*
X0282304Y0235107D01*
X0282194Y0235060D01*
X0282082Y0235016D01*
X0281969Y0234976D01*
X0281855Y0234939D01*
X0281740Y0234907D01*
X0281623Y0234878D01*
X0281506Y0234854D01*
X0281388Y0234833D01*
X0281269Y0234816D01*
X0281150Y0234803D01*
X0281031Y0234794D01*
X0280911Y0234789D01*
X0280791Y0234788D01*
X0280671Y0234791D01*
X0280552Y0234798D01*
X0280432Y0234809D01*
X0280313Y0234824D01*
X0280195Y0234843D01*
X0280077Y0234866D01*
X0279960Y0234892D01*
X0279844Y0234923D01*
X0279730Y0234957D01*
X0279616Y0234995D01*
X0279504Y0235037D01*
X0279393Y0235083D01*
X0279283Y0235132D01*
X0279176Y0235185D01*
X0279070Y0235242D01*
X0278966Y0235302D01*
X0278865Y0235365D01*
X0278765Y0235432D01*
X0278668Y0235502D01*
X0278573Y0235575D01*
X0278480Y0235651D01*
X0278390Y0235730D01*
X0278303Y0235813D01*
X0278219Y0235898D01*
X0278137Y0235986D01*
X0278059Y0236076D01*
X0277983Y0236169D01*
X0277911Y0236265D01*
X0277842Y0236363D01*
X0277776Y0236463D01*
X0277713Y0236565D01*
X0277654Y0236669D01*
X0277599Y0236776D01*
X0277547Y0236884D01*
X0277498Y0236993D01*
X0277453Y0237105D01*
X0277412Y0237217D01*
X0277375Y0237331D01*
X0277342Y0237446D01*
X0277312Y0237562D01*
X0277286Y0237679D01*
X0277265Y0237797D01*
X0277247Y0237916D01*
X0277233Y0238035D01*
X0277223Y0238154D01*
X0277217Y0238274D01*
X0277215Y0238394D01*
X0306313Y0185250D02*
X0360841Y0185250D01*
X0360841Y0122455D01*
X0306313Y0122455D01*
X0306313Y0185250D01*
D15*
X0354559Y0193203D02*
X0360941Y0193203D01*
X0360941Y0197337D02*
X0360941Y0200663D01*
X0360941Y0204797D02*
X0354559Y0204797D01*
D16*
X0356697Y0195250D03*
M02*
