G75*
%MOIN*%
%OFA0B0*%
%FSLAX25Y25*%
%IPPOS*%
%LPD*%
%AMOC8*
5,1,8,0,0,1.08239X$1,22.5*
%
%ADD10C,0.01000*%
%ADD11C,0.00600*%
%ADD12C,0.00800*%
%ADD13C,0.00500*%
%ADD14C,0.00700*%
%ADD15C,0.01768*%
%ADD16C,0.00300*%
%ADD17C,0.00000*%
D10*
X0011500Y0062524D02*
X0001500Y0072524D01*
X0001500Y0282524D01*
X0006500Y0287524D01*
X0011500Y0287524D01*
X0021500Y0297524D01*
X0191500Y0297524D01*
X0201500Y0287524D01*
X0206500Y0287524D01*
X0211500Y0282524D01*
X0211500Y0110024D01*
X0201500Y0100024D01*
X0176500Y0100024D01*
X0161500Y0085024D01*
X0161500Y0072524D01*
X0151500Y0062524D01*
X0011500Y0062524D01*
X0034669Y0077917D02*
X0034669Y0100555D01*
X0093331Y0100555D01*
X0093331Y0077917D01*
X0034669Y0077917D01*
X0043921Y0098360D02*
X0043921Y0100329D01*
X0084079Y0100329D02*
X0084079Y0098360D01*
X0100841Y0100555D02*
X0100841Y0077917D01*
X0149659Y0077917D01*
X0149659Y0100555D01*
X0100841Y0100555D01*
X0110289Y0100329D02*
X0110289Y0098360D01*
X0140604Y0098360D02*
X0140604Y0100329D01*
X0119000Y0273774D02*
X0119000Y0290024D01*
X0115250Y0293774D01*
X0102750Y0293774D01*
X0101500Y0292524D01*
D11*
X0102452Y0271612D02*
X0100717Y0269877D01*
X0101151Y0270311D02*
X0099850Y0271612D01*
X0099850Y0269877D02*
X0102452Y0269877D01*
X0102452Y0266931D02*
X0099850Y0266931D01*
X0099850Y0268665D01*
X0100284Y0265719D02*
X0099850Y0265285D01*
X0099850Y0264418D01*
X0100284Y0263984D01*
X0102019Y0263984D01*
X0102452Y0264418D01*
X0102452Y0265285D01*
X0102019Y0265719D01*
X0092452Y0265834D02*
X0092452Y0264966D01*
X0092452Y0265400D02*
X0089850Y0265400D01*
X0089850Y0264966D02*
X0089850Y0265834D01*
X0090284Y0266931D02*
X0089850Y0267364D01*
X0089850Y0268232D01*
X0090284Y0268665D01*
X0090717Y0268665D01*
X0091151Y0268232D01*
X0091151Y0267364D01*
X0091585Y0266931D01*
X0092019Y0266931D01*
X0092452Y0267364D01*
X0092452Y0268232D01*
X0092019Y0268665D01*
X0092019Y0269877D02*
X0090284Y0269877D01*
X0089850Y0270311D01*
X0089850Y0271178D01*
X0090284Y0271612D01*
X0092019Y0271612D01*
X0092452Y0271178D01*
X0092452Y0270311D01*
X0092019Y0269877D01*
X0092452Y0263755D02*
X0089850Y0263755D01*
X0089850Y0262020D02*
X0092452Y0262020D01*
X0091585Y0262887D01*
X0092452Y0263755D01*
X0117350Y0263755D02*
X0119952Y0263755D01*
X0119085Y0262887D01*
X0119952Y0262020D01*
X0117350Y0262020D01*
X0117784Y0264966D02*
X0117350Y0265400D01*
X0117350Y0266267D01*
X0117784Y0266701D01*
X0119519Y0266701D01*
X0119952Y0266267D01*
X0119952Y0265400D01*
X0119519Y0264966D01*
X0117784Y0264966D01*
X0117784Y0267913D02*
X0117350Y0268346D01*
X0117350Y0269214D01*
X0117784Y0269648D01*
X0118217Y0269648D01*
X0118651Y0269214D01*
X0118651Y0268346D01*
X0119085Y0267913D01*
X0119519Y0267913D01*
X0119952Y0268346D01*
X0119952Y0269214D01*
X0119519Y0269648D01*
X0119952Y0270859D02*
X0119952Y0271727D01*
X0119952Y0271293D02*
X0117350Y0271293D01*
X0117350Y0270859D02*
X0117350Y0271727D01*
X0098152Y0150095D02*
X0098152Y0148360D01*
X0098152Y0149227D02*
X0095550Y0149227D01*
X0095550Y0147148D02*
X0095550Y0145413D01*
X0098152Y0145413D01*
X0098152Y0147148D01*
X0096851Y0146281D02*
X0096851Y0145413D01*
X0096417Y0144201D02*
X0095984Y0144201D01*
X0095550Y0143768D01*
X0095550Y0142900D01*
X0095984Y0142467D01*
X0096851Y0142900D02*
X0096851Y0143768D01*
X0096417Y0144201D01*
X0097719Y0144201D02*
X0098152Y0143768D01*
X0098152Y0142900D01*
X0097719Y0142467D01*
X0097285Y0142467D01*
X0096851Y0142900D01*
X0095550Y0141255D02*
X0095550Y0139520D01*
X0098152Y0139520D01*
X0098152Y0141255D01*
X0096851Y0140388D02*
X0096851Y0139520D01*
X0096851Y0138308D02*
X0096417Y0137875D01*
X0096417Y0136574D01*
X0095550Y0136574D02*
X0098152Y0136574D01*
X0098152Y0137875D01*
X0097719Y0138308D01*
X0096851Y0138308D01*
X0096417Y0137441D02*
X0095550Y0138308D01*
X0088152Y0137875D02*
X0088152Y0136574D01*
X0085550Y0136574D01*
X0085550Y0137875D01*
X0085984Y0138308D01*
X0087719Y0138308D01*
X0088152Y0137875D01*
X0087719Y0139520D02*
X0085984Y0139520D01*
X0085550Y0139954D01*
X0085550Y0140821D01*
X0085984Y0141255D01*
X0087719Y0141255D02*
X0088152Y0140821D01*
X0088152Y0139954D01*
X0087719Y0139520D01*
X0078152Y0139954D02*
X0077719Y0139520D01*
X0077285Y0139520D01*
X0076851Y0139954D01*
X0076851Y0140821D01*
X0076417Y0141255D01*
X0075984Y0141255D01*
X0075550Y0140821D01*
X0075550Y0139954D01*
X0075984Y0139520D01*
X0075984Y0138308D02*
X0075550Y0137875D01*
X0075550Y0137007D01*
X0075984Y0136574D01*
X0077719Y0136574D01*
X0078152Y0137007D01*
X0078152Y0137875D01*
X0077719Y0138308D01*
X0078152Y0139954D02*
X0078152Y0140821D01*
X0077719Y0141255D01*
X0105550Y0140821D02*
X0105984Y0141255D01*
X0107719Y0141255D01*
X0108152Y0140821D01*
X0108152Y0139954D01*
X0107719Y0139520D01*
X0105984Y0139520D01*
X0105550Y0139954D01*
X0105550Y0140821D01*
X0105984Y0142467D02*
X0105550Y0142900D01*
X0105550Y0143768D01*
X0105984Y0144201D01*
X0106417Y0144201D01*
X0106851Y0143768D01*
X0106851Y0142900D01*
X0107285Y0142467D01*
X0107719Y0142467D01*
X0108152Y0142900D01*
X0108152Y0143768D01*
X0107719Y0144201D01*
X0108152Y0145413D02*
X0108152Y0146281D01*
X0108152Y0145847D02*
X0105550Y0145847D01*
X0105550Y0145413D02*
X0105550Y0146281D01*
X0105550Y0138308D02*
X0108152Y0138308D01*
X0107285Y0137441D01*
X0108152Y0136574D01*
X0105550Y0136574D01*
X0115550Y0137007D02*
X0115550Y0137875D01*
X0115984Y0138308D01*
X0115550Y0139520D02*
X0115550Y0141255D01*
X0115550Y0142467D02*
X0118152Y0142467D01*
X0116851Y0142900D02*
X0115550Y0144201D01*
X0116417Y0142467D02*
X0118152Y0144201D01*
X0118152Y0139520D02*
X0115550Y0139520D01*
X0117719Y0138308D02*
X0118152Y0137875D01*
X0118152Y0137007D01*
X0117719Y0136574D01*
X0115984Y0136574D01*
X0115550Y0137007D01*
X0125550Y0137007D02*
X0125984Y0136574D01*
X0125550Y0137007D02*
X0125550Y0137875D01*
X0125984Y0138308D01*
X0126417Y0138308D01*
X0126851Y0137875D01*
X0126851Y0137441D01*
X0126851Y0137875D02*
X0127285Y0138308D01*
X0127719Y0138308D01*
X0128152Y0137875D01*
X0128152Y0137007D01*
X0127719Y0136574D01*
X0125984Y0139520D02*
X0125550Y0139520D01*
X0125550Y0139954D01*
X0125984Y0139954D01*
X0125984Y0139520D01*
X0125984Y0140993D02*
X0125550Y0141427D01*
X0125550Y0142295D01*
X0125984Y0142728D01*
X0126417Y0142728D01*
X0126851Y0142295D01*
X0126851Y0141861D01*
X0126851Y0142295D02*
X0127285Y0142728D01*
X0127719Y0142728D01*
X0128152Y0142295D01*
X0128152Y0141427D01*
X0127719Y0140993D01*
X0128152Y0143940D02*
X0126417Y0143940D01*
X0125550Y0144807D01*
X0126417Y0145675D01*
X0128152Y0145675D01*
X0135550Y0143768D02*
X0135984Y0144201D01*
X0137719Y0144201D01*
X0138152Y0143768D01*
X0138152Y0142467D01*
X0135550Y0142467D01*
X0135550Y0143768D01*
X0135550Y0141255D02*
X0138152Y0141255D01*
X0138152Y0139520D02*
X0135550Y0141255D01*
X0135550Y0139520D02*
X0138152Y0139520D01*
X0137719Y0138308D02*
X0138152Y0137875D01*
X0138152Y0137007D01*
X0137719Y0136574D01*
X0135984Y0136574D01*
X0135550Y0137007D01*
X0135550Y0137875D01*
X0135984Y0138308D01*
X0136851Y0138308D01*
X0136851Y0137441D01*
D12*
X0158677Y0255924D02*
X0157976Y0256624D01*
X0157976Y0258025D01*
X0158677Y0258726D01*
X0160078Y0258726D01*
X0160778Y0258025D01*
X0160778Y0256624D01*
X0160078Y0255924D01*
X0158677Y0255924D01*
X0162580Y0255924D02*
X0162580Y0258025D01*
X0163281Y0258726D01*
X0165382Y0258726D01*
X0165382Y0255924D01*
X0167050Y0255924D02*
X0168452Y0255924D01*
X0167751Y0255924D02*
X0167751Y0258726D01*
X0168452Y0258726D01*
X0167751Y0260127D02*
X0167751Y0260828D01*
X0170253Y0258726D02*
X0170253Y0255924D01*
X0172355Y0255924D01*
X0173056Y0256624D01*
X0173056Y0258726D01*
X0174857Y0258726D02*
X0176959Y0258726D01*
X0177659Y0258025D01*
X0177659Y0256624D01*
X0176959Y0255924D01*
X0174857Y0255924D01*
X0174857Y0260127D01*
X0175358Y0263424D02*
X0175358Y0267627D01*
X0174657Y0266226D02*
X0175358Y0265525D01*
X0174657Y0266226D02*
X0173256Y0266226D01*
X0172555Y0265525D01*
X0172555Y0263424D01*
X0177026Y0263424D02*
X0177726Y0264124D01*
X0177726Y0266927D01*
X0177026Y0266226D02*
X0178427Y0266226D01*
X0180795Y0266226D02*
X0180795Y0263424D01*
X0180095Y0263424D02*
X0181496Y0263424D01*
X0183298Y0263424D02*
X0183298Y0267627D01*
X0181496Y0266226D02*
X0180795Y0266226D01*
X0180795Y0267627D02*
X0180795Y0268328D01*
X0180795Y0270924D02*
X0178694Y0270924D01*
X0176892Y0271624D02*
X0176192Y0270924D01*
X0174090Y0270924D01*
X0174090Y0269522D02*
X0174090Y0273726D01*
X0176192Y0273726D01*
X0176892Y0273025D01*
X0176892Y0271624D01*
X0178694Y0273726D02*
X0180795Y0273726D01*
X0181496Y0273025D01*
X0181496Y0271624D01*
X0180795Y0270924D01*
X0183298Y0270924D02*
X0183298Y0273726D01*
X0184699Y0275127D01*
X0186100Y0273726D01*
X0186100Y0270924D01*
X0186100Y0273025D02*
X0183298Y0273025D01*
X0183998Y0278424D02*
X0183298Y0279124D01*
X0183298Y0281927D01*
X0183998Y0282627D01*
X0186100Y0282627D01*
X0186100Y0278424D01*
X0183998Y0278424D01*
X0181496Y0279124D02*
X0180795Y0279825D01*
X0178694Y0279825D01*
X0178694Y0280525D02*
X0178694Y0278424D01*
X0180795Y0278424D01*
X0181496Y0279124D01*
X0180795Y0281226D02*
X0179394Y0281226D01*
X0178694Y0280525D01*
X0176892Y0281226D02*
X0175491Y0281226D01*
X0176192Y0281927D02*
X0176192Y0279124D01*
X0175491Y0278424D01*
X0173823Y0279124D02*
X0173122Y0279825D01*
X0171020Y0279825D01*
X0171020Y0280525D02*
X0171020Y0278424D01*
X0173122Y0278424D01*
X0173823Y0279124D01*
X0173122Y0281226D02*
X0171721Y0281226D01*
X0171020Y0280525D01*
X0166984Y0275828D02*
X0166984Y0275127D01*
X0166984Y0273726D02*
X0166984Y0270924D01*
X0167684Y0270924D02*
X0166283Y0270924D01*
X0164615Y0270924D02*
X0162513Y0270924D01*
X0161813Y0271624D01*
X0162513Y0272325D01*
X0163914Y0272325D01*
X0164615Y0273025D01*
X0163914Y0273726D01*
X0161813Y0273726D01*
X0160011Y0273726D02*
X0159311Y0273726D01*
X0159311Y0270924D01*
X0160011Y0270924D02*
X0158610Y0270924D01*
X0156241Y0271624D02*
X0155541Y0270924D01*
X0156241Y0271624D02*
X0156241Y0274427D01*
X0155541Y0273726D02*
X0156942Y0273726D01*
X0159311Y0275127D02*
X0159311Y0275828D01*
X0153873Y0273726D02*
X0153172Y0273726D01*
X0153172Y0270924D01*
X0153873Y0270924D02*
X0152471Y0270924D01*
X0150803Y0271624D02*
X0150103Y0270924D01*
X0148701Y0270924D01*
X0148001Y0271624D01*
X0148001Y0273025D01*
X0148701Y0273726D01*
X0150103Y0273726D01*
X0150803Y0273025D01*
X0150803Y0271624D01*
X0153172Y0275127D02*
X0153172Y0275828D01*
X0146199Y0273726D02*
X0146199Y0270924D01*
X0146199Y0273726D02*
X0144098Y0273726D01*
X0143397Y0273025D01*
X0143397Y0270924D01*
X0166984Y0273726D02*
X0167684Y0273726D01*
X0169486Y0273726D02*
X0169486Y0270924D01*
X0171588Y0270924D01*
X0172288Y0271624D01*
X0172288Y0273726D01*
X0179394Y0258726D02*
X0180095Y0258726D01*
X0181496Y0257325D01*
X0181496Y0255924D02*
X0181496Y0258726D01*
X0183298Y0258726D02*
X0183298Y0255924D01*
X0183298Y0258025D02*
X0186100Y0258025D01*
X0186100Y0258726D02*
X0184699Y0260127D01*
X0183298Y0258726D01*
X0186100Y0258726D02*
X0186100Y0255924D01*
X0186100Y0263424D02*
X0184699Y0264825D01*
X0183298Y0263424D01*
X0186100Y0263424D02*
X0186100Y0267627D01*
D13*
X0172720Y0202463D02*
X0167500Y0202463D01*
X0158500Y0193612D01*
X0131925Y0193612D01*
X0123500Y0202463D01*
X0120280Y0202463D01*
X0120280Y0182730D01*
X0107760Y0182730D01*
X0107760Y0170211D01*
X0120280Y0170211D01*
X0120280Y0161211D01*
X0130831Y0150053D01*
X0161563Y0150053D01*
X0172720Y0161817D01*
X0172720Y0169817D01*
X0185240Y0169817D01*
X0185240Y0182730D01*
X0172720Y0182730D01*
X0172720Y0202463D01*
X0175390Y0176274D02*
X0175392Y0176394D01*
X0175398Y0176514D01*
X0175408Y0176633D01*
X0175422Y0176752D01*
X0175440Y0176871D01*
X0175461Y0176989D01*
X0175487Y0177106D01*
X0175517Y0177222D01*
X0175550Y0177337D01*
X0175587Y0177451D01*
X0175628Y0177563D01*
X0175673Y0177675D01*
X0175722Y0177784D01*
X0175774Y0177892D01*
X0175829Y0177999D01*
X0175888Y0178103D01*
X0175951Y0178205D01*
X0176017Y0178305D01*
X0176086Y0178403D01*
X0176158Y0178499D01*
X0176234Y0178592D01*
X0176312Y0178682D01*
X0176394Y0178770D01*
X0176478Y0178855D01*
X0176565Y0178938D01*
X0176655Y0179017D01*
X0176748Y0179093D01*
X0176843Y0179166D01*
X0176940Y0179236D01*
X0177040Y0179303D01*
X0177141Y0179366D01*
X0177245Y0179426D01*
X0177351Y0179483D01*
X0177458Y0179536D01*
X0177568Y0179585D01*
X0177679Y0179631D01*
X0177791Y0179673D01*
X0177905Y0179711D01*
X0178019Y0179745D01*
X0178135Y0179776D01*
X0178252Y0179802D01*
X0178370Y0179825D01*
X0178488Y0179844D01*
X0178607Y0179859D01*
X0178727Y0179870D01*
X0178846Y0179877D01*
X0178966Y0179880D01*
X0179086Y0179879D01*
X0179206Y0179874D01*
X0179325Y0179865D01*
X0179444Y0179852D01*
X0179563Y0179835D01*
X0179681Y0179814D01*
X0179798Y0179790D01*
X0179915Y0179761D01*
X0180030Y0179729D01*
X0180144Y0179692D01*
X0180257Y0179652D01*
X0180369Y0179608D01*
X0180479Y0179561D01*
X0180588Y0179510D01*
X0180694Y0179455D01*
X0180799Y0179397D01*
X0180902Y0179335D01*
X0181003Y0179270D01*
X0181101Y0179202D01*
X0181197Y0179130D01*
X0181291Y0179056D01*
X0181382Y0178978D01*
X0181471Y0178897D01*
X0181556Y0178813D01*
X0181639Y0178727D01*
X0181719Y0178637D01*
X0181797Y0178546D01*
X0181870Y0178451D01*
X0181941Y0178355D01*
X0182009Y0178256D01*
X0182073Y0178154D01*
X0182134Y0178051D01*
X0182191Y0177946D01*
X0182245Y0177839D01*
X0182295Y0177730D01*
X0182342Y0177619D01*
X0182385Y0177507D01*
X0182424Y0177394D01*
X0182459Y0177279D01*
X0182490Y0177164D01*
X0182518Y0177047D01*
X0182542Y0176930D01*
X0182562Y0176811D01*
X0182578Y0176693D01*
X0182590Y0176573D01*
X0182598Y0176454D01*
X0182602Y0176334D01*
X0182602Y0176214D01*
X0182598Y0176094D01*
X0182590Y0175975D01*
X0182578Y0175855D01*
X0182562Y0175737D01*
X0182542Y0175618D01*
X0182518Y0175501D01*
X0182490Y0175384D01*
X0182459Y0175269D01*
X0182424Y0175154D01*
X0182385Y0175041D01*
X0182342Y0174929D01*
X0182295Y0174818D01*
X0182245Y0174709D01*
X0182191Y0174602D01*
X0182134Y0174497D01*
X0182073Y0174394D01*
X0182009Y0174292D01*
X0181941Y0174193D01*
X0181870Y0174097D01*
X0181797Y0174002D01*
X0181719Y0173911D01*
X0181639Y0173821D01*
X0181556Y0173735D01*
X0181471Y0173651D01*
X0181382Y0173570D01*
X0181291Y0173492D01*
X0181197Y0173418D01*
X0181101Y0173346D01*
X0181003Y0173278D01*
X0180902Y0173213D01*
X0180799Y0173151D01*
X0180694Y0173093D01*
X0180588Y0173038D01*
X0180479Y0172987D01*
X0180369Y0172940D01*
X0180257Y0172896D01*
X0180144Y0172856D01*
X0180030Y0172819D01*
X0179915Y0172787D01*
X0179798Y0172758D01*
X0179681Y0172734D01*
X0179563Y0172713D01*
X0179444Y0172696D01*
X0179325Y0172683D01*
X0179206Y0172674D01*
X0179086Y0172669D01*
X0178966Y0172668D01*
X0178846Y0172671D01*
X0178727Y0172678D01*
X0178607Y0172689D01*
X0178488Y0172704D01*
X0178370Y0172723D01*
X0178252Y0172746D01*
X0178135Y0172772D01*
X0178019Y0172803D01*
X0177905Y0172837D01*
X0177791Y0172875D01*
X0177679Y0172917D01*
X0177568Y0172963D01*
X0177458Y0173012D01*
X0177351Y0173065D01*
X0177245Y0173122D01*
X0177141Y0173182D01*
X0177040Y0173245D01*
X0176940Y0173312D01*
X0176843Y0173382D01*
X0176748Y0173455D01*
X0176655Y0173531D01*
X0176565Y0173610D01*
X0176478Y0173693D01*
X0176394Y0173778D01*
X0176312Y0173866D01*
X0176234Y0173956D01*
X0176158Y0174049D01*
X0176086Y0174145D01*
X0176017Y0174243D01*
X0175951Y0174343D01*
X0175888Y0174445D01*
X0175829Y0174549D01*
X0175774Y0174656D01*
X0175722Y0174764D01*
X0175673Y0174873D01*
X0175628Y0174985D01*
X0175587Y0175097D01*
X0175550Y0175211D01*
X0175517Y0175326D01*
X0175487Y0175442D01*
X0175461Y0175559D01*
X0175440Y0175677D01*
X0175422Y0175796D01*
X0175408Y0175915D01*
X0175398Y0176034D01*
X0175392Y0176154D01*
X0175390Y0176274D01*
X0109823Y0176880D02*
X0109825Y0177000D01*
X0109831Y0177120D01*
X0109841Y0177239D01*
X0109855Y0177358D01*
X0109873Y0177477D01*
X0109894Y0177595D01*
X0109920Y0177712D01*
X0109950Y0177828D01*
X0109983Y0177943D01*
X0110020Y0178057D01*
X0110061Y0178169D01*
X0110106Y0178281D01*
X0110155Y0178390D01*
X0110207Y0178498D01*
X0110262Y0178605D01*
X0110321Y0178709D01*
X0110384Y0178811D01*
X0110450Y0178911D01*
X0110519Y0179009D01*
X0110591Y0179105D01*
X0110667Y0179198D01*
X0110745Y0179288D01*
X0110827Y0179376D01*
X0110911Y0179461D01*
X0110998Y0179544D01*
X0111088Y0179623D01*
X0111181Y0179699D01*
X0111276Y0179772D01*
X0111373Y0179842D01*
X0111473Y0179909D01*
X0111574Y0179972D01*
X0111678Y0180032D01*
X0111784Y0180089D01*
X0111891Y0180142D01*
X0112001Y0180191D01*
X0112112Y0180237D01*
X0112224Y0180279D01*
X0112338Y0180317D01*
X0112452Y0180351D01*
X0112568Y0180382D01*
X0112685Y0180408D01*
X0112803Y0180431D01*
X0112921Y0180450D01*
X0113040Y0180465D01*
X0113160Y0180476D01*
X0113279Y0180483D01*
X0113399Y0180486D01*
X0113519Y0180485D01*
X0113639Y0180480D01*
X0113758Y0180471D01*
X0113877Y0180458D01*
X0113996Y0180441D01*
X0114114Y0180420D01*
X0114231Y0180396D01*
X0114348Y0180367D01*
X0114463Y0180335D01*
X0114577Y0180298D01*
X0114690Y0180258D01*
X0114802Y0180214D01*
X0114912Y0180167D01*
X0115021Y0180116D01*
X0115127Y0180061D01*
X0115232Y0180003D01*
X0115335Y0179941D01*
X0115436Y0179876D01*
X0115534Y0179808D01*
X0115630Y0179736D01*
X0115724Y0179662D01*
X0115815Y0179584D01*
X0115904Y0179503D01*
X0115989Y0179419D01*
X0116072Y0179333D01*
X0116152Y0179243D01*
X0116230Y0179152D01*
X0116303Y0179057D01*
X0116374Y0178961D01*
X0116442Y0178862D01*
X0116506Y0178760D01*
X0116567Y0178657D01*
X0116624Y0178552D01*
X0116678Y0178445D01*
X0116728Y0178336D01*
X0116775Y0178225D01*
X0116818Y0178113D01*
X0116857Y0178000D01*
X0116892Y0177885D01*
X0116923Y0177770D01*
X0116951Y0177653D01*
X0116975Y0177536D01*
X0116995Y0177417D01*
X0117011Y0177299D01*
X0117023Y0177179D01*
X0117031Y0177060D01*
X0117035Y0176940D01*
X0117035Y0176820D01*
X0117031Y0176700D01*
X0117023Y0176581D01*
X0117011Y0176461D01*
X0116995Y0176343D01*
X0116975Y0176224D01*
X0116951Y0176107D01*
X0116923Y0175990D01*
X0116892Y0175875D01*
X0116857Y0175760D01*
X0116818Y0175647D01*
X0116775Y0175535D01*
X0116728Y0175424D01*
X0116678Y0175315D01*
X0116624Y0175208D01*
X0116567Y0175103D01*
X0116506Y0175000D01*
X0116442Y0174898D01*
X0116374Y0174799D01*
X0116303Y0174703D01*
X0116230Y0174608D01*
X0116152Y0174517D01*
X0116072Y0174427D01*
X0115989Y0174341D01*
X0115904Y0174257D01*
X0115815Y0174176D01*
X0115724Y0174098D01*
X0115630Y0174024D01*
X0115534Y0173952D01*
X0115436Y0173884D01*
X0115335Y0173819D01*
X0115232Y0173757D01*
X0115127Y0173699D01*
X0115021Y0173644D01*
X0114912Y0173593D01*
X0114802Y0173546D01*
X0114690Y0173502D01*
X0114577Y0173462D01*
X0114463Y0173425D01*
X0114348Y0173393D01*
X0114231Y0173364D01*
X0114114Y0173340D01*
X0113996Y0173319D01*
X0113877Y0173302D01*
X0113758Y0173289D01*
X0113639Y0173280D01*
X0113519Y0173275D01*
X0113399Y0173274D01*
X0113279Y0173277D01*
X0113160Y0173284D01*
X0113040Y0173295D01*
X0112921Y0173310D01*
X0112803Y0173329D01*
X0112685Y0173352D01*
X0112568Y0173378D01*
X0112452Y0173409D01*
X0112338Y0173443D01*
X0112224Y0173481D01*
X0112112Y0173523D01*
X0112001Y0173569D01*
X0111891Y0173618D01*
X0111784Y0173671D01*
X0111678Y0173728D01*
X0111574Y0173788D01*
X0111473Y0173851D01*
X0111373Y0173918D01*
X0111276Y0173988D01*
X0111181Y0174061D01*
X0111088Y0174137D01*
X0110998Y0174216D01*
X0110911Y0174299D01*
X0110827Y0174384D01*
X0110745Y0174472D01*
X0110667Y0174562D01*
X0110591Y0174655D01*
X0110519Y0174751D01*
X0110450Y0174849D01*
X0110384Y0174949D01*
X0110321Y0175051D01*
X0110262Y0175155D01*
X0110207Y0175262D01*
X0110155Y0175370D01*
X0110106Y0175479D01*
X0110061Y0175591D01*
X0110020Y0175703D01*
X0109983Y0175817D01*
X0109950Y0175932D01*
X0109920Y0176048D01*
X0109894Y0176165D01*
X0109873Y0176283D01*
X0109855Y0176402D01*
X0109841Y0176521D01*
X0109831Y0176640D01*
X0109825Y0176760D01*
X0109823Y0176880D01*
X0081687Y0231274D02*
X0027159Y0231274D01*
X0027159Y0294069D01*
X0081687Y0294069D01*
X0081687Y0231274D01*
D14*
X0033441Y0224570D02*
X0027059Y0224570D01*
X0027059Y0220437D02*
X0027059Y0217111D01*
X0027059Y0212977D02*
X0033441Y0212977D01*
D15*
X0031303Y0222524D03*
D16*
X0031863Y0211826D02*
X0032830Y0211826D01*
X0033314Y0211342D01*
X0033314Y0209407D01*
X0032830Y0208924D01*
X0031863Y0208924D01*
X0031379Y0209407D01*
X0030367Y0208924D02*
X0028432Y0208924D01*
X0029400Y0208924D02*
X0029400Y0211826D01*
X0030367Y0210859D01*
X0031379Y0211342D02*
X0031863Y0211826D01*
X0034325Y0211826D02*
X0034325Y0208924D01*
X0034325Y0210375D02*
X0036260Y0210375D01*
X0037272Y0210375D02*
X0039207Y0210375D01*
X0039207Y0210859D02*
X0038239Y0211826D01*
X0037272Y0210859D01*
X0037272Y0208924D01*
X0036260Y0208924D02*
X0036260Y0211826D01*
X0039207Y0210859D02*
X0039207Y0208924D01*
X0040702Y0208924D02*
X0040702Y0211826D01*
X0042153Y0210375D01*
X0040219Y0210375D01*
X0043165Y0211342D02*
X0045100Y0209407D01*
X0045100Y0208924D01*
X0045100Y0211826D02*
X0043165Y0211826D01*
X0043165Y0211342D01*
X0056900Y0215907D02*
X0057384Y0215424D01*
X0059319Y0217359D01*
X0057384Y0217359D01*
X0056900Y0216875D01*
X0056900Y0215907D01*
X0057384Y0215424D02*
X0059319Y0215424D01*
X0059802Y0215907D01*
X0059802Y0216875D01*
X0059319Y0217359D01*
X0060650Y0216875D02*
X0061134Y0217359D01*
X0060650Y0216875D02*
X0060650Y0215907D01*
X0061134Y0215424D01*
X0063069Y0215424D01*
X0063552Y0215907D01*
X0063552Y0216875D01*
X0063069Y0217359D01*
X0062585Y0218370D02*
X0063552Y0219338D01*
X0060650Y0219338D01*
X0060650Y0220305D02*
X0060650Y0218370D01*
X0058835Y0219843D02*
X0059802Y0220811D01*
X0056900Y0220811D01*
X0056900Y0221778D02*
X0056900Y0219843D01*
X0056900Y0218854D02*
X0056900Y0218370D01*
X0057384Y0218370D01*
X0057384Y0218854D01*
X0056900Y0218854D01*
X0055933Y0222790D02*
X0056416Y0223274D01*
X0057384Y0223274D01*
X0056900Y0223757D01*
X0056900Y0224241D01*
X0057384Y0224725D01*
X0058351Y0224725D01*
X0058351Y0225736D02*
X0058351Y0226704D01*
X0056900Y0225736D02*
X0059802Y0225736D01*
X0059802Y0227671D01*
X0060650Y0223252D02*
X0060650Y0221317D01*
X0060650Y0222284D02*
X0063552Y0222284D01*
X0062585Y0221317D01*
X0058351Y0223274D02*
X0057384Y0223274D01*
X0027421Y0211342D02*
X0027421Y0209407D01*
X0026937Y0208924D01*
X0025970Y0208924D01*
X0025486Y0209407D01*
X0025486Y0210375D01*
X0026453Y0210375D01*
X0025486Y0211342D02*
X0025970Y0211826D01*
X0026937Y0211826D01*
X0027421Y0211342D01*
X0024474Y0210859D02*
X0023507Y0211826D01*
X0023507Y0208924D01*
X0024474Y0208924D02*
X0022539Y0208924D01*
X0021528Y0208924D02*
X0019593Y0210859D01*
X0019593Y0211342D01*
X0020077Y0211826D01*
X0021044Y0211826D01*
X0021528Y0211342D01*
X0021528Y0208924D02*
X0019593Y0208924D01*
X0018581Y0209407D02*
X0018098Y0208924D01*
X0017130Y0208924D01*
X0016646Y0209407D01*
X0016646Y0210375D01*
X0017130Y0210859D01*
X0017614Y0210859D01*
X0018581Y0210375D01*
X0018581Y0211826D01*
X0016646Y0211826D01*
D17*
X0138508Y0278144D02*
X0151992Y0278144D01*
X0151992Y0297391D01*
X0138508Y0297391D02*
X0138508Y0278144D01*
M02*
