%
M48
M72
T01C0.02362
T02C0.04000
T03C0.04331
%
T01
X111500Y67844
X116500Y67844
X121500Y67844
X126500Y67844
X131500Y67844
X136500Y67844
X141500Y67844
X146500Y67844
X151500Y67844
X156500Y67844
X156500Y72844
X156500Y77844
X156500Y82844
X156500Y87844
X156500Y92844
X156500Y97844
X151500Y97844
X146500Y97844
X141500Y97844
X141500Y92844
X141500Y87844
X141500Y82844
X141500Y77844
X141500Y72844
X126500Y72844
X126500Y77844
X126500Y82844
X126500Y87844
X126500Y92844
X126500Y97844
X121500Y97844
X116500Y97844
X111500Y97844
X111500Y92844
X111500Y87844
X111500Y82844
X111500Y77844
X111500Y72844
X131500Y97844
X136500Y97844
X120250Y122844
X127750Y127844
X136500Y141594
X149000Y142844
X156500Y134094
X162750Y134094
X170250Y134094
X169000Y145344
X200250Y177844
X195250Y187844
X207750Y152844
X234200Y158894
X239100Y163994
X249846Y179498
X252750Y135344
X239000Y119094
X234000Y125344
X247750Y115344
X259000Y75748
X206500Y60344
X186500Y56594
X186500Y64094
X176500Y64094
X171500Y56594
X162750Y57219
X162750Y50969
X157750Y50969
X155875Y45344
X152125Y40969
X146500Y40969
X146500Y50969
X162750Y63469
X162750Y69719
X162750Y75969
X162750Y82219
X162750Y88469
X162750Y94719
X162750Y100969
X162750Y107219
X200250Y104094
X205250Y107844
X157750Y181594
X129000Y172844
X130250Y166594
X120250Y146594
X112750Y142844
X105250Y142844
X96500Y142844
X91500Y166594
X119000Y191594
X120250Y196594
X127750Y210344
X115250Y216594
X109000Y112844
T02
X17750Y19094
X27750Y19094
X37750Y19094
X47750Y19094
X77750Y25344
X77750Y35344
X77750Y45344
X77750Y55344
X77750Y65344
X77750Y75344
X77750Y95344
X77750Y105344
X77750Y115344
X77750Y125344
X77750Y135344
X77750Y145344
X77750Y155344
X77750Y165344
X47750Y201594
X37750Y201594
X27750Y201594
X17750Y201594
X17750Y110344
X27750Y110344
X37750Y110344
X47750Y110344
X92750Y40344
X92750Y30344
X92750Y20344
X105250Y20344
X105250Y30344
X105250Y40344
X167750Y25344
X177750Y25344
X177750Y15344
X167750Y15344
X187750Y15344
X187750Y25344
X267750Y25344
X267750Y35344
X267750Y45344
X267750Y55344
X267750Y65344
X267750Y75344
X267750Y85344
X267750Y95344
X267750Y110344
X267750Y120344
X267750Y130344
X267750Y140344
X267750Y150344
X267750Y160344
X267750Y170344
X267750Y180344
X267750Y190344
X267750Y200344
X202750Y167844
X192750Y167844
X182750Y167844
X172750Y167844
X162750Y167844
X152750Y167844
X142750Y167844
X160250Y196594
X170250Y196594
X180250Y196594
X180250Y209094
X170250Y209094
X160250Y209094
T03
X42750Y246594
X32750Y236594
X22750Y246594
X32750Y256594
X32750Y165344
X22750Y155344
X32750Y145344
X42750Y155344
X32750Y74094
X22750Y64094
X32750Y54094
X42750Y64094
M30
