%
M48
M72
T01C0.02362
T02C0.04000
%
T01
X91500Y145024
X101500Y150024
X66500Y185024
X66500Y197524
X95250Y237524
X95250Y245024
X106500Y237524
X111500Y245024
X120250Y248149
X120250Y254399
X125250Y254399
X127125Y258774
X130875Y261274
X135875Y261899
X140250Y261899
X136500Y253149
X136500Y237524
X141500Y237524
X141500Y232524
X141500Y227524
X141500Y222524
X141500Y217524
X141500Y212524
X141500Y207524
X136500Y207524
X131500Y207524
X126500Y207524
X126500Y212524
X126500Y217524
X126500Y222524
X126500Y227524
X126500Y232524
X126500Y237524
X131500Y237524
X120250Y235649
X120250Y241899
X120250Y229399
X120250Y223149
X120250Y216899
X120250Y210649
X120250Y204399
X120250Y198149
X146500Y207524
X151500Y207524
X156500Y207524
X156500Y212524
X156500Y217524
X156500Y222524
X156500Y227524
X156500Y232524
X156500Y237524
X151500Y237524
X146500Y237524
X161500Y237524
X166500Y237524
X171500Y237524
X171500Y232524
X171500Y227524
X171500Y222524
X171500Y217524
X171500Y212524
X171500Y207524
X166500Y207524
X161500Y207524
X172750Y188774
X186500Y187524
X190250Y182524
X181500Y207524
X181500Y212524
X181500Y217524
X181500Y222524
X181500Y227524
X181500Y232524
X181500Y237524
X176500Y237524
X176500Y207524
X166500Y148774
X151500Y147524
X146500Y142524
X166500Y125024
X79000Y241274
X26500Y167524
X25250Y227524
T02
X44000Y91274
X54000Y91274
X64000Y91274
X74000Y91274
X84000Y91274
X96500Y113774
X106500Y113774
X116500Y113774
X126500Y113774
X126500Y128774
X116500Y128774
X106500Y128774
X96500Y128774
X86500Y128774
X76500Y128774
X110250Y91274
X120250Y91274
X130250Y91274
X140250Y91274
X136500Y128774
X201500Y137524
X201500Y147524
X201500Y157524
X201500Y167524
X201500Y177524
X201500Y187524
X201500Y197524
X201500Y207524
X201500Y227524
X201500Y237524
X201500Y247524
X201500Y257524
X201500Y267524
X201500Y277524
X111500Y277524
X111500Y287524
X101500Y287524
X101500Y277524
X91500Y277524
X91500Y287524
X11500Y277524
X11500Y267524
X11500Y257524
X11500Y247524
X11500Y237524
X11500Y227524
X11500Y217524
X11500Y207524
X11500Y192524
X11500Y182524
X11500Y172524
X11500Y162524
X11500Y152524
X11500Y142524
X11500Y132524
X11500Y122524
X11500Y112524
X11500Y102524
M30
