%
M48
M72
T01C0.02362
T02C0.03543
T03C0.04000
%
T01
X87500Y118774
X105000Y122524
X112500Y135024
X125000Y135024
X128750Y118774
X167500Y151274
X147500Y195024
X133750Y202524
X150000Y220024
X113750Y203774
X110000Y200024
X106250Y207524
X85000Y215024
X77500Y186274
X57500Y153774
T02
X33396Y47159
X43238Y47159
X53081Y47159
T03
X53750Y97524
X63750Y97524
X73750Y97524
X35000Y102524
X35000Y112524
X35000Y122524
X35000Y132524
X35000Y142524
X35000Y152524
X35000Y162524
X35000Y172524
X35000Y182524
X35000Y192524
X35000Y207524
X35000Y217524
X35000Y227524
X35000Y237524
X35000Y247524
X35000Y257524
X35000Y267524
X35000Y277524
X15000Y277524
X15000Y267524
X15000Y257524
X15000Y247524
X15000Y237524
X15000Y227524
X15000Y217524
X15000Y207524
X15000Y192524
X15000Y182524
X15000Y172524
X15000Y162524
X15000Y152524
X15000Y142524
X15000Y132524
X15000Y122524
X15000Y112524
X15000Y102524
X76250Y257524
X86250Y257524
X96250Y257524
X106250Y257524
X131250Y257524
X141250Y257524
X151250Y257524
X161250Y257524
X185000Y257524
X185000Y267524
X185000Y277524
X205000Y277524
X205000Y267524
X205000Y257524
X205000Y247524
X205000Y237524
X205000Y227524
X205000Y207524
X205000Y197524
X205000Y187524
X205000Y177524
X205000Y167524
X205000Y157524
X205000Y147524
X205000Y137524
X185000Y137524
X185000Y147524
X185000Y157524
X185000Y167524
X185000Y177524
X185000Y187524
X185000Y197524
X185000Y207524
X185000Y227524
X185000Y237524
X185000Y247524
X162500Y141274
X152500Y141274
X142500Y141274
X132500Y141274
M30
