G75*
%MOIN*%
%OFA0B0*%
%FSLAX25Y25*%
%IPPOS*%
%LPD*%
%AMOC8*
5,1,8,0,0,1.08239X$1,22.5*
%
%ADD10C,0.01000*%
%ADD11C,0.07400*%
%ADD12R,0.07400X0.07400*%
%ADD13R,0.08000X0.02600*%
%ADD14R,0.07874X0.06299*%
%ADD15R,0.03937X0.05512*%
%ADD16R,0.06299X0.07874*%
%ADD17R,0.02600X0.08000*%
%ADD18R,0.05906X0.05906*%
%ADD19R,0.07087X0.06299*%
%ADD20C,0.06000*%
%ADD21C,0.05315*%
%ADD22R,0.02800X0.05600*%
%ADD23R,0.03150X0.05315*%
%ADD24R,0.03740X0.13583*%
%ADD25R,0.03740X0.14764*%
%ADD26R,0.33661X0.07283*%
%ADD27R,0.03543X0.30512*%
%ADD28R,0.04724X0.05709*%
%ADD29R,0.11417X0.06299*%
D10*
X0015000Y0062524D02*
X0005000Y0072524D01*
X0005000Y0282524D01*
X0010000Y0287524D01*
X0055000Y0287524D01*
X0065000Y0297524D01*
X0195000Y0297524D01*
X0205000Y0287524D01*
X0215000Y0287524D01*
X0215000Y0111274D01*
X0205000Y0100024D01*
X0180000Y0100024D01*
X0165000Y0085024D01*
X0165000Y0072524D01*
X0155000Y0062524D01*
X0015000Y0062524D01*
D11*
X0015000Y0102524D03*
X0015000Y0112524D03*
X0015000Y0122524D03*
X0015000Y0132524D03*
X0015000Y0142524D03*
X0015000Y0152524D03*
X0015000Y0162524D03*
X0015000Y0172524D03*
X0015000Y0182524D03*
X0015000Y0192524D03*
X0015000Y0207524D03*
X0015000Y0217524D03*
X0015000Y0227524D03*
X0015000Y0237524D03*
X0015000Y0247524D03*
X0015000Y0257524D03*
X0015000Y0267524D03*
X0015000Y0277524D03*
X0035000Y0267524D03*
X0035000Y0257524D03*
X0035000Y0247524D03*
X0035000Y0237524D03*
X0035000Y0227524D03*
X0035000Y0217524D03*
X0035000Y0207524D03*
X0035000Y0192524D03*
X0035000Y0182524D03*
X0035000Y0172524D03*
X0035000Y0162524D03*
X0035000Y0152524D03*
X0035000Y0142524D03*
X0035000Y0132524D03*
X0035000Y0122524D03*
X0035000Y0112524D03*
X0035000Y0102524D03*
X0185000Y0147524D03*
X0185000Y0157524D03*
X0185000Y0167524D03*
X0185000Y0177524D03*
X0185000Y0187524D03*
X0185000Y0197524D03*
X0185000Y0207524D03*
X0185000Y0227524D03*
X0185000Y0237524D03*
X0185000Y0247524D03*
X0185000Y0257524D03*
X0185000Y0267524D03*
X0185000Y0277524D03*
X0205000Y0277524D03*
X0205000Y0267524D03*
X0205000Y0257524D03*
X0205000Y0247524D03*
X0205000Y0237524D03*
X0205000Y0227524D03*
X0205000Y0207524D03*
X0205000Y0197524D03*
X0205000Y0187524D03*
X0205000Y0177524D03*
X0205000Y0167524D03*
X0205000Y0157524D03*
X0205000Y0147524D03*
X0205000Y0137524D03*
D12*
X0185000Y0137524D03*
X0035000Y0277524D03*
D13*
X0115400Y0195024D03*
X0115400Y0190024D03*
X0115400Y0185024D03*
X0115400Y0180024D03*
X0115400Y0175024D03*
X0115400Y0170024D03*
X0115400Y0165024D03*
X0115400Y0160024D03*
X0155225Y0160024D03*
X0155225Y0165024D03*
X0155225Y0170024D03*
X0155225Y0175024D03*
X0155225Y0180024D03*
X0155225Y0185024D03*
X0155225Y0190024D03*
X0155225Y0195024D03*
X0075550Y0148774D03*
X0075550Y0143774D03*
X0075550Y0138774D03*
X0075550Y0133774D03*
X0075550Y0128774D03*
X0075550Y0123774D03*
X0075550Y0118774D03*
X0075550Y0113774D03*
X0049450Y0113774D03*
X0049450Y0118774D03*
X0049450Y0123774D03*
X0049450Y0128774D03*
X0049450Y0133774D03*
X0049450Y0138774D03*
X0049450Y0143774D03*
X0049450Y0148774D03*
D14*
X0055000Y0197012D03*
X0055000Y0208035D03*
X0055000Y0222012D03*
X0055000Y0233035D03*
X0055000Y0252012D03*
X0055000Y0263035D03*
X0095000Y0228035D03*
X0095000Y0217012D03*
X0075000Y0208035D03*
X0075000Y0197012D03*
X0092500Y0190535D03*
X0092500Y0179512D03*
X0185000Y0120535D03*
X0185000Y0109512D03*
D15*
X0081240Y0228104D03*
X0073760Y0228104D03*
X0077500Y0219443D03*
D16*
X0076988Y0240024D03*
X0088012Y0240024D03*
D17*
X0117500Y0237124D03*
X0122500Y0237124D03*
X0127500Y0237124D03*
X0132500Y0237124D03*
X0137500Y0237124D03*
X0142500Y0237124D03*
X0147500Y0237124D03*
X0152500Y0237124D03*
X0152500Y0212924D03*
X0147500Y0212924D03*
X0142500Y0212924D03*
X0137500Y0212924D03*
X0132500Y0212924D03*
X0127500Y0212924D03*
X0122500Y0212924D03*
X0117500Y0212924D03*
D18*
X0197500Y0121913D03*
X0197500Y0108134D03*
D19*
X0165000Y0114512D03*
X0165000Y0125535D03*
X0172500Y0159512D03*
X0172500Y0170535D03*
X0090000Y0105535D03*
X0090000Y0094512D03*
D20*
X0073750Y0094524D02*
X0073750Y0100524D01*
X0063750Y0100524D02*
X0063750Y0094524D01*
X0053750Y0094524D02*
X0053750Y0100524D01*
X0132500Y0138274D02*
X0132500Y0144274D01*
X0142500Y0144274D02*
X0142500Y0138274D01*
X0152500Y0138274D02*
X0152500Y0144274D01*
X0162500Y0144274D02*
X0162500Y0138274D01*
X0161250Y0254524D02*
X0161250Y0260524D01*
X0151250Y0260524D02*
X0151250Y0254524D01*
X0141250Y0254524D02*
X0141250Y0260524D01*
X0131250Y0260524D02*
X0131250Y0254524D01*
X0106250Y0254524D02*
X0106250Y0260524D01*
X0096250Y0260524D02*
X0096250Y0254524D01*
X0086250Y0254524D02*
X0086250Y0260524D01*
X0076250Y0260524D02*
X0076250Y0254524D01*
D21*
X0033396Y0049817D02*
X0033396Y0044502D01*
X0043238Y0044502D02*
X0043238Y0049817D01*
X0053081Y0049817D02*
X0053081Y0044502D01*
D22*
X0105866Y0128626D03*
X0110197Y0128626D03*
X0114528Y0128626D03*
X0118858Y0128626D03*
X0123189Y0128626D03*
X0127520Y0128626D03*
X0131850Y0128626D03*
X0136181Y0128626D03*
D23*
X0102165Y0128409D03*
D24*
X0098327Y0120339D03*
D25*
X0098327Y0102031D03*
D26*
X0120374Y0105575D03*
D27*
X0102559Y0088646D03*
D28*
X0142323Y0128409D03*
D29*
X0141535Y0068075D03*
M02*
