G75*
%MOIN*%
%OFA0B0*%
%FSLAX25Y25*%
%IPPOS*%
%LPD*%
%AMOC8*
5,1,8,0,0,1.08239X$1,22.5*
%
%ADD10C,0.01000*%
%ADD11C,0.00800*%
%ADD12C,0.00600*%
%ADD13C,0.00300*%
%ADD14R,0.01673X0.01280*%
%ADD15R,0.01378X0.01378*%
%ADD16C,0.01600*%
%ADD17C,0.00394*%
%ADD18C,0.00500*%
%ADD19C,0.01575*%
%ADD20C,0.00000*%
%ADD21C,0.00400*%
D10*
X0001500Y0005344D02*
X0001500Y0027844D01*
X0001698Y0027846D01*
X0001896Y0027854D01*
X0002093Y0027866D01*
X0002290Y0027883D01*
X0002487Y0027904D01*
X0002683Y0027931D01*
X0002878Y0027962D01*
X0003073Y0027998D01*
X0003267Y0028038D01*
X0003459Y0028084D01*
X0003651Y0028134D01*
X0003841Y0028188D01*
X0004030Y0028248D01*
X0004217Y0028312D01*
X0004403Y0028380D01*
X0004586Y0028453D01*
X0004769Y0028530D01*
X0004949Y0028612D01*
X0005127Y0028698D01*
X0005303Y0028789D01*
X0005477Y0028884D01*
X0005648Y0028983D01*
X0005817Y0029086D01*
X0005983Y0029193D01*
X0006147Y0029304D01*
X0006308Y0029419D01*
X0006466Y0029538D01*
X0006621Y0029661D01*
X0006773Y0029787D01*
X0006922Y0029918D01*
X0007068Y0030052D01*
X0007210Y0030189D01*
X0007349Y0030330D01*
X0007485Y0030474D01*
X0007617Y0030621D01*
X0007745Y0030772D01*
X0007870Y0030925D01*
X0007991Y0031082D01*
X0008108Y0031241D01*
X0008221Y0031404D01*
X0008330Y0031569D01*
X0008435Y0031736D01*
X0008536Y0031907D01*
X0008633Y0032079D01*
X0008726Y0032254D01*
X0008814Y0032431D01*
X0008898Y0032610D01*
X0008978Y0032791D01*
X0009053Y0032974D01*
X0009124Y0033159D01*
X0009190Y0033346D01*
X0009251Y0033534D01*
X0009308Y0033723D01*
X0009361Y0033914D01*
X0009409Y0034106D01*
X0009452Y0034299D01*
X0009490Y0034493D01*
X0009523Y0034688D01*
X0009552Y0034884D01*
X0009576Y0035080D01*
X0009596Y0035277D01*
X0009610Y0035475D01*
X0009620Y0035672D01*
X0009624Y0035870D01*
X0009624Y0036068D01*
X0009620Y0036266D01*
X0009610Y0036463D01*
X0009596Y0036661D01*
X0009576Y0036858D01*
X0009552Y0037054D01*
X0009523Y0037250D01*
X0009490Y0037445D01*
X0009452Y0037639D01*
X0009409Y0037832D01*
X0009361Y0038024D01*
X0009308Y0038215D01*
X0009251Y0038404D01*
X0009190Y0038592D01*
X0009124Y0038779D01*
X0009053Y0038964D01*
X0008978Y0039147D01*
X0008898Y0039328D01*
X0008814Y0039507D01*
X0008726Y0039684D01*
X0008633Y0039859D01*
X0008536Y0040032D01*
X0008435Y0040202D01*
X0008330Y0040369D01*
X0008221Y0040534D01*
X0008108Y0040697D01*
X0007991Y0040856D01*
X0007870Y0041013D01*
X0007745Y0041166D01*
X0007617Y0041317D01*
X0007485Y0041464D01*
X0007349Y0041608D01*
X0007210Y0041749D01*
X0007068Y0041886D01*
X0006922Y0042020D01*
X0006773Y0042151D01*
X0006621Y0042277D01*
X0006466Y0042400D01*
X0006308Y0042519D01*
X0006147Y0042634D01*
X0005983Y0042745D01*
X0005817Y0042852D01*
X0005648Y0042955D01*
X0005477Y0043054D01*
X0005303Y0043149D01*
X0005127Y0043240D01*
X0004949Y0043326D01*
X0004769Y0043408D01*
X0004586Y0043485D01*
X0004403Y0043558D01*
X0004217Y0043626D01*
X0004030Y0043690D01*
X0003841Y0043750D01*
X0003651Y0043804D01*
X0003459Y0043854D01*
X0003267Y0043900D01*
X0003073Y0043940D01*
X0002878Y0043976D01*
X0002683Y0044007D01*
X0002487Y0044034D01*
X0002290Y0044055D01*
X0002093Y0044072D01*
X0001896Y0044084D01*
X0001698Y0044092D01*
X0001500Y0044094D01*
X0001500Y0092844D01*
X0064000Y0092844D01*
X0064000Y0044094D01*
X0063802Y0044092D01*
X0063604Y0044084D01*
X0063407Y0044072D01*
X0063210Y0044055D01*
X0063013Y0044034D01*
X0062817Y0044007D01*
X0062622Y0043976D01*
X0062427Y0043940D01*
X0062233Y0043900D01*
X0062041Y0043854D01*
X0061849Y0043804D01*
X0061659Y0043750D01*
X0061470Y0043690D01*
X0061283Y0043626D01*
X0061097Y0043558D01*
X0060914Y0043485D01*
X0060731Y0043408D01*
X0060551Y0043326D01*
X0060373Y0043240D01*
X0060197Y0043149D01*
X0060023Y0043054D01*
X0059852Y0042955D01*
X0059683Y0042852D01*
X0059517Y0042745D01*
X0059353Y0042634D01*
X0059192Y0042519D01*
X0059034Y0042400D01*
X0058879Y0042277D01*
X0058727Y0042151D01*
X0058578Y0042020D01*
X0058432Y0041886D01*
X0058290Y0041749D01*
X0058151Y0041608D01*
X0058015Y0041464D01*
X0057883Y0041317D01*
X0057755Y0041166D01*
X0057630Y0041013D01*
X0057509Y0040856D01*
X0057392Y0040697D01*
X0057279Y0040534D01*
X0057170Y0040369D01*
X0057065Y0040202D01*
X0056964Y0040031D01*
X0056867Y0039859D01*
X0056774Y0039684D01*
X0056686Y0039507D01*
X0056602Y0039328D01*
X0056522Y0039147D01*
X0056447Y0038964D01*
X0056376Y0038779D01*
X0056310Y0038592D01*
X0056249Y0038404D01*
X0056192Y0038215D01*
X0056139Y0038024D01*
X0056091Y0037832D01*
X0056048Y0037639D01*
X0056010Y0037445D01*
X0055977Y0037250D01*
X0055948Y0037054D01*
X0055924Y0036858D01*
X0055904Y0036661D01*
X0055890Y0036463D01*
X0055880Y0036266D01*
X0055876Y0036068D01*
X0055876Y0035870D01*
X0055880Y0035672D01*
X0055890Y0035475D01*
X0055904Y0035277D01*
X0055924Y0035080D01*
X0055948Y0034884D01*
X0055977Y0034688D01*
X0056010Y0034493D01*
X0056048Y0034299D01*
X0056091Y0034106D01*
X0056139Y0033914D01*
X0056192Y0033723D01*
X0056249Y0033534D01*
X0056310Y0033346D01*
X0056376Y0033159D01*
X0056447Y0032974D01*
X0056522Y0032791D01*
X0056602Y0032610D01*
X0056686Y0032431D01*
X0056774Y0032254D01*
X0056867Y0032079D01*
X0056964Y0031906D01*
X0057065Y0031736D01*
X0057170Y0031569D01*
X0057279Y0031404D01*
X0057392Y0031241D01*
X0057509Y0031082D01*
X0057630Y0030925D01*
X0057755Y0030772D01*
X0057883Y0030621D01*
X0058015Y0030474D01*
X0058151Y0030330D01*
X0058290Y0030189D01*
X0058432Y0030052D01*
X0058578Y0029918D01*
X0058727Y0029787D01*
X0058879Y0029661D01*
X0059034Y0029538D01*
X0059192Y0029419D01*
X0059353Y0029304D01*
X0059517Y0029193D01*
X0059683Y0029086D01*
X0059852Y0028983D01*
X0060023Y0028884D01*
X0060197Y0028789D01*
X0060373Y0028698D01*
X0060551Y0028612D01*
X0060731Y0028530D01*
X0060914Y0028453D01*
X0061097Y0028380D01*
X0061283Y0028312D01*
X0061470Y0028248D01*
X0061659Y0028188D01*
X0061849Y0028134D01*
X0062041Y0028084D01*
X0062233Y0028038D01*
X0062427Y0027998D01*
X0062622Y0027962D01*
X0062817Y0027931D01*
X0063013Y0027904D01*
X0063210Y0027883D01*
X0063407Y0027866D01*
X0063604Y0027854D01*
X0063802Y0027846D01*
X0064000Y0027844D01*
X0064000Y0005344D01*
X0001500Y0005344D01*
X0045637Y0048309D02*
X0043966Y0049979D01*
X0045776Y0048170D02*
X0048420Y0050814D01*
X0048281Y0050954D02*
X0046611Y0052623D01*
X0014820Y0064094D02*
X0014825Y0064534D01*
X0014842Y0064974D01*
X0014869Y0065413D01*
X0014906Y0065851D01*
X0014955Y0066289D01*
X0015014Y0066725D01*
X0015084Y0067159D01*
X0015165Y0067592D01*
X0015256Y0068022D01*
X0015357Y0068451D01*
X0015469Y0068876D01*
X0015592Y0069299D01*
X0015725Y0069718D01*
X0015868Y0070134D01*
X0016021Y0070547D01*
X0016185Y0070956D01*
X0016358Y0071360D01*
X0016541Y0071760D01*
X0016734Y0072156D01*
X0016937Y0072546D01*
X0017149Y0072932D01*
X0017371Y0073312D01*
X0017602Y0073687D01*
X0017842Y0074055D01*
X0018091Y0074418D01*
X0018348Y0074775D01*
X0018615Y0075125D01*
X0018890Y0075469D01*
X0019173Y0075805D01*
X0019465Y0076135D01*
X0019764Y0076457D01*
X0020072Y0076772D01*
X0020387Y0077080D01*
X0020709Y0077379D01*
X0021039Y0077671D01*
X0021375Y0077954D01*
X0021719Y0078229D01*
X0022069Y0078496D01*
X0022426Y0078753D01*
X0022789Y0079002D01*
X0023157Y0079242D01*
X0023532Y0079473D01*
X0023912Y0079695D01*
X0024298Y0079907D01*
X0024688Y0080110D01*
X0025084Y0080303D01*
X0025484Y0080486D01*
X0025888Y0080659D01*
X0026297Y0080823D01*
X0026710Y0080976D01*
X0027126Y0081119D01*
X0027545Y0081252D01*
X0027968Y0081375D01*
X0028393Y0081487D01*
X0028822Y0081588D01*
X0029252Y0081679D01*
X0029685Y0081760D01*
X0030119Y0081830D01*
X0030555Y0081889D01*
X0030993Y0081938D01*
X0031431Y0081975D01*
X0031870Y0082002D01*
X0032310Y0082019D01*
X0032750Y0082024D01*
X0033190Y0082019D01*
X0033630Y0082002D01*
X0034069Y0081975D01*
X0034507Y0081938D01*
X0034945Y0081889D01*
X0035381Y0081830D01*
X0035815Y0081760D01*
X0036248Y0081679D01*
X0036678Y0081588D01*
X0037107Y0081487D01*
X0037532Y0081375D01*
X0037955Y0081252D01*
X0038374Y0081119D01*
X0038790Y0080976D01*
X0039203Y0080823D01*
X0039612Y0080659D01*
X0040016Y0080486D01*
X0040416Y0080303D01*
X0040812Y0080110D01*
X0041202Y0079907D01*
X0041588Y0079695D01*
X0041968Y0079473D01*
X0042343Y0079242D01*
X0042711Y0079002D01*
X0043074Y0078753D01*
X0043431Y0078496D01*
X0043781Y0078229D01*
X0044125Y0077954D01*
X0044461Y0077671D01*
X0044791Y0077379D01*
X0045113Y0077080D01*
X0045428Y0076772D01*
X0045736Y0076457D01*
X0046035Y0076135D01*
X0046327Y0075805D01*
X0046610Y0075469D01*
X0046885Y0075125D01*
X0047152Y0074775D01*
X0047409Y0074418D01*
X0047658Y0074055D01*
X0047898Y0073687D01*
X0048129Y0073312D01*
X0048351Y0072932D01*
X0048563Y0072546D01*
X0048766Y0072156D01*
X0048959Y0071760D01*
X0049142Y0071360D01*
X0049315Y0070956D01*
X0049479Y0070547D01*
X0049632Y0070134D01*
X0049775Y0069718D01*
X0049908Y0069299D01*
X0050031Y0068876D01*
X0050143Y0068451D01*
X0050244Y0068022D01*
X0050335Y0067592D01*
X0050416Y0067159D01*
X0050486Y0066725D01*
X0050545Y0066289D01*
X0050594Y0065851D01*
X0050631Y0065413D01*
X0050658Y0064974D01*
X0050675Y0064534D01*
X0050680Y0064094D01*
X0050675Y0063654D01*
X0050658Y0063214D01*
X0050631Y0062775D01*
X0050594Y0062337D01*
X0050545Y0061899D01*
X0050486Y0061463D01*
X0050416Y0061029D01*
X0050335Y0060596D01*
X0050244Y0060166D01*
X0050143Y0059737D01*
X0050031Y0059312D01*
X0049908Y0058889D01*
X0049775Y0058470D01*
X0049632Y0058054D01*
X0049479Y0057641D01*
X0049315Y0057232D01*
X0049142Y0056828D01*
X0048959Y0056428D01*
X0048766Y0056032D01*
X0048563Y0055642D01*
X0048351Y0055256D01*
X0048129Y0054876D01*
X0047898Y0054501D01*
X0047658Y0054133D01*
X0047409Y0053770D01*
X0047152Y0053413D01*
X0046885Y0053063D01*
X0046610Y0052719D01*
X0046327Y0052383D01*
X0046035Y0052053D01*
X0045736Y0051731D01*
X0045428Y0051416D01*
X0045113Y0051108D01*
X0044791Y0050809D01*
X0044461Y0050517D01*
X0044125Y0050234D01*
X0043781Y0049959D01*
X0043431Y0049692D01*
X0043074Y0049435D01*
X0042711Y0049186D01*
X0042343Y0048946D01*
X0041968Y0048715D01*
X0041588Y0048493D01*
X0041202Y0048281D01*
X0040812Y0048078D01*
X0040416Y0047885D01*
X0040016Y0047702D01*
X0039612Y0047529D01*
X0039203Y0047365D01*
X0038790Y0047212D01*
X0038374Y0047069D01*
X0037955Y0046936D01*
X0037532Y0046813D01*
X0037107Y0046701D01*
X0036678Y0046600D01*
X0036248Y0046509D01*
X0035815Y0046428D01*
X0035381Y0046358D01*
X0034945Y0046299D01*
X0034507Y0046250D01*
X0034069Y0046213D01*
X0033630Y0046186D01*
X0033190Y0046169D01*
X0032750Y0046164D01*
X0032310Y0046169D01*
X0031870Y0046186D01*
X0031431Y0046213D01*
X0030993Y0046250D01*
X0030555Y0046299D01*
X0030119Y0046358D01*
X0029685Y0046428D01*
X0029252Y0046509D01*
X0028822Y0046600D01*
X0028393Y0046701D01*
X0027968Y0046813D01*
X0027545Y0046936D01*
X0027126Y0047069D01*
X0026710Y0047212D01*
X0026297Y0047365D01*
X0025888Y0047529D01*
X0025484Y0047702D01*
X0025084Y0047885D01*
X0024688Y0048078D01*
X0024298Y0048281D01*
X0023912Y0048493D01*
X0023532Y0048715D01*
X0023157Y0048946D01*
X0022789Y0049186D01*
X0022426Y0049435D01*
X0022069Y0049692D01*
X0021719Y0049959D01*
X0021375Y0050234D01*
X0021039Y0050517D01*
X0020709Y0050809D01*
X0020387Y0051108D01*
X0020072Y0051416D01*
X0019764Y0051731D01*
X0019465Y0052053D01*
X0019173Y0052383D01*
X0018890Y0052719D01*
X0018615Y0053063D01*
X0018348Y0053413D01*
X0018091Y0053770D01*
X0017842Y0054133D01*
X0017602Y0054501D01*
X0017371Y0054876D01*
X0017149Y0055256D01*
X0016937Y0055642D01*
X0016734Y0056032D01*
X0016541Y0056428D01*
X0016358Y0056828D01*
X0016185Y0057232D01*
X0016021Y0057641D01*
X0015868Y0058054D01*
X0015725Y0058470D01*
X0015592Y0058889D01*
X0015469Y0059312D01*
X0015357Y0059737D01*
X0015256Y0060166D01*
X0015165Y0060596D01*
X0015084Y0061029D01*
X0015014Y0061463D01*
X0014955Y0061899D01*
X0014906Y0062337D01*
X0014869Y0062775D01*
X0014842Y0063214D01*
X0014825Y0063654D01*
X0014820Y0064094D01*
X0001500Y0096594D02*
X0064000Y0096594D01*
X0064000Y0119094D01*
X0063802Y0119096D01*
X0063604Y0119104D01*
X0063407Y0119116D01*
X0063210Y0119133D01*
X0063013Y0119154D01*
X0062817Y0119181D01*
X0062622Y0119212D01*
X0062427Y0119248D01*
X0062233Y0119288D01*
X0062041Y0119334D01*
X0061849Y0119384D01*
X0061659Y0119438D01*
X0061470Y0119498D01*
X0061283Y0119562D01*
X0061097Y0119630D01*
X0060914Y0119703D01*
X0060731Y0119780D01*
X0060551Y0119862D01*
X0060373Y0119948D01*
X0060197Y0120039D01*
X0060023Y0120134D01*
X0059852Y0120233D01*
X0059683Y0120336D01*
X0059517Y0120443D01*
X0059353Y0120554D01*
X0059192Y0120669D01*
X0059034Y0120788D01*
X0058879Y0120911D01*
X0058727Y0121037D01*
X0058578Y0121168D01*
X0058432Y0121302D01*
X0058290Y0121439D01*
X0058151Y0121580D01*
X0058015Y0121724D01*
X0057883Y0121871D01*
X0057755Y0122022D01*
X0057630Y0122175D01*
X0057509Y0122332D01*
X0057392Y0122491D01*
X0057279Y0122654D01*
X0057170Y0122819D01*
X0057065Y0122986D01*
X0056964Y0123156D01*
X0056867Y0123329D01*
X0056774Y0123504D01*
X0056686Y0123681D01*
X0056602Y0123860D01*
X0056522Y0124041D01*
X0056447Y0124224D01*
X0056376Y0124409D01*
X0056310Y0124596D01*
X0056249Y0124784D01*
X0056192Y0124973D01*
X0056139Y0125164D01*
X0056091Y0125356D01*
X0056048Y0125549D01*
X0056010Y0125743D01*
X0055977Y0125938D01*
X0055948Y0126134D01*
X0055924Y0126330D01*
X0055904Y0126527D01*
X0055890Y0126725D01*
X0055880Y0126922D01*
X0055876Y0127120D01*
X0055876Y0127318D01*
X0055880Y0127516D01*
X0055890Y0127713D01*
X0055904Y0127911D01*
X0055924Y0128108D01*
X0055948Y0128304D01*
X0055977Y0128500D01*
X0056010Y0128695D01*
X0056048Y0128889D01*
X0056091Y0129082D01*
X0056139Y0129274D01*
X0056192Y0129465D01*
X0056249Y0129654D01*
X0056310Y0129842D01*
X0056376Y0130029D01*
X0056447Y0130214D01*
X0056522Y0130397D01*
X0056602Y0130578D01*
X0056686Y0130757D01*
X0056774Y0130934D01*
X0056867Y0131109D01*
X0056964Y0131282D01*
X0057065Y0131452D01*
X0057170Y0131619D01*
X0057279Y0131784D01*
X0057392Y0131947D01*
X0057509Y0132106D01*
X0057630Y0132263D01*
X0057755Y0132416D01*
X0057883Y0132567D01*
X0058015Y0132714D01*
X0058151Y0132858D01*
X0058290Y0132999D01*
X0058432Y0133136D01*
X0058578Y0133270D01*
X0058727Y0133401D01*
X0058879Y0133527D01*
X0059034Y0133650D01*
X0059192Y0133769D01*
X0059353Y0133884D01*
X0059517Y0133995D01*
X0059683Y0134102D01*
X0059852Y0134205D01*
X0060023Y0134304D01*
X0060197Y0134399D01*
X0060373Y0134490D01*
X0060551Y0134576D01*
X0060731Y0134658D01*
X0060914Y0134735D01*
X0061097Y0134808D01*
X0061283Y0134876D01*
X0061470Y0134940D01*
X0061659Y0135000D01*
X0061849Y0135054D01*
X0062041Y0135104D01*
X0062233Y0135150D01*
X0062427Y0135190D01*
X0062622Y0135226D01*
X0062817Y0135257D01*
X0063013Y0135284D01*
X0063210Y0135305D01*
X0063407Y0135322D01*
X0063604Y0135334D01*
X0063802Y0135342D01*
X0064000Y0135344D01*
X0064000Y0184094D01*
X0001500Y0184094D01*
X0001500Y0135344D01*
X0001698Y0135342D01*
X0001896Y0135334D01*
X0002093Y0135322D01*
X0002290Y0135305D01*
X0002487Y0135284D01*
X0002683Y0135257D01*
X0002878Y0135226D01*
X0003073Y0135190D01*
X0003267Y0135150D01*
X0003459Y0135104D01*
X0003651Y0135054D01*
X0003841Y0135000D01*
X0004030Y0134940D01*
X0004217Y0134876D01*
X0004403Y0134808D01*
X0004586Y0134735D01*
X0004769Y0134658D01*
X0004949Y0134576D01*
X0005127Y0134490D01*
X0005303Y0134399D01*
X0005477Y0134304D01*
X0005648Y0134205D01*
X0005817Y0134102D01*
X0005983Y0133995D01*
X0006147Y0133884D01*
X0006308Y0133769D01*
X0006466Y0133650D01*
X0006621Y0133527D01*
X0006773Y0133401D01*
X0006922Y0133270D01*
X0007068Y0133136D01*
X0007210Y0132999D01*
X0007349Y0132858D01*
X0007485Y0132714D01*
X0007617Y0132567D01*
X0007745Y0132416D01*
X0007870Y0132263D01*
X0007991Y0132106D01*
X0008108Y0131947D01*
X0008221Y0131784D01*
X0008330Y0131619D01*
X0008435Y0131452D01*
X0008536Y0131282D01*
X0008633Y0131109D01*
X0008726Y0130934D01*
X0008814Y0130757D01*
X0008898Y0130578D01*
X0008978Y0130397D01*
X0009053Y0130214D01*
X0009124Y0130029D01*
X0009190Y0129842D01*
X0009251Y0129654D01*
X0009308Y0129465D01*
X0009361Y0129274D01*
X0009409Y0129082D01*
X0009452Y0128889D01*
X0009490Y0128695D01*
X0009523Y0128500D01*
X0009552Y0128304D01*
X0009576Y0128108D01*
X0009596Y0127911D01*
X0009610Y0127713D01*
X0009620Y0127516D01*
X0009624Y0127318D01*
X0009624Y0127120D01*
X0009620Y0126922D01*
X0009610Y0126725D01*
X0009596Y0126527D01*
X0009576Y0126330D01*
X0009552Y0126134D01*
X0009523Y0125938D01*
X0009490Y0125743D01*
X0009452Y0125549D01*
X0009409Y0125356D01*
X0009361Y0125164D01*
X0009308Y0124973D01*
X0009251Y0124784D01*
X0009190Y0124596D01*
X0009124Y0124409D01*
X0009053Y0124224D01*
X0008978Y0124041D01*
X0008898Y0123860D01*
X0008814Y0123681D01*
X0008726Y0123504D01*
X0008633Y0123329D01*
X0008536Y0123157D01*
X0008435Y0122986D01*
X0008330Y0122819D01*
X0008221Y0122654D01*
X0008108Y0122491D01*
X0007991Y0122332D01*
X0007870Y0122175D01*
X0007745Y0122022D01*
X0007617Y0121871D01*
X0007485Y0121724D01*
X0007349Y0121580D01*
X0007210Y0121439D01*
X0007068Y0121302D01*
X0006922Y0121168D01*
X0006773Y0121037D01*
X0006621Y0120911D01*
X0006466Y0120788D01*
X0006308Y0120669D01*
X0006147Y0120554D01*
X0005983Y0120443D01*
X0005817Y0120336D01*
X0005648Y0120233D01*
X0005477Y0120134D01*
X0005303Y0120039D01*
X0005127Y0119948D01*
X0004949Y0119862D01*
X0004769Y0119780D01*
X0004586Y0119703D01*
X0004403Y0119630D01*
X0004217Y0119562D01*
X0004030Y0119498D01*
X0003841Y0119438D01*
X0003651Y0119384D01*
X0003459Y0119334D01*
X0003267Y0119288D01*
X0003073Y0119248D01*
X0002878Y0119212D01*
X0002683Y0119181D01*
X0002487Y0119154D01*
X0002290Y0119133D01*
X0002093Y0119116D01*
X0001896Y0119104D01*
X0001698Y0119096D01*
X0001500Y0119094D01*
X0001500Y0096594D01*
X0045637Y0139559D02*
X0043966Y0141229D01*
X0045776Y0139420D02*
X0048420Y0142064D01*
X0048281Y0142204D02*
X0046611Y0143873D01*
X0014820Y0155344D02*
X0014825Y0155784D01*
X0014842Y0156224D01*
X0014869Y0156663D01*
X0014906Y0157101D01*
X0014955Y0157539D01*
X0015014Y0157975D01*
X0015084Y0158409D01*
X0015165Y0158842D01*
X0015256Y0159272D01*
X0015357Y0159701D01*
X0015469Y0160126D01*
X0015592Y0160549D01*
X0015725Y0160968D01*
X0015868Y0161384D01*
X0016021Y0161797D01*
X0016185Y0162206D01*
X0016358Y0162610D01*
X0016541Y0163010D01*
X0016734Y0163406D01*
X0016937Y0163796D01*
X0017149Y0164182D01*
X0017371Y0164562D01*
X0017602Y0164937D01*
X0017842Y0165305D01*
X0018091Y0165668D01*
X0018348Y0166025D01*
X0018615Y0166375D01*
X0018890Y0166719D01*
X0019173Y0167055D01*
X0019465Y0167385D01*
X0019764Y0167707D01*
X0020072Y0168022D01*
X0020387Y0168330D01*
X0020709Y0168629D01*
X0021039Y0168921D01*
X0021375Y0169204D01*
X0021719Y0169479D01*
X0022069Y0169746D01*
X0022426Y0170003D01*
X0022789Y0170252D01*
X0023157Y0170492D01*
X0023532Y0170723D01*
X0023912Y0170945D01*
X0024298Y0171157D01*
X0024688Y0171360D01*
X0025084Y0171553D01*
X0025484Y0171736D01*
X0025888Y0171909D01*
X0026297Y0172073D01*
X0026710Y0172226D01*
X0027126Y0172369D01*
X0027545Y0172502D01*
X0027968Y0172625D01*
X0028393Y0172737D01*
X0028822Y0172838D01*
X0029252Y0172929D01*
X0029685Y0173010D01*
X0030119Y0173080D01*
X0030555Y0173139D01*
X0030993Y0173188D01*
X0031431Y0173225D01*
X0031870Y0173252D01*
X0032310Y0173269D01*
X0032750Y0173274D01*
X0033190Y0173269D01*
X0033630Y0173252D01*
X0034069Y0173225D01*
X0034507Y0173188D01*
X0034945Y0173139D01*
X0035381Y0173080D01*
X0035815Y0173010D01*
X0036248Y0172929D01*
X0036678Y0172838D01*
X0037107Y0172737D01*
X0037532Y0172625D01*
X0037955Y0172502D01*
X0038374Y0172369D01*
X0038790Y0172226D01*
X0039203Y0172073D01*
X0039612Y0171909D01*
X0040016Y0171736D01*
X0040416Y0171553D01*
X0040812Y0171360D01*
X0041202Y0171157D01*
X0041588Y0170945D01*
X0041968Y0170723D01*
X0042343Y0170492D01*
X0042711Y0170252D01*
X0043074Y0170003D01*
X0043431Y0169746D01*
X0043781Y0169479D01*
X0044125Y0169204D01*
X0044461Y0168921D01*
X0044791Y0168629D01*
X0045113Y0168330D01*
X0045428Y0168022D01*
X0045736Y0167707D01*
X0046035Y0167385D01*
X0046327Y0167055D01*
X0046610Y0166719D01*
X0046885Y0166375D01*
X0047152Y0166025D01*
X0047409Y0165668D01*
X0047658Y0165305D01*
X0047898Y0164937D01*
X0048129Y0164562D01*
X0048351Y0164182D01*
X0048563Y0163796D01*
X0048766Y0163406D01*
X0048959Y0163010D01*
X0049142Y0162610D01*
X0049315Y0162206D01*
X0049479Y0161797D01*
X0049632Y0161384D01*
X0049775Y0160968D01*
X0049908Y0160549D01*
X0050031Y0160126D01*
X0050143Y0159701D01*
X0050244Y0159272D01*
X0050335Y0158842D01*
X0050416Y0158409D01*
X0050486Y0157975D01*
X0050545Y0157539D01*
X0050594Y0157101D01*
X0050631Y0156663D01*
X0050658Y0156224D01*
X0050675Y0155784D01*
X0050680Y0155344D01*
X0050675Y0154904D01*
X0050658Y0154464D01*
X0050631Y0154025D01*
X0050594Y0153587D01*
X0050545Y0153149D01*
X0050486Y0152713D01*
X0050416Y0152279D01*
X0050335Y0151846D01*
X0050244Y0151416D01*
X0050143Y0150987D01*
X0050031Y0150562D01*
X0049908Y0150139D01*
X0049775Y0149720D01*
X0049632Y0149304D01*
X0049479Y0148891D01*
X0049315Y0148482D01*
X0049142Y0148078D01*
X0048959Y0147678D01*
X0048766Y0147282D01*
X0048563Y0146892D01*
X0048351Y0146506D01*
X0048129Y0146126D01*
X0047898Y0145751D01*
X0047658Y0145383D01*
X0047409Y0145020D01*
X0047152Y0144663D01*
X0046885Y0144313D01*
X0046610Y0143969D01*
X0046327Y0143633D01*
X0046035Y0143303D01*
X0045736Y0142981D01*
X0045428Y0142666D01*
X0045113Y0142358D01*
X0044791Y0142059D01*
X0044461Y0141767D01*
X0044125Y0141484D01*
X0043781Y0141209D01*
X0043431Y0140942D01*
X0043074Y0140685D01*
X0042711Y0140436D01*
X0042343Y0140196D01*
X0041968Y0139965D01*
X0041588Y0139743D01*
X0041202Y0139531D01*
X0040812Y0139328D01*
X0040416Y0139135D01*
X0040016Y0138952D01*
X0039612Y0138779D01*
X0039203Y0138615D01*
X0038790Y0138462D01*
X0038374Y0138319D01*
X0037955Y0138186D01*
X0037532Y0138063D01*
X0037107Y0137951D01*
X0036678Y0137850D01*
X0036248Y0137759D01*
X0035815Y0137678D01*
X0035381Y0137608D01*
X0034945Y0137549D01*
X0034507Y0137500D01*
X0034069Y0137463D01*
X0033630Y0137436D01*
X0033190Y0137419D01*
X0032750Y0137414D01*
X0032310Y0137419D01*
X0031870Y0137436D01*
X0031431Y0137463D01*
X0030993Y0137500D01*
X0030555Y0137549D01*
X0030119Y0137608D01*
X0029685Y0137678D01*
X0029252Y0137759D01*
X0028822Y0137850D01*
X0028393Y0137951D01*
X0027968Y0138063D01*
X0027545Y0138186D01*
X0027126Y0138319D01*
X0026710Y0138462D01*
X0026297Y0138615D01*
X0025888Y0138779D01*
X0025484Y0138952D01*
X0025084Y0139135D01*
X0024688Y0139328D01*
X0024298Y0139531D01*
X0023912Y0139743D01*
X0023532Y0139965D01*
X0023157Y0140196D01*
X0022789Y0140436D01*
X0022426Y0140685D01*
X0022069Y0140942D01*
X0021719Y0141209D01*
X0021375Y0141484D01*
X0021039Y0141767D01*
X0020709Y0142059D01*
X0020387Y0142358D01*
X0020072Y0142666D01*
X0019764Y0142981D01*
X0019465Y0143303D01*
X0019173Y0143633D01*
X0018890Y0143969D01*
X0018615Y0144313D01*
X0018348Y0144663D01*
X0018091Y0145020D01*
X0017842Y0145383D01*
X0017602Y0145751D01*
X0017371Y0146126D01*
X0017149Y0146506D01*
X0016937Y0146892D01*
X0016734Y0147282D01*
X0016541Y0147678D01*
X0016358Y0148078D01*
X0016185Y0148482D01*
X0016021Y0148891D01*
X0015868Y0149304D01*
X0015725Y0149720D01*
X0015592Y0150139D01*
X0015469Y0150562D01*
X0015357Y0150987D01*
X0015256Y0151416D01*
X0015165Y0151846D01*
X0015084Y0152279D01*
X0015014Y0152713D01*
X0014955Y0153149D01*
X0014906Y0153587D01*
X0014869Y0154025D01*
X0014842Y0154464D01*
X0014825Y0154904D01*
X0014820Y0155344D01*
X0001500Y0187844D02*
X0064000Y0187844D01*
X0064000Y0210344D01*
X0063802Y0210346D01*
X0063604Y0210354D01*
X0063407Y0210366D01*
X0063210Y0210383D01*
X0063013Y0210404D01*
X0062817Y0210431D01*
X0062622Y0210462D01*
X0062427Y0210498D01*
X0062233Y0210538D01*
X0062041Y0210584D01*
X0061849Y0210634D01*
X0061659Y0210688D01*
X0061470Y0210748D01*
X0061283Y0210812D01*
X0061097Y0210880D01*
X0060914Y0210953D01*
X0060731Y0211030D01*
X0060551Y0211112D01*
X0060373Y0211198D01*
X0060197Y0211289D01*
X0060023Y0211384D01*
X0059852Y0211483D01*
X0059683Y0211586D01*
X0059517Y0211693D01*
X0059353Y0211804D01*
X0059192Y0211919D01*
X0059034Y0212038D01*
X0058879Y0212161D01*
X0058727Y0212287D01*
X0058578Y0212418D01*
X0058432Y0212552D01*
X0058290Y0212689D01*
X0058151Y0212830D01*
X0058015Y0212974D01*
X0057883Y0213121D01*
X0057755Y0213272D01*
X0057630Y0213425D01*
X0057509Y0213582D01*
X0057392Y0213741D01*
X0057279Y0213904D01*
X0057170Y0214069D01*
X0057065Y0214236D01*
X0056964Y0214406D01*
X0056867Y0214579D01*
X0056774Y0214754D01*
X0056686Y0214931D01*
X0056602Y0215110D01*
X0056522Y0215291D01*
X0056447Y0215474D01*
X0056376Y0215659D01*
X0056310Y0215846D01*
X0056249Y0216034D01*
X0056192Y0216223D01*
X0056139Y0216414D01*
X0056091Y0216606D01*
X0056048Y0216799D01*
X0056010Y0216993D01*
X0055977Y0217188D01*
X0055948Y0217384D01*
X0055924Y0217580D01*
X0055904Y0217777D01*
X0055890Y0217975D01*
X0055880Y0218172D01*
X0055876Y0218370D01*
X0055876Y0218568D01*
X0055880Y0218766D01*
X0055890Y0218963D01*
X0055904Y0219161D01*
X0055924Y0219358D01*
X0055948Y0219554D01*
X0055977Y0219750D01*
X0056010Y0219945D01*
X0056048Y0220139D01*
X0056091Y0220332D01*
X0056139Y0220524D01*
X0056192Y0220715D01*
X0056249Y0220904D01*
X0056310Y0221092D01*
X0056376Y0221279D01*
X0056447Y0221464D01*
X0056522Y0221647D01*
X0056602Y0221828D01*
X0056686Y0222007D01*
X0056774Y0222184D01*
X0056867Y0222359D01*
X0056964Y0222532D01*
X0057065Y0222702D01*
X0057170Y0222869D01*
X0057279Y0223034D01*
X0057392Y0223197D01*
X0057509Y0223356D01*
X0057630Y0223513D01*
X0057755Y0223666D01*
X0057883Y0223817D01*
X0058015Y0223964D01*
X0058151Y0224108D01*
X0058290Y0224249D01*
X0058432Y0224386D01*
X0058578Y0224520D01*
X0058727Y0224651D01*
X0058879Y0224777D01*
X0059034Y0224900D01*
X0059192Y0225019D01*
X0059353Y0225134D01*
X0059517Y0225245D01*
X0059683Y0225352D01*
X0059852Y0225455D01*
X0060023Y0225554D01*
X0060197Y0225649D01*
X0060373Y0225740D01*
X0060551Y0225826D01*
X0060731Y0225908D01*
X0060914Y0225985D01*
X0061097Y0226058D01*
X0061283Y0226126D01*
X0061470Y0226190D01*
X0061659Y0226250D01*
X0061849Y0226304D01*
X0062041Y0226354D01*
X0062233Y0226400D01*
X0062427Y0226440D01*
X0062622Y0226476D01*
X0062817Y0226507D01*
X0063013Y0226534D01*
X0063210Y0226555D01*
X0063407Y0226572D01*
X0063604Y0226584D01*
X0063802Y0226592D01*
X0064000Y0226594D01*
X0064000Y0275344D01*
X0001500Y0275344D01*
X0001500Y0226594D01*
X0001698Y0226592D01*
X0001896Y0226584D01*
X0002093Y0226572D01*
X0002290Y0226555D01*
X0002487Y0226534D01*
X0002683Y0226507D01*
X0002878Y0226476D01*
X0003073Y0226440D01*
X0003267Y0226400D01*
X0003459Y0226354D01*
X0003651Y0226304D01*
X0003841Y0226250D01*
X0004030Y0226190D01*
X0004217Y0226126D01*
X0004403Y0226058D01*
X0004586Y0225985D01*
X0004769Y0225908D01*
X0004949Y0225826D01*
X0005127Y0225740D01*
X0005303Y0225649D01*
X0005477Y0225554D01*
X0005648Y0225455D01*
X0005817Y0225352D01*
X0005983Y0225245D01*
X0006147Y0225134D01*
X0006308Y0225019D01*
X0006466Y0224900D01*
X0006621Y0224777D01*
X0006773Y0224651D01*
X0006922Y0224520D01*
X0007068Y0224386D01*
X0007210Y0224249D01*
X0007349Y0224108D01*
X0007485Y0223964D01*
X0007617Y0223817D01*
X0007745Y0223666D01*
X0007870Y0223513D01*
X0007991Y0223356D01*
X0008108Y0223197D01*
X0008221Y0223034D01*
X0008330Y0222869D01*
X0008435Y0222702D01*
X0008536Y0222532D01*
X0008633Y0222359D01*
X0008726Y0222184D01*
X0008814Y0222007D01*
X0008898Y0221828D01*
X0008978Y0221647D01*
X0009053Y0221464D01*
X0009124Y0221279D01*
X0009190Y0221092D01*
X0009251Y0220904D01*
X0009308Y0220715D01*
X0009361Y0220524D01*
X0009409Y0220332D01*
X0009452Y0220139D01*
X0009490Y0219945D01*
X0009523Y0219750D01*
X0009552Y0219554D01*
X0009576Y0219358D01*
X0009596Y0219161D01*
X0009610Y0218963D01*
X0009620Y0218766D01*
X0009624Y0218568D01*
X0009624Y0218370D01*
X0009620Y0218172D01*
X0009610Y0217975D01*
X0009596Y0217777D01*
X0009576Y0217580D01*
X0009552Y0217384D01*
X0009523Y0217188D01*
X0009490Y0216993D01*
X0009452Y0216799D01*
X0009409Y0216606D01*
X0009361Y0216414D01*
X0009308Y0216223D01*
X0009251Y0216034D01*
X0009190Y0215846D01*
X0009124Y0215659D01*
X0009053Y0215474D01*
X0008978Y0215291D01*
X0008898Y0215110D01*
X0008814Y0214931D01*
X0008726Y0214754D01*
X0008633Y0214579D01*
X0008536Y0214407D01*
X0008435Y0214236D01*
X0008330Y0214069D01*
X0008221Y0213904D01*
X0008108Y0213741D01*
X0007991Y0213582D01*
X0007870Y0213425D01*
X0007745Y0213272D01*
X0007617Y0213121D01*
X0007485Y0212974D01*
X0007349Y0212830D01*
X0007210Y0212689D01*
X0007068Y0212552D01*
X0006922Y0212418D01*
X0006773Y0212287D01*
X0006621Y0212161D01*
X0006466Y0212038D01*
X0006308Y0211919D01*
X0006147Y0211804D01*
X0005983Y0211693D01*
X0005817Y0211586D01*
X0005648Y0211483D01*
X0005477Y0211384D01*
X0005303Y0211289D01*
X0005127Y0211198D01*
X0004949Y0211112D01*
X0004769Y0211030D01*
X0004586Y0210953D01*
X0004403Y0210880D01*
X0004217Y0210812D01*
X0004030Y0210748D01*
X0003841Y0210688D01*
X0003651Y0210634D01*
X0003459Y0210584D01*
X0003267Y0210538D01*
X0003073Y0210498D01*
X0002878Y0210462D01*
X0002683Y0210431D01*
X0002487Y0210404D01*
X0002290Y0210383D01*
X0002093Y0210366D01*
X0001896Y0210354D01*
X0001698Y0210346D01*
X0001500Y0210344D01*
X0001500Y0187844D01*
X0045637Y0230809D02*
X0043966Y0232479D01*
X0045776Y0230670D02*
X0048420Y0233314D01*
X0048281Y0233454D02*
X0046611Y0235123D01*
X0014820Y0246594D02*
X0014825Y0247034D01*
X0014842Y0247474D01*
X0014869Y0247913D01*
X0014906Y0248351D01*
X0014955Y0248789D01*
X0015014Y0249225D01*
X0015084Y0249659D01*
X0015165Y0250092D01*
X0015256Y0250522D01*
X0015357Y0250951D01*
X0015469Y0251376D01*
X0015592Y0251799D01*
X0015725Y0252218D01*
X0015868Y0252634D01*
X0016021Y0253047D01*
X0016185Y0253456D01*
X0016358Y0253860D01*
X0016541Y0254260D01*
X0016734Y0254656D01*
X0016937Y0255046D01*
X0017149Y0255432D01*
X0017371Y0255812D01*
X0017602Y0256187D01*
X0017842Y0256555D01*
X0018091Y0256918D01*
X0018348Y0257275D01*
X0018615Y0257625D01*
X0018890Y0257969D01*
X0019173Y0258305D01*
X0019465Y0258635D01*
X0019764Y0258957D01*
X0020072Y0259272D01*
X0020387Y0259580D01*
X0020709Y0259879D01*
X0021039Y0260171D01*
X0021375Y0260454D01*
X0021719Y0260729D01*
X0022069Y0260996D01*
X0022426Y0261253D01*
X0022789Y0261502D01*
X0023157Y0261742D01*
X0023532Y0261973D01*
X0023912Y0262195D01*
X0024298Y0262407D01*
X0024688Y0262610D01*
X0025084Y0262803D01*
X0025484Y0262986D01*
X0025888Y0263159D01*
X0026297Y0263323D01*
X0026710Y0263476D01*
X0027126Y0263619D01*
X0027545Y0263752D01*
X0027968Y0263875D01*
X0028393Y0263987D01*
X0028822Y0264088D01*
X0029252Y0264179D01*
X0029685Y0264260D01*
X0030119Y0264330D01*
X0030555Y0264389D01*
X0030993Y0264438D01*
X0031431Y0264475D01*
X0031870Y0264502D01*
X0032310Y0264519D01*
X0032750Y0264524D01*
X0033190Y0264519D01*
X0033630Y0264502D01*
X0034069Y0264475D01*
X0034507Y0264438D01*
X0034945Y0264389D01*
X0035381Y0264330D01*
X0035815Y0264260D01*
X0036248Y0264179D01*
X0036678Y0264088D01*
X0037107Y0263987D01*
X0037532Y0263875D01*
X0037955Y0263752D01*
X0038374Y0263619D01*
X0038790Y0263476D01*
X0039203Y0263323D01*
X0039612Y0263159D01*
X0040016Y0262986D01*
X0040416Y0262803D01*
X0040812Y0262610D01*
X0041202Y0262407D01*
X0041588Y0262195D01*
X0041968Y0261973D01*
X0042343Y0261742D01*
X0042711Y0261502D01*
X0043074Y0261253D01*
X0043431Y0260996D01*
X0043781Y0260729D01*
X0044125Y0260454D01*
X0044461Y0260171D01*
X0044791Y0259879D01*
X0045113Y0259580D01*
X0045428Y0259272D01*
X0045736Y0258957D01*
X0046035Y0258635D01*
X0046327Y0258305D01*
X0046610Y0257969D01*
X0046885Y0257625D01*
X0047152Y0257275D01*
X0047409Y0256918D01*
X0047658Y0256555D01*
X0047898Y0256187D01*
X0048129Y0255812D01*
X0048351Y0255432D01*
X0048563Y0255046D01*
X0048766Y0254656D01*
X0048959Y0254260D01*
X0049142Y0253860D01*
X0049315Y0253456D01*
X0049479Y0253047D01*
X0049632Y0252634D01*
X0049775Y0252218D01*
X0049908Y0251799D01*
X0050031Y0251376D01*
X0050143Y0250951D01*
X0050244Y0250522D01*
X0050335Y0250092D01*
X0050416Y0249659D01*
X0050486Y0249225D01*
X0050545Y0248789D01*
X0050594Y0248351D01*
X0050631Y0247913D01*
X0050658Y0247474D01*
X0050675Y0247034D01*
X0050680Y0246594D01*
X0050675Y0246154D01*
X0050658Y0245714D01*
X0050631Y0245275D01*
X0050594Y0244837D01*
X0050545Y0244399D01*
X0050486Y0243963D01*
X0050416Y0243529D01*
X0050335Y0243096D01*
X0050244Y0242666D01*
X0050143Y0242237D01*
X0050031Y0241812D01*
X0049908Y0241389D01*
X0049775Y0240970D01*
X0049632Y0240554D01*
X0049479Y0240141D01*
X0049315Y0239732D01*
X0049142Y0239328D01*
X0048959Y0238928D01*
X0048766Y0238532D01*
X0048563Y0238142D01*
X0048351Y0237756D01*
X0048129Y0237376D01*
X0047898Y0237001D01*
X0047658Y0236633D01*
X0047409Y0236270D01*
X0047152Y0235913D01*
X0046885Y0235563D01*
X0046610Y0235219D01*
X0046327Y0234883D01*
X0046035Y0234553D01*
X0045736Y0234231D01*
X0045428Y0233916D01*
X0045113Y0233608D01*
X0044791Y0233309D01*
X0044461Y0233017D01*
X0044125Y0232734D01*
X0043781Y0232459D01*
X0043431Y0232192D01*
X0043074Y0231935D01*
X0042711Y0231686D01*
X0042343Y0231446D01*
X0041968Y0231215D01*
X0041588Y0230993D01*
X0041202Y0230781D01*
X0040812Y0230578D01*
X0040416Y0230385D01*
X0040016Y0230202D01*
X0039612Y0230029D01*
X0039203Y0229865D01*
X0038790Y0229712D01*
X0038374Y0229569D01*
X0037955Y0229436D01*
X0037532Y0229313D01*
X0037107Y0229201D01*
X0036678Y0229100D01*
X0036248Y0229009D01*
X0035815Y0228928D01*
X0035381Y0228858D01*
X0034945Y0228799D01*
X0034507Y0228750D01*
X0034069Y0228713D01*
X0033630Y0228686D01*
X0033190Y0228669D01*
X0032750Y0228664D01*
X0032310Y0228669D01*
X0031870Y0228686D01*
X0031431Y0228713D01*
X0030993Y0228750D01*
X0030555Y0228799D01*
X0030119Y0228858D01*
X0029685Y0228928D01*
X0029252Y0229009D01*
X0028822Y0229100D01*
X0028393Y0229201D01*
X0027968Y0229313D01*
X0027545Y0229436D01*
X0027126Y0229569D01*
X0026710Y0229712D01*
X0026297Y0229865D01*
X0025888Y0230029D01*
X0025484Y0230202D01*
X0025084Y0230385D01*
X0024688Y0230578D01*
X0024298Y0230781D01*
X0023912Y0230993D01*
X0023532Y0231215D01*
X0023157Y0231446D01*
X0022789Y0231686D01*
X0022426Y0231935D01*
X0022069Y0232192D01*
X0021719Y0232459D01*
X0021375Y0232734D01*
X0021039Y0233017D01*
X0020709Y0233309D01*
X0020387Y0233608D01*
X0020072Y0233916D01*
X0019764Y0234231D01*
X0019465Y0234553D01*
X0019173Y0234883D01*
X0018890Y0235219D01*
X0018615Y0235563D01*
X0018348Y0235913D01*
X0018091Y0236270D01*
X0017842Y0236633D01*
X0017602Y0237001D01*
X0017371Y0237376D01*
X0017149Y0237756D01*
X0016937Y0238142D01*
X0016734Y0238532D01*
X0016541Y0238928D01*
X0016358Y0239328D01*
X0016185Y0239732D01*
X0016021Y0240141D01*
X0015868Y0240554D01*
X0015725Y0240970D01*
X0015592Y0241389D01*
X0015469Y0241812D01*
X0015357Y0242237D01*
X0015256Y0242666D01*
X0015165Y0243096D01*
X0015084Y0243529D01*
X0015014Y0243963D01*
X0014955Y0244399D01*
X0014906Y0244837D01*
X0014869Y0245275D01*
X0014842Y0245714D01*
X0014825Y0246154D01*
X0014820Y0246594D01*
X0067750Y0240344D02*
X0072750Y0245344D01*
X0112750Y0245344D01*
X0117750Y0250344D01*
X0117750Y0271594D01*
X0121500Y0275344D01*
X0274000Y0275344D01*
X0277750Y0271594D01*
X0277750Y0020344D01*
X0272750Y0015344D01*
X0267750Y0015344D01*
X0257750Y0005344D01*
X0087750Y0005344D01*
X0077750Y0015344D01*
X0072750Y0015344D01*
X0067750Y0020344D01*
X0067750Y0240344D01*
D11*
X0126900Y0259047D02*
X0128301Y0256244D01*
X0129702Y0259047D01*
X0131504Y0258346D02*
X0131504Y0260448D01*
X0134306Y0260448D01*
X0133606Y0259047D02*
X0134306Y0258346D01*
X0134306Y0256945D01*
X0133606Y0256244D01*
X0132205Y0256244D01*
X0131504Y0256945D01*
X0131504Y0258346D02*
X0132905Y0259047D01*
X0133606Y0259047D01*
X0136108Y0256945D02*
X0136808Y0256945D01*
X0136808Y0256244D01*
X0136108Y0256244D01*
X0136108Y0256945D01*
X0138410Y0256945D02*
X0138410Y0259747D01*
X0139110Y0260448D01*
X0140512Y0260448D01*
X0141212Y0259747D01*
X0138410Y0256945D01*
X0139110Y0256244D01*
X0140512Y0256244D01*
X0141212Y0256945D01*
X0141212Y0259747D01*
X0140712Y0263744D02*
X0142113Y0265146D01*
X0143514Y0263744D01*
X0143514Y0267948D01*
X0140712Y0267948D02*
X0140712Y0263744D01*
X0139110Y0263744D02*
X0138410Y0263744D01*
X0138410Y0264445D01*
X0139110Y0264445D01*
X0139110Y0263744D01*
X0136608Y0263744D02*
X0136608Y0266547D01*
X0135207Y0267948D01*
X0133806Y0266547D01*
X0133806Y0263744D01*
X0132205Y0263744D02*
X0131504Y0263744D01*
X0131504Y0264445D01*
X0132205Y0264445D01*
X0132205Y0263744D01*
X0129702Y0264445D02*
X0129702Y0267247D01*
X0129002Y0267948D01*
X0126900Y0267948D01*
X0126900Y0263744D01*
X0129002Y0263744D01*
X0129702Y0264445D01*
X0133806Y0265846D02*
X0136608Y0265846D01*
X0145316Y0264445D02*
X0146016Y0264445D01*
X0146016Y0263744D01*
X0145316Y0263744D01*
X0145316Y0264445D01*
X0147618Y0263744D02*
X0147618Y0266547D01*
X0149019Y0267948D01*
X0150420Y0266547D01*
X0150420Y0263744D01*
X0152222Y0263744D02*
X0152922Y0263744D01*
X0152922Y0264445D01*
X0152222Y0264445D01*
X0152222Y0263744D01*
X0150420Y0265846D02*
X0147618Y0265846D01*
X0201900Y0209198D02*
X0204002Y0209198D01*
X0204702Y0208497D01*
X0204702Y0205695D01*
X0204002Y0204994D01*
X0201900Y0204994D01*
X0201900Y0209198D01*
X0206504Y0205695D02*
X0207205Y0206396D01*
X0209306Y0206396D01*
X0209306Y0207096D02*
X0209306Y0204994D01*
X0207205Y0204994D01*
X0206504Y0205695D01*
X0207205Y0207797D02*
X0208606Y0207797D01*
X0209306Y0207096D01*
X0211108Y0207797D02*
X0212509Y0207797D01*
X0211808Y0208497D02*
X0211808Y0205695D01*
X0212509Y0204994D01*
X0214177Y0205695D02*
X0214878Y0206396D01*
X0216980Y0206396D01*
X0216980Y0207096D02*
X0216980Y0204994D01*
X0214878Y0204994D01*
X0214177Y0205695D01*
X0214878Y0207797D02*
X0216279Y0207797D01*
X0216980Y0207096D01*
X0221016Y0202399D02*
X0221016Y0201698D01*
X0221016Y0200297D02*
X0221016Y0197494D01*
X0220316Y0197494D02*
X0221717Y0197494D01*
X0223385Y0197494D02*
X0225487Y0197494D01*
X0226187Y0198195D01*
X0225487Y0198896D01*
X0224086Y0198896D01*
X0223385Y0199596D01*
X0224086Y0200297D01*
X0226187Y0200297D01*
X0227989Y0200297D02*
X0228689Y0200297D01*
X0228689Y0197494D01*
X0227989Y0197494D02*
X0229390Y0197494D01*
X0231759Y0198195D02*
X0232459Y0197494D01*
X0231759Y0198195D02*
X0231759Y0200997D01*
X0232459Y0200297D02*
X0231058Y0200297D01*
X0228689Y0201698D02*
X0228689Y0202399D01*
X0234127Y0200297D02*
X0234828Y0200297D01*
X0234828Y0197494D01*
X0234127Y0197494D02*
X0235529Y0197494D01*
X0237197Y0198195D02*
X0237897Y0197494D01*
X0239299Y0197494D01*
X0239999Y0198195D01*
X0239999Y0199596D01*
X0239299Y0200297D01*
X0237897Y0200297D01*
X0237197Y0199596D01*
X0237197Y0198195D01*
X0234828Y0201698D02*
X0234828Y0202399D01*
X0241801Y0200297D02*
X0241801Y0197494D01*
X0244603Y0197494D02*
X0244603Y0199596D01*
X0243902Y0200297D01*
X0241801Y0200297D01*
X0229323Y0185297D02*
X0227922Y0185297D01*
X0227222Y0184596D01*
X0227222Y0183195D01*
X0227922Y0182494D01*
X0229323Y0182494D01*
X0230024Y0183195D01*
X0230024Y0184596D01*
X0229323Y0185297D01*
X0225420Y0184596D02*
X0225420Y0182494D01*
X0225420Y0184596D02*
X0224719Y0185297D01*
X0222618Y0185297D01*
X0222618Y0182494D01*
X0220950Y0182494D02*
X0219548Y0182494D01*
X0220249Y0182494D02*
X0220249Y0185297D01*
X0219548Y0185297D01*
X0220249Y0186698D02*
X0220249Y0187399D01*
X0217747Y0185297D02*
X0217747Y0182494D01*
X0215645Y0182494D01*
X0214944Y0183195D01*
X0214944Y0185297D01*
X0213143Y0185297D02*
X0211041Y0185297D01*
X0210341Y0184596D01*
X0210341Y0183195D01*
X0211041Y0182494D01*
X0213143Y0182494D01*
X0213143Y0186698D01*
X0212642Y0189994D02*
X0212642Y0194198D01*
X0213343Y0192797D02*
X0214744Y0192797D01*
X0215445Y0192096D01*
X0215445Y0189994D01*
X0212642Y0192096D02*
X0213343Y0192797D01*
X0210974Y0192797D02*
X0209573Y0192797D01*
X0210274Y0193497D02*
X0210274Y0190695D01*
X0210974Y0189994D01*
X0207905Y0189994D02*
X0206504Y0189994D01*
X0207205Y0189994D02*
X0207205Y0192797D01*
X0206504Y0192797D01*
X0207205Y0194198D02*
X0207205Y0194899D01*
X0207205Y0197494D02*
X0206504Y0198195D01*
X0206504Y0199596D01*
X0207205Y0200297D01*
X0209306Y0200297D01*
X0211108Y0199596D02*
X0211108Y0198195D01*
X0211808Y0197494D01*
X0213910Y0197494D01*
X0213910Y0196093D02*
X0213910Y0200297D01*
X0211808Y0200297D01*
X0211108Y0199596D01*
X0209306Y0197494D02*
X0207205Y0197494D01*
X0204702Y0197494D02*
X0204702Y0200297D01*
X0203301Y0201698D01*
X0201900Y0200297D01*
X0201900Y0197494D01*
X0201900Y0199596D02*
X0204702Y0199596D01*
X0204702Y0194198D02*
X0204702Y0189994D01*
X0203301Y0191396D01*
X0201900Y0189994D01*
X0201900Y0194198D01*
X0203301Y0186698D02*
X0204702Y0185297D01*
X0204702Y0182494D01*
X0206504Y0182494D02*
X0206504Y0185297D01*
X0206504Y0183896D02*
X0207905Y0185297D01*
X0208606Y0185297D01*
X0204702Y0184596D02*
X0201900Y0184596D01*
X0201900Y0185297D02*
X0203301Y0186698D01*
X0201900Y0185297D02*
X0201900Y0182494D01*
X0216412Y0197494D02*
X0218514Y0197494D01*
X0218514Y0200297D01*
X0220316Y0200297D02*
X0221016Y0200297D01*
X0215712Y0200297D02*
X0215712Y0198195D01*
X0216412Y0197494D01*
X0147209Y0024232D02*
X0135791Y0024232D01*
X0135535Y0007746D02*
X0147465Y0007746D01*
D12*
X0162750Y0012844D02*
X0162750Y0027844D01*
X0165250Y0030344D01*
X0170250Y0030344D01*
X0172750Y0027844D01*
X0172750Y0012844D01*
X0170250Y0010344D01*
X0165250Y0010344D01*
X0162750Y0012844D01*
X0172750Y0012844D02*
X0175250Y0010344D01*
X0180250Y0010344D01*
X0182750Y0012844D01*
X0182750Y0027844D01*
X0180250Y0030344D01*
X0175250Y0030344D01*
X0172750Y0027844D01*
X0182750Y0027844D02*
X0185250Y0030344D01*
X0190250Y0030344D01*
X0192750Y0027844D01*
X0192750Y0012844D01*
X0190250Y0010344D01*
X0185250Y0010344D01*
X0182750Y0012844D01*
X0207144Y0051194D02*
X0206710Y0051628D01*
X0207144Y0051194D02*
X0208012Y0051194D01*
X0208445Y0051628D01*
X0208445Y0052062D01*
X0208012Y0052496D01*
X0207144Y0052496D01*
X0206710Y0052929D01*
X0206710Y0053363D01*
X0207144Y0053797D01*
X0208012Y0053797D01*
X0208445Y0053363D01*
X0209657Y0053363D02*
X0209657Y0051628D01*
X0210091Y0051194D01*
X0210958Y0051194D01*
X0211392Y0051628D01*
X0212603Y0051194D02*
X0212603Y0053797D01*
X0211392Y0053363D02*
X0210958Y0053797D01*
X0210091Y0053797D01*
X0209657Y0053363D01*
X0212603Y0051194D02*
X0214338Y0051194D01*
X0216710Y0051628D02*
X0217144Y0051194D01*
X0218012Y0051194D01*
X0218445Y0051628D01*
X0218445Y0052062D01*
X0218012Y0052496D01*
X0217144Y0052496D01*
X0216710Y0052929D01*
X0216710Y0053363D01*
X0217144Y0053797D01*
X0218012Y0053797D01*
X0218445Y0053363D01*
X0219657Y0053797D02*
X0220958Y0053797D01*
X0221392Y0053363D01*
X0221392Y0051628D01*
X0220958Y0051194D01*
X0219657Y0051194D01*
X0219657Y0053797D01*
X0222603Y0052929D02*
X0222603Y0051194D01*
X0222603Y0052496D02*
X0224338Y0052496D01*
X0224338Y0052929D02*
X0224338Y0051194D01*
X0224338Y0052929D02*
X0223471Y0053797D01*
X0222603Y0052929D01*
X0226710Y0053363D02*
X0226710Y0051628D01*
X0227144Y0051194D01*
X0228012Y0051194D01*
X0228445Y0051628D01*
X0228445Y0052496D01*
X0227578Y0052496D01*
X0228445Y0053363D02*
X0228012Y0053797D01*
X0227144Y0053797D01*
X0226710Y0053363D01*
X0229657Y0053797D02*
X0231392Y0051194D01*
X0231392Y0053797D01*
X0232603Y0053797D02*
X0232603Y0051194D01*
X0233905Y0051194D01*
X0234338Y0051628D01*
X0234338Y0053363D01*
X0233905Y0053797D01*
X0232603Y0053797D01*
X0229657Y0053797D02*
X0229657Y0051194D01*
X0236487Y0051628D02*
X0236921Y0051194D01*
X0237788Y0051194D01*
X0238222Y0051628D01*
X0238222Y0052062D01*
X0237788Y0052496D01*
X0237355Y0052496D01*
X0237788Y0052496D02*
X0238222Y0052929D01*
X0238222Y0053363D01*
X0237788Y0053797D01*
X0236921Y0053797D01*
X0236487Y0053363D01*
X0239434Y0051628D02*
X0239867Y0051628D01*
X0239867Y0051194D01*
X0239434Y0051194D01*
X0239434Y0051628D01*
X0240907Y0051628D02*
X0241341Y0051194D01*
X0242208Y0051194D01*
X0242642Y0051628D01*
X0242642Y0052062D01*
X0242208Y0052496D01*
X0241774Y0052496D01*
X0242208Y0052496D02*
X0242642Y0052929D01*
X0242642Y0053363D01*
X0242208Y0053797D01*
X0241341Y0053797D01*
X0240907Y0053363D01*
X0243853Y0052929D02*
X0244721Y0051194D01*
X0245588Y0052929D01*
X0250193Y0053797D02*
X0251060Y0053797D01*
X0250626Y0053797D02*
X0250626Y0051194D01*
X0250193Y0051194D02*
X0251060Y0051194D01*
X0252157Y0051194D02*
X0253892Y0052929D01*
X0253892Y0053363D01*
X0253458Y0053797D01*
X0252591Y0053797D01*
X0252157Y0053363D01*
X0252157Y0051194D02*
X0253892Y0051194D01*
X0255103Y0051628D02*
X0255103Y0053363D01*
X0255537Y0053797D01*
X0256405Y0053797D01*
X0256838Y0053363D01*
X0256838Y0051628D02*
X0256405Y0051194D01*
X0255537Y0051194D01*
X0255103Y0051628D01*
X0258598Y0041576D02*
X0261200Y0039841D01*
X0261200Y0041576D02*
X0258598Y0039841D01*
X0258598Y0038629D02*
X0258598Y0036894D01*
X0258598Y0037762D02*
X0261200Y0037762D01*
X0261200Y0032826D02*
X0258598Y0031091D01*
X0259031Y0029879D02*
X0259899Y0029879D01*
X0260333Y0029446D01*
X0260333Y0028144D01*
X0261200Y0028144D02*
X0258598Y0028144D01*
X0258598Y0029446D01*
X0259031Y0029879D01*
X0260333Y0029012D02*
X0261200Y0029879D01*
X0261200Y0031091D02*
X0258598Y0032826D01*
X0253348Y0102156D02*
X0252978Y0102156D01*
X0253348Y0102156D02*
X0253348Y0108533D01*
X0252978Y0108533D01*
X0249805Y0108533D02*
X0249435Y0108533D01*
X0246065Y0108533D02*
X0245695Y0108533D01*
X0242522Y0108533D02*
X0242152Y0108533D01*
X0242152Y0102156D01*
X0242522Y0102156D01*
X0245695Y0102156D02*
X0249805Y0102156D01*
X0241400Y0126594D02*
X0235200Y0126594D01*
X0232800Y0126594D01*
X0226600Y0126594D01*
X0213100Y0122744D02*
X0213100Y0117944D01*
X0204900Y0117944D02*
X0204900Y0119144D01*
X0204900Y0121544D01*
X0204900Y0122744D01*
X0204900Y0121544D02*
X0204969Y0121542D01*
X0205037Y0121536D01*
X0205105Y0121526D01*
X0205172Y0121513D01*
X0205238Y0121495D01*
X0205303Y0121474D01*
X0205367Y0121449D01*
X0205429Y0121421D01*
X0205490Y0121389D01*
X0205549Y0121354D01*
X0205605Y0121315D01*
X0205660Y0121273D01*
X0205711Y0121228D01*
X0205761Y0121180D01*
X0205807Y0121130D01*
X0205850Y0121077D01*
X0205891Y0121021D01*
X0205928Y0120964D01*
X0205961Y0120904D01*
X0205992Y0120842D01*
X0206018Y0120779D01*
X0206041Y0120715D01*
X0206061Y0120649D01*
X0206076Y0120582D01*
X0206088Y0120515D01*
X0206096Y0120447D01*
X0206100Y0120378D01*
X0206100Y0120310D01*
X0206096Y0120241D01*
X0206088Y0120173D01*
X0206076Y0120106D01*
X0206061Y0120039D01*
X0206041Y0119973D01*
X0206018Y0119909D01*
X0205992Y0119846D01*
X0205961Y0119784D01*
X0205928Y0119724D01*
X0205891Y0119667D01*
X0205850Y0119611D01*
X0205807Y0119558D01*
X0205761Y0119508D01*
X0205711Y0119460D01*
X0205660Y0119415D01*
X0205605Y0119373D01*
X0205549Y0119334D01*
X0205490Y0119299D01*
X0205429Y0119267D01*
X0205367Y0119239D01*
X0205303Y0119214D01*
X0205238Y0119193D01*
X0205172Y0119175D01*
X0205105Y0119162D01*
X0205037Y0119152D01*
X0204969Y0119146D01*
X0204900Y0119144D01*
X0179000Y0130194D02*
X0179000Y0137894D01*
X0179000Y0140294D01*
X0179000Y0147994D01*
X0180250Y0162844D02*
X0177750Y0165344D01*
X0175250Y0162844D01*
X0170250Y0162844D01*
X0167750Y0165344D01*
X0165250Y0162844D01*
X0160250Y0162844D01*
X0157750Y0165344D01*
X0155250Y0162844D01*
X0150250Y0162844D01*
X0147750Y0165344D01*
X0145250Y0162844D01*
X0140250Y0162844D01*
X0137750Y0165344D01*
X0137750Y0170344D01*
X0140250Y0172844D01*
X0145250Y0172844D01*
X0147750Y0170344D01*
X0150250Y0172844D01*
X0155250Y0172844D01*
X0157750Y0170344D01*
X0157750Y0165344D01*
X0157750Y0170344D02*
X0160250Y0172844D01*
X0165250Y0172844D01*
X0167750Y0170344D01*
X0170250Y0172844D01*
X0175250Y0172844D01*
X0177750Y0170344D01*
X0180250Y0172844D01*
X0185250Y0172844D01*
X0187750Y0170344D01*
X0187750Y0165344D01*
X0185250Y0162844D01*
X0180250Y0162844D01*
X0177750Y0165344D02*
X0177750Y0170344D01*
X0167750Y0170344D02*
X0167750Y0165344D01*
X0161900Y0175912D02*
X0160165Y0175912D01*
X0159298Y0176779D01*
X0160165Y0177647D01*
X0161900Y0177647D01*
X0161900Y0178858D02*
X0159298Y0178858D01*
X0161900Y0180593D01*
X0159298Y0180593D01*
X0159731Y0181805D02*
X0159298Y0182239D01*
X0159298Y0183106D01*
X0159731Y0183540D01*
X0160165Y0183540D01*
X0160599Y0183106D01*
X0161033Y0183540D01*
X0161466Y0183540D01*
X0161900Y0183106D01*
X0161900Y0182239D01*
X0161466Y0181805D01*
X0160599Y0182672D02*
X0160599Y0183106D01*
X0161900Y0184751D02*
X0159298Y0186486D01*
X0160599Y0187698D02*
X0160599Y0189433D01*
X0161900Y0188999D02*
X0159298Y0188999D01*
X0160599Y0187698D01*
X0162750Y0191594D02*
X0157750Y0191594D01*
X0155250Y0194094D01*
X0155250Y0199094D01*
X0157750Y0201594D01*
X0162750Y0201594D01*
X0165250Y0199094D01*
X0167750Y0201594D01*
X0172750Y0201594D01*
X0175250Y0199094D01*
X0177750Y0201594D01*
X0182750Y0201594D01*
X0185250Y0199094D01*
X0185250Y0194094D01*
X0182750Y0191594D01*
X0177750Y0191594D01*
X0175250Y0194094D01*
X0172750Y0191594D01*
X0167750Y0191594D01*
X0165250Y0194094D01*
X0162750Y0191594D01*
X0165250Y0194094D02*
X0165250Y0199094D01*
X0162750Y0204094D02*
X0157750Y0204094D01*
X0155250Y0206594D01*
X0155250Y0211594D01*
X0157750Y0214094D01*
X0162750Y0214094D01*
X0165250Y0211594D01*
X0167750Y0214094D01*
X0172750Y0214094D01*
X0175250Y0211594D01*
X0177750Y0214094D01*
X0182750Y0214094D01*
X0185250Y0211594D01*
X0185250Y0206594D01*
X0182750Y0204094D01*
X0177750Y0204094D01*
X0175250Y0206594D01*
X0172750Y0204094D01*
X0167750Y0204094D01*
X0165250Y0206594D01*
X0162750Y0204094D01*
X0165250Y0206594D02*
X0165250Y0211594D01*
X0175250Y0211594D02*
X0175250Y0206594D01*
X0175250Y0199094D02*
X0175250Y0194094D01*
X0171466Y0189433D02*
X0169731Y0189433D01*
X0169298Y0188999D01*
X0169298Y0187698D01*
X0171900Y0187698D01*
X0171900Y0188999D01*
X0171466Y0189433D01*
X0171900Y0186486D02*
X0169298Y0186486D01*
X0169298Y0184751D02*
X0171900Y0186486D01*
X0171900Y0184751D02*
X0169298Y0184751D01*
X0169731Y0183540D02*
X0169298Y0183106D01*
X0169298Y0182239D01*
X0169731Y0181805D01*
X0171466Y0181805D01*
X0171900Y0182239D01*
X0171900Y0183106D01*
X0171466Y0183540D01*
X0170599Y0183540D01*
X0170599Y0182672D01*
X0179298Y0184751D02*
X0180599Y0184751D01*
X0180165Y0185619D01*
X0180165Y0186053D01*
X0180599Y0186486D01*
X0181466Y0186486D01*
X0181900Y0186053D01*
X0181900Y0185185D01*
X0181466Y0184751D01*
X0179298Y0184751D02*
X0179298Y0186486D01*
X0180165Y0187698D02*
X0181900Y0188565D01*
X0180165Y0189433D01*
X0190250Y0172844D02*
X0195250Y0172844D01*
X0197750Y0170344D01*
X0200250Y0172844D01*
X0205250Y0172844D01*
X0207750Y0170344D01*
X0207750Y0165344D01*
X0205250Y0162844D01*
X0200250Y0162844D01*
X0197750Y0165344D01*
X0195250Y0162844D01*
X0190250Y0162844D01*
X0187750Y0165344D01*
X0187750Y0170344D02*
X0190250Y0172844D01*
X0197750Y0170344D02*
X0197750Y0165344D01*
X0225100Y0156594D02*
X0232800Y0156594D01*
X0235200Y0156594D01*
X0242900Y0156594D01*
X0241400Y0146594D02*
X0226600Y0146594D01*
X0225100Y0176594D02*
X0242900Y0176594D01*
X0258598Y0172839D02*
X0258598Y0171538D01*
X0261200Y0171538D01*
X0261200Y0172839D01*
X0260766Y0173272D01*
X0259031Y0173272D01*
X0258598Y0172839D01*
X0258598Y0170326D02*
X0261200Y0170326D01*
X0258598Y0168591D01*
X0261200Y0168591D01*
X0260766Y0167379D02*
X0259899Y0167379D01*
X0259899Y0166512D01*
X0260766Y0167379D02*
X0261200Y0166946D01*
X0261200Y0166078D01*
X0260766Y0165644D01*
X0259031Y0165644D01*
X0258598Y0166078D01*
X0258598Y0166946D01*
X0259031Y0167379D01*
X0259031Y0185644D02*
X0259465Y0185644D01*
X0259899Y0186078D01*
X0259899Y0186946D01*
X0260333Y0187379D01*
X0260766Y0187379D01*
X0261200Y0186946D01*
X0261200Y0186078D01*
X0260766Y0185644D01*
X0259031Y0185644D02*
X0258598Y0186078D01*
X0258598Y0186946D01*
X0259031Y0187379D01*
X0258598Y0188591D02*
X0258598Y0189892D01*
X0259031Y0190326D01*
X0260766Y0190326D01*
X0261200Y0189892D01*
X0261200Y0188591D01*
X0258598Y0188591D01*
X0259465Y0191538D02*
X0258598Y0192405D01*
X0259465Y0193272D01*
X0261200Y0193272D01*
X0259899Y0193272D02*
X0259899Y0191538D01*
X0259465Y0191538D02*
X0261200Y0191538D01*
X0260766Y0195644D02*
X0261200Y0196078D01*
X0261200Y0196946D01*
X0260766Y0197379D01*
X0260333Y0197379D01*
X0259899Y0196946D01*
X0259899Y0196078D01*
X0259465Y0195644D01*
X0259031Y0195644D01*
X0258598Y0196078D01*
X0258598Y0196946D01*
X0259031Y0197379D01*
X0259031Y0198591D02*
X0260766Y0198591D01*
X0261200Y0199025D01*
X0261200Y0199892D01*
X0260766Y0200326D01*
X0261200Y0201538D02*
X0261200Y0203272D01*
X0261200Y0201538D02*
X0258598Y0201538D01*
X0259031Y0200326D02*
X0258598Y0199892D01*
X0258598Y0199025D01*
X0259031Y0198591D01*
X0245650Y0212162D02*
X0245650Y0213463D01*
X0245216Y0213897D01*
X0244783Y0213897D01*
X0244349Y0213463D01*
X0244349Y0212162D01*
X0245650Y0212162D02*
X0243048Y0212162D01*
X0243048Y0213463D01*
X0243481Y0213897D01*
X0243915Y0213897D01*
X0244349Y0213463D01*
X0244783Y0215108D02*
X0244783Y0216410D01*
X0244349Y0216843D01*
X0243481Y0216843D01*
X0243048Y0216410D01*
X0243048Y0215108D01*
X0245650Y0215108D01*
X0244783Y0215976D02*
X0245650Y0216843D01*
X0245650Y0218055D02*
X0243915Y0218055D01*
X0243048Y0218922D01*
X0243915Y0219790D01*
X0245650Y0219790D01*
X0245650Y0221001D02*
X0243048Y0221001D01*
X0241900Y0221001D02*
X0241900Y0222736D01*
X0243048Y0222736D02*
X0244783Y0221001D01*
X0244349Y0221435D02*
X0245650Y0222736D01*
X0245650Y0223948D02*
X0245650Y0225683D01*
X0244349Y0224815D02*
X0244349Y0223948D01*
X0243048Y0223948D02*
X0245650Y0223948D01*
X0243048Y0223948D02*
X0243048Y0225683D01*
X0241900Y0225249D02*
X0241900Y0223948D01*
X0239298Y0223948D01*
X0239298Y0225249D01*
X0239731Y0225683D01*
X0241466Y0225683D01*
X0241900Y0225249D01*
X0239298Y0222736D02*
X0239298Y0221001D01*
X0241900Y0221001D01*
X0241900Y0219790D02*
X0241900Y0218055D01*
X0239298Y0218055D01*
X0239298Y0219790D01*
X0238150Y0219790D02*
X0237283Y0218922D01*
X0237283Y0219356D02*
X0237283Y0218055D01*
X0238150Y0218055D02*
X0235548Y0218055D01*
X0235548Y0219356D01*
X0235981Y0219790D01*
X0236849Y0219790D01*
X0237283Y0219356D01*
X0237283Y0221001D02*
X0237283Y0222303D01*
X0236849Y0222736D01*
X0235981Y0222736D01*
X0235548Y0222303D01*
X0235548Y0221001D01*
X0238150Y0221001D01*
X0240599Y0221001D02*
X0240599Y0221869D01*
X0240599Y0218922D02*
X0240599Y0218055D01*
X0240599Y0216843D02*
X0241033Y0216410D01*
X0241033Y0215108D01*
X0241900Y0215108D02*
X0239298Y0215108D01*
X0239298Y0216410D01*
X0239731Y0216843D01*
X0240599Y0216843D01*
X0241033Y0213897D02*
X0241466Y0213897D01*
X0241900Y0213463D01*
X0241900Y0212596D01*
X0241466Y0212162D01*
X0240599Y0212596D02*
X0240599Y0213463D01*
X0241033Y0213897D01*
X0239731Y0213897D02*
X0239298Y0213463D01*
X0239298Y0212596D01*
X0239731Y0212162D01*
X0240165Y0212162D01*
X0240599Y0212596D01*
X0244349Y0218055D02*
X0244349Y0219790D01*
X0238150Y0223948D02*
X0235548Y0223948D01*
X0236415Y0224815D01*
X0235548Y0225683D01*
X0238150Y0225683D01*
X0234400Y0225683D02*
X0233533Y0224815D01*
X0233533Y0225249D02*
X0233533Y0223948D01*
X0234400Y0223948D02*
X0231798Y0223948D01*
X0231798Y0225249D01*
X0232231Y0225683D01*
X0233099Y0225683D01*
X0233533Y0225249D01*
X0233099Y0222736D02*
X0233099Y0221001D01*
X0232665Y0221001D02*
X0231798Y0221869D01*
X0232665Y0222736D01*
X0234400Y0222736D01*
X0234400Y0221001D02*
X0232665Y0221001D01*
X0231798Y0219790D02*
X0231798Y0218055D01*
X0234400Y0218055D01*
X0234400Y0219790D01*
X0233099Y0218922D02*
X0233099Y0218055D01*
X0233099Y0216843D02*
X0233099Y0215976D01*
X0233099Y0216843D02*
X0233966Y0216843D01*
X0234400Y0216410D01*
X0234400Y0215542D01*
X0233966Y0215108D01*
X0232231Y0215108D01*
X0231798Y0215542D01*
X0231798Y0216410D01*
X0232231Y0216843D01*
X0230650Y0216410D02*
X0230650Y0215542D01*
X0230216Y0215108D01*
X0228481Y0215108D01*
X0228048Y0215542D01*
X0228048Y0216410D01*
X0228481Y0216843D01*
X0230216Y0216843D01*
X0230650Y0216410D01*
X0230650Y0218922D02*
X0228048Y0218922D01*
X0228048Y0218055D02*
X0228048Y0219790D01*
X0228048Y0221001D02*
X0230650Y0221001D01*
X0230650Y0222736D01*
X0230650Y0223948D02*
X0230650Y0225683D01*
X0229349Y0224815D02*
X0229349Y0223948D01*
X0228048Y0223948D02*
X0230650Y0223948D01*
X0228048Y0223948D02*
X0228048Y0225683D01*
X0228481Y0213897D02*
X0229349Y0213897D01*
X0229783Y0213463D01*
X0229783Y0212162D01*
X0230650Y0212162D02*
X0228048Y0212162D01*
X0228048Y0213463D01*
X0228481Y0213897D01*
X0229783Y0213029D02*
X0230650Y0213897D01*
X0230650Y0210950D02*
X0228048Y0210950D01*
X0229349Y0210950D02*
X0229349Y0209215D01*
X0230650Y0209215D02*
X0228048Y0209215D01*
X0228048Y0208004D02*
X0228048Y0206269D01*
X0228048Y0207136D02*
X0230650Y0207136D01*
X0209400Y0221435D02*
X0208966Y0221001D01*
X0209400Y0221435D02*
X0209400Y0222303D01*
X0208966Y0222736D01*
X0208099Y0222736D01*
X0207665Y0222303D01*
X0207665Y0221869D01*
X0208099Y0221001D01*
X0206798Y0221001D01*
X0206798Y0222736D01*
X0205650Y0222736D02*
X0203048Y0222736D01*
X0201900Y0222736D02*
X0199298Y0222736D01*
X0199731Y0223948D02*
X0199298Y0224382D01*
X0199298Y0225249D01*
X0199731Y0225683D01*
X0200165Y0225683D01*
X0201900Y0223948D01*
X0201900Y0225683D01*
X0203048Y0225249D02*
X0203048Y0223948D01*
X0205650Y0223948D01*
X0205650Y0225249D01*
X0205216Y0225683D01*
X0203481Y0225683D01*
X0203048Y0225249D01*
X0201900Y0222736D02*
X0199298Y0221001D01*
X0201900Y0221001D01*
X0203048Y0221001D02*
X0205650Y0222736D01*
X0205650Y0221001D02*
X0203048Y0221001D01*
X0203481Y0219790D02*
X0203048Y0219356D01*
X0203048Y0218489D01*
X0203481Y0218055D01*
X0205216Y0218055D01*
X0205650Y0218489D01*
X0205650Y0219356D01*
X0205216Y0219790D01*
X0204349Y0219790D01*
X0204349Y0218922D01*
X0201900Y0218055D02*
X0200165Y0218055D01*
X0199298Y0218922D01*
X0200165Y0219790D01*
X0201900Y0219790D01*
X0200599Y0219790D02*
X0200599Y0218055D01*
X0207665Y0223948D02*
X0209400Y0224815D01*
X0207665Y0225683D01*
X0189400Y0222303D02*
X0189400Y0221001D01*
X0186798Y0221001D01*
X0186798Y0222303D01*
X0187231Y0222736D01*
X0188966Y0222736D01*
X0189400Y0222303D01*
X0188099Y0223948D02*
X0188099Y0225683D01*
X0188966Y0224815D02*
X0187231Y0224815D01*
X0185216Y0222736D02*
X0183481Y0222736D01*
X0183048Y0222303D01*
X0183048Y0221001D01*
X0185650Y0221001D01*
X0185650Y0222303D01*
X0185216Y0222736D01*
X0184349Y0223948D02*
X0184349Y0225683D01*
X0181900Y0225683D02*
X0179298Y0225683D01*
X0178150Y0225683D02*
X0175548Y0225683D01*
X0175548Y0223948D02*
X0178150Y0223948D01*
X0177283Y0224815D01*
X0178150Y0225683D01*
X0179298Y0223948D02*
X0181900Y0223948D01*
X0181033Y0224815D01*
X0181900Y0225683D01*
X0181466Y0222736D02*
X0181900Y0222303D01*
X0181900Y0221435D01*
X0181466Y0221001D01*
X0180599Y0221435D02*
X0180599Y0222303D01*
X0181033Y0222736D01*
X0181466Y0222736D01*
X0180599Y0221435D02*
X0180165Y0221001D01*
X0179731Y0221001D01*
X0179298Y0221435D01*
X0179298Y0222303D01*
X0179731Y0222736D01*
X0178150Y0222303D02*
X0178150Y0221435D01*
X0177716Y0221001D01*
X0176849Y0221435D02*
X0176849Y0222303D01*
X0177283Y0222736D01*
X0177716Y0222736D01*
X0178150Y0222303D01*
X0176849Y0221435D02*
X0176415Y0221001D01*
X0175981Y0221001D01*
X0175548Y0221435D01*
X0175548Y0222303D01*
X0175981Y0222736D01*
X0183048Y0219790D02*
X0183048Y0218055D01*
X0185650Y0218055D01*
X0185650Y0219790D01*
X0186798Y0219790D02*
X0186798Y0218055D01*
X0189400Y0218055D01*
X0189400Y0219790D01*
X0188099Y0218922D02*
X0188099Y0218055D01*
X0189400Y0216843D02*
X0189400Y0215108D01*
X0186798Y0215108D01*
X0185650Y0215108D02*
X0185650Y0216843D01*
X0185650Y0215108D02*
X0183048Y0215108D01*
X0184349Y0218055D02*
X0184349Y0218922D01*
X0160599Y0177647D02*
X0160599Y0175912D01*
X0147750Y0170344D02*
X0147750Y0165344D01*
X0159000Y0147994D02*
X0159000Y0130194D01*
X0154000Y0131694D02*
X0154000Y0146494D01*
X0134000Y0146494D02*
X0134000Y0140294D01*
X0134000Y0137894D01*
X0134000Y0131694D01*
X0115250Y0128944D02*
X0115250Y0136644D01*
X0115250Y0139044D01*
X0115250Y0146744D01*
X0095250Y0146744D02*
X0095250Y0128944D01*
X0091284Y0133144D02*
X0092151Y0134012D01*
X0092151Y0135747D01*
X0090416Y0135747D02*
X0090416Y0134012D01*
X0091284Y0133144D01*
X0089205Y0133578D02*
X0088771Y0133144D01*
X0087903Y0133144D01*
X0087470Y0133578D01*
X0086430Y0133578D02*
X0086430Y0133144D01*
X0085997Y0133144D01*
X0085997Y0133578D01*
X0086430Y0133578D01*
X0084785Y0133578D02*
X0084351Y0133144D01*
X0083484Y0133144D01*
X0083050Y0133578D01*
X0083917Y0134446D02*
X0084351Y0134446D01*
X0084785Y0134012D01*
X0084785Y0133578D01*
X0084351Y0134446D02*
X0084785Y0134879D01*
X0084785Y0135313D01*
X0084351Y0135747D01*
X0083484Y0135747D01*
X0083050Y0135313D01*
X0087470Y0135313D02*
X0087903Y0135747D01*
X0088771Y0135747D01*
X0089205Y0135313D01*
X0089205Y0134879D01*
X0088771Y0134446D01*
X0089205Y0134012D01*
X0089205Y0133578D01*
X0088771Y0134446D02*
X0088337Y0134446D01*
X0087731Y0125747D02*
X0087731Y0124012D01*
X0086864Y0123144D01*
X0085997Y0124012D01*
X0085997Y0125747D01*
X0084785Y0125747D02*
X0083050Y0125747D01*
X0083050Y0124446D01*
X0083917Y0124879D01*
X0084351Y0124879D01*
X0084785Y0124446D01*
X0084785Y0123578D01*
X0084351Y0123144D01*
X0083484Y0123144D01*
X0083050Y0123578D01*
X0084031Y0113272D02*
X0083598Y0112839D01*
X0083598Y0111538D01*
X0086200Y0111538D01*
X0086200Y0112839D01*
X0085766Y0113272D01*
X0084031Y0113272D01*
X0083598Y0110326D02*
X0086200Y0110326D01*
X0083598Y0108591D01*
X0086200Y0108591D01*
X0085766Y0107379D02*
X0084899Y0107379D01*
X0084899Y0106512D01*
X0085766Y0107379D02*
X0086200Y0106946D01*
X0086200Y0106078D01*
X0085766Y0105644D01*
X0084031Y0105644D01*
X0083598Y0106078D01*
X0083598Y0106946D01*
X0084031Y0107379D01*
X0083598Y0098540D02*
X0086200Y0098540D01*
X0083598Y0096805D01*
X0086200Y0096805D01*
X0086200Y0095708D02*
X0086200Y0094841D01*
X0086200Y0095275D02*
X0083598Y0095275D01*
X0083598Y0095708D02*
X0083598Y0094841D01*
X0083598Y0093629D02*
X0085333Y0093629D01*
X0086200Y0092762D01*
X0085333Y0091894D01*
X0083598Y0091894D01*
X0051838Y0099944D02*
X0050103Y0099944D01*
X0050103Y0102547D01*
X0048892Y0102113D02*
X0048458Y0102547D01*
X0047591Y0102547D01*
X0047157Y0102113D01*
X0047157Y0100378D01*
X0047591Y0099944D01*
X0048458Y0099944D01*
X0048892Y0100378D01*
X0045945Y0100378D02*
X0045512Y0099944D01*
X0044644Y0099944D01*
X0044210Y0100378D01*
X0044644Y0101246D02*
X0045512Y0101246D01*
X0045945Y0100812D01*
X0045945Y0100378D01*
X0044644Y0101246D02*
X0044210Y0101679D01*
X0044210Y0102113D01*
X0044644Y0102547D01*
X0045512Y0102547D01*
X0045945Y0102113D01*
X0045250Y0105344D02*
X0042750Y0107844D01*
X0040250Y0105344D01*
X0035250Y0105344D01*
X0032750Y0107844D01*
X0030250Y0105344D01*
X0025250Y0105344D01*
X0022750Y0107844D01*
X0020250Y0105344D01*
X0015250Y0105344D01*
X0012750Y0107844D01*
X0012750Y0112844D01*
X0015250Y0115344D01*
X0020250Y0115344D01*
X0022750Y0112844D01*
X0025250Y0115344D01*
X0030250Y0115344D01*
X0032750Y0112844D01*
X0032750Y0107844D01*
X0034644Y0102547D02*
X0034210Y0102113D01*
X0034210Y0101679D01*
X0034644Y0101246D01*
X0035512Y0101246D01*
X0035945Y0100812D01*
X0035945Y0100378D01*
X0035512Y0099944D01*
X0034644Y0099944D01*
X0034210Y0100378D01*
X0034644Y0102547D02*
X0035512Y0102547D01*
X0035945Y0102113D01*
X0037157Y0102547D02*
X0038458Y0102547D01*
X0038892Y0102113D01*
X0038892Y0100378D01*
X0038458Y0099944D01*
X0037157Y0099944D01*
X0037157Y0102547D01*
X0040103Y0101679D02*
X0040971Y0102547D01*
X0041838Y0101679D01*
X0041838Y0099944D01*
X0041838Y0101246D02*
X0040103Y0101246D01*
X0040103Y0101679D02*
X0040103Y0099944D01*
X0045250Y0105344D02*
X0050250Y0105344D01*
X0052750Y0107844D01*
X0052750Y0112844D01*
X0050250Y0115344D01*
X0045250Y0115344D01*
X0042750Y0112844D01*
X0042750Y0107844D01*
X0042750Y0112844D02*
X0040250Y0115344D01*
X0035250Y0115344D01*
X0032750Y0112844D01*
X0022750Y0112844D02*
X0022750Y0107844D01*
X0023394Y0102547D02*
X0022960Y0102113D01*
X0022960Y0100378D01*
X0023394Y0099944D01*
X0024262Y0099944D01*
X0024695Y0100378D01*
X0024695Y0101246D01*
X0023828Y0101246D01*
X0024695Y0102113D02*
X0024262Y0102547D01*
X0023394Y0102547D01*
X0025907Y0102547D02*
X0027642Y0099944D01*
X0027642Y0102547D01*
X0028853Y0102547D02*
X0028853Y0099944D01*
X0030155Y0099944D01*
X0030588Y0100378D01*
X0030588Y0102113D01*
X0030155Y0102547D01*
X0028853Y0102547D01*
X0025907Y0102547D02*
X0025907Y0099944D01*
X0020588Y0101679D02*
X0019721Y0099944D01*
X0018853Y0101679D01*
X0017642Y0101679D02*
X0017208Y0101246D01*
X0017642Y0100812D01*
X0017642Y0100378D01*
X0017208Y0099944D01*
X0016341Y0099944D01*
X0015907Y0100378D01*
X0014867Y0100378D02*
X0014867Y0099944D01*
X0014434Y0099944D01*
X0014434Y0100378D01*
X0014867Y0100378D01*
X0013222Y0100378D02*
X0012788Y0099944D01*
X0011921Y0099944D01*
X0011487Y0100378D01*
X0012355Y0101246D02*
X0012788Y0101246D01*
X0013222Y0100812D01*
X0013222Y0100378D01*
X0012788Y0101246D02*
X0013222Y0101679D01*
X0013222Y0102113D01*
X0012788Y0102547D01*
X0011921Y0102547D01*
X0011487Y0102113D01*
X0015907Y0102113D02*
X0016341Y0102547D01*
X0017208Y0102547D01*
X0017642Y0102113D01*
X0017642Y0101679D01*
X0017208Y0101246D02*
X0016774Y0101246D01*
X0083598Y0051665D02*
X0084031Y0050798D01*
X0084899Y0049931D01*
X0084899Y0051232D01*
X0085333Y0051665D01*
X0085766Y0051665D01*
X0086200Y0051232D01*
X0086200Y0050364D01*
X0085766Y0049931D01*
X0084899Y0049931D01*
X0083598Y0048719D02*
X0086200Y0046984D01*
X0085766Y0045772D02*
X0086200Y0045339D01*
X0086200Y0044471D01*
X0085766Y0044038D01*
X0084899Y0044038D02*
X0084465Y0044905D01*
X0084465Y0045339D01*
X0084899Y0045772D01*
X0085766Y0045772D01*
X0084899Y0044038D02*
X0083598Y0044038D01*
X0083598Y0045772D01*
X0083598Y0042826D02*
X0086200Y0042826D01*
X0083598Y0041091D01*
X0086200Y0041091D01*
X0086200Y0039879D02*
X0084465Y0039879D01*
X0083598Y0039012D01*
X0084465Y0038144D01*
X0086200Y0038144D01*
X0084899Y0038144D02*
X0084899Y0039879D01*
X0087750Y0037844D02*
X0087750Y0042844D01*
X0090250Y0045344D01*
X0095250Y0045344D01*
X0097750Y0042844D01*
X0097750Y0037844D01*
X0095250Y0035344D01*
X0097750Y0032844D01*
X0097750Y0027844D01*
X0095250Y0025344D01*
X0097750Y0022844D01*
X0097750Y0017844D01*
X0095250Y0015344D01*
X0090250Y0015344D01*
X0087750Y0017844D01*
X0087750Y0022844D01*
X0090250Y0025344D01*
X0087750Y0027844D01*
X0087750Y0032844D01*
X0090250Y0035344D01*
X0087750Y0037844D01*
X0090250Y0035344D02*
X0095250Y0035344D01*
X0100250Y0032844D02*
X0102750Y0035344D01*
X0100250Y0037844D01*
X0100250Y0042844D01*
X0102750Y0045344D01*
X0107750Y0045344D01*
X0110250Y0042844D01*
X0110250Y0037844D01*
X0107750Y0035344D01*
X0110250Y0032844D01*
X0110250Y0027844D01*
X0107750Y0025344D01*
X0110250Y0022844D01*
X0110250Y0017844D01*
X0107750Y0015344D01*
X0102750Y0015344D01*
X0100250Y0017844D01*
X0100250Y0022844D01*
X0102750Y0025344D01*
X0100250Y0027844D01*
X0100250Y0032844D01*
X0102750Y0035344D02*
X0107750Y0035344D01*
X0107750Y0025344D02*
X0102750Y0025344D01*
X0095250Y0025344D02*
X0090250Y0025344D01*
X0086200Y0027328D02*
X0086200Y0028196D01*
X0085766Y0028629D01*
X0084899Y0028629D01*
X0084899Y0027762D01*
X0085766Y0026894D02*
X0086200Y0027328D01*
X0085766Y0026894D02*
X0084031Y0026894D01*
X0083598Y0027328D01*
X0083598Y0028196D01*
X0084031Y0028629D01*
X0083598Y0029841D02*
X0086200Y0029841D01*
X0086200Y0031576D02*
X0083598Y0031576D01*
X0083598Y0032788D02*
X0083598Y0034089D01*
X0084031Y0034522D01*
X0085766Y0034522D01*
X0086200Y0034089D01*
X0086200Y0032788D01*
X0083598Y0032788D01*
X0086200Y0031576D02*
X0083598Y0029841D01*
X0084465Y0022826D02*
X0086200Y0021958D01*
X0084465Y0021091D01*
X0084899Y0019879D02*
X0085766Y0019879D01*
X0086200Y0019446D01*
X0086200Y0018578D01*
X0085766Y0018144D01*
X0084899Y0018144D02*
X0084465Y0019012D01*
X0084465Y0019446D01*
X0084899Y0019879D01*
X0083598Y0019879D02*
X0083598Y0018144D01*
X0084899Y0018144D01*
X0052750Y0016594D02*
X0050250Y0014094D01*
X0045250Y0014094D01*
X0042750Y0016594D01*
X0040250Y0014094D01*
X0035250Y0014094D01*
X0032750Y0016594D01*
X0030250Y0014094D01*
X0025250Y0014094D01*
X0022750Y0016594D01*
X0020250Y0014094D01*
X0015250Y0014094D01*
X0012750Y0016594D01*
X0012750Y0021594D01*
X0015250Y0024094D01*
X0020250Y0024094D01*
X0022750Y0021594D01*
X0025250Y0024094D01*
X0030250Y0024094D01*
X0032750Y0021594D01*
X0032750Y0016594D01*
X0034644Y0011297D02*
X0034210Y0010863D01*
X0034210Y0010429D01*
X0034644Y0009996D01*
X0035512Y0009996D01*
X0035945Y0009562D01*
X0035945Y0009128D01*
X0035512Y0008694D01*
X0034644Y0008694D01*
X0034210Y0009128D01*
X0034644Y0011297D02*
X0035512Y0011297D01*
X0035945Y0010863D01*
X0037157Y0011297D02*
X0038458Y0011297D01*
X0038892Y0010863D01*
X0038892Y0009128D01*
X0038458Y0008694D01*
X0037157Y0008694D01*
X0037157Y0011297D01*
X0040103Y0010429D02*
X0040971Y0011297D01*
X0041838Y0010429D01*
X0041838Y0008694D01*
X0041838Y0009996D02*
X0040103Y0009996D01*
X0040103Y0010429D02*
X0040103Y0008694D01*
X0044210Y0009128D02*
X0044644Y0008694D01*
X0045512Y0008694D01*
X0045945Y0009128D01*
X0045945Y0009562D01*
X0045512Y0009996D01*
X0044644Y0009996D01*
X0044210Y0010429D01*
X0044210Y0010863D01*
X0044644Y0011297D01*
X0045512Y0011297D01*
X0045945Y0010863D01*
X0047157Y0010863D02*
X0047157Y0009128D01*
X0047591Y0008694D01*
X0048458Y0008694D01*
X0048892Y0009128D01*
X0050103Y0008694D02*
X0051838Y0008694D01*
X0050103Y0008694D02*
X0050103Y0011297D01*
X0048892Y0010863D02*
X0048458Y0011297D01*
X0047591Y0011297D01*
X0047157Y0010863D01*
X0042750Y0016594D02*
X0042750Y0021594D01*
X0045250Y0024094D01*
X0050250Y0024094D01*
X0052750Y0021594D01*
X0052750Y0016594D01*
X0042750Y0021594D02*
X0040250Y0024094D01*
X0035250Y0024094D01*
X0032750Y0021594D01*
X0022750Y0021594D02*
X0022750Y0016594D01*
X0023394Y0011297D02*
X0022960Y0010863D01*
X0022960Y0009128D01*
X0023394Y0008694D01*
X0024262Y0008694D01*
X0024695Y0009128D01*
X0024695Y0009996D01*
X0023828Y0009996D01*
X0024695Y0010863D02*
X0024262Y0011297D01*
X0023394Y0011297D01*
X0025907Y0011297D02*
X0027642Y0008694D01*
X0027642Y0011297D01*
X0028853Y0011297D02*
X0028853Y0008694D01*
X0030155Y0008694D01*
X0030588Y0009128D01*
X0030588Y0010863D01*
X0030155Y0011297D01*
X0028853Y0011297D01*
X0025907Y0011297D02*
X0025907Y0008694D01*
X0020588Y0010429D02*
X0019721Y0008694D01*
X0018853Y0010429D01*
X0017642Y0010429D02*
X0017208Y0009996D01*
X0017642Y0009562D01*
X0017642Y0009128D01*
X0017208Y0008694D01*
X0016341Y0008694D01*
X0015907Y0009128D01*
X0014867Y0009128D02*
X0014867Y0008694D01*
X0014434Y0008694D01*
X0014434Y0009128D01*
X0014867Y0009128D01*
X0013222Y0009128D02*
X0012788Y0008694D01*
X0011921Y0008694D01*
X0011487Y0009128D01*
X0012355Y0009996D02*
X0012788Y0009996D01*
X0013222Y0009562D01*
X0013222Y0009128D01*
X0012788Y0009996D02*
X0013222Y0010429D01*
X0013222Y0010863D01*
X0012788Y0011297D01*
X0011921Y0011297D01*
X0011487Y0010863D01*
X0015907Y0010863D02*
X0016341Y0011297D01*
X0017208Y0011297D01*
X0017642Y0010863D01*
X0017642Y0010429D01*
X0017208Y0009996D02*
X0016774Y0009996D01*
X0016341Y0191194D02*
X0015907Y0191628D01*
X0016341Y0191194D02*
X0017208Y0191194D01*
X0017642Y0191628D01*
X0017642Y0192062D01*
X0017208Y0192496D01*
X0016774Y0192496D01*
X0017208Y0192496D02*
X0017642Y0192929D01*
X0017642Y0193363D01*
X0017208Y0193797D01*
X0016341Y0193797D01*
X0015907Y0193363D01*
X0014867Y0191628D02*
X0014867Y0191194D01*
X0014434Y0191194D01*
X0014434Y0191628D01*
X0014867Y0191628D01*
X0013222Y0191628D02*
X0012788Y0191194D01*
X0011921Y0191194D01*
X0011487Y0191628D01*
X0012355Y0192496D02*
X0012788Y0192496D01*
X0013222Y0192062D01*
X0013222Y0191628D01*
X0012788Y0192496D02*
X0013222Y0192929D01*
X0013222Y0193363D01*
X0012788Y0193797D01*
X0011921Y0193797D01*
X0011487Y0193363D01*
X0015250Y0196594D02*
X0012750Y0199094D01*
X0012750Y0204094D01*
X0015250Y0206594D01*
X0020250Y0206594D01*
X0022750Y0204094D01*
X0025250Y0206594D01*
X0030250Y0206594D01*
X0032750Y0204094D01*
X0032750Y0199094D01*
X0030250Y0196594D01*
X0025250Y0196594D01*
X0022750Y0199094D01*
X0020250Y0196594D01*
X0015250Y0196594D01*
X0018853Y0192929D02*
X0019721Y0191194D01*
X0020588Y0192929D01*
X0022960Y0193363D02*
X0023394Y0193797D01*
X0024262Y0193797D01*
X0024695Y0193363D01*
X0024695Y0192496D02*
X0023828Y0192496D01*
X0024695Y0192496D02*
X0024695Y0191628D01*
X0024262Y0191194D01*
X0023394Y0191194D01*
X0022960Y0191628D01*
X0022960Y0193363D01*
X0025907Y0193797D02*
X0027642Y0191194D01*
X0027642Y0193797D01*
X0028853Y0193797D02*
X0028853Y0191194D01*
X0030155Y0191194D01*
X0030588Y0191628D01*
X0030588Y0193363D01*
X0030155Y0193797D01*
X0028853Y0193797D01*
X0025907Y0193797D02*
X0025907Y0191194D01*
X0022750Y0199094D02*
X0022750Y0204094D01*
X0032750Y0204094D02*
X0035250Y0206594D01*
X0040250Y0206594D01*
X0042750Y0204094D01*
X0045250Y0206594D01*
X0050250Y0206594D01*
X0052750Y0204094D01*
X0052750Y0199094D01*
X0050250Y0196594D01*
X0045250Y0196594D01*
X0042750Y0199094D01*
X0040250Y0196594D01*
X0035250Y0196594D01*
X0032750Y0199094D01*
X0034644Y0193797D02*
X0034210Y0193363D01*
X0034210Y0192929D01*
X0034644Y0192496D01*
X0035512Y0192496D01*
X0035945Y0192062D01*
X0035945Y0191628D01*
X0035512Y0191194D01*
X0034644Y0191194D01*
X0034210Y0191628D01*
X0034644Y0193797D02*
X0035512Y0193797D01*
X0035945Y0193363D01*
X0037157Y0193797D02*
X0038458Y0193797D01*
X0038892Y0193363D01*
X0038892Y0191628D01*
X0038458Y0191194D01*
X0037157Y0191194D01*
X0037157Y0193797D01*
X0040103Y0192929D02*
X0040971Y0193797D01*
X0041838Y0192929D01*
X0041838Y0191194D01*
X0041838Y0192496D02*
X0040103Y0192496D01*
X0040103Y0192929D02*
X0040103Y0191194D01*
X0044210Y0191628D02*
X0044644Y0191194D01*
X0045512Y0191194D01*
X0045945Y0191628D01*
X0045945Y0192062D01*
X0045512Y0192496D01*
X0044644Y0192496D01*
X0044210Y0192929D01*
X0044210Y0193363D01*
X0044644Y0193797D01*
X0045512Y0193797D01*
X0045945Y0193363D01*
X0047157Y0193363D02*
X0047157Y0191628D01*
X0047591Y0191194D01*
X0048458Y0191194D01*
X0048892Y0191628D01*
X0050103Y0191194D02*
X0051838Y0191194D01*
X0050103Y0191194D02*
X0050103Y0193797D01*
X0048892Y0193363D02*
X0048458Y0193797D01*
X0047591Y0193797D01*
X0047157Y0193363D01*
X0042750Y0199094D02*
X0042750Y0204094D01*
X0255548Y0218922D02*
X0256415Y0218055D01*
X0258150Y0218055D01*
X0259298Y0218489D02*
X0259731Y0218055D01*
X0261466Y0218055D01*
X0261900Y0218489D01*
X0261900Y0219356D01*
X0261466Y0219790D01*
X0260599Y0219790D01*
X0260599Y0218922D01*
X0259731Y0219790D02*
X0259298Y0219356D01*
X0259298Y0218489D01*
X0258150Y0219790D02*
X0256415Y0219790D01*
X0255548Y0218922D01*
X0256849Y0218055D02*
X0256849Y0219790D01*
X0258150Y0221001D02*
X0255548Y0221001D01*
X0258150Y0222736D01*
X0255548Y0222736D01*
X0256415Y0223948D02*
X0255548Y0224815D01*
X0258150Y0224815D01*
X0258150Y0223948D02*
X0258150Y0225683D01*
X0259298Y0225249D02*
X0259298Y0223948D01*
X0261900Y0223948D01*
X0261900Y0225249D01*
X0261466Y0225683D01*
X0259731Y0225683D01*
X0259298Y0225249D01*
X0259298Y0222736D02*
X0261900Y0222736D01*
X0259298Y0221001D01*
X0261900Y0221001D01*
X0263048Y0221001D02*
X0263048Y0222736D01*
X0263915Y0222303D02*
X0264349Y0222736D01*
X0265216Y0222736D01*
X0265650Y0222303D01*
X0265650Y0221435D01*
X0265216Y0221001D01*
X0264349Y0221001D02*
X0263915Y0221869D01*
X0263915Y0222303D01*
X0264349Y0221001D02*
X0263048Y0221001D01*
X0263915Y0223948D02*
X0265650Y0224815D01*
X0263915Y0225683D01*
D13*
X0216616Y0177809D02*
X0216133Y0177809D01*
X0215649Y0177325D01*
X0215649Y0175874D01*
X0216616Y0175874D01*
X0217100Y0176357D01*
X0217100Y0177325D01*
X0216616Y0177809D01*
X0214681Y0176841D02*
X0215649Y0175874D01*
X0214681Y0176841D02*
X0214198Y0177809D01*
X0214681Y0174862D02*
X0216616Y0172927D01*
X0217100Y0173411D01*
X0217100Y0174378D01*
X0216616Y0174862D01*
X0214681Y0174862D01*
X0214198Y0174378D01*
X0214198Y0173411D01*
X0214681Y0172927D01*
X0216616Y0172927D01*
X0217100Y0171916D02*
X0217100Y0169981D01*
X0217100Y0170948D02*
X0214198Y0170948D01*
X0215165Y0169981D01*
X0214681Y0168969D02*
X0216616Y0168969D01*
X0217100Y0168485D01*
X0217100Y0167518D01*
X0216616Y0167034D01*
X0214681Y0168969D01*
X0214198Y0168485D01*
X0214198Y0167518D01*
X0214681Y0167034D01*
X0216616Y0167034D01*
X0215649Y0166023D02*
X0215649Y0164088D01*
X0214198Y0165539D01*
X0217100Y0165539D01*
X0216616Y0163076D02*
X0214681Y0163076D01*
X0214198Y0162592D01*
X0214198Y0161141D01*
X0217100Y0161141D01*
X0217100Y0162592D01*
X0216616Y0163076D01*
X0216616Y0160129D02*
X0217100Y0159646D01*
X0217100Y0158678D01*
X0216616Y0158194D01*
X0214681Y0158194D01*
X0214198Y0158678D01*
X0214198Y0159646D01*
X0214681Y0160129D01*
X0212116Y0151955D02*
X0210181Y0151955D01*
X0209698Y0151471D01*
X0209698Y0150020D01*
X0212600Y0150020D01*
X0212600Y0151471D01*
X0212116Y0151955D01*
X0212116Y0149009D02*
X0211633Y0149009D01*
X0211149Y0148525D01*
X0211149Y0147074D01*
X0212116Y0147074D01*
X0212600Y0147557D01*
X0212600Y0148525D01*
X0212116Y0149009D01*
X0210181Y0148041D02*
X0211149Y0147074D01*
X0210181Y0148041D02*
X0209698Y0149009D01*
X0210181Y0146062D02*
X0212116Y0144127D01*
X0212600Y0144611D01*
X0212600Y0145578D01*
X0212116Y0146062D01*
X0210181Y0146062D01*
X0209698Y0145578D01*
X0209698Y0144611D01*
X0210181Y0144127D01*
X0212116Y0144127D01*
X0212116Y0143116D02*
X0212600Y0142632D01*
X0212600Y0141664D01*
X0212116Y0141181D01*
X0212116Y0140169D02*
X0210181Y0140169D01*
X0209698Y0139685D01*
X0209698Y0138718D01*
X0210181Y0138234D01*
X0210665Y0138234D01*
X0211149Y0138718D01*
X0211149Y0140169D01*
X0212116Y0140169D02*
X0212600Y0139685D01*
X0212600Y0138718D01*
X0212116Y0138234D01*
X0212600Y0137223D02*
X0210665Y0137223D01*
X0209698Y0136255D01*
X0210665Y0135288D01*
X0212600Y0135288D01*
X0212116Y0134276D02*
X0212600Y0133792D01*
X0212600Y0132825D01*
X0212116Y0132341D01*
X0210181Y0132341D01*
X0209698Y0132825D01*
X0209698Y0133792D01*
X0210181Y0134276D01*
X0211149Y0135288D02*
X0211149Y0137223D01*
X0214248Y0136689D02*
X0215699Y0135238D01*
X0215699Y0137173D01*
X0216666Y0138184D02*
X0214731Y0140119D01*
X0216666Y0140119D01*
X0217150Y0139635D01*
X0217150Y0138668D01*
X0216666Y0138184D01*
X0214731Y0138184D01*
X0214248Y0138668D01*
X0214248Y0139635D01*
X0214731Y0140119D01*
X0214248Y0141131D02*
X0215699Y0141131D01*
X0215215Y0142098D01*
X0215215Y0142582D01*
X0215699Y0143066D01*
X0216666Y0143066D01*
X0217150Y0142582D01*
X0217150Y0141614D01*
X0216666Y0141131D01*
X0214248Y0141131D02*
X0214248Y0143066D01*
X0214731Y0144077D02*
X0214248Y0144561D01*
X0214248Y0145528D01*
X0214731Y0146012D01*
X0216666Y0144077D01*
X0217150Y0144561D01*
X0217150Y0145528D01*
X0216666Y0146012D01*
X0214731Y0146012D01*
X0214731Y0144077D02*
X0216666Y0144077D01*
X0212116Y0143116D02*
X0211633Y0143116D01*
X0211149Y0142632D01*
X0211149Y0142148D01*
X0211149Y0142632D02*
X0210665Y0143116D01*
X0210181Y0143116D01*
X0209698Y0142632D01*
X0209698Y0141664D01*
X0210181Y0141181D01*
X0214248Y0136689D02*
X0217150Y0136689D01*
X0216666Y0134226D02*
X0214731Y0134226D01*
X0214248Y0133742D01*
X0214248Y0132291D01*
X0217150Y0132291D01*
X0217150Y0133742D01*
X0216666Y0134226D01*
X0216666Y0131279D02*
X0217150Y0130796D01*
X0217150Y0129828D01*
X0216666Y0129344D01*
X0214731Y0129344D01*
X0214248Y0129828D01*
X0214248Y0130796D01*
X0214731Y0131279D01*
X0212600Y0129394D02*
X0209698Y0129394D01*
X0209698Y0130846D01*
X0210181Y0131329D01*
X0211149Y0131329D01*
X0211633Y0130846D01*
X0211633Y0129394D01*
X0213448Y0122519D02*
X0213448Y0120584D01*
X0216350Y0120584D01*
X0215866Y0119573D02*
X0216350Y0119089D01*
X0216350Y0117638D01*
X0217317Y0117638D02*
X0214415Y0117638D01*
X0214415Y0119089D01*
X0214899Y0119573D01*
X0215866Y0119573D01*
X0214899Y0120584D02*
X0214899Y0121552D01*
X0214415Y0116626D02*
X0213931Y0116626D01*
X0213448Y0116142D01*
X0213448Y0115175D01*
X0213931Y0114691D01*
X0213931Y0113679D02*
X0213448Y0113196D01*
X0213448Y0112228D01*
X0213931Y0111744D01*
X0213931Y0113679D02*
X0214415Y0113679D01*
X0216350Y0111744D01*
X0216350Y0113679D01*
X0216350Y0114691D02*
X0214415Y0116626D01*
X0216350Y0116626D02*
X0216350Y0114691D01*
X0215866Y0109126D02*
X0215383Y0109126D01*
X0214899Y0108642D01*
X0214899Y0107191D01*
X0215866Y0107191D01*
X0216350Y0107675D01*
X0216350Y0108642D01*
X0215866Y0109126D01*
X0213931Y0108158D02*
X0214899Y0107191D01*
X0213931Y0108158D02*
X0213448Y0109126D01*
X0213931Y0106179D02*
X0213448Y0105696D01*
X0213448Y0104728D01*
X0213931Y0104244D01*
X0215866Y0104244D01*
X0216350Y0104728D01*
X0216350Y0105696D01*
X0215866Y0106179D01*
X0203300Y0106097D02*
X0203300Y0105130D01*
X0202816Y0104646D01*
X0200881Y0106581D01*
X0202816Y0106581D01*
X0203300Y0106097D01*
X0202816Y0104646D02*
X0200881Y0104646D01*
X0200398Y0105130D01*
X0200398Y0106097D01*
X0200881Y0106581D01*
X0200881Y0107593D02*
X0200398Y0108076D01*
X0200398Y0109044D01*
X0200881Y0109528D01*
X0202816Y0107593D01*
X0203300Y0108076D01*
X0203300Y0109044D01*
X0202816Y0109528D01*
X0200881Y0109528D01*
X0200398Y0110539D02*
X0203300Y0110539D01*
X0202333Y0110539D02*
X0201365Y0111990D01*
X0202333Y0110539D02*
X0203300Y0111990D01*
X0199550Y0111499D02*
X0199550Y0110532D01*
X0199066Y0110048D01*
X0198099Y0110532D02*
X0198099Y0111983D01*
X0199066Y0111983D02*
X0197131Y0111983D01*
X0196648Y0111499D01*
X0196648Y0110532D01*
X0197131Y0110048D01*
X0197615Y0110048D01*
X0198099Y0110532D01*
X0198099Y0109036D02*
X0198583Y0108553D01*
X0198583Y0107101D01*
X0199550Y0107101D02*
X0196648Y0107101D01*
X0196648Y0108553D01*
X0197131Y0109036D01*
X0198099Y0109036D01*
X0198583Y0108069D02*
X0199550Y0109036D01*
X0200881Y0107593D02*
X0202816Y0107593D01*
X0203300Y0103634D02*
X0203300Y0101700D01*
X0201365Y0103634D01*
X0200881Y0103634D01*
X0200398Y0103151D01*
X0200398Y0102183D01*
X0200881Y0101700D01*
X0194550Y0104646D02*
X0194550Y0106581D01*
X0194550Y0105614D02*
X0191648Y0105614D01*
X0192615Y0104646D01*
X0190800Y0104155D02*
X0187898Y0104155D01*
X0187898Y0105606D01*
X0188381Y0106090D01*
X0189349Y0106090D01*
X0189833Y0105606D01*
X0189833Y0104155D01*
X0189833Y0105122D02*
X0190800Y0106090D01*
X0190800Y0107101D02*
X0190800Y0109036D01*
X0191648Y0109044D02*
X0192131Y0109528D01*
X0194066Y0107593D01*
X0194550Y0108076D01*
X0194550Y0109044D01*
X0194066Y0109528D01*
X0192131Y0109528D01*
X0191648Y0109044D02*
X0191648Y0108076D01*
X0192131Y0107593D01*
X0194066Y0107593D01*
X0193583Y0110539D02*
X0192615Y0111990D01*
X0191648Y0110539D02*
X0194550Y0110539D01*
X0193583Y0110539D02*
X0194550Y0111990D01*
X0190800Y0111499D02*
X0190800Y0110532D01*
X0190316Y0110048D01*
X0188381Y0111983D01*
X0190316Y0111983D01*
X0190800Y0111499D01*
X0190316Y0110048D02*
X0188381Y0110048D01*
X0187898Y0110532D01*
X0187898Y0111499D01*
X0188381Y0111983D01*
X0185800Y0111990D02*
X0184833Y0110539D01*
X0183865Y0111990D01*
X0182898Y0110539D02*
X0185800Y0110539D01*
X0185316Y0109528D02*
X0185800Y0109044D01*
X0185800Y0108076D01*
X0185316Y0107593D01*
X0183381Y0109528D01*
X0185316Y0109528D01*
X0183381Y0109528D02*
X0182898Y0109044D01*
X0182898Y0108076D01*
X0183381Y0107593D01*
X0185316Y0107593D01*
X0185800Y0106581D02*
X0185800Y0104646D01*
X0185800Y0105614D02*
X0182898Y0105614D01*
X0183865Y0104646D01*
X0182050Y0104155D02*
X0179148Y0104155D01*
X0179148Y0105606D01*
X0179631Y0106090D01*
X0180599Y0106090D01*
X0181083Y0105606D01*
X0181083Y0104155D01*
X0181083Y0105122D02*
X0182050Y0106090D01*
X0182050Y0107101D02*
X0180115Y0109036D01*
X0179631Y0109036D01*
X0179148Y0108553D01*
X0179148Y0107585D01*
X0179631Y0107101D01*
X0182050Y0107101D02*
X0182050Y0109036D01*
X0181566Y0110048D02*
X0182050Y0110532D01*
X0182050Y0111499D01*
X0181566Y0111983D01*
X0181083Y0111983D01*
X0180599Y0111499D01*
X0180599Y0110048D01*
X0181566Y0110048D01*
X0180599Y0110048D02*
X0179631Y0111015D01*
X0179148Y0111983D01*
X0187898Y0108069D02*
X0188865Y0107101D01*
X0187898Y0108069D02*
X0190800Y0108069D01*
X0199066Y0111983D02*
X0199550Y0111499D01*
X0198974Y0089947D02*
X0198007Y0088979D01*
X0196995Y0089463D02*
X0196512Y0089947D01*
X0195544Y0089947D01*
X0195060Y0089463D01*
X0195060Y0087528D01*
X0195544Y0087044D01*
X0196512Y0087044D01*
X0196995Y0087528D01*
X0198007Y0087044D02*
X0199942Y0087044D01*
X0198974Y0087044D02*
X0198974Y0089947D01*
X0200953Y0089947D02*
X0200953Y0088496D01*
X0201921Y0088979D01*
X0202405Y0088979D01*
X0202888Y0088496D01*
X0202888Y0087528D01*
X0202405Y0087044D01*
X0201437Y0087044D01*
X0200953Y0087528D01*
X0200953Y0086197D02*
X0202888Y0086197D01*
X0201921Y0084746D02*
X0200953Y0084746D01*
X0199942Y0084746D02*
X0199942Y0083778D01*
X0199458Y0083294D01*
X0198974Y0083294D01*
X0198491Y0083778D01*
X0198491Y0082811D01*
X0198007Y0082327D01*
X0196995Y0083294D02*
X0195060Y0083294D01*
X0196028Y0083294D02*
X0196028Y0086197D01*
X0195060Y0085229D01*
X0194071Y0083778D02*
X0194071Y0083294D01*
X0193587Y0083294D01*
X0193587Y0083778D01*
X0194071Y0083778D01*
X0192576Y0083778D02*
X0192092Y0083294D01*
X0191124Y0083294D01*
X0190641Y0083778D01*
X0192576Y0085713D01*
X0192576Y0083778D01*
X0192576Y0085713D02*
X0192092Y0086197D01*
X0191124Y0086197D01*
X0190641Y0085713D01*
X0190641Y0083778D01*
X0198491Y0083778D02*
X0198491Y0084746D01*
X0200953Y0086197D02*
X0200953Y0083294D01*
X0201431Y0078323D02*
X0200948Y0077839D01*
X0200948Y0076871D01*
X0201431Y0076388D01*
X0201915Y0076388D01*
X0202399Y0076871D01*
X0202399Y0077839D01*
X0202883Y0078323D01*
X0203366Y0078323D01*
X0203850Y0077839D01*
X0203850Y0076871D01*
X0203366Y0076388D01*
X0202883Y0076388D01*
X0202399Y0076871D01*
X0202399Y0077839D02*
X0201915Y0078323D01*
X0201431Y0078323D01*
X0204698Y0076388D02*
X0207600Y0076388D01*
X0206633Y0076388D02*
X0205665Y0077839D01*
X0206633Y0076388D02*
X0207600Y0077839D01*
X0207116Y0075376D02*
X0205181Y0075376D01*
X0207116Y0073441D01*
X0207600Y0073925D01*
X0207600Y0074892D01*
X0207116Y0075376D01*
X0205181Y0075376D02*
X0204698Y0074892D01*
X0204698Y0073925D01*
X0205181Y0073441D01*
X0207116Y0073441D01*
X0207600Y0072429D02*
X0207600Y0070494D01*
X0207600Y0071462D02*
X0204698Y0071462D01*
X0205665Y0070494D01*
X0203850Y0070494D02*
X0200948Y0070494D01*
X0200948Y0071946D01*
X0201431Y0072429D01*
X0202399Y0072429D01*
X0202883Y0071946D01*
X0202883Y0070494D01*
X0202883Y0071462D02*
X0203850Y0072429D01*
X0203850Y0073441D02*
X0203850Y0075376D01*
X0203850Y0074408D02*
X0200948Y0074408D01*
X0201915Y0073441D01*
X0215650Y0066913D02*
X0215650Y0064978D01*
X0216134Y0064494D01*
X0217101Y0064494D01*
X0217585Y0064978D01*
X0218597Y0064494D02*
X0220531Y0064494D01*
X0219564Y0064494D02*
X0219564Y0067397D01*
X0218597Y0066429D01*
X0217585Y0066913D02*
X0217101Y0067397D01*
X0216134Y0067397D01*
X0215650Y0066913D01*
X0221543Y0065946D02*
X0223478Y0065946D01*
X0222994Y0067397D02*
X0221543Y0065946D01*
X0222994Y0064494D02*
X0222994Y0067397D01*
X0231650Y0067147D02*
X0231650Y0064244D01*
X0231650Y0065212D02*
X0233101Y0065212D01*
X0233585Y0065696D01*
X0233585Y0066663D01*
X0233101Y0067147D01*
X0231650Y0067147D01*
X0232617Y0065212D02*
X0233585Y0064244D01*
X0234597Y0064244D02*
X0236531Y0064244D01*
X0235564Y0064244D02*
X0235564Y0067147D01*
X0234597Y0066179D01*
X0237543Y0066663D02*
X0238027Y0067147D01*
X0238994Y0067147D01*
X0239478Y0066663D01*
X0239478Y0066179D01*
X0238994Y0065696D01*
X0239478Y0065212D01*
X0239478Y0064728D01*
X0238994Y0064244D01*
X0238027Y0064244D01*
X0237543Y0064728D01*
X0238511Y0065696D02*
X0238994Y0065696D01*
X0237543Y0058397D02*
X0237543Y0055494D01*
X0237543Y0056462D02*
X0238994Y0057429D01*
X0237543Y0056462D02*
X0238994Y0055494D01*
X0236531Y0055978D02*
X0236048Y0055494D01*
X0235080Y0055494D01*
X0234597Y0055978D01*
X0236531Y0057913D01*
X0236531Y0055978D01*
X0234597Y0055978D02*
X0234597Y0057913D01*
X0235080Y0058397D01*
X0236048Y0058397D01*
X0236531Y0057913D01*
X0233585Y0055494D02*
X0231650Y0055494D01*
X0232617Y0055494D02*
X0232617Y0058397D01*
X0231650Y0057429D01*
X0227898Y0058647D02*
X0225963Y0058647D01*
X0225963Y0055744D01*
X0224951Y0056228D02*
X0224951Y0057196D01*
X0224951Y0056228D02*
X0224468Y0055744D01*
X0223984Y0055744D01*
X0223500Y0056228D01*
X0223500Y0055261D01*
X0223016Y0054777D01*
X0222005Y0055744D02*
X0220070Y0055744D01*
X0221037Y0055744D02*
X0221037Y0058647D01*
X0220070Y0057679D01*
X0219080Y0056228D02*
X0219080Y0055744D01*
X0218597Y0055744D01*
X0218597Y0056228D01*
X0219080Y0056228D01*
X0217585Y0056228D02*
X0217585Y0058163D01*
X0215650Y0056228D01*
X0216134Y0055744D01*
X0217101Y0055744D01*
X0217585Y0056228D01*
X0215650Y0056228D02*
X0215650Y0058163D01*
X0216134Y0058647D01*
X0217101Y0058647D01*
X0217585Y0058163D01*
X0223500Y0057196D02*
X0223500Y0056228D01*
X0225963Y0057196D02*
X0226930Y0057196D01*
X0250948Y0061744D02*
X0250948Y0063196D01*
X0251431Y0063679D01*
X0252399Y0063679D01*
X0252883Y0063196D01*
X0252883Y0061744D01*
X0253850Y0061744D02*
X0250948Y0061744D01*
X0252883Y0062712D02*
X0253850Y0063679D01*
X0253850Y0064691D02*
X0253850Y0066626D01*
X0253850Y0065658D02*
X0250948Y0065658D01*
X0251915Y0064691D01*
X0254698Y0065175D02*
X0254698Y0066142D01*
X0255181Y0066626D01*
X0257116Y0064691D01*
X0257600Y0065175D01*
X0257600Y0066142D01*
X0257116Y0066626D01*
X0255181Y0066626D01*
X0254698Y0067638D02*
X0257600Y0067638D01*
X0256633Y0067638D02*
X0257600Y0069089D01*
X0256633Y0067638D02*
X0255665Y0069089D01*
X0253850Y0067638D02*
X0253366Y0067638D01*
X0251431Y0069573D01*
X0250948Y0069573D01*
X0250948Y0067638D01*
X0254698Y0065175D02*
X0255181Y0064691D01*
X0257116Y0064691D01*
X0257600Y0063679D02*
X0257600Y0061744D01*
X0257600Y0062712D02*
X0254698Y0062712D01*
X0255665Y0061744D01*
X0255665Y0075494D02*
X0254698Y0076462D01*
X0257600Y0076462D01*
X0257600Y0077429D02*
X0257600Y0075494D01*
X0257116Y0078441D02*
X0255181Y0078441D01*
X0254698Y0078925D01*
X0254698Y0079892D01*
X0255181Y0080376D01*
X0257116Y0078441D01*
X0257600Y0078925D01*
X0257600Y0079892D01*
X0257116Y0080376D01*
X0255181Y0080376D01*
X0254698Y0081388D02*
X0257600Y0081388D01*
X0256633Y0081388D02*
X0257600Y0082839D01*
X0256633Y0081388D02*
X0255665Y0082839D01*
X0253850Y0082839D02*
X0253366Y0083323D01*
X0252883Y0083323D01*
X0252399Y0082839D01*
X0252399Y0081388D01*
X0253366Y0081388D01*
X0253850Y0081871D01*
X0253850Y0082839D01*
X0252399Y0081388D02*
X0251431Y0082355D01*
X0250948Y0083323D01*
X0253850Y0080376D02*
X0253850Y0078441D01*
X0253850Y0079408D02*
X0250948Y0079408D01*
X0251915Y0078441D01*
X0251431Y0077429D02*
X0250948Y0076946D01*
X0250948Y0075494D01*
X0253850Y0075494D01*
X0252883Y0075494D02*
X0252883Y0076946D01*
X0252399Y0077429D01*
X0251431Y0077429D01*
X0252883Y0076462D02*
X0253850Y0077429D01*
X0253850Y0087994D02*
X0250948Y0087994D01*
X0250948Y0089446D01*
X0251431Y0089929D01*
X0252399Y0089929D01*
X0252883Y0089446D01*
X0252883Y0087994D01*
X0252883Y0088962D02*
X0253850Y0089929D01*
X0253850Y0090941D02*
X0253850Y0092876D01*
X0253850Y0091908D02*
X0250948Y0091908D01*
X0251915Y0090941D01*
X0254698Y0091425D02*
X0254698Y0092392D01*
X0255181Y0092876D01*
X0257116Y0090941D01*
X0257600Y0091425D01*
X0257600Y0092392D01*
X0257116Y0092876D01*
X0255181Y0092876D01*
X0254698Y0093888D02*
X0257600Y0093888D01*
X0256633Y0093888D02*
X0255665Y0095339D01*
X0256633Y0093888D02*
X0257600Y0095339D01*
X0254698Y0091425D02*
X0255181Y0090941D01*
X0257116Y0090941D01*
X0257600Y0089929D02*
X0257600Y0087994D01*
X0257600Y0088962D02*
X0254698Y0088962D01*
X0255665Y0087994D01*
X0253366Y0093888D02*
X0253850Y0094371D01*
X0253850Y0095339D01*
X0253366Y0095823D01*
X0252399Y0095823D01*
X0251915Y0095339D01*
X0251915Y0094855D01*
X0252399Y0093888D01*
X0250948Y0093888D01*
X0250948Y0095823D01*
X0241050Y0095554D02*
X0239115Y0095554D01*
X0238148Y0094586D01*
X0239115Y0093619D01*
X0241050Y0093619D01*
X0239599Y0093619D02*
X0239599Y0095554D01*
X0239599Y0096565D02*
X0239599Y0098500D01*
X0239115Y0098500D02*
X0241050Y0098500D01*
X0240566Y0099512D02*
X0238631Y0101447D01*
X0240566Y0101447D01*
X0241050Y0100963D01*
X0241050Y0099996D01*
X0240566Y0099512D01*
X0238631Y0099512D01*
X0238148Y0099996D01*
X0238148Y0100963D01*
X0238631Y0101447D01*
X0238631Y0102458D02*
X0238148Y0102942D01*
X0238148Y0103910D01*
X0238631Y0104393D01*
X0239115Y0104393D01*
X0241050Y0102458D01*
X0241050Y0104393D01*
X0241050Y0105405D02*
X0238148Y0105405D01*
X0238148Y0107340D01*
X0239599Y0106372D02*
X0239599Y0105405D01*
X0241050Y0105405D02*
X0241050Y0107340D01*
X0239599Y0108351D02*
X0239599Y0110286D01*
X0240083Y0111298D02*
X0239599Y0111782D01*
X0239599Y0112749D01*
X0240083Y0113233D01*
X0240566Y0113233D01*
X0241050Y0112749D01*
X0241050Y0111782D01*
X0240566Y0111298D01*
X0240083Y0111298D01*
X0239599Y0111782D02*
X0239115Y0111298D01*
X0238631Y0111298D01*
X0238148Y0111782D01*
X0238148Y0112749D01*
X0238631Y0113233D01*
X0239115Y0113233D01*
X0239599Y0112749D01*
X0241050Y0109803D02*
X0238148Y0109803D01*
X0239599Y0108351D01*
X0236350Y0108642D02*
X0236350Y0107675D01*
X0235866Y0107191D01*
X0234899Y0107191D02*
X0234415Y0108158D01*
X0234415Y0108642D01*
X0234899Y0109126D01*
X0235866Y0109126D01*
X0236350Y0108642D01*
X0234899Y0107191D02*
X0233448Y0107191D01*
X0233448Y0109126D01*
X0233931Y0111744D02*
X0233448Y0112228D01*
X0233448Y0113196D01*
X0233931Y0113679D01*
X0234415Y0113679D01*
X0236350Y0111744D01*
X0236350Y0113679D01*
X0236350Y0114691D02*
X0234415Y0116626D01*
X0233931Y0116626D01*
X0233448Y0116142D01*
X0233448Y0115175D01*
X0233931Y0114691D01*
X0236350Y0114691D02*
X0236350Y0116626D01*
X0236350Y0117638D02*
X0236350Y0119089D01*
X0235866Y0119573D01*
X0234899Y0119573D01*
X0234415Y0119089D01*
X0234415Y0117638D01*
X0237317Y0117638D01*
X0236350Y0120584D02*
X0233448Y0120584D01*
X0233448Y0122519D01*
X0234899Y0121552D02*
X0234899Y0120584D01*
X0235866Y0106179D02*
X0236350Y0105696D01*
X0236350Y0104728D01*
X0235866Y0104244D01*
X0233931Y0104244D01*
X0233448Y0104728D01*
X0233448Y0105696D01*
X0233931Y0106179D01*
X0239115Y0098500D02*
X0238148Y0097533D01*
X0239115Y0096565D01*
X0241050Y0096565D01*
X0239599Y0092607D02*
X0239599Y0090672D01*
X0238148Y0092124D01*
X0241050Y0092124D01*
X0241050Y0089661D02*
X0241050Y0087726D01*
X0239115Y0089661D01*
X0238631Y0089661D01*
X0238148Y0089177D01*
X0238148Y0088210D01*
X0238631Y0087726D01*
X0233138Y0087496D02*
X0233138Y0086528D01*
X0232655Y0086044D01*
X0231687Y0086044D01*
X0231203Y0086528D01*
X0231203Y0087496D02*
X0232171Y0087979D01*
X0232655Y0087979D01*
X0233138Y0087496D01*
X0233138Y0088947D02*
X0231203Y0088947D01*
X0231203Y0087496D01*
X0230192Y0087496D02*
X0230192Y0086528D01*
X0229708Y0086044D01*
X0228741Y0086044D01*
X0228257Y0086528D01*
X0228257Y0087496D02*
X0229224Y0087979D01*
X0229708Y0087979D01*
X0230192Y0087496D01*
X0230192Y0088947D02*
X0228257Y0088947D01*
X0228257Y0087496D01*
X0227245Y0088463D02*
X0225310Y0086528D01*
X0225794Y0086044D01*
X0226762Y0086044D01*
X0227245Y0086528D01*
X0227245Y0088463D01*
X0226762Y0088947D01*
X0225794Y0088947D01*
X0225310Y0088463D01*
X0225310Y0086528D01*
X0224299Y0086044D02*
X0224299Y0088947D01*
X0222364Y0088947D02*
X0222364Y0086044D01*
X0221352Y0086528D02*
X0220869Y0086044D01*
X0219417Y0086044D01*
X0219417Y0088947D01*
X0220869Y0088947D01*
X0221352Y0088463D01*
X0221352Y0087979D01*
X0220869Y0087496D01*
X0219417Y0087496D01*
X0220869Y0087496D02*
X0221352Y0087012D01*
X0221352Y0086528D01*
X0222364Y0088947D02*
X0224299Y0086044D01*
X0202888Y0089947D02*
X0200953Y0089947D01*
X0187816Y0133485D02*
X0185881Y0135420D01*
X0187816Y0135420D01*
X0188300Y0134936D01*
X0188300Y0133969D01*
X0187816Y0133485D01*
X0185881Y0133485D01*
X0185398Y0133969D01*
X0185398Y0134936D01*
X0185881Y0135420D01*
X0187816Y0136432D02*
X0187816Y0136915D01*
X0188300Y0136915D01*
X0188300Y0136432D01*
X0187816Y0136432D01*
X0188300Y0137905D02*
X0188300Y0139840D01*
X0188300Y0138872D02*
X0185398Y0138872D01*
X0186365Y0137905D01*
X0184066Y0140851D02*
X0184550Y0141335D01*
X0184550Y0142303D01*
X0184066Y0142786D01*
X0184066Y0143798D02*
X0184550Y0144282D01*
X0184550Y0145249D01*
X0184066Y0145733D01*
X0183583Y0145733D01*
X0183099Y0145249D01*
X0183099Y0144765D01*
X0183099Y0145249D02*
X0182615Y0145733D01*
X0182131Y0145733D01*
X0181648Y0145249D01*
X0181648Y0144282D01*
X0182131Y0143798D01*
X0182131Y0142786D02*
X0181648Y0142303D01*
X0181648Y0141335D01*
X0182131Y0140851D01*
X0184066Y0140851D01*
X0186849Y0141335D02*
X0187816Y0141335D01*
X0188784Y0141335D01*
X0189267Y0140851D01*
X0188300Y0141819D02*
X0188300Y0142303D01*
X0187816Y0142786D01*
X0186849Y0142786D01*
X0186849Y0143798D02*
X0186849Y0144765D01*
X0188300Y0143798D02*
X0185398Y0143798D01*
X0185398Y0145733D01*
X0188300Y0141819D02*
X0187816Y0141335D01*
X0197198Y0140696D02*
X0197198Y0139728D01*
X0197681Y0139244D01*
X0199616Y0139244D01*
X0200100Y0139728D01*
X0200100Y0140696D01*
X0199616Y0141179D01*
X0200100Y0142191D02*
X0200100Y0144126D01*
X0200100Y0143158D02*
X0197198Y0143158D01*
X0198165Y0142191D01*
X0197681Y0141179D02*
X0197198Y0140696D01*
X0200948Y0140212D02*
X0203850Y0140212D01*
X0203850Y0141179D02*
X0203850Y0139244D01*
X0201915Y0139244D02*
X0200948Y0140212D01*
X0201431Y0142191D02*
X0200948Y0142675D01*
X0200948Y0143642D01*
X0201431Y0144126D01*
X0203366Y0142191D01*
X0203850Y0142675D01*
X0203850Y0143642D01*
X0203366Y0144126D01*
X0201431Y0144126D01*
X0201431Y0145138D02*
X0200948Y0145621D01*
X0200948Y0146589D01*
X0201431Y0147073D01*
X0203366Y0145138D01*
X0203850Y0145621D01*
X0203850Y0146589D01*
X0203366Y0147073D01*
X0201431Y0147073D01*
X0201915Y0148084D02*
X0201915Y0149535D01*
X0202399Y0150019D01*
X0203366Y0150019D01*
X0203850Y0149535D01*
X0203850Y0148084D01*
X0204817Y0148084D02*
X0201915Y0148084D01*
X0201431Y0145138D02*
X0203366Y0145138D01*
X0203366Y0142191D02*
X0201431Y0142191D01*
X0200100Y0145138D02*
X0199616Y0145138D01*
X0197681Y0147073D01*
X0197198Y0147073D01*
X0197198Y0145138D01*
X0200948Y0151031D02*
X0200948Y0152966D01*
X0202399Y0151998D02*
X0202399Y0151031D01*
X0203850Y0151031D02*
X0200948Y0151031D01*
X0178964Y0156196D02*
X0177029Y0156196D01*
X0178480Y0157647D01*
X0178480Y0154744D01*
X0176018Y0157163D02*
X0174083Y0155228D01*
X0174083Y0154744D01*
X0173071Y0155228D02*
X0172587Y0154744D01*
X0171620Y0154744D01*
X0171136Y0155228D01*
X0170125Y0154744D02*
X0168190Y0154744D01*
X0170125Y0156679D01*
X0170125Y0157163D01*
X0169641Y0157647D01*
X0168673Y0157647D01*
X0168190Y0157163D01*
X0167178Y0157647D02*
X0167178Y0155712D01*
X0166211Y0154744D01*
X0165243Y0155712D01*
X0165243Y0157647D01*
X0162297Y0157647D02*
X0162297Y0154744D01*
X0164231Y0154744D01*
X0160317Y0154744D02*
X0160317Y0157647D01*
X0159350Y0157647D02*
X0161285Y0157647D01*
X0156454Y0157113D02*
X0156454Y0156629D01*
X0155970Y0156146D01*
X0155002Y0156146D01*
X0154519Y0156629D01*
X0154519Y0157113D01*
X0155002Y0157597D01*
X0155970Y0157597D01*
X0156454Y0157113D01*
X0155970Y0156146D02*
X0156454Y0155662D01*
X0156454Y0155178D01*
X0155970Y0154694D01*
X0155002Y0154694D01*
X0154519Y0155178D01*
X0154519Y0155662D01*
X0155002Y0156146D01*
X0153507Y0154694D02*
X0151572Y0154694D01*
X0152540Y0154694D02*
X0152540Y0157597D01*
X0151572Y0156629D01*
X0150561Y0156629D02*
X0150077Y0156146D01*
X0149109Y0156146D01*
X0148626Y0156629D01*
X0148626Y0157113D01*
X0149109Y0157597D01*
X0150077Y0157597D01*
X0150561Y0157113D01*
X0150561Y0156629D01*
X0150077Y0156146D02*
X0150561Y0155662D01*
X0150561Y0155178D01*
X0150077Y0154694D01*
X0149109Y0154694D01*
X0148626Y0155178D01*
X0148626Y0155662D01*
X0149109Y0156146D01*
X0147614Y0157113D02*
X0147130Y0157597D01*
X0145679Y0157597D01*
X0145679Y0154694D01*
X0147130Y0154694D01*
X0147614Y0155178D01*
X0147614Y0157113D01*
X0144668Y0157113D02*
X0144668Y0156629D01*
X0144184Y0156146D01*
X0143216Y0156146D01*
X0142733Y0156629D01*
X0142733Y0157113D01*
X0143216Y0157597D01*
X0144184Y0157597D01*
X0144668Y0157113D01*
X0144184Y0156146D02*
X0144668Y0155662D01*
X0144668Y0155178D01*
X0144184Y0154694D01*
X0143216Y0154694D01*
X0142733Y0155178D01*
X0142733Y0155662D01*
X0143216Y0156146D01*
X0141721Y0156629D02*
X0139786Y0154694D01*
X0141721Y0154694D01*
X0141721Y0156629D02*
X0141721Y0157113D01*
X0141237Y0157597D01*
X0140270Y0157597D01*
X0139786Y0157113D01*
X0137807Y0157597D02*
X0137807Y0154694D01*
X0136840Y0154694D02*
X0138775Y0154694D01*
X0136840Y0156629D02*
X0137807Y0157597D01*
X0135828Y0157113D02*
X0135344Y0157597D01*
X0134377Y0157597D01*
X0133893Y0157113D01*
X0133893Y0155178D01*
X0134377Y0154694D01*
X0135344Y0154694D01*
X0135828Y0155178D01*
X0132881Y0155178D02*
X0132398Y0154694D01*
X0130947Y0154694D01*
X0130947Y0157597D01*
X0132398Y0157597D01*
X0132881Y0157113D01*
X0132881Y0155178D01*
X0129935Y0154694D02*
X0129935Y0156629D01*
X0128967Y0157597D01*
X0128000Y0156629D01*
X0128000Y0154694D01*
X0128000Y0156146D02*
X0129935Y0156146D01*
X0128448Y0152073D02*
X0128448Y0150138D01*
X0131350Y0150138D01*
X0130866Y0149126D02*
X0129899Y0149126D01*
X0130866Y0149126D02*
X0131350Y0148642D01*
X0131350Y0148158D01*
X0130866Y0147675D01*
X0131834Y0147675D01*
X0132317Y0147191D01*
X0131350Y0146179D02*
X0131350Y0144244D01*
X0131350Y0145212D02*
X0128448Y0145212D01*
X0129415Y0144244D01*
X0127600Y0144728D02*
X0127600Y0145696D01*
X0127116Y0146179D01*
X0126149Y0147191D02*
X0124698Y0148642D01*
X0127600Y0148642D01*
X0126149Y0149126D02*
X0126149Y0147191D01*
X0125181Y0146179D02*
X0124698Y0145696D01*
X0124698Y0144728D01*
X0125181Y0144244D01*
X0127116Y0144244D01*
X0127600Y0144728D01*
X0129899Y0147675D02*
X0130866Y0147675D01*
X0129899Y0150138D02*
X0129899Y0151105D01*
X0123567Y0151611D02*
X0123084Y0152095D01*
X0122116Y0152095D01*
X0122600Y0152578D01*
X0122600Y0153062D01*
X0122116Y0153546D01*
X0121149Y0153546D01*
X0121149Y0154557D02*
X0121149Y0155525D01*
X0122600Y0154557D02*
X0119698Y0154557D01*
X0119698Y0156492D01*
X0115214Y0154946D02*
X0113279Y0154946D01*
X0114730Y0156397D01*
X0114730Y0153494D01*
X0112268Y0155913D02*
X0110333Y0153978D01*
X0110333Y0153494D01*
X0109321Y0153978D02*
X0108837Y0153494D01*
X0107870Y0153494D01*
X0107386Y0153978D01*
X0106375Y0153494D02*
X0104440Y0153494D01*
X0106375Y0155429D01*
X0106375Y0155913D01*
X0105891Y0156397D01*
X0104923Y0156397D01*
X0104440Y0155913D01*
X0103428Y0156397D02*
X0103428Y0154462D01*
X0102461Y0153494D01*
X0101493Y0154462D01*
X0101493Y0156397D01*
X0098547Y0156397D02*
X0098547Y0153494D01*
X0100481Y0153494D01*
X0096567Y0153494D02*
X0096567Y0156397D01*
X0095600Y0156397D02*
X0097535Y0156397D01*
X0107386Y0155913D02*
X0107870Y0156397D01*
X0108837Y0156397D01*
X0109321Y0155913D01*
X0109321Y0155429D01*
X0108837Y0154946D01*
X0109321Y0154462D01*
X0109321Y0153978D01*
X0108837Y0154946D02*
X0108354Y0154946D01*
X0110333Y0156397D02*
X0112268Y0156397D01*
X0112268Y0155913D01*
X0114150Y0162994D02*
X0116085Y0164929D01*
X0116085Y0165413D01*
X0115601Y0165897D01*
X0114634Y0165897D01*
X0114150Y0165413D01*
X0114150Y0166744D02*
X0114150Y0169647D01*
X0115601Y0169647D01*
X0116085Y0169163D01*
X0116085Y0168196D01*
X0115601Y0167712D01*
X0114150Y0167712D01*
X0115117Y0167712D02*
X0116085Y0166744D01*
X0117097Y0166744D02*
X0119031Y0166744D01*
X0118064Y0166744D02*
X0118064Y0169647D01*
X0117097Y0168679D01*
X0117580Y0165897D02*
X0117097Y0165413D01*
X0117580Y0165897D02*
X0118548Y0165897D01*
X0119031Y0165413D01*
X0119031Y0164929D01*
X0117097Y0162994D01*
X0119031Y0162994D01*
X0120043Y0163478D02*
X0121978Y0165413D01*
X0121978Y0163478D01*
X0121494Y0162994D01*
X0120527Y0162994D01*
X0120043Y0163478D01*
X0120043Y0165413D01*
X0120527Y0165897D01*
X0121494Y0165897D01*
X0121978Y0165413D01*
X0116085Y0162994D02*
X0114150Y0162994D01*
X0121149Y0152095D02*
X0122116Y0152095D01*
X0122600Y0150599D02*
X0122600Y0148664D01*
X0122600Y0149632D02*
X0119698Y0149632D01*
X0120665Y0148664D01*
X0122116Y0147675D02*
X0122600Y0147675D01*
X0122600Y0147191D01*
X0122116Y0147191D01*
X0122116Y0147675D01*
X0122116Y0146179D02*
X0122600Y0145696D01*
X0122600Y0144728D01*
X0122116Y0144244D01*
X0120181Y0146179D01*
X0122116Y0146179D01*
X0122116Y0144244D02*
X0120181Y0144244D01*
X0119698Y0144728D01*
X0119698Y0145696D01*
X0120181Y0146179D01*
X0118850Y0145696D02*
X0118366Y0146179D01*
X0118850Y0145696D02*
X0118850Y0144728D01*
X0118366Y0144244D01*
X0116431Y0144244D01*
X0115948Y0144728D01*
X0115948Y0145696D01*
X0116431Y0146179D01*
X0115948Y0147191D02*
X0115948Y0149126D01*
X0116431Y0149126D01*
X0118366Y0147191D01*
X0118850Y0147191D01*
X0093148Y0101733D02*
X0093148Y0099798D01*
X0096050Y0099798D01*
X0095566Y0098786D02*
X0094599Y0098786D01*
X0095566Y0098786D02*
X0096050Y0098303D01*
X0096050Y0097819D01*
X0095566Y0097335D01*
X0096534Y0097335D01*
X0097017Y0096851D01*
X0095566Y0097335D02*
X0094599Y0097335D01*
X0093631Y0095840D02*
X0095566Y0093905D01*
X0096050Y0093905D01*
X0096050Y0092915D02*
X0096050Y0092432D01*
X0095566Y0092432D01*
X0095566Y0092915D01*
X0096050Y0092915D01*
X0096050Y0090936D02*
X0093148Y0090936D01*
X0094599Y0089485D01*
X0094599Y0091420D01*
X0093148Y0093905D02*
X0093148Y0095840D01*
X0093631Y0095840D01*
X0092300Y0097335D02*
X0092300Y0098303D01*
X0091816Y0098786D01*
X0091816Y0099798D02*
X0091333Y0099798D01*
X0090849Y0100282D01*
X0090849Y0101249D01*
X0091333Y0101733D01*
X0091816Y0101733D01*
X0092300Y0101249D01*
X0092300Y0100282D01*
X0091816Y0099798D01*
X0090849Y0100282D02*
X0090365Y0099798D01*
X0089881Y0099798D01*
X0089398Y0100282D01*
X0089398Y0101249D01*
X0089881Y0101733D01*
X0090365Y0101733D01*
X0090849Y0101249D01*
X0089881Y0098786D02*
X0089398Y0098303D01*
X0089398Y0097335D01*
X0089881Y0096851D01*
X0091816Y0096851D01*
X0092300Y0097335D01*
X0094599Y0099798D02*
X0094599Y0100765D01*
X0111686Y0086257D02*
X0111686Y0084405D01*
X0112303Y0083788D01*
X0114155Y0083788D01*
X0114155Y0086257D01*
X0115369Y0085639D02*
X0117838Y0085639D01*
X0119052Y0086257D02*
X0120904Y0086257D01*
X0121521Y0085639D01*
X0121521Y0084405D01*
X0120904Y0083788D01*
X0119052Y0083788D01*
X0119052Y0087491D01*
X0122735Y0087491D02*
X0123353Y0087491D01*
X0123353Y0083788D01*
X0123970Y0083788D02*
X0122735Y0083788D01*
X0125191Y0084405D02*
X0125808Y0083788D01*
X0127042Y0083788D01*
X0127660Y0084405D01*
X0127660Y0085639D01*
X0127042Y0086257D01*
X0125808Y0086257D01*
X0125191Y0085639D01*
X0125191Y0084405D01*
X0128874Y0083788D02*
X0131343Y0086257D01*
X0128874Y0086257D02*
X0131343Y0083788D01*
X0136240Y0083788D02*
X0136240Y0087491D01*
X0138709Y0083788D01*
X0138709Y0087491D01*
X0139923Y0087491D02*
X0139923Y0083788D01*
X0142392Y0083788D01*
X0143607Y0084405D02*
X0143607Y0086874D01*
X0144224Y0087491D01*
X0145458Y0087491D01*
X0146075Y0086874D01*
X0146075Y0084405D01*
X0145458Y0083788D01*
X0144224Y0083788D01*
X0143607Y0084405D01*
X0141158Y0085639D02*
X0139923Y0085639D01*
X0139923Y0087491D02*
X0142392Y0087491D01*
X0118198Y0051519D02*
X0118198Y0049584D01*
X0121100Y0049584D01*
X0120616Y0048573D02*
X0121100Y0048089D01*
X0121100Y0046638D01*
X0122067Y0046638D02*
X0119165Y0046638D01*
X0119165Y0048089D01*
X0119649Y0048573D01*
X0120616Y0048573D01*
X0119649Y0049584D02*
X0119649Y0050552D01*
X0118681Y0045626D02*
X0120616Y0043691D01*
X0121100Y0043691D01*
X0121100Y0042196D02*
X0118198Y0042196D01*
X0119649Y0040744D01*
X0119649Y0042679D01*
X0118198Y0043691D02*
X0118198Y0045626D01*
X0118681Y0045626D01*
X0118681Y0038573D02*
X0120616Y0036638D01*
X0121100Y0037121D01*
X0121100Y0038089D01*
X0120616Y0038573D01*
X0118681Y0038573D01*
X0118198Y0038089D01*
X0118198Y0037121D01*
X0118681Y0036638D01*
X0120616Y0036638D01*
X0121100Y0035626D02*
X0121100Y0033691D01*
X0121100Y0034658D02*
X0118198Y0034658D01*
X0119165Y0033691D01*
X0118681Y0032679D02*
X0118198Y0032196D01*
X0118198Y0031228D01*
X0118681Y0030744D01*
X0120616Y0030744D01*
X0121100Y0031228D01*
X0121100Y0032196D01*
X0120616Y0032679D01*
X0117116Y0027876D02*
X0117600Y0027392D01*
X0117600Y0026425D01*
X0117116Y0025941D01*
X0115181Y0027876D01*
X0117116Y0027876D01*
X0115181Y0027876D02*
X0114698Y0027392D01*
X0114698Y0026425D01*
X0115181Y0025941D01*
X0117116Y0025941D01*
X0117600Y0024929D02*
X0117600Y0022994D01*
X0117600Y0023962D02*
X0114698Y0023962D01*
X0115665Y0022994D01*
X0116149Y0018323D02*
X0116149Y0016871D01*
X0115665Y0016388D01*
X0115181Y0016388D01*
X0114698Y0016871D01*
X0114698Y0017839D01*
X0115181Y0018323D01*
X0117116Y0018323D01*
X0117600Y0017839D01*
X0117600Y0016871D01*
X0117116Y0016388D01*
X0117600Y0015376D02*
X0117600Y0013441D01*
X0117600Y0014408D02*
X0114698Y0014408D01*
X0115665Y0013441D01*
X0115181Y0012429D02*
X0116149Y0012429D01*
X0116633Y0011946D01*
X0116633Y0010494D01*
X0117600Y0010494D02*
X0114698Y0010494D01*
X0114698Y0011946D01*
X0115181Y0012429D01*
X0116633Y0011462D02*
X0117600Y0012429D01*
X0130650Y0044494D02*
X0132585Y0044494D01*
X0133597Y0044494D02*
X0135531Y0044494D01*
X0134564Y0044494D02*
X0134564Y0047397D01*
X0133597Y0046429D01*
X0130650Y0047397D02*
X0130650Y0044494D01*
X0138150Y0044494D02*
X0140085Y0046429D01*
X0140085Y0046913D01*
X0139601Y0047397D01*
X0138634Y0047397D01*
X0138150Y0046913D01*
X0138150Y0044494D02*
X0140085Y0044494D01*
X0141097Y0044494D02*
X0141097Y0044978D01*
X0143031Y0046913D01*
X0143031Y0047397D01*
X0141097Y0047397D01*
X0144043Y0046429D02*
X0145494Y0046429D01*
X0145978Y0045946D01*
X0145978Y0044494D01*
X0146990Y0044494D02*
X0146990Y0047397D01*
X0146990Y0045946D02*
X0148925Y0045946D01*
X0148925Y0047397D02*
X0148925Y0044494D01*
X0144043Y0044494D02*
X0144043Y0046429D01*
X0045148Y0039647D02*
X0043213Y0039647D01*
X0043213Y0036744D01*
X0042201Y0037228D02*
X0042201Y0038196D01*
X0042201Y0037228D02*
X0041718Y0036744D01*
X0041234Y0036744D01*
X0040750Y0037228D01*
X0040750Y0036261D01*
X0040266Y0035777D01*
X0039255Y0036744D02*
X0037320Y0036744D01*
X0038287Y0036744D02*
X0038287Y0039647D01*
X0037320Y0038679D01*
X0036330Y0037228D02*
X0036330Y0036744D01*
X0035847Y0036744D01*
X0035847Y0037228D01*
X0036330Y0037228D01*
X0034835Y0037228D02*
X0034835Y0039163D01*
X0032900Y0037228D01*
X0033384Y0036744D01*
X0034351Y0036744D01*
X0034835Y0037228D01*
X0032900Y0037228D02*
X0032900Y0039163D01*
X0033384Y0039647D01*
X0034351Y0039647D01*
X0034835Y0039163D01*
X0040750Y0038196D02*
X0040750Y0037228D01*
X0043213Y0038196D02*
X0044180Y0038196D01*
X0011222Y0053496D02*
X0008320Y0053496D01*
X0009287Y0054464D01*
X0008320Y0055431D01*
X0011222Y0055431D01*
X0011222Y0056443D02*
X0011222Y0058378D01*
X0011222Y0059389D02*
X0008320Y0061324D01*
X0008803Y0062336D02*
X0008320Y0062820D01*
X0008320Y0063787D01*
X0008803Y0064271D01*
X0010738Y0064271D01*
X0011222Y0063787D01*
X0011222Y0062820D01*
X0010738Y0062336D01*
X0009771Y0062820D02*
X0009771Y0064271D01*
X0010738Y0065283D02*
X0008803Y0067218D01*
X0010738Y0067218D01*
X0011222Y0066734D01*
X0011222Y0065766D01*
X0010738Y0065283D01*
X0008803Y0065283D01*
X0008320Y0065766D01*
X0008320Y0066734D01*
X0008803Y0067218D01*
X0009771Y0068229D02*
X0009771Y0069680D01*
X0010255Y0070164D01*
X0010738Y0070164D01*
X0011222Y0069680D01*
X0011222Y0068713D01*
X0010738Y0068229D01*
X0009771Y0068229D01*
X0008803Y0069197D01*
X0008320Y0070164D01*
X0009287Y0071176D02*
X0008320Y0072143D01*
X0011222Y0072143D01*
X0011222Y0071176D02*
X0011222Y0073111D01*
X0009771Y0074122D02*
X0009771Y0076057D01*
X0011222Y0075573D02*
X0008320Y0075573D01*
X0009771Y0074122D01*
X0009771Y0062820D02*
X0009287Y0062336D01*
X0008803Y0062336D01*
X0011222Y0061324D02*
X0008320Y0059389D01*
X0008320Y0056443D02*
X0011222Y0056443D01*
X0040266Y0127027D02*
X0040750Y0127511D01*
X0040750Y0128478D01*
X0041234Y0127994D01*
X0041718Y0127994D01*
X0042201Y0128478D01*
X0042201Y0129446D01*
X0043213Y0129446D02*
X0044180Y0129446D01*
X0043213Y0130897D02*
X0043213Y0127994D01*
X0040750Y0128478D02*
X0040750Y0129446D01*
X0039255Y0127994D02*
X0037320Y0127994D01*
X0038287Y0127994D02*
X0038287Y0130897D01*
X0037320Y0129929D01*
X0036330Y0128478D02*
X0036330Y0127994D01*
X0035847Y0127994D01*
X0035847Y0128478D01*
X0036330Y0128478D01*
X0034835Y0128478D02*
X0034835Y0130413D01*
X0032900Y0128478D01*
X0033384Y0127994D01*
X0034351Y0127994D01*
X0034835Y0128478D01*
X0032900Y0128478D02*
X0032900Y0130413D01*
X0033384Y0130897D01*
X0034351Y0130897D01*
X0034835Y0130413D01*
X0043213Y0130897D02*
X0045148Y0130897D01*
X0011222Y0144746D02*
X0008320Y0144746D01*
X0009287Y0145714D01*
X0008320Y0146681D01*
X0011222Y0146681D01*
X0011222Y0147693D02*
X0011222Y0149628D01*
X0011222Y0150639D02*
X0008320Y0152574D01*
X0008803Y0153586D02*
X0008320Y0154070D01*
X0008320Y0155037D01*
X0008803Y0155521D01*
X0010738Y0155521D01*
X0011222Y0155037D01*
X0011222Y0154070D01*
X0010738Y0153586D01*
X0009771Y0154070D02*
X0009771Y0155521D01*
X0010738Y0156533D02*
X0008803Y0158468D01*
X0010738Y0158468D01*
X0011222Y0157984D01*
X0011222Y0157016D01*
X0010738Y0156533D01*
X0008803Y0156533D01*
X0008320Y0157016D01*
X0008320Y0157984D01*
X0008803Y0158468D01*
X0009771Y0159479D02*
X0009771Y0160930D01*
X0010255Y0161414D01*
X0010738Y0161414D01*
X0011222Y0160930D01*
X0011222Y0159963D01*
X0010738Y0159479D01*
X0009771Y0159479D01*
X0008803Y0160447D01*
X0008320Y0161414D01*
X0009287Y0162426D02*
X0008320Y0163393D01*
X0011222Y0163393D01*
X0011222Y0162426D02*
X0011222Y0164361D01*
X0009771Y0165372D02*
X0009771Y0167307D01*
X0011222Y0166823D02*
X0008320Y0166823D01*
X0009771Y0165372D01*
X0009771Y0154070D02*
X0009287Y0153586D01*
X0008803Y0153586D01*
X0011222Y0152574D02*
X0008320Y0150639D01*
X0008320Y0147693D02*
X0011222Y0147693D01*
X0040266Y0218277D02*
X0040750Y0218761D01*
X0040750Y0219728D01*
X0041234Y0219244D01*
X0041718Y0219244D01*
X0042201Y0219728D01*
X0042201Y0220696D01*
X0043213Y0220696D02*
X0044180Y0220696D01*
X0043213Y0222147D02*
X0043213Y0219244D01*
X0040750Y0219728D02*
X0040750Y0220696D01*
X0039255Y0219244D02*
X0037320Y0219244D01*
X0038287Y0219244D02*
X0038287Y0222147D01*
X0037320Y0221179D01*
X0036330Y0219728D02*
X0036330Y0219244D01*
X0035847Y0219244D01*
X0035847Y0219728D01*
X0036330Y0219728D01*
X0034835Y0219728D02*
X0034835Y0221663D01*
X0032900Y0219728D01*
X0033384Y0219244D01*
X0034351Y0219244D01*
X0034835Y0219728D01*
X0032900Y0219728D02*
X0032900Y0221663D01*
X0033384Y0222147D01*
X0034351Y0222147D01*
X0034835Y0221663D01*
X0043213Y0222147D02*
X0045148Y0222147D01*
X0011222Y0235996D02*
X0008320Y0235996D01*
X0009287Y0236964D01*
X0008320Y0237931D01*
X0011222Y0237931D01*
X0011222Y0238943D02*
X0011222Y0240878D01*
X0011222Y0241889D02*
X0008320Y0243824D01*
X0008803Y0244836D02*
X0008320Y0245320D01*
X0008320Y0246287D01*
X0008803Y0246771D01*
X0010738Y0246771D01*
X0011222Y0246287D01*
X0011222Y0245320D01*
X0010738Y0244836D01*
X0009771Y0245320D02*
X0009771Y0246771D01*
X0010738Y0247783D02*
X0008803Y0249718D01*
X0010738Y0249718D01*
X0011222Y0249234D01*
X0011222Y0248266D01*
X0010738Y0247783D01*
X0008803Y0247783D01*
X0008320Y0248266D01*
X0008320Y0249234D01*
X0008803Y0249718D01*
X0009771Y0250729D02*
X0009771Y0252180D01*
X0010255Y0252664D01*
X0010738Y0252664D01*
X0011222Y0252180D01*
X0011222Y0251213D01*
X0010738Y0250729D01*
X0009771Y0250729D01*
X0008803Y0251697D01*
X0008320Y0252664D01*
X0009287Y0253676D02*
X0008320Y0254643D01*
X0011222Y0254643D01*
X0011222Y0253676D02*
X0011222Y0255611D01*
X0009771Y0256622D02*
X0009771Y0258557D01*
X0011222Y0258073D02*
X0008320Y0258073D01*
X0009771Y0256622D01*
X0009771Y0245320D02*
X0009287Y0244836D01*
X0008803Y0244836D01*
X0011222Y0243824D02*
X0008320Y0241889D01*
X0008320Y0238943D02*
X0011222Y0238943D01*
X0167600Y0177613D02*
X0167600Y0175678D01*
X0168084Y0175194D01*
X0169051Y0175194D01*
X0169535Y0175678D01*
X0169535Y0177613D01*
X0169051Y0178097D01*
X0168084Y0178097D01*
X0167600Y0177613D01*
X0170547Y0178097D02*
X0170547Y0175194D01*
X0172481Y0175194D01*
X0173493Y0175194D02*
X0173493Y0178097D01*
X0175428Y0178097D01*
X0176440Y0178097D02*
X0176440Y0175194D01*
X0177891Y0175194D01*
X0178375Y0175678D01*
X0178375Y0177613D01*
X0177891Y0178097D01*
X0176440Y0178097D01*
X0174461Y0176646D02*
X0173493Y0176646D01*
X0173493Y0175194D02*
X0175428Y0175194D01*
X0176018Y0157647D02*
X0174083Y0157647D01*
X0173071Y0157163D02*
X0173071Y0156679D01*
X0172587Y0156196D01*
X0173071Y0155712D01*
X0173071Y0155228D01*
X0172587Y0156196D02*
X0172104Y0156196D01*
X0173071Y0157163D02*
X0172587Y0157647D01*
X0171620Y0157647D01*
X0171136Y0157163D01*
X0176018Y0157163D02*
X0176018Y0157647D01*
X0226275Y0154413D02*
X0226275Y0152478D01*
X0226759Y0151994D01*
X0227726Y0151994D01*
X0228210Y0152478D01*
X0229222Y0151994D02*
X0231156Y0151994D01*
X0230189Y0151994D02*
X0230189Y0154897D01*
X0229222Y0153929D01*
X0228210Y0154413D02*
X0227726Y0154897D01*
X0226759Y0154897D01*
X0226275Y0154413D01*
X0226759Y0151147D02*
X0227726Y0151147D01*
X0228210Y0150663D01*
X0226275Y0148728D01*
X0226759Y0148244D01*
X0227726Y0148244D01*
X0228210Y0148728D01*
X0228210Y0150663D01*
X0226759Y0151147D02*
X0226275Y0150663D01*
X0226275Y0148728D01*
X0229222Y0148728D02*
X0229705Y0148728D01*
X0229705Y0148244D01*
X0229222Y0148244D01*
X0229222Y0148728D01*
X0230695Y0148244D02*
X0232630Y0148244D01*
X0231662Y0148244D02*
X0231662Y0151147D01*
X0230695Y0150179D01*
X0234125Y0149696D02*
X0234125Y0148728D01*
X0234125Y0147761D01*
X0233641Y0147277D01*
X0234609Y0148244D02*
X0234125Y0148728D01*
X0234609Y0148244D02*
X0235093Y0148244D01*
X0235576Y0148728D01*
X0235576Y0149696D01*
X0236588Y0149696D02*
X0237555Y0149696D01*
X0236588Y0151147D02*
X0238523Y0151147D01*
X0236588Y0151147D02*
X0236588Y0148244D01*
X0251134Y0128647D02*
X0250650Y0128163D01*
X0250650Y0126228D01*
X0251134Y0125744D01*
X0252101Y0125744D01*
X0252585Y0126228D01*
X0253597Y0125744D02*
X0255531Y0125744D01*
X0254564Y0125744D02*
X0254564Y0128647D01*
X0253597Y0127679D01*
X0252585Y0128163D02*
X0252101Y0128647D01*
X0251134Y0128647D01*
X0256543Y0128163D02*
X0257027Y0128647D01*
X0257994Y0128647D01*
X0258478Y0128163D01*
X0258478Y0127679D01*
X0256543Y0125744D01*
X0258478Y0125744D01*
X0256037Y0117397D02*
X0256037Y0114494D01*
X0255070Y0114494D02*
X0257005Y0114494D01*
X0258016Y0113527D02*
X0258500Y0114011D01*
X0258500Y0114978D01*
X0258984Y0114494D01*
X0259468Y0114494D01*
X0259951Y0114978D01*
X0259951Y0115946D01*
X0260963Y0115946D02*
X0261930Y0115946D01*
X0260963Y0117397D02*
X0260963Y0114494D01*
X0258500Y0114978D02*
X0258500Y0115946D01*
X0256037Y0117397D02*
X0255070Y0116429D01*
X0254080Y0114978D02*
X0254080Y0114494D01*
X0253597Y0114494D01*
X0253597Y0114978D01*
X0254080Y0114978D01*
X0252585Y0114978D02*
X0252101Y0114494D01*
X0251134Y0114494D01*
X0250650Y0114978D01*
X0252585Y0116913D01*
X0252585Y0114978D01*
X0250650Y0114978D02*
X0250650Y0116913D01*
X0251134Y0117397D01*
X0252101Y0117397D01*
X0252585Y0116913D01*
X0260963Y0117397D02*
X0262898Y0117397D01*
D14*
X0102465Y0170138D03*
X0102465Y0175551D03*
D15*
X0100939Y0172844D03*
D16*
X0215250Y0100846D02*
X0215250Y0092657D01*
X0223951Y0080138D02*
X0223953Y0080165D01*
X0223959Y0080192D01*
X0223968Y0080218D01*
X0223981Y0080242D01*
X0223997Y0080265D01*
X0224016Y0080284D01*
X0224038Y0080301D01*
X0224062Y0080315D01*
X0224087Y0080325D01*
X0224114Y0080332D01*
X0224141Y0080335D01*
X0224169Y0080334D01*
X0224196Y0080329D01*
X0224222Y0080321D01*
X0224246Y0080309D01*
X0224269Y0080293D01*
X0224290Y0080275D01*
X0224307Y0080254D01*
X0224322Y0080230D01*
X0224333Y0080205D01*
X0224341Y0080179D01*
X0224345Y0080152D01*
X0224345Y0080124D01*
X0224341Y0080097D01*
X0224333Y0080071D01*
X0224322Y0080046D01*
X0224307Y0080022D01*
X0224290Y0080001D01*
X0224269Y0079983D01*
X0224247Y0079967D01*
X0224222Y0079955D01*
X0224196Y0079947D01*
X0224169Y0079942D01*
X0224141Y0079941D01*
X0224114Y0079944D01*
X0224087Y0079951D01*
X0224062Y0079961D01*
X0224038Y0079975D01*
X0224016Y0079992D01*
X0223997Y0080011D01*
X0223981Y0080034D01*
X0223968Y0080058D01*
X0223959Y0080084D01*
X0223953Y0080111D01*
X0223951Y0080138D01*
X0234659Y0092657D02*
X0234659Y0100846D01*
D17*
X0241380Y0084969D02*
X0219120Y0084969D01*
X0219120Y0068220D01*
X0241380Y0068220D01*
X0241380Y0084969D01*
D18*
X0159778Y0101535D02*
X0159778Y0063504D01*
X0096785Y0063504D01*
X0096785Y0101535D01*
X0159778Y0101535D01*
X0140654Y0182785D02*
X0067819Y0182785D01*
X0067819Y0235935D01*
X0140654Y0235935D01*
X0140654Y0182785D01*
D19*
X0100172Y0067795D02*
X0100174Y0067857D01*
X0100180Y0067920D01*
X0100190Y0067981D01*
X0100204Y0068042D01*
X0100221Y0068102D01*
X0100242Y0068161D01*
X0100268Y0068218D01*
X0100296Y0068273D01*
X0100328Y0068327D01*
X0100364Y0068378D01*
X0100402Y0068428D01*
X0100444Y0068474D01*
X0100488Y0068518D01*
X0100536Y0068559D01*
X0100585Y0068597D01*
X0100637Y0068631D01*
X0100691Y0068662D01*
X0100747Y0068690D01*
X0100805Y0068714D01*
X0100864Y0068735D01*
X0100924Y0068751D01*
X0100985Y0068764D01*
X0101047Y0068773D01*
X0101109Y0068778D01*
X0101172Y0068779D01*
X0101234Y0068776D01*
X0101296Y0068769D01*
X0101358Y0068758D01*
X0101418Y0068743D01*
X0101478Y0068725D01*
X0101536Y0068703D01*
X0101593Y0068677D01*
X0101648Y0068647D01*
X0101701Y0068614D01*
X0101752Y0068578D01*
X0101800Y0068539D01*
X0101846Y0068496D01*
X0101889Y0068451D01*
X0101929Y0068403D01*
X0101966Y0068353D01*
X0102000Y0068300D01*
X0102031Y0068246D01*
X0102057Y0068190D01*
X0102081Y0068132D01*
X0102100Y0068072D01*
X0102116Y0068012D01*
X0102128Y0067950D01*
X0102136Y0067889D01*
X0102140Y0067826D01*
X0102140Y0067764D01*
X0102136Y0067701D01*
X0102128Y0067640D01*
X0102116Y0067578D01*
X0102100Y0067518D01*
X0102081Y0067458D01*
X0102057Y0067400D01*
X0102031Y0067344D01*
X0102000Y0067290D01*
X0101966Y0067237D01*
X0101929Y0067187D01*
X0101889Y0067139D01*
X0101846Y0067094D01*
X0101800Y0067051D01*
X0101752Y0067012D01*
X0101701Y0066976D01*
X0101648Y0066943D01*
X0101593Y0066913D01*
X0101536Y0066887D01*
X0101478Y0066865D01*
X0101418Y0066847D01*
X0101358Y0066832D01*
X0101296Y0066821D01*
X0101234Y0066814D01*
X0101172Y0066811D01*
X0101109Y0066812D01*
X0101047Y0066817D01*
X0100985Y0066826D01*
X0100924Y0066839D01*
X0100864Y0066855D01*
X0100805Y0066876D01*
X0100747Y0066900D01*
X0100691Y0066928D01*
X0100637Y0066959D01*
X0100585Y0066993D01*
X0100536Y0067031D01*
X0100488Y0067072D01*
X0100444Y0067116D01*
X0100402Y0067162D01*
X0100364Y0067212D01*
X0100328Y0067263D01*
X0100296Y0067317D01*
X0100268Y0067372D01*
X0100242Y0067429D01*
X0100221Y0067488D01*
X0100204Y0067548D01*
X0100190Y0067609D01*
X0100180Y0067670D01*
X0100174Y0067733D01*
X0100172Y0067795D01*
D20*
X0134758Y0024724D02*
X0134758Y0005477D01*
X0148242Y0005477D02*
X0148242Y0024724D01*
X0134758Y0024724D01*
X0232800Y0126594D02*
X0232802Y0126663D01*
X0232808Y0126731D01*
X0232818Y0126799D01*
X0232831Y0126866D01*
X0232849Y0126932D01*
X0232870Y0126997D01*
X0232895Y0127061D01*
X0232923Y0127123D01*
X0232955Y0127184D01*
X0232990Y0127243D01*
X0233029Y0127299D01*
X0233071Y0127354D01*
X0233116Y0127405D01*
X0233164Y0127455D01*
X0233214Y0127501D01*
X0233267Y0127544D01*
X0233323Y0127585D01*
X0233380Y0127622D01*
X0233440Y0127655D01*
X0233502Y0127686D01*
X0233565Y0127712D01*
X0233629Y0127735D01*
X0233695Y0127755D01*
X0233762Y0127770D01*
X0233829Y0127782D01*
X0233897Y0127790D01*
X0233966Y0127794D01*
X0234034Y0127794D01*
X0234103Y0127790D01*
X0234171Y0127782D01*
X0234238Y0127770D01*
X0234305Y0127755D01*
X0234371Y0127735D01*
X0234435Y0127712D01*
X0234498Y0127686D01*
X0234560Y0127655D01*
X0234620Y0127622D01*
X0234677Y0127585D01*
X0234733Y0127544D01*
X0234786Y0127501D01*
X0234836Y0127455D01*
X0234884Y0127405D01*
X0234929Y0127354D01*
X0234971Y0127299D01*
X0235010Y0127243D01*
X0235045Y0127184D01*
X0235077Y0127123D01*
X0235105Y0127061D01*
X0235130Y0126997D01*
X0235151Y0126932D01*
X0235169Y0126866D01*
X0235182Y0126799D01*
X0235192Y0126731D01*
X0235198Y0126663D01*
X0235200Y0126594D01*
X0235200Y0156594D02*
X0235198Y0156663D01*
X0235192Y0156731D01*
X0235182Y0156799D01*
X0235169Y0156866D01*
X0235151Y0156932D01*
X0235130Y0156997D01*
X0235105Y0157061D01*
X0235077Y0157123D01*
X0235045Y0157184D01*
X0235010Y0157243D01*
X0234971Y0157299D01*
X0234929Y0157354D01*
X0234884Y0157405D01*
X0234836Y0157455D01*
X0234786Y0157501D01*
X0234733Y0157544D01*
X0234677Y0157585D01*
X0234620Y0157622D01*
X0234560Y0157655D01*
X0234498Y0157686D01*
X0234435Y0157712D01*
X0234371Y0157735D01*
X0234305Y0157755D01*
X0234238Y0157770D01*
X0234171Y0157782D01*
X0234103Y0157790D01*
X0234034Y0157794D01*
X0233966Y0157794D01*
X0233897Y0157790D01*
X0233829Y0157782D01*
X0233762Y0157770D01*
X0233695Y0157755D01*
X0233629Y0157735D01*
X0233565Y0157712D01*
X0233502Y0157686D01*
X0233440Y0157655D01*
X0233380Y0157622D01*
X0233323Y0157585D01*
X0233267Y0157544D01*
X0233214Y0157501D01*
X0233164Y0157455D01*
X0233116Y0157405D01*
X0233071Y0157354D01*
X0233029Y0157299D01*
X0232990Y0157243D01*
X0232955Y0157184D01*
X0232923Y0157123D01*
X0232895Y0157061D01*
X0232870Y0156997D01*
X0232849Y0156932D01*
X0232831Y0156866D01*
X0232818Y0156799D01*
X0232808Y0156731D01*
X0232802Y0156663D01*
X0232800Y0156594D01*
X0179000Y0140294D02*
X0178931Y0140292D01*
X0178863Y0140286D01*
X0178795Y0140276D01*
X0178728Y0140263D01*
X0178662Y0140245D01*
X0178597Y0140224D01*
X0178533Y0140199D01*
X0178471Y0140171D01*
X0178410Y0140139D01*
X0178351Y0140104D01*
X0178295Y0140065D01*
X0178240Y0140023D01*
X0178189Y0139978D01*
X0178139Y0139930D01*
X0178093Y0139880D01*
X0178050Y0139827D01*
X0178009Y0139771D01*
X0177972Y0139714D01*
X0177939Y0139654D01*
X0177908Y0139592D01*
X0177882Y0139529D01*
X0177859Y0139465D01*
X0177839Y0139399D01*
X0177824Y0139332D01*
X0177812Y0139265D01*
X0177804Y0139197D01*
X0177800Y0139128D01*
X0177800Y0139060D01*
X0177804Y0138991D01*
X0177812Y0138923D01*
X0177824Y0138856D01*
X0177839Y0138789D01*
X0177859Y0138723D01*
X0177882Y0138659D01*
X0177908Y0138596D01*
X0177939Y0138534D01*
X0177972Y0138474D01*
X0178009Y0138417D01*
X0178050Y0138361D01*
X0178093Y0138308D01*
X0178139Y0138258D01*
X0178189Y0138210D01*
X0178240Y0138165D01*
X0178295Y0138123D01*
X0178351Y0138084D01*
X0178410Y0138049D01*
X0178471Y0138017D01*
X0178533Y0137989D01*
X0178597Y0137964D01*
X0178662Y0137943D01*
X0178728Y0137925D01*
X0178795Y0137912D01*
X0178863Y0137902D01*
X0178931Y0137896D01*
X0179000Y0137894D01*
X0134000Y0137894D02*
X0134069Y0137896D01*
X0134137Y0137902D01*
X0134205Y0137912D01*
X0134272Y0137925D01*
X0134338Y0137943D01*
X0134403Y0137964D01*
X0134467Y0137989D01*
X0134529Y0138017D01*
X0134590Y0138049D01*
X0134649Y0138084D01*
X0134705Y0138123D01*
X0134760Y0138165D01*
X0134811Y0138210D01*
X0134861Y0138258D01*
X0134907Y0138308D01*
X0134950Y0138361D01*
X0134991Y0138417D01*
X0135028Y0138474D01*
X0135061Y0138534D01*
X0135092Y0138596D01*
X0135118Y0138659D01*
X0135141Y0138723D01*
X0135161Y0138789D01*
X0135176Y0138856D01*
X0135188Y0138923D01*
X0135196Y0138991D01*
X0135200Y0139060D01*
X0135200Y0139128D01*
X0135196Y0139197D01*
X0135188Y0139265D01*
X0135176Y0139332D01*
X0135161Y0139399D01*
X0135141Y0139465D01*
X0135118Y0139529D01*
X0135092Y0139592D01*
X0135061Y0139654D01*
X0135028Y0139714D01*
X0134991Y0139771D01*
X0134950Y0139827D01*
X0134907Y0139880D01*
X0134861Y0139930D01*
X0134811Y0139978D01*
X0134760Y0140023D01*
X0134705Y0140065D01*
X0134649Y0140104D01*
X0134590Y0140139D01*
X0134529Y0140171D01*
X0134467Y0140199D01*
X0134403Y0140224D01*
X0134338Y0140245D01*
X0134272Y0140263D01*
X0134205Y0140276D01*
X0134137Y0140286D01*
X0134069Y0140292D01*
X0134000Y0140294D01*
X0115250Y0139044D02*
X0115181Y0139042D01*
X0115113Y0139036D01*
X0115045Y0139026D01*
X0114978Y0139013D01*
X0114912Y0138995D01*
X0114847Y0138974D01*
X0114783Y0138949D01*
X0114721Y0138921D01*
X0114660Y0138889D01*
X0114601Y0138854D01*
X0114545Y0138815D01*
X0114490Y0138773D01*
X0114439Y0138728D01*
X0114389Y0138680D01*
X0114343Y0138630D01*
X0114300Y0138577D01*
X0114259Y0138521D01*
X0114222Y0138464D01*
X0114189Y0138404D01*
X0114158Y0138342D01*
X0114132Y0138279D01*
X0114109Y0138215D01*
X0114089Y0138149D01*
X0114074Y0138082D01*
X0114062Y0138015D01*
X0114054Y0137947D01*
X0114050Y0137878D01*
X0114050Y0137810D01*
X0114054Y0137741D01*
X0114062Y0137673D01*
X0114074Y0137606D01*
X0114089Y0137539D01*
X0114109Y0137473D01*
X0114132Y0137409D01*
X0114158Y0137346D01*
X0114189Y0137284D01*
X0114222Y0137224D01*
X0114259Y0137167D01*
X0114300Y0137111D01*
X0114343Y0137058D01*
X0114389Y0137008D01*
X0114439Y0136960D01*
X0114490Y0136915D01*
X0114545Y0136873D01*
X0114601Y0136834D01*
X0114660Y0136799D01*
X0114721Y0136767D01*
X0114783Y0136739D01*
X0114847Y0136714D01*
X0114912Y0136693D01*
X0114978Y0136675D01*
X0115045Y0136662D01*
X0115113Y0136652D01*
X0115181Y0136646D01*
X0115250Y0136644D01*
D21*
X0075493Y0184954D02*
X0070889Y0184954D01*
X0073191Y0184954D02*
X0073191Y0188023D01*
X0070889Y0188023D02*
X0075493Y0188023D01*
X0075493Y0189558D02*
X0070889Y0189558D01*
X0072424Y0191092D01*
X0070889Y0192627D01*
X0075493Y0192627D01*
X0073191Y0194162D02*
X0073191Y0197231D01*
X0072424Y0198766D02*
X0070889Y0200300D01*
X0075493Y0200300D01*
X0075493Y0198766D02*
X0075493Y0201835D01*
X0075493Y0203370D02*
X0075493Y0206439D01*
X0075493Y0204904D02*
X0070889Y0204904D01*
X0072424Y0203370D01*
M02*
