G75*
%MOIN*%
%OFA0B0*%
%FSLAX25Y25*%
%IPPOS*%
%LPD*%
%AMOC8*
5,1,8,0,0,1.08239X$1,22.5*
%
%ADD10C,0.01000*%
%ADD11C,0.00000*%
%ADD12C,0.12598*%
%ADD13R,0.03937X0.04331*%
%ADD14R,0.05906X0.05906*%
%ADD15R,0.04331X0.03937*%
%ADD16R,0.03937X0.07087*%
%ADD17C,0.00236*%
%ADD18OC8,0.06000*%
%ADD19C,0.06000*%
%ADD20R,0.02165X0.04724*%
%ADD21R,0.03150X0.07087*%
%ADD22R,0.07874X0.06299*%
%ADD23R,0.03150X0.03150*%
%ADD24C,0.07400*%
%ADD25R,0.05800X0.01400*%
%ADD26R,0.05512X0.11713*%
%ADD27R,0.05748X0.11713*%
%ADD28R,0.02992X0.18504*%
%ADD29R,0.03543X0.09449*%
%ADD30R,0.07087X0.13386*%
%ADD31R,0.05118X0.13780*%
%ADD32R,0.01000X0.04200*%
%ADD33R,0.01400X0.05800*%
%ADD34C,0.06000*%
%ADD35C,0.07087*%
%ADD36C,0.09449*%
%ADD37C,0.05315*%
%ADD38R,0.02200X0.07800*%
%ADD39R,0.07800X0.02200*%
D10*
X0001500Y0076500D02*
X0001500Y0390250D01*
X0085250Y0390250D01*
X0085250Y0076500D01*
X0001500Y0076500D01*
X0089000Y0076500D02*
X0089000Y0390250D01*
X0172750Y0390250D01*
X0172750Y0076500D01*
X0089000Y0076500D01*
X0176500Y0135250D02*
X0181500Y0130250D01*
X0186500Y0130250D01*
X0196500Y0120250D01*
X0382750Y0120250D01*
X0386500Y0124000D01*
X0386500Y0386500D01*
X0382750Y0390250D01*
X0230250Y0390250D01*
X0226500Y0386500D01*
X0226500Y0365250D01*
X0221500Y0360250D01*
X0181500Y0360250D01*
X0176500Y0355250D01*
X0176500Y0135250D01*
X0191500Y0111500D02*
X0191500Y0059000D01*
X0191698Y0058998D01*
X0191896Y0058990D01*
X0192093Y0058978D01*
X0192290Y0058961D01*
X0192487Y0058940D01*
X0192683Y0058913D01*
X0192878Y0058882D01*
X0193073Y0058846D01*
X0193267Y0058806D01*
X0193459Y0058760D01*
X0193651Y0058710D01*
X0193841Y0058656D01*
X0194030Y0058596D01*
X0194217Y0058532D01*
X0194403Y0058464D01*
X0194586Y0058391D01*
X0194769Y0058314D01*
X0194949Y0058232D01*
X0195127Y0058146D01*
X0195303Y0058055D01*
X0195477Y0057960D01*
X0195648Y0057861D01*
X0195817Y0057758D01*
X0195983Y0057651D01*
X0196147Y0057540D01*
X0196308Y0057425D01*
X0196466Y0057306D01*
X0196621Y0057183D01*
X0196773Y0057057D01*
X0196922Y0056926D01*
X0197068Y0056792D01*
X0197210Y0056655D01*
X0197349Y0056514D01*
X0197485Y0056370D01*
X0197617Y0056223D01*
X0197745Y0056072D01*
X0197870Y0055919D01*
X0197991Y0055762D01*
X0198108Y0055603D01*
X0198221Y0055440D01*
X0198330Y0055275D01*
X0198435Y0055108D01*
X0198536Y0054938D01*
X0198633Y0054765D01*
X0198726Y0054590D01*
X0198814Y0054413D01*
X0198898Y0054234D01*
X0198978Y0054053D01*
X0199053Y0053870D01*
X0199124Y0053685D01*
X0199190Y0053498D01*
X0199251Y0053310D01*
X0199308Y0053121D01*
X0199361Y0052930D01*
X0199409Y0052738D01*
X0199452Y0052545D01*
X0199490Y0052351D01*
X0199523Y0052156D01*
X0199552Y0051960D01*
X0199576Y0051764D01*
X0199596Y0051567D01*
X0199610Y0051369D01*
X0199620Y0051172D01*
X0199624Y0050974D01*
X0199624Y0050776D01*
X0199620Y0050578D01*
X0199610Y0050381D01*
X0199596Y0050183D01*
X0199576Y0049986D01*
X0199552Y0049790D01*
X0199523Y0049594D01*
X0199490Y0049399D01*
X0199452Y0049205D01*
X0199409Y0049012D01*
X0199361Y0048820D01*
X0199308Y0048629D01*
X0199251Y0048440D01*
X0199190Y0048252D01*
X0199124Y0048065D01*
X0199053Y0047880D01*
X0198978Y0047697D01*
X0198898Y0047516D01*
X0198814Y0047337D01*
X0198726Y0047160D01*
X0198633Y0046985D01*
X0198536Y0046813D01*
X0198435Y0046642D01*
X0198330Y0046475D01*
X0198221Y0046310D01*
X0198108Y0046147D01*
X0197991Y0045988D01*
X0197870Y0045831D01*
X0197745Y0045678D01*
X0197617Y0045527D01*
X0197485Y0045380D01*
X0197349Y0045236D01*
X0197210Y0045095D01*
X0197068Y0044958D01*
X0196922Y0044824D01*
X0196773Y0044693D01*
X0196621Y0044567D01*
X0196466Y0044444D01*
X0196308Y0044325D01*
X0196147Y0044210D01*
X0195983Y0044099D01*
X0195817Y0043992D01*
X0195648Y0043889D01*
X0195477Y0043790D01*
X0195303Y0043695D01*
X0195127Y0043604D01*
X0194949Y0043518D01*
X0194769Y0043436D01*
X0194586Y0043359D01*
X0194403Y0043286D01*
X0194217Y0043218D01*
X0194030Y0043154D01*
X0193841Y0043094D01*
X0193651Y0043040D01*
X0193459Y0042990D01*
X0193267Y0042944D01*
X0193073Y0042904D01*
X0192878Y0042868D01*
X0192683Y0042837D01*
X0192487Y0042810D01*
X0192290Y0042789D01*
X0192093Y0042772D01*
X0191896Y0042760D01*
X0191698Y0042752D01*
X0191500Y0042750D01*
X0191500Y0001500D01*
X0254000Y0001500D01*
X0254000Y0042750D01*
X0257750Y0042750D02*
X0257750Y0001500D01*
X0320250Y0001500D01*
X0320250Y0042750D01*
X0324000Y0042750D02*
X0324000Y0001500D01*
X0386500Y0001500D01*
X0386500Y0042750D01*
X0386302Y0042752D01*
X0386104Y0042760D01*
X0385907Y0042772D01*
X0385710Y0042789D01*
X0385513Y0042810D01*
X0385317Y0042837D01*
X0385122Y0042868D01*
X0384927Y0042904D01*
X0384733Y0042944D01*
X0384541Y0042990D01*
X0384349Y0043040D01*
X0384159Y0043094D01*
X0383970Y0043154D01*
X0383783Y0043218D01*
X0383597Y0043286D01*
X0383414Y0043359D01*
X0383231Y0043436D01*
X0383051Y0043518D01*
X0382873Y0043604D01*
X0382697Y0043695D01*
X0382523Y0043790D01*
X0382352Y0043889D01*
X0382183Y0043992D01*
X0382017Y0044099D01*
X0381853Y0044210D01*
X0381692Y0044325D01*
X0381534Y0044444D01*
X0381379Y0044567D01*
X0381227Y0044693D01*
X0381078Y0044824D01*
X0380932Y0044958D01*
X0380790Y0045095D01*
X0380651Y0045236D01*
X0380515Y0045380D01*
X0380383Y0045527D01*
X0380255Y0045678D01*
X0380130Y0045831D01*
X0380009Y0045988D01*
X0379892Y0046147D01*
X0379779Y0046310D01*
X0379670Y0046475D01*
X0379565Y0046642D01*
X0379464Y0046812D01*
X0379367Y0046985D01*
X0379274Y0047160D01*
X0379186Y0047337D01*
X0379102Y0047516D01*
X0379022Y0047697D01*
X0378947Y0047880D01*
X0378876Y0048065D01*
X0378810Y0048252D01*
X0378749Y0048440D01*
X0378692Y0048629D01*
X0378639Y0048820D01*
X0378591Y0049012D01*
X0378548Y0049205D01*
X0378510Y0049399D01*
X0378477Y0049594D01*
X0378448Y0049790D01*
X0378424Y0049986D01*
X0378404Y0050183D01*
X0378390Y0050381D01*
X0378380Y0050578D01*
X0378376Y0050776D01*
X0378376Y0050974D01*
X0378380Y0051172D01*
X0378390Y0051369D01*
X0378404Y0051567D01*
X0378424Y0051764D01*
X0378448Y0051960D01*
X0378477Y0052156D01*
X0378510Y0052351D01*
X0378548Y0052545D01*
X0378591Y0052738D01*
X0378639Y0052930D01*
X0378692Y0053121D01*
X0378749Y0053310D01*
X0378810Y0053498D01*
X0378876Y0053685D01*
X0378947Y0053870D01*
X0379022Y0054053D01*
X0379102Y0054234D01*
X0379186Y0054413D01*
X0379274Y0054590D01*
X0379367Y0054765D01*
X0379464Y0054937D01*
X0379565Y0055108D01*
X0379670Y0055275D01*
X0379779Y0055440D01*
X0379892Y0055603D01*
X0380009Y0055762D01*
X0380130Y0055919D01*
X0380255Y0056072D01*
X0380383Y0056223D01*
X0380515Y0056370D01*
X0380651Y0056514D01*
X0380790Y0056655D01*
X0380932Y0056792D01*
X0381078Y0056926D01*
X0381227Y0057057D01*
X0381379Y0057183D01*
X0381534Y0057306D01*
X0381692Y0057425D01*
X0381853Y0057540D01*
X0382017Y0057651D01*
X0382183Y0057758D01*
X0382352Y0057861D01*
X0382523Y0057960D01*
X0382697Y0058055D01*
X0382873Y0058146D01*
X0383051Y0058232D01*
X0383231Y0058314D01*
X0383414Y0058391D01*
X0383597Y0058464D01*
X0383783Y0058532D01*
X0383970Y0058596D01*
X0384159Y0058656D01*
X0384349Y0058710D01*
X0384541Y0058760D01*
X0384733Y0058806D01*
X0384927Y0058846D01*
X0385122Y0058882D01*
X0385317Y0058913D01*
X0385513Y0058940D01*
X0385710Y0058961D01*
X0385907Y0058978D01*
X0386104Y0058990D01*
X0386302Y0058998D01*
X0386500Y0059000D01*
X0386500Y0111500D01*
X0324000Y0111500D01*
X0324000Y0059000D01*
X0320250Y0059000D02*
X0320250Y0111500D01*
X0257750Y0111500D01*
X0257750Y0059000D01*
X0254000Y0059000D02*
X0254000Y0111500D01*
X0191500Y0111500D01*
X0254000Y0059000D02*
X0253802Y0058998D01*
X0253604Y0058990D01*
X0253407Y0058978D01*
X0253210Y0058961D01*
X0253013Y0058940D01*
X0252817Y0058913D01*
X0252622Y0058882D01*
X0252427Y0058846D01*
X0252233Y0058806D01*
X0252041Y0058760D01*
X0251849Y0058710D01*
X0251659Y0058656D01*
X0251470Y0058596D01*
X0251283Y0058532D01*
X0251097Y0058464D01*
X0250914Y0058391D01*
X0250731Y0058314D01*
X0250551Y0058232D01*
X0250373Y0058146D01*
X0250197Y0058055D01*
X0250023Y0057960D01*
X0249852Y0057861D01*
X0249683Y0057758D01*
X0249517Y0057651D01*
X0249353Y0057540D01*
X0249192Y0057425D01*
X0249034Y0057306D01*
X0248879Y0057183D01*
X0248727Y0057057D01*
X0248578Y0056926D01*
X0248432Y0056792D01*
X0248290Y0056655D01*
X0248151Y0056514D01*
X0248015Y0056370D01*
X0247883Y0056223D01*
X0247755Y0056072D01*
X0247630Y0055919D01*
X0247509Y0055762D01*
X0247392Y0055603D01*
X0247279Y0055440D01*
X0247170Y0055275D01*
X0247065Y0055108D01*
X0246964Y0054937D01*
X0246867Y0054765D01*
X0246774Y0054590D01*
X0246686Y0054413D01*
X0246602Y0054234D01*
X0246522Y0054053D01*
X0246447Y0053870D01*
X0246376Y0053685D01*
X0246310Y0053498D01*
X0246249Y0053310D01*
X0246192Y0053121D01*
X0246139Y0052930D01*
X0246091Y0052738D01*
X0246048Y0052545D01*
X0246010Y0052351D01*
X0245977Y0052156D01*
X0245948Y0051960D01*
X0245924Y0051764D01*
X0245904Y0051567D01*
X0245890Y0051369D01*
X0245880Y0051172D01*
X0245876Y0050974D01*
X0245876Y0050776D01*
X0245880Y0050578D01*
X0245890Y0050381D01*
X0245904Y0050183D01*
X0245924Y0049986D01*
X0245948Y0049790D01*
X0245977Y0049594D01*
X0246010Y0049399D01*
X0246048Y0049205D01*
X0246091Y0049012D01*
X0246139Y0048820D01*
X0246192Y0048629D01*
X0246249Y0048440D01*
X0246310Y0048252D01*
X0246376Y0048065D01*
X0246447Y0047880D01*
X0246522Y0047697D01*
X0246602Y0047516D01*
X0246686Y0047337D01*
X0246774Y0047160D01*
X0246867Y0046985D01*
X0246964Y0046812D01*
X0247065Y0046642D01*
X0247170Y0046475D01*
X0247279Y0046310D01*
X0247392Y0046147D01*
X0247509Y0045988D01*
X0247630Y0045831D01*
X0247755Y0045678D01*
X0247883Y0045527D01*
X0248015Y0045380D01*
X0248151Y0045236D01*
X0248290Y0045095D01*
X0248432Y0044958D01*
X0248578Y0044824D01*
X0248727Y0044693D01*
X0248879Y0044567D01*
X0249034Y0044444D01*
X0249192Y0044325D01*
X0249353Y0044210D01*
X0249517Y0044099D01*
X0249683Y0043992D01*
X0249852Y0043889D01*
X0250023Y0043790D01*
X0250197Y0043695D01*
X0250373Y0043604D01*
X0250551Y0043518D01*
X0250731Y0043436D01*
X0250914Y0043359D01*
X0251097Y0043286D01*
X0251283Y0043218D01*
X0251470Y0043154D01*
X0251659Y0043094D01*
X0251849Y0043040D01*
X0252041Y0042990D01*
X0252233Y0042944D01*
X0252427Y0042904D01*
X0252622Y0042868D01*
X0252817Y0042837D01*
X0253013Y0042810D01*
X0253210Y0042789D01*
X0253407Y0042772D01*
X0253604Y0042760D01*
X0253802Y0042752D01*
X0254000Y0042750D01*
X0257750Y0042750D02*
X0257948Y0042752D01*
X0258146Y0042760D01*
X0258343Y0042772D01*
X0258540Y0042789D01*
X0258737Y0042810D01*
X0258933Y0042837D01*
X0259128Y0042868D01*
X0259323Y0042904D01*
X0259517Y0042944D01*
X0259709Y0042990D01*
X0259901Y0043040D01*
X0260091Y0043094D01*
X0260280Y0043154D01*
X0260467Y0043218D01*
X0260653Y0043286D01*
X0260836Y0043359D01*
X0261019Y0043436D01*
X0261199Y0043518D01*
X0261377Y0043604D01*
X0261553Y0043695D01*
X0261727Y0043790D01*
X0261898Y0043889D01*
X0262067Y0043992D01*
X0262233Y0044099D01*
X0262397Y0044210D01*
X0262558Y0044325D01*
X0262716Y0044444D01*
X0262871Y0044567D01*
X0263023Y0044693D01*
X0263172Y0044824D01*
X0263318Y0044958D01*
X0263460Y0045095D01*
X0263599Y0045236D01*
X0263735Y0045380D01*
X0263867Y0045527D01*
X0263995Y0045678D01*
X0264120Y0045831D01*
X0264241Y0045988D01*
X0264358Y0046147D01*
X0264471Y0046310D01*
X0264580Y0046475D01*
X0264685Y0046642D01*
X0264786Y0046813D01*
X0264883Y0046985D01*
X0264976Y0047160D01*
X0265064Y0047337D01*
X0265148Y0047516D01*
X0265228Y0047697D01*
X0265303Y0047880D01*
X0265374Y0048065D01*
X0265440Y0048252D01*
X0265501Y0048440D01*
X0265558Y0048629D01*
X0265611Y0048820D01*
X0265659Y0049012D01*
X0265702Y0049205D01*
X0265740Y0049399D01*
X0265773Y0049594D01*
X0265802Y0049790D01*
X0265826Y0049986D01*
X0265846Y0050183D01*
X0265860Y0050381D01*
X0265870Y0050578D01*
X0265874Y0050776D01*
X0265874Y0050974D01*
X0265870Y0051172D01*
X0265860Y0051369D01*
X0265846Y0051567D01*
X0265826Y0051764D01*
X0265802Y0051960D01*
X0265773Y0052156D01*
X0265740Y0052351D01*
X0265702Y0052545D01*
X0265659Y0052738D01*
X0265611Y0052930D01*
X0265558Y0053121D01*
X0265501Y0053310D01*
X0265440Y0053498D01*
X0265374Y0053685D01*
X0265303Y0053870D01*
X0265228Y0054053D01*
X0265148Y0054234D01*
X0265064Y0054413D01*
X0264976Y0054590D01*
X0264883Y0054765D01*
X0264786Y0054938D01*
X0264685Y0055108D01*
X0264580Y0055275D01*
X0264471Y0055440D01*
X0264358Y0055603D01*
X0264241Y0055762D01*
X0264120Y0055919D01*
X0263995Y0056072D01*
X0263867Y0056223D01*
X0263735Y0056370D01*
X0263599Y0056514D01*
X0263460Y0056655D01*
X0263318Y0056792D01*
X0263172Y0056926D01*
X0263023Y0057057D01*
X0262871Y0057183D01*
X0262716Y0057306D01*
X0262558Y0057425D01*
X0262397Y0057540D01*
X0262233Y0057651D01*
X0262067Y0057758D01*
X0261898Y0057861D01*
X0261727Y0057960D01*
X0261553Y0058055D01*
X0261377Y0058146D01*
X0261199Y0058232D01*
X0261019Y0058314D01*
X0260836Y0058391D01*
X0260653Y0058464D01*
X0260467Y0058532D01*
X0260280Y0058596D01*
X0260091Y0058656D01*
X0259901Y0058710D01*
X0259709Y0058760D01*
X0259517Y0058806D01*
X0259323Y0058846D01*
X0259128Y0058882D01*
X0258933Y0058913D01*
X0258737Y0058940D01*
X0258540Y0058961D01*
X0258343Y0058978D01*
X0258146Y0058990D01*
X0257948Y0058998D01*
X0257750Y0059000D01*
X0320250Y0059000D02*
X0320052Y0058998D01*
X0319854Y0058990D01*
X0319657Y0058978D01*
X0319460Y0058961D01*
X0319263Y0058940D01*
X0319067Y0058913D01*
X0318872Y0058882D01*
X0318677Y0058846D01*
X0318483Y0058806D01*
X0318291Y0058760D01*
X0318099Y0058710D01*
X0317909Y0058656D01*
X0317720Y0058596D01*
X0317533Y0058532D01*
X0317347Y0058464D01*
X0317164Y0058391D01*
X0316981Y0058314D01*
X0316801Y0058232D01*
X0316623Y0058146D01*
X0316447Y0058055D01*
X0316273Y0057960D01*
X0316102Y0057861D01*
X0315933Y0057758D01*
X0315767Y0057651D01*
X0315603Y0057540D01*
X0315442Y0057425D01*
X0315284Y0057306D01*
X0315129Y0057183D01*
X0314977Y0057057D01*
X0314828Y0056926D01*
X0314682Y0056792D01*
X0314540Y0056655D01*
X0314401Y0056514D01*
X0314265Y0056370D01*
X0314133Y0056223D01*
X0314005Y0056072D01*
X0313880Y0055919D01*
X0313759Y0055762D01*
X0313642Y0055603D01*
X0313529Y0055440D01*
X0313420Y0055275D01*
X0313315Y0055108D01*
X0313214Y0054937D01*
X0313117Y0054765D01*
X0313024Y0054590D01*
X0312936Y0054413D01*
X0312852Y0054234D01*
X0312772Y0054053D01*
X0312697Y0053870D01*
X0312626Y0053685D01*
X0312560Y0053498D01*
X0312499Y0053310D01*
X0312442Y0053121D01*
X0312389Y0052930D01*
X0312341Y0052738D01*
X0312298Y0052545D01*
X0312260Y0052351D01*
X0312227Y0052156D01*
X0312198Y0051960D01*
X0312174Y0051764D01*
X0312154Y0051567D01*
X0312140Y0051369D01*
X0312130Y0051172D01*
X0312126Y0050974D01*
X0312126Y0050776D01*
X0312130Y0050578D01*
X0312140Y0050381D01*
X0312154Y0050183D01*
X0312174Y0049986D01*
X0312198Y0049790D01*
X0312227Y0049594D01*
X0312260Y0049399D01*
X0312298Y0049205D01*
X0312341Y0049012D01*
X0312389Y0048820D01*
X0312442Y0048629D01*
X0312499Y0048440D01*
X0312560Y0048252D01*
X0312626Y0048065D01*
X0312697Y0047880D01*
X0312772Y0047697D01*
X0312852Y0047516D01*
X0312936Y0047337D01*
X0313024Y0047160D01*
X0313117Y0046985D01*
X0313214Y0046812D01*
X0313315Y0046642D01*
X0313420Y0046475D01*
X0313529Y0046310D01*
X0313642Y0046147D01*
X0313759Y0045988D01*
X0313880Y0045831D01*
X0314005Y0045678D01*
X0314133Y0045527D01*
X0314265Y0045380D01*
X0314401Y0045236D01*
X0314540Y0045095D01*
X0314682Y0044958D01*
X0314828Y0044824D01*
X0314977Y0044693D01*
X0315129Y0044567D01*
X0315284Y0044444D01*
X0315442Y0044325D01*
X0315603Y0044210D01*
X0315767Y0044099D01*
X0315933Y0043992D01*
X0316102Y0043889D01*
X0316273Y0043790D01*
X0316447Y0043695D01*
X0316623Y0043604D01*
X0316801Y0043518D01*
X0316981Y0043436D01*
X0317164Y0043359D01*
X0317347Y0043286D01*
X0317533Y0043218D01*
X0317720Y0043154D01*
X0317909Y0043094D01*
X0318099Y0043040D01*
X0318291Y0042990D01*
X0318483Y0042944D01*
X0318677Y0042904D01*
X0318872Y0042868D01*
X0319067Y0042837D01*
X0319263Y0042810D01*
X0319460Y0042789D01*
X0319657Y0042772D01*
X0319854Y0042760D01*
X0320052Y0042752D01*
X0320250Y0042750D01*
X0324000Y0042750D02*
X0324198Y0042752D01*
X0324396Y0042760D01*
X0324593Y0042772D01*
X0324790Y0042789D01*
X0324987Y0042810D01*
X0325183Y0042837D01*
X0325378Y0042868D01*
X0325573Y0042904D01*
X0325767Y0042944D01*
X0325959Y0042990D01*
X0326151Y0043040D01*
X0326341Y0043094D01*
X0326530Y0043154D01*
X0326717Y0043218D01*
X0326903Y0043286D01*
X0327086Y0043359D01*
X0327269Y0043436D01*
X0327449Y0043518D01*
X0327627Y0043604D01*
X0327803Y0043695D01*
X0327977Y0043790D01*
X0328148Y0043889D01*
X0328317Y0043992D01*
X0328483Y0044099D01*
X0328647Y0044210D01*
X0328808Y0044325D01*
X0328966Y0044444D01*
X0329121Y0044567D01*
X0329273Y0044693D01*
X0329422Y0044824D01*
X0329568Y0044958D01*
X0329710Y0045095D01*
X0329849Y0045236D01*
X0329985Y0045380D01*
X0330117Y0045527D01*
X0330245Y0045678D01*
X0330370Y0045831D01*
X0330491Y0045988D01*
X0330608Y0046147D01*
X0330721Y0046310D01*
X0330830Y0046475D01*
X0330935Y0046642D01*
X0331036Y0046813D01*
X0331133Y0046985D01*
X0331226Y0047160D01*
X0331314Y0047337D01*
X0331398Y0047516D01*
X0331478Y0047697D01*
X0331553Y0047880D01*
X0331624Y0048065D01*
X0331690Y0048252D01*
X0331751Y0048440D01*
X0331808Y0048629D01*
X0331861Y0048820D01*
X0331909Y0049012D01*
X0331952Y0049205D01*
X0331990Y0049399D01*
X0332023Y0049594D01*
X0332052Y0049790D01*
X0332076Y0049986D01*
X0332096Y0050183D01*
X0332110Y0050381D01*
X0332120Y0050578D01*
X0332124Y0050776D01*
X0332124Y0050974D01*
X0332120Y0051172D01*
X0332110Y0051369D01*
X0332096Y0051567D01*
X0332076Y0051764D01*
X0332052Y0051960D01*
X0332023Y0052156D01*
X0331990Y0052351D01*
X0331952Y0052545D01*
X0331909Y0052738D01*
X0331861Y0052930D01*
X0331808Y0053121D01*
X0331751Y0053310D01*
X0331690Y0053498D01*
X0331624Y0053685D01*
X0331553Y0053870D01*
X0331478Y0054053D01*
X0331398Y0054234D01*
X0331314Y0054413D01*
X0331226Y0054590D01*
X0331133Y0054765D01*
X0331036Y0054938D01*
X0330935Y0055108D01*
X0330830Y0055275D01*
X0330721Y0055440D01*
X0330608Y0055603D01*
X0330491Y0055762D01*
X0330370Y0055919D01*
X0330245Y0056072D01*
X0330117Y0056223D01*
X0329985Y0056370D01*
X0329849Y0056514D01*
X0329710Y0056655D01*
X0329568Y0056792D01*
X0329422Y0056926D01*
X0329273Y0057057D01*
X0329121Y0057183D01*
X0328966Y0057306D01*
X0328808Y0057425D01*
X0328647Y0057540D01*
X0328483Y0057651D01*
X0328317Y0057758D01*
X0328148Y0057861D01*
X0327977Y0057960D01*
X0327803Y0058055D01*
X0327627Y0058146D01*
X0327449Y0058232D01*
X0327269Y0058314D01*
X0327086Y0058391D01*
X0326903Y0058464D01*
X0326717Y0058532D01*
X0326530Y0058596D01*
X0326341Y0058656D01*
X0326151Y0058710D01*
X0325959Y0058760D01*
X0325767Y0058806D01*
X0325573Y0058846D01*
X0325378Y0058882D01*
X0325183Y0058913D01*
X0324987Y0058940D01*
X0324790Y0058961D01*
X0324593Y0058978D01*
X0324396Y0058990D01*
X0324198Y0058998D01*
X0324000Y0059000D01*
D11*
X0333951Y0015250D02*
X0333953Y0015408D01*
X0333959Y0015566D01*
X0333969Y0015724D01*
X0333983Y0015882D01*
X0334001Y0016039D01*
X0334022Y0016196D01*
X0334048Y0016352D01*
X0334078Y0016508D01*
X0334111Y0016663D01*
X0334149Y0016816D01*
X0334190Y0016969D01*
X0334235Y0017121D01*
X0334284Y0017272D01*
X0334337Y0017421D01*
X0334393Y0017569D01*
X0334453Y0017715D01*
X0334517Y0017860D01*
X0334585Y0018003D01*
X0334656Y0018145D01*
X0334730Y0018285D01*
X0334808Y0018422D01*
X0334890Y0018558D01*
X0334974Y0018692D01*
X0335063Y0018823D01*
X0335154Y0018952D01*
X0335249Y0019079D01*
X0335346Y0019204D01*
X0335447Y0019326D01*
X0335551Y0019445D01*
X0335658Y0019562D01*
X0335768Y0019676D01*
X0335881Y0019787D01*
X0335996Y0019896D01*
X0336114Y0020001D01*
X0336235Y0020103D01*
X0336358Y0020203D01*
X0336484Y0020299D01*
X0336612Y0020392D01*
X0336742Y0020482D01*
X0336875Y0020568D01*
X0337010Y0020652D01*
X0337146Y0020731D01*
X0337285Y0020808D01*
X0337426Y0020880D01*
X0337568Y0020950D01*
X0337712Y0021015D01*
X0337858Y0021077D01*
X0338005Y0021135D01*
X0338154Y0021190D01*
X0338304Y0021241D01*
X0338455Y0021288D01*
X0338607Y0021331D01*
X0338760Y0021370D01*
X0338915Y0021406D01*
X0339070Y0021437D01*
X0339226Y0021465D01*
X0339382Y0021489D01*
X0339539Y0021509D01*
X0339697Y0021525D01*
X0339854Y0021537D01*
X0340013Y0021545D01*
X0340171Y0021549D01*
X0340329Y0021549D01*
X0340487Y0021545D01*
X0340646Y0021537D01*
X0340803Y0021525D01*
X0340961Y0021509D01*
X0341118Y0021489D01*
X0341274Y0021465D01*
X0341430Y0021437D01*
X0341585Y0021406D01*
X0341740Y0021370D01*
X0341893Y0021331D01*
X0342045Y0021288D01*
X0342196Y0021241D01*
X0342346Y0021190D01*
X0342495Y0021135D01*
X0342642Y0021077D01*
X0342788Y0021015D01*
X0342932Y0020950D01*
X0343074Y0020880D01*
X0343215Y0020808D01*
X0343354Y0020731D01*
X0343490Y0020652D01*
X0343625Y0020568D01*
X0343758Y0020482D01*
X0343888Y0020392D01*
X0344016Y0020299D01*
X0344142Y0020203D01*
X0344265Y0020103D01*
X0344386Y0020001D01*
X0344504Y0019896D01*
X0344619Y0019787D01*
X0344732Y0019676D01*
X0344842Y0019562D01*
X0344949Y0019445D01*
X0345053Y0019326D01*
X0345154Y0019204D01*
X0345251Y0019079D01*
X0345346Y0018952D01*
X0345437Y0018823D01*
X0345526Y0018692D01*
X0345610Y0018558D01*
X0345692Y0018422D01*
X0345770Y0018285D01*
X0345844Y0018145D01*
X0345915Y0018003D01*
X0345983Y0017860D01*
X0346047Y0017715D01*
X0346107Y0017569D01*
X0346163Y0017421D01*
X0346216Y0017272D01*
X0346265Y0017121D01*
X0346310Y0016969D01*
X0346351Y0016816D01*
X0346389Y0016663D01*
X0346422Y0016508D01*
X0346452Y0016352D01*
X0346478Y0016196D01*
X0346499Y0016039D01*
X0346517Y0015882D01*
X0346531Y0015724D01*
X0346541Y0015566D01*
X0346547Y0015408D01*
X0346549Y0015250D01*
X0346547Y0015092D01*
X0346541Y0014934D01*
X0346531Y0014776D01*
X0346517Y0014618D01*
X0346499Y0014461D01*
X0346478Y0014304D01*
X0346452Y0014148D01*
X0346422Y0013992D01*
X0346389Y0013837D01*
X0346351Y0013684D01*
X0346310Y0013531D01*
X0346265Y0013379D01*
X0346216Y0013228D01*
X0346163Y0013079D01*
X0346107Y0012931D01*
X0346047Y0012785D01*
X0345983Y0012640D01*
X0345915Y0012497D01*
X0345844Y0012355D01*
X0345770Y0012215D01*
X0345692Y0012078D01*
X0345610Y0011942D01*
X0345526Y0011808D01*
X0345437Y0011677D01*
X0345346Y0011548D01*
X0345251Y0011421D01*
X0345154Y0011296D01*
X0345053Y0011174D01*
X0344949Y0011055D01*
X0344842Y0010938D01*
X0344732Y0010824D01*
X0344619Y0010713D01*
X0344504Y0010604D01*
X0344386Y0010499D01*
X0344265Y0010397D01*
X0344142Y0010297D01*
X0344016Y0010201D01*
X0343888Y0010108D01*
X0343758Y0010018D01*
X0343625Y0009932D01*
X0343490Y0009848D01*
X0343354Y0009769D01*
X0343215Y0009692D01*
X0343074Y0009620D01*
X0342932Y0009550D01*
X0342788Y0009485D01*
X0342642Y0009423D01*
X0342495Y0009365D01*
X0342346Y0009310D01*
X0342196Y0009259D01*
X0342045Y0009212D01*
X0341893Y0009169D01*
X0341740Y0009130D01*
X0341585Y0009094D01*
X0341430Y0009063D01*
X0341274Y0009035D01*
X0341118Y0009011D01*
X0340961Y0008991D01*
X0340803Y0008975D01*
X0340646Y0008963D01*
X0340487Y0008955D01*
X0340329Y0008951D01*
X0340171Y0008951D01*
X0340013Y0008955D01*
X0339854Y0008963D01*
X0339697Y0008975D01*
X0339539Y0008991D01*
X0339382Y0009011D01*
X0339226Y0009035D01*
X0339070Y0009063D01*
X0338915Y0009094D01*
X0338760Y0009130D01*
X0338607Y0009169D01*
X0338455Y0009212D01*
X0338304Y0009259D01*
X0338154Y0009310D01*
X0338005Y0009365D01*
X0337858Y0009423D01*
X0337712Y0009485D01*
X0337568Y0009550D01*
X0337426Y0009620D01*
X0337285Y0009692D01*
X0337146Y0009769D01*
X0337010Y0009848D01*
X0336875Y0009932D01*
X0336742Y0010018D01*
X0336612Y0010108D01*
X0336484Y0010201D01*
X0336358Y0010297D01*
X0336235Y0010397D01*
X0336114Y0010499D01*
X0335996Y0010604D01*
X0335881Y0010713D01*
X0335768Y0010824D01*
X0335658Y0010938D01*
X0335551Y0011055D01*
X0335447Y0011174D01*
X0335346Y0011296D01*
X0335249Y0011421D01*
X0335154Y0011548D01*
X0335063Y0011677D01*
X0334974Y0011808D01*
X0334890Y0011942D01*
X0334808Y0012078D01*
X0334730Y0012215D01*
X0334656Y0012355D01*
X0334585Y0012497D01*
X0334517Y0012640D01*
X0334453Y0012785D01*
X0334393Y0012931D01*
X0334337Y0013079D01*
X0334284Y0013228D01*
X0334235Y0013379D01*
X0334190Y0013531D01*
X0334149Y0013684D01*
X0334111Y0013837D01*
X0334078Y0013992D01*
X0334048Y0014148D01*
X0334022Y0014304D01*
X0334001Y0014461D01*
X0333983Y0014618D01*
X0333969Y0014776D01*
X0333959Y0014934D01*
X0333953Y0015092D01*
X0333951Y0015250D01*
X0297701Y0015250D02*
X0297703Y0015408D01*
X0297709Y0015566D01*
X0297719Y0015724D01*
X0297733Y0015882D01*
X0297751Y0016039D01*
X0297772Y0016196D01*
X0297798Y0016352D01*
X0297828Y0016508D01*
X0297861Y0016663D01*
X0297899Y0016816D01*
X0297940Y0016969D01*
X0297985Y0017121D01*
X0298034Y0017272D01*
X0298087Y0017421D01*
X0298143Y0017569D01*
X0298203Y0017715D01*
X0298267Y0017860D01*
X0298335Y0018003D01*
X0298406Y0018145D01*
X0298480Y0018285D01*
X0298558Y0018422D01*
X0298640Y0018558D01*
X0298724Y0018692D01*
X0298813Y0018823D01*
X0298904Y0018952D01*
X0298999Y0019079D01*
X0299096Y0019204D01*
X0299197Y0019326D01*
X0299301Y0019445D01*
X0299408Y0019562D01*
X0299518Y0019676D01*
X0299631Y0019787D01*
X0299746Y0019896D01*
X0299864Y0020001D01*
X0299985Y0020103D01*
X0300108Y0020203D01*
X0300234Y0020299D01*
X0300362Y0020392D01*
X0300492Y0020482D01*
X0300625Y0020568D01*
X0300760Y0020652D01*
X0300896Y0020731D01*
X0301035Y0020808D01*
X0301176Y0020880D01*
X0301318Y0020950D01*
X0301462Y0021015D01*
X0301608Y0021077D01*
X0301755Y0021135D01*
X0301904Y0021190D01*
X0302054Y0021241D01*
X0302205Y0021288D01*
X0302357Y0021331D01*
X0302510Y0021370D01*
X0302665Y0021406D01*
X0302820Y0021437D01*
X0302976Y0021465D01*
X0303132Y0021489D01*
X0303289Y0021509D01*
X0303447Y0021525D01*
X0303604Y0021537D01*
X0303763Y0021545D01*
X0303921Y0021549D01*
X0304079Y0021549D01*
X0304237Y0021545D01*
X0304396Y0021537D01*
X0304553Y0021525D01*
X0304711Y0021509D01*
X0304868Y0021489D01*
X0305024Y0021465D01*
X0305180Y0021437D01*
X0305335Y0021406D01*
X0305490Y0021370D01*
X0305643Y0021331D01*
X0305795Y0021288D01*
X0305946Y0021241D01*
X0306096Y0021190D01*
X0306245Y0021135D01*
X0306392Y0021077D01*
X0306538Y0021015D01*
X0306682Y0020950D01*
X0306824Y0020880D01*
X0306965Y0020808D01*
X0307104Y0020731D01*
X0307240Y0020652D01*
X0307375Y0020568D01*
X0307508Y0020482D01*
X0307638Y0020392D01*
X0307766Y0020299D01*
X0307892Y0020203D01*
X0308015Y0020103D01*
X0308136Y0020001D01*
X0308254Y0019896D01*
X0308369Y0019787D01*
X0308482Y0019676D01*
X0308592Y0019562D01*
X0308699Y0019445D01*
X0308803Y0019326D01*
X0308904Y0019204D01*
X0309001Y0019079D01*
X0309096Y0018952D01*
X0309187Y0018823D01*
X0309276Y0018692D01*
X0309360Y0018558D01*
X0309442Y0018422D01*
X0309520Y0018285D01*
X0309594Y0018145D01*
X0309665Y0018003D01*
X0309733Y0017860D01*
X0309797Y0017715D01*
X0309857Y0017569D01*
X0309913Y0017421D01*
X0309966Y0017272D01*
X0310015Y0017121D01*
X0310060Y0016969D01*
X0310101Y0016816D01*
X0310139Y0016663D01*
X0310172Y0016508D01*
X0310202Y0016352D01*
X0310228Y0016196D01*
X0310249Y0016039D01*
X0310267Y0015882D01*
X0310281Y0015724D01*
X0310291Y0015566D01*
X0310297Y0015408D01*
X0310299Y0015250D01*
X0310297Y0015092D01*
X0310291Y0014934D01*
X0310281Y0014776D01*
X0310267Y0014618D01*
X0310249Y0014461D01*
X0310228Y0014304D01*
X0310202Y0014148D01*
X0310172Y0013992D01*
X0310139Y0013837D01*
X0310101Y0013684D01*
X0310060Y0013531D01*
X0310015Y0013379D01*
X0309966Y0013228D01*
X0309913Y0013079D01*
X0309857Y0012931D01*
X0309797Y0012785D01*
X0309733Y0012640D01*
X0309665Y0012497D01*
X0309594Y0012355D01*
X0309520Y0012215D01*
X0309442Y0012078D01*
X0309360Y0011942D01*
X0309276Y0011808D01*
X0309187Y0011677D01*
X0309096Y0011548D01*
X0309001Y0011421D01*
X0308904Y0011296D01*
X0308803Y0011174D01*
X0308699Y0011055D01*
X0308592Y0010938D01*
X0308482Y0010824D01*
X0308369Y0010713D01*
X0308254Y0010604D01*
X0308136Y0010499D01*
X0308015Y0010397D01*
X0307892Y0010297D01*
X0307766Y0010201D01*
X0307638Y0010108D01*
X0307508Y0010018D01*
X0307375Y0009932D01*
X0307240Y0009848D01*
X0307104Y0009769D01*
X0306965Y0009692D01*
X0306824Y0009620D01*
X0306682Y0009550D01*
X0306538Y0009485D01*
X0306392Y0009423D01*
X0306245Y0009365D01*
X0306096Y0009310D01*
X0305946Y0009259D01*
X0305795Y0009212D01*
X0305643Y0009169D01*
X0305490Y0009130D01*
X0305335Y0009094D01*
X0305180Y0009063D01*
X0305024Y0009035D01*
X0304868Y0009011D01*
X0304711Y0008991D01*
X0304553Y0008975D01*
X0304396Y0008963D01*
X0304237Y0008955D01*
X0304079Y0008951D01*
X0303921Y0008951D01*
X0303763Y0008955D01*
X0303604Y0008963D01*
X0303447Y0008975D01*
X0303289Y0008991D01*
X0303132Y0009011D01*
X0302976Y0009035D01*
X0302820Y0009063D01*
X0302665Y0009094D01*
X0302510Y0009130D01*
X0302357Y0009169D01*
X0302205Y0009212D01*
X0302054Y0009259D01*
X0301904Y0009310D01*
X0301755Y0009365D01*
X0301608Y0009423D01*
X0301462Y0009485D01*
X0301318Y0009550D01*
X0301176Y0009620D01*
X0301035Y0009692D01*
X0300896Y0009769D01*
X0300760Y0009848D01*
X0300625Y0009932D01*
X0300492Y0010018D01*
X0300362Y0010108D01*
X0300234Y0010201D01*
X0300108Y0010297D01*
X0299985Y0010397D01*
X0299864Y0010499D01*
X0299746Y0010604D01*
X0299631Y0010713D01*
X0299518Y0010824D01*
X0299408Y0010938D01*
X0299301Y0011055D01*
X0299197Y0011174D01*
X0299096Y0011296D01*
X0298999Y0011421D01*
X0298904Y0011548D01*
X0298813Y0011677D01*
X0298724Y0011808D01*
X0298640Y0011942D01*
X0298558Y0012078D01*
X0298480Y0012215D01*
X0298406Y0012355D01*
X0298335Y0012497D01*
X0298267Y0012640D01*
X0298203Y0012785D01*
X0298143Y0012931D01*
X0298087Y0013079D01*
X0298034Y0013228D01*
X0297985Y0013379D01*
X0297940Y0013531D01*
X0297899Y0013684D01*
X0297861Y0013837D01*
X0297828Y0013992D01*
X0297798Y0014148D01*
X0297772Y0014304D01*
X0297751Y0014461D01*
X0297733Y0014618D01*
X0297719Y0014776D01*
X0297709Y0014934D01*
X0297703Y0015092D01*
X0297701Y0015250D01*
X0267701Y0015250D02*
X0267703Y0015408D01*
X0267709Y0015566D01*
X0267719Y0015724D01*
X0267733Y0015882D01*
X0267751Y0016039D01*
X0267772Y0016196D01*
X0267798Y0016352D01*
X0267828Y0016508D01*
X0267861Y0016663D01*
X0267899Y0016816D01*
X0267940Y0016969D01*
X0267985Y0017121D01*
X0268034Y0017272D01*
X0268087Y0017421D01*
X0268143Y0017569D01*
X0268203Y0017715D01*
X0268267Y0017860D01*
X0268335Y0018003D01*
X0268406Y0018145D01*
X0268480Y0018285D01*
X0268558Y0018422D01*
X0268640Y0018558D01*
X0268724Y0018692D01*
X0268813Y0018823D01*
X0268904Y0018952D01*
X0268999Y0019079D01*
X0269096Y0019204D01*
X0269197Y0019326D01*
X0269301Y0019445D01*
X0269408Y0019562D01*
X0269518Y0019676D01*
X0269631Y0019787D01*
X0269746Y0019896D01*
X0269864Y0020001D01*
X0269985Y0020103D01*
X0270108Y0020203D01*
X0270234Y0020299D01*
X0270362Y0020392D01*
X0270492Y0020482D01*
X0270625Y0020568D01*
X0270760Y0020652D01*
X0270896Y0020731D01*
X0271035Y0020808D01*
X0271176Y0020880D01*
X0271318Y0020950D01*
X0271462Y0021015D01*
X0271608Y0021077D01*
X0271755Y0021135D01*
X0271904Y0021190D01*
X0272054Y0021241D01*
X0272205Y0021288D01*
X0272357Y0021331D01*
X0272510Y0021370D01*
X0272665Y0021406D01*
X0272820Y0021437D01*
X0272976Y0021465D01*
X0273132Y0021489D01*
X0273289Y0021509D01*
X0273447Y0021525D01*
X0273604Y0021537D01*
X0273763Y0021545D01*
X0273921Y0021549D01*
X0274079Y0021549D01*
X0274237Y0021545D01*
X0274396Y0021537D01*
X0274553Y0021525D01*
X0274711Y0021509D01*
X0274868Y0021489D01*
X0275024Y0021465D01*
X0275180Y0021437D01*
X0275335Y0021406D01*
X0275490Y0021370D01*
X0275643Y0021331D01*
X0275795Y0021288D01*
X0275946Y0021241D01*
X0276096Y0021190D01*
X0276245Y0021135D01*
X0276392Y0021077D01*
X0276538Y0021015D01*
X0276682Y0020950D01*
X0276824Y0020880D01*
X0276965Y0020808D01*
X0277104Y0020731D01*
X0277240Y0020652D01*
X0277375Y0020568D01*
X0277508Y0020482D01*
X0277638Y0020392D01*
X0277766Y0020299D01*
X0277892Y0020203D01*
X0278015Y0020103D01*
X0278136Y0020001D01*
X0278254Y0019896D01*
X0278369Y0019787D01*
X0278482Y0019676D01*
X0278592Y0019562D01*
X0278699Y0019445D01*
X0278803Y0019326D01*
X0278904Y0019204D01*
X0279001Y0019079D01*
X0279096Y0018952D01*
X0279187Y0018823D01*
X0279276Y0018692D01*
X0279360Y0018558D01*
X0279442Y0018422D01*
X0279520Y0018285D01*
X0279594Y0018145D01*
X0279665Y0018003D01*
X0279733Y0017860D01*
X0279797Y0017715D01*
X0279857Y0017569D01*
X0279913Y0017421D01*
X0279966Y0017272D01*
X0280015Y0017121D01*
X0280060Y0016969D01*
X0280101Y0016816D01*
X0280139Y0016663D01*
X0280172Y0016508D01*
X0280202Y0016352D01*
X0280228Y0016196D01*
X0280249Y0016039D01*
X0280267Y0015882D01*
X0280281Y0015724D01*
X0280291Y0015566D01*
X0280297Y0015408D01*
X0280299Y0015250D01*
X0280297Y0015092D01*
X0280291Y0014934D01*
X0280281Y0014776D01*
X0280267Y0014618D01*
X0280249Y0014461D01*
X0280228Y0014304D01*
X0280202Y0014148D01*
X0280172Y0013992D01*
X0280139Y0013837D01*
X0280101Y0013684D01*
X0280060Y0013531D01*
X0280015Y0013379D01*
X0279966Y0013228D01*
X0279913Y0013079D01*
X0279857Y0012931D01*
X0279797Y0012785D01*
X0279733Y0012640D01*
X0279665Y0012497D01*
X0279594Y0012355D01*
X0279520Y0012215D01*
X0279442Y0012078D01*
X0279360Y0011942D01*
X0279276Y0011808D01*
X0279187Y0011677D01*
X0279096Y0011548D01*
X0279001Y0011421D01*
X0278904Y0011296D01*
X0278803Y0011174D01*
X0278699Y0011055D01*
X0278592Y0010938D01*
X0278482Y0010824D01*
X0278369Y0010713D01*
X0278254Y0010604D01*
X0278136Y0010499D01*
X0278015Y0010397D01*
X0277892Y0010297D01*
X0277766Y0010201D01*
X0277638Y0010108D01*
X0277508Y0010018D01*
X0277375Y0009932D01*
X0277240Y0009848D01*
X0277104Y0009769D01*
X0276965Y0009692D01*
X0276824Y0009620D01*
X0276682Y0009550D01*
X0276538Y0009485D01*
X0276392Y0009423D01*
X0276245Y0009365D01*
X0276096Y0009310D01*
X0275946Y0009259D01*
X0275795Y0009212D01*
X0275643Y0009169D01*
X0275490Y0009130D01*
X0275335Y0009094D01*
X0275180Y0009063D01*
X0275024Y0009035D01*
X0274868Y0009011D01*
X0274711Y0008991D01*
X0274553Y0008975D01*
X0274396Y0008963D01*
X0274237Y0008955D01*
X0274079Y0008951D01*
X0273921Y0008951D01*
X0273763Y0008955D01*
X0273604Y0008963D01*
X0273447Y0008975D01*
X0273289Y0008991D01*
X0273132Y0009011D01*
X0272976Y0009035D01*
X0272820Y0009063D01*
X0272665Y0009094D01*
X0272510Y0009130D01*
X0272357Y0009169D01*
X0272205Y0009212D01*
X0272054Y0009259D01*
X0271904Y0009310D01*
X0271755Y0009365D01*
X0271608Y0009423D01*
X0271462Y0009485D01*
X0271318Y0009550D01*
X0271176Y0009620D01*
X0271035Y0009692D01*
X0270896Y0009769D01*
X0270760Y0009848D01*
X0270625Y0009932D01*
X0270492Y0010018D01*
X0270362Y0010108D01*
X0270234Y0010201D01*
X0270108Y0010297D01*
X0269985Y0010397D01*
X0269864Y0010499D01*
X0269746Y0010604D01*
X0269631Y0010713D01*
X0269518Y0010824D01*
X0269408Y0010938D01*
X0269301Y0011055D01*
X0269197Y0011174D01*
X0269096Y0011296D01*
X0268999Y0011421D01*
X0268904Y0011548D01*
X0268813Y0011677D01*
X0268724Y0011808D01*
X0268640Y0011942D01*
X0268558Y0012078D01*
X0268480Y0012215D01*
X0268406Y0012355D01*
X0268335Y0012497D01*
X0268267Y0012640D01*
X0268203Y0012785D01*
X0268143Y0012931D01*
X0268087Y0013079D01*
X0268034Y0013228D01*
X0267985Y0013379D01*
X0267940Y0013531D01*
X0267899Y0013684D01*
X0267861Y0013837D01*
X0267828Y0013992D01*
X0267798Y0014148D01*
X0267772Y0014304D01*
X0267751Y0014461D01*
X0267733Y0014618D01*
X0267719Y0014776D01*
X0267709Y0014934D01*
X0267703Y0015092D01*
X0267701Y0015250D01*
X0231451Y0015250D02*
X0231453Y0015408D01*
X0231459Y0015566D01*
X0231469Y0015724D01*
X0231483Y0015882D01*
X0231501Y0016039D01*
X0231522Y0016196D01*
X0231548Y0016352D01*
X0231578Y0016508D01*
X0231611Y0016663D01*
X0231649Y0016816D01*
X0231690Y0016969D01*
X0231735Y0017121D01*
X0231784Y0017272D01*
X0231837Y0017421D01*
X0231893Y0017569D01*
X0231953Y0017715D01*
X0232017Y0017860D01*
X0232085Y0018003D01*
X0232156Y0018145D01*
X0232230Y0018285D01*
X0232308Y0018422D01*
X0232390Y0018558D01*
X0232474Y0018692D01*
X0232563Y0018823D01*
X0232654Y0018952D01*
X0232749Y0019079D01*
X0232846Y0019204D01*
X0232947Y0019326D01*
X0233051Y0019445D01*
X0233158Y0019562D01*
X0233268Y0019676D01*
X0233381Y0019787D01*
X0233496Y0019896D01*
X0233614Y0020001D01*
X0233735Y0020103D01*
X0233858Y0020203D01*
X0233984Y0020299D01*
X0234112Y0020392D01*
X0234242Y0020482D01*
X0234375Y0020568D01*
X0234510Y0020652D01*
X0234646Y0020731D01*
X0234785Y0020808D01*
X0234926Y0020880D01*
X0235068Y0020950D01*
X0235212Y0021015D01*
X0235358Y0021077D01*
X0235505Y0021135D01*
X0235654Y0021190D01*
X0235804Y0021241D01*
X0235955Y0021288D01*
X0236107Y0021331D01*
X0236260Y0021370D01*
X0236415Y0021406D01*
X0236570Y0021437D01*
X0236726Y0021465D01*
X0236882Y0021489D01*
X0237039Y0021509D01*
X0237197Y0021525D01*
X0237354Y0021537D01*
X0237513Y0021545D01*
X0237671Y0021549D01*
X0237829Y0021549D01*
X0237987Y0021545D01*
X0238146Y0021537D01*
X0238303Y0021525D01*
X0238461Y0021509D01*
X0238618Y0021489D01*
X0238774Y0021465D01*
X0238930Y0021437D01*
X0239085Y0021406D01*
X0239240Y0021370D01*
X0239393Y0021331D01*
X0239545Y0021288D01*
X0239696Y0021241D01*
X0239846Y0021190D01*
X0239995Y0021135D01*
X0240142Y0021077D01*
X0240288Y0021015D01*
X0240432Y0020950D01*
X0240574Y0020880D01*
X0240715Y0020808D01*
X0240854Y0020731D01*
X0240990Y0020652D01*
X0241125Y0020568D01*
X0241258Y0020482D01*
X0241388Y0020392D01*
X0241516Y0020299D01*
X0241642Y0020203D01*
X0241765Y0020103D01*
X0241886Y0020001D01*
X0242004Y0019896D01*
X0242119Y0019787D01*
X0242232Y0019676D01*
X0242342Y0019562D01*
X0242449Y0019445D01*
X0242553Y0019326D01*
X0242654Y0019204D01*
X0242751Y0019079D01*
X0242846Y0018952D01*
X0242937Y0018823D01*
X0243026Y0018692D01*
X0243110Y0018558D01*
X0243192Y0018422D01*
X0243270Y0018285D01*
X0243344Y0018145D01*
X0243415Y0018003D01*
X0243483Y0017860D01*
X0243547Y0017715D01*
X0243607Y0017569D01*
X0243663Y0017421D01*
X0243716Y0017272D01*
X0243765Y0017121D01*
X0243810Y0016969D01*
X0243851Y0016816D01*
X0243889Y0016663D01*
X0243922Y0016508D01*
X0243952Y0016352D01*
X0243978Y0016196D01*
X0243999Y0016039D01*
X0244017Y0015882D01*
X0244031Y0015724D01*
X0244041Y0015566D01*
X0244047Y0015408D01*
X0244049Y0015250D01*
X0244047Y0015092D01*
X0244041Y0014934D01*
X0244031Y0014776D01*
X0244017Y0014618D01*
X0243999Y0014461D01*
X0243978Y0014304D01*
X0243952Y0014148D01*
X0243922Y0013992D01*
X0243889Y0013837D01*
X0243851Y0013684D01*
X0243810Y0013531D01*
X0243765Y0013379D01*
X0243716Y0013228D01*
X0243663Y0013079D01*
X0243607Y0012931D01*
X0243547Y0012785D01*
X0243483Y0012640D01*
X0243415Y0012497D01*
X0243344Y0012355D01*
X0243270Y0012215D01*
X0243192Y0012078D01*
X0243110Y0011942D01*
X0243026Y0011808D01*
X0242937Y0011677D01*
X0242846Y0011548D01*
X0242751Y0011421D01*
X0242654Y0011296D01*
X0242553Y0011174D01*
X0242449Y0011055D01*
X0242342Y0010938D01*
X0242232Y0010824D01*
X0242119Y0010713D01*
X0242004Y0010604D01*
X0241886Y0010499D01*
X0241765Y0010397D01*
X0241642Y0010297D01*
X0241516Y0010201D01*
X0241388Y0010108D01*
X0241258Y0010018D01*
X0241125Y0009932D01*
X0240990Y0009848D01*
X0240854Y0009769D01*
X0240715Y0009692D01*
X0240574Y0009620D01*
X0240432Y0009550D01*
X0240288Y0009485D01*
X0240142Y0009423D01*
X0239995Y0009365D01*
X0239846Y0009310D01*
X0239696Y0009259D01*
X0239545Y0009212D01*
X0239393Y0009169D01*
X0239240Y0009130D01*
X0239085Y0009094D01*
X0238930Y0009063D01*
X0238774Y0009035D01*
X0238618Y0009011D01*
X0238461Y0008991D01*
X0238303Y0008975D01*
X0238146Y0008963D01*
X0237987Y0008955D01*
X0237829Y0008951D01*
X0237671Y0008951D01*
X0237513Y0008955D01*
X0237354Y0008963D01*
X0237197Y0008975D01*
X0237039Y0008991D01*
X0236882Y0009011D01*
X0236726Y0009035D01*
X0236570Y0009063D01*
X0236415Y0009094D01*
X0236260Y0009130D01*
X0236107Y0009169D01*
X0235955Y0009212D01*
X0235804Y0009259D01*
X0235654Y0009310D01*
X0235505Y0009365D01*
X0235358Y0009423D01*
X0235212Y0009485D01*
X0235068Y0009550D01*
X0234926Y0009620D01*
X0234785Y0009692D01*
X0234646Y0009769D01*
X0234510Y0009848D01*
X0234375Y0009932D01*
X0234242Y0010018D01*
X0234112Y0010108D01*
X0233984Y0010201D01*
X0233858Y0010297D01*
X0233735Y0010397D01*
X0233614Y0010499D01*
X0233496Y0010604D01*
X0233381Y0010713D01*
X0233268Y0010824D01*
X0233158Y0010938D01*
X0233051Y0011055D01*
X0232947Y0011174D01*
X0232846Y0011296D01*
X0232749Y0011421D01*
X0232654Y0011548D01*
X0232563Y0011677D01*
X0232474Y0011808D01*
X0232390Y0011942D01*
X0232308Y0012078D01*
X0232230Y0012215D01*
X0232156Y0012355D01*
X0232085Y0012497D01*
X0232017Y0012640D01*
X0231953Y0012785D01*
X0231893Y0012931D01*
X0231837Y0013079D01*
X0231784Y0013228D01*
X0231735Y0013379D01*
X0231690Y0013531D01*
X0231649Y0013684D01*
X0231611Y0013837D01*
X0231578Y0013992D01*
X0231548Y0014148D01*
X0231522Y0014304D01*
X0231501Y0014461D01*
X0231483Y0014618D01*
X0231469Y0014776D01*
X0231459Y0014934D01*
X0231453Y0015092D01*
X0231451Y0015250D01*
X0201451Y0015250D02*
X0201453Y0015408D01*
X0201459Y0015566D01*
X0201469Y0015724D01*
X0201483Y0015882D01*
X0201501Y0016039D01*
X0201522Y0016196D01*
X0201548Y0016352D01*
X0201578Y0016508D01*
X0201611Y0016663D01*
X0201649Y0016816D01*
X0201690Y0016969D01*
X0201735Y0017121D01*
X0201784Y0017272D01*
X0201837Y0017421D01*
X0201893Y0017569D01*
X0201953Y0017715D01*
X0202017Y0017860D01*
X0202085Y0018003D01*
X0202156Y0018145D01*
X0202230Y0018285D01*
X0202308Y0018422D01*
X0202390Y0018558D01*
X0202474Y0018692D01*
X0202563Y0018823D01*
X0202654Y0018952D01*
X0202749Y0019079D01*
X0202846Y0019204D01*
X0202947Y0019326D01*
X0203051Y0019445D01*
X0203158Y0019562D01*
X0203268Y0019676D01*
X0203381Y0019787D01*
X0203496Y0019896D01*
X0203614Y0020001D01*
X0203735Y0020103D01*
X0203858Y0020203D01*
X0203984Y0020299D01*
X0204112Y0020392D01*
X0204242Y0020482D01*
X0204375Y0020568D01*
X0204510Y0020652D01*
X0204646Y0020731D01*
X0204785Y0020808D01*
X0204926Y0020880D01*
X0205068Y0020950D01*
X0205212Y0021015D01*
X0205358Y0021077D01*
X0205505Y0021135D01*
X0205654Y0021190D01*
X0205804Y0021241D01*
X0205955Y0021288D01*
X0206107Y0021331D01*
X0206260Y0021370D01*
X0206415Y0021406D01*
X0206570Y0021437D01*
X0206726Y0021465D01*
X0206882Y0021489D01*
X0207039Y0021509D01*
X0207197Y0021525D01*
X0207354Y0021537D01*
X0207513Y0021545D01*
X0207671Y0021549D01*
X0207829Y0021549D01*
X0207987Y0021545D01*
X0208146Y0021537D01*
X0208303Y0021525D01*
X0208461Y0021509D01*
X0208618Y0021489D01*
X0208774Y0021465D01*
X0208930Y0021437D01*
X0209085Y0021406D01*
X0209240Y0021370D01*
X0209393Y0021331D01*
X0209545Y0021288D01*
X0209696Y0021241D01*
X0209846Y0021190D01*
X0209995Y0021135D01*
X0210142Y0021077D01*
X0210288Y0021015D01*
X0210432Y0020950D01*
X0210574Y0020880D01*
X0210715Y0020808D01*
X0210854Y0020731D01*
X0210990Y0020652D01*
X0211125Y0020568D01*
X0211258Y0020482D01*
X0211388Y0020392D01*
X0211516Y0020299D01*
X0211642Y0020203D01*
X0211765Y0020103D01*
X0211886Y0020001D01*
X0212004Y0019896D01*
X0212119Y0019787D01*
X0212232Y0019676D01*
X0212342Y0019562D01*
X0212449Y0019445D01*
X0212553Y0019326D01*
X0212654Y0019204D01*
X0212751Y0019079D01*
X0212846Y0018952D01*
X0212937Y0018823D01*
X0213026Y0018692D01*
X0213110Y0018558D01*
X0213192Y0018422D01*
X0213270Y0018285D01*
X0213344Y0018145D01*
X0213415Y0018003D01*
X0213483Y0017860D01*
X0213547Y0017715D01*
X0213607Y0017569D01*
X0213663Y0017421D01*
X0213716Y0017272D01*
X0213765Y0017121D01*
X0213810Y0016969D01*
X0213851Y0016816D01*
X0213889Y0016663D01*
X0213922Y0016508D01*
X0213952Y0016352D01*
X0213978Y0016196D01*
X0213999Y0016039D01*
X0214017Y0015882D01*
X0214031Y0015724D01*
X0214041Y0015566D01*
X0214047Y0015408D01*
X0214049Y0015250D01*
X0214047Y0015092D01*
X0214041Y0014934D01*
X0214031Y0014776D01*
X0214017Y0014618D01*
X0213999Y0014461D01*
X0213978Y0014304D01*
X0213952Y0014148D01*
X0213922Y0013992D01*
X0213889Y0013837D01*
X0213851Y0013684D01*
X0213810Y0013531D01*
X0213765Y0013379D01*
X0213716Y0013228D01*
X0213663Y0013079D01*
X0213607Y0012931D01*
X0213547Y0012785D01*
X0213483Y0012640D01*
X0213415Y0012497D01*
X0213344Y0012355D01*
X0213270Y0012215D01*
X0213192Y0012078D01*
X0213110Y0011942D01*
X0213026Y0011808D01*
X0212937Y0011677D01*
X0212846Y0011548D01*
X0212751Y0011421D01*
X0212654Y0011296D01*
X0212553Y0011174D01*
X0212449Y0011055D01*
X0212342Y0010938D01*
X0212232Y0010824D01*
X0212119Y0010713D01*
X0212004Y0010604D01*
X0211886Y0010499D01*
X0211765Y0010397D01*
X0211642Y0010297D01*
X0211516Y0010201D01*
X0211388Y0010108D01*
X0211258Y0010018D01*
X0211125Y0009932D01*
X0210990Y0009848D01*
X0210854Y0009769D01*
X0210715Y0009692D01*
X0210574Y0009620D01*
X0210432Y0009550D01*
X0210288Y0009485D01*
X0210142Y0009423D01*
X0209995Y0009365D01*
X0209846Y0009310D01*
X0209696Y0009259D01*
X0209545Y0009212D01*
X0209393Y0009169D01*
X0209240Y0009130D01*
X0209085Y0009094D01*
X0208930Y0009063D01*
X0208774Y0009035D01*
X0208618Y0009011D01*
X0208461Y0008991D01*
X0208303Y0008975D01*
X0208146Y0008963D01*
X0207987Y0008955D01*
X0207829Y0008951D01*
X0207671Y0008951D01*
X0207513Y0008955D01*
X0207354Y0008963D01*
X0207197Y0008975D01*
X0207039Y0008991D01*
X0206882Y0009011D01*
X0206726Y0009035D01*
X0206570Y0009063D01*
X0206415Y0009094D01*
X0206260Y0009130D01*
X0206107Y0009169D01*
X0205955Y0009212D01*
X0205804Y0009259D01*
X0205654Y0009310D01*
X0205505Y0009365D01*
X0205358Y0009423D01*
X0205212Y0009485D01*
X0205068Y0009550D01*
X0204926Y0009620D01*
X0204785Y0009692D01*
X0204646Y0009769D01*
X0204510Y0009848D01*
X0204375Y0009932D01*
X0204242Y0010018D01*
X0204112Y0010108D01*
X0203984Y0010201D01*
X0203858Y0010297D01*
X0203735Y0010397D01*
X0203614Y0010499D01*
X0203496Y0010604D01*
X0203381Y0010713D01*
X0203268Y0010824D01*
X0203158Y0010938D01*
X0203051Y0011055D01*
X0202947Y0011174D01*
X0202846Y0011296D01*
X0202749Y0011421D01*
X0202654Y0011548D01*
X0202563Y0011677D01*
X0202474Y0011808D01*
X0202390Y0011942D01*
X0202308Y0012078D01*
X0202230Y0012215D01*
X0202156Y0012355D01*
X0202085Y0012497D01*
X0202017Y0012640D01*
X0201953Y0012785D01*
X0201893Y0012931D01*
X0201837Y0013079D01*
X0201784Y0013228D01*
X0201735Y0013379D01*
X0201690Y0013531D01*
X0201649Y0013684D01*
X0201611Y0013837D01*
X0201578Y0013992D01*
X0201548Y0014148D01*
X0201522Y0014304D01*
X0201501Y0014461D01*
X0201483Y0014618D01*
X0201469Y0014776D01*
X0201459Y0014934D01*
X0201453Y0015092D01*
X0201451Y0015250D01*
X0246633Y0112883D02*
X0246633Y0132130D01*
X0260117Y0132130D01*
X0260117Y0112883D01*
X0363951Y0015250D02*
X0363953Y0015408D01*
X0363959Y0015566D01*
X0363969Y0015724D01*
X0363983Y0015882D01*
X0364001Y0016039D01*
X0364022Y0016196D01*
X0364048Y0016352D01*
X0364078Y0016508D01*
X0364111Y0016663D01*
X0364149Y0016816D01*
X0364190Y0016969D01*
X0364235Y0017121D01*
X0364284Y0017272D01*
X0364337Y0017421D01*
X0364393Y0017569D01*
X0364453Y0017715D01*
X0364517Y0017860D01*
X0364585Y0018003D01*
X0364656Y0018145D01*
X0364730Y0018285D01*
X0364808Y0018422D01*
X0364890Y0018558D01*
X0364974Y0018692D01*
X0365063Y0018823D01*
X0365154Y0018952D01*
X0365249Y0019079D01*
X0365346Y0019204D01*
X0365447Y0019326D01*
X0365551Y0019445D01*
X0365658Y0019562D01*
X0365768Y0019676D01*
X0365881Y0019787D01*
X0365996Y0019896D01*
X0366114Y0020001D01*
X0366235Y0020103D01*
X0366358Y0020203D01*
X0366484Y0020299D01*
X0366612Y0020392D01*
X0366742Y0020482D01*
X0366875Y0020568D01*
X0367010Y0020652D01*
X0367146Y0020731D01*
X0367285Y0020808D01*
X0367426Y0020880D01*
X0367568Y0020950D01*
X0367712Y0021015D01*
X0367858Y0021077D01*
X0368005Y0021135D01*
X0368154Y0021190D01*
X0368304Y0021241D01*
X0368455Y0021288D01*
X0368607Y0021331D01*
X0368760Y0021370D01*
X0368915Y0021406D01*
X0369070Y0021437D01*
X0369226Y0021465D01*
X0369382Y0021489D01*
X0369539Y0021509D01*
X0369697Y0021525D01*
X0369854Y0021537D01*
X0370013Y0021545D01*
X0370171Y0021549D01*
X0370329Y0021549D01*
X0370487Y0021545D01*
X0370646Y0021537D01*
X0370803Y0021525D01*
X0370961Y0021509D01*
X0371118Y0021489D01*
X0371274Y0021465D01*
X0371430Y0021437D01*
X0371585Y0021406D01*
X0371740Y0021370D01*
X0371893Y0021331D01*
X0372045Y0021288D01*
X0372196Y0021241D01*
X0372346Y0021190D01*
X0372495Y0021135D01*
X0372642Y0021077D01*
X0372788Y0021015D01*
X0372932Y0020950D01*
X0373074Y0020880D01*
X0373215Y0020808D01*
X0373354Y0020731D01*
X0373490Y0020652D01*
X0373625Y0020568D01*
X0373758Y0020482D01*
X0373888Y0020392D01*
X0374016Y0020299D01*
X0374142Y0020203D01*
X0374265Y0020103D01*
X0374386Y0020001D01*
X0374504Y0019896D01*
X0374619Y0019787D01*
X0374732Y0019676D01*
X0374842Y0019562D01*
X0374949Y0019445D01*
X0375053Y0019326D01*
X0375154Y0019204D01*
X0375251Y0019079D01*
X0375346Y0018952D01*
X0375437Y0018823D01*
X0375526Y0018692D01*
X0375610Y0018558D01*
X0375692Y0018422D01*
X0375770Y0018285D01*
X0375844Y0018145D01*
X0375915Y0018003D01*
X0375983Y0017860D01*
X0376047Y0017715D01*
X0376107Y0017569D01*
X0376163Y0017421D01*
X0376216Y0017272D01*
X0376265Y0017121D01*
X0376310Y0016969D01*
X0376351Y0016816D01*
X0376389Y0016663D01*
X0376422Y0016508D01*
X0376452Y0016352D01*
X0376478Y0016196D01*
X0376499Y0016039D01*
X0376517Y0015882D01*
X0376531Y0015724D01*
X0376541Y0015566D01*
X0376547Y0015408D01*
X0376549Y0015250D01*
X0376547Y0015092D01*
X0376541Y0014934D01*
X0376531Y0014776D01*
X0376517Y0014618D01*
X0376499Y0014461D01*
X0376478Y0014304D01*
X0376452Y0014148D01*
X0376422Y0013992D01*
X0376389Y0013837D01*
X0376351Y0013684D01*
X0376310Y0013531D01*
X0376265Y0013379D01*
X0376216Y0013228D01*
X0376163Y0013079D01*
X0376107Y0012931D01*
X0376047Y0012785D01*
X0375983Y0012640D01*
X0375915Y0012497D01*
X0375844Y0012355D01*
X0375770Y0012215D01*
X0375692Y0012078D01*
X0375610Y0011942D01*
X0375526Y0011808D01*
X0375437Y0011677D01*
X0375346Y0011548D01*
X0375251Y0011421D01*
X0375154Y0011296D01*
X0375053Y0011174D01*
X0374949Y0011055D01*
X0374842Y0010938D01*
X0374732Y0010824D01*
X0374619Y0010713D01*
X0374504Y0010604D01*
X0374386Y0010499D01*
X0374265Y0010397D01*
X0374142Y0010297D01*
X0374016Y0010201D01*
X0373888Y0010108D01*
X0373758Y0010018D01*
X0373625Y0009932D01*
X0373490Y0009848D01*
X0373354Y0009769D01*
X0373215Y0009692D01*
X0373074Y0009620D01*
X0372932Y0009550D01*
X0372788Y0009485D01*
X0372642Y0009423D01*
X0372495Y0009365D01*
X0372346Y0009310D01*
X0372196Y0009259D01*
X0372045Y0009212D01*
X0371893Y0009169D01*
X0371740Y0009130D01*
X0371585Y0009094D01*
X0371430Y0009063D01*
X0371274Y0009035D01*
X0371118Y0009011D01*
X0370961Y0008991D01*
X0370803Y0008975D01*
X0370646Y0008963D01*
X0370487Y0008955D01*
X0370329Y0008951D01*
X0370171Y0008951D01*
X0370013Y0008955D01*
X0369854Y0008963D01*
X0369697Y0008975D01*
X0369539Y0008991D01*
X0369382Y0009011D01*
X0369226Y0009035D01*
X0369070Y0009063D01*
X0368915Y0009094D01*
X0368760Y0009130D01*
X0368607Y0009169D01*
X0368455Y0009212D01*
X0368304Y0009259D01*
X0368154Y0009310D01*
X0368005Y0009365D01*
X0367858Y0009423D01*
X0367712Y0009485D01*
X0367568Y0009550D01*
X0367426Y0009620D01*
X0367285Y0009692D01*
X0367146Y0009769D01*
X0367010Y0009848D01*
X0366875Y0009932D01*
X0366742Y0010018D01*
X0366612Y0010108D01*
X0366484Y0010201D01*
X0366358Y0010297D01*
X0366235Y0010397D01*
X0366114Y0010499D01*
X0365996Y0010604D01*
X0365881Y0010713D01*
X0365768Y0010824D01*
X0365658Y0010938D01*
X0365551Y0011055D01*
X0365447Y0011174D01*
X0365346Y0011296D01*
X0365249Y0011421D01*
X0365154Y0011548D01*
X0365063Y0011677D01*
X0364974Y0011808D01*
X0364890Y0011942D01*
X0364808Y0012078D01*
X0364730Y0012215D01*
X0364656Y0012355D01*
X0364585Y0012497D01*
X0364517Y0012640D01*
X0364453Y0012785D01*
X0364393Y0012931D01*
X0364337Y0013079D01*
X0364284Y0013228D01*
X0364235Y0013379D01*
X0364190Y0013531D01*
X0364149Y0013684D01*
X0364111Y0013837D01*
X0364078Y0013992D01*
X0364048Y0014148D01*
X0364022Y0014304D01*
X0364001Y0014461D01*
X0363983Y0014618D01*
X0363969Y0014776D01*
X0363959Y0014934D01*
X0363953Y0015092D01*
X0363951Y0015250D01*
X0129404Y0159148D02*
X0129406Y0159306D01*
X0129412Y0159464D01*
X0129422Y0159622D01*
X0129436Y0159780D01*
X0129454Y0159937D01*
X0129475Y0160094D01*
X0129501Y0160250D01*
X0129531Y0160406D01*
X0129564Y0160561D01*
X0129602Y0160714D01*
X0129643Y0160867D01*
X0129688Y0161019D01*
X0129737Y0161170D01*
X0129790Y0161319D01*
X0129846Y0161467D01*
X0129906Y0161613D01*
X0129970Y0161758D01*
X0130038Y0161901D01*
X0130109Y0162043D01*
X0130183Y0162183D01*
X0130261Y0162320D01*
X0130343Y0162456D01*
X0130427Y0162590D01*
X0130516Y0162721D01*
X0130607Y0162850D01*
X0130702Y0162977D01*
X0130799Y0163102D01*
X0130900Y0163224D01*
X0131004Y0163343D01*
X0131111Y0163460D01*
X0131221Y0163574D01*
X0131334Y0163685D01*
X0131449Y0163794D01*
X0131567Y0163899D01*
X0131688Y0164001D01*
X0131811Y0164101D01*
X0131937Y0164197D01*
X0132065Y0164290D01*
X0132195Y0164380D01*
X0132328Y0164466D01*
X0132463Y0164550D01*
X0132599Y0164629D01*
X0132738Y0164706D01*
X0132879Y0164778D01*
X0133021Y0164848D01*
X0133165Y0164913D01*
X0133311Y0164975D01*
X0133458Y0165033D01*
X0133607Y0165088D01*
X0133757Y0165139D01*
X0133908Y0165186D01*
X0134060Y0165229D01*
X0134213Y0165268D01*
X0134368Y0165304D01*
X0134523Y0165335D01*
X0134679Y0165363D01*
X0134835Y0165387D01*
X0134992Y0165407D01*
X0135150Y0165423D01*
X0135307Y0165435D01*
X0135466Y0165443D01*
X0135624Y0165447D01*
X0135782Y0165447D01*
X0135940Y0165443D01*
X0136099Y0165435D01*
X0136256Y0165423D01*
X0136414Y0165407D01*
X0136571Y0165387D01*
X0136727Y0165363D01*
X0136883Y0165335D01*
X0137038Y0165304D01*
X0137193Y0165268D01*
X0137346Y0165229D01*
X0137498Y0165186D01*
X0137649Y0165139D01*
X0137799Y0165088D01*
X0137948Y0165033D01*
X0138095Y0164975D01*
X0138241Y0164913D01*
X0138385Y0164848D01*
X0138527Y0164778D01*
X0138668Y0164706D01*
X0138807Y0164629D01*
X0138943Y0164550D01*
X0139078Y0164466D01*
X0139211Y0164380D01*
X0139341Y0164290D01*
X0139469Y0164197D01*
X0139595Y0164101D01*
X0139718Y0164001D01*
X0139839Y0163899D01*
X0139957Y0163794D01*
X0140072Y0163685D01*
X0140185Y0163574D01*
X0140295Y0163460D01*
X0140402Y0163343D01*
X0140506Y0163224D01*
X0140607Y0163102D01*
X0140704Y0162977D01*
X0140799Y0162850D01*
X0140890Y0162721D01*
X0140979Y0162590D01*
X0141063Y0162456D01*
X0141145Y0162320D01*
X0141223Y0162183D01*
X0141297Y0162043D01*
X0141368Y0161901D01*
X0141436Y0161758D01*
X0141500Y0161613D01*
X0141560Y0161467D01*
X0141616Y0161319D01*
X0141669Y0161170D01*
X0141718Y0161019D01*
X0141763Y0160867D01*
X0141804Y0160714D01*
X0141842Y0160561D01*
X0141875Y0160406D01*
X0141905Y0160250D01*
X0141931Y0160094D01*
X0141952Y0159937D01*
X0141970Y0159780D01*
X0141984Y0159622D01*
X0141994Y0159464D01*
X0142000Y0159306D01*
X0142002Y0159148D01*
X0142000Y0158990D01*
X0141994Y0158832D01*
X0141984Y0158674D01*
X0141970Y0158516D01*
X0141952Y0158359D01*
X0141931Y0158202D01*
X0141905Y0158046D01*
X0141875Y0157890D01*
X0141842Y0157735D01*
X0141804Y0157582D01*
X0141763Y0157429D01*
X0141718Y0157277D01*
X0141669Y0157126D01*
X0141616Y0156977D01*
X0141560Y0156829D01*
X0141500Y0156683D01*
X0141436Y0156538D01*
X0141368Y0156395D01*
X0141297Y0156253D01*
X0141223Y0156113D01*
X0141145Y0155976D01*
X0141063Y0155840D01*
X0140979Y0155706D01*
X0140890Y0155575D01*
X0140799Y0155446D01*
X0140704Y0155319D01*
X0140607Y0155194D01*
X0140506Y0155072D01*
X0140402Y0154953D01*
X0140295Y0154836D01*
X0140185Y0154722D01*
X0140072Y0154611D01*
X0139957Y0154502D01*
X0139839Y0154397D01*
X0139718Y0154295D01*
X0139595Y0154195D01*
X0139469Y0154099D01*
X0139341Y0154006D01*
X0139211Y0153916D01*
X0139078Y0153830D01*
X0138943Y0153746D01*
X0138807Y0153667D01*
X0138668Y0153590D01*
X0138527Y0153518D01*
X0138385Y0153448D01*
X0138241Y0153383D01*
X0138095Y0153321D01*
X0137948Y0153263D01*
X0137799Y0153208D01*
X0137649Y0153157D01*
X0137498Y0153110D01*
X0137346Y0153067D01*
X0137193Y0153028D01*
X0137038Y0152992D01*
X0136883Y0152961D01*
X0136727Y0152933D01*
X0136571Y0152909D01*
X0136414Y0152889D01*
X0136256Y0152873D01*
X0136099Y0152861D01*
X0135940Y0152853D01*
X0135782Y0152849D01*
X0135624Y0152849D01*
X0135466Y0152853D01*
X0135307Y0152861D01*
X0135150Y0152873D01*
X0134992Y0152889D01*
X0134835Y0152909D01*
X0134679Y0152933D01*
X0134523Y0152961D01*
X0134368Y0152992D01*
X0134213Y0153028D01*
X0134060Y0153067D01*
X0133908Y0153110D01*
X0133757Y0153157D01*
X0133607Y0153208D01*
X0133458Y0153263D01*
X0133311Y0153321D01*
X0133165Y0153383D01*
X0133021Y0153448D01*
X0132879Y0153518D01*
X0132738Y0153590D01*
X0132599Y0153667D01*
X0132463Y0153746D01*
X0132328Y0153830D01*
X0132195Y0153916D01*
X0132065Y0154006D01*
X0131937Y0154099D01*
X0131811Y0154195D01*
X0131688Y0154295D01*
X0131567Y0154397D01*
X0131449Y0154502D01*
X0131334Y0154611D01*
X0131221Y0154722D01*
X0131111Y0154836D01*
X0131004Y0154953D01*
X0130900Y0155072D01*
X0130799Y0155194D01*
X0130702Y0155319D01*
X0130607Y0155446D01*
X0130516Y0155575D01*
X0130427Y0155706D01*
X0130343Y0155840D01*
X0130261Y0155976D01*
X0130183Y0156113D01*
X0130109Y0156253D01*
X0130038Y0156395D01*
X0129970Y0156538D01*
X0129906Y0156683D01*
X0129846Y0156829D01*
X0129790Y0156977D01*
X0129737Y0157126D01*
X0129688Y0157277D01*
X0129643Y0157429D01*
X0129602Y0157582D01*
X0129564Y0157735D01*
X0129531Y0157890D01*
X0129501Y0158046D01*
X0129475Y0158202D01*
X0129454Y0158359D01*
X0129436Y0158516D01*
X0129422Y0158674D01*
X0129412Y0158832D01*
X0129406Y0158990D01*
X0129404Y0159148D01*
X0123951Y0135250D02*
X0123953Y0135408D01*
X0123959Y0135566D01*
X0123969Y0135724D01*
X0123983Y0135882D01*
X0124001Y0136039D01*
X0124022Y0136196D01*
X0124048Y0136352D01*
X0124078Y0136508D01*
X0124111Y0136663D01*
X0124149Y0136816D01*
X0124190Y0136969D01*
X0124235Y0137121D01*
X0124284Y0137272D01*
X0124337Y0137421D01*
X0124393Y0137569D01*
X0124453Y0137715D01*
X0124517Y0137860D01*
X0124585Y0138003D01*
X0124656Y0138145D01*
X0124730Y0138285D01*
X0124808Y0138422D01*
X0124890Y0138558D01*
X0124974Y0138692D01*
X0125063Y0138823D01*
X0125154Y0138952D01*
X0125249Y0139079D01*
X0125346Y0139204D01*
X0125447Y0139326D01*
X0125551Y0139445D01*
X0125658Y0139562D01*
X0125768Y0139676D01*
X0125881Y0139787D01*
X0125996Y0139896D01*
X0126114Y0140001D01*
X0126235Y0140103D01*
X0126358Y0140203D01*
X0126484Y0140299D01*
X0126612Y0140392D01*
X0126742Y0140482D01*
X0126875Y0140568D01*
X0127010Y0140652D01*
X0127146Y0140731D01*
X0127285Y0140808D01*
X0127426Y0140880D01*
X0127568Y0140950D01*
X0127712Y0141015D01*
X0127858Y0141077D01*
X0128005Y0141135D01*
X0128154Y0141190D01*
X0128304Y0141241D01*
X0128455Y0141288D01*
X0128607Y0141331D01*
X0128760Y0141370D01*
X0128915Y0141406D01*
X0129070Y0141437D01*
X0129226Y0141465D01*
X0129382Y0141489D01*
X0129539Y0141509D01*
X0129697Y0141525D01*
X0129854Y0141537D01*
X0130013Y0141545D01*
X0130171Y0141549D01*
X0130329Y0141549D01*
X0130487Y0141545D01*
X0130646Y0141537D01*
X0130803Y0141525D01*
X0130961Y0141509D01*
X0131118Y0141489D01*
X0131274Y0141465D01*
X0131430Y0141437D01*
X0131585Y0141406D01*
X0131740Y0141370D01*
X0131893Y0141331D01*
X0132045Y0141288D01*
X0132196Y0141241D01*
X0132346Y0141190D01*
X0132495Y0141135D01*
X0132642Y0141077D01*
X0132788Y0141015D01*
X0132932Y0140950D01*
X0133074Y0140880D01*
X0133215Y0140808D01*
X0133354Y0140731D01*
X0133490Y0140652D01*
X0133625Y0140568D01*
X0133758Y0140482D01*
X0133888Y0140392D01*
X0134016Y0140299D01*
X0134142Y0140203D01*
X0134265Y0140103D01*
X0134386Y0140001D01*
X0134504Y0139896D01*
X0134619Y0139787D01*
X0134732Y0139676D01*
X0134842Y0139562D01*
X0134949Y0139445D01*
X0135053Y0139326D01*
X0135154Y0139204D01*
X0135251Y0139079D01*
X0135346Y0138952D01*
X0135437Y0138823D01*
X0135526Y0138692D01*
X0135610Y0138558D01*
X0135692Y0138422D01*
X0135770Y0138285D01*
X0135844Y0138145D01*
X0135915Y0138003D01*
X0135983Y0137860D01*
X0136047Y0137715D01*
X0136107Y0137569D01*
X0136163Y0137421D01*
X0136216Y0137272D01*
X0136265Y0137121D01*
X0136310Y0136969D01*
X0136351Y0136816D01*
X0136389Y0136663D01*
X0136422Y0136508D01*
X0136452Y0136352D01*
X0136478Y0136196D01*
X0136499Y0136039D01*
X0136517Y0135882D01*
X0136531Y0135724D01*
X0136541Y0135566D01*
X0136547Y0135408D01*
X0136549Y0135250D01*
X0136547Y0135092D01*
X0136541Y0134934D01*
X0136531Y0134776D01*
X0136517Y0134618D01*
X0136499Y0134461D01*
X0136478Y0134304D01*
X0136452Y0134148D01*
X0136422Y0133992D01*
X0136389Y0133837D01*
X0136351Y0133684D01*
X0136310Y0133531D01*
X0136265Y0133379D01*
X0136216Y0133228D01*
X0136163Y0133079D01*
X0136107Y0132931D01*
X0136047Y0132785D01*
X0135983Y0132640D01*
X0135915Y0132497D01*
X0135844Y0132355D01*
X0135770Y0132215D01*
X0135692Y0132078D01*
X0135610Y0131942D01*
X0135526Y0131808D01*
X0135437Y0131677D01*
X0135346Y0131548D01*
X0135251Y0131421D01*
X0135154Y0131296D01*
X0135053Y0131174D01*
X0134949Y0131055D01*
X0134842Y0130938D01*
X0134732Y0130824D01*
X0134619Y0130713D01*
X0134504Y0130604D01*
X0134386Y0130499D01*
X0134265Y0130397D01*
X0134142Y0130297D01*
X0134016Y0130201D01*
X0133888Y0130108D01*
X0133758Y0130018D01*
X0133625Y0129932D01*
X0133490Y0129848D01*
X0133354Y0129769D01*
X0133215Y0129692D01*
X0133074Y0129620D01*
X0132932Y0129550D01*
X0132788Y0129485D01*
X0132642Y0129423D01*
X0132495Y0129365D01*
X0132346Y0129310D01*
X0132196Y0129259D01*
X0132045Y0129212D01*
X0131893Y0129169D01*
X0131740Y0129130D01*
X0131585Y0129094D01*
X0131430Y0129063D01*
X0131274Y0129035D01*
X0131118Y0129011D01*
X0130961Y0128991D01*
X0130803Y0128975D01*
X0130646Y0128963D01*
X0130487Y0128955D01*
X0130329Y0128951D01*
X0130171Y0128951D01*
X0130013Y0128955D01*
X0129854Y0128963D01*
X0129697Y0128975D01*
X0129539Y0128991D01*
X0129382Y0129011D01*
X0129226Y0129035D01*
X0129070Y0129063D01*
X0128915Y0129094D01*
X0128760Y0129130D01*
X0128607Y0129169D01*
X0128455Y0129212D01*
X0128304Y0129259D01*
X0128154Y0129310D01*
X0128005Y0129365D01*
X0127858Y0129423D01*
X0127712Y0129485D01*
X0127568Y0129550D01*
X0127426Y0129620D01*
X0127285Y0129692D01*
X0127146Y0129769D01*
X0127010Y0129848D01*
X0126875Y0129932D01*
X0126742Y0130018D01*
X0126612Y0130108D01*
X0126484Y0130201D01*
X0126358Y0130297D01*
X0126235Y0130397D01*
X0126114Y0130499D01*
X0125996Y0130604D01*
X0125881Y0130713D01*
X0125768Y0130824D01*
X0125658Y0130938D01*
X0125551Y0131055D01*
X0125447Y0131174D01*
X0125346Y0131296D01*
X0125249Y0131421D01*
X0125154Y0131548D01*
X0125063Y0131677D01*
X0124974Y0131808D01*
X0124890Y0131942D01*
X0124808Y0132078D01*
X0124730Y0132215D01*
X0124656Y0132355D01*
X0124585Y0132497D01*
X0124517Y0132640D01*
X0124453Y0132785D01*
X0124393Y0132931D01*
X0124337Y0133079D01*
X0124284Y0133228D01*
X0124235Y0133379D01*
X0124190Y0133531D01*
X0124149Y0133684D01*
X0124111Y0133837D01*
X0124078Y0133992D01*
X0124048Y0134148D01*
X0124022Y0134304D01*
X0124001Y0134461D01*
X0123983Y0134618D01*
X0123969Y0134776D01*
X0123959Y0134934D01*
X0123953Y0135092D01*
X0123951Y0135250D01*
X0129404Y0204148D02*
X0129406Y0204306D01*
X0129412Y0204464D01*
X0129422Y0204622D01*
X0129436Y0204780D01*
X0129454Y0204937D01*
X0129475Y0205094D01*
X0129501Y0205250D01*
X0129531Y0205406D01*
X0129564Y0205561D01*
X0129602Y0205714D01*
X0129643Y0205867D01*
X0129688Y0206019D01*
X0129737Y0206170D01*
X0129790Y0206319D01*
X0129846Y0206467D01*
X0129906Y0206613D01*
X0129970Y0206758D01*
X0130038Y0206901D01*
X0130109Y0207043D01*
X0130183Y0207183D01*
X0130261Y0207320D01*
X0130343Y0207456D01*
X0130427Y0207590D01*
X0130516Y0207721D01*
X0130607Y0207850D01*
X0130702Y0207977D01*
X0130799Y0208102D01*
X0130900Y0208224D01*
X0131004Y0208343D01*
X0131111Y0208460D01*
X0131221Y0208574D01*
X0131334Y0208685D01*
X0131449Y0208794D01*
X0131567Y0208899D01*
X0131688Y0209001D01*
X0131811Y0209101D01*
X0131937Y0209197D01*
X0132065Y0209290D01*
X0132195Y0209380D01*
X0132328Y0209466D01*
X0132463Y0209550D01*
X0132599Y0209629D01*
X0132738Y0209706D01*
X0132879Y0209778D01*
X0133021Y0209848D01*
X0133165Y0209913D01*
X0133311Y0209975D01*
X0133458Y0210033D01*
X0133607Y0210088D01*
X0133757Y0210139D01*
X0133908Y0210186D01*
X0134060Y0210229D01*
X0134213Y0210268D01*
X0134368Y0210304D01*
X0134523Y0210335D01*
X0134679Y0210363D01*
X0134835Y0210387D01*
X0134992Y0210407D01*
X0135150Y0210423D01*
X0135307Y0210435D01*
X0135466Y0210443D01*
X0135624Y0210447D01*
X0135782Y0210447D01*
X0135940Y0210443D01*
X0136099Y0210435D01*
X0136256Y0210423D01*
X0136414Y0210407D01*
X0136571Y0210387D01*
X0136727Y0210363D01*
X0136883Y0210335D01*
X0137038Y0210304D01*
X0137193Y0210268D01*
X0137346Y0210229D01*
X0137498Y0210186D01*
X0137649Y0210139D01*
X0137799Y0210088D01*
X0137948Y0210033D01*
X0138095Y0209975D01*
X0138241Y0209913D01*
X0138385Y0209848D01*
X0138527Y0209778D01*
X0138668Y0209706D01*
X0138807Y0209629D01*
X0138943Y0209550D01*
X0139078Y0209466D01*
X0139211Y0209380D01*
X0139341Y0209290D01*
X0139469Y0209197D01*
X0139595Y0209101D01*
X0139718Y0209001D01*
X0139839Y0208899D01*
X0139957Y0208794D01*
X0140072Y0208685D01*
X0140185Y0208574D01*
X0140295Y0208460D01*
X0140402Y0208343D01*
X0140506Y0208224D01*
X0140607Y0208102D01*
X0140704Y0207977D01*
X0140799Y0207850D01*
X0140890Y0207721D01*
X0140979Y0207590D01*
X0141063Y0207456D01*
X0141145Y0207320D01*
X0141223Y0207183D01*
X0141297Y0207043D01*
X0141368Y0206901D01*
X0141436Y0206758D01*
X0141500Y0206613D01*
X0141560Y0206467D01*
X0141616Y0206319D01*
X0141669Y0206170D01*
X0141718Y0206019D01*
X0141763Y0205867D01*
X0141804Y0205714D01*
X0141842Y0205561D01*
X0141875Y0205406D01*
X0141905Y0205250D01*
X0141931Y0205094D01*
X0141952Y0204937D01*
X0141970Y0204780D01*
X0141984Y0204622D01*
X0141994Y0204464D01*
X0142000Y0204306D01*
X0142002Y0204148D01*
X0142000Y0203990D01*
X0141994Y0203832D01*
X0141984Y0203674D01*
X0141970Y0203516D01*
X0141952Y0203359D01*
X0141931Y0203202D01*
X0141905Y0203046D01*
X0141875Y0202890D01*
X0141842Y0202735D01*
X0141804Y0202582D01*
X0141763Y0202429D01*
X0141718Y0202277D01*
X0141669Y0202126D01*
X0141616Y0201977D01*
X0141560Y0201829D01*
X0141500Y0201683D01*
X0141436Y0201538D01*
X0141368Y0201395D01*
X0141297Y0201253D01*
X0141223Y0201113D01*
X0141145Y0200976D01*
X0141063Y0200840D01*
X0140979Y0200706D01*
X0140890Y0200575D01*
X0140799Y0200446D01*
X0140704Y0200319D01*
X0140607Y0200194D01*
X0140506Y0200072D01*
X0140402Y0199953D01*
X0140295Y0199836D01*
X0140185Y0199722D01*
X0140072Y0199611D01*
X0139957Y0199502D01*
X0139839Y0199397D01*
X0139718Y0199295D01*
X0139595Y0199195D01*
X0139469Y0199099D01*
X0139341Y0199006D01*
X0139211Y0198916D01*
X0139078Y0198830D01*
X0138943Y0198746D01*
X0138807Y0198667D01*
X0138668Y0198590D01*
X0138527Y0198518D01*
X0138385Y0198448D01*
X0138241Y0198383D01*
X0138095Y0198321D01*
X0137948Y0198263D01*
X0137799Y0198208D01*
X0137649Y0198157D01*
X0137498Y0198110D01*
X0137346Y0198067D01*
X0137193Y0198028D01*
X0137038Y0197992D01*
X0136883Y0197961D01*
X0136727Y0197933D01*
X0136571Y0197909D01*
X0136414Y0197889D01*
X0136256Y0197873D01*
X0136099Y0197861D01*
X0135940Y0197853D01*
X0135782Y0197849D01*
X0135624Y0197849D01*
X0135466Y0197853D01*
X0135307Y0197861D01*
X0135150Y0197873D01*
X0134992Y0197889D01*
X0134835Y0197909D01*
X0134679Y0197933D01*
X0134523Y0197961D01*
X0134368Y0197992D01*
X0134213Y0198028D01*
X0134060Y0198067D01*
X0133908Y0198110D01*
X0133757Y0198157D01*
X0133607Y0198208D01*
X0133458Y0198263D01*
X0133311Y0198321D01*
X0133165Y0198383D01*
X0133021Y0198448D01*
X0132879Y0198518D01*
X0132738Y0198590D01*
X0132599Y0198667D01*
X0132463Y0198746D01*
X0132328Y0198830D01*
X0132195Y0198916D01*
X0132065Y0199006D01*
X0131937Y0199099D01*
X0131811Y0199195D01*
X0131688Y0199295D01*
X0131567Y0199397D01*
X0131449Y0199502D01*
X0131334Y0199611D01*
X0131221Y0199722D01*
X0131111Y0199836D01*
X0131004Y0199953D01*
X0130900Y0200072D01*
X0130799Y0200194D01*
X0130702Y0200319D01*
X0130607Y0200446D01*
X0130516Y0200575D01*
X0130427Y0200706D01*
X0130343Y0200840D01*
X0130261Y0200976D01*
X0130183Y0201113D01*
X0130109Y0201253D01*
X0130038Y0201395D01*
X0129970Y0201538D01*
X0129906Y0201683D01*
X0129846Y0201829D01*
X0129790Y0201977D01*
X0129737Y0202126D01*
X0129688Y0202277D01*
X0129643Y0202429D01*
X0129602Y0202582D01*
X0129564Y0202735D01*
X0129531Y0202890D01*
X0129501Y0203046D01*
X0129475Y0203202D01*
X0129454Y0203359D01*
X0129436Y0203516D01*
X0129422Y0203674D01*
X0129412Y0203832D01*
X0129406Y0203990D01*
X0129404Y0204148D01*
X0129404Y0231648D02*
X0129406Y0231806D01*
X0129412Y0231964D01*
X0129422Y0232122D01*
X0129436Y0232280D01*
X0129454Y0232437D01*
X0129475Y0232594D01*
X0129501Y0232750D01*
X0129531Y0232906D01*
X0129564Y0233061D01*
X0129602Y0233214D01*
X0129643Y0233367D01*
X0129688Y0233519D01*
X0129737Y0233670D01*
X0129790Y0233819D01*
X0129846Y0233967D01*
X0129906Y0234113D01*
X0129970Y0234258D01*
X0130038Y0234401D01*
X0130109Y0234543D01*
X0130183Y0234683D01*
X0130261Y0234820D01*
X0130343Y0234956D01*
X0130427Y0235090D01*
X0130516Y0235221D01*
X0130607Y0235350D01*
X0130702Y0235477D01*
X0130799Y0235602D01*
X0130900Y0235724D01*
X0131004Y0235843D01*
X0131111Y0235960D01*
X0131221Y0236074D01*
X0131334Y0236185D01*
X0131449Y0236294D01*
X0131567Y0236399D01*
X0131688Y0236501D01*
X0131811Y0236601D01*
X0131937Y0236697D01*
X0132065Y0236790D01*
X0132195Y0236880D01*
X0132328Y0236966D01*
X0132463Y0237050D01*
X0132599Y0237129D01*
X0132738Y0237206D01*
X0132879Y0237278D01*
X0133021Y0237348D01*
X0133165Y0237413D01*
X0133311Y0237475D01*
X0133458Y0237533D01*
X0133607Y0237588D01*
X0133757Y0237639D01*
X0133908Y0237686D01*
X0134060Y0237729D01*
X0134213Y0237768D01*
X0134368Y0237804D01*
X0134523Y0237835D01*
X0134679Y0237863D01*
X0134835Y0237887D01*
X0134992Y0237907D01*
X0135150Y0237923D01*
X0135307Y0237935D01*
X0135466Y0237943D01*
X0135624Y0237947D01*
X0135782Y0237947D01*
X0135940Y0237943D01*
X0136099Y0237935D01*
X0136256Y0237923D01*
X0136414Y0237907D01*
X0136571Y0237887D01*
X0136727Y0237863D01*
X0136883Y0237835D01*
X0137038Y0237804D01*
X0137193Y0237768D01*
X0137346Y0237729D01*
X0137498Y0237686D01*
X0137649Y0237639D01*
X0137799Y0237588D01*
X0137948Y0237533D01*
X0138095Y0237475D01*
X0138241Y0237413D01*
X0138385Y0237348D01*
X0138527Y0237278D01*
X0138668Y0237206D01*
X0138807Y0237129D01*
X0138943Y0237050D01*
X0139078Y0236966D01*
X0139211Y0236880D01*
X0139341Y0236790D01*
X0139469Y0236697D01*
X0139595Y0236601D01*
X0139718Y0236501D01*
X0139839Y0236399D01*
X0139957Y0236294D01*
X0140072Y0236185D01*
X0140185Y0236074D01*
X0140295Y0235960D01*
X0140402Y0235843D01*
X0140506Y0235724D01*
X0140607Y0235602D01*
X0140704Y0235477D01*
X0140799Y0235350D01*
X0140890Y0235221D01*
X0140979Y0235090D01*
X0141063Y0234956D01*
X0141145Y0234820D01*
X0141223Y0234683D01*
X0141297Y0234543D01*
X0141368Y0234401D01*
X0141436Y0234258D01*
X0141500Y0234113D01*
X0141560Y0233967D01*
X0141616Y0233819D01*
X0141669Y0233670D01*
X0141718Y0233519D01*
X0141763Y0233367D01*
X0141804Y0233214D01*
X0141842Y0233061D01*
X0141875Y0232906D01*
X0141905Y0232750D01*
X0141931Y0232594D01*
X0141952Y0232437D01*
X0141970Y0232280D01*
X0141984Y0232122D01*
X0141994Y0231964D01*
X0142000Y0231806D01*
X0142002Y0231648D01*
X0142000Y0231490D01*
X0141994Y0231332D01*
X0141984Y0231174D01*
X0141970Y0231016D01*
X0141952Y0230859D01*
X0141931Y0230702D01*
X0141905Y0230546D01*
X0141875Y0230390D01*
X0141842Y0230235D01*
X0141804Y0230082D01*
X0141763Y0229929D01*
X0141718Y0229777D01*
X0141669Y0229626D01*
X0141616Y0229477D01*
X0141560Y0229329D01*
X0141500Y0229183D01*
X0141436Y0229038D01*
X0141368Y0228895D01*
X0141297Y0228753D01*
X0141223Y0228613D01*
X0141145Y0228476D01*
X0141063Y0228340D01*
X0140979Y0228206D01*
X0140890Y0228075D01*
X0140799Y0227946D01*
X0140704Y0227819D01*
X0140607Y0227694D01*
X0140506Y0227572D01*
X0140402Y0227453D01*
X0140295Y0227336D01*
X0140185Y0227222D01*
X0140072Y0227111D01*
X0139957Y0227002D01*
X0139839Y0226897D01*
X0139718Y0226795D01*
X0139595Y0226695D01*
X0139469Y0226599D01*
X0139341Y0226506D01*
X0139211Y0226416D01*
X0139078Y0226330D01*
X0138943Y0226246D01*
X0138807Y0226167D01*
X0138668Y0226090D01*
X0138527Y0226018D01*
X0138385Y0225948D01*
X0138241Y0225883D01*
X0138095Y0225821D01*
X0137948Y0225763D01*
X0137799Y0225708D01*
X0137649Y0225657D01*
X0137498Y0225610D01*
X0137346Y0225567D01*
X0137193Y0225528D01*
X0137038Y0225492D01*
X0136883Y0225461D01*
X0136727Y0225433D01*
X0136571Y0225409D01*
X0136414Y0225389D01*
X0136256Y0225373D01*
X0136099Y0225361D01*
X0135940Y0225353D01*
X0135782Y0225349D01*
X0135624Y0225349D01*
X0135466Y0225353D01*
X0135307Y0225361D01*
X0135150Y0225373D01*
X0134992Y0225389D01*
X0134835Y0225409D01*
X0134679Y0225433D01*
X0134523Y0225461D01*
X0134368Y0225492D01*
X0134213Y0225528D01*
X0134060Y0225567D01*
X0133908Y0225610D01*
X0133757Y0225657D01*
X0133607Y0225708D01*
X0133458Y0225763D01*
X0133311Y0225821D01*
X0133165Y0225883D01*
X0133021Y0225948D01*
X0132879Y0226018D01*
X0132738Y0226090D01*
X0132599Y0226167D01*
X0132463Y0226246D01*
X0132328Y0226330D01*
X0132195Y0226416D01*
X0132065Y0226506D01*
X0131937Y0226599D01*
X0131811Y0226695D01*
X0131688Y0226795D01*
X0131567Y0226897D01*
X0131449Y0227002D01*
X0131334Y0227111D01*
X0131221Y0227222D01*
X0131111Y0227336D01*
X0131004Y0227453D01*
X0130900Y0227572D01*
X0130799Y0227694D01*
X0130702Y0227819D01*
X0130607Y0227946D01*
X0130516Y0228075D01*
X0130427Y0228206D01*
X0130343Y0228340D01*
X0130261Y0228476D01*
X0130183Y0228613D01*
X0130109Y0228753D01*
X0130038Y0228895D01*
X0129970Y0229038D01*
X0129906Y0229183D01*
X0129846Y0229329D01*
X0129790Y0229477D01*
X0129737Y0229626D01*
X0129688Y0229777D01*
X0129643Y0229929D01*
X0129602Y0230082D01*
X0129564Y0230235D01*
X0129531Y0230390D01*
X0129501Y0230546D01*
X0129475Y0230702D01*
X0129454Y0230859D01*
X0129436Y0231016D01*
X0129422Y0231174D01*
X0129412Y0231332D01*
X0129406Y0231490D01*
X0129404Y0231648D01*
X0129404Y0276648D02*
X0129406Y0276806D01*
X0129412Y0276964D01*
X0129422Y0277122D01*
X0129436Y0277280D01*
X0129454Y0277437D01*
X0129475Y0277594D01*
X0129501Y0277750D01*
X0129531Y0277906D01*
X0129564Y0278061D01*
X0129602Y0278214D01*
X0129643Y0278367D01*
X0129688Y0278519D01*
X0129737Y0278670D01*
X0129790Y0278819D01*
X0129846Y0278967D01*
X0129906Y0279113D01*
X0129970Y0279258D01*
X0130038Y0279401D01*
X0130109Y0279543D01*
X0130183Y0279683D01*
X0130261Y0279820D01*
X0130343Y0279956D01*
X0130427Y0280090D01*
X0130516Y0280221D01*
X0130607Y0280350D01*
X0130702Y0280477D01*
X0130799Y0280602D01*
X0130900Y0280724D01*
X0131004Y0280843D01*
X0131111Y0280960D01*
X0131221Y0281074D01*
X0131334Y0281185D01*
X0131449Y0281294D01*
X0131567Y0281399D01*
X0131688Y0281501D01*
X0131811Y0281601D01*
X0131937Y0281697D01*
X0132065Y0281790D01*
X0132195Y0281880D01*
X0132328Y0281966D01*
X0132463Y0282050D01*
X0132599Y0282129D01*
X0132738Y0282206D01*
X0132879Y0282278D01*
X0133021Y0282348D01*
X0133165Y0282413D01*
X0133311Y0282475D01*
X0133458Y0282533D01*
X0133607Y0282588D01*
X0133757Y0282639D01*
X0133908Y0282686D01*
X0134060Y0282729D01*
X0134213Y0282768D01*
X0134368Y0282804D01*
X0134523Y0282835D01*
X0134679Y0282863D01*
X0134835Y0282887D01*
X0134992Y0282907D01*
X0135150Y0282923D01*
X0135307Y0282935D01*
X0135466Y0282943D01*
X0135624Y0282947D01*
X0135782Y0282947D01*
X0135940Y0282943D01*
X0136099Y0282935D01*
X0136256Y0282923D01*
X0136414Y0282907D01*
X0136571Y0282887D01*
X0136727Y0282863D01*
X0136883Y0282835D01*
X0137038Y0282804D01*
X0137193Y0282768D01*
X0137346Y0282729D01*
X0137498Y0282686D01*
X0137649Y0282639D01*
X0137799Y0282588D01*
X0137948Y0282533D01*
X0138095Y0282475D01*
X0138241Y0282413D01*
X0138385Y0282348D01*
X0138527Y0282278D01*
X0138668Y0282206D01*
X0138807Y0282129D01*
X0138943Y0282050D01*
X0139078Y0281966D01*
X0139211Y0281880D01*
X0139341Y0281790D01*
X0139469Y0281697D01*
X0139595Y0281601D01*
X0139718Y0281501D01*
X0139839Y0281399D01*
X0139957Y0281294D01*
X0140072Y0281185D01*
X0140185Y0281074D01*
X0140295Y0280960D01*
X0140402Y0280843D01*
X0140506Y0280724D01*
X0140607Y0280602D01*
X0140704Y0280477D01*
X0140799Y0280350D01*
X0140890Y0280221D01*
X0140979Y0280090D01*
X0141063Y0279956D01*
X0141145Y0279820D01*
X0141223Y0279683D01*
X0141297Y0279543D01*
X0141368Y0279401D01*
X0141436Y0279258D01*
X0141500Y0279113D01*
X0141560Y0278967D01*
X0141616Y0278819D01*
X0141669Y0278670D01*
X0141718Y0278519D01*
X0141763Y0278367D01*
X0141804Y0278214D01*
X0141842Y0278061D01*
X0141875Y0277906D01*
X0141905Y0277750D01*
X0141931Y0277594D01*
X0141952Y0277437D01*
X0141970Y0277280D01*
X0141984Y0277122D01*
X0141994Y0276964D01*
X0142000Y0276806D01*
X0142002Y0276648D01*
X0142000Y0276490D01*
X0141994Y0276332D01*
X0141984Y0276174D01*
X0141970Y0276016D01*
X0141952Y0275859D01*
X0141931Y0275702D01*
X0141905Y0275546D01*
X0141875Y0275390D01*
X0141842Y0275235D01*
X0141804Y0275082D01*
X0141763Y0274929D01*
X0141718Y0274777D01*
X0141669Y0274626D01*
X0141616Y0274477D01*
X0141560Y0274329D01*
X0141500Y0274183D01*
X0141436Y0274038D01*
X0141368Y0273895D01*
X0141297Y0273753D01*
X0141223Y0273613D01*
X0141145Y0273476D01*
X0141063Y0273340D01*
X0140979Y0273206D01*
X0140890Y0273075D01*
X0140799Y0272946D01*
X0140704Y0272819D01*
X0140607Y0272694D01*
X0140506Y0272572D01*
X0140402Y0272453D01*
X0140295Y0272336D01*
X0140185Y0272222D01*
X0140072Y0272111D01*
X0139957Y0272002D01*
X0139839Y0271897D01*
X0139718Y0271795D01*
X0139595Y0271695D01*
X0139469Y0271599D01*
X0139341Y0271506D01*
X0139211Y0271416D01*
X0139078Y0271330D01*
X0138943Y0271246D01*
X0138807Y0271167D01*
X0138668Y0271090D01*
X0138527Y0271018D01*
X0138385Y0270948D01*
X0138241Y0270883D01*
X0138095Y0270821D01*
X0137948Y0270763D01*
X0137799Y0270708D01*
X0137649Y0270657D01*
X0137498Y0270610D01*
X0137346Y0270567D01*
X0137193Y0270528D01*
X0137038Y0270492D01*
X0136883Y0270461D01*
X0136727Y0270433D01*
X0136571Y0270409D01*
X0136414Y0270389D01*
X0136256Y0270373D01*
X0136099Y0270361D01*
X0135940Y0270353D01*
X0135782Y0270349D01*
X0135624Y0270349D01*
X0135466Y0270353D01*
X0135307Y0270361D01*
X0135150Y0270373D01*
X0134992Y0270389D01*
X0134835Y0270409D01*
X0134679Y0270433D01*
X0134523Y0270461D01*
X0134368Y0270492D01*
X0134213Y0270528D01*
X0134060Y0270567D01*
X0133908Y0270610D01*
X0133757Y0270657D01*
X0133607Y0270708D01*
X0133458Y0270763D01*
X0133311Y0270821D01*
X0133165Y0270883D01*
X0133021Y0270948D01*
X0132879Y0271018D01*
X0132738Y0271090D01*
X0132599Y0271167D01*
X0132463Y0271246D01*
X0132328Y0271330D01*
X0132195Y0271416D01*
X0132065Y0271506D01*
X0131937Y0271599D01*
X0131811Y0271695D01*
X0131688Y0271795D01*
X0131567Y0271897D01*
X0131449Y0272002D01*
X0131334Y0272111D01*
X0131221Y0272222D01*
X0131111Y0272336D01*
X0131004Y0272453D01*
X0130900Y0272572D01*
X0130799Y0272694D01*
X0130702Y0272819D01*
X0130607Y0272946D01*
X0130516Y0273075D01*
X0130427Y0273206D01*
X0130343Y0273340D01*
X0130261Y0273476D01*
X0130183Y0273613D01*
X0130109Y0273753D01*
X0130038Y0273895D01*
X0129970Y0274038D01*
X0129906Y0274183D01*
X0129846Y0274329D01*
X0129790Y0274477D01*
X0129737Y0274626D01*
X0129688Y0274777D01*
X0129643Y0274929D01*
X0129602Y0275082D01*
X0129564Y0275235D01*
X0129531Y0275390D01*
X0129501Y0275546D01*
X0129475Y0275702D01*
X0129454Y0275859D01*
X0129436Y0276016D01*
X0129422Y0276174D01*
X0129412Y0276332D01*
X0129406Y0276490D01*
X0129404Y0276648D01*
X0129404Y0304148D02*
X0129406Y0304306D01*
X0129412Y0304464D01*
X0129422Y0304622D01*
X0129436Y0304780D01*
X0129454Y0304937D01*
X0129475Y0305094D01*
X0129501Y0305250D01*
X0129531Y0305406D01*
X0129564Y0305561D01*
X0129602Y0305714D01*
X0129643Y0305867D01*
X0129688Y0306019D01*
X0129737Y0306170D01*
X0129790Y0306319D01*
X0129846Y0306467D01*
X0129906Y0306613D01*
X0129970Y0306758D01*
X0130038Y0306901D01*
X0130109Y0307043D01*
X0130183Y0307183D01*
X0130261Y0307320D01*
X0130343Y0307456D01*
X0130427Y0307590D01*
X0130516Y0307721D01*
X0130607Y0307850D01*
X0130702Y0307977D01*
X0130799Y0308102D01*
X0130900Y0308224D01*
X0131004Y0308343D01*
X0131111Y0308460D01*
X0131221Y0308574D01*
X0131334Y0308685D01*
X0131449Y0308794D01*
X0131567Y0308899D01*
X0131688Y0309001D01*
X0131811Y0309101D01*
X0131937Y0309197D01*
X0132065Y0309290D01*
X0132195Y0309380D01*
X0132328Y0309466D01*
X0132463Y0309550D01*
X0132599Y0309629D01*
X0132738Y0309706D01*
X0132879Y0309778D01*
X0133021Y0309848D01*
X0133165Y0309913D01*
X0133311Y0309975D01*
X0133458Y0310033D01*
X0133607Y0310088D01*
X0133757Y0310139D01*
X0133908Y0310186D01*
X0134060Y0310229D01*
X0134213Y0310268D01*
X0134368Y0310304D01*
X0134523Y0310335D01*
X0134679Y0310363D01*
X0134835Y0310387D01*
X0134992Y0310407D01*
X0135150Y0310423D01*
X0135307Y0310435D01*
X0135466Y0310443D01*
X0135624Y0310447D01*
X0135782Y0310447D01*
X0135940Y0310443D01*
X0136099Y0310435D01*
X0136256Y0310423D01*
X0136414Y0310407D01*
X0136571Y0310387D01*
X0136727Y0310363D01*
X0136883Y0310335D01*
X0137038Y0310304D01*
X0137193Y0310268D01*
X0137346Y0310229D01*
X0137498Y0310186D01*
X0137649Y0310139D01*
X0137799Y0310088D01*
X0137948Y0310033D01*
X0138095Y0309975D01*
X0138241Y0309913D01*
X0138385Y0309848D01*
X0138527Y0309778D01*
X0138668Y0309706D01*
X0138807Y0309629D01*
X0138943Y0309550D01*
X0139078Y0309466D01*
X0139211Y0309380D01*
X0139341Y0309290D01*
X0139469Y0309197D01*
X0139595Y0309101D01*
X0139718Y0309001D01*
X0139839Y0308899D01*
X0139957Y0308794D01*
X0140072Y0308685D01*
X0140185Y0308574D01*
X0140295Y0308460D01*
X0140402Y0308343D01*
X0140506Y0308224D01*
X0140607Y0308102D01*
X0140704Y0307977D01*
X0140799Y0307850D01*
X0140890Y0307721D01*
X0140979Y0307590D01*
X0141063Y0307456D01*
X0141145Y0307320D01*
X0141223Y0307183D01*
X0141297Y0307043D01*
X0141368Y0306901D01*
X0141436Y0306758D01*
X0141500Y0306613D01*
X0141560Y0306467D01*
X0141616Y0306319D01*
X0141669Y0306170D01*
X0141718Y0306019D01*
X0141763Y0305867D01*
X0141804Y0305714D01*
X0141842Y0305561D01*
X0141875Y0305406D01*
X0141905Y0305250D01*
X0141931Y0305094D01*
X0141952Y0304937D01*
X0141970Y0304780D01*
X0141984Y0304622D01*
X0141994Y0304464D01*
X0142000Y0304306D01*
X0142002Y0304148D01*
X0142000Y0303990D01*
X0141994Y0303832D01*
X0141984Y0303674D01*
X0141970Y0303516D01*
X0141952Y0303359D01*
X0141931Y0303202D01*
X0141905Y0303046D01*
X0141875Y0302890D01*
X0141842Y0302735D01*
X0141804Y0302582D01*
X0141763Y0302429D01*
X0141718Y0302277D01*
X0141669Y0302126D01*
X0141616Y0301977D01*
X0141560Y0301829D01*
X0141500Y0301683D01*
X0141436Y0301538D01*
X0141368Y0301395D01*
X0141297Y0301253D01*
X0141223Y0301113D01*
X0141145Y0300976D01*
X0141063Y0300840D01*
X0140979Y0300706D01*
X0140890Y0300575D01*
X0140799Y0300446D01*
X0140704Y0300319D01*
X0140607Y0300194D01*
X0140506Y0300072D01*
X0140402Y0299953D01*
X0140295Y0299836D01*
X0140185Y0299722D01*
X0140072Y0299611D01*
X0139957Y0299502D01*
X0139839Y0299397D01*
X0139718Y0299295D01*
X0139595Y0299195D01*
X0139469Y0299099D01*
X0139341Y0299006D01*
X0139211Y0298916D01*
X0139078Y0298830D01*
X0138943Y0298746D01*
X0138807Y0298667D01*
X0138668Y0298590D01*
X0138527Y0298518D01*
X0138385Y0298448D01*
X0138241Y0298383D01*
X0138095Y0298321D01*
X0137948Y0298263D01*
X0137799Y0298208D01*
X0137649Y0298157D01*
X0137498Y0298110D01*
X0137346Y0298067D01*
X0137193Y0298028D01*
X0137038Y0297992D01*
X0136883Y0297961D01*
X0136727Y0297933D01*
X0136571Y0297909D01*
X0136414Y0297889D01*
X0136256Y0297873D01*
X0136099Y0297861D01*
X0135940Y0297853D01*
X0135782Y0297849D01*
X0135624Y0297849D01*
X0135466Y0297853D01*
X0135307Y0297861D01*
X0135150Y0297873D01*
X0134992Y0297889D01*
X0134835Y0297909D01*
X0134679Y0297933D01*
X0134523Y0297961D01*
X0134368Y0297992D01*
X0134213Y0298028D01*
X0134060Y0298067D01*
X0133908Y0298110D01*
X0133757Y0298157D01*
X0133607Y0298208D01*
X0133458Y0298263D01*
X0133311Y0298321D01*
X0133165Y0298383D01*
X0133021Y0298448D01*
X0132879Y0298518D01*
X0132738Y0298590D01*
X0132599Y0298667D01*
X0132463Y0298746D01*
X0132328Y0298830D01*
X0132195Y0298916D01*
X0132065Y0299006D01*
X0131937Y0299099D01*
X0131811Y0299195D01*
X0131688Y0299295D01*
X0131567Y0299397D01*
X0131449Y0299502D01*
X0131334Y0299611D01*
X0131221Y0299722D01*
X0131111Y0299836D01*
X0131004Y0299953D01*
X0130900Y0300072D01*
X0130799Y0300194D01*
X0130702Y0300319D01*
X0130607Y0300446D01*
X0130516Y0300575D01*
X0130427Y0300706D01*
X0130343Y0300840D01*
X0130261Y0300976D01*
X0130183Y0301113D01*
X0130109Y0301253D01*
X0130038Y0301395D01*
X0129970Y0301538D01*
X0129906Y0301683D01*
X0129846Y0301829D01*
X0129790Y0301977D01*
X0129737Y0302126D01*
X0129688Y0302277D01*
X0129643Y0302429D01*
X0129602Y0302582D01*
X0129564Y0302735D01*
X0129531Y0302890D01*
X0129501Y0303046D01*
X0129475Y0303202D01*
X0129454Y0303359D01*
X0129436Y0303516D01*
X0129422Y0303674D01*
X0129412Y0303832D01*
X0129406Y0303990D01*
X0129404Y0304148D01*
X0129404Y0349148D02*
X0129406Y0349306D01*
X0129412Y0349464D01*
X0129422Y0349622D01*
X0129436Y0349780D01*
X0129454Y0349937D01*
X0129475Y0350094D01*
X0129501Y0350250D01*
X0129531Y0350406D01*
X0129564Y0350561D01*
X0129602Y0350714D01*
X0129643Y0350867D01*
X0129688Y0351019D01*
X0129737Y0351170D01*
X0129790Y0351319D01*
X0129846Y0351467D01*
X0129906Y0351613D01*
X0129970Y0351758D01*
X0130038Y0351901D01*
X0130109Y0352043D01*
X0130183Y0352183D01*
X0130261Y0352320D01*
X0130343Y0352456D01*
X0130427Y0352590D01*
X0130516Y0352721D01*
X0130607Y0352850D01*
X0130702Y0352977D01*
X0130799Y0353102D01*
X0130900Y0353224D01*
X0131004Y0353343D01*
X0131111Y0353460D01*
X0131221Y0353574D01*
X0131334Y0353685D01*
X0131449Y0353794D01*
X0131567Y0353899D01*
X0131688Y0354001D01*
X0131811Y0354101D01*
X0131937Y0354197D01*
X0132065Y0354290D01*
X0132195Y0354380D01*
X0132328Y0354466D01*
X0132463Y0354550D01*
X0132599Y0354629D01*
X0132738Y0354706D01*
X0132879Y0354778D01*
X0133021Y0354848D01*
X0133165Y0354913D01*
X0133311Y0354975D01*
X0133458Y0355033D01*
X0133607Y0355088D01*
X0133757Y0355139D01*
X0133908Y0355186D01*
X0134060Y0355229D01*
X0134213Y0355268D01*
X0134368Y0355304D01*
X0134523Y0355335D01*
X0134679Y0355363D01*
X0134835Y0355387D01*
X0134992Y0355407D01*
X0135150Y0355423D01*
X0135307Y0355435D01*
X0135466Y0355443D01*
X0135624Y0355447D01*
X0135782Y0355447D01*
X0135940Y0355443D01*
X0136099Y0355435D01*
X0136256Y0355423D01*
X0136414Y0355407D01*
X0136571Y0355387D01*
X0136727Y0355363D01*
X0136883Y0355335D01*
X0137038Y0355304D01*
X0137193Y0355268D01*
X0137346Y0355229D01*
X0137498Y0355186D01*
X0137649Y0355139D01*
X0137799Y0355088D01*
X0137948Y0355033D01*
X0138095Y0354975D01*
X0138241Y0354913D01*
X0138385Y0354848D01*
X0138527Y0354778D01*
X0138668Y0354706D01*
X0138807Y0354629D01*
X0138943Y0354550D01*
X0139078Y0354466D01*
X0139211Y0354380D01*
X0139341Y0354290D01*
X0139469Y0354197D01*
X0139595Y0354101D01*
X0139718Y0354001D01*
X0139839Y0353899D01*
X0139957Y0353794D01*
X0140072Y0353685D01*
X0140185Y0353574D01*
X0140295Y0353460D01*
X0140402Y0353343D01*
X0140506Y0353224D01*
X0140607Y0353102D01*
X0140704Y0352977D01*
X0140799Y0352850D01*
X0140890Y0352721D01*
X0140979Y0352590D01*
X0141063Y0352456D01*
X0141145Y0352320D01*
X0141223Y0352183D01*
X0141297Y0352043D01*
X0141368Y0351901D01*
X0141436Y0351758D01*
X0141500Y0351613D01*
X0141560Y0351467D01*
X0141616Y0351319D01*
X0141669Y0351170D01*
X0141718Y0351019D01*
X0141763Y0350867D01*
X0141804Y0350714D01*
X0141842Y0350561D01*
X0141875Y0350406D01*
X0141905Y0350250D01*
X0141931Y0350094D01*
X0141952Y0349937D01*
X0141970Y0349780D01*
X0141984Y0349622D01*
X0141994Y0349464D01*
X0142000Y0349306D01*
X0142002Y0349148D01*
X0142000Y0348990D01*
X0141994Y0348832D01*
X0141984Y0348674D01*
X0141970Y0348516D01*
X0141952Y0348359D01*
X0141931Y0348202D01*
X0141905Y0348046D01*
X0141875Y0347890D01*
X0141842Y0347735D01*
X0141804Y0347582D01*
X0141763Y0347429D01*
X0141718Y0347277D01*
X0141669Y0347126D01*
X0141616Y0346977D01*
X0141560Y0346829D01*
X0141500Y0346683D01*
X0141436Y0346538D01*
X0141368Y0346395D01*
X0141297Y0346253D01*
X0141223Y0346113D01*
X0141145Y0345976D01*
X0141063Y0345840D01*
X0140979Y0345706D01*
X0140890Y0345575D01*
X0140799Y0345446D01*
X0140704Y0345319D01*
X0140607Y0345194D01*
X0140506Y0345072D01*
X0140402Y0344953D01*
X0140295Y0344836D01*
X0140185Y0344722D01*
X0140072Y0344611D01*
X0139957Y0344502D01*
X0139839Y0344397D01*
X0139718Y0344295D01*
X0139595Y0344195D01*
X0139469Y0344099D01*
X0139341Y0344006D01*
X0139211Y0343916D01*
X0139078Y0343830D01*
X0138943Y0343746D01*
X0138807Y0343667D01*
X0138668Y0343590D01*
X0138527Y0343518D01*
X0138385Y0343448D01*
X0138241Y0343383D01*
X0138095Y0343321D01*
X0137948Y0343263D01*
X0137799Y0343208D01*
X0137649Y0343157D01*
X0137498Y0343110D01*
X0137346Y0343067D01*
X0137193Y0343028D01*
X0137038Y0342992D01*
X0136883Y0342961D01*
X0136727Y0342933D01*
X0136571Y0342909D01*
X0136414Y0342889D01*
X0136256Y0342873D01*
X0136099Y0342861D01*
X0135940Y0342853D01*
X0135782Y0342849D01*
X0135624Y0342849D01*
X0135466Y0342853D01*
X0135307Y0342861D01*
X0135150Y0342873D01*
X0134992Y0342889D01*
X0134835Y0342909D01*
X0134679Y0342933D01*
X0134523Y0342961D01*
X0134368Y0342992D01*
X0134213Y0343028D01*
X0134060Y0343067D01*
X0133908Y0343110D01*
X0133757Y0343157D01*
X0133607Y0343208D01*
X0133458Y0343263D01*
X0133311Y0343321D01*
X0133165Y0343383D01*
X0133021Y0343448D01*
X0132879Y0343518D01*
X0132738Y0343590D01*
X0132599Y0343667D01*
X0132463Y0343746D01*
X0132328Y0343830D01*
X0132195Y0343916D01*
X0132065Y0344006D01*
X0131937Y0344099D01*
X0131811Y0344195D01*
X0131688Y0344295D01*
X0131567Y0344397D01*
X0131449Y0344502D01*
X0131334Y0344611D01*
X0131221Y0344722D01*
X0131111Y0344836D01*
X0131004Y0344953D01*
X0130900Y0345072D01*
X0130799Y0345194D01*
X0130702Y0345319D01*
X0130607Y0345446D01*
X0130516Y0345575D01*
X0130427Y0345706D01*
X0130343Y0345840D01*
X0130261Y0345976D01*
X0130183Y0346113D01*
X0130109Y0346253D01*
X0130038Y0346395D01*
X0129970Y0346538D01*
X0129906Y0346683D01*
X0129846Y0346829D01*
X0129790Y0346977D01*
X0129737Y0347126D01*
X0129688Y0347277D01*
X0129643Y0347429D01*
X0129602Y0347582D01*
X0129564Y0347735D01*
X0129531Y0347890D01*
X0129501Y0348046D01*
X0129475Y0348202D01*
X0129454Y0348359D01*
X0129436Y0348516D01*
X0129422Y0348674D01*
X0129412Y0348832D01*
X0129406Y0348990D01*
X0129404Y0349148D01*
X0123951Y0372750D02*
X0123953Y0372908D01*
X0123959Y0373066D01*
X0123969Y0373224D01*
X0123983Y0373382D01*
X0124001Y0373539D01*
X0124022Y0373696D01*
X0124048Y0373852D01*
X0124078Y0374008D01*
X0124111Y0374163D01*
X0124149Y0374316D01*
X0124190Y0374469D01*
X0124235Y0374621D01*
X0124284Y0374772D01*
X0124337Y0374921D01*
X0124393Y0375069D01*
X0124453Y0375215D01*
X0124517Y0375360D01*
X0124585Y0375503D01*
X0124656Y0375645D01*
X0124730Y0375785D01*
X0124808Y0375922D01*
X0124890Y0376058D01*
X0124974Y0376192D01*
X0125063Y0376323D01*
X0125154Y0376452D01*
X0125249Y0376579D01*
X0125346Y0376704D01*
X0125447Y0376826D01*
X0125551Y0376945D01*
X0125658Y0377062D01*
X0125768Y0377176D01*
X0125881Y0377287D01*
X0125996Y0377396D01*
X0126114Y0377501D01*
X0126235Y0377603D01*
X0126358Y0377703D01*
X0126484Y0377799D01*
X0126612Y0377892D01*
X0126742Y0377982D01*
X0126875Y0378068D01*
X0127010Y0378152D01*
X0127146Y0378231D01*
X0127285Y0378308D01*
X0127426Y0378380D01*
X0127568Y0378450D01*
X0127712Y0378515D01*
X0127858Y0378577D01*
X0128005Y0378635D01*
X0128154Y0378690D01*
X0128304Y0378741D01*
X0128455Y0378788D01*
X0128607Y0378831D01*
X0128760Y0378870D01*
X0128915Y0378906D01*
X0129070Y0378937D01*
X0129226Y0378965D01*
X0129382Y0378989D01*
X0129539Y0379009D01*
X0129697Y0379025D01*
X0129854Y0379037D01*
X0130013Y0379045D01*
X0130171Y0379049D01*
X0130329Y0379049D01*
X0130487Y0379045D01*
X0130646Y0379037D01*
X0130803Y0379025D01*
X0130961Y0379009D01*
X0131118Y0378989D01*
X0131274Y0378965D01*
X0131430Y0378937D01*
X0131585Y0378906D01*
X0131740Y0378870D01*
X0131893Y0378831D01*
X0132045Y0378788D01*
X0132196Y0378741D01*
X0132346Y0378690D01*
X0132495Y0378635D01*
X0132642Y0378577D01*
X0132788Y0378515D01*
X0132932Y0378450D01*
X0133074Y0378380D01*
X0133215Y0378308D01*
X0133354Y0378231D01*
X0133490Y0378152D01*
X0133625Y0378068D01*
X0133758Y0377982D01*
X0133888Y0377892D01*
X0134016Y0377799D01*
X0134142Y0377703D01*
X0134265Y0377603D01*
X0134386Y0377501D01*
X0134504Y0377396D01*
X0134619Y0377287D01*
X0134732Y0377176D01*
X0134842Y0377062D01*
X0134949Y0376945D01*
X0135053Y0376826D01*
X0135154Y0376704D01*
X0135251Y0376579D01*
X0135346Y0376452D01*
X0135437Y0376323D01*
X0135526Y0376192D01*
X0135610Y0376058D01*
X0135692Y0375922D01*
X0135770Y0375785D01*
X0135844Y0375645D01*
X0135915Y0375503D01*
X0135983Y0375360D01*
X0136047Y0375215D01*
X0136107Y0375069D01*
X0136163Y0374921D01*
X0136216Y0374772D01*
X0136265Y0374621D01*
X0136310Y0374469D01*
X0136351Y0374316D01*
X0136389Y0374163D01*
X0136422Y0374008D01*
X0136452Y0373852D01*
X0136478Y0373696D01*
X0136499Y0373539D01*
X0136517Y0373382D01*
X0136531Y0373224D01*
X0136541Y0373066D01*
X0136547Y0372908D01*
X0136549Y0372750D01*
X0136547Y0372592D01*
X0136541Y0372434D01*
X0136531Y0372276D01*
X0136517Y0372118D01*
X0136499Y0371961D01*
X0136478Y0371804D01*
X0136452Y0371648D01*
X0136422Y0371492D01*
X0136389Y0371337D01*
X0136351Y0371184D01*
X0136310Y0371031D01*
X0136265Y0370879D01*
X0136216Y0370728D01*
X0136163Y0370579D01*
X0136107Y0370431D01*
X0136047Y0370285D01*
X0135983Y0370140D01*
X0135915Y0369997D01*
X0135844Y0369855D01*
X0135770Y0369715D01*
X0135692Y0369578D01*
X0135610Y0369442D01*
X0135526Y0369308D01*
X0135437Y0369177D01*
X0135346Y0369048D01*
X0135251Y0368921D01*
X0135154Y0368796D01*
X0135053Y0368674D01*
X0134949Y0368555D01*
X0134842Y0368438D01*
X0134732Y0368324D01*
X0134619Y0368213D01*
X0134504Y0368104D01*
X0134386Y0367999D01*
X0134265Y0367897D01*
X0134142Y0367797D01*
X0134016Y0367701D01*
X0133888Y0367608D01*
X0133758Y0367518D01*
X0133625Y0367432D01*
X0133490Y0367348D01*
X0133354Y0367269D01*
X0133215Y0367192D01*
X0133074Y0367120D01*
X0132932Y0367050D01*
X0132788Y0366985D01*
X0132642Y0366923D01*
X0132495Y0366865D01*
X0132346Y0366810D01*
X0132196Y0366759D01*
X0132045Y0366712D01*
X0131893Y0366669D01*
X0131740Y0366630D01*
X0131585Y0366594D01*
X0131430Y0366563D01*
X0131274Y0366535D01*
X0131118Y0366511D01*
X0130961Y0366491D01*
X0130803Y0366475D01*
X0130646Y0366463D01*
X0130487Y0366455D01*
X0130329Y0366451D01*
X0130171Y0366451D01*
X0130013Y0366455D01*
X0129854Y0366463D01*
X0129697Y0366475D01*
X0129539Y0366491D01*
X0129382Y0366511D01*
X0129226Y0366535D01*
X0129070Y0366563D01*
X0128915Y0366594D01*
X0128760Y0366630D01*
X0128607Y0366669D01*
X0128455Y0366712D01*
X0128304Y0366759D01*
X0128154Y0366810D01*
X0128005Y0366865D01*
X0127858Y0366923D01*
X0127712Y0366985D01*
X0127568Y0367050D01*
X0127426Y0367120D01*
X0127285Y0367192D01*
X0127146Y0367269D01*
X0127010Y0367348D01*
X0126875Y0367432D01*
X0126742Y0367518D01*
X0126612Y0367608D01*
X0126484Y0367701D01*
X0126358Y0367797D01*
X0126235Y0367897D01*
X0126114Y0367999D01*
X0125996Y0368104D01*
X0125881Y0368213D01*
X0125768Y0368324D01*
X0125658Y0368438D01*
X0125551Y0368555D01*
X0125447Y0368674D01*
X0125346Y0368796D01*
X0125249Y0368921D01*
X0125154Y0369048D01*
X0125063Y0369177D01*
X0124974Y0369308D01*
X0124890Y0369442D01*
X0124808Y0369578D01*
X0124730Y0369715D01*
X0124656Y0369855D01*
X0124585Y0369997D01*
X0124517Y0370140D01*
X0124453Y0370285D01*
X0124393Y0370431D01*
X0124337Y0370579D01*
X0124284Y0370728D01*
X0124235Y0370879D01*
X0124190Y0371031D01*
X0124149Y0371184D01*
X0124111Y0371337D01*
X0124078Y0371492D01*
X0124048Y0371648D01*
X0124022Y0371804D01*
X0124001Y0371961D01*
X0123983Y0372118D01*
X0123969Y0372276D01*
X0123959Y0372434D01*
X0123953Y0372592D01*
X0123951Y0372750D01*
X0041904Y0349148D02*
X0041906Y0349306D01*
X0041912Y0349464D01*
X0041922Y0349622D01*
X0041936Y0349780D01*
X0041954Y0349937D01*
X0041975Y0350094D01*
X0042001Y0350250D01*
X0042031Y0350406D01*
X0042064Y0350561D01*
X0042102Y0350714D01*
X0042143Y0350867D01*
X0042188Y0351019D01*
X0042237Y0351170D01*
X0042290Y0351319D01*
X0042346Y0351467D01*
X0042406Y0351613D01*
X0042470Y0351758D01*
X0042538Y0351901D01*
X0042609Y0352043D01*
X0042683Y0352183D01*
X0042761Y0352320D01*
X0042843Y0352456D01*
X0042927Y0352590D01*
X0043016Y0352721D01*
X0043107Y0352850D01*
X0043202Y0352977D01*
X0043299Y0353102D01*
X0043400Y0353224D01*
X0043504Y0353343D01*
X0043611Y0353460D01*
X0043721Y0353574D01*
X0043834Y0353685D01*
X0043949Y0353794D01*
X0044067Y0353899D01*
X0044188Y0354001D01*
X0044311Y0354101D01*
X0044437Y0354197D01*
X0044565Y0354290D01*
X0044695Y0354380D01*
X0044828Y0354466D01*
X0044963Y0354550D01*
X0045099Y0354629D01*
X0045238Y0354706D01*
X0045379Y0354778D01*
X0045521Y0354848D01*
X0045665Y0354913D01*
X0045811Y0354975D01*
X0045958Y0355033D01*
X0046107Y0355088D01*
X0046257Y0355139D01*
X0046408Y0355186D01*
X0046560Y0355229D01*
X0046713Y0355268D01*
X0046868Y0355304D01*
X0047023Y0355335D01*
X0047179Y0355363D01*
X0047335Y0355387D01*
X0047492Y0355407D01*
X0047650Y0355423D01*
X0047807Y0355435D01*
X0047966Y0355443D01*
X0048124Y0355447D01*
X0048282Y0355447D01*
X0048440Y0355443D01*
X0048599Y0355435D01*
X0048756Y0355423D01*
X0048914Y0355407D01*
X0049071Y0355387D01*
X0049227Y0355363D01*
X0049383Y0355335D01*
X0049538Y0355304D01*
X0049693Y0355268D01*
X0049846Y0355229D01*
X0049998Y0355186D01*
X0050149Y0355139D01*
X0050299Y0355088D01*
X0050448Y0355033D01*
X0050595Y0354975D01*
X0050741Y0354913D01*
X0050885Y0354848D01*
X0051027Y0354778D01*
X0051168Y0354706D01*
X0051307Y0354629D01*
X0051443Y0354550D01*
X0051578Y0354466D01*
X0051711Y0354380D01*
X0051841Y0354290D01*
X0051969Y0354197D01*
X0052095Y0354101D01*
X0052218Y0354001D01*
X0052339Y0353899D01*
X0052457Y0353794D01*
X0052572Y0353685D01*
X0052685Y0353574D01*
X0052795Y0353460D01*
X0052902Y0353343D01*
X0053006Y0353224D01*
X0053107Y0353102D01*
X0053204Y0352977D01*
X0053299Y0352850D01*
X0053390Y0352721D01*
X0053479Y0352590D01*
X0053563Y0352456D01*
X0053645Y0352320D01*
X0053723Y0352183D01*
X0053797Y0352043D01*
X0053868Y0351901D01*
X0053936Y0351758D01*
X0054000Y0351613D01*
X0054060Y0351467D01*
X0054116Y0351319D01*
X0054169Y0351170D01*
X0054218Y0351019D01*
X0054263Y0350867D01*
X0054304Y0350714D01*
X0054342Y0350561D01*
X0054375Y0350406D01*
X0054405Y0350250D01*
X0054431Y0350094D01*
X0054452Y0349937D01*
X0054470Y0349780D01*
X0054484Y0349622D01*
X0054494Y0349464D01*
X0054500Y0349306D01*
X0054502Y0349148D01*
X0054500Y0348990D01*
X0054494Y0348832D01*
X0054484Y0348674D01*
X0054470Y0348516D01*
X0054452Y0348359D01*
X0054431Y0348202D01*
X0054405Y0348046D01*
X0054375Y0347890D01*
X0054342Y0347735D01*
X0054304Y0347582D01*
X0054263Y0347429D01*
X0054218Y0347277D01*
X0054169Y0347126D01*
X0054116Y0346977D01*
X0054060Y0346829D01*
X0054000Y0346683D01*
X0053936Y0346538D01*
X0053868Y0346395D01*
X0053797Y0346253D01*
X0053723Y0346113D01*
X0053645Y0345976D01*
X0053563Y0345840D01*
X0053479Y0345706D01*
X0053390Y0345575D01*
X0053299Y0345446D01*
X0053204Y0345319D01*
X0053107Y0345194D01*
X0053006Y0345072D01*
X0052902Y0344953D01*
X0052795Y0344836D01*
X0052685Y0344722D01*
X0052572Y0344611D01*
X0052457Y0344502D01*
X0052339Y0344397D01*
X0052218Y0344295D01*
X0052095Y0344195D01*
X0051969Y0344099D01*
X0051841Y0344006D01*
X0051711Y0343916D01*
X0051578Y0343830D01*
X0051443Y0343746D01*
X0051307Y0343667D01*
X0051168Y0343590D01*
X0051027Y0343518D01*
X0050885Y0343448D01*
X0050741Y0343383D01*
X0050595Y0343321D01*
X0050448Y0343263D01*
X0050299Y0343208D01*
X0050149Y0343157D01*
X0049998Y0343110D01*
X0049846Y0343067D01*
X0049693Y0343028D01*
X0049538Y0342992D01*
X0049383Y0342961D01*
X0049227Y0342933D01*
X0049071Y0342909D01*
X0048914Y0342889D01*
X0048756Y0342873D01*
X0048599Y0342861D01*
X0048440Y0342853D01*
X0048282Y0342849D01*
X0048124Y0342849D01*
X0047966Y0342853D01*
X0047807Y0342861D01*
X0047650Y0342873D01*
X0047492Y0342889D01*
X0047335Y0342909D01*
X0047179Y0342933D01*
X0047023Y0342961D01*
X0046868Y0342992D01*
X0046713Y0343028D01*
X0046560Y0343067D01*
X0046408Y0343110D01*
X0046257Y0343157D01*
X0046107Y0343208D01*
X0045958Y0343263D01*
X0045811Y0343321D01*
X0045665Y0343383D01*
X0045521Y0343448D01*
X0045379Y0343518D01*
X0045238Y0343590D01*
X0045099Y0343667D01*
X0044963Y0343746D01*
X0044828Y0343830D01*
X0044695Y0343916D01*
X0044565Y0344006D01*
X0044437Y0344099D01*
X0044311Y0344195D01*
X0044188Y0344295D01*
X0044067Y0344397D01*
X0043949Y0344502D01*
X0043834Y0344611D01*
X0043721Y0344722D01*
X0043611Y0344836D01*
X0043504Y0344953D01*
X0043400Y0345072D01*
X0043299Y0345194D01*
X0043202Y0345319D01*
X0043107Y0345446D01*
X0043016Y0345575D01*
X0042927Y0345706D01*
X0042843Y0345840D01*
X0042761Y0345976D01*
X0042683Y0346113D01*
X0042609Y0346253D01*
X0042538Y0346395D01*
X0042470Y0346538D01*
X0042406Y0346683D01*
X0042346Y0346829D01*
X0042290Y0346977D01*
X0042237Y0347126D01*
X0042188Y0347277D01*
X0042143Y0347429D01*
X0042102Y0347582D01*
X0042064Y0347735D01*
X0042031Y0347890D01*
X0042001Y0348046D01*
X0041975Y0348202D01*
X0041954Y0348359D01*
X0041936Y0348516D01*
X0041922Y0348674D01*
X0041912Y0348832D01*
X0041906Y0348990D01*
X0041904Y0349148D01*
X0036451Y0372750D02*
X0036453Y0372908D01*
X0036459Y0373066D01*
X0036469Y0373224D01*
X0036483Y0373382D01*
X0036501Y0373539D01*
X0036522Y0373696D01*
X0036548Y0373852D01*
X0036578Y0374008D01*
X0036611Y0374163D01*
X0036649Y0374316D01*
X0036690Y0374469D01*
X0036735Y0374621D01*
X0036784Y0374772D01*
X0036837Y0374921D01*
X0036893Y0375069D01*
X0036953Y0375215D01*
X0037017Y0375360D01*
X0037085Y0375503D01*
X0037156Y0375645D01*
X0037230Y0375785D01*
X0037308Y0375922D01*
X0037390Y0376058D01*
X0037474Y0376192D01*
X0037563Y0376323D01*
X0037654Y0376452D01*
X0037749Y0376579D01*
X0037846Y0376704D01*
X0037947Y0376826D01*
X0038051Y0376945D01*
X0038158Y0377062D01*
X0038268Y0377176D01*
X0038381Y0377287D01*
X0038496Y0377396D01*
X0038614Y0377501D01*
X0038735Y0377603D01*
X0038858Y0377703D01*
X0038984Y0377799D01*
X0039112Y0377892D01*
X0039242Y0377982D01*
X0039375Y0378068D01*
X0039510Y0378152D01*
X0039646Y0378231D01*
X0039785Y0378308D01*
X0039926Y0378380D01*
X0040068Y0378450D01*
X0040212Y0378515D01*
X0040358Y0378577D01*
X0040505Y0378635D01*
X0040654Y0378690D01*
X0040804Y0378741D01*
X0040955Y0378788D01*
X0041107Y0378831D01*
X0041260Y0378870D01*
X0041415Y0378906D01*
X0041570Y0378937D01*
X0041726Y0378965D01*
X0041882Y0378989D01*
X0042039Y0379009D01*
X0042197Y0379025D01*
X0042354Y0379037D01*
X0042513Y0379045D01*
X0042671Y0379049D01*
X0042829Y0379049D01*
X0042987Y0379045D01*
X0043146Y0379037D01*
X0043303Y0379025D01*
X0043461Y0379009D01*
X0043618Y0378989D01*
X0043774Y0378965D01*
X0043930Y0378937D01*
X0044085Y0378906D01*
X0044240Y0378870D01*
X0044393Y0378831D01*
X0044545Y0378788D01*
X0044696Y0378741D01*
X0044846Y0378690D01*
X0044995Y0378635D01*
X0045142Y0378577D01*
X0045288Y0378515D01*
X0045432Y0378450D01*
X0045574Y0378380D01*
X0045715Y0378308D01*
X0045854Y0378231D01*
X0045990Y0378152D01*
X0046125Y0378068D01*
X0046258Y0377982D01*
X0046388Y0377892D01*
X0046516Y0377799D01*
X0046642Y0377703D01*
X0046765Y0377603D01*
X0046886Y0377501D01*
X0047004Y0377396D01*
X0047119Y0377287D01*
X0047232Y0377176D01*
X0047342Y0377062D01*
X0047449Y0376945D01*
X0047553Y0376826D01*
X0047654Y0376704D01*
X0047751Y0376579D01*
X0047846Y0376452D01*
X0047937Y0376323D01*
X0048026Y0376192D01*
X0048110Y0376058D01*
X0048192Y0375922D01*
X0048270Y0375785D01*
X0048344Y0375645D01*
X0048415Y0375503D01*
X0048483Y0375360D01*
X0048547Y0375215D01*
X0048607Y0375069D01*
X0048663Y0374921D01*
X0048716Y0374772D01*
X0048765Y0374621D01*
X0048810Y0374469D01*
X0048851Y0374316D01*
X0048889Y0374163D01*
X0048922Y0374008D01*
X0048952Y0373852D01*
X0048978Y0373696D01*
X0048999Y0373539D01*
X0049017Y0373382D01*
X0049031Y0373224D01*
X0049041Y0373066D01*
X0049047Y0372908D01*
X0049049Y0372750D01*
X0049047Y0372592D01*
X0049041Y0372434D01*
X0049031Y0372276D01*
X0049017Y0372118D01*
X0048999Y0371961D01*
X0048978Y0371804D01*
X0048952Y0371648D01*
X0048922Y0371492D01*
X0048889Y0371337D01*
X0048851Y0371184D01*
X0048810Y0371031D01*
X0048765Y0370879D01*
X0048716Y0370728D01*
X0048663Y0370579D01*
X0048607Y0370431D01*
X0048547Y0370285D01*
X0048483Y0370140D01*
X0048415Y0369997D01*
X0048344Y0369855D01*
X0048270Y0369715D01*
X0048192Y0369578D01*
X0048110Y0369442D01*
X0048026Y0369308D01*
X0047937Y0369177D01*
X0047846Y0369048D01*
X0047751Y0368921D01*
X0047654Y0368796D01*
X0047553Y0368674D01*
X0047449Y0368555D01*
X0047342Y0368438D01*
X0047232Y0368324D01*
X0047119Y0368213D01*
X0047004Y0368104D01*
X0046886Y0367999D01*
X0046765Y0367897D01*
X0046642Y0367797D01*
X0046516Y0367701D01*
X0046388Y0367608D01*
X0046258Y0367518D01*
X0046125Y0367432D01*
X0045990Y0367348D01*
X0045854Y0367269D01*
X0045715Y0367192D01*
X0045574Y0367120D01*
X0045432Y0367050D01*
X0045288Y0366985D01*
X0045142Y0366923D01*
X0044995Y0366865D01*
X0044846Y0366810D01*
X0044696Y0366759D01*
X0044545Y0366712D01*
X0044393Y0366669D01*
X0044240Y0366630D01*
X0044085Y0366594D01*
X0043930Y0366563D01*
X0043774Y0366535D01*
X0043618Y0366511D01*
X0043461Y0366491D01*
X0043303Y0366475D01*
X0043146Y0366463D01*
X0042987Y0366455D01*
X0042829Y0366451D01*
X0042671Y0366451D01*
X0042513Y0366455D01*
X0042354Y0366463D01*
X0042197Y0366475D01*
X0042039Y0366491D01*
X0041882Y0366511D01*
X0041726Y0366535D01*
X0041570Y0366563D01*
X0041415Y0366594D01*
X0041260Y0366630D01*
X0041107Y0366669D01*
X0040955Y0366712D01*
X0040804Y0366759D01*
X0040654Y0366810D01*
X0040505Y0366865D01*
X0040358Y0366923D01*
X0040212Y0366985D01*
X0040068Y0367050D01*
X0039926Y0367120D01*
X0039785Y0367192D01*
X0039646Y0367269D01*
X0039510Y0367348D01*
X0039375Y0367432D01*
X0039242Y0367518D01*
X0039112Y0367608D01*
X0038984Y0367701D01*
X0038858Y0367797D01*
X0038735Y0367897D01*
X0038614Y0367999D01*
X0038496Y0368104D01*
X0038381Y0368213D01*
X0038268Y0368324D01*
X0038158Y0368438D01*
X0038051Y0368555D01*
X0037947Y0368674D01*
X0037846Y0368796D01*
X0037749Y0368921D01*
X0037654Y0369048D01*
X0037563Y0369177D01*
X0037474Y0369308D01*
X0037390Y0369442D01*
X0037308Y0369578D01*
X0037230Y0369715D01*
X0037156Y0369855D01*
X0037085Y0369997D01*
X0037017Y0370140D01*
X0036953Y0370285D01*
X0036893Y0370431D01*
X0036837Y0370579D01*
X0036784Y0370728D01*
X0036735Y0370879D01*
X0036690Y0371031D01*
X0036649Y0371184D01*
X0036611Y0371337D01*
X0036578Y0371492D01*
X0036548Y0371648D01*
X0036522Y0371804D01*
X0036501Y0371961D01*
X0036483Y0372118D01*
X0036469Y0372276D01*
X0036459Y0372434D01*
X0036453Y0372592D01*
X0036451Y0372750D01*
X0041904Y0304148D02*
X0041906Y0304306D01*
X0041912Y0304464D01*
X0041922Y0304622D01*
X0041936Y0304780D01*
X0041954Y0304937D01*
X0041975Y0305094D01*
X0042001Y0305250D01*
X0042031Y0305406D01*
X0042064Y0305561D01*
X0042102Y0305714D01*
X0042143Y0305867D01*
X0042188Y0306019D01*
X0042237Y0306170D01*
X0042290Y0306319D01*
X0042346Y0306467D01*
X0042406Y0306613D01*
X0042470Y0306758D01*
X0042538Y0306901D01*
X0042609Y0307043D01*
X0042683Y0307183D01*
X0042761Y0307320D01*
X0042843Y0307456D01*
X0042927Y0307590D01*
X0043016Y0307721D01*
X0043107Y0307850D01*
X0043202Y0307977D01*
X0043299Y0308102D01*
X0043400Y0308224D01*
X0043504Y0308343D01*
X0043611Y0308460D01*
X0043721Y0308574D01*
X0043834Y0308685D01*
X0043949Y0308794D01*
X0044067Y0308899D01*
X0044188Y0309001D01*
X0044311Y0309101D01*
X0044437Y0309197D01*
X0044565Y0309290D01*
X0044695Y0309380D01*
X0044828Y0309466D01*
X0044963Y0309550D01*
X0045099Y0309629D01*
X0045238Y0309706D01*
X0045379Y0309778D01*
X0045521Y0309848D01*
X0045665Y0309913D01*
X0045811Y0309975D01*
X0045958Y0310033D01*
X0046107Y0310088D01*
X0046257Y0310139D01*
X0046408Y0310186D01*
X0046560Y0310229D01*
X0046713Y0310268D01*
X0046868Y0310304D01*
X0047023Y0310335D01*
X0047179Y0310363D01*
X0047335Y0310387D01*
X0047492Y0310407D01*
X0047650Y0310423D01*
X0047807Y0310435D01*
X0047966Y0310443D01*
X0048124Y0310447D01*
X0048282Y0310447D01*
X0048440Y0310443D01*
X0048599Y0310435D01*
X0048756Y0310423D01*
X0048914Y0310407D01*
X0049071Y0310387D01*
X0049227Y0310363D01*
X0049383Y0310335D01*
X0049538Y0310304D01*
X0049693Y0310268D01*
X0049846Y0310229D01*
X0049998Y0310186D01*
X0050149Y0310139D01*
X0050299Y0310088D01*
X0050448Y0310033D01*
X0050595Y0309975D01*
X0050741Y0309913D01*
X0050885Y0309848D01*
X0051027Y0309778D01*
X0051168Y0309706D01*
X0051307Y0309629D01*
X0051443Y0309550D01*
X0051578Y0309466D01*
X0051711Y0309380D01*
X0051841Y0309290D01*
X0051969Y0309197D01*
X0052095Y0309101D01*
X0052218Y0309001D01*
X0052339Y0308899D01*
X0052457Y0308794D01*
X0052572Y0308685D01*
X0052685Y0308574D01*
X0052795Y0308460D01*
X0052902Y0308343D01*
X0053006Y0308224D01*
X0053107Y0308102D01*
X0053204Y0307977D01*
X0053299Y0307850D01*
X0053390Y0307721D01*
X0053479Y0307590D01*
X0053563Y0307456D01*
X0053645Y0307320D01*
X0053723Y0307183D01*
X0053797Y0307043D01*
X0053868Y0306901D01*
X0053936Y0306758D01*
X0054000Y0306613D01*
X0054060Y0306467D01*
X0054116Y0306319D01*
X0054169Y0306170D01*
X0054218Y0306019D01*
X0054263Y0305867D01*
X0054304Y0305714D01*
X0054342Y0305561D01*
X0054375Y0305406D01*
X0054405Y0305250D01*
X0054431Y0305094D01*
X0054452Y0304937D01*
X0054470Y0304780D01*
X0054484Y0304622D01*
X0054494Y0304464D01*
X0054500Y0304306D01*
X0054502Y0304148D01*
X0054500Y0303990D01*
X0054494Y0303832D01*
X0054484Y0303674D01*
X0054470Y0303516D01*
X0054452Y0303359D01*
X0054431Y0303202D01*
X0054405Y0303046D01*
X0054375Y0302890D01*
X0054342Y0302735D01*
X0054304Y0302582D01*
X0054263Y0302429D01*
X0054218Y0302277D01*
X0054169Y0302126D01*
X0054116Y0301977D01*
X0054060Y0301829D01*
X0054000Y0301683D01*
X0053936Y0301538D01*
X0053868Y0301395D01*
X0053797Y0301253D01*
X0053723Y0301113D01*
X0053645Y0300976D01*
X0053563Y0300840D01*
X0053479Y0300706D01*
X0053390Y0300575D01*
X0053299Y0300446D01*
X0053204Y0300319D01*
X0053107Y0300194D01*
X0053006Y0300072D01*
X0052902Y0299953D01*
X0052795Y0299836D01*
X0052685Y0299722D01*
X0052572Y0299611D01*
X0052457Y0299502D01*
X0052339Y0299397D01*
X0052218Y0299295D01*
X0052095Y0299195D01*
X0051969Y0299099D01*
X0051841Y0299006D01*
X0051711Y0298916D01*
X0051578Y0298830D01*
X0051443Y0298746D01*
X0051307Y0298667D01*
X0051168Y0298590D01*
X0051027Y0298518D01*
X0050885Y0298448D01*
X0050741Y0298383D01*
X0050595Y0298321D01*
X0050448Y0298263D01*
X0050299Y0298208D01*
X0050149Y0298157D01*
X0049998Y0298110D01*
X0049846Y0298067D01*
X0049693Y0298028D01*
X0049538Y0297992D01*
X0049383Y0297961D01*
X0049227Y0297933D01*
X0049071Y0297909D01*
X0048914Y0297889D01*
X0048756Y0297873D01*
X0048599Y0297861D01*
X0048440Y0297853D01*
X0048282Y0297849D01*
X0048124Y0297849D01*
X0047966Y0297853D01*
X0047807Y0297861D01*
X0047650Y0297873D01*
X0047492Y0297889D01*
X0047335Y0297909D01*
X0047179Y0297933D01*
X0047023Y0297961D01*
X0046868Y0297992D01*
X0046713Y0298028D01*
X0046560Y0298067D01*
X0046408Y0298110D01*
X0046257Y0298157D01*
X0046107Y0298208D01*
X0045958Y0298263D01*
X0045811Y0298321D01*
X0045665Y0298383D01*
X0045521Y0298448D01*
X0045379Y0298518D01*
X0045238Y0298590D01*
X0045099Y0298667D01*
X0044963Y0298746D01*
X0044828Y0298830D01*
X0044695Y0298916D01*
X0044565Y0299006D01*
X0044437Y0299099D01*
X0044311Y0299195D01*
X0044188Y0299295D01*
X0044067Y0299397D01*
X0043949Y0299502D01*
X0043834Y0299611D01*
X0043721Y0299722D01*
X0043611Y0299836D01*
X0043504Y0299953D01*
X0043400Y0300072D01*
X0043299Y0300194D01*
X0043202Y0300319D01*
X0043107Y0300446D01*
X0043016Y0300575D01*
X0042927Y0300706D01*
X0042843Y0300840D01*
X0042761Y0300976D01*
X0042683Y0301113D01*
X0042609Y0301253D01*
X0042538Y0301395D01*
X0042470Y0301538D01*
X0042406Y0301683D01*
X0042346Y0301829D01*
X0042290Y0301977D01*
X0042237Y0302126D01*
X0042188Y0302277D01*
X0042143Y0302429D01*
X0042102Y0302582D01*
X0042064Y0302735D01*
X0042031Y0302890D01*
X0042001Y0303046D01*
X0041975Y0303202D01*
X0041954Y0303359D01*
X0041936Y0303516D01*
X0041922Y0303674D01*
X0041912Y0303832D01*
X0041906Y0303990D01*
X0041904Y0304148D01*
X0041904Y0276648D02*
X0041906Y0276806D01*
X0041912Y0276964D01*
X0041922Y0277122D01*
X0041936Y0277280D01*
X0041954Y0277437D01*
X0041975Y0277594D01*
X0042001Y0277750D01*
X0042031Y0277906D01*
X0042064Y0278061D01*
X0042102Y0278214D01*
X0042143Y0278367D01*
X0042188Y0278519D01*
X0042237Y0278670D01*
X0042290Y0278819D01*
X0042346Y0278967D01*
X0042406Y0279113D01*
X0042470Y0279258D01*
X0042538Y0279401D01*
X0042609Y0279543D01*
X0042683Y0279683D01*
X0042761Y0279820D01*
X0042843Y0279956D01*
X0042927Y0280090D01*
X0043016Y0280221D01*
X0043107Y0280350D01*
X0043202Y0280477D01*
X0043299Y0280602D01*
X0043400Y0280724D01*
X0043504Y0280843D01*
X0043611Y0280960D01*
X0043721Y0281074D01*
X0043834Y0281185D01*
X0043949Y0281294D01*
X0044067Y0281399D01*
X0044188Y0281501D01*
X0044311Y0281601D01*
X0044437Y0281697D01*
X0044565Y0281790D01*
X0044695Y0281880D01*
X0044828Y0281966D01*
X0044963Y0282050D01*
X0045099Y0282129D01*
X0045238Y0282206D01*
X0045379Y0282278D01*
X0045521Y0282348D01*
X0045665Y0282413D01*
X0045811Y0282475D01*
X0045958Y0282533D01*
X0046107Y0282588D01*
X0046257Y0282639D01*
X0046408Y0282686D01*
X0046560Y0282729D01*
X0046713Y0282768D01*
X0046868Y0282804D01*
X0047023Y0282835D01*
X0047179Y0282863D01*
X0047335Y0282887D01*
X0047492Y0282907D01*
X0047650Y0282923D01*
X0047807Y0282935D01*
X0047966Y0282943D01*
X0048124Y0282947D01*
X0048282Y0282947D01*
X0048440Y0282943D01*
X0048599Y0282935D01*
X0048756Y0282923D01*
X0048914Y0282907D01*
X0049071Y0282887D01*
X0049227Y0282863D01*
X0049383Y0282835D01*
X0049538Y0282804D01*
X0049693Y0282768D01*
X0049846Y0282729D01*
X0049998Y0282686D01*
X0050149Y0282639D01*
X0050299Y0282588D01*
X0050448Y0282533D01*
X0050595Y0282475D01*
X0050741Y0282413D01*
X0050885Y0282348D01*
X0051027Y0282278D01*
X0051168Y0282206D01*
X0051307Y0282129D01*
X0051443Y0282050D01*
X0051578Y0281966D01*
X0051711Y0281880D01*
X0051841Y0281790D01*
X0051969Y0281697D01*
X0052095Y0281601D01*
X0052218Y0281501D01*
X0052339Y0281399D01*
X0052457Y0281294D01*
X0052572Y0281185D01*
X0052685Y0281074D01*
X0052795Y0280960D01*
X0052902Y0280843D01*
X0053006Y0280724D01*
X0053107Y0280602D01*
X0053204Y0280477D01*
X0053299Y0280350D01*
X0053390Y0280221D01*
X0053479Y0280090D01*
X0053563Y0279956D01*
X0053645Y0279820D01*
X0053723Y0279683D01*
X0053797Y0279543D01*
X0053868Y0279401D01*
X0053936Y0279258D01*
X0054000Y0279113D01*
X0054060Y0278967D01*
X0054116Y0278819D01*
X0054169Y0278670D01*
X0054218Y0278519D01*
X0054263Y0278367D01*
X0054304Y0278214D01*
X0054342Y0278061D01*
X0054375Y0277906D01*
X0054405Y0277750D01*
X0054431Y0277594D01*
X0054452Y0277437D01*
X0054470Y0277280D01*
X0054484Y0277122D01*
X0054494Y0276964D01*
X0054500Y0276806D01*
X0054502Y0276648D01*
X0054500Y0276490D01*
X0054494Y0276332D01*
X0054484Y0276174D01*
X0054470Y0276016D01*
X0054452Y0275859D01*
X0054431Y0275702D01*
X0054405Y0275546D01*
X0054375Y0275390D01*
X0054342Y0275235D01*
X0054304Y0275082D01*
X0054263Y0274929D01*
X0054218Y0274777D01*
X0054169Y0274626D01*
X0054116Y0274477D01*
X0054060Y0274329D01*
X0054000Y0274183D01*
X0053936Y0274038D01*
X0053868Y0273895D01*
X0053797Y0273753D01*
X0053723Y0273613D01*
X0053645Y0273476D01*
X0053563Y0273340D01*
X0053479Y0273206D01*
X0053390Y0273075D01*
X0053299Y0272946D01*
X0053204Y0272819D01*
X0053107Y0272694D01*
X0053006Y0272572D01*
X0052902Y0272453D01*
X0052795Y0272336D01*
X0052685Y0272222D01*
X0052572Y0272111D01*
X0052457Y0272002D01*
X0052339Y0271897D01*
X0052218Y0271795D01*
X0052095Y0271695D01*
X0051969Y0271599D01*
X0051841Y0271506D01*
X0051711Y0271416D01*
X0051578Y0271330D01*
X0051443Y0271246D01*
X0051307Y0271167D01*
X0051168Y0271090D01*
X0051027Y0271018D01*
X0050885Y0270948D01*
X0050741Y0270883D01*
X0050595Y0270821D01*
X0050448Y0270763D01*
X0050299Y0270708D01*
X0050149Y0270657D01*
X0049998Y0270610D01*
X0049846Y0270567D01*
X0049693Y0270528D01*
X0049538Y0270492D01*
X0049383Y0270461D01*
X0049227Y0270433D01*
X0049071Y0270409D01*
X0048914Y0270389D01*
X0048756Y0270373D01*
X0048599Y0270361D01*
X0048440Y0270353D01*
X0048282Y0270349D01*
X0048124Y0270349D01*
X0047966Y0270353D01*
X0047807Y0270361D01*
X0047650Y0270373D01*
X0047492Y0270389D01*
X0047335Y0270409D01*
X0047179Y0270433D01*
X0047023Y0270461D01*
X0046868Y0270492D01*
X0046713Y0270528D01*
X0046560Y0270567D01*
X0046408Y0270610D01*
X0046257Y0270657D01*
X0046107Y0270708D01*
X0045958Y0270763D01*
X0045811Y0270821D01*
X0045665Y0270883D01*
X0045521Y0270948D01*
X0045379Y0271018D01*
X0045238Y0271090D01*
X0045099Y0271167D01*
X0044963Y0271246D01*
X0044828Y0271330D01*
X0044695Y0271416D01*
X0044565Y0271506D01*
X0044437Y0271599D01*
X0044311Y0271695D01*
X0044188Y0271795D01*
X0044067Y0271897D01*
X0043949Y0272002D01*
X0043834Y0272111D01*
X0043721Y0272222D01*
X0043611Y0272336D01*
X0043504Y0272453D01*
X0043400Y0272572D01*
X0043299Y0272694D01*
X0043202Y0272819D01*
X0043107Y0272946D01*
X0043016Y0273075D01*
X0042927Y0273206D01*
X0042843Y0273340D01*
X0042761Y0273476D01*
X0042683Y0273613D01*
X0042609Y0273753D01*
X0042538Y0273895D01*
X0042470Y0274038D01*
X0042406Y0274183D01*
X0042346Y0274329D01*
X0042290Y0274477D01*
X0042237Y0274626D01*
X0042188Y0274777D01*
X0042143Y0274929D01*
X0042102Y0275082D01*
X0042064Y0275235D01*
X0042031Y0275390D01*
X0042001Y0275546D01*
X0041975Y0275702D01*
X0041954Y0275859D01*
X0041936Y0276016D01*
X0041922Y0276174D01*
X0041912Y0276332D01*
X0041906Y0276490D01*
X0041904Y0276648D01*
X0041904Y0231648D02*
X0041906Y0231806D01*
X0041912Y0231964D01*
X0041922Y0232122D01*
X0041936Y0232280D01*
X0041954Y0232437D01*
X0041975Y0232594D01*
X0042001Y0232750D01*
X0042031Y0232906D01*
X0042064Y0233061D01*
X0042102Y0233214D01*
X0042143Y0233367D01*
X0042188Y0233519D01*
X0042237Y0233670D01*
X0042290Y0233819D01*
X0042346Y0233967D01*
X0042406Y0234113D01*
X0042470Y0234258D01*
X0042538Y0234401D01*
X0042609Y0234543D01*
X0042683Y0234683D01*
X0042761Y0234820D01*
X0042843Y0234956D01*
X0042927Y0235090D01*
X0043016Y0235221D01*
X0043107Y0235350D01*
X0043202Y0235477D01*
X0043299Y0235602D01*
X0043400Y0235724D01*
X0043504Y0235843D01*
X0043611Y0235960D01*
X0043721Y0236074D01*
X0043834Y0236185D01*
X0043949Y0236294D01*
X0044067Y0236399D01*
X0044188Y0236501D01*
X0044311Y0236601D01*
X0044437Y0236697D01*
X0044565Y0236790D01*
X0044695Y0236880D01*
X0044828Y0236966D01*
X0044963Y0237050D01*
X0045099Y0237129D01*
X0045238Y0237206D01*
X0045379Y0237278D01*
X0045521Y0237348D01*
X0045665Y0237413D01*
X0045811Y0237475D01*
X0045958Y0237533D01*
X0046107Y0237588D01*
X0046257Y0237639D01*
X0046408Y0237686D01*
X0046560Y0237729D01*
X0046713Y0237768D01*
X0046868Y0237804D01*
X0047023Y0237835D01*
X0047179Y0237863D01*
X0047335Y0237887D01*
X0047492Y0237907D01*
X0047650Y0237923D01*
X0047807Y0237935D01*
X0047966Y0237943D01*
X0048124Y0237947D01*
X0048282Y0237947D01*
X0048440Y0237943D01*
X0048599Y0237935D01*
X0048756Y0237923D01*
X0048914Y0237907D01*
X0049071Y0237887D01*
X0049227Y0237863D01*
X0049383Y0237835D01*
X0049538Y0237804D01*
X0049693Y0237768D01*
X0049846Y0237729D01*
X0049998Y0237686D01*
X0050149Y0237639D01*
X0050299Y0237588D01*
X0050448Y0237533D01*
X0050595Y0237475D01*
X0050741Y0237413D01*
X0050885Y0237348D01*
X0051027Y0237278D01*
X0051168Y0237206D01*
X0051307Y0237129D01*
X0051443Y0237050D01*
X0051578Y0236966D01*
X0051711Y0236880D01*
X0051841Y0236790D01*
X0051969Y0236697D01*
X0052095Y0236601D01*
X0052218Y0236501D01*
X0052339Y0236399D01*
X0052457Y0236294D01*
X0052572Y0236185D01*
X0052685Y0236074D01*
X0052795Y0235960D01*
X0052902Y0235843D01*
X0053006Y0235724D01*
X0053107Y0235602D01*
X0053204Y0235477D01*
X0053299Y0235350D01*
X0053390Y0235221D01*
X0053479Y0235090D01*
X0053563Y0234956D01*
X0053645Y0234820D01*
X0053723Y0234683D01*
X0053797Y0234543D01*
X0053868Y0234401D01*
X0053936Y0234258D01*
X0054000Y0234113D01*
X0054060Y0233967D01*
X0054116Y0233819D01*
X0054169Y0233670D01*
X0054218Y0233519D01*
X0054263Y0233367D01*
X0054304Y0233214D01*
X0054342Y0233061D01*
X0054375Y0232906D01*
X0054405Y0232750D01*
X0054431Y0232594D01*
X0054452Y0232437D01*
X0054470Y0232280D01*
X0054484Y0232122D01*
X0054494Y0231964D01*
X0054500Y0231806D01*
X0054502Y0231648D01*
X0054500Y0231490D01*
X0054494Y0231332D01*
X0054484Y0231174D01*
X0054470Y0231016D01*
X0054452Y0230859D01*
X0054431Y0230702D01*
X0054405Y0230546D01*
X0054375Y0230390D01*
X0054342Y0230235D01*
X0054304Y0230082D01*
X0054263Y0229929D01*
X0054218Y0229777D01*
X0054169Y0229626D01*
X0054116Y0229477D01*
X0054060Y0229329D01*
X0054000Y0229183D01*
X0053936Y0229038D01*
X0053868Y0228895D01*
X0053797Y0228753D01*
X0053723Y0228613D01*
X0053645Y0228476D01*
X0053563Y0228340D01*
X0053479Y0228206D01*
X0053390Y0228075D01*
X0053299Y0227946D01*
X0053204Y0227819D01*
X0053107Y0227694D01*
X0053006Y0227572D01*
X0052902Y0227453D01*
X0052795Y0227336D01*
X0052685Y0227222D01*
X0052572Y0227111D01*
X0052457Y0227002D01*
X0052339Y0226897D01*
X0052218Y0226795D01*
X0052095Y0226695D01*
X0051969Y0226599D01*
X0051841Y0226506D01*
X0051711Y0226416D01*
X0051578Y0226330D01*
X0051443Y0226246D01*
X0051307Y0226167D01*
X0051168Y0226090D01*
X0051027Y0226018D01*
X0050885Y0225948D01*
X0050741Y0225883D01*
X0050595Y0225821D01*
X0050448Y0225763D01*
X0050299Y0225708D01*
X0050149Y0225657D01*
X0049998Y0225610D01*
X0049846Y0225567D01*
X0049693Y0225528D01*
X0049538Y0225492D01*
X0049383Y0225461D01*
X0049227Y0225433D01*
X0049071Y0225409D01*
X0048914Y0225389D01*
X0048756Y0225373D01*
X0048599Y0225361D01*
X0048440Y0225353D01*
X0048282Y0225349D01*
X0048124Y0225349D01*
X0047966Y0225353D01*
X0047807Y0225361D01*
X0047650Y0225373D01*
X0047492Y0225389D01*
X0047335Y0225409D01*
X0047179Y0225433D01*
X0047023Y0225461D01*
X0046868Y0225492D01*
X0046713Y0225528D01*
X0046560Y0225567D01*
X0046408Y0225610D01*
X0046257Y0225657D01*
X0046107Y0225708D01*
X0045958Y0225763D01*
X0045811Y0225821D01*
X0045665Y0225883D01*
X0045521Y0225948D01*
X0045379Y0226018D01*
X0045238Y0226090D01*
X0045099Y0226167D01*
X0044963Y0226246D01*
X0044828Y0226330D01*
X0044695Y0226416D01*
X0044565Y0226506D01*
X0044437Y0226599D01*
X0044311Y0226695D01*
X0044188Y0226795D01*
X0044067Y0226897D01*
X0043949Y0227002D01*
X0043834Y0227111D01*
X0043721Y0227222D01*
X0043611Y0227336D01*
X0043504Y0227453D01*
X0043400Y0227572D01*
X0043299Y0227694D01*
X0043202Y0227819D01*
X0043107Y0227946D01*
X0043016Y0228075D01*
X0042927Y0228206D01*
X0042843Y0228340D01*
X0042761Y0228476D01*
X0042683Y0228613D01*
X0042609Y0228753D01*
X0042538Y0228895D01*
X0042470Y0229038D01*
X0042406Y0229183D01*
X0042346Y0229329D01*
X0042290Y0229477D01*
X0042237Y0229626D01*
X0042188Y0229777D01*
X0042143Y0229929D01*
X0042102Y0230082D01*
X0042064Y0230235D01*
X0042031Y0230390D01*
X0042001Y0230546D01*
X0041975Y0230702D01*
X0041954Y0230859D01*
X0041936Y0231016D01*
X0041922Y0231174D01*
X0041912Y0231332D01*
X0041906Y0231490D01*
X0041904Y0231648D01*
X0041904Y0204148D02*
X0041906Y0204306D01*
X0041912Y0204464D01*
X0041922Y0204622D01*
X0041936Y0204780D01*
X0041954Y0204937D01*
X0041975Y0205094D01*
X0042001Y0205250D01*
X0042031Y0205406D01*
X0042064Y0205561D01*
X0042102Y0205714D01*
X0042143Y0205867D01*
X0042188Y0206019D01*
X0042237Y0206170D01*
X0042290Y0206319D01*
X0042346Y0206467D01*
X0042406Y0206613D01*
X0042470Y0206758D01*
X0042538Y0206901D01*
X0042609Y0207043D01*
X0042683Y0207183D01*
X0042761Y0207320D01*
X0042843Y0207456D01*
X0042927Y0207590D01*
X0043016Y0207721D01*
X0043107Y0207850D01*
X0043202Y0207977D01*
X0043299Y0208102D01*
X0043400Y0208224D01*
X0043504Y0208343D01*
X0043611Y0208460D01*
X0043721Y0208574D01*
X0043834Y0208685D01*
X0043949Y0208794D01*
X0044067Y0208899D01*
X0044188Y0209001D01*
X0044311Y0209101D01*
X0044437Y0209197D01*
X0044565Y0209290D01*
X0044695Y0209380D01*
X0044828Y0209466D01*
X0044963Y0209550D01*
X0045099Y0209629D01*
X0045238Y0209706D01*
X0045379Y0209778D01*
X0045521Y0209848D01*
X0045665Y0209913D01*
X0045811Y0209975D01*
X0045958Y0210033D01*
X0046107Y0210088D01*
X0046257Y0210139D01*
X0046408Y0210186D01*
X0046560Y0210229D01*
X0046713Y0210268D01*
X0046868Y0210304D01*
X0047023Y0210335D01*
X0047179Y0210363D01*
X0047335Y0210387D01*
X0047492Y0210407D01*
X0047650Y0210423D01*
X0047807Y0210435D01*
X0047966Y0210443D01*
X0048124Y0210447D01*
X0048282Y0210447D01*
X0048440Y0210443D01*
X0048599Y0210435D01*
X0048756Y0210423D01*
X0048914Y0210407D01*
X0049071Y0210387D01*
X0049227Y0210363D01*
X0049383Y0210335D01*
X0049538Y0210304D01*
X0049693Y0210268D01*
X0049846Y0210229D01*
X0049998Y0210186D01*
X0050149Y0210139D01*
X0050299Y0210088D01*
X0050448Y0210033D01*
X0050595Y0209975D01*
X0050741Y0209913D01*
X0050885Y0209848D01*
X0051027Y0209778D01*
X0051168Y0209706D01*
X0051307Y0209629D01*
X0051443Y0209550D01*
X0051578Y0209466D01*
X0051711Y0209380D01*
X0051841Y0209290D01*
X0051969Y0209197D01*
X0052095Y0209101D01*
X0052218Y0209001D01*
X0052339Y0208899D01*
X0052457Y0208794D01*
X0052572Y0208685D01*
X0052685Y0208574D01*
X0052795Y0208460D01*
X0052902Y0208343D01*
X0053006Y0208224D01*
X0053107Y0208102D01*
X0053204Y0207977D01*
X0053299Y0207850D01*
X0053390Y0207721D01*
X0053479Y0207590D01*
X0053563Y0207456D01*
X0053645Y0207320D01*
X0053723Y0207183D01*
X0053797Y0207043D01*
X0053868Y0206901D01*
X0053936Y0206758D01*
X0054000Y0206613D01*
X0054060Y0206467D01*
X0054116Y0206319D01*
X0054169Y0206170D01*
X0054218Y0206019D01*
X0054263Y0205867D01*
X0054304Y0205714D01*
X0054342Y0205561D01*
X0054375Y0205406D01*
X0054405Y0205250D01*
X0054431Y0205094D01*
X0054452Y0204937D01*
X0054470Y0204780D01*
X0054484Y0204622D01*
X0054494Y0204464D01*
X0054500Y0204306D01*
X0054502Y0204148D01*
X0054500Y0203990D01*
X0054494Y0203832D01*
X0054484Y0203674D01*
X0054470Y0203516D01*
X0054452Y0203359D01*
X0054431Y0203202D01*
X0054405Y0203046D01*
X0054375Y0202890D01*
X0054342Y0202735D01*
X0054304Y0202582D01*
X0054263Y0202429D01*
X0054218Y0202277D01*
X0054169Y0202126D01*
X0054116Y0201977D01*
X0054060Y0201829D01*
X0054000Y0201683D01*
X0053936Y0201538D01*
X0053868Y0201395D01*
X0053797Y0201253D01*
X0053723Y0201113D01*
X0053645Y0200976D01*
X0053563Y0200840D01*
X0053479Y0200706D01*
X0053390Y0200575D01*
X0053299Y0200446D01*
X0053204Y0200319D01*
X0053107Y0200194D01*
X0053006Y0200072D01*
X0052902Y0199953D01*
X0052795Y0199836D01*
X0052685Y0199722D01*
X0052572Y0199611D01*
X0052457Y0199502D01*
X0052339Y0199397D01*
X0052218Y0199295D01*
X0052095Y0199195D01*
X0051969Y0199099D01*
X0051841Y0199006D01*
X0051711Y0198916D01*
X0051578Y0198830D01*
X0051443Y0198746D01*
X0051307Y0198667D01*
X0051168Y0198590D01*
X0051027Y0198518D01*
X0050885Y0198448D01*
X0050741Y0198383D01*
X0050595Y0198321D01*
X0050448Y0198263D01*
X0050299Y0198208D01*
X0050149Y0198157D01*
X0049998Y0198110D01*
X0049846Y0198067D01*
X0049693Y0198028D01*
X0049538Y0197992D01*
X0049383Y0197961D01*
X0049227Y0197933D01*
X0049071Y0197909D01*
X0048914Y0197889D01*
X0048756Y0197873D01*
X0048599Y0197861D01*
X0048440Y0197853D01*
X0048282Y0197849D01*
X0048124Y0197849D01*
X0047966Y0197853D01*
X0047807Y0197861D01*
X0047650Y0197873D01*
X0047492Y0197889D01*
X0047335Y0197909D01*
X0047179Y0197933D01*
X0047023Y0197961D01*
X0046868Y0197992D01*
X0046713Y0198028D01*
X0046560Y0198067D01*
X0046408Y0198110D01*
X0046257Y0198157D01*
X0046107Y0198208D01*
X0045958Y0198263D01*
X0045811Y0198321D01*
X0045665Y0198383D01*
X0045521Y0198448D01*
X0045379Y0198518D01*
X0045238Y0198590D01*
X0045099Y0198667D01*
X0044963Y0198746D01*
X0044828Y0198830D01*
X0044695Y0198916D01*
X0044565Y0199006D01*
X0044437Y0199099D01*
X0044311Y0199195D01*
X0044188Y0199295D01*
X0044067Y0199397D01*
X0043949Y0199502D01*
X0043834Y0199611D01*
X0043721Y0199722D01*
X0043611Y0199836D01*
X0043504Y0199953D01*
X0043400Y0200072D01*
X0043299Y0200194D01*
X0043202Y0200319D01*
X0043107Y0200446D01*
X0043016Y0200575D01*
X0042927Y0200706D01*
X0042843Y0200840D01*
X0042761Y0200976D01*
X0042683Y0201113D01*
X0042609Y0201253D01*
X0042538Y0201395D01*
X0042470Y0201538D01*
X0042406Y0201683D01*
X0042346Y0201829D01*
X0042290Y0201977D01*
X0042237Y0202126D01*
X0042188Y0202277D01*
X0042143Y0202429D01*
X0042102Y0202582D01*
X0042064Y0202735D01*
X0042031Y0202890D01*
X0042001Y0203046D01*
X0041975Y0203202D01*
X0041954Y0203359D01*
X0041936Y0203516D01*
X0041922Y0203674D01*
X0041912Y0203832D01*
X0041906Y0203990D01*
X0041904Y0204148D01*
X0041904Y0159148D02*
X0041906Y0159306D01*
X0041912Y0159464D01*
X0041922Y0159622D01*
X0041936Y0159780D01*
X0041954Y0159937D01*
X0041975Y0160094D01*
X0042001Y0160250D01*
X0042031Y0160406D01*
X0042064Y0160561D01*
X0042102Y0160714D01*
X0042143Y0160867D01*
X0042188Y0161019D01*
X0042237Y0161170D01*
X0042290Y0161319D01*
X0042346Y0161467D01*
X0042406Y0161613D01*
X0042470Y0161758D01*
X0042538Y0161901D01*
X0042609Y0162043D01*
X0042683Y0162183D01*
X0042761Y0162320D01*
X0042843Y0162456D01*
X0042927Y0162590D01*
X0043016Y0162721D01*
X0043107Y0162850D01*
X0043202Y0162977D01*
X0043299Y0163102D01*
X0043400Y0163224D01*
X0043504Y0163343D01*
X0043611Y0163460D01*
X0043721Y0163574D01*
X0043834Y0163685D01*
X0043949Y0163794D01*
X0044067Y0163899D01*
X0044188Y0164001D01*
X0044311Y0164101D01*
X0044437Y0164197D01*
X0044565Y0164290D01*
X0044695Y0164380D01*
X0044828Y0164466D01*
X0044963Y0164550D01*
X0045099Y0164629D01*
X0045238Y0164706D01*
X0045379Y0164778D01*
X0045521Y0164848D01*
X0045665Y0164913D01*
X0045811Y0164975D01*
X0045958Y0165033D01*
X0046107Y0165088D01*
X0046257Y0165139D01*
X0046408Y0165186D01*
X0046560Y0165229D01*
X0046713Y0165268D01*
X0046868Y0165304D01*
X0047023Y0165335D01*
X0047179Y0165363D01*
X0047335Y0165387D01*
X0047492Y0165407D01*
X0047650Y0165423D01*
X0047807Y0165435D01*
X0047966Y0165443D01*
X0048124Y0165447D01*
X0048282Y0165447D01*
X0048440Y0165443D01*
X0048599Y0165435D01*
X0048756Y0165423D01*
X0048914Y0165407D01*
X0049071Y0165387D01*
X0049227Y0165363D01*
X0049383Y0165335D01*
X0049538Y0165304D01*
X0049693Y0165268D01*
X0049846Y0165229D01*
X0049998Y0165186D01*
X0050149Y0165139D01*
X0050299Y0165088D01*
X0050448Y0165033D01*
X0050595Y0164975D01*
X0050741Y0164913D01*
X0050885Y0164848D01*
X0051027Y0164778D01*
X0051168Y0164706D01*
X0051307Y0164629D01*
X0051443Y0164550D01*
X0051578Y0164466D01*
X0051711Y0164380D01*
X0051841Y0164290D01*
X0051969Y0164197D01*
X0052095Y0164101D01*
X0052218Y0164001D01*
X0052339Y0163899D01*
X0052457Y0163794D01*
X0052572Y0163685D01*
X0052685Y0163574D01*
X0052795Y0163460D01*
X0052902Y0163343D01*
X0053006Y0163224D01*
X0053107Y0163102D01*
X0053204Y0162977D01*
X0053299Y0162850D01*
X0053390Y0162721D01*
X0053479Y0162590D01*
X0053563Y0162456D01*
X0053645Y0162320D01*
X0053723Y0162183D01*
X0053797Y0162043D01*
X0053868Y0161901D01*
X0053936Y0161758D01*
X0054000Y0161613D01*
X0054060Y0161467D01*
X0054116Y0161319D01*
X0054169Y0161170D01*
X0054218Y0161019D01*
X0054263Y0160867D01*
X0054304Y0160714D01*
X0054342Y0160561D01*
X0054375Y0160406D01*
X0054405Y0160250D01*
X0054431Y0160094D01*
X0054452Y0159937D01*
X0054470Y0159780D01*
X0054484Y0159622D01*
X0054494Y0159464D01*
X0054500Y0159306D01*
X0054502Y0159148D01*
X0054500Y0158990D01*
X0054494Y0158832D01*
X0054484Y0158674D01*
X0054470Y0158516D01*
X0054452Y0158359D01*
X0054431Y0158202D01*
X0054405Y0158046D01*
X0054375Y0157890D01*
X0054342Y0157735D01*
X0054304Y0157582D01*
X0054263Y0157429D01*
X0054218Y0157277D01*
X0054169Y0157126D01*
X0054116Y0156977D01*
X0054060Y0156829D01*
X0054000Y0156683D01*
X0053936Y0156538D01*
X0053868Y0156395D01*
X0053797Y0156253D01*
X0053723Y0156113D01*
X0053645Y0155976D01*
X0053563Y0155840D01*
X0053479Y0155706D01*
X0053390Y0155575D01*
X0053299Y0155446D01*
X0053204Y0155319D01*
X0053107Y0155194D01*
X0053006Y0155072D01*
X0052902Y0154953D01*
X0052795Y0154836D01*
X0052685Y0154722D01*
X0052572Y0154611D01*
X0052457Y0154502D01*
X0052339Y0154397D01*
X0052218Y0154295D01*
X0052095Y0154195D01*
X0051969Y0154099D01*
X0051841Y0154006D01*
X0051711Y0153916D01*
X0051578Y0153830D01*
X0051443Y0153746D01*
X0051307Y0153667D01*
X0051168Y0153590D01*
X0051027Y0153518D01*
X0050885Y0153448D01*
X0050741Y0153383D01*
X0050595Y0153321D01*
X0050448Y0153263D01*
X0050299Y0153208D01*
X0050149Y0153157D01*
X0049998Y0153110D01*
X0049846Y0153067D01*
X0049693Y0153028D01*
X0049538Y0152992D01*
X0049383Y0152961D01*
X0049227Y0152933D01*
X0049071Y0152909D01*
X0048914Y0152889D01*
X0048756Y0152873D01*
X0048599Y0152861D01*
X0048440Y0152853D01*
X0048282Y0152849D01*
X0048124Y0152849D01*
X0047966Y0152853D01*
X0047807Y0152861D01*
X0047650Y0152873D01*
X0047492Y0152889D01*
X0047335Y0152909D01*
X0047179Y0152933D01*
X0047023Y0152961D01*
X0046868Y0152992D01*
X0046713Y0153028D01*
X0046560Y0153067D01*
X0046408Y0153110D01*
X0046257Y0153157D01*
X0046107Y0153208D01*
X0045958Y0153263D01*
X0045811Y0153321D01*
X0045665Y0153383D01*
X0045521Y0153448D01*
X0045379Y0153518D01*
X0045238Y0153590D01*
X0045099Y0153667D01*
X0044963Y0153746D01*
X0044828Y0153830D01*
X0044695Y0153916D01*
X0044565Y0154006D01*
X0044437Y0154099D01*
X0044311Y0154195D01*
X0044188Y0154295D01*
X0044067Y0154397D01*
X0043949Y0154502D01*
X0043834Y0154611D01*
X0043721Y0154722D01*
X0043611Y0154836D01*
X0043504Y0154953D01*
X0043400Y0155072D01*
X0043299Y0155194D01*
X0043202Y0155319D01*
X0043107Y0155446D01*
X0043016Y0155575D01*
X0042927Y0155706D01*
X0042843Y0155840D01*
X0042761Y0155976D01*
X0042683Y0156113D01*
X0042609Y0156253D01*
X0042538Y0156395D01*
X0042470Y0156538D01*
X0042406Y0156683D01*
X0042346Y0156829D01*
X0042290Y0156977D01*
X0042237Y0157126D01*
X0042188Y0157277D01*
X0042143Y0157429D01*
X0042102Y0157582D01*
X0042064Y0157735D01*
X0042031Y0157890D01*
X0042001Y0158046D01*
X0041975Y0158202D01*
X0041954Y0158359D01*
X0041936Y0158516D01*
X0041922Y0158674D01*
X0041912Y0158832D01*
X0041906Y0158990D01*
X0041904Y0159148D01*
X0036451Y0135250D02*
X0036453Y0135408D01*
X0036459Y0135566D01*
X0036469Y0135724D01*
X0036483Y0135882D01*
X0036501Y0136039D01*
X0036522Y0136196D01*
X0036548Y0136352D01*
X0036578Y0136508D01*
X0036611Y0136663D01*
X0036649Y0136816D01*
X0036690Y0136969D01*
X0036735Y0137121D01*
X0036784Y0137272D01*
X0036837Y0137421D01*
X0036893Y0137569D01*
X0036953Y0137715D01*
X0037017Y0137860D01*
X0037085Y0138003D01*
X0037156Y0138145D01*
X0037230Y0138285D01*
X0037308Y0138422D01*
X0037390Y0138558D01*
X0037474Y0138692D01*
X0037563Y0138823D01*
X0037654Y0138952D01*
X0037749Y0139079D01*
X0037846Y0139204D01*
X0037947Y0139326D01*
X0038051Y0139445D01*
X0038158Y0139562D01*
X0038268Y0139676D01*
X0038381Y0139787D01*
X0038496Y0139896D01*
X0038614Y0140001D01*
X0038735Y0140103D01*
X0038858Y0140203D01*
X0038984Y0140299D01*
X0039112Y0140392D01*
X0039242Y0140482D01*
X0039375Y0140568D01*
X0039510Y0140652D01*
X0039646Y0140731D01*
X0039785Y0140808D01*
X0039926Y0140880D01*
X0040068Y0140950D01*
X0040212Y0141015D01*
X0040358Y0141077D01*
X0040505Y0141135D01*
X0040654Y0141190D01*
X0040804Y0141241D01*
X0040955Y0141288D01*
X0041107Y0141331D01*
X0041260Y0141370D01*
X0041415Y0141406D01*
X0041570Y0141437D01*
X0041726Y0141465D01*
X0041882Y0141489D01*
X0042039Y0141509D01*
X0042197Y0141525D01*
X0042354Y0141537D01*
X0042513Y0141545D01*
X0042671Y0141549D01*
X0042829Y0141549D01*
X0042987Y0141545D01*
X0043146Y0141537D01*
X0043303Y0141525D01*
X0043461Y0141509D01*
X0043618Y0141489D01*
X0043774Y0141465D01*
X0043930Y0141437D01*
X0044085Y0141406D01*
X0044240Y0141370D01*
X0044393Y0141331D01*
X0044545Y0141288D01*
X0044696Y0141241D01*
X0044846Y0141190D01*
X0044995Y0141135D01*
X0045142Y0141077D01*
X0045288Y0141015D01*
X0045432Y0140950D01*
X0045574Y0140880D01*
X0045715Y0140808D01*
X0045854Y0140731D01*
X0045990Y0140652D01*
X0046125Y0140568D01*
X0046258Y0140482D01*
X0046388Y0140392D01*
X0046516Y0140299D01*
X0046642Y0140203D01*
X0046765Y0140103D01*
X0046886Y0140001D01*
X0047004Y0139896D01*
X0047119Y0139787D01*
X0047232Y0139676D01*
X0047342Y0139562D01*
X0047449Y0139445D01*
X0047553Y0139326D01*
X0047654Y0139204D01*
X0047751Y0139079D01*
X0047846Y0138952D01*
X0047937Y0138823D01*
X0048026Y0138692D01*
X0048110Y0138558D01*
X0048192Y0138422D01*
X0048270Y0138285D01*
X0048344Y0138145D01*
X0048415Y0138003D01*
X0048483Y0137860D01*
X0048547Y0137715D01*
X0048607Y0137569D01*
X0048663Y0137421D01*
X0048716Y0137272D01*
X0048765Y0137121D01*
X0048810Y0136969D01*
X0048851Y0136816D01*
X0048889Y0136663D01*
X0048922Y0136508D01*
X0048952Y0136352D01*
X0048978Y0136196D01*
X0048999Y0136039D01*
X0049017Y0135882D01*
X0049031Y0135724D01*
X0049041Y0135566D01*
X0049047Y0135408D01*
X0049049Y0135250D01*
X0049047Y0135092D01*
X0049041Y0134934D01*
X0049031Y0134776D01*
X0049017Y0134618D01*
X0048999Y0134461D01*
X0048978Y0134304D01*
X0048952Y0134148D01*
X0048922Y0133992D01*
X0048889Y0133837D01*
X0048851Y0133684D01*
X0048810Y0133531D01*
X0048765Y0133379D01*
X0048716Y0133228D01*
X0048663Y0133079D01*
X0048607Y0132931D01*
X0048547Y0132785D01*
X0048483Y0132640D01*
X0048415Y0132497D01*
X0048344Y0132355D01*
X0048270Y0132215D01*
X0048192Y0132078D01*
X0048110Y0131942D01*
X0048026Y0131808D01*
X0047937Y0131677D01*
X0047846Y0131548D01*
X0047751Y0131421D01*
X0047654Y0131296D01*
X0047553Y0131174D01*
X0047449Y0131055D01*
X0047342Y0130938D01*
X0047232Y0130824D01*
X0047119Y0130713D01*
X0047004Y0130604D01*
X0046886Y0130499D01*
X0046765Y0130397D01*
X0046642Y0130297D01*
X0046516Y0130201D01*
X0046388Y0130108D01*
X0046258Y0130018D01*
X0046125Y0129932D01*
X0045990Y0129848D01*
X0045854Y0129769D01*
X0045715Y0129692D01*
X0045574Y0129620D01*
X0045432Y0129550D01*
X0045288Y0129485D01*
X0045142Y0129423D01*
X0044995Y0129365D01*
X0044846Y0129310D01*
X0044696Y0129259D01*
X0044545Y0129212D01*
X0044393Y0129169D01*
X0044240Y0129130D01*
X0044085Y0129094D01*
X0043930Y0129063D01*
X0043774Y0129035D01*
X0043618Y0129011D01*
X0043461Y0128991D01*
X0043303Y0128975D01*
X0043146Y0128963D01*
X0042987Y0128955D01*
X0042829Y0128951D01*
X0042671Y0128951D01*
X0042513Y0128955D01*
X0042354Y0128963D01*
X0042197Y0128975D01*
X0042039Y0128991D01*
X0041882Y0129011D01*
X0041726Y0129035D01*
X0041570Y0129063D01*
X0041415Y0129094D01*
X0041260Y0129130D01*
X0041107Y0129169D01*
X0040955Y0129212D01*
X0040804Y0129259D01*
X0040654Y0129310D01*
X0040505Y0129365D01*
X0040358Y0129423D01*
X0040212Y0129485D01*
X0040068Y0129550D01*
X0039926Y0129620D01*
X0039785Y0129692D01*
X0039646Y0129769D01*
X0039510Y0129848D01*
X0039375Y0129932D01*
X0039242Y0130018D01*
X0039112Y0130108D01*
X0038984Y0130201D01*
X0038858Y0130297D01*
X0038735Y0130397D01*
X0038614Y0130499D01*
X0038496Y0130604D01*
X0038381Y0130713D01*
X0038268Y0130824D01*
X0038158Y0130938D01*
X0038051Y0131055D01*
X0037947Y0131174D01*
X0037846Y0131296D01*
X0037749Y0131421D01*
X0037654Y0131548D01*
X0037563Y0131677D01*
X0037474Y0131808D01*
X0037390Y0131942D01*
X0037308Y0132078D01*
X0037230Y0132215D01*
X0037156Y0132355D01*
X0037085Y0132497D01*
X0037017Y0132640D01*
X0036953Y0132785D01*
X0036893Y0132931D01*
X0036837Y0133079D01*
X0036784Y0133228D01*
X0036735Y0133379D01*
X0036690Y0133531D01*
X0036649Y0133684D01*
X0036611Y0133837D01*
X0036578Y0133992D01*
X0036548Y0134148D01*
X0036522Y0134304D01*
X0036501Y0134461D01*
X0036483Y0134618D01*
X0036469Y0134776D01*
X0036459Y0134934D01*
X0036453Y0135092D01*
X0036451Y0135250D01*
D12*
X0042750Y0135250D03*
X0048203Y0159148D03*
X0048203Y0204148D03*
X0048203Y0231648D03*
X0048203Y0276648D03*
X0048203Y0304148D03*
X0048203Y0349148D03*
X0042750Y0372750D03*
X0130250Y0372750D03*
X0135703Y0349148D03*
X0135703Y0304148D03*
X0135703Y0276648D03*
X0135703Y0231648D03*
X0135703Y0204148D03*
X0135703Y0159148D03*
X0130250Y0135250D03*
X0207750Y0015250D03*
X0237750Y0015250D03*
X0274000Y0015250D03*
X0304000Y0015250D03*
X0340250Y0015250D03*
X0370250Y0015250D03*
D13*
X0237750Y0146904D03*
X0237750Y0153596D03*
X0329000Y0221904D03*
X0329000Y0228596D03*
X0339000Y0228596D03*
X0339000Y0221904D03*
X0309000Y0244404D03*
X0309000Y0251096D03*
X0292750Y0264404D03*
X0292750Y0271096D03*
X0237750Y0256096D03*
X0237750Y0249404D03*
X0229000Y0249404D03*
X0229000Y0256096D03*
X0229846Y0287750D03*
X0223154Y0287750D03*
X0341904Y0176500D03*
X0348596Y0176500D03*
D14*
X0215890Y0287750D03*
X0202110Y0287750D03*
D15*
X0193596Y0200250D03*
X0186904Y0200250D03*
X0290654Y0224000D03*
X0294000Y0230654D03*
X0297346Y0224000D03*
X0301500Y0230654D03*
X0301500Y0237346D03*
X0294000Y0237346D03*
X0309000Y0237346D03*
X0309000Y0230654D03*
X0315654Y0201500D03*
X0322346Y0201500D03*
X0320250Y0193596D03*
X0320250Y0186904D03*
X0326904Y0176500D03*
X0333596Y0176500D03*
X0356500Y0176904D03*
X0356500Y0183596D03*
X0356500Y0190654D03*
X0356500Y0197346D03*
X0356500Y0203154D03*
X0356500Y0209846D03*
X0356904Y0236500D03*
X0363596Y0236500D03*
X0331721Y0266500D03*
X0325029Y0266500D03*
X0302750Y0181096D03*
X0302750Y0174404D03*
X0294000Y0174404D03*
X0294000Y0181096D03*
X0290654Y0042750D03*
X0297346Y0042750D03*
X0356904Y0042750D03*
X0363596Y0042750D03*
X0231096Y0042750D03*
X0224404Y0042750D03*
D16*
X0329000Y0211500D03*
X0338843Y0211500D03*
D17*
X0338488Y0196776D02*
X0337544Y0196776D01*
X0337544Y0198508D01*
X0338488Y0198508D01*
X0338488Y0196776D01*
X0338488Y0197011D02*
X0337544Y0197011D01*
X0337544Y0197246D02*
X0338488Y0197246D01*
X0338488Y0197481D02*
X0337544Y0197481D01*
X0337544Y0197716D02*
X0338488Y0197716D01*
X0338488Y0197951D02*
X0337544Y0197951D01*
X0337544Y0198186D02*
X0338488Y0198186D01*
X0338488Y0198421D02*
X0337544Y0198421D01*
X0336519Y0196776D02*
X0335575Y0196776D01*
X0335575Y0198508D01*
X0336519Y0198508D01*
X0336519Y0196776D01*
X0336519Y0197011D02*
X0335575Y0197011D01*
X0335575Y0197246D02*
X0336519Y0197246D01*
X0336519Y0197481D02*
X0335575Y0197481D01*
X0335575Y0197716D02*
X0336519Y0197716D01*
X0336519Y0197951D02*
X0335575Y0197951D01*
X0335575Y0198186D02*
X0336519Y0198186D01*
X0336519Y0198421D02*
X0335575Y0198421D01*
X0334551Y0196776D02*
X0333607Y0196776D01*
X0333607Y0198508D01*
X0334551Y0198508D01*
X0334551Y0196776D01*
X0334551Y0197011D02*
X0333607Y0197011D01*
X0333607Y0197246D02*
X0334551Y0197246D01*
X0334551Y0197481D02*
X0333607Y0197481D01*
X0333607Y0197716D02*
X0334551Y0197716D01*
X0334551Y0197951D02*
X0333607Y0197951D01*
X0333607Y0198186D02*
X0334551Y0198186D01*
X0334551Y0198421D02*
X0333607Y0198421D01*
X0332582Y0196776D02*
X0331638Y0196776D01*
X0331638Y0198508D01*
X0332582Y0198508D01*
X0332582Y0196776D01*
X0332582Y0197011D02*
X0331638Y0197011D01*
X0331638Y0197246D02*
X0332582Y0197246D01*
X0332582Y0197481D02*
X0331638Y0197481D01*
X0331638Y0197716D02*
X0332582Y0197716D01*
X0332582Y0197951D02*
X0331638Y0197951D01*
X0331638Y0198186D02*
X0332582Y0198186D01*
X0332582Y0198421D02*
X0331638Y0198421D01*
X0330614Y0196776D02*
X0329670Y0196776D01*
X0329670Y0198508D01*
X0330614Y0198508D01*
X0330614Y0196776D01*
X0330614Y0197011D02*
X0329670Y0197011D01*
X0329670Y0197246D02*
X0330614Y0197246D01*
X0330614Y0197481D02*
X0329670Y0197481D01*
X0329670Y0197716D02*
X0330614Y0197716D01*
X0330614Y0197951D02*
X0329670Y0197951D01*
X0329670Y0198186D02*
X0330614Y0198186D01*
X0330614Y0198421D02*
X0329670Y0198421D01*
X0331008Y0194925D02*
X0331008Y0193981D01*
X0329276Y0193981D01*
X0329276Y0194925D01*
X0331008Y0194925D01*
X0331008Y0194216D02*
X0329276Y0194216D01*
X0329276Y0194451D02*
X0331008Y0194451D01*
X0331008Y0194686D02*
X0329276Y0194686D01*
X0329276Y0194921D02*
X0331008Y0194921D01*
X0331008Y0192956D02*
X0331008Y0192012D01*
X0329276Y0192012D01*
X0329276Y0192956D01*
X0331008Y0192956D01*
X0331008Y0192247D02*
X0329276Y0192247D01*
X0329276Y0192482D02*
X0331008Y0192482D01*
X0331008Y0192717D02*
X0329276Y0192717D01*
X0329276Y0192952D02*
X0331008Y0192952D01*
X0331008Y0190988D02*
X0331008Y0190044D01*
X0329276Y0190044D01*
X0329276Y0190988D01*
X0331008Y0190988D01*
X0331008Y0190279D02*
X0329276Y0190279D01*
X0329276Y0190514D02*
X0331008Y0190514D01*
X0331008Y0190749D02*
X0329276Y0190749D01*
X0329276Y0190984D02*
X0331008Y0190984D01*
X0331008Y0189019D02*
X0331008Y0188075D01*
X0329276Y0188075D01*
X0329276Y0189019D01*
X0331008Y0189019D01*
X0331008Y0188310D02*
X0329276Y0188310D01*
X0329276Y0188545D02*
X0331008Y0188545D01*
X0331008Y0188780D02*
X0329276Y0188780D01*
X0329276Y0189015D02*
X0331008Y0189015D01*
X0330614Y0184492D02*
X0329670Y0184492D01*
X0329670Y0186224D01*
X0330614Y0186224D01*
X0330614Y0184492D01*
X0330614Y0184727D02*
X0329670Y0184727D01*
X0329670Y0184962D02*
X0330614Y0184962D01*
X0330614Y0185197D02*
X0329670Y0185197D01*
X0329670Y0185432D02*
X0330614Y0185432D01*
X0330614Y0185667D02*
X0329670Y0185667D01*
X0329670Y0185902D02*
X0330614Y0185902D01*
X0330614Y0186137D02*
X0329670Y0186137D01*
X0331638Y0184492D02*
X0332582Y0184492D01*
X0331638Y0184492D02*
X0331638Y0186224D01*
X0332582Y0186224D01*
X0332582Y0184492D01*
X0332582Y0184727D02*
X0331638Y0184727D01*
X0331638Y0184962D02*
X0332582Y0184962D01*
X0332582Y0185197D02*
X0331638Y0185197D01*
X0331638Y0185432D02*
X0332582Y0185432D01*
X0332582Y0185667D02*
X0331638Y0185667D01*
X0331638Y0185902D02*
X0332582Y0185902D01*
X0332582Y0186137D02*
X0331638Y0186137D01*
X0333607Y0184492D02*
X0334551Y0184492D01*
X0333607Y0184492D02*
X0333607Y0186224D01*
X0334551Y0186224D01*
X0334551Y0184492D01*
X0334551Y0184727D02*
X0333607Y0184727D01*
X0333607Y0184962D02*
X0334551Y0184962D01*
X0334551Y0185197D02*
X0333607Y0185197D01*
X0333607Y0185432D02*
X0334551Y0185432D01*
X0334551Y0185667D02*
X0333607Y0185667D01*
X0333607Y0185902D02*
X0334551Y0185902D01*
X0334551Y0186137D02*
X0333607Y0186137D01*
X0335575Y0184492D02*
X0336519Y0184492D01*
X0335575Y0184492D02*
X0335575Y0186224D01*
X0336519Y0186224D01*
X0336519Y0184492D01*
X0336519Y0184727D02*
X0335575Y0184727D01*
X0335575Y0184962D02*
X0336519Y0184962D01*
X0336519Y0185197D02*
X0335575Y0185197D01*
X0335575Y0185432D02*
X0336519Y0185432D01*
X0336519Y0185667D02*
X0335575Y0185667D01*
X0335575Y0185902D02*
X0336519Y0185902D01*
X0336519Y0186137D02*
X0335575Y0186137D01*
X0337544Y0184492D02*
X0338488Y0184492D01*
X0337544Y0184492D02*
X0337544Y0186224D01*
X0338488Y0186224D01*
X0338488Y0184492D01*
X0338488Y0184727D02*
X0337544Y0184727D01*
X0337544Y0184962D02*
X0338488Y0184962D01*
X0338488Y0185197D02*
X0337544Y0185197D01*
X0337544Y0185432D02*
X0338488Y0185432D01*
X0338488Y0185667D02*
X0337544Y0185667D01*
X0337544Y0185902D02*
X0338488Y0185902D01*
X0338488Y0186137D02*
X0337544Y0186137D01*
X0339512Y0184492D02*
X0340456Y0184492D01*
X0339512Y0184492D02*
X0339512Y0186224D01*
X0340456Y0186224D01*
X0340456Y0184492D01*
X0340456Y0184727D02*
X0339512Y0184727D01*
X0339512Y0184962D02*
X0340456Y0184962D01*
X0340456Y0185197D02*
X0339512Y0185197D01*
X0339512Y0185432D02*
X0340456Y0185432D01*
X0340456Y0185667D02*
X0339512Y0185667D01*
X0339512Y0185902D02*
X0340456Y0185902D01*
X0340456Y0186137D02*
X0339512Y0186137D01*
X0341481Y0184492D02*
X0342425Y0184492D01*
X0341481Y0184492D02*
X0341481Y0186224D01*
X0342425Y0186224D01*
X0342425Y0184492D01*
X0342425Y0184727D02*
X0341481Y0184727D01*
X0341481Y0184962D02*
X0342425Y0184962D01*
X0342425Y0185197D02*
X0341481Y0185197D01*
X0341481Y0185432D02*
X0342425Y0185432D01*
X0342425Y0185667D02*
X0341481Y0185667D01*
X0341481Y0185902D02*
X0342425Y0185902D01*
X0342425Y0186137D02*
X0341481Y0186137D01*
X0343449Y0184492D02*
X0344393Y0184492D01*
X0343449Y0184492D02*
X0343449Y0186224D01*
X0344393Y0186224D01*
X0344393Y0184492D01*
X0344393Y0184727D02*
X0343449Y0184727D01*
X0343449Y0184962D02*
X0344393Y0184962D01*
X0344393Y0185197D02*
X0343449Y0185197D01*
X0343449Y0185432D02*
X0344393Y0185432D01*
X0344393Y0185667D02*
X0343449Y0185667D01*
X0343449Y0185902D02*
X0344393Y0185902D01*
X0344393Y0186137D02*
X0343449Y0186137D01*
X0345418Y0184492D02*
X0346362Y0184492D01*
X0345418Y0184492D02*
X0345418Y0186224D01*
X0346362Y0186224D01*
X0346362Y0184492D01*
X0346362Y0184727D02*
X0345418Y0184727D01*
X0345418Y0184962D02*
X0346362Y0184962D01*
X0346362Y0185197D02*
X0345418Y0185197D01*
X0345418Y0185432D02*
X0346362Y0185432D01*
X0346362Y0185667D02*
X0345418Y0185667D01*
X0345418Y0185902D02*
X0346362Y0185902D01*
X0346362Y0186137D02*
X0345418Y0186137D01*
X0347386Y0184492D02*
X0348330Y0184492D01*
X0347386Y0184492D02*
X0347386Y0186224D01*
X0348330Y0186224D01*
X0348330Y0184492D01*
X0348330Y0184727D02*
X0347386Y0184727D01*
X0347386Y0184962D02*
X0348330Y0184962D01*
X0348330Y0185197D02*
X0347386Y0185197D01*
X0347386Y0185432D02*
X0348330Y0185432D01*
X0348330Y0185667D02*
X0347386Y0185667D01*
X0347386Y0185902D02*
X0348330Y0185902D01*
X0348330Y0186137D02*
X0347386Y0186137D01*
X0348724Y0188075D02*
X0348724Y0189019D01*
X0348724Y0188075D02*
X0346992Y0188075D01*
X0346992Y0189019D01*
X0348724Y0189019D01*
X0348724Y0188310D02*
X0346992Y0188310D01*
X0346992Y0188545D02*
X0348724Y0188545D01*
X0348724Y0188780D02*
X0346992Y0188780D01*
X0346992Y0189015D02*
X0348724Y0189015D01*
X0348724Y0190044D02*
X0348724Y0190988D01*
X0348724Y0190044D02*
X0346992Y0190044D01*
X0346992Y0190988D01*
X0348724Y0190988D01*
X0348724Y0190279D02*
X0346992Y0190279D01*
X0346992Y0190514D02*
X0348724Y0190514D01*
X0348724Y0190749D02*
X0346992Y0190749D01*
X0346992Y0190984D02*
X0348724Y0190984D01*
X0348724Y0192012D02*
X0348724Y0192956D01*
X0348724Y0192012D02*
X0346992Y0192012D01*
X0346992Y0192956D01*
X0348724Y0192956D01*
X0348724Y0192247D02*
X0346992Y0192247D01*
X0346992Y0192482D02*
X0348724Y0192482D01*
X0348724Y0192717D02*
X0346992Y0192717D01*
X0346992Y0192952D02*
X0348724Y0192952D01*
X0348724Y0193981D02*
X0348724Y0194925D01*
X0348724Y0193981D02*
X0346992Y0193981D01*
X0346992Y0194925D01*
X0348724Y0194925D01*
X0348724Y0194216D02*
X0346992Y0194216D01*
X0346992Y0194451D02*
X0348724Y0194451D01*
X0348724Y0194686D02*
X0346992Y0194686D01*
X0346992Y0194921D02*
X0348724Y0194921D01*
X0348330Y0196776D02*
X0347386Y0196776D01*
X0347386Y0198508D01*
X0348330Y0198508D01*
X0348330Y0196776D01*
X0348330Y0197011D02*
X0347386Y0197011D01*
X0347386Y0197246D02*
X0348330Y0197246D01*
X0348330Y0197481D02*
X0347386Y0197481D01*
X0347386Y0197716D02*
X0348330Y0197716D01*
X0348330Y0197951D02*
X0347386Y0197951D01*
X0347386Y0198186D02*
X0348330Y0198186D01*
X0348330Y0198421D02*
X0347386Y0198421D01*
X0346362Y0196776D02*
X0345418Y0196776D01*
X0345418Y0198508D01*
X0346362Y0198508D01*
X0346362Y0196776D01*
X0346362Y0197011D02*
X0345418Y0197011D01*
X0345418Y0197246D02*
X0346362Y0197246D01*
X0346362Y0197481D02*
X0345418Y0197481D01*
X0345418Y0197716D02*
X0346362Y0197716D01*
X0346362Y0197951D02*
X0345418Y0197951D01*
X0345418Y0198186D02*
X0346362Y0198186D01*
X0346362Y0198421D02*
X0345418Y0198421D01*
X0344393Y0196776D02*
X0343449Y0196776D01*
X0343449Y0198508D01*
X0344393Y0198508D01*
X0344393Y0196776D01*
X0344393Y0197011D02*
X0343449Y0197011D01*
X0343449Y0197246D02*
X0344393Y0197246D01*
X0344393Y0197481D02*
X0343449Y0197481D01*
X0343449Y0197716D02*
X0344393Y0197716D01*
X0344393Y0197951D02*
X0343449Y0197951D01*
X0343449Y0198186D02*
X0344393Y0198186D01*
X0344393Y0198421D02*
X0343449Y0198421D01*
X0342425Y0196776D02*
X0341481Y0196776D01*
X0341481Y0198508D01*
X0342425Y0198508D01*
X0342425Y0196776D01*
X0342425Y0197011D02*
X0341481Y0197011D01*
X0341481Y0197246D02*
X0342425Y0197246D01*
X0342425Y0197481D02*
X0341481Y0197481D01*
X0341481Y0197716D02*
X0342425Y0197716D01*
X0342425Y0197951D02*
X0341481Y0197951D01*
X0341481Y0198186D02*
X0342425Y0198186D01*
X0342425Y0198421D02*
X0341481Y0198421D01*
X0340456Y0196776D02*
X0339512Y0196776D01*
X0339512Y0198508D01*
X0340456Y0198508D01*
X0340456Y0196776D01*
X0340456Y0197011D02*
X0339512Y0197011D01*
X0339512Y0197246D02*
X0340456Y0197246D01*
X0340456Y0197481D02*
X0339512Y0197481D01*
X0339512Y0197716D02*
X0340456Y0197716D01*
X0340456Y0197951D02*
X0339512Y0197951D01*
X0339512Y0198186D02*
X0340456Y0198186D01*
X0340456Y0198421D02*
X0339512Y0198421D01*
D18*
X0296500Y0140250D03*
X0296500Y0130250D03*
X0286500Y0130250D03*
X0286500Y0140250D03*
X0276500Y0140250D03*
X0276500Y0130250D03*
D19*
X0279000Y0035750D02*
X0279000Y0029750D01*
X0269000Y0029750D02*
X0269000Y0035750D01*
X0289000Y0035750D02*
X0289000Y0029750D01*
X0299000Y0029750D02*
X0299000Y0035750D01*
X0309000Y0035750D02*
X0309000Y0029750D01*
X0335250Y0029750D02*
X0335250Y0035750D01*
X0345250Y0035750D02*
X0345250Y0029750D01*
X0355250Y0029750D02*
X0355250Y0035750D01*
X0365250Y0035750D02*
X0365250Y0029750D01*
X0375250Y0029750D02*
X0375250Y0035750D01*
X0242750Y0035750D02*
X0242750Y0029750D01*
X0232750Y0029750D02*
X0232750Y0035750D01*
X0222750Y0035750D02*
X0222750Y0029750D01*
X0212750Y0029750D02*
X0212750Y0035750D01*
X0202750Y0035750D02*
X0202750Y0029750D01*
X0264000Y0324750D02*
X0264000Y0330750D01*
X0274000Y0330750D02*
X0274000Y0324750D01*
X0284000Y0324750D02*
X0284000Y0330750D01*
X0294000Y0330750D02*
X0294000Y0324750D01*
X0304000Y0324750D02*
X0304000Y0330750D01*
X0314000Y0330750D02*
X0314000Y0324750D01*
X0324000Y0324750D02*
X0324000Y0330750D01*
D20*
X0352760Y0225368D03*
X0356500Y0225368D03*
X0360240Y0225368D03*
X0360240Y0215132D03*
X0352760Y0215132D03*
D21*
X0257484Y0217297D03*
X0253154Y0217297D03*
X0248823Y0217297D03*
X0244492Y0217297D03*
X0240161Y0217297D03*
X0228350Y0217297D03*
X0224020Y0217297D03*
X0219689Y0217297D03*
X0215358Y0217297D03*
X0211028Y0217297D03*
X0206697Y0217297D03*
X0202366Y0217297D03*
X0202366Y0170053D03*
X0206697Y0170053D03*
X0211028Y0170053D03*
X0215358Y0170053D03*
X0219689Y0170053D03*
X0224020Y0170053D03*
X0228350Y0170053D03*
X0240161Y0170053D03*
X0244492Y0170053D03*
X0248823Y0170053D03*
X0253154Y0170053D03*
X0257484Y0170053D03*
D22*
X0232750Y0138262D03*
X0232750Y0127238D03*
D23*
X0246625Y0152750D03*
X0252625Y0152750D03*
D24*
X0186500Y0150250D03*
X0186500Y0160250D03*
X0186500Y0170250D03*
X0186500Y0180250D03*
X0186500Y0190250D03*
X0186500Y0210250D03*
X0186500Y0220250D03*
X0186500Y0230250D03*
X0186500Y0240250D03*
X0186500Y0250250D03*
X0186500Y0260250D03*
X0186500Y0270250D03*
X0186500Y0280250D03*
X0186500Y0140250D03*
X0376500Y0140250D03*
X0376500Y0150250D03*
X0376500Y0160250D03*
X0376500Y0170250D03*
X0376500Y0180250D03*
X0376500Y0190250D03*
X0376500Y0200250D03*
X0376500Y0210250D03*
X0376500Y0225250D03*
X0376500Y0235250D03*
X0376500Y0245250D03*
X0376500Y0255250D03*
X0376500Y0265250D03*
X0376500Y0275250D03*
X0376500Y0285250D03*
X0376500Y0295250D03*
X0376500Y0305250D03*
X0376500Y0315250D03*
D25*
X0354250Y0289200D03*
X0354250Y0286600D03*
X0354250Y0284100D03*
X0354250Y0281500D03*
X0354250Y0278900D03*
X0354250Y0276400D03*
X0354250Y0273800D03*
X0354250Y0260500D03*
X0354250Y0257900D03*
X0354250Y0255300D03*
X0354250Y0252800D03*
X0354250Y0250200D03*
X0354250Y0247700D03*
X0354250Y0245100D03*
X0354250Y0242500D03*
X0331250Y0242500D03*
X0331250Y0245100D03*
X0331250Y0247700D03*
X0331250Y0250200D03*
X0331250Y0252800D03*
X0331250Y0255300D03*
X0331250Y0257900D03*
X0331250Y0260500D03*
X0331250Y0273800D03*
X0331250Y0276400D03*
X0331250Y0278900D03*
X0331250Y0281500D03*
X0331250Y0284100D03*
X0331250Y0286600D03*
X0331250Y0289200D03*
D26*
X0253375Y0139463D03*
D27*
X0246239Y0139413D03*
X0260511Y0139364D03*
D28*
X0261889Y0124502D03*
X0244861Y0124502D03*
D29*
X0246717Y0297691D03*
X0240811Y0297691D03*
X0234906Y0297691D03*
X0229000Y0297691D03*
X0223094Y0297691D03*
X0217189Y0297691D03*
X0211283Y0297691D03*
X0205378Y0297691D03*
X0205378Y0350841D03*
X0211283Y0350841D03*
X0217189Y0350841D03*
X0223094Y0350841D03*
X0229000Y0350841D03*
X0234906Y0350841D03*
X0240811Y0350841D03*
X0246717Y0350841D03*
D30*
X0269875Y0381500D03*
X0314875Y0381500D03*
X0326125Y0381500D03*
X0371125Y0381500D03*
X0368000Y0129000D03*
X0307000Y0129000D03*
X0161750Y0085250D03*
X0100750Y0085250D03*
X0074250Y0085250D03*
X0013250Y0085250D03*
D31*
X0023750Y0115500D03*
X0033750Y0115500D03*
X0043750Y0115500D03*
X0053750Y0115500D03*
X0063750Y0115500D03*
X0111250Y0115500D03*
X0121250Y0115500D03*
X0131250Y0115500D03*
X0141250Y0115500D03*
X0151250Y0115500D03*
X0317500Y0159250D03*
X0327500Y0159250D03*
X0337500Y0159250D03*
X0347500Y0159250D03*
X0357500Y0159250D03*
X0358625Y0351250D03*
X0348625Y0351250D03*
X0338625Y0351250D03*
X0302375Y0351250D03*
X0292375Y0351250D03*
X0282375Y0351250D03*
D32*
X0314750Y0240850D03*
X0316750Y0240850D03*
X0318750Y0240850D03*
X0320750Y0240850D03*
X0320750Y0229650D03*
X0318750Y0229650D03*
X0316750Y0229650D03*
X0314750Y0229650D03*
D33*
X0285450Y0242500D03*
X0282850Y0242500D03*
X0280350Y0242500D03*
X0277750Y0242500D03*
X0275150Y0242500D03*
X0272650Y0242500D03*
X0270050Y0242500D03*
X0261750Y0242500D03*
X0259150Y0242500D03*
X0256550Y0242500D03*
X0254050Y0242500D03*
X0251450Y0242500D03*
X0248950Y0242500D03*
X0246350Y0242500D03*
X0243750Y0242500D03*
X0221700Y0241250D03*
X0219100Y0241250D03*
X0216600Y0241250D03*
X0214000Y0241250D03*
X0211400Y0241250D03*
X0208900Y0241250D03*
X0206300Y0241250D03*
X0206300Y0264250D03*
X0208900Y0264250D03*
X0211400Y0264250D03*
X0214000Y0264250D03*
X0216600Y0264250D03*
X0219100Y0264250D03*
X0221700Y0264250D03*
X0243750Y0265500D03*
X0246350Y0265500D03*
X0248950Y0265500D03*
X0251450Y0265500D03*
X0254050Y0265500D03*
X0256550Y0265500D03*
X0259150Y0265500D03*
X0261750Y0265500D03*
X0270050Y0265500D03*
X0272650Y0265500D03*
X0275150Y0265500D03*
X0277750Y0265500D03*
X0280350Y0265500D03*
X0282850Y0265500D03*
X0285450Y0265500D03*
D34*
X0267750Y0291500D03*
X0267750Y0301500D03*
X0267750Y0311500D03*
X0257750Y0311500D03*
X0257750Y0301500D03*
X0257750Y0291500D03*
X0211500Y0155250D03*
X0211500Y0145250D03*
X0211500Y0135250D03*
X0201500Y0135250D03*
X0201500Y0145250D03*
X0201500Y0155250D03*
D35*
X0222750Y0096500D03*
X0232750Y0086500D03*
X0222750Y0076500D03*
X0212750Y0086500D03*
X0279000Y0086500D03*
X0289000Y0076500D03*
X0299000Y0086500D03*
X0289000Y0096500D03*
X0345250Y0086500D03*
X0355250Y0076500D03*
X0365250Y0086500D03*
X0355250Y0096500D03*
D36*
X0147750Y0151057D03*
X0147750Y0212238D03*
X0147750Y0223557D03*
X0147750Y0284738D03*
X0147750Y0296057D03*
X0147750Y0357238D03*
X0060250Y0357238D03*
X0060250Y0296057D03*
X0060250Y0284738D03*
X0060250Y0223557D03*
X0060250Y0212238D03*
X0060250Y0151057D03*
D37*
X0023242Y0164148D03*
X0013242Y0169148D03*
X0013242Y0179148D03*
X0023242Y0184148D03*
X0023242Y0194148D03*
X0013242Y0199148D03*
X0013242Y0189148D03*
X0023242Y0174148D03*
X0023242Y0236648D03*
X0023242Y0246648D03*
X0013242Y0251648D03*
X0013242Y0261648D03*
X0023242Y0266648D03*
X0013242Y0271648D03*
X0023242Y0256648D03*
X0013242Y0241648D03*
X0023242Y0309148D03*
X0013242Y0314148D03*
X0013242Y0324148D03*
X0023242Y0329148D03*
X0023242Y0339148D03*
X0013242Y0344148D03*
X0013242Y0334148D03*
X0023242Y0319148D03*
X0100742Y0324148D03*
X0100742Y0314148D03*
X0110742Y0319148D03*
X0110742Y0329148D03*
X0110742Y0339148D03*
X0100742Y0344148D03*
X0100742Y0334148D03*
X0110742Y0309148D03*
X0100742Y0271648D03*
X0100742Y0261648D03*
X0100742Y0251648D03*
X0100742Y0241648D03*
X0110742Y0246648D03*
X0110742Y0236648D03*
X0110742Y0256648D03*
X0110742Y0266648D03*
X0100742Y0199148D03*
X0100742Y0189148D03*
X0100742Y0179148D03*
X0100742Y0169148D03*
X0110742Y0174148D03*
X0110742Y0184148D03*
X0110742Y0194148D03*
X0110742Y0164148D03*
D38*
X0290250Y0190550D03*
X0295250Y0190550D03*
X0300250Y0190550D03*
X0305250Y0190550D03*
X0305250Y0209950D03*
X0300250Y0209950D03*
X0295250Y0209950D03*
X0290250Y0209950D03*
D39*
X0284300Y0064000D03*
X0284300Y0059000D03*
X0284300Y0054000D03*
X0284300Y0049000D03*
X0303700Y0049000D03*
X0303700Y0054000D03*
X0303700Y0059000D03*
X0303700Y0064000D03*
X0350550Y0064000D03*
X0350550Y0059000D03*
X0350550Y0054000D03*
X0350550Y0049000D03*
X0369950Y0049000D03*
X0369950Y0054000D03*
X0369950Y0059000D03*
X0369950Y0064000D03*
X0237450Y0064000D03*
X0237450Y0059000D03*
X0237450Y0054000D03*
X0237450Y0049000D03*
X0218050Y0049000D03*
X0218050Y0054000D03*
X0218050Y0059000D03*
X0218050Y0064000D03*
M02*
