%
M48
M72
T01C0.02362
T02C0.03543
T03C0.04000
T04C0.04724
T05C0.06299
T06C0.12598
%
T01
X30250Y127750
X63750Y134250
X117750Y127750
X151250Y134250
X212750Y179000
X212750Y184000
X212750Y189000
X212750Y194000
X212750Y199000
X212750Y204000
X212750Y209000
X217750Y209000
X222750Y209000
X227750Y209000
X227750Y204000
X232750Y209000
X237750Y209000
X242750Y209000
X242750Y204000
X247750Y209000
X252750Y209000
X257750Y209000
X257750Y204000
X257750Y199000
X257750Y194000
X257750Y189000
X257750Y184000
X257750Y179000
X252750Y179000
X247750Y179000
X242750Y179000
X242750Y184000
X237750Y179000
X232750Y179000
X227750Y179000
X227750Y184000
X222750Y179000
X217750Y179000
X227750Y189000
X227750Y194000
X227750Y199000
X242750Y199000
X242750Y194000
X242750Y189000
X264000Y187125
X264000Y180875
X264000Y174625
X264000Y168375
X264000Y162125
X258375Y162125
X258375Y155875
X258375Y149625
X247750Y162125
X264000Y193375
X264000Y199625
X264000Y205875
X264000Y212125
X264000Y218375
X290250Y197750
X301500Y201500
X312750Y215250
X314000Y222750
X306904Y224000
X279000Y249000
X271500Y249000
X265250Y249000
X257750Y257750
X245250Y256500
X236500Y242750
X229000Y237750
X211028Y227278
X214000Y257750
X221500Y257750
X229000Y261500
X205250Y257750
X200250Y281500
X217750Y307750
X223094Y310250
X229000Y307750
X234906Y309906
X230250Y337750
X246500Y339000
X279000Y336500
X308750Y317500
X347850Y278900
X342950Y273800
X358596Y294404
X365250Y332750
X316500Y267750
X342750Y240250
X347750Y234000
X356500Y230250
X361500Y250250
X367750Y190654
X321500Y174000
X306500Y167750
X302750Y161500
X292750Y167750
X289000Y161500
X276500Y260250
T02
X110742Y256648
X110742Y266648
X100742Y271648
X100742Y261648
X100742Y251648
X100742Y241648
X110742Y246648
X110742Y236648
X100742Y199148
X100742Y189148
X100742Y179148
X100742Y169148
X110742Y174148
X110742Y184148
X110742Y194148
X110742Y164148
X23242Y164148
X13242Y169148
X13242Y179148
X23242Y184148
X23242Y194148
X13242Y199148
X13242Y189148
X23242Y174148
X23242Y236648
X23242Y246648
X13242Y251648
X13242Y261648
X23242Y266648
X13242Y271648
X23242Y256648
X13242Y241648
X23242Y309148
X13242Y314148
X13242Y324148
X23242Y329148
X23242Y339148
X13242Y344148
X13242Y334148
X23242Y319148
X100742Y324148
X100742Y314148
X110742Y319148
X110742Y329148
X110742Y339148
X100742Y344148
X100742Y334148
X110742Y309148
T03
X186500Y280250
X186500Y270250
X186500Y260250
X186500Y250250
X186500Y240250
X186500Y230250
X186500Y220250
X186500Y210250
X186500Y190250
X186500Y180250
X186500Y170250
X186500Y160250
X186500Y150250
X186500Y140250
X201500Y135250
X201500Y145250
X201500Y155250
X211500Y155250
X211500Y145250
X211500Y135250
X276500Y130250
X276500Y140250
X286500Y140250
X286500Y130250
X296500Y130250
X296500Y140250
X376500Y140250
X376500Y150250
X376500Y160250
X376500Y170250
X376500Y180250
X376500Y190250
X376500Y200250
X376500Y210250
X376500Y225250
X376500Y235250
X376500Y245250
X376500Y255250
X376500Y265250
X376500Y275250
X376500Y285250
X376500Y295250
X376500Y305250
X376500Y315250
X324000Y327750
X314000Y327750
X304000Y327750
X294000Y327750
X284000Y327750
X274000Y327750
X264000Y327750
X267750Y311500
X267750Y301500
X267750Y291500
X257750Y291500
X257750Y301500
X257750Y311500
X269000Y32750
X279000Y32750
X289000Y32750
X299000Y32750
X309000Y32750
X335250Y32750
X345250Y32750
X355250Y32750
X365250Y32750
X375250Y32750
X242750Y32750
X232750Y32750
X222750Y32750
X212750Y32750
X202750Y32750
T04
X222750Y76500
X212750Y86500
X222750Y96500
X232750Y86500
X279000Y86500
X289000Y76500
X299000Y86500
X289000Y96500
X345250Y86500
X355250Y76500
X365250Y86500
X355250Y96500
T05
X147750Y151057
X147750Y212238
X147750Y223557
X147750Y284738
X147750Y296057
X147750Y357238
X60250Y357238
X60250Y296057
X60250Y284738
X60250Y223557
X60250Y212238
X60250Y151057
T06
X48203Y159148
X42750Y135250
X48203Y204148
X48203Y231648
X48203Y276648
X48203Y304148
X48203Y349148
X42750Y372750
X130250Y372750
X135703Y349148
X135703Y304148
X135703Y276648
X135703Y231648
X135703Y204148
X135703Y159148
X130250Y135250
X207750Y15250
X237750Y15250
X274000Y15250
X304000Y15250
X340250Y15250
X370250Y15250
M30
