G75*
%MOIN*%
%OFA0B0*%
%FSLAX25Y25*%
%IPPOS*%
%LPD*%
%AMOC8*
5,1,8,0,0,1.08239X$1,22.5*
%
%ADD10C,0.01000*%
%ADD11R,0.03937X0.04331*%
%ADD12R,0.04331X0.03937*%
%ADD13R,0.05906X0.05906*%
%ADD14R,0.03937X0.07087*%
%ADD15C,0.06000*%
%ADD16C,0.00236*%
%ADD17OC8,0.06000*%
%ADD18R,0.02400X0.08700*%
%ADD19R,0.07087X0.03937*%
%ADD20R,0.04724X0.02165*%
%ADD21R,0.03150X0.07087*%
%ADD22R,0.07874X0.06299*%
%ADD23R,0.03150X0.03150*%
%ADD24C,0.07400*%
%ADD25R,0.05800X0.01400*%
%ADD26C,0.00000*%
%ADD27R,0.05512X0.11713*%
%ADD28R,0.05748X0.11713*%
%ADD29R,0.02992X0.18504*%
%ADD30R,0.02200X0.07800*%
D10*
X0011500Y0062524D02*
X0001500Y0072524D01*
X0001500Y0282524D01*
X0006500Y0287524D01*
X0011500Y0287524D01*
X0021500Y0297524D01*
X0191500Y0297524D01*
X0201500Y0287524D01*
X0206500Y0287524D01*
X0211500Y0282524D01*
X0211500Y0110024D01*
X0201500Y0100024D01*
X0176500Y0100024D01*
X0161500Y0085024D01*
X0161500Y0072524D01*
X0151500Y0062524D01*
X0011500Y0062524D01*
D11*
X0020654Y0081274D03*
X0027346Y0081274D03*
X0052750Y0202927D03*
X0052750Y0209620D03*
X0062750Y0209620D03*
X0062750Y0202927D03*
X0049846Y0255024D03*
X0043154Y0255024D03*
X0161500Y0261677D03*
X0161500Y0268370D03*
X0190250Y0199620D03*
X0190250Y0192927D03*
X0181096Y0176274D03*
X0181096Y0166274D03*
X0174404Y0166274D03*
X0174404Y0176274D03*
X0174404Y0155024D03*
X0174404Y0145024D03*
X0181096Y0145024D03*
X0181096Y0155024D03*
D12*
X0185654Y0136274D03*
X0192346Y0136274D03*
X0184000Y0118370D03*
X0184000Y0111677D03*
X0174000Y0111677D03*
X0174000Y0118370D03*
X0078596Y0230024D03*
X0071904Y0230024D03*
X0071500Y0237927D03*
X0071500Y0244620D03*
X0064846Y0255024D03*
X0058154Y0255024D03*
X0035250Y0254620D03*
X0035250Y0247927D03*
X0035250Y0240870D03*
X0035250Y0234177D03*
X0035250Y0227120D03*
X0035250Y0220427D03*
X0034404Y0181274D03*
X0041096Y0181274D03*
X0050029Y0151274D03*
X0056721Y0151274D03*
X0054000Y0109620D03*
X0054000Y0102927D03*
X0044000Y0102927D03*
X0044000Y0109620D03*
X0034000Y0109620D03*
X0034000Y0102927D03*
X0064000Y0102927D03*
X0064000Y0109620D03*
D13*
X0194000Y0111884D03*
X0194000Y0125663D03*
D14*
X0062750Y0220024D03*
X0052907Y0220024D03*
D15*
X0076500Y0131774D02*
X0076500Y0125774D01*
X0086500Y0125774D02*
X0086500Y0131774D01*
X0096500Y0131774D02*
X0096500Y0125774D01*
X0096500Y0116774D02*
X0096500Y0110774D01*
X0106500Y0110774D02*
X0106500Y0116774D01*
X0106500Y0125774D02*
X0106500Y0131774D01*
X0116500Y0131774D02*
X0116500Y0125774D01*
X0116500Y0116774D02*
X0116500Y0110774D01*
X0126500Y0110774D02*
X0126500Y0116774D01*
X0126500Y0125774D02*
X0126500Y0131774D01*
X0136500Y0131774D02*
X0136500Y0125774D01*
X0140250Y0094274D02*
X0140250Y0088274D01*
X0130250Y0088274D02*
X0130250Y0094274D01*
X0120250Y0094274D02*
X0120250Y0088274D01*
X0110250Y0088274D02*
X0110250Y0094274D01*
X0084000Y0094274D02*
X0084000Y0088274D01*
X0074000Y0088274D02*
X0074000Y0094274D01*
X0064000Y0094274D02*
X0064000Y0088274D01*
X0054000Y0088274D02*
X0054000Y0094274D01*
X0044000Y0094274D02*
X0044000Y0088274D01*
D16*
X0044364Y0234748D02*
X0043420Y0234748D01*
X0044364Y0234748D02*
X0044364Y0233016D01*
X0043420Y0233016D01*
X0043420Y0234748D01*
X0043420Y0233251D02*
X0044364Y0233251D01*
X0044364Y0233486D02*
X0043420Y0233486D01*
X0043420Y0233721D02*
X0044364Y0233721D01*
X0044364Y0233956D02*
X0043420Y0233956D01*
X0043420Y0234191D02*
X0044364Y0234191D01*
X0044364Y0234426D02*
X0043420Y0234426D01*
X0043420Y0234661D02*
X0044364Y0234661D01*
X0045388Y0234748D02*
X0046332Y0234748D01*
X0046332Y0233016D01*
X0045388Y0233016D01*
X0045388Y0234748D01*
X0045388Y0233251D02*
X0046332Y0233251D01*
X0046332Y0233486D02*
X0045388Y0233486D01*
X0045388Y0233721D02*
X0046332Y0233721D01*
X0046332Y0233956D02*
X0045388Y0233956D01*
X0045388Y0234191D02*
X0046332Y0234191D01*
X0046332Y0234426D02*
X0045388Y0234426D01*
X0045388Y0234661D02*
X0046332Y0234661D01*
X0047357Y0234748D02*
X0048301Y0234748D01*
X0048301Y0233016D01*
X0047357Y0233016D01*
X0047357Y0234748D01*
X0047357Y0233251D02*
X0048301Y0233251D01*
X0048301Y0233486D02*
X0047357Y0233486D01*
X0047357Y0233721D02*
X0048301Y0233721D01*
X0048301Y0233956D02*
X0047357Y0233956D01*
X0047357Y0234191D02*
X0048301Y0234191D01*
X0048301Y0234426D02*
X0047357Y0234426D01*
X0047357Y0234661D02*
X0048301Y0234661D01*
X0049325Y0234748D02*
X0050269Y0234748D01*
X0050269Y0233016D01*
X0049325Y0233016D01*
X0049325Y0234748D01*
X0049325Y0233251D02*
X0050269Y0233251D01*
X0050269Y0233486D02*
X0049325Y0233486D01*
X0049325Y0233721D02*
X0050269Y0233721D01*
X0050269Y0233956D02*
X0049325Y0233956D01*
X0049325Y0234191D02*
X0050269Y0234191D01*
X0050269Y0234426D02*
X0049325Y0234426D01*
X0049325Y0234661D02*
X0050269Y0234661D01*
X0051294Y0234748D02*
X0052238Y0234748D01*
X0052238Y0233016D01*
X0051294Y0233016D01*
X0051294Y0234748D01*
X0051294Y0233251D02*
X0052238Y0233251D01*
X0052238Y0233486D02*
X0051294Y0233486D01*
X0051294Y0233721D02*
X0052238Y0233721D01*
X0052238Y0233956D02*
X0051294Y0233956D01*
X0051294Y0234191D02*
X0052238Y0234191D01*
X0052238Y0234426D02*
X0051294Y0234426D01*
X0051294Y0234661D02*
X0052238Y0234661D01*
X0053262Y0234748D02*
X0054206Y0234748D01*
X0054206Y0233016D01*
X0053262Y0233016D01*
X0053262Y0234748D01*
X0053262Y0233251D02*
X0054206Y0233251D01*
X0054206Y0233486D02*
X0053262Y0233486D01*
X0053262Y0233721D02*
X0054206Y0233721D01*
X0054206Y0233956D02*
X0053262Y0233956D01*
X0053262Y0234191D02*
X0054206Y0234191D01*
X0054206Y0234426D02*
X0053262Y0234426D01*
X0053262Y0234661D02*
X0054206Y0234661D01*
X0055231Y0234748D02*
X0056175Y0234748D01*
X0056175Y0233016D01*
X0055231Y0233016D01*
X0055231Y0234748D01*
X0055231Y0233251D02*
X0056175Y0233251D01*
X0056175Y0233486D02*
X0055231Y0233486D01*
X0055231Y0233721D02*
X0056175Y0233721D01*
X0056175Y0233956D02*
X0055231Y0233956D01*
X0055231Y0234191D02*
X0056175Y0234191D01*
X0056175Y0234426D02*
X0055231Y0234426D01*
X0055231Y0234661D02*
X0056175Y0234661D01*
X0057199Y0234748D02*
X0058143Y0234748D01*
X0058143Y0233016D01*
X0057199Y0233016D01*
X0057199Y0234748D01*
X0057199Y0233251D02*
X0058143Y0233251D01*
X0058143Y0233486D02*
X0057199Y0233486D01*
X0057199Y0233721D02*
X0058143Y0233721D01*
X0058143Y0233956D02*
X0057199Y0233956D01*
X0057199Y0234191D02*
X0058143Y0234191D01*
X0058143Y0234426D02*
X0057199Y0234426D01*
X0057199Y0234661D02*
X0058143Y0234661D01*
X0059168Y0234748D02*
X0060112Y0234748D01*
X0060112Y0233016D01*
X0059168Y0233016D01*
X0059168Y0234748D01*
X0059168Y0233251D02*
X0060112Y0233251D01*
X0060112Y0233486D02*
X0059168Y0233486D01*
X0059168Y0233721D02*
X0060112Y0233721D01*
X0060112Y0233956D02*
X0059168Y0233956D01*
X0059168Y0234191D02*
X0060112Y0234191D01*
X0060112Y0234426D02*
X0059168Y0234426D01*
X0059168Y0234661D02*
X0060112Y0234661D01*
X0061136Y0234748D02*
X0062080Y0234748D01*
X0062080Y0233016D01*
X0061136Y0233016D01*
X0061136Y0234748D01*
X0061136Y0233251D02*
X0062080Y0233251D01*
X0062080Y0233486D02*
X0061136Y0233486D01*
X0061136Y0233721D02*
X0062080Y0233721D01*
X0062080Y0233956D02*
X0061136Y0233956D01*
X0061136Y0234191D02*
X0062080Y0234191D01*
X0062080Y0234426D02*
X0061136Y0234426D01*
X0061136Y0234661D02*
X0062080Y0234661D01*
X0060742Y0236599D02*
X0060742Y0237543D01*
X0062474Y0237543D01*
X0062474Y0236599D01*
X0060742Y0236599D01*
X0060742Y0236834D02*
X0062474Y0236834D01*
X0062474Y0237069D02*
X0060742Y0237069D01*
X0060742Y0237304D02*
X0062474Y0237304D01*
X0062474Y0237539D02*
X0060742Y0237539D01*
X0060742Y0238567D02*
X0060742Y0239511D01*
X0062474Y0239511D01*
X0062474Y0238567D01*
X0060742Y0238567D01*
X0060742Y0238802D02*
X0062474Y0238802D01*
X0062474Y0239037D02*
X0060742Y0239037D01*
X0060742Y0239272D02*
X0062474Y0239272D01*
X0062474Y0239507D02*
X0060742Y0239507D01*
X0060742Y0240536D02*
X0060742Y0241480D01*
X0062474Y0241480D01*
X0062474Y0240536D01*
X0060742Y0240536D01*
X0060742Y0240771D02*
X0062474Y0240771D01*
X0062474Y0241006D02*
X0060742Y0241006D01*
X0060742Y0241241D02*
X0062474Y0241241D01*
X0062474Y0241476D02*
X0060742Y0241476D01*
X0060742Y0242504D02*
X0060742Y0243448D01*
X0062474Y0243448D01*
X0062474Y0242504D01*
X0060742Y0242504D01*
X0060742Y0242739D02*
X0062474Y0242739D01*
X0062474Y0242974D02*
X0060742Y0242974D01*
X0060742Y0243209D02*
X0062474Y0243209D01*
X0062474Y0243444D02*
X0060742Y0243444D01*
X0061136Y0247031D02*
X0062080Y0247031D01*
X0062080Y0245299D01*
X0061136Y0245299D01*
X0061136Y0247031D01*
X0061136Y0245534D02*
X0062080Y0245534D01*
X0062080Y0245769D02*
X0061136Y0245769D01*
X0061136Y0246004D02*
X0062080Y0246004D01*
X0062080Y0246239D02*
X0061136Y0246239D01*
X0061136Y0246474D02*
X0062080Y0246474D01*
X0062080Y0246709D02*
X0061136Y0246709D01*
X0061136Y0246944D02*
X0062080Y0246944D01*
X0060112Y0247031D02*
X0059168Y0247031D01*
X0060112Y0247031D02*
X0060112Y0245299D01*
X0059168Y0245299D01*
X0059168Y0247031D01*
X0059168Y0245534D02*
X0060112Y0245534D01*
X0060112Y0245769D02*
X0059168Y0245769D01*
X0059168Y0246004D02*
X0060112Y0246004D01*
X0060112Y0246239D02*
X0059168Y0246239D01*
X0059168Y0246474D02*
X0060112Y0246474D01*
X0060112Y0246709D02*
X0059168Y0246709D01*
X0059168Y0246944D02*
X0060112Y0246944D01*
X0058143Y0247031D02*
X0057199Y0247031D01*
X0058143Y0247031D02*
X0058143Y0245299D01*
X0057199Y0245299D01*
X0057199Y0247031D01*
X0057199Y0245534D02*
X0058143Y0245534D01*
X0058143Y0245769D02*
X0057199Y0245769D01*
X0057199Y0246004D02*
X0058143Y0246004D01*
X0058143Y0246239D02*
X0057199Y0246239D01*
X0057199Y0246474D02*
X0058143Y0246474D01*
X0058143Y0246709D02*
X0057199Y0246709D01*
X0057199Y0246944D02*
X0058143Y0246944D01*
X0056175Y0247031D02*
X0055231Y0247031D01*
X0056175Y0247031D02*
X0056175Y0245299D01*
X0055231Y0245299D01*
X0055231Y0247031D01*
X0055231Y0245534D02*
X0056175Y0245534D01*
X0056175Y0245769D02*
X0055231Y0245769D01*
X0055231Y0246004D02*
X0056175Y0246004D01*
X0056175Y0246239D02*
X0055231Y0246239D01*
X0055231Y0246474D02*
X0056175Y0246474D01*
X0056175Y0246709D02*
X0055231Y0246709D01*
X0055231Y0246944D02*
X0056175Y0246944D01*
X0054206Y0247031D02*
X0053262Y0247031D01*
X0054206Y0247031D02*
X0054206Y0245299D01*
X0053262Y0245299D01*
X0053262Y0247031D01*
X0053262Y0245534D02*
X0054206Y0245534D01*
X0054206Y0245769D02*
X0053262Y0245769D01*
X0053262Y0246004D02*
X0054206Y0246004D01*
X0054206Y0246239D02*
X0053262Y0246239D01*
X0053262Y0246474D02*
X0054206Y0246474D01*
X0054206Y0246709D02*
X0053262Y0246709D01*
X0053262Y0246944D02*
X0054206Y0246944D01*
X0052238Y0247031D02*
X0051294Y0247031D01*
X0052238Y0247031D02*
X0052238Y0245299D01*
X0051294Y0245299D01*
X0051294Y0247031D01*
X0051294Y0245534D02*
X0052238Y0245534D01*
X0052238Y0245769D02*
X0051294Y0245769D01*
X0051294Y0246004D02*
X0052238Y0246004D01*
X0052238Y0246239D02*
X0051294Y0246239D01*
X0051294Y0246474D02*
X0052238Y0246474D01*
X0052238Y0246709D02*
X0051294Y0246709D01*
X0051294Y0246944D02*
X0052238Y0246944D01*
X0050269Y0247031D02*
X0049325Y0247031D01*
X0050269Y0247031D02*
X0050269Y0245299D01*
X0049325Y0245299D01*
X0049325Y0247031D01*
X0049325Y0245534D02*
X0050269Y0245534D01*
X0050269Y0245769D02*
X0049325Y0245769D01*
X0049325Y0246004D02*
X0050269Y0246004D01*
X0050269Y0246239D02*
X0049325Y0246239D01*
X0049325Y0246474D02*
X0050269Y0246474D01*
X0050269Y0246709D02*
X0049325Y0246709D01*
X0049325Y0246944D02*
X0050269Y0246944D01*
X0048301Y0247031D02*
X0047357Y0247031D01*
X0048301Y0247031D02*
X0048301Y0245299D01*
X0047357Y0245299D01*
X0047357Y0247031D01*
X0047357Y0245534D02*
X0048301Y0245534D01*
X0048301Y0245769D02*
X0047357Y0245769D01*
X0047357Y0246004D02*
X0048301Y0246004D01*
X0048301Y0246239D02*
X0047357Y0246239D01*
X0047357Y0246474D02*
X0048301Y0246474D01*
X0048301Y0246709D02*
X0047357Y0246709D01*
X0047357Y0246944D02*
X0048301Y0246944D01*
X0046332Y0247031D02*
X0045388Y0247031D01*
X0046332Y0247031D02*
X0046332Y0245299D01*
X0045388Y0245299D01*
X0045388Y0247031D01*
X0045388Y0245534D02*
X0046332Y0245534D01*
X0046332Y0245769D02*
X0045388Y0245769D01*
X0045388Y0246004D02*
X0046332Y0246004D01*
X0046332Y0246239D02*
X0045388Y0246239D01*
X0045388Y0246474D02*
X0046332Y0246474D01*
X0046332Y0246709D02*
X0045388Y0246709D01*
X0045388Y0246944D02*
X0046332Y0246944D01*
X0044364Y0247031D02*
X0043420Y0247031D01*
X0044364Y0247031D02*
X0044364Y0245299D01*
X0043420Y0245299D01*
X0043420Y0247031D01*
X0043420Y0245534D02*
X0044364Y0245534D01*
X0044364Y0245769D02*
X0043420Y0245769D01*
X0043420Y0246004D02*
X0044364Y0246004D01*
X0044364Y0246239D02*
X0043420Y0246239D01*
X0043420Y0246474D02*
X0044364Y0246474D01*
X0044364Y0246709D02*
X0043420Y0246709D01*
X0043420Y0246944D02*
X0044364Y0246944D01*
X0043026Y0243448D02*
X0043026Y0242504D01*
X0043026Y0243448D02*
X0044758Y0243448D01*
X0044758Y0242504D01*
X0043026Y0242504D01*
X0043026Y0242739D02*
X0044758Y0242739D01*
X0044758Y0242974D02*
X0043026Y0242974D01*
X0043026Y0243209D02*
X0044758Y0243209D01*
X0044758Y0243444D02*
X0043026Y0243444D01*
X0043026Y0241480D02*
X0043026Y0240536D01*
X0043026Y0241480D02*
X0044758Y0241480D01*
X0044758Y0240536D01*
X0043026Y0240536D01*
X0043026Y0240771D02*
X0044758Y0240771D01*
X0044758Y0241006D02*
X0043026Y0241006D01*
X0043026Y0241241D02*
X0044758Y0241241D01*
X0044758Y0241476D02*
X0043026Y0241476D01*
X0043026Y0239511D02*
X0043026Y0238567D01*
X0043026Y0239511D02*
X0044758Y0239511D01*
X0044758Y0238567D01*
X0043026Y0238567D01*
X0043026Y0238802D02*
X0044758Y0238802D01*
X0044758Y0239037D02*
X0043026Y0239037D01*
X0043026Y0239272D02*
X0044758Y0239272D01*
X0044758Y0239507D02*
X0043026Y0239507D01*
X0043026Y0237543D02*
X0043026Y0236599D01*
X0043026Y0237543D02*
X0044758Y0237543D01*
X0044758Y0236599D01*
X0043026Y0236599D01*
X0043026Y0236834D02*
X0044758Y0236834D01*
X0044758Y0237069D02*
X0043026Y0237069D01*
X0043026Y0237304D02*
X0044758Y0237304D01*
X0044758Y0237539D02*
X0043026Y0237539D01*
D17*
X0091500Y0277524D03*
X0091500Y0287524D03*
X0101500Y0287524D03*
X0101500Y0277524D03*
X0111500Y0277524D03*
X0111500Y0287524D03*
D18*
X0087750Y0177824D03*
X0082750Y0177824D03*
X0077750Y0177824D03*
X0072750Y0177824D03*
X0072750Y0157224D03*
X0077750Y0157224D03*
X0082750Y0157224D03*
X0087750Y0157224D03*
D19*
X0096500Y0175024D03*
X0096500Y0184866D03*
D20*
X0108882Y0150014D03*
X0108882Y0146274D03*
X0108882Y0142533D03*
X0119118Y0142533D03*
X0119118Y0150014D03*
D21*
X0126766Y0199226D03*
X0131096Y0199226D03*
X0135427Y0199226D03*
X0139758Y0199226D03*
X0144089Y0199226D03*
X0155900Y0199226D03*
X0160230Y0199226D03*
X0164561Y0199226D03*
X0168892Y0199226D03*
X0173222Y0199226D03*
X0177553Y0199226D03*
X0181884Y0199226D03*
X0181884Y0246470D03*
X0177553Y0246470D03*
X0173222Y0246470D03*
X0168892Y0246470D03*
X0164561Y0246470D03*
X0160230Y0246470D03*
X0155900Y0246470D03*
X0144089Y0246470D03*
X0139758Y0246470D03*
X0135427Y0246470D03*
X0131096Y0246470D03*
X0126766Y0246470D03*
D22*
X0174000Y0260762D03*
X0174000Y0271785D03*
D23*
X0152000Y0261274D03*
X0146000Y0261274D03*
D24*
X0201500Y0257524D03*
X0201500Y0267524D03*
X0201500Y0277524D03*
X0201500Y0247524D03*
X0201500Y0237524D03*
X0201500Y0227524D03*
X0201500Y0207524D03*
X0201500Y0197524D03*
X0201500Y0187524D03*
X0201500Y0177524D03*
X0201500Y0167524D03*
X0201500Y0157524D03*
X0201500Y0147524D03*
X0201500Y0137524D03*
X0011500Y0142524D03*
X0011500Y0152524D03*
X0011500Y0162524D03*
X0011500Y0172524D03*
X0011500Y0182524D03*
X0011500Y0192524D03*
X0011500Y0207524D03*
X0011500Y0217524D03*
X0011500Y0227524D03*
X0011500Y0237524D03*
X0011500Y0247524D03*
X0011500Y0257524D03*
X0011500Y0267524D03*
X0011500Y0277524D03*
X0011500Y0132524D03*
X0011500Y0122524D03*
X0011500Y0112524D03*
X0011500Y0102524D03*
D25*
X0033750Y0128574D03*
X0033750Y0131174D03*
X0033750Y0133674D03*
X0033750Y0136274D03*
X0033750Y0138874D03*
X0033750Y0141374D03*
X0033750Y0143974D03*
X0033750Y0157274D03*
X0033750Y0159874D03*
X0033750Y0162474D03*
X0033750Y0164974D03*
X0033750Y0167574D03*
X0033750Y0170074D03*
X0033750Y0172674D03*
X0033750Y0175274D03*
X0056750Y0175274D03*
X0056750Y0172674D03*
X0056750Y0170074D03*
X0056750Y0167574D03*
X0056750Y0164974D03*
X0056750Y0162474D03*
X0056750Y0159874D03*
X0056750Y0157274D03*
X0056750Y0143974D03*
X0056750Y0141374D03*
X0056750Y0138874D03*
X0056750Y0136274D03*
X0056750Y0133674D03*
X0056750Y0131174D03*
X0056750Y0128574D03*
D26*
X0138508Y0278144D02*
X0151992Y0278144D01*
X0151992Y0297391D01*
X0138508Y0297391D02*
X0138508Y0278144D01*
D27*
X0145250Y0270811D03*
D28*
X0152386Y0270860D03*
X0138114Y0270909D03*
D29*
X0136736Y0285772D03*
X0153764Y0285772D03*
D30*
X0151500Y0175974D03*
X0156500Y0175974D03*
X0161500Y0175974D03*
X0166500Y0175974D03*
X0166500Y0156574D03*
X0161500Y0156574D03*
X0156500Y0156574D03*
X0151500Y0156574D03*
M02*
